<svg width="20" height="20" viewBox="0 0 20 20" fill="none" xmlns="http://www.w3.org/2000/svg">
<path d="M10 1.6665C5.40834 1.6665 1.66667 5.40817 1.66667 9.99984C1.66667 14.5915 5.40834 18.3332 10 18.3332C14.5917 18.3332 18.3333 14.5915 18.3333 9.99984C18.3333 5.40817 14.5917 1.6665 10 1.6665ZM11.4917 12.4998C11.7333 12.7415 11.7333 13.1415 11.4917 13.3832C11.3667 13.5082 11.2083 13.5665 11.05 13.5665C10.8917 13.5665 10.7333 13.5082 10.6083 13.3832L7.66667 10.4415C7.42501 10.1998 7.42501 9.79984 7.66667 9.55817L10.6083 6.6165C10.85 6.37484 11.25 6.37484 11.4917 6.6165C11.7333 6.85817 11.7333 7.25817 11.4917 7.49984L8.99167 9.99984L11.4917 12.4998Z" fill="white"/>
</svg>
