<svg width="1017" height="608" viewBox="0 0 1017 608" fill="none" xmlns="http://www.w3.org/2000/svg">
<path d="M806.5 450.5C839 469.333 916 471.2 964 328" stroke="#B2B2B2" stroke-dasharray="8 8"/>
<path d="M369 297.5C265.5 262.167 96.4 165.8 248 63" stroke="#B2B2B2" stroke-dasharray="8 8"/>
<path d="M643 302C652.167 214.833 682.2 41.7 729 46.5" stroke="#B2B2B2" stroke-dasharray="8 8"/>
<path d="M318.5 557C260.667 563.833 115.8 534.8 75 468" stroke="#B2B2B2" stroke-dasharray="8 8"/>
<path d="M805.688 506.288C802.294 506.288 800.906 503.888 802.594 500.944C803.569 499.238 802.988 497.063 801.281 496.088L798.038 494.231C796.556 493.35 794.644 493.875 793.762 495.356L793.556 495.713C791.869 498.656 789.094 498.656 787.388 495.713L787.181 495.356C786.337 493.875 784.425 493.35 782.944 494.231L779.7 496.088C777.994 497.063 777.412 499.256 778.387 500.963C780.094 503.888 778.706 506.288 775.313 506.288C773.363 506.288 771.75 507.881 771.75 509.85V513.15C771.75 515.1 773.344 516.713 775.313 516.713C778.706 516.713 780.094 519.113 778.387 522.056C777.412 523.763 777.994 525.938 779.7 526.913L782.944 528.769C784.425 529.65 786.338 529.125 787.219 527.644L787.425 527.288C789.112 524.344 791.887 524.344 793.594 527.288L793.8 527.644C794.681 529.125 796.594 529.65 798.075 528.769L801.319 526.913C803.025 525.938 803.606 523.744 802.631 522.056C800.925 519.113 802.313 516.713 805.706 516.713C807.656 516.713 809.269 515.119 809.269 513.15V509.85C809.25 507.9 807.656 506.288 805.688 506.288ZM790.5 517.594C787.144 517.594 784.406 514.856 784.406 511.5C784.406 508.144 787.144 505.406 790.5 505.406C793.856 505.406 796.594 508.144 796.594 511.5C796.594 514.856 793.856 517.594 790.5 517.594Z" fill="white" fill-opacity="0.72"/>
<path d="M509 607.328C677.089 607.328 813.353 532.295 813.353 439.738C813.353 347.181 677.089 272.149 509 272.149C340.911 272.149 204.647 347.181 204.647 439.738C204.647 532.295 340.911 607.328 509 607.328Z" fill="#D5D5F6"/>
<path d="M637.537 351.995L380.463 493.517C378.348 494.679 375.95 495.292 373.51 495.292C371.069 495.292 368.671 494.679 366.557 493.517L352.988 486.101C352.226 485.682 351.593 485.08 351.153 484.354C350.713 483.628 350.481 482.805 350.481 481.966C350.481 481.128 350.713 480.304 351.153 479.578C351.593 478.853 352.226 478.25 352.988 477.832L610.088 336.248C612.201 335.088 614.596 334.477 617.035 334.477C619.473 334.477 621.868 335.088 623.981 336.248L637.55 343.726C638.308 344.148 638.937 344.752 639.373 345.478C639.809 346.204 640.038 347.027 640.037 347.864C640.036 348.701 639.804 349.523 639.365 350.248C638.927 350.972 638.296 351.575 637.537 351.995Z" fill="#BEBEE6"/>
<path d="M598.139 510.746C628.666 510.746 653.413 497.122 653.413 480.316C653.413 463.51 628.666 449.886 598.139 449.886C567.612 449.886 542.865 463.51 542.865 480.316C542.865 497.122 567.612 510.746 598.139 510.746Z" fill="#BEBEE6"/>
<path d="M705.163 395.601C729.062 395.601 748.436 384.932 748.436 371.771C748.436 358.61 729.062 347.941 705.163 347.941C681.263 347.941 661.889 358.61 661.889 371.771C661.889 384.932 681.263 395.601 705.163 395.601Z" fill="#BEBEE6"/>
<path d="M313.2 544.403C337.1 544.403 356.474 533.734 356.474 520.573C356.474 507.412 337.1 496.743 313.2 496.743C289.301 496.743 269.927 507.412 269.927 520.573C269.927 533.734 289.301 544.403 313.2 544.403Z" fill="#BEBEE6"/>
<path d="M363.537 205.665L624.344 62.0785C627.338 60.4346 630.02 60.5582 631.926 62.0785L640.998 68.036L634.712 75.279V275.82C634.712 283.174 630.033 291.703 624.253 294.891L366.09 437.031L365.611 444.855L356.098 438.675C354.206 437.316 353.039 434.634 353.039 430.963V224.724C353.078 217.37 357.757 208.841 363.537 205.665Z" fill="#7474E2"/>
<path opacity="0.4" d="M363.537 205.665L624.344 62.0785C627.338 60.4346 630.02 60.5582 631.926 62.0785L640.998 68.036L634.712 75.279V275.82C634.712 283.174 630.033 291.703 624.253 294.891L366.09 437.031L365.611 444.855L356.098 438.675C354.206 437.316 353.039 434.634 353.039 430.963V224.724C353.078 217.37 357.757 208.841 363.537 205.665Z" fill="white"/>
<path d="M361.956 436.747V230.545C362.067 226.376 363.275 222.3 365.468 218.692L356.15 213.6C354.227 217.027 353.175 220.837 353.078 224.724V430.926C353.078 434.634 354.245 437.279 356.137 438.638L364.898 444.361C363.083 442.977 361.956 440.344 361.956 436.747Z" fill="#7474E2"/>
<path opacity="0.2" d="M361.956 436.747V230.545C362.067 226.376 363.275 222.3 365.468 218.692L356.15 213.6C354.227 217.027 353.175 220.837 353.078 224.724V430.926C353.078 434.634 354.245 437.279 356.137 438.638L364.898 444.361C363.083 442.977 361.956 440.344 361.956 436.747Z" fill="white"/>
<path d="M372.415 444.299L633.17 300.713C638.95 297.536 643.628 288.996 643.628 281.654V75.452C643.628 68.1101 638.95 64.7359 633.17 67.9124L372.415 211.486C366.634 214.675 361.956 223.203 361.956 230.545V436.747C361.956 444.101 366.634 447.488 372.415 444.299Z" fill="#7474E2"/>
<path d="M372.415 444.299L633.17 300.713C638.95 297.536 643.628 288.996 643.628 281.654V75.452C643.628 68.1101 638.95 64.7359 633.17 67.9124L372.415 211.486C366.634 214.675 361.956 223.203 361.956 230.545V436.747C361.956 444.101 366.634 447.488 372.415 444.299Z" fill="#7474E2"/>
<path opacity="0.7" d="M372.415 444.299L633.17 300.713C638.95 297.536 643.628 288.996 643.628 281.654V75.452C643.628 68.1101 638.95 64.7359 633.17 67.9124L372.415 211.486C366.634 214.675 361.956 223.203 361.956 230.545V436.747C361.956 444.101 366.634 447.488 372.415 444.299Z" fill="white"/>
<path d="M372.415 211.486L633.17 67.9124C638.95 64.7359 643.628 68.1101 643.628 75.452V85.5377L361.956 240.631V230.545C361.956 223.203 366.634 214.675 372.415 211.486Z" fill="#7474E2"/>
<path opacity="0.5" d="M372.415 211.486L633.17 67.9124C638.95 64.7359 643.628 68.1101 643.628 75.452V85.5377L361.956 240.631V230.545C361.956 223.203 366.634 214.675 372.415 211.486Z" fill="white"/>
<path d="M637.304 67.6899C640.505 67.6899 642.592 70.7429 642.592 75.452V281.654C642.592 288.674 638.12 296.857 632.638 299.873L371.909 443.446C370.817 444.106 369.56 444.477 368.267 444.522C365.053 444.522 362.98 441.469 362.98 436.747V230.545C362.98 223.525 367.438 215.355 372.933 212.327L633.688 68.7529C634.783 68.1 636.039 67.7335 637.33 67.6899M637.33 66.7135C635.853 66.7675 634.418 67.194 633.17 67.9495L372.415 211.486C366.634 214.675 361.956 223.203 361.956 230.545V436.747C361.956 442.223 364.548 445.486 368.267 445.486C369.739 445.426 371.169 444.999 372.415 444.25L633.17 300.664C638.95 297.487 643.628 288.946 643.628 281.604V75.452C643.628 69.9889 641.036 66.7135 637.33 66.7135Z" fill="#7474E2"/>
<path d="M385.426 388.79C384.827 388.791 384.244 388.603 383.768 388.255C383.292 387.907 382.95 387.419 382.794 386.866C382.639 386.314 382.68 385.728 382.91 385.2C383.14 384.672 383.546 384.231 384.066 383.945L462.344 340.846C462.654 340.653 463.001 340.522 463.366 340.461C463.73 340.4 464.104 340.411 464.464 340.493C464.824 340.574 465.162 340.725 465.459 340.936C465.756 341.147 466.005 341.413 466.19 341.718C466.375 342.024 466.493 342.362 466.537 342.712C466.58 343.063 466.548 343.418 466.443 343.756C466.338 344.094 466.162 344.409 465.925 344.68C465.688 344.951 465.396 345.173 465.066 345.333L386.787 388.432C386.377 388.669 385.906 388.793 385.426 388.79Z" fill="#FAFAFA"/>
<path d="M385.426 405.056C384.825 405.062 384.239 404.878 383.76 404.531C383.281 404.185 382.937 403.697 382.781 403.143C382.625 402.589 382.667 402.002 382.899 401.473C383.132 400.945 383.542 400.505 384.066 400.223L495.522 338.819C495.831 338.648 496.173 338.538 496.528 338.493C496.882 338.449 497.243 338.472 497.588 338.56C497.933 338.648 498.257 338.801 498.541 339.009C498.824 339.216 499.062 339.475 499.241 339.771C499.42 340.066 499.536 340.392 499.582 340.73C499.629 341.068 499.605 341.412 499.512 341.741C499.42 342.071 499.26 342.38 499.042 342.65C498.824 342.921 498.553 343.148 498.243 343.318L386.787 404.71C386.374 404.938 385.904 405.057 385.426 405.056Z" fill="#FAFAFA"/>
<path d="M509.246 353.156C508.645 353.163 508.059 352.978 507.58 352.632C507.101 352.285 506.757 351.797 506.601 351.243C506.445 350.69 506.487 350.102 506.719 349.574C506.952 349.045 507.362 348.605 507.885 348.324L585.01 305.855C585.32 305.662 585.668 305.531 586.032 305.47C586.397 305.409 586.77 305.42 587.13 305.502C587.49 305.583 587.829 305.734 588.126 305.945C588.422 306.155 588.671 306.422 588.856 306.727C589.042 307.032 589.16 307.371 589.203 307.721C589.247 308.072 589.215 308.427 589.11 308.765C589.004 309.103 588.828 309.418 588.591 309.689C588.354 309.96 588.062 310.182 587.732 310.341L510.594 352.81C510.184 353.037 509.72 353.156 509.246 353.156Z" fill="#FAFAFA"/>
<path d="M385.426 421.334C384.827 421.335 384.244 421.147 383.768 420.799C383.292 420.451 382.95 419.963 382.794 419.41C382.639 418.858 382.68 418.272 382.91 417.744C383.14 417.215 383.546 416.774 384.066 416.489L483.56 361.71C484.185 361.365 484.928 361.272 485.626 361.451C486.324 361.629 486.918 362.065 487.279 362.661C487.64 363.258 487.738 363.967 487.55 364.632C487.363 365.297 486.907 365.864 486.281 366.209L386.787 420.988C386.374 421.216 385.904 421.335 385.426 421.334Z" fill="#FAFAFA"/>
<path d="M385.426 253.671C384.827 253.671 384.244 253.483 383.768 253.135C383.292 252.787 382.95 252.299 382.794 251.747C382.639 251.194 382.68 250.609 382.91 250.08C383.14 249.552 383.546 249.111 384.066 248.826L462.344 205.726C462.654 205.533 463.001 205.402 463.366 205.342C463.73 205.281 464.104 205.292 464.464 205.373C464.824 205.455 465.162 205.606 465.459 205.816C465.756 206.027 466.005 206.293 466.19 206.599C466.375 206.904 466.493 207.242 466.537 207.593C466.58 207.943 466.548 208.298 466.443 208.637C466.338 208.975 466.162 209.289 465.925 209.56C465.688 209.831 465.396 210.053 465.066 210.213L386.787 253.325C386.374 253.553 385.904 253.672 385.426 253.671Z" fill="#FAFAFA"/>
<path d="M385.426 269.949C384.827 269.95 384.244 269.761 383.768 269.413C383.292 269.065 382.95 268.577 382.794 268.025C382.639 267.472 382.68 266.887 382.91 266.358C383.14 265.83 383.546 265.389 384.066 265.104L495.522 203.712C495.831 203.519 496.179 203.388 496.543 203.327C496.908 203.266 497.281 203.277 497.641 203.359C498.001 203.44 498.34 203.591 498.637 203.802C498.934 204.012 499.182 204.279 499.367 204.584C499.553 204.889 499.671 205.228 499.714 205.578C499.758 205.928 499.726 206.284 499.621 206.622C499.516 206.96 499.339 207.274 499.102 207.546C498.865 207.817 498.573 208.039 498.243 208.198L386.787 269.591C386.377 269.828 385.906 269.952 385.426 269.949Z" fill="#FAFAFA"/>
<path d="M509.246 218.049C508.647 218.05 508.063 217.862 507.588 217.514C507.112 217.166 506.769 216.678 506.614 216.125C506.459 215.573 506.5 214.987 506.729 214.459C506.959 213.931 507.366 213.489 507.885 213.204L585.01 170.735C585.32 170.542 585.668 170.411 586.032 170.35C586.397 170.29 586.77 170.3 587.13 170.382C587.49 170.464 587.829 170.614 588.126 170.825C588.422 171.036 588.671 171.302 588.856 171.607C589.042 171.913 589.16 172.251 589.203 172.602C589.247 172.952 589.215 173.307 589.11 173.645C589.004 173.984 588.828 174.298 588.591 174.569C588.354 174.84 588.062 175.062 587.732 175.222L510.594 217.691C510.188 217.926 509.721 218.05 509.246 218.049Z" fill="#FAFAFA"/>
<path d="M385.426 286.215C384.825 286.221 384.239 286.036 383.76 285.69C383.281 285.344 382.937 284.855 382.781 284.302C382.625 283.748 382.667 283.161 382.899 282.632C383.132 282.103 383.542 281.664 384.066 281.382L483.559 226.602C484.18 226.302 484.898 226.24 485.565 226.429C486.232 226.617 486.798 227.043 487.147 227.617C487.495 228.192 487.6 228.872 487.439 229.518C487.278 230.163 486.863 230.726 486.281 231.089L386.787 285.869C386.374 286.096 385.904 286.216 385.426 286.215Z" fill="#FAFAFA"/>
<path d="M384.156 217.765C384.087 219.058 383.699 220.318 383.023 221.441C382.348 222.564 381.404 223.519 380.268 224.229C378.104 225.465 376.38 224.452 376.38 222.079C376.45 220.785 376.838 219.526 377.513 218.403C378.189 217.28 379.133 216.324 380.268 215.614C382.407 214.415 384.156 215.38 384.156 217.765Z" fill="white"/>
<path d="M397.959 210.176C397.889 211.469 397.501 212.729 396.826 213.852C396.15 214.975 395.206 215.93 394.071 216.64C391.906 217.876 390.183 216.863 390.183 214.49C390.252 213.196 390.64 211.937 391.316 210.814C391.991 209.691 392.935 208.735 394.071 208.025C396.248 206.814 397.959 207.778 397.959 210.176Z" fill="white"/>
<path d="M411.8 202.562C411.731 203.855 411.343 205.115 410.667 206.238C409.991 207.361 409.047 208.317 407.912 209.027C405.748 210.263 404.024 209.249 404.024 206.876C404.093 205.583 404.481 204.323 405.157 203.2C405.833 202.077 406.776 201.122 407.912 200.412C410.012 199.213 411.8 200.177 411.8 202.562Z" fill="white"/>
<path d="M439.21 268.577L433.651 266.278V211.313L439.21 213.612V268.577Z" fill="#7474E2"/>
<path opacity="0.6" d="M439.21 268.577L433.651 266.278V211.313L439.21 213.612V268.577Z" fill="black"/>
<path d="M665.349 88.8255L439.21 213.612L433.651 211.313L659.777 86.5389L665.349 88.8255Z" fill="#7474E2"/>
<path opacity="0.4" d="M665.349 88.8255L439.21 213.612L433.651 211.313L659.777 86.5389L665.349 88.8255Z" fill="black"/>
<path d="M665.349 143.79L439.21 268.577V213.612L665.349 88.8256V143.79Z" fill="#7474E2"/>
<path opacity="0.3" d="M665.349 143.79L439.21 268.577V213.612L665.349 88.8256V143.79Z" fill="black"/>
<path d="M517.894 206.121L526.956 171.653L532.449 168.643L523.386 203.111L517.894 206.121Z" fill="white"/>
<path d="M725.212 229.556L729.696 234.661C730.252 239.362 731.311 243.997 732.858 248.492C735.45 256.464 735.009 259.838 735.009 259.838L744.522 259.134L740.725 230.706C740.464 228.806 739.779 226.98 738.716 225.354L736.409 221.807L725.212 229.556Z" fill="#945959"/>
<path d="M730.422 373.538C730.422 373.538 724.447 377.975 725.017 380.596C725.588 383.216 734.906 384.464 739.429 379.36C741.438 377.098 742.863 372.487 743.045 366.864C743.135 364.058 746.842 359.905 743.045 356.976C739.247 354.046 737.731 353.354 736.785 353.725C735.839 354.096 730.422 373.538 730.422 373.538Z" fill="#37474F"/>
<path d="M725.963 352.094L729.476 359.238C729.476 359.238 730.616 369.558 730.422 373.538C730.422 373.538 735.839 376.702 737.446 370.708C738.063 367.862 738.35 364.961 738.301 362.056C737.709 360.047 737.459 357.96 737.563 355.876C737.654 355.232 737.614 354.577 737.446 353.948L735.839 347.644L725.963 352.094Z" fill="#945959"/>
<path d="M677.273 363.885C677.273 363.885 675.108 365.269 673.592 366.295C672.076 367.321 665.725 372.352 674.603 373.897C676.817 374.198 679.073 374.013 681.2 373.355C683.327 372.697 685.269 371.585 686.876 370.102C691.244 365.999 694.406 367.272 695.948 365.64C697.49 364.009 696.363 354.899 694.198 355.32L677.273 363.885Z" fill="#37474F"/>
<path d="M684.66 347.842L685.347 353.737C685.402 354.24 685.317 354.747 685.1 355.208C684.465 356.506 682.625 359.336 677.324 363.86C677.324 363.86 677.234 368.421 683.947 366.221C685.779 365.403 687.517 364.405 689.131 363.242C689.915 362.712 690.562 362.019 691.023 361.215C691.822 359.759 692.874 358.443 694.134 357.322L694.833 347.817L684.66 347.842Z" fill="#945959"/>
<path d="M678.776 248.022C678.776 248.022 676.91 256.86 677.299 273.632C677.545 284.905 677.791 293.334 677.908 297.66C677.97 299.807 678.156 301.948 678.465 304.075L684.634 347.842C686.193 348.629 687.931 349.04 689.695 349.04C691.459 349.04 693.196 348.629 694.756 347.842C694.756 347.842 695.637 338.189 696.648 333.121C697.555 328.634 698.747 315.52 696.363 308.648C695.693 306.653 695.525 304.537 695.87 302.468L702.882 258.38L678.776 248.022Z" fill="#455A64"/>
<path d="M683.571 258.158C684.361 260.149 685.575 261.962 687.136 263.483C688.698 265.004 690.573 266.2 692.643 266.995L697.762 290.8L702.946 258.429L683.571 258.158Z" fill="#37474F"/>
<path d="M680.863 247.565C680.863 247.565 679.567 258.306 688.963 262.496C690.821 263.427 692.799 264.121 694.846 264.56C694.846 264.56 702.532 308.265 703.918 311.528C705.305 314.791 725.95 352.069 725.95 352.069C725.95 352.069 734.115 353.7 735.826 347.632C735.826 347.632 734.025 339.672 731.744 330.983C729.825 323.665 727.57 315.384 723.618 311.33C722.102 309.822 721.269 307.807 721.298 305.719C721.466 298.612 721.803 283.693 721.868 279.676C721.972 274.337 724.058 257.317 720.455 250.445L709.336 240.755L680.863 247.565Z" fill="#455A64"/>
<path d="M673.151 187.607L664.779 182.86C664.779 182.86 659.453 176.446 655.137 170.735C650.821 165.025 649.007 162.083 649.007 162.083C650.364 160.113 651.151 157.836 651.288 155.483C651.288 152.047 651.093 150.415 651.767 149.142C652.441 147.869 651.767 146.522 649.966 147.066C648.165 147.61 646.83 151.305 647.374 153.715L637.317 159.277C637.317 159.277 638.989 163.542 641.296 165.532C641.296 165.532 650.51 186.704 654.113 190.14C657.716 193.576 664.015 198.236 664.015 198.236L673.151 187.607Z" fill="#945959"/>
<path d="M690.349 197.346L673.151 187.607C673.151 187.607 665.194 188.138 664.079 198.199L679.126 208.952L690.349 197.346Z" fill="#7474E2"/>
<path opacity="0.2" d="M690.349 197.346L673.151 187.607C673.151 187.607 665.194 188.138 664.079 198.199L679.126 208.952L690.349 197.346Z" fill="black"/>
<path d="M693.68 197.346L705.163 197.89L712.666 198.249L713.962 215.169C713.962 215.169 711.979 224.946 710.463 228.382C708.947 231.818 718.9 245.946 720.52 250.47C720.52 250.47 714.157 251.285 710.93 244.29C709.467 247.642 706.975 250.493 703.78 252.468C700.585 254.443 696.838 255.448 693.032 255.352C683.882 255.352 678.776 248.022 678.776 248.022L680.863 235.662C679.592 231.882 678.89 227.95 678.776 223.982C678.776 223.982 673.592 222.165 674.771 214.848C675.951 207.531 690.323 197.383 690.323 197.383L693.68 197.346Z" fill="#7474E2"/>
<path d="M717.138 170.018C717.138 170.018 723.708 164.84 729.385 170.735C737.55 179.227 719.898 195.9 735.554 196.259C735.554 196.259 733.752 198.249 727.674 198.249C721.596 198.249 716.386 192.254 717.423 181.229L717.138 170.018Z" fill="#263238"/>
<path d="M715.064 169.746C715.064 169.746 717.164 168.51 717.967 169.4C718.771 170.29 719.833 177.2 717.436 181.229C716.295 183.132 714.027 180.512 714.027 180.512L715.064 169.746Z" fill="#7474E2"/>
<path d="M679.852 170.735C679.852 170.735 679.942 177.892 675.108 175.902C675.506 176.851 676.207 177.656 677.112 178.204C678.017 178.752 679.08 179.015 680.15 178.955C682.807 178.955 684.336 176.483 684.336 174.542L679.852 170.735Z" fill="#263238"/>
<path d="M705.235 180.045C712.195 176.115 714.496 167.549 710.375 160.911C706.255 154.274 697.272 152.079 690.313 156.009C683.353 159.939 681.052 168.506 685.172 175.143C689.293 181.78 698.276 183.975 705.235 180.045Z" fill="#263238"/>
<path d="M716.567 174.542C716.567 182.255 709.349 192.056 701.262 192.056C699.339 192.058 697.435 191.698 695.658 190.998C693.882 190.297 692.267 189.269 690.907 187.973C689.547 186.677 688.468 185.139 687.732 183.445C686.996 181.751 686.617 179.935 686.617 178.102C686.617 170.389 693.175 161.601 701.262 161.601C709.349 161.601 716.567 164.222 716.567 174.542Z" fill="#263238"/>
<path d="M694.185 166.347C694.188 167.969 693.686 169.554 692.744 170.904C691.801 172.253 690.46 173.305 688.89 173.927C687.32 174.549 685.592 174.713 683.925 174.399C682.257 174.084 680.725 173.304 679.522 172.159C678.319 171.013 677.499 169.553 677.167 167.963C676.834 166.373 677.003 164.725 677.653 163.227C678.303 161.729 679.405 160.448 680.818 159.547C682.231 158.646 683.893 158.165 685.593 158.165C687.87 158.165 690.053 159.027 691.664 160.561C693.275 162.095 694.182 164.176 694.185 166.347Z" fill="#263238"/>
<path d="M693.68 189.831V197.346C693.68 197.346 686.319 204.404 693.486 205.022C700.653 205.64 705.15 197.89 705.15 197.89V183.565L693.68 189.831Z" fill="#945959"/>
<path d="M705.033 181.303V181.748C702.441 191.376 695.818 193.478 693.68 193.96L693.602 179.054H704.709L705.033 181.303Z" fill="#703838"/>
<path d="M695.754 159.858C692.081 160.085 688.646 161.67 686.181 164.277C683.717 166.884 682.417 170.306 682.56 173.813C682.431 184.48 684.141 192.612 689.935 192.946C695.728 193.28 708.675 188.299 709.284 174.406C709.893 160.514 699.888 159.5 695.754 159.858Z" fill="#945959"/>
<path d="M690.388 178.102L690.492 184.356L686.63 183.293L690.388 178.102Z" fill="#703838"/>
<path d="M696.155 177.929C696.155 178.171 696.08 178.407 695.941 178.609C695.801 178.81 695.602 178.968 695.369 179.064C695.136 179.159 694.879 179.187 694.629 179.144C694.38 179.101 694.149 178.989 693.966 178.822C693.782 178.656 693.654 178.441 693.597 178.206C693.54 177.97 693.556 177.724 693.644 177.497C693.733 177.27 693.889 177.073 694.093 176.93C694.297 176.787 694.541 176.705 694.795 176.693C694.97 176.684 695.146 176.71 695.31 176.768C695.475 176.827 695.626 176.917 695.753 177.032C695.88 177.148 695.982 177.287 696.051 177.441C696.12 177.595 696.156 177.761 696.155 177.929Z" fill="#263238"/>
<path d="M687.343 177.162C687.343 177.407 687.267 177.646 687.124 177.849C686.982 178.052 686.779 178.211 686.542 178.304C686.306 178.398 686.045 178.422 685.794 178.375C685.542 178.327 685.311 178.209 685.13 178.036C684.949 177.864 684.825 177.643 684.775 177.404C684.725 177.164 684.751 176.915 684.849 176.689C684.947 176.464 685.113 176.271 685.327 176.135C685.54 175.999 685.79 175.926 686.047 175.926C686.39 175.926 686.72 176.057 686.963 176.288C687.206 176.52 687.343 176.835 687.343 177.162Z" fill="#263238"/>
<path d="M684.336 174.542L686.928 173.022C686.928 173.022 685.917 172.045 684.919 172.651C684.634 172.874 684.427 173.174 684.323 173.511C684.219 173.848 684.223 174.207 684.336 174.542Z" fill="#7474E2"/>
<path d="M689.624 186.544C690.979 185.92 692.299 185.227 693.576 184.467C693.576 184.467 694.406 186.519 692.656 187.359C692.13 187.578 691.54 187.616 690.987 187.468C690.434 187.319 689.953 186.993 689.624 186.544Z" fill="#703838"/>
<path d="M684.336 174.542L686.928 173.022C686.928 173.022 685.917 172.045 684.919 172.651C684.634 172.874 684.427 173.174 684.323 173.511C684.219 173.848 684.223 174.207 684.336 174.542Z" fill="#263238"/>
<path d="M702.739 177.348C702.739 177.348 702.48 181.835 705.189 181.835H710.502V173.281C710.502 163.69 702.869 153.666 686.63 161.589C686.63 161.589 685.839 174.394 702.739 177.348Z" fill="#263238"/>
<path d="M704.787 182.032C704.752 181.055 704.951 180.082 705.37 179.189C705.573 178.633 705.943 178.146 706.434 177.788C706.924 177.43 707.514 177.217 708.13 177.175C711.293 177.175 711.681 180.03 711.63 181.068C711.497 182.668 710.717 184.156 709.454 185.217C708.191 186.278 706.546 186.829 704.865 186.754L704.787 182.032Z" fill="#945959"/>
<path d="M711.63 198.199C711.63 198.199 704.165 205.294 713.69 216.245C723.216 227.196 725.212 229.556 725.212 229.556C725.212 229.556 734.984 230.471 736.409 221.869C736.409 221.869 724.927 206.48 721.79 202.599C718.654 198.718 715.803 198.397 711.63 198.199Z" fill="#7474E2"/>
<path opacity="0.2" d="M711.63 198.199C711.63 198.199 704.165 205.294 713.69 216.245C723.216 227.196 725.212 229.556 725.212 229.556C725.212 229.556 734.984 230.471 736.409 221.869C736.409 221.869 724.927 206.48 721.79 202.599C718.654 198.718 715.803 198.397 711.63 198.199Z" fill="black"/>
<path opacity="0.3" d="M689.909 224.86C689.909 224.86 701.339 227.9 705.163 217.53C705.163 217.592 703.193 230.471 689.909 224.86Z" fill="black"/>
<path d="M735.009 259.876C735.009 259.876 733.195 260.889 732.767 264.511C732.638 265.549 730.642 267.86 730.94 268.441C731.238 269.022 733.234 269.813 735.385 266.414C735.775 268.139 735.802 269.92 735.463 271.655C734.88 274.337 733.869 277.773 737.537 277.019C741.204 276.265 746.609 273.496 745.753 268.28C744.963 263.25 744.522 259.171 744.522 259.171L735.009 259.876Z" fill="#945959"/>
<path d="M519.122 327.374L513.549 325.087V270.122L519.122 272.409V327.374Z" fill="#7474E2"/>
<path opacity="0.6" d="M519.122 327.374L513.549 325.087V270.122L519.122 272.409V327.374Z" fill="black"/>
<path d="M649.136 200.671L519.122 272.409L513.549 270.122L643.564 198.385L649.136 200.671Z" fill="#7474E2"/>
<path opacity="0.4" d="M649.136 200.671L519.122 272.409L513.549 270.122L643.564 198.385L649.136 200.671Z" fill="black"/>
<path d="M649.136 255.636L519.122 327.374V272.409L649.136 200.671V255.636Z" fill="#7474E2"/>
<path opacity="0.3" d="M649.136 255.636L519.122 327.374V272.409L649.136 200.671V255.636Z" fill="black"/>
<path d="M563.453 279.16C562.018 279.946 560.685 280.423 559.455 280.591C558.242 280.73 557.182 280.57 556.277 280.112C555.388 279.644 554.696 278.893 554.201 277.859C553.705 276.825 553.457 275.519 553.457 273.941C553.457 272.363 553.705 270.785 554.201 269.208C554.696 267.631 555.388 266.121 556.277 264.679C557.182 263.228 558.242 261.917 559.455 260.745C560.685 259.545 562.018 258.551 563.453 257.765C565.213 256.8 566.768 256.298 568.118 256.26C569.485 256.212 570.613 256.607 571.501 257.445L567.682 263.426C567.153 262.956 566.563 262.695 565.914 262.642C565.282 262.559 564.564 262.738 563.761 263.179C563.129 263.525 562.556 263.956 562.044 264.471C561.531 264.985 561.087 265.57 560.711 266.224C560.352 266.869 560.07 267.569 559.865 268.324C559.66 269.06 559.557 269.818 559.557 270.597C559.557 271.377 559.66 272.032 559.865 272.562C560.07 273.074 560.352 273.455 560.711 273.706C561.087 273.949 561.531 274.046 562.044 273.999C562.556 273.952 563.129 273.755 563.761 273.408C564.564 272.968 565.282 272.37 565.914 271.615C566.563 270.83 567.153 269.913 567.682 268.862L571.501 270.656C570.613 272.449 569.485 274.08 568.118 275.551C566.768 276.992 565.213 278.195 563.453 279.16Z" fill="white"/>
<path d="M585.049 257.132V248.854L587.71 247.382V255.66L585.049 257.132ZM582.609 255.778V252.906L590.149 248.736V251.608L582.609 255.778ZM594.36 251.981V243.703L597.021 242.231V250.509L594.36 251.981ZM591.921 250.627V247.755L599.461 243.585V246.457L591.921 250.627Z" fill="white"/>
<path d="M632.288 478.512C632.288 478.512 637.576 475.694 638.237 472.554C638.898 469.415 633.053 462.184 633.053 462.184C633.053 462.184 628.763 464.52 632.288 478.512Z" fill="#7474E2"/>
<path opacity="0.2" d="M632.288 478.512C632.288 478.512 637.576 475.694 638.237 472.554C638.898 469.415 633.053 462.184 633.053 462.184C633.053 462.184 628.763 464.52 632.288 478.512Z" fill="black"/>
<path d="M567.553 488.239L575.264 483.901L576.275 476.534L573.619 475.941L567.553 488.239Z" fill="#7474E2"/>
<path opacity="0.3" d="M567.553 488.239L575.264 483.901L576.275 476.534L573.619 475.941L567.553 488.239Z" fill="black"/>
<path d="M613.224 445.894L620.43 456.869L625.238 472.072C625.238 472.072 634.116 471.021 628.53 451.505L624.344 439.738L613.224 445.894Z" fill="#FFA8A7"/>
<path d="M566.024 449.96L567.54 467.449L562.24 480.86C562.24 480.86 564.897 487.126 573.243 473.864C577.675 466.819 577.818 465.422 577.818 465.422L579.567 449.972L566.024 449.96Z" fill="#FFA8A7"/>
<path d="M572.906 279.59L570.197 284.707C570.157 284.781 570.135 284.863 570.131 284.947C570.127 285.03 570.142 285.114 570.176 285.191C570.209 285.269 570.259 285.339 570.323 285.396C570.387 285.453 570.464 285.496 570.547 285.523L573.761 286.536L572.906 279.59Z" fill="#F28F8F"/>
<path d="M576.664 271.012C576.664 271.012 572.504 273.126 572.504 285.238C572.504 291.9 572.984 296.152 576.612 295.893C580.241 295.633 590.687 294.323 590.687 294.323V271.012H576.664Z" fill="#FFA8A7"/>
<path d="M576.664 295.893C577.96 295.794 580.06 295.571 582.263 295.324V294.088C580.272 294.909 578.189 295.51 576.055 295.88C576.257 295.903 576.461 295.907 576.664 295.893Z" fill="#F28F8F"/>
<path d="M581.641 293.569V301.183H592.553V290.491L581.641 293.569Z" fill="#FFA8A7"/>
<path d="M600.316 320.279L607.405 334.159L602.092 340.796L605.759 352.65L617.151 339.832C618.142 338.721 618.798 337.375 619.051 335.937C619.305 334.498 619.145 333.021 618.59 331.662C615.453 323.975 609.22 308.846 607.535 306.164C605.254 302.542 602.532 300.614 598.463 300.738C594.393 300.861 600.316 320.279 600.316 320.279Z" fill="#FFA8A7"/>
<path d="M603.738 343.083C605.384 347.792 608.922 354.417 608.818 376.678C608.714 392.239 608.818 401.002 608.973 404.858C609.001 406.238 609.564 407.56 610.555 408.566C612.291 410.272 615.246 413.943 618.032 420.926C620.512 427.077 622.619 433.358 624.344 439.738C624.344 439.738 622.322 446.017 613.211 445.918L590.428 411.001C589.518 409.598 588.93 408.027 588.704 406.391L582.716 363.02V345.258L603.738 343.083Z" fill="#7474E2"/>
<path opacity="0.6" d="M603.738 343.083C605.384 347.792 608.922 354.417 608.818 376.678C608.714 392.239 608.818 401.002 608.973 404.858C609.001 406.238 609.564 407.56 610.555 408.566C612.291 410.272 615.246 413.943 618.032 420.926C620.512 427.077 622.619 433.358 624.344 439.738C624.344 439.738 622.322 446.017 613.211 445.918L590.428 411.001C589.518 409.598 588.93 408.027 588.704 406.391L582.716 363.02V345.258L603.738 343.083Z" fill="black"/>
<path d="M587.538 397.776L593.862 376.146C593.862 376.146 602.753 367.494 599.59 352.662L586.151 368.804L586.825 393.425L587.538 397.776Z" fill="#7474E2"/>
<path opacity="0.7" d="M587.538 397.776L593.862 376.146C593.862 376.146 602.753 367.494 599.59 352.662L586.151 368.804L586.825 393.425L587.538 397.776Z" fill="black"/>
<path d="M566.659 344.294C566.283 351.29 562.304 394.847 562.875 407.516C563.445 420.185 566.024 449.96 566.024 449.96C566.024 449.96 574.616 453.347 579.554 449.96C579.554 449.96 581.641 438.218 583.002 428.948C583.833 424.151 583.661 419.245 582.496 414.512C582.023 412.773 582.023 410.948 582.496 409.209L592.19 373.724C592.19 373.724 600.562 368.124 600.562 352.637V341.019L566.659 344.294Z" fill="#7474E2"/>
<path opacity="0.6" d="M566.659 344.294C566.283 351.29 562.304 394.847 562.875 407.516C563.445 420.185 566.024 449.96 566.024 449.96C566.024 449.96 574.616 453.347 579.554 449.96C579.554 449.96 581.641 438.218 583.002 428.948C583.833 424.151 583.661 419.245 582.496 414.512C582.023 412.773 582.023 410.948 582.496 409.209L592.19 373.724C592.19 373.724 600.562 368.124 600.562 352.637V341.019L566.659 344.294Z" fill="black"/>
<path d="M589.948 295.831L572.504 301.937C572.504 301.937 564.339 308.698 564.339 321.614C564.339 325.235 568.007 328.486 568.007 328.486C568.007 328.486 566.711 339.832 566.607 344.294C566.607 344.294 575.524 350.264 592.151 347.916C596.315 347.111 600.248 345.463 603.686 343.083C603.686 343.083 601.094 333.071 600.77 332.107C600.446 331.143 604.321 319.438 604.321 310.144L589.948 295.831Z" fill="#455A64"/>
<path d="M574.539 273.719C574.539 273.719 575.239 279.565 579.165 281.135C579.165 281.135 576.055 285.201 580.669 286.981V283.842L582.6 287.438C582.6 287.438 577.17 308.45 586.592 308.45C588.231 308.476 589.826 307.941 591.089 306.942C591.089 306.942 592.54 312.43 601.262 312.43C609.984 312.43 611.63 304.285 611.63 304.285C611.63 304.285 605.811 305.966 605.811 300.182C605.811 294.397 605.371 275.808 605.047 272.99C604.46 270.023 602.879 267.319 600.542 265.284C598.204 263.249 595.237 261.993 592.087 261.705C585.283 260.926 576.457 260.976 571.351 267.675C566.244 274.374 573.528 276.253 573.528 276.253C573.528 276.253 573.696 276.018 574.539 273.719Z" fill="#263238"/>
<path d="M580.669 283.866C580.669 283.866 580.384 278.749 584.557 279.145C589.326 279.59 587.81 287.797 581.965 287.797L580.669 283.866Z" fill="#FFA8A7"/>
<path d="M607.25 268.268C606.148 266.625 604.651 265.256 602.882 264.276C602.31 264.022 601.691 263.879 601.061 263.855C600.43 263.832 599.801 263.928 599.21 264.138C598.619 264.349 598.078 264.669 597.618 265.081C597.159 265.493 596.789 265.988 596.532 266.538C596.041 267.506 595.778 268.565 595.763 269.64C595.748 270.716 595.98 271.781 596.443 272.762C596.907 273.742 597.59 274.614 598.445 275.315C599.3 276.017 600.306 276.531 601.392 276.821C601.817 276.932 602.25 277.01 602.688 277.056C603.903 277.161 605.116 276.843 606.104 276.162C607.093 275.48 607.79 274.481 608.066 273.348C608.236 272.764 608.328 272.162 608.338 271.556C608.351 270.377 607.969 269.226 607.25 268.268Z" fill="#7474E2"/>
<path d="M610.814 269.504C610.811 270.794 610.408 272.055 609.654 273.126C608.901 274.198 607.831 275.032 606.581 275.524C605.33 276.017 603.954 276.144 602.628 275.891C601.301 275.638 600.083 275.015 599.128 274.102C598.172 273.189 597.522 272.026 597.259 270.76C596.996 269.495 597.132 268.183 597.65 266.991C598.168 265.8 599.045 264.781 600.17 264.065C601.296 263.348 602.618 262.966 603.971 262.966C604.871 262.966 605.761 263.135 606.593 263.464C607.424 263.792 608.178 264.274 608.814 264.881C609.45 265.489 609.953 266.21 610.297 267.003C610.64 267.796 610.815 268.646 610.814 269.504Z" fill="#263238"/>
<path d="M572.504 301.937C572.504 301.937 578.375 302.789 578.375 310.267C578.375 317.745 563.95 321.132 557.12 323.542C553.232 324.939 547.958 326.892 544.264 328.301C542.843 328.84 541.293 328.993 539.785 328.745C538.278 328.496 536.872 327.855 535.723 326.891C528.529 320.892 522.013 314.189 516.283 306.893C516.283 306.893 508.041 304.112 508.287 296.387C508.533 288.662 513.471 286.499 513.471 286.499V289.07C513.471 289.91 513.672 290.74 514.061 291.494C514.45 292.249 515.015 292.908 515.713 293.421L517.359 294.657C517.541 294.791 517.753 294.882 517.978 294.923C518.204 294.964 518.436 294.955 518.657 294.894C518.878 294.834 519.081 294.725 519.249 294.577C519.418 294.428 519.547 294.244 519.627 294.039C520.197 292.555 521.195 290.627 522.686 289.985C525.213 288.897 524.332 293.581 523.697 295.818C523.319 297.101 523.148 298.43 523.191 299.761L541.659 315.323C541.659 315.323 561.929 305.15 572.504 301.937Z" fill="#FFA8A7"/>
<path d="M577.818 465.447C576.498 465.657 575.248 466.159 574.168 466.913C573.088 467.666 572.207 468.65 571.597 469.785C569.575 473.642 565.778 484.506 562.24 480.909L563.445 477.881C563.445 477.881 549.28 480.835 552.662 484.37C556.045 487.905 566.659 489.475 567.553 488.264C568.447 487.052 573.243 478.376 573.243 478.376L575.899 489.957C576.286 490.277 576.781 490.453 577.293 490.453C577.805 490.453 578.299 490.277 578.686 489.957C578.686 489.957 582.146 467.734 577.818 465.447Z" fill="#7474E2"/>
<path d="M625.238 472.072C626.258 471.579 627.081 470.783 627.584 469.804C628.086 468.825 628.241 467.716 628.025 466.646C627.519 462.542 624.24 454.373 628.53 451.505C630.435 450.269 634.66 455.782 638.237 462.419C641.814 469.056 642.825 470.984 642.825 470.984C642.825 470.984 642.436 472.764 640.803 472.678L632.962 464.953C632.457 467.311 632.541 469.75 633.209 472.072C634.349 475.694 634.505 477.795 630.37 479.55C626.236 481.305 614.922 483.703 620.974 476.423C622.171 474.786 623.606 473.321 625.238 472.072Z" fill="#7474E2"/>
<path d="M321.43 492.071L322.441 502.045C322.441 502.045 323.568 504.097 328.765 504.097C333.962 504.097 332.809 499.87 332.809 499.87L333.314 492.071H321.43Z" fill="#FFA8A7"/>
<path d="M337.021 391.102C337.021 396.281 336.515 446.833 336.476 450.22C336.483 450.339 336.483 450.459 336.476 450.578C336.269 453.396 333.703 488.054 333.327 492.071C333.327 492.071 327.132 496.57 321.443 492.071C321.443 492.071 319.914 479.846 319.408 476.225C318.903 472.604 316.998 456.449 319.408 451.122L313.213 420.481V395.873L337.021 391.102Z" fill="#37474F"/>
<path d="M329.996 398.864C329.996 398.864 328.7 406.601 319.395 410.828L315.313 430.913L313.2 421.532V399.605L329.996 398.864Z" fill="#263238"/>
<path d="M281.695 499.87L280.684 507.286C280.684 507.286 283.392 514.022 291.661 510.771L293.177 503.059L281.695 499.87Z" fill="#FFA8A7"/>
<path d="M293.177 392.004C292.607 397.788 290.935 412.509 290.3 431.556C289.665 450.603 289.665 450.491 289.665 450.491C287.391 455.159 285.841 460.118 285.064 465.212C284.274 472.356 281.695 499.82 281.695 499.82C283.134 501.282 284.961 502.345 286.982 502.898C289.004 503.451 291.144 503.472 293.177 502.96L308.444 457.228C308.855 455.982 309.172 454.71 309.39 453.421L316.868 408.467C316.868 408.467 329.906 406.786 332.809 390.731L293.177 392.004Z" fill="#37474F"/>
<path d="M341.194 356.432L355.891 367.655V351.364L350.681 346.297L341.194 356.432Z" fill="#F28F8F"/>
<path d="M326.86 331.007C330.345 330.76 333.801 331.761 336.554 333.813C341.103 337.249 350.681 346.297 350.681 346.297C350.33 348.692 349.241 350.934 347.552 352.739C345.863 354.543 343.65 355.828 341.194 356.432L331.798 350.017L326.86 331.007Z" fill="#7474E2"/>
<path opacity="0.2" d="M326.86 331.007C330.345 330.76 333.801 331.761 336.554 333.813C341.103 337.249 350.681 346.297 350.681 346.297C350.33 348.692 349.241 350.934 347.552 352.739C345.863 354.543 343.65 355.828 341.194 356.432L331.798 350.017L326.86 331.007Z" fill="white"/>
<path d="M307.783 331.094C307.783 331.094 298.115 332.021 293.747 332.923L292.14 349.56C292.14 349.56 295.536 368.1 295.536 370.708C295.536 373.316 293.177 392.004 293.177 392.004C293.177 392.004 299.852 396.169 319.279 396.169C325.554 395.98 331.669 394.233 337.021 391.102V354.133C337.021 346.939 334.079 335.593 326.86 331.007H320.924L307.783 331.094Z" fill="#7474E2"/>
<path opacity="0.2" d="M307.783 331.094C307.783 331.094 298.115 332.021 293.747 332.923L292.14 349.56C292.14 349.56 295.536 368.1 295.536 370.708C295.536 373.316 293.177 392.004 293.177 392.004C293.177 392.004 299.852 396.169 319.279 396.169C325.554 395.98 331.669 394.233 337.021 391.102V354.133C337.021 346.939 334.079 335.593 326.86 331.007H320.924L307.783 331.094Z" fill="black"/>
<path d="M361.45 381.869L355.891 379.582V324.617L361.45 326.904V381.869Z" fill="#7474E2"/>
<path opacity="0.6" d="M361.45 381.869L355.891 379.582V324.617L361.45 326.904V381.869Z" fill="black"/>
<path d="M491.465 255.166L361.45 326.904L355.891 324.617L485.892 252.88L491.465 255.166Z" fill="#7474E2"/>
<path opacity="0.4" d="M491.465 255.166L361.45 326.904L355.891 324.617L485.892 252.88L491.465 255.166Z" fill="black"/>
<path d="M491.465 310.131L361.45 381.869V326.904L491.465 255.166V310.131Z" fill="#7474E2"/>
<path opacity="0.3" d="M491.465 310.131L361.45 381.869V326.904L491.465 255.166V310.131Z" fill="black"/>
<path d="M393.885 340.651C392.449 341.437 391.117 341.914 389.886 342.082C388.673 342.221 387.614 342.061 386.708 341.603C385.82 341.135 385.128 340.384 384.632 339.35C384.136 338.316 383.889 337.01 383.889 335.432C383.889 333.854 384.136 332.276 384.632 330.699C385.128 329.122 385.82 327.612 386.708 326.17C387.614 324.719 388.673 323.408 389.886 322.236C391.117 321.036 392.449 320.042 393.885 319.256C395.645 318.291 397.2 317.789 398.549 317.751C399.916 317.703 401.044 318.098 401.933 318.936L398.114 324.917C397.584 324.447 396.994 324.186 396.345 324.133C395.713 324.05 394.995 324.229 394.192 324.67C393.56 325.016 392.988 325.447 392.475 325.962C391.962 326.476 391.518 327.061 391.142 327.715C390.783 328.36 390.501 329.06 390.296 329.815C390.091 330.551 389.989 331.309 389.989 332.088C389.989 332.868 390.091 333.523 390.296 334.053C390.501 334.565 390.783 334.946 391.142 335.197C391.518 335.44 391.962 335.537 392.475 335.49C392.988 335.443 393.56 335.246 394.192 334.899C394.995 334.459 395.713 333.861 396.345 333.106C396.994 332.321 397.584 331.404 398.114 330.353L401.933 332.147C401.044 333.94 399.916 335.571 398.549 337.042C397.2 338.483 395.645 339.686 393.885 340.651ZM410.118 331.753C408.615 332.577 407.162 333.178 405.761 333.556C404.36 333.935 403.207 334.06 402.301 333.933L404.249 327.838C405.103 327.935 406.052 327.873 407.094 327.652C408.153 327.403 409.179 327.007 410.17 326.464C410.751 326.145 411.203 325.858 411.528 325.602C411.87 325.317 412.118 325.055 412.271 324.815C412.425 324.555 412.502 324.308 412.502 324.075C412.502 323.704 412.323 323.51 411.964 323.493C411.605 323.475 411.127 323.562 410.528 323.753C409.948 323.916 409.307 324.111 408.606 324.339C407.906 324.548 407.197 324.712 406.479 324.833C405.778 324.944 405.129 324.94 404.531 324.819C403.95 324.69 403.48 324.362 403.121 323.838C402.762 323.294 402.583 322.477 402.583 321.386C402.583 320.119 402.891 318.801 403.506 317.431C404.138 316.032 405.069 314.684 406.299 313.386C407.547 312.079 409.093 310.92 410.939 309.908C412.152 309.243 413.348 308.734 414.527 308.38C415.706 308.026 416.765 307.893 417.705 307.982L415.885 313.978C414.997 313.958 414.134 314.051 413.297 314.257C412.476 314.453 411.673 314.767 410.887 315.197C410.306 315.516 409.845 315.827 409.503 316.131C409.162 316.436 408.914 316.727 408.76 317.006C408.623 317.276 408.555 317.528 408.555 317.762C408.555 318.113 408.734 318.297 409.093 318.314C409.452 318.313 409.922 318.221 410.503 318.039C411.101 317.847 411.75 317.637 412.451 317.409C413.168 317.172 413.878 316.998 414.578 316.886C415.279 316.775 415.919 316.784 416.5 316.914C417.098 317.035 417.577 317.357 417.936 317.881C418.295 318.405 418.474 319.203 418.474 320.275C418.474 321.522 418.158 322.845 417.526 324.244C416.911 325.614 415.988 326.957 414.758 328.275C413.527 329.573 411.981 330.732 410.118 331.753ZM426.963 322.52C425.46 323.344 424.007 323.945 422.606 324.323C421.205 324.702 420.052 324.827 419.146 324.7L421.094 318.605C421.948 318.702 422.897 318.64 423.939 318.42C424.998 318.17 426.024 317.774 427.015 317.231C427.596 316.912 428.049 316.625 428.373 316.369C428.715 316.084 428.963 315.822 429.116 315.582C429.27 315.322 429.347 315.075 429.347 314.842C429.347 314.471 429.168 314.277 428.809 314.26C428.45 314.242 427.972 314.329 427.374 314.52C426.793 314.683 426.152 314.878 425.451 315.106C424.751 315.315 424.042 315.48 423.324 315.6C422.623 315.711 421.974 315.707 421.376 315.586C420.795 315.457 420.325 315.13 419.966 314.605C419.608 314.062 419.428 313.244 419.428 312.153C419.428 310.886 419.736 309.568 420.351 308.198C420.983 306.8 421.914 305.451 423.145 304.153C424.392 302.846 425.938 301.687 427.784 300.675C428.997 300.01 430.193 299.501 431.372 299.147C432.551 298.793 433.61 298.661 434.55 298.75L432.73 304.745C431.842 304.725 430.979 304.818 430.142 305.024C429.322 305.22 428.518 305.534 427.732 305.964C427.151 306.283 426.69 306.594 426.348 306.898C426.007 307.203 425.759 307.494 425.605 307.774C425.468 308.043 425.4 308.295 425.4 308.529C425.4 308.88 425.579 309.064 425.938 309.082C426.297 309.08 426.767 308.988 427.348 308.806C427.946 308.614 428.595 308.405 429.296 308.176C430.014 307.939 430.723 307.765 431.423 307.654C432.124 307.542 432.765 307.552 433.346 307.681C433.944 307.802 434.422 308.124 434.781 308.648C435.14 309.173 435.319 309.971 435.319 311.042C435.319 312.289 435.003 313.612 434.371 315.011C433.756 316.381 432.833 317.724 431.603 319.042C430.372 320.34 428.826 321.499 426.963 322.52Z" fill="white"/>
<path d="M332.744 296.029C332.744 296.029 340.3 302.357 333.729 316.46L326.044 297.401L332.744 296.029Z" fill="#263238"/>
<path d="M307.783 331.094C307.783 331.094 310.375 337.706 317.594 337.706C324.812 337.706 320.924 331.007 320.924 331.007L307.783 331.094Z" fill="#FFA8A7"/>
<path d="M307.783 331.094L320.924 331.007V311.837H307.783V331.094Z" fill="#FFA8A7"/>
<path d="M320.924 330.241C316.077 328.449 309.921 325.482 309.921 322.652L308.327 313.122H320.924V330.241Z" fill="#F28F8F"/>
<path d="M317.905 292.123C322.544 292.123 332.394 294.595 333.535 306.164C334.675 317.733 332.9 327.571 327.314 327.571C316.35 327.571 305.826 326.236 305.735 309.13C305.658 294.039 313.382 292.123 317.905 292.123Z" fill="#FFA8A7"/>
<path d="M307.796 319.265L309.572 314C309.705 314.108 309.869 314.178 310.043 314.201C310.217 314.224 310.394 314.198 310.553 314.128C310.713 314.058 310.848 313.946 310.942 313.805C311.037 313.664 311.088 313.5 311.088 313.333V304.001C311.088 304.001 315.65 302.765 315.17 299.119C315.17 299.119 317.503 301.109 326.445 301.109C335.388 301.109 337.565 293.878 336.671 289.849C336.671 289.849 335.012 291.48 330.282 291.48C325.551 291.48 305.865 285.819 305.36 297.166C305.36 297.166 303.688 294.842 301.005 297.166L304.465 299.168C304.465 299.168 300.37 299.044 301.005 304.767C301.51 309.291 303.48 317.856 304.297 321.28C304.528 322.228 305.125 323.057 305.969 323.604L307.796 324.778V319.265Z" fill="#263238"/>
<path d="M324.877 309.637V316.46L329.063 315.224L324.877 309.637Z" fill="#F28F8F"/>
<path d="M317.438 310.811C317.436 311.088 317.52 311.36 317.68 311.592C317.84 311.823 318.068 312.004 318.336 312.111C318.604 312.219 318.9 312.247 319.185 312.194C319.47 312.14 319.733 312.007 319.938 311.811C320.144 311.615 320.284 311.365 320.34 311.093C320.396 310.821 320.366 310.539 320.253 310.283C320.141 310.028 319.951 309.81 319.708 309.657C319.465 309.505 319.18 309.424 318.89 309.427C318.699 309.427 318.51 309.463 318.334 309.532C318.158 309.602 317.998 309.704 317.863 309.832C317.729 309.961 317.622 310.113 317.549 310.281C317.476 310.449 317.438 310.629 317.438 310.811Z" fill="#263238"/>
<path d="M328.338 309.847C328.338 310.123 328.423 310.393 328.584 310.623C328.745 310.853 328.974 311.032 329.242 311.137C329.509 311.243 329.804 311.271 330.088 311.217C330.372 311.163 330.633 311.03 330.838 310.835C331.042 310.639 331.182 310.39 331.238 310.119C331.295 309.849 331.266 309.568 331.155 309.313C331.044 309.057 330.857 308.839 330.616 308.686C330.375 308.532 330.092 308.45 329.802 308.45C329.414 308.45 329.041 308.597 328.767 308.859C328.492 309.121 328.338 309.477 328.338 309.847Z" fill="#263238"/>
<path d="M331.578 306.942L328.726 305.336C328.726 305.336 329.815 304.248 330.904 304.903C331.219 305.138 331.452 305.459 331.572 305.823C331.692 306.187 331.694 306.577 331.578 306.942Z" fill="#263238"/>
<path d="M315.896 307.956L318.734 306.337C318.734 306.337 317.646 305.249 316.557 305.904C316.243 306.143 316.012 306.467 315.894 306.833C315.776 307.199 315.777 307.59 315.896 307.956Z" fill="#263238"/>
<path d="M326.847 319.216C325.47 319.307 324.101 318.955 322.959 318.215C322.959 318.215 322.687 320.192 324.424 320.563C324.928 320.635 325.443 320.541 325.884 320.296C326.324 320.051 326.664 319.67 326.847 319.216Z" fill="#F28F8F"/>
<path d="M308.872 312.084C310.518 314.816 310.09 318.128 307.796 319.265C306.306 319.995 301.938 318.425 300.292 315.693C298.646 312.962 299.566 310.626 301.808 309.39C304.051 308.154 307.213 309.353 308.872 312.084Z" fill="#FFA8A7"/>
<path d="M309.701 314.111L304.66 308.895L308.288 306.819L309.701 314.111Z" fill="#253239"/>
<path d="M317.192 352.823L324.126 360.152C324.126 360.152 329.789 359.386 336.36 359.065C341.574 358.544 346.744 357.681 351.834 356.481C351.834 356.481 353.13 351.191 355.904 349.065V353.206C355.904 353.206 359.623 354.442 361.463 352.687C364.639 349.708 367.477 346.964 367.477 353.206C367.477 361.92 363.589 365.455 353.091 365.269C353.091 365.269 326.588 375.862 320.238 374.675C316.35 373.971 305.671 364.367 305.671 364.367L317.192 352.823Z" fill="#FFA8A7"/>
<path d="M288.68 335.333C293.138 331.007 298.232 333.022 302.703 337.286C307.174 341.55 317.192 352.823 317.192 352.823C317.192 352.823 316.181 361.611 305.671 364.404C305.671 364.404 291.492 350.326 289.678 348.41C286.386 344.9 284.455 339.462 288.68 335.333Z" fill="#7474E2"/>
<path opacity="0.2" d="M288.68 335.333C293.138 331.007 298.232 333.022 302.703 337.286C307.174 341.55 317.192 352.823 317.192 352.823C317.192 352.823 316.181 361.611 305.671 364.404C305.671 364.404 291.492 350.326 289.678 348.41C286.386 344.9 284.455 339.462 288.68 335.333Z" fill="white"/>
<path d="M382.718 370.164C382.831 368.763 383.244 367.399 383.93 366.155C384.617 364.912 385.562 363.815 386.709 362.933C392.684 358.583 392.438 362.933 392.58 364.725C392.723 366.518 387.046 372.883 380.826 371.202L382.718 370.164Z" fill="#FFA8A7"/>
<path d="M280.684 507.236C281.002 507.912 281.441 508.531 281.98 509.066C282.109 509.17 282.265 509.238 282.432 509.264C282.599 509.29 282.77 509.272 282.927 509.212C283.084 509.153 283.221 509.053 283.324 508.925C283.426 508.797 283.49 508.645 283.509 508.485C283.524 508.076 283.652 507.678 283.88 507.331C284.107 506.983 284.426 506.699 284.805 506.507C285.699 506.149 292.84 506.025 292.905 507.409C292.908 508.456 292.795 509.5 292.568 510.524C292.568 510.524 293.721 519.893 295.912 523.601C298.102 527.309 301.679 533.304 294.149 535.059C286.619 536.814 280.93 533.007 280.671 527.939C280.412 522.872 280.541 519.287 280.036 518.41C279.53 517.532 276.873 517.075 277.884 512.44C278.895 507.805 279.051 505.024 280.995 504.875L280.684 507.236Z" fill="#455A64"/>
<path d="M285.816 515.839C285.706 515.842 285.598 515.819 285.5 515.771C285.403 515.724 285.32 515.653 285.259 515.567C285.156 515.427 285.115 515.254 285.144 515.086C285.173 514.917 285.27 514.766 285.414 514.665C286.605 513.951 287.964 513.533 289.367 513.449C290.771 513.365 292.174 513.617 293.449 514.183C293.534 514.217 293.612 514.266 293.677 514.329C293.741 514.391 293.793 514.466 293.828 514.547C293.863 514.629 293.88 514.716 293.88 514.804C293.88 514.892 293.861 514.979 293.825 515.06C293.789 515.141 293.737 515.215 293.672 515.277C293.606 515.339 293.528 515.388 293.443 515.421C293.357 515.454 293.266 515.471 293.174 515.471C293.081 515.47 292.99 515.453 292.905 515.419C291.841 514.948 290.672 514.735 289.501 514.797C288.33 514.86 287.194 515.196 286.192 515.777C286.075 515.832 285.945 515.853 285.816 515.839Z" fill="#EBEBEB"/>
<path d="M286.93 520.412C286.822 520.411 286.715 520.386 286.618 520.339C286.521 520.292 286.437 520.224 286.373 520.14C286.272 519.999 286.233 519.825 286.264 519.656C286.296 519.488 286.395 519.337 286.542 519.238C287.731 518.521 289.089 518.1 290.493 518.014C291.897 517.928 293.301 518.178 294.577 518.743C294.741 518.816 294.87 518.947 294.935 519.109C295 519.27 294.997 519.449 294.927 519.609C294.851 519.766 294.712 519.887 294.543 519.948C294.373 520.008 294.185 520.001 294.02 519.93C292.959 519.457 291.791 519.243 290.622 519.305C289.453 519.368 288.318 519.706 287.319 520.288C287.208 520.371 287.071 520.415 286.93 520.412Z" fill="#EBEBEB"/>
<path d="M288.68 524.923C288.571 524.926 288.463 524.902 288.365 524.854C288.268 524.807 288.185 524.737 288.123 524.651C288.022 524.51 287.982 524.336 288.014 524.168C288.045 523.999 288.145 523.849 288.291 523.749C289.482 523.036 290.841 522.618 292.244 522.533C293.648 522.449 295.051 522.701 296.326 523.267C296.409 523.301 296.483 523.35 296.545 523.411C296.607 523.472 296.656 523.544 296.689 523.624C296.721 523.703 296.737 523.788 296.735 523.873C296.733 523.958 296.713 524.042 296.676 524.12C296.6 524.274 296.465 524.394 296.299 524.456C296.132 524.518 295.948 524.517 295.782 524.454C294.718 523.984 293.549 523.771 292.379 523.834C291.208 523.896 290.071 524.232 289.069 524.812C288.954 524.886 288.818 524.925 288.68 524.923Z" fill="#EBEBEB"/>
<path d="M322.441 502.045C323.782 502.904 325.375 503.337 326.99 503.281C326.99 503.281 326.225 500.426 328.441 499.462C330.657 498.498 334.196 497.225 334.921 498.374C335.433 499.689 335.713 501.075 335.751 502.478C335.751 502.478 341.025 507.038 344.939 508.324C348.853 509.609 354.011 510.919 353.519 514.368C353.026 517.816 347.194 522.81 339.263 519.374C331.331 515.938 329.906 515.814 327.366 515.443C324.825 515.072 320.095 515.27 320.289 511.228C320.484 507.187 320.121 500.5 322.233 499.956L322.441 502.045Z" fill="#455A64"/>
<path d="M331.526 508.225C331.448 508.237 331.37 508.237 331.292 508.225C331.123 508.166 330.985 508.047 330.908 507.892C330.83 507.737 330.819 507.559 330.878 507.397C331.398 506.237 332.236 505.232 333.302 504.486C334.369 503.74 335.627 503.281 336.943 503.157C337.091 503.176 337.229 503.242 337.334 503.343C337.439 503.445 337.505 503.576 337.523 503.718C337.541 503.86 337.509 504.003 337.432 504.125C337.355 504.247 337.238 504.342 337.099 504.393C336.034 504.492 335.015 504.859 334.148 505.456C333.28 506.053 332.594 506.86 332.161 507.792C332.112 507.917 332.025 508.024 331.912 508.101C331.799 508.178 331.665 508.221 331.526 508.225Z" fill="#EBEBEB"/>
<path d="M335.569 510.771H335.349C335.265 510.745 335.187 510.703 335.12 510.647C335.053 510.591 334.999 510.523 334.96 510.447C334.921 510.371 334.899 510.288 334.895 510.204C334.89 510.119 334.904 510.035 334.934 509.955C335.409 508.797 336.209 507.787 337.247 507.034C338.286 506.282 339.521 505.817 340.818 505.691C340.967 505.708 341.106 505.772 341.213 505.872C341.319 505.973 341.388 506.105 341.407 506.247C341.426 506.389 341.396 506.533 341.319 506.656C341.243 506.779 341.126 506.875 340.987 506.927C339.947 507.033 338.955 507.403 338.117 507.999C337.278 508.595 336.622 509.394 336.217 510.314C336.174 510.445 336.087 510.561 335.971 510.643C335.855 510.725 335.714 510.77 335.569 510.771Z" fill="#EBEBEB"/>
<path d="M340.676 512.786H340.52C340.344 512.753 340.189 512.656 340.087 512.515C339.985 512.374 339.945 512.2 339.976 512.032C340.222 510.82 340.921 509.734 341.944 508.977C342.967 508.22 344.243 507.843 345.536 507.916C345.715 507.923 345.885 507.996 346.009 508.121C346.133 508.246 346.2 508.412 346.196 508.583C346.197 508.669 346.178 508.755 346.143 508.834C346.107 508.913 346.055 508.984 345.989 509.043C345.924 509.102 345.846 509.148 345.762 509.177C345.677 509.206 345.587 509.219 345.497 509.214C344.531 509.159 343.577 509.437 342.808 509.997C342.039 510.558 341.508 511.363 341.311 512.267C341.279 512.408 341.2 512.535 341.085 512.629C340.971 512.723 340.827 512.778 340.676 512.786Z" fill="#EBEBEB"/>
<path d="M430.605 107.885L419.576 113.867V110.159C419.576 109.887 419.576 109.627 419.576 109.368C419.576 109.108 419.576 108.861 419.576 108.614V108.527C419.174 103.583 415.26 101.705 410.504 104.337C408.341 105.592 406.488 107.279 405.074 109.281C404.024 102.644 398.27 100.172 391.349 103.991C383.651 108.231 377.417 118.527 377.417 126.993V134.965C377.418 135.596 377.244 136.216 376.915 136.763C376.585 137.309 376.11 137.764 375.538 138.08L369.058 141.714C367.651 142.499 366.485 143.622 365.675 144.971C364.866 146.32 364.441 147.848 364.444 149.402C364.457 150.041 364.642 150.666 364.983 151.216C365.323 151.767 365.807 152.224 366.387 152.544C366.967 152.863 367.624 153.034 368.294 153.04C368.964 153.047 369.625 152.887 370.211 152.578L430.436 119.404C432.029 118.526 433.353 117.265 434.276 115.747C435.199 114.229 435.69 112.507 435.698 110.752C435.706 110.18 435.555 109.616 435.261 109.117C434.967 108.618 434.54 108.202 434.023 107.911C433.506 107.62 432.918 107.464 432.318 107.46C431.717 107.455 431.127 107.602 430.605 107.885Z" fill="#D5D5F6"/>
<path d="M330.58 120.245L322.376 124.67V121.913C322.376 121.715 322.376 121.518 322.376 121.332C322.376 121.147 322.376 120.949 322.376 120.776C322.078 117.068 319.188 115.733 315.65 117.674C314.048 118.618 312.682 119.883 311.645 121.382C310.842 116.438 306.604 114.646 301.484 117.464C298.474 119.322 295.965 121.832 294.164 124.79C292.362 127.747 291.318 131.068 291.116 134.483V140.379C291.117 140.845 290.989 141.302 290.745 141.705C290.502 142.109 290.152 142.444 289.73 142.678L284.935 145.36C283.893 145.944 283.03 146.776 282.43 147.776C281.83 148.775 281.514 149.906 281.513 151.058C281.514 151.535 281.647 152.003 281.898 152.415C282.148 152.828 282.508 153.17 282.942 153.408C283.375 153.646 283.866 153.771 284.366 153.771C284.866 153.771 285.357 153.645 285.79 153.407L330.346 128.86C331.529 128.208 332.511 127.271 333.194 126.143C333.876 125.015 334.235 123.735 334.234 122.432C334.223 122.025 334.106 121.627 333.895 121.274C333.683 120.92 333.383 120.622 333.021 120.405C332.66 120.189 332.248 120.061 331.822 120.033C331.396 120.005 330.969 120.078 330.58 120.245Z" fill="#D5D5F6"/>
<path d="M768.688 22.2874C765.294 22.2874 763.906 19.8874 765.594 16.9437C766.569 15.2374 765.988 13.0624 764.281 12.0874L761.038 10.2312C759.556 9.34994 757.644 9.87494 756.762 11.3562L756.556 11.7124C754.869 14.6562 752.094 14.6562 750.388 11.7124L750.181 11.3562C749.337 9.87494 747.425 9.34994 745.944 10.2312L742.7 12.0874C740.994 13.0624 740.412 15.2562 741.387 16.9624C743.094 19.8874 741.706 22.2874 738.313 22.2874C736.363 22.2874 734.75 23.8812 734.75 25.8499V29.1499C734.75 31.0999 736.344 32.7124 738.313 32.7124C741.706 32.7124 743.094 35.1124 741.387 38.0562C740.412 39.7624 740.994 41.9374 742.7 42.9124L745.944 44.7687C747.425 45.6499 749.338 45.1249 750.219 43.6437L750.425 43.2874C752.112 40.3437 754.887 40.3437 756.594 43.2874L756.8 43.6437C757.681 45.1249 759.594 45.6499 761.075 44.7687L764.319 42.9124C766.025 41.9374 766.606 39.7437 765.631 38.0562C763.925 35.1124 765.313 32.7124 768.706 32.7124C770.656 32.7124 772.269 31.1187 772.269 29.1499V25.8499C772.25 23.8999 770.656 22.2874 768.688 22.2874ZM753.5 33.5937C750.144 33.5937 747.406 30.8562 747.406 27.4999C747.406 24.1437 750.144 21.4062 753.5 21.4062C756.856 21.4062 759.594 24.1437 759.594 27.4999C759.594 30.8562 756.856 33.5937 753.5 33.5937Z" fill="white" fill-opacity="0.72"/>
<path d="M83.6875 448.288C80.2938 448.288 78.9063 445.888 80.5938 442.944C81.5688 441.238 80.9875 439.063 79.2812 438.088L76.0375 436.231C74.5563 435.35 72.6437 435.875 71.7625 437.356L71.5563 437.713C69.8688 440.656 67.0938 440.656 65.3875 437.713L65.1812 437.356C64.3375 435.875 62.425 435.35 60.9437 436.231L57.7 438.088C55.9937 439.063 55.4125 441.256 56.3875 442.963C58.0937 445.888 56.7063 448.288 53.3125 448.288C51.3625 448.288 49.75 449.881 49.75 451.85V455.15C49.75 457.1 51.3438 458.713 53.3125 458.713C56.7063 458.713 58.0937 461.113 56.3875 464.056C55.4125 465.763 55.9937 467.938 57.7 468.913L60.9437 470.769C62.425 471.65 64.3375 471.125 65.2188 469.644L65.425 469.288C67.1125 466.344 69.8875 466.344 71.5937 469.288L71.8 469.644C72.6813 471.125 74.5938 471.65 76.075 470.769L79.3188 468.913C81.025 467.938 81.6062 465.744 80.6312 464.056C78.925 461.113 80.3125 458.713 83.7063 458.713C85.6563 458.713 87.2688 457.119 87.2688 455.15V451.85C87.25 449.9 85.6563 448.288 83.6875 448.288ZM68.5 459.594C65.1438 459.594 62.4062 456.856 62.4062 453.5C62.4062 450.144 65.1438 447.406 68.5 447.406C71.8562 447.406 74.5938 450.144 74.5938 453.5C74.5938 456.856 71.8562 459.594 68.5 459.594Z" fill="white" fill-opacity="0.72"/>
<path d="M255.688 38.2874C252.294 38.2874 250.906 35.8874 252.594 32.9437C253.569 31.2374 252.988 29.0624 251.281 28.0874L248.038 26.2312C246.556 25.3499 244.644 25.8749 243.762 27.3562L243.556 27.7124C241.869 30.6562 239.094 30.6562 237.388 27.7124L237.181 27.3562C236.337 25.8749 234.425 25.3499 232.944 26.2312L229.7 28.0874C227.994 29.0624 227.412 31.2562 228.387 32.9624C230.094 35.8874 228.706 38.2874 225.313 38.2874C223.363 38.2874 221.75 39.8812 221.75 41.8499V45.1499C221.75 47.0999 223.344 48.7124 225.313 48.7124C228.706 48.7124 230.094 51.1124 228.387 54.0562C227.412 55.7624 227.994 57.9374 229.7 58.9124L232.944 60.7687C234.425 61.6499 236.338 61.1249 237.219 59.6437L237.425 59.2874C239.112 56.3437 241.887 56.3437 243.594 59.2874L243.8 59.6437C244.681 61.1249 246.594 61.6499 248.075 60.7687L251.319 58.9124C253.025 57.9374 253.606 55.7437 252.631 54.0562C250.925 51.1124 252.313 48.7124 255.706 48.7124C257.656 48.7124 259.269 47.1187 259.269 45.1499V41.8499C259.25 39.8999 257.656 38.2874 255.688 38.2874ZM240.5 49.5937C237.144 49.5937 234.406 46.8562 234.406 43.4999C234.406 40.1437 237.144 37.4062 240.5 37.4062C243.856 37.4062 246.594 40.1437 246.594 43.4999C246.594 46.8562 243.856 49.5937 240.5 49.5937Z" fill="white" fill-opacity="0.72"/>
<path d="M297.938 53.6042C296.052 53.6042 295.281 52.2709 296.219 50.6355C296.76 49.6875 296.438 48.4792 295.49 47.9375L293.688 46.9063C292.865 46.4167 291.802 46.7084 291.313 47.5313L291.198 47.7292C290.26 49.3646 288.719 49.3646 287.771 47.7292L287.656 47.5313C287.188 46.7084 286.125 46.4167 285.302 46.9063L283.5 47.9375C282.552 48.4792 282.229 49.698 282.771 50.6459C283.719 52.2709 282.948 53.6042 281.063 53.6042C279.979 53.6042 279.083 54.4896 279.083 55.5834V57.4167C279.083 58.5 279.969 59.3959 281.063 59.3959C282.948 59.3959 283.719 60.7292 282.771 62.3646C282.229 63.3125 282.552 64.5209 283.5 65.0625L285.302 66.0938C286.125 66.5834 287.188 66.2917 287.677 65.4688L287.792 65.2709C288.729 63.6355 290.271 63.6355 291.219 65.2709L291.333 65.4688C291.823 66.2917 292.885 66.5834 293.708 66.0938L295.51 65.0625C296.458 64.5209 296.781 63.3021 296.24 62.3646C295.292 60.7292 296.063 59.3959 297.948 59.3959C299.031 59.3959 299.927 58.5105 299.927 57.4167V55.5834C299.917 54.5 299.031 53.6042 297.938 53.6042ZM289.5 59.8855C287.635 59.8855 286.115 58.3646 286.115 56.5C286.115 54.6355 287.635 53.1146 289.5 53.1146C291.365 53.1146 292.885 54.6355 292.885 56.5C292.885 58.3646 291.365 59.8855 289.5 59.8855Z" fill="white" fill-opacity="0.72"/>
<path d="M261.937 310.604C260.052 310.604 259.281 309.271 260.219 307.635C260.76 306.688 260.437 305.479 259.49 304.938L257.687 303.906C256.865 303.417 255.802 303.708 255.312 304.531L255.198 304.729C254.26 306.365 252.719 306.365 251.771 304.729L251.656 304.531C251.187 303.708 250.125 303.417 249.302 303.906L247.5 304.938C246.552 305.479 246.229 306.698 246.771 307.646C247.719 309.271 246.948 310.604 245.062 310.604C243.979 310.604 243.083 311.49 243.083 312.583V314.417C243.083 315.5 243.969 316.396 245.062 316.396C246.948 316.396 247.719 317.729 246.771 319.365C246.229 320.313 246.552 321.521 247.5 322.063L249.302 323.094C250.125 323.583 251.187 323.292 251.677 322.469L251.792 322.271C252.729 320.635 254.271 320.635 255.219 322.271L255.333 322.469C255.823 323.292 256.885 323.583 257.708 323.094L259.51 322.063C260.458 321.521 260.781 320.302 260.24 319.365C259.292 317.729 260.062 316.396 261.948 316.396C263.031 316.396 263.927 315.51 263.927 314.417V312.583C263.917 311.5 263.031 310.604 261.937 310.604ZM253.5 316.885C251.635 316.885 250.115 315.365 250.115 313.5C250.115 311.635 251.635 310.115 253.5 310.115C255.365 310.115 256.885 311.635 256.885 313.5C256.885 315.365 255.365 316.885 253.5 316.885Z" fill="white" fill-opacity="0.72"/>
<circle cx="5" cy="402" r="5" fill="#7474E2"/>
<circle cx="80" cy="509" r="5" fill="#7474E2"/>
<circle cx="224.5" cy="171.5" r="6.5" fill="#7474E2"/>
<circle cx="153" cy="34" r="5" fill="#7474E2"/>
<circle cx="343" cy="61" r="5" fill="#7474E2"/>
<circle cx="625" cy="5" r="5" fill="#7474E2"/>
<circle cx="911" cy="266" r="5" fill="#7474E2"/>
<circle cx="763" cy="549" r="5" fill="#7474E2"/>
<circle cx="1010.5" cy="427.5" r="6.5" fill="#7474E2"/>
<circle cx="858.5" cy="46.5" r="7.5" fill="#7474E2"/>
</svg>
