<svg width="800" height="560" viewBox="0 0 800 560" fill="none" xmlns="http://www.w3.org/2000/svg">
<path d="M596.662 441.103C630.038 460.49 683.954 487.941 759.949 369.559" stroke="#B2B2B2" stroke-dasharray="8 8"/>
<path d="M258.451 305.221C152.161 268.848 97.7324 125.588 178.349 71.0294" stroke="#B2B2B2" stroke-dasharray="8 8"/>
<path d="M596.662 356.797C606.076 267.066 679.024 97.076 727.086 102.017" stroke="#B2B2B2" stroke-dasharray="8 8"/>
<path d="M328.113 459.632C268.721 466.667 139.461 512.441 97.561 443.676" stroke="#B2B2B2" stroke-dasharray="8 8"/>
<path d="M714.442 531.472C710.956 531.472 709.531 529.002 711.264 525.972C712.266 524.215 711.669 521.976 709.917 520.972L706.585 519.062C705.064 518.154 703.1 518.695 702.195 520.22L701.983 520.586C700.25 523.617 697.401 523.617 695.648 520.586L695.436 520.22C694.57 518.695 692.606 518.154 691.085 519.062L687.754 520.972C686.001 521.976 685.404 524.234 686.406 525.991C688.158 529.002 686.733 531.472 683.248 531.472C681.245 531.472 679.589 533.113 679.589 535.14V538.537C679.589 540.544 681.226 542.204 683.248 542.204C686.733 542.204 688.158 544.675 686.406 547.705C685.404 549.461 686.001 551.7 687.754 552.704L691.085 554.615C692.606 555.522 694.57 554.982 695.475 553.457L695.687 553.09C697.42 550.06 700.27 550.06 702.022 553.09L702.234 553.457C703.139 554.982 705.103 555.522 706.624 554.615L709.955 552.704C711.707 551.7 712.304 549.442 711.303 547.705C709.551 544.675 710.976 542.204 714.461 542.204C716.463 542.204 718.119 540.563 718.119 538.537V535.14C718.1 533.132 716.463 531.472 714.442 531.472ZM698.845 543.111C695.398 543.111 692.587 540.293 692.587 536.838C692.587 533.383 695.398 530.565 698.845 530.565C702.291 530.565 705.103 533.383 705.103 536.838C705.103 540.293 702.291 543.111 698.845 543.111Z" fill="white" fill-opacity="0.72"/>
<path d="M417.972 477.313C561.29 477.313 677.472 416.571 677.472 341.643C677.472 266.714 561.29 205.973 417.972 205.973C274.654 205.973 158.472 266.714 158.472 341.643C158.472 416.571 274.654 477.313 417.972 477.313Z" fill="#D5D5F6"/>
<path d="M527.566 270.611L308.377 385.178C306.574 386.12 304.53 386.615 302.449 386.615C300.368 386.615 298.323 386.12 296.52 385.178L284.951 379.175C284.301 378.836 283.762 378.348 283.387 377.761C283.012 377.173 282.814 376.507 282.814 375.828C282.814 375.149 283.012 374.482 283.387 373.895C283.762 373.307 284.301 372.82 284.951 372.481L504.162 257.864C505.964 256.924 508.006 256.43 510.085 256.43C512.164 256.43 514.206 256.924 516.008 257.864L527.577 263.917C528.223 264.259 528.759 264.748 529.131 265.336C529.503 265.924 529.699 266.589 529.697 267.267C529.696 267.944 529.499 268.61 529.125 269.197C528.751 269.784 528.213 270.271 527.566 270.611Z" fill="#BEBEE6"/>
<path d="M493.974 399.127C520.002 399.127 541.103 388.097 541.103 374.492C541.103 360.887 520.002 349.858 493.974 349.858C467.946 349.858 446.845 360.887 446.845 374.492C446.845 388.097 467.946 399.127 493.974 399.127Z" fill="#BEBEE6"/>
<path d="M585.225 305.912C605.603 305.912 622.122 297.275 622.122 286.62C622.122 275.966 605.603 267.329 585.225 267.329C564.848 267.329 548.329 275.966 548.329 286.62C548.329 297.275 564.848 305.912 585.225 305.912Z" fill="#BEBEE6"/>
<path d="M251.027 426.373C271.404 426.373 287.923 417.736 287.923 407.081C287.923 396.427 271.404 387.79 251.027 387.79C230.65 387.79 214.131 396.427 214.131 407.081C214.131 417.736 230.65 426.373 251.027 426.373Z" fill="#BEBEE6"/>
<path d="M293.946 152.151L516.317 35.913C518.87 34.5823 521.157 34.6823 522.782 35.913L530.517 40.7359L525.157 46.5993V208.945C525.157 214.898 521.168 221.802 516.24 224.384L296.123 339.452L295.714 345.785L287.603 340.782C285.99 339.682 284.995 337.51 284.995 334.539V167.58C285.029 161.627 289.018 154.723 293.946 152.151Z" fill="#7474E2"/>
<path opacity="0.4" d="M293.946 152.151L516.317 35.913C518.87 34.5823 521.157 34.6823 522.782 35.913L530.517 40.7359L525.157 46.5993V208.945C525.157 214.898 521.168 221.802 516.24 224.384L296.123 339.452L295.714 345.785L287.603 340.782C285.99 339.682 284.995 337.51 284.995 334.539V167.58C285.029 161.627 289.018 154.723 293.946 152.151Z" fill="white"/>
<path d="M292.598 339.221V172.293C292.693 168.918 293.722 165.619 295.592 162.698L287.647 158.575C286.007 161.35 285.11 164.434 285.028 167.58V334.509C285.028 337.51 286.023 339.652 287.636 340.752L295.106 345.385C293.559 344.264 292.598 342.133 292.598 339.221Z" fill="#7474E2"/>
<path opacity="0.2" d="M292.598 339.221V172.293C292.693 168.918 293.722 165.619 295.592 162.698L287.647 158.575C286.007 161.35 285.11 164.434 285.028 167.58V334.509C285.028 337.51 286.023 339.652 287.636 340.752L295.106 345.385C293.559 344.264 292.598 342.133 292.598 339.221Z" fill="white"/>
<path d="M301.515 345.335L523.842 229.097C528.771 226.525 532.76 219.611 532.76 213.668V46.7394C532.76 40.7959 528.771 38.0643 523.842 40.6358L301.515 156.864C296.587 159.446 292.598 166.35 292.598 172.293V339.221C292.598 345.175 296.587 347.916 301.515 345.335Z" fill="#7474E2"/>
<path d="M301.515 345.335L523.842 229.097C528.771 226.525 532.76 219.611 532.76 213.668V46.7394C532.76 40.7959 528.771 38.0643 523.842 40.6358L301.515 156.864C296.587 159.446 292.598 166.35 292.598 172.293V339.221C292.598 345.175 296.587 347.916 301.515 345.335Z" fill="#7474E2"/>
<path opacity="0.7" d="M301.515 345.335L523.842 229.097C528.771 226.525 532.76 219.611 532.76 213.668V46.7394C532.76 40.7959 528.771 38.0643 523.842 40.6358L301.515 156.864C296.587 159.446 292.598 166.35 292.598 172.293V339.221C292.598 345.175 296.587 347.916 301.515 345.335Z" fill="white"/>
<path d="M301.515 156.864L523.842 40.6358C528.771 38.0643 532.76 40.7959 532.76 46.7394V54.9042L292.598 180.458V172.293C292.598 166.35 296.587 159.446 301.515 156.864Z" fill="#7474E2"/>
<path opacity="0.5" d="M301.515 156.864L523.842 40.6358C528.771 38.0643 532.76 40.7959 532.76 46.7394V54.9042L292.598 180.458V172.293C292.598 166.35 296.587 159.446 301.515 156.864Z" fill="white"/>
<path d="M527.367 40.4557C530.097 40.4557 531.876 42.9272 531.876 46.7394V213.668C531.876 219.351 528.063 225.975 523.389 228.416L301.084 344.645C300.153 345.179 299.081 345.479 297.979 345.515C295.239 345.515 293.471 343.044 293.471 339.221V172.293C293.471 166.61 297.272 159.996 301.957 157.545L524.284 41.3162C525.218 40.7877 526.289 40.4909 527.389 40.4557M527.389 39.6653C526.13 39.709 524.906 40.0542 523.842 40.6658L301.515 156.864C296.587 159.446 292.598 166.35 292.598 172.293V339.221C292.598 343.654 294.808 346.296 297.979 346.296C299.234 346.247 300.453 345.902 301.515 345.295L523.842 229.057C528.771 226.485 532.76 219.571 532.76 213.628V46.7394C532.76 42.3168 530.55 39.6653 527.389 39.6653Z" fill="#7474E2"/>
<path d="M312.609 300.399C312.098 300.399 311.601 300.247 311.195 299.965C310.789 299.683 310.498 299.288 310.365 298.841C310.233 298.394 310.268 297.919 310.464 297.492C310.66 297.064 311.006 296.707 311.449 296.476L378.192 261.586C378.456 261.429 378.752 261.323 379.063 261.274C379.373 261.225 379.692 261.234 379.999 261.3C380.306 261.366 380.595 261.488 380.848 261.659C381.101 261.829 381.313 262.045 381.471 262.292C381.629 262.539 381.729 262.813 381.766 263.097C381.804 263.38 381.776 263.668 381.687 263.942C381.597 264.215 381.447 264.47 381.245 264.689C381.043 264.909 380.793 265.089 380.512 265.218L313.77 300.108C313.42 300.3 313.018 300.401 312.609 300.399Z" fill="#FAFAFA"/>
<path d="M312.609 313.566C312.097 313.571 311.597 313.422 311.189 313.142C310.781 312.861 310.487 312.466 310.354 312.018C310.221 311.569 310.257 311.094 310.455 310.666C310.653 310.238 311.003 309.882 311.449 309.654L406.48 259.945C406.744 259.807 407.035 259.717 407.338 259.681C407.64 259.645 407.947 259.664 408.242 259.735C408.536 259.807 408.812 259.93 409.054 260.098C409.296 260.266 409.499 260.476 409.651 260.715C409.804 260.954 409.902 261.218 409.942 261.492C409.982 261.766 409.962 262.044 409.883 262.311C409.804 262.577 409.667 262.827 409.482 263.046C409.296 263.265 409.064 263.449 408.8 263.587L313.77 313.286C313.417 313.471 313.017 313.567 312.609 313.566Z" fill="#FAFAFA"/>
<path d="M418.182 271.552C417.669 271.557 417.17 271.407 416.761 271.127C416.353 270.846 416.059 270.451 415.926 270.003C415.793 269.555 415.829 269.079 416.027 268.651C416.225 268.223 416.575 267.867 417.022 267.639L482.78 233.259C483.044 233.103 483.341 232.997 483.652 232.948C483.962 232.898 484.281 232.907 484.588 232.973C484.895 233.039 485.183 233.161 485.437 233.332C485.69 233.502 485.902 233.718 486.06 233.965C486.217 234.212 486.318 234.486 486.355 234.77C486.392 235.054 486.365 235.341 486.276 235.615C486.186 235.889 486.035 236.143 485.833 236.363C485.632 236.582 485.382 236.762 485.101 236.891L419.331 271.271C418.982 271.455 418.585 271.551 418.182 271.552Z" fill="#FAFAFA"/>
<path d="M312.609 326.744C312.098 326.745 311.601 326.592 311.195 326.31C310.789 326.029 310.498 325.634 310.365 325.186C310.233 324.739 310.268 324.265 310.464 323.837C310.66 323.41 311.006 323.053 311.449 322.822L396.281 278.476C396.814 278.197 397.448 278.122 398.042 278.266C398.637 278.411 399.144 278.763 399.452 279.246C399.76 279.729 399.843 280.303 399.683 280.841C399.524 281.38 399.134 281.839 398.601 282.118L313.77 326.464C313.417 326.648 313.017 326.745 312.609 326.744Z" fill="#FAFAFA"/>
<path d="M312.609 191.014C312.098 191.015 311.601 190.862 311.195 190.581C310.789 190.299 310.498 189.904 310.365 189.457C310.233 189.009 310.268 188.535 310.464 188.108C310.66 187.68 311.006 187.323 311.449 187.092L378.192 152.201C378.456 152.045 378.752 151.939 379.063 151.89C379.373 151.841 379.692 151.849 379.999 151.916C380.306 151.982 380.595 152.104 380.848 152.274C381.101 152.445 381.313 152.66 381.471 152.908C381.629 153.155 381.729 153.429 381.766 153.712C381.804 153.996 381.776 154.283 381.687 154.557C381.597 154.831 381.447 155.086 381.245 155.305C381.043 155.524 380.793 155.704 380.512 155.834L313.77 190.734C313.417 190.918 313.017 191.015 312.609 191.014Z" fill="#FAFAFA"/>
<path d="M312.609 204.192C312.098 204.192 311.601 204.04 311.195 203.758C310.789 203.477 310.498 203.082 310.365 202.634C310.233 202.187 310.268 201.713 310.464 201.285C310.66 200.858 311.006 200.501 311.449 200.27L406.48 150.57C406.744 150.414 407.04 150.308 407.351 150.259C407.662 150.21 407.98 150.218 408.287 150.285C408.594 150.351 408.883 150.473 409.136 150.643C409.389 150.814 409.601 151.029 409.759 151.277C409.917 151.524 410.017 151.798 410.055 152.081C410.092 152.365 410.065 152.653 409.975 152.926C409.885 153.2 409.735 153.455 409.533 153.674C409.331 153.893 409.082 154.073 408.8 154.203L313.77 203.902C313.42 204.094 313.018 204.194 312.609 204.192Z" fill="#FAFAFA"/>
<path d="M418.182 162.177C417.67 162.178 417.173 162.025 416.767 161.744C416.362 161.462 416.07 161.067 415.938 160.62C415.805 160.172 415.84 159.698 416.036 159.271C416.232 158.843 416.578 158.486 417.021 158.255L482.78 123.875C483.044 123.718 483.341 123.612 483.652 123.563C483.962 123.514 484.281 123.523 484.588 123.589C484.895 123.655 485.183 123.777 485.437 123.948C485.69 124.118 485.902 124.334 486.059 124.581C486.217 124.828 486.318 125.102 486.355 125.386C486.392 125.669 486.365 125.957 486.276 126.231C486.186 126.505 486.035 126.759 485.833 126.978C485.631 127.198 485.382 127.378 485.101 127.507L419.331 161.887C418.985 162.077 418.587 162.178 418.182 162.177Z" fill="#FAFAFA"/>
<path d="M312.609 217.36C312.097 217.365 311.597 217.215 311.189 216.935C310.781 216.655 310.487 216.259 310.354 215.811C310.221 215.363 310.257 214.887 310.455 214.459C310.653 214.032 311.003 213.676 311.449 213.447L396.281 169.101C396.81 168.858 397.422 168.808 397.991 168.961C398.559 169.114 399.042 169.458 399.339 169.923C399.636 170.388 399.725 170.939 399.588 171.461C399.451 171.984 399.098 172.439 398.601 172.733L313.77 217.08C313.417 217.264 313.017 217.361 312.609 217.36Z" fill="#FAFAFA"/>
<path d="M311.527 161.947C311.467 162.994 311.136 164.014 310.56 164.923C309.984 165.832 309.18 166.606 308.212 167.18C306.366 168.181 304.896 167.36 304.896 165.439C304.956 164.392 305.287 163.373 305.863 162.464C306.439 161.554 307.243 160.781 308.212 160.206C310.035 159.236 311.527 160.016 311.527 161.947Z" fill="white"/>
<path d="M323.295 155.804C323.236 156.85 322.905 157.87 322.329 158.779C321.752 159.689 320.948 160.462 319.98 161.037C318.134 162.037 316.665 161.217 316.665 159.296C316.724 158.249 317.055 157.229 317.631 156.32C318.207 155.411 319.011 154.637 319.98 154.063C321.836 153.082 323.295 153.862 323.295 155.804Z" fill="white"/>
<path d="M335.096 149.64C335.037 150.687 334.706 151.706 334.13 152.616C333.554 153.525 332.749 154.298 331.781 154.873C329.936 155.874 328.466 155.053 328.466 153.132C328.525 152.085 328.856 151.066 329.432 150.156C330.008 149.247 330.813 148.474 331.781 147.899C333.571 146.928 335.096 147.709 335.096 149.64Z" fill="white"/>
<path d="M358.467 203.081L353.727 201.22V156.724L358.467 158.585V203.081Z" fill="#7474E2"/>
<path opacity="0.6" d="M358.467 203.081L353.727 201.22V156.724L358.467 158.585V203.081Z" fill="black"/>
<path d="M551.28 57.5658L358.467 158.585L353.727 156.724L546.528 55.7147L551.28 57.5658Z" fill="#7474E2"/>
<path opacity="0.4" d="M551.28 57.5658L358.467 158.585L353.727 156.724L546.528 55.7147L551.28 57.5658Z" fill="black"/>
<path d="M551.28 102.062L358.467 203.081V158.585L551.28 57.5658V102.062Z" fill="#7474E2"/>
<path opacity="0.3" d="M551.28 102.062L358.467 203.081V158.585L551.28 57.5658V102.062Z" fill="black"/>
<path d="M430.211 132.27L435.863 129.328V148.228L430.211 151.17V132.27ZM424.989 153.887L419.337 156.828V137.928L424.989 134.987V153.887ZM430.594 144.004L424.606 147.12V141.882L430.594 138.766V144.004ZM442.227 144.916V130.957L437.317 133.512V128.571L452.789 120.52V125.461L447.88 128.016V141.975L442.227 144.916ZM454.258 138.656V119.756L458.904 117.338L465.61 126.187L463.167 127.458L469.682 111.729L474.328 109.311L474.376 128.186L469.227 130.866L469.179 120.738L469.993 120.315L465.538 131.084L463.048 132.38L458.401 126.347L459.407 125.824V135.976L454.258 138.656ZM477.109 126.764V107.864L482.762 104.922V118.881L490.33 114.942V119.883L477.109 126.764Z" fill="white"/>
<path d="M602.32 171.493L606.143 175.625C606.617 179.431 607.521 183.183 608.84 186.822C611.05 193.276 610.674 196.007 610.674 196.007L618.785 195.437L615.547 172.423C615.325 170.885 614.741 169.407 613.834 168.091L611.867 165.219L602.32 171.493Z" fill="#945959"/>
<path d="M606.762 288.051C606.762 288.051 601.668 291.643 602.154 293.765C602.64 295.886 610.585 296.896 614.442 292.764C616.155 290.933 617.37 287.201 617.525 282.648C617.602 280.377 620.763 277.015 617.525 274.643C614.287 272.272 612.994 271.712 612.188 272.012C611.381 272.312 606.762 288.051 606.762 288.051Z" fill="#37474F"/>
<path d="M602.961 270.691L605.955 276.474C605.955 276.474 606.928 284.829 606.762 288.051C606.762 288.051 611.381 290.613 612.751 285.76C613.278 283.457 613.522 281.108 613.481 278.756C612.975 277.13 612.763 275.44 612.851 273.753C612.928 273.232 612.895 272.702 612.751 272.192L611.381 267.089L602.961 270.691Z" fill="#945959"/>
<path d="M561.446 280.237C561.446 280.237 559.6 281.357 558.308 282.188C557.015 283.018 551.6 287.091 559.169 288.341C561.057 288.585 562.981 288.435 564.795 287.903C566.608 287.371 568.264 286.47 569.634 285.27C573.358 281.948 576.054 282.978 577.369 281.658C578.684 280.337 577.723 272.962 575.877 273.303L561.446 280.237Z" fill="#37474F"/>
<path d="M567.744 267.249L568.33 272.022C568.377 272.429 568.305 272.839 568.12 273.213C567.579 274.263 566.01 276.554 561.49 280.217C561.49 280.217 561.413 283.909 567.137 282.128C568.699 281.466 570.18 280.658 571.557 279.716C572.225 279.287 572.777 278.726 573.17 278.075C573.851 276.897 574.748 275.831 575.822 274.924L576.419 267.229L567.744 267.249Z" fill="#945959"/>
<path d="M562.728 186.442C562.728 186.442 561.137 193.596 561.468 207.174C561.678 216.299 561.888 223.123 561.987 226.625C562.04 228.363 562.199 230.096 562.463 231.818L567.722 267.249C569.052 267.886 570.533 268.219 572.037 268.219C573.542 268.219 575.023 267.886 576.352 267.249C576.352 267.249 577.104 259.434 577.966 255.332C578.739 251.7 579.756 241.084 577.723 235.52C577.152 233.906 577.008 232.192 577.303 230.517L583.281 194.826L562.728 186.442Z" fill="#455A64"/>
<path d="M566.816 194.646C567.489 196.258 568.524 197.726 569.856 198.957C571.187 200.189 572.786 201.157 574.551 201.801L578.916 221.072L583.336 194.866L566.816 194.646Z" fill="#37474F"/>
<path d="M564.507 186.071C564.507 186.071 563.402 194.766 571.413 198.158C572.997 198.912 574.684 199.474 576.43 199.829C576.43 199.829 582.982 235.21 584.165 237.852C585.347 240.493 602.95 270.671 602.95 270.671C602.95 270.671 609.911 271.992 611.37 267.079C611.37 267.079 609.834 260.635 607.889 253.601C606.254 247.678 604.331 240.974 600.961 237.692C599.669 236.471 598.959 234.84 598.983 233.149C599.127 227.396 599.414 215.319 599.469 212.067C599.558 207.744 601.337 193.966 598.265 188.403L588.784 180.558L564.507 186.071Z" fill="#455A64"/>
<path d="M557.932 137.533L550.794 133.691C550.794 133.691 546.252 128.497 542.572 123.875C538.893 119.252 537.346 116.871 537.346 116.871C538.502 115.276 539.173 113.433 539.29 111.528C539.29 108.746 539.125 107.425 539.699 106.394C540.274 105.364 539.699 104.273 538.163 104.714C536.627 105.154 535.489 108.146 535.953 110.097L527.378 114.599C527.378 114.599 528.804 118.051 530.771 119.662C530.771 119.662 538.627 136.802 541.699 139.584C544.771 142.366 550.142 146.138 550.142 146.138L557.932 137.533Z" fill="#945959"/>
<path d="M572.595 145.417L557.932 137.533C557.932 137.533 551.147 137.963 550.197 146.108L563.026 154.813L572.595 145.417Z" fill="#7474E2"/>
<path opacity="0.2" d="M572.595 145.417L557.932 137.533C557.932 137.533 551.147 137.963 550.197 146.108L563.026 154.813L572.595 145.417Z" fill="black"/>
<path d="M575.435 145.417L585.225 145.858L591.623 146.148L592.728 159.846C592.728 159.846 591.038 167.761 589.745 170.542C588.452 173.324 596.939 184.761 598.32 188.423C598.32 188.423 592.894 189.083 590.143 183.42C588.896 186.134 586.771 188.442 584.046 190.04C581.322 191.639 578.128 192.453 574.883 192.375C567.081 192.375 562.728 186.442 562.728 186.442L564.507 176.436C563.423 173.376 562.824 170.192 562.728 166.98C562.728 166.98 558.308 165.509 559.313 159.586C560.319 153.662 572.573 145.447 572.573 145.447L575.435 145.417Z" fill="#7474E2"/>
<path d="M595.436 123.294C595.436 123.294 601.038 119.102 605.878 123.875C612.84 130.749 597.789 144.247 611.138 144.537C611.138 144.537 609.602 146.148 604.419 146.148C599.237 146.148 594.795 141.295 595.679 132.37L595.436 123.294Z" fill="#263238"/>
<path d="M593.668 123.074C593.668 123.074 595.458 122.074 596.143 122.794C596.828 123.515 597.734 129.108 595.69 132.37C594.718 133.911 592.784 131.789 592.784 131.789L593.668 123.074Z" fill="#7474E2"/>
<path d="M563.645 123.875C563.645 123.875 563.722 129.668 559.601 128.057C559.94 128.826 560.538 129.478 561.309 129.921C562.081 130.365 562.987 130.577 563.899 130.529C566.164 130.529 567.468 128.527 567.468 126.957L563.645 123.875Z" fill="#263238"/>
<path d="M585.288 131.412C591.222 128.23 593.184 121.295 589.67 115.922C586.157 110.549 578.498 108.772 572.564 111.953C566.63 115.135 564.668 122.07 568.181 127.443C571.695 132.816 579.354 134.593 585.288 131.412Z" fill="#263238"/>
<path d="M594.95 126.957C594.95 133.2 588.795 141.135 581.899 141.135C580.26 141.136 578.637 140.845 577.122 140.278C575.607 139.711 574.23 138.879 573.071 137.83C571.911 136.781 570.991 135.535 570.364 134.164C569.736 132.792 569.413 131.323 569.413 129.838C569.413 123.595 575.004 116.48 581.899 116.48C588.795 116.48 594.95 118.602 594.95 126.957Z" fill="#263238"/>
<path d="M575.866 120.323C575.868 121.635 575.441 122.919 574.637 124.011C573.833 125.103 572.69 125.955 571.351 126.459C570.013 126.962 568.539 127.095 567.118 126.84C565.696 126.585 564.389 125.954 563.364 125.027C562.338 124.1 561.639 122.918 561.355 121.631C561.072 120.343 561.216 119.009 561.77 117.796C562.325 116.584 563.264 115.547 564.469 114.817C565.674 114.088 567.091 113.699 568.54 113.699C570.481 113.699 572.343 114.396 573.717 115.638C575.09 116.88 575.863 118.565 575.866 120.323Z" fill="#263238"/>
<path d="M575.435 139.334V145.417C575.435 145.417 569.159 151.131 575.269 151.631C581.38 152.131 585.215 145.858 585.215 145.858V134.261L575.435 139.334Z" fill="#945959"/>
<path d="M585.115 132.43V132.79C582.905 140.585 577.258 142.286 575.435 142.676L575.369 130.609H584.839L585.115 132.43Z" fill="#703838"/>
<path d="M577.203 115.07C574.072 115.253 571.143 116.536 569.042 118.647C566.94 120.757 565.832 123.527 565.954 126.366C565.844 135.001 567.302 141.585 572.242 141.855C577.181 142.125 588.22 138.093 588.739 126.847C589.259 115.6 580.728 114.779 577.203 115.07Z" fill="#945959"/>
<path d="M572.628 129.838L572.717 134.901L569.424 134.041L572.628 129.838Z" fill="#703838"/>
<path d="M577.546 129.698C577.546 129.894 577.482 130.085 577.363 130.249C577.244 130.412 577.074 130.54 576.875 130.617C576.677 130.694 576.457 130.716 576.245 130.682C576.032 130.647 575.835 130.556 575.679 130.421C575.522 130.287 575.413 130.113 575.364 129.922C575.316 129.732 575.33 129.532 575.405 129.349C575.48 129.165 575.613 129.006 575.787 128.89C575.962 128.774 576.17 128.707 576.386 128.698C576.535 128.691 576.685 128.712 576.825 128.759C576.966 128.806 577.094 128.879 577.203 128.972C577.311 129.066 577.398 129.179 577.457 129.303C577.516 129.428 577.546 129.562 577.546 129.698Z" fill="#263238"/>
<path d="M570.032 129.078C570.032 129.276 569.967 129.469 569.846 129.634C569.724 129.798 569.552 129.927 569.35 130.002C569.148 130.078 568.926 130.098 568.711 130.059C568.497 130.021 568.3 129.925 568.145 129.785C567.991 129.645 567.886 129.467 567.843 129.273C567.8 129.079 567.822 128.878 567.906 128.695C567.99 128.512 568.131 128.356 568.313 128.246C568.495 128.136 568.708 128.077 568.927 128.077C569.22 128.077 569.501 128.183 569.708 128.37C569.915 128.558 570.032 128.812 570.032 129.078Z" fill="#263238"/>
<path d="M567.468 126.957L569.678 125.726C569.678 125.726 568.816 124.935 567.965 125.426C567.723 125.606 567.545 125.849 567.457 126.122C567.368 126.395 567.372 126.686 567.468 126.957Z" fill="#7474E2"/>
<path d="M571.977 136.672C573.133 136.167 574.258 135.606 575.347 134.991C575.347 134.991 576.054 136.652 574.562 137.333C574.113 137.51 573.611 137.541 573.139 137.42C572.668 137.3 572.257 137.036 571.977 136.672Z" fill="#703838"/>
<path d="M567.468 126.957L569.678 125.726C569.678 125.726 568.816 124.935 567.965 125.426C567.723 125.606 567.545 125.849 567.457 126.122C567.368 126.395 567.372 126.686 567.468 126.957Z" fill="#263238"/>
<path d="M583.159 129.228C583.159 129.228 582.938 132.86 585.248 132.86H589.778V125.936C589.778 118.171 583.27 110.057 569.424 116.47C569.424 116.47 568.75 126.837 583.159 129.228Z" fill="#263238"/>
<path d="M584.905 133.02C584.875 132.229 585.045 131.442 585.402 130.719C585.576 130.268 585.891 129.874 586.31 129.584C586.728 129.294 587.231 129.122 587.756 129.088C590.452 129.088 590.784 131.399 590.74 132.24C590.626 133.535 589.961 134.739 588.885 135.598C587.808 136.458 586.405 136.904 584.971 136.842L584.905 133.02Z" fill="#945959"/>
<path d="M590.74 146.108C590.74 146.108 584.375 151.851 592.497 160.716C600.618 169.582 602.32 171.493 602.32 171.493C602.32 171.493 610.652 172.233 611.867 165.269C611.867 165.269 602.077 152.812 599.403 149.67C596.729 146.528 594.298 146.268 590.74 146.108Z" fill="#7474E2"/>
<path opacity="0.2" d="M590.74 146.108C590.74 146.108 584.375 151.851 592.497 160.716C600.618 169.582 602.32 171.493 602.32 171.493C602.32 171.493 610.652 172.233 611.867 165.269C611.867 165.269 602.077 152.812 599.403 149.67C596.729 146.528 594.298 146.268 590.74 146.108Z" fill="black"/>
<path opacity="0.3" d="M572.22 167.691C572.22 167.691 581.966 170.152 585.226 161.757C585.226 161.807 583.546 172.233 572.22 167.691Z" fill="black"/>
<path d="M610.674 196.037C610.674 196.037 609.127 196.858 608.762 199.789C608.652 200.63 606.95 202.501 607.204 202.971C607.458 203.442 609.16 204.082 610.994 201.33C611.327 202.726 611.349 204.169 611.061 205.573C610.563 207.744 609.701 210.526 612.829 209.915C615.956 209.305 620.564 207.064 619.834 202.841C619.16 198.769 618.785 195.467 618.785 195.467L610.674 196.037Z" fill="#945959"/>
<path d="M426.602 250.679L421.85 248.828V204.332L426.602 206.183V250.679Z" fill="#7474E2"/>
<path opacity="0.6" d="M426.602 250.679L421.85 248.828V204.332L426.602 206.183V250.679Z" fill="black"/>
<path d="M537.456 148.109L426.602 206.183L421.85 204.332L532.705 146.258L537.456 148.109Z" fill="#7474E2"/>
<path opacity="0.4" d="M537.456 148.109L426.602 206.183L421.85 204.332L532.705 146.258L537.456 148.109Z" fill="black"/>
<path d="M537.456 192.605L426.602 250.679V206.183L537.456 148.109V192.605Z" fill="#7474E2"/>
<path opacity="0.3" d="M537.456 192.605L426.602 250.679V206.183L537.456 148.109V192.605Z" fill="black"/>
<path d="M438.849 229.697V210.797L446.921 206.597C448.485 205.783 449.835 205.369 450.968 205.355C452.118 205.332 453.004 205.699 453.627 206.455C454.25 207.193 454.561 208.291 454.561 209.749C454.561 211.207 454.25 212.629 453.627 214.015C453.004 215.401 452.118 216.69 450.968 217.883C449.835 219.049 448.485 220.039 446.921 220.853L441.987 223.421L444.501 219.385V226.756L438.849 229.697ZM444.501 220.087L441.987 218.507L446.561 216.126C447.344 215.719 447.918 215.222 448.286 214.635C448.669 214.039 448.861 213.399 448.861 212.715C448.861 212.031 448.669 211.591 448.286 211.395C447.918 211.19 447.344 211.291 446.561 211.698L441.987 214.079L444.501 209.881V220.087ZM467.288 195.998L472.941 193.056V211.956L467.288 214.898V195.998ZM462.067 217.615L456.415 220.556V201.656L462.067 198.715V217.615ZM467.672 207.732L461.684 210.848V205.61L467.672 202.494V207.732ZM475.664 210.539V191.639L483.736 187.438C485.3 186.624 486.65 186.21 487.783 186.196C488.933 186.174 489.819 186.54 490.442 187.296C491.065 188.034 491.376 189.132 491.376 190.59C491.376 192.048 491.065 193.47 490.442 194.856C489.819 196.242 488.933 197.532 487.783 198.724C486.65 199.89 485.3 200.88 483.736 201.694L478.802 204.262L481.317 200.226V207.597L475.664 210.539ZM481.317 200.928L478.802 199.348L483.376 196.967C484.159 196.56 484.734 196.063 485.101 195.476C485.484 194.88 485.676 194.241 485.676 193.557C485.676 192.873 485.484 192.432 485.101 192.236C484.734 192.031 484.159 192.132 483.376 192.539L478.802 194.92L481.317 190.722V200.928Z" fill="white"/>
<path d="M523.091 373.031C523.091 373.031 527.599 370.75 528.163 368.208C528.727 365.667 523.743 359.813 523.743 359.813C523.743 359.813 520.085 361.705 523.091 373.031Z" fill="#7474E2"/>
<path opacity="0.2" d="M523.091 373.031C523.091 373.031 527.599 370.75 528.163 368.208C528.727 365.667 523.743 359.813 523.743 359.813C523.743 359.813 520.085 361.705 523.091 373.031Z" fill="black"/>
<path d="M467.896 380.906L474.471 377.394L475.333 371.43L473.067 370.95L467.896 380.906Z" fill="#7474E2"/>
<path opacity="0.3" d="M467.896 380.906L474.471 377.394L475.333 371.43L473.067 370.95L467.896 380.906Z" fill="black"/>
<path d="M506.836 346.626L512.98 355.511L517.08 367.818C517.08 367.818 524.649 366.968 519.886 351.168L516.317 341.643L506.836 346.626Z" fill="#FFA8A7"/>
<path d="M466.592 349.918L467.885 364.076L463.365 374.932C463.365 374.932 465.631 380.005 472.747 369.269C476.526 363.566 476.648 362.435 476.648 362.435L478.139 349.928L466.592 349.918Z" fill="#FFA8A7"/>
<path d="M472.46 211.997L470.15 216.139C470.116 216.199 470.097 216.266 470.094 216.333C470.09 216.401 470.103 216.469 470.132 216.531C470.16 216.594 470.203 216.65 470.258 216.697C470.312 216.743 470.377 216.778 470.448 216.799L473.189 217.62L472.46 211.997Z" fill="#F28F8F"/>
<path d="M475.664 205.052C475.664 205.052 472.117 206.763 472.117 216.569C472.117 221.962 472.526 225.404 475.62 225.194C478.714 224.984 487.62 223.924 487.62 223.924V205.052H475.664Z" fill="#FFA8A7"/>
<path d="M475.664 225.194C476.769 225.114 478.559 224.934 480.438 224.734V223.733C478.74 224.398 476.964 224.885 475.145 225.184C475.317 225.203 475.491 225.206 475.664 225.194Z" fill="#F28F8F"/>
<path d="M479.907 223.313V229.477H489.212V220.822L479.907 223.313Z" fill="#FFA8A7"/>
<path d="M495.83 244.936L501.875 256.173L497.344 261.546L500.472 271.141L510.185 260.765C511.029 259.866 511.589 258.776 511.805 257.611C512.021 256.447 511.885 255.251 511.411 254.151C508.737 247.928 503.422 235.68 501.985 233.509C500.041 230.577 497.72 229.017 494.25 229.117C490.781 229.217 495.83 244.936 495.83 244.936Z" fill="#FFA8A7"/>
<path d="M498.748 263.397C500.151 267.209 503.168 272.572 503.079 290.593C502.991 303.19 503.079 310.284 503.212 313.406C503.235 314.523 503.716 315.593 504.56 316.408C506.041 317.789 508.56 320.761 510.936 326.414C513.05 331.393 514.847 336.477 516.317 341.643C516.317 341.643 514.593 346.726 506.825 346.646L487.399 318.379C486.623 317.243 486.123 315.971 485.93 314.647L480.824 279.536V265.158L498.748 263.397Z" fill="#7474E2"/>
<path opacity="0.6" d="M498.748 263.397C500.151 267.209 503.168 272.572 503.079 290.593C502.991 303.19 503.079 310.284 503.212 313.406C503.235 314.523 503.716 315.593 504.56 316.408C506.041 317.789 508.56 320.761 510.936 326.414C513.05 331.393 514.847 336.477 516.317 341.643C516.317 341.643 514.593 346.726 506.825 346.646L487.399 318.379C486.623 317.243 486.123 315.971 485.93 314.647L480.824 279.536V265.158L498.748 263.397Z" fill="black"/>
<path d="M484.935 307.673L490.327 290.163C490.327 290.163 497.908 283.158 495.212 271.151L483.753 284.219L484.327 304.151L484.935 307.673Z" fill="#7474E2"/>
<path opacity="0.7" d="M484.935 307.673L490.327 290.163C490.327 290.163 497.908 283.158 495.212 271.151L483.753 284.219L484.327 304.151L484.935 307.673Z" fill="black"/>
<path d="M467.133 264.377C466.813 270.041 463.421 305.301 463.907 315.557C464.393 325.813 466.592 349.918 466.592 349.918C466.592 349.918 473.918 352.659 478.128 349.918C478.128 349.918 479.907 340.412 481.068 332.908C481.776 329.024 481.63 325.053 480.637 321.221C480.233 319.813 480.233 318.336 480.637 316.928L488.902 288.201C488.902 288.201 496.04 283.669 496.04 271.131V261.726L467.133 264.377Z" fill="#7474E2"/>
<path opacity="0.6" d="M467.133 264.377C466.813 270.041 463.421 305.301 463.907 315.557C464.393 325.813 466.592 349.918 466.592 349.918C466.592 349.918 473.918 352.659 478.128 349.918C478.128 349.918 479.907 340.412 481.068 332.908C481.776 329.024 481.63 325.053 480.637 321.221C480.233 319.813 480.233 318.336 480.637 316.928L488.902 288.201C488.902 288.201 496.04 283.669 496.04 271.131V261.726L467.133 264.377Z" fill="black"/>
<path d="M486.99 225.144L472.117 230.087C472.117 230.087 465.156 235.56 465.156 246.017C465.156 248.948 468.283 251.58 468.283 251.58C468.283 251.58 467.178 260.765 467.089 264.377C467.089 264.377 474.692 269.21 488.869 267.309C492.419 266.658 495.773 265.324 498.703 263.397C498.703 263.397 496.493 255.292 496.217 254.512C495.941 253.731 499.245 244.256 499.245 236.731L486.99 225.144Z" fill="#455A64"/>
<path d="M473.852 207.244C473.852 207.244 474.449 211.977 477.797 213.247C477.797 213.247 475.145 216.539 479.079 217.98V215.439L480.725 218.35C480.725 218.35 476.095 235.36 484.128 235.36C485.527 235.381 486.887 234.948 487.963 234.14C487.963 234.14 489.2 238.582 496.637 238.582C504.074 238.582 505.477 231.988 505.477 231.988C505.477 231.988 500.516 233.349 500.516 228.666C500.516 223.984 500.14 208.935 499.864 206.653C499.364 204.252 498.016 202.063 496.023 200.415C494.03 198.768 491.5 197.751 488.814 197.518C483.012 196.888 475.487 196.928 471.134 202.351C466.78 207.774 472.99 209.295 472.99 209.295C472.99 209.295 473.134 209.105 473.852 207.244Z" fill="#263238"/>
<path d="M479.079 215.459C479.079 215.459 478.836 211.316 482.394 211.636C486.46 211.997 485.167 218.64 480.184 218.64L479.079 215.459Z" fill="#FFA8A7"/>
<path d="M501.742 202.831C500.803 201.501 499.526 200.393 498.018 199.599C497.531 199.394 497.003 199.278 496.465 199.259C495.928 199.24 495.392 199.318 494.888 199.488C494.384 199.659 493.922 199.918 493.53 200.251C493.138 200.585 492.823 200.986 492.604 201.43C492.185 202.214 491.961 203.072 491.948 203.942C491.935 204.813 492.133 205.675 492.528 206.469C492.924 207.263 493.506 207.969 494.235 208.536C494.964 209.104 495.822 209.52 496.748 209.755C497.11 209.845 497.479 209.908 497.853 209.945C498.888 210.03 499.923 209.773 500.766 209.221C501.609 208.67 502.203 207.861 502.438 206.944C502.584 206.471 502.661 205.983 502.67 205.493C502.681 204.539 502.356 203.607 501.742 202.831Z" fill="#7474E2"/>
<path d="M504.781 203.832C504.779 204.876 504.435 205.897 503.792 206.764C503.15 207.632 502.238 208.307 501.172 208.706C500.105 209.104 498.933 209.207 497.802 209.002C496.671 208.797 495.632 208.293 494.817 207.554C494.002 206.815 493.448 205.873 493.223 204.849C492.999 203.824 493.115 202.762 493.557 201.798C493.999 200.833 494.747 200.008 495.706 199.428C496.666 198.848 497.793 198.539 498.947 198.539C499.714 198.539 500.473 198.676 501.182 198.942C501.89 199.208 502.534 199.598 503.076 200.09C503.618 200.581 504.048 201.165 504.34 201.807C504.633 202.449 504.782 203.137 504.781 203.832Z" fill="#263238"/>
<path d="M472.117 230.087C472.117 230.087 477.123 230.778 477.123 236.831C477.123 242.885 464.824 245.626 459.001 247.577C455.686 248.708 451.188 250.289 448.039 251.43C446.827 251.866 445.505 251.99 444.22 251.789C442.935 251.588 441.737 251.069 440.757 250.289C434.622 245.432 429.067 240.006 424.182 234.1C424.182 234.1 417.154 231.848 417.364 225.595C417.574 219.341 421.784 217.59 421.784 217.59V219.671C421.784 220.351 421.956 221.023 422.287 221.634C422.619 222.244 423.1 222.778 423.696 223.193L425.099 224.194C425.254 224.302 425.435 224.376 425.627 224.409C425.819 224.443 426.017 224.435 426.206 224.386C426.394 224.338 426.567 224.249 426.71 224.129C426.854 224.009 426.965 223.86 427.033 223.693C427.519 222.493 428.37 220.932 429.641 220.411C431.795 219.531 431.044 223.323 430.503 225.134C430.18 226.172 430.035 227.249 430.072 228.326L445.818 240.924C445.818 240.924 463.1 232.689 472.117 230.087Z" fill="#FFA8A7"/>
<path d="M476.648 362.455C475.522 362.625 474.457 363.032 473.536 363.641C472.615 364.251 471.864 365.048 471.344 365.967C469.62 369.089 466.382 377.884 463.365 374.972L464.393 372.521C464.393 372.521 452.315 374.912 455.199 377.774C458.083 380.636 467.133 381.906 467.896 380.926C468.658 379.945 472.747 372.921 472.747 372.921L475.012 382.297C475.342 382.556 475.764 382.698 476.2 382.698C476.637 382.698 477.058 382.556 477.388 382.297C477.388 382.297 480.338 364.306 476.648 362.455Z" fill="#7474E2"/>
<path d="M517.08 367.818C517.949 367.419 518.651 366.774 519.079 365.982C519.508 365.189 519.64 364.292 519.455 363.426C519.025 360.104 516.229 353.49 519.886 351.168C521.511 350.168 525.113 354.63 528.163 360.004C531.213 365.377 532.075 366.938 532.075 366.938C532.075 366.938 531.743 368.378 530.351 368.308L523.666 362.055C523.235 363.964 523.307 365.939 523.875 367.818C524.848 370.75 524.981 372.451 521.456 373.872C517.931 375.293 508.284 377.234 513.444 371.34C514.464 370.015 515.688 368.829 517.08 367.818Z" fill="#7474E2"/>
<path d="M258.044 384.008L258.906 392.082C258.906 392.082 259.867 393.743 264.299 393.743C268.73 393.743 267.746 390.321 267.746 390.321L268.177 384.008H258.044Z" fill="#FFA8A7"/>
<path d="M271.337 302.27C271.337 306.462 270.906 347.386 270.873 350.128C270.879 350.224 270.879 350.321 270.873 350.418C270.696 352.699 268.508 380.756 268.188 384.008C268.188 384.008 262.906 387.65 258.055 384.008C258.055 384.008 256.751 374.112 256.32 371.18C255.889 368.248 254.265 355.171 256.32 350.858L251.038 326.054V306.132L271.337 302.27Z" fill="#37474F"/>
<path d="M265.348 308.553C265.348 308.553 264.243 314.817 256.309 318.239L252.828 334.499L251.027 326.904V309.154L265.348 308.553Z" fill="#263238"/>
<path d="M224.165 390.321L223.303 396.325C223.303 396.325 225.612 401.778 232.662 399.147L233.955 392.903L224.165 390.321Z" fill="#FFA8A7"/>
<path d="M233.955 303C233.469 307.683 232.043 319.6 231.502 335.019C230.96 350.438 230.96 350.348 230.96 350.348C229.021 354.127 227.7 358.141 227.038 362.265C226.364 368.048 224.165 390.281 224.165 390.281C225.392 391.465 226.95 392.326 228.673 392.773C230.397 393.22 232.222 393.238 233.955 392.823L246.972 355.801C247.323 354.793 247.592 353.763 247.779 352.719L254.154 316.328C254.154 316.328 265.271 314.967 267.746 301.969L233.955 303Z" fill="#37474F"/>
<path d="M274.896 274.203L287.426 283.288V270.101L282.984 265.998L274.896 274.203Z" fill="#F28F8F"/>
<path d="M262.674 253.621C265.645 253.421 268.592 254.231 270.94 255.892C274.818 258.674 282.984 265.998 282.984 265.998C282.685 267.938 281.756 269.753 280.316 271.213C278.876 272.674 276.989 273.715 274.895 274.203L266.884 269.01L262.674 253.621Z" fill="#7474E2"/>
<path opacity="0.2" d="M262.674 253.621C265.645 253.421 268.592 254.231 270.94 255.892C274.818 258.674 282.984 265.998 282.984 265.998C282.685 267.938 281.756 269.753 280.316 271.213C278.876 272.674 276.989 273.715 274.895 274.203L266.884 269.01L262.674 253.621Z" fill="white"/>
<path d="M246.408 253.691C246.408 253.691 238.165 254.442 234.441 255.172L233.071 268.64C233.071 268.64 235.966 283.649 235.966 285.76C235.966 287.871 233.955 303 233.955 303C233.955 303 239.646 306.372 256.21 306.372C261.561 306.219 266.775 304.805 271.337 302.27V272.342C271.337 266.519 268.829 257.333 262.674 253.621H257.613L246.408 253.691Z" fill="#7474E2"/>
<path opacity="0.2" d="M246.408 253.691C246.408 253.691 238.165 254.442 234.441 255.172L233.071 268.64C233.071 268.64 235.966 283.649 235.966 285.76C235.966 287.871 233.955 303 233.955 303C233.955 303 239.646 306.372 256.21 306.372C261.561 306.219 266.775 304.805 271.337 302.27V272.342C271.337 266.519 268.829 257.333 262.674 253.621H257.613L246.408 253.691Z" fill="black"/>
<path d="M292.167 294.795L287.426 292.944V248.448L292.167 250.299V294.795Z" fill="#7474E2"/>
<path opacity="0.6" d="M292.167 294.795L287.426 292.944V248.448L292.167 250.299V294.795Z" fill="black"/>
<path d="M403.021 192.225L292.167 250.299L287.426 248.448L398.269 190.374L403.021 192.225Z" fill="#7474E2"/>
<path opacity="0.4" d="M403.021 192.225L292.167 250.299L287.426 248.448L398.269 190.374L403.021 192.225Z" fill="black"/>
<path d="M403.021 236.721L292.167 294.795V250.299L403.021 192.225V236.721Z" fill="#7474E2"/>
<path opacity="0.3" d="M403.021 236.721L292.167 294.795V250.299L403.021 192.225V236.721Z" fill="black"/>
<path d="M323.258 265.242C321.916 265.94 320.671 266.354 319.521 266.484C318.388 266.588 317.398 266.419 316.551 265.978C315.721 265.528 315.074 264.82 314.611 263.855C314.148 262.89 313.917 261.679 313.917 260.221C313.917 258.763 314.148 257.31 314.611 255.863C315.074 254.416 315.721 253.036 316.551 251.722C317.398 250.399 318.388 249.209 319.521 248.151C320.671 247.067 321.916 246.176 323.258 245.478C324.902 244.622 326.355 244.19 327.617 244.181C328.894 244.165 329.948 244.552 330.778 245.344L327.209 250.792C326.714 250.348 326.164 250.094 325.557 250.032C324.966 249.944 324.295 250.095 323.545 250.485C322.954 250.793 322.419 251.179 321.94 251.644C321.461 252.11 321.046 252.641 320.695 253.237C320.36 253.826 320.096 254.467 319.904 255.161C319.713 255.836 319.617 256.534 319.617 257.254C319.617 257.974 319.713 258.581 319.904 259.076C320.096 259.552 320.36 259.91 320.695 260.149C321.046 260.381 321.461 260.48 321.94 260.446C322.419 260.413 322.954 260.243 323.545 259.935C324.295 259.545 324.966 259.007 325.557 258.321C326.164 257.609 326.714 256.774 327.209 255.814L330.778 257.548C329.948 259.186 328.894 260.671 327.617 262.001C326.355 263.306 324.902 264.386 323.258 265.242ZM338.427 257.347C337.022 258.079 335.665 258.605 334.356 258.926C333.047 259.248 331.969 259.34 331.122 259.205L332.943 253.614C333.741 253.72 334.627 253.682 335.601 253.499C336.591 253.29 337.549 252.944 338.475 252.462C339.018 252.18 339.441 251.924 339.745 251.694C340.064 251.438 340.296 251.2 340.439 250.981C340.583 250.745 340.655 250.518 340.655 250.302C340.655 249.96 340.487 249.777 340.152 249.754C339.817 249.73 339.37 249.801 338.811 249.966C338.268 250.104 337.669 250.272 337.014 250.469C336.36 250.647 335.697 250.785 335.026 250.882C334.372 250.971 333.765 250.954 333.206 250.83C332.663 250.699 332.224 250.388 331.889 249.896C331.554 249.387 331.386 248.628 331.386 247.62C331.386 246.45 331.673 245.238 332.248 243.985C332.839 242.706 333.709 241.479 334.859 240.304C336.024 239.122 337.469 238.082 339.194 237.184C340.328 236.594 341.445 236.148 342.547 235.844C343.649 235.541 344.639 235.44 345.517 235.541L343.816 241.043C342.986 241.007 342.18 241.076 341.397 241.249C340.631 241.414 339.88 241.687 339.146 242.069C338.603 242.352 338.172 242.63 337.853 242.904C337.533 243.179 337.302 243.443 337.158 243.698C337.03 243.944 336.966 244.176 336.966 244.392C336.966 244.716 337.134 244.889 337.469 244.913C337.805 244.918 338.244 244.843 338.787 244.686C339.346 244.521 339.952 244.341 340.607 244.144C341.278 243.939 341.94 243.792 342.595 243.704C343.25 243.615 343.848 243.636 344.391 243.768C344.95 243.891 345.397 244.198 345.732 244.69C346.068 245.181 346.235 245.922 346.235 246.912C346.235 248.064 345.94 249.28 345.349 250.559C344.774 251.812 343.912 253.035 342.763 254.227C341.613 255.402 340.168 256.442 338.427 257.347ZM354.169 249.156C352.764 249.887 351.406 250.413 350.097 250.734C348.788 251.056 347.71 251.149 346.864 251.013L348.684 245.422C349.482 245.528 350.368 245.49 351.342 245.307C352.332 245.098 353.29 244.753 354.217 244.271C354.759 243.988 355.183 243.732 355.486 243.502C355.805 243.246 356.037 243.008 356.181 242.79C356.324 242.553 356.396 242.326 356.396 242.11C356.396 241.768 356.228 241.586 355.893 241.562C355.558 241.539 355.111 241.609 354.552 241.774C354.009 241.913 353.41 242.08 352.756 242.277C352.101 242.456 351.438 242.593 350.768 242.69C350.113 242.779 349.506 242.762 348.947 242.639C348.404 242.507 347.965 242.196 347.63 241.704C347.295 241.195 347.127 240.436 347.127 239.428C347.127 238.258 347.414 237.046 347.989 235.793C348.58 234.514 349.45 233.287 350.6 232.113C351.766 230.93 353.211 229.89 354.935 228.993C356.069 228.403 357.186 227.956 358.288 227.653C359.39 227.349 360.38 227.248 361.258 227.349L359.558 232.851C358.727 232.815 357.921 232.884 357.139 233.057C356.372 233.222 355.622 233.495 354.887 233.878C354.344 234.16 353.913 234.438 353.594 234.713C353.274 234.987 353.043 235.251 352.899 235.506C352.771 235.753 352.708 235.984 352.708 236.2C352.708 236.524 352.875 236.698 353.211 236.721C353.546 236.727 353.985 236.651 354.528 236.495C355.087 236.33 355.694 236.149 356.348 235.952C357.019 235.747 357.681 235.6 358.336 235.512C358.991 235.423 359.59 235.444 360.132 235.576C360.691 235.699 361.138 236.006 361.474 236.498C361.809 236.989 361.977 237.73 361.977 238.72C361.977 239.872 361.681 241.088 361.09 242.367C360.516 243.621 359.653 244.843 358.504 246.036C357.354 247.21 355.909 248.25 354.169 249.156Z" fill="white"/>
<path d="M267.691 225.304C267.691 225.304 274.133 230.427 268.531 241.844L261.978 226.415L267.691 225.304Z" fill="#263238"/>
<path d="M246.408 253.691C246.408 253.691 248.618 259.044 254.773 259.044C260.928 259.044 257.613 253.621 257.613 253.621L246.408 253.691Z" fill="#FFA8A7"/>
<path d="M246.408 253.691L257.613 253.621V238.102H246.408V253.691Z" fill="#FFA8A7"/>
<path d="M257.613 253.001C253.48 251.55 248.232 249.148 248.232 246.857L246.873 239.143H257.613V253.001Z" fill="#F28F8F"/>
<path d="M255.038 222.143C258.994 222.143 267.392 224.144 268.365 233.509C269.337 242.875 267.823 250.839 263.061 250.839C253.712 250.839 244.74 249.759 244.662 235.911C244.596 223.693 251.182 222.143 255.038 222.143Z" fill="#FFA8A7"/>
<path d="M246.419 244.115L247.933 239.853C248.047 239.941 248.187 239.997 248.335 240.016C248.483 240.034 248.634 240.014 248.77 239.957C248.906 239.9 249.021 239.809 249.102 239.695C249.183 239.581 249.226 239.448 249.226 239.313V231.758C249.226 231.758 253.116 230.758 252.707 227.806C252.707 227.806 254.696 229.417 262.32 229.417C269.945 229.417 271.801 223.563 271.039 220.301C271.039 220.301 269.624 221.622 265.591 221.622C261.558 221.622 244.773 217.04 244.342 226.225C244.342 226.225 242.916 224.344 240.629 226.225L243.579 227.846C243.579 227.846 240.088 227.746 240.629 232.379C241.06 236.041 242.74 242.975 243.436 245.746C243.633 246.513 244.142 247.185 244.861 247.627L246.419 248.578V244.115Z" fill="#263238"/>
<path d="M260.983 236.321V241.844L264.553 240.844L260.983 236.321Z" fill="#F28F8F"/>
<path d="M254.641 237.271C254.638 237.496 254.71 237.716 254.846 237.903C254.983 238.091 255.178 238.237 255.406 238.324C255.635 238.411 255.887 238.434 256.13 238.391C256.373 238.348 256.597 238.24 256.772 238.081C256.948 237.922 257.067 237.72 257.114 237.5C257.162 237.279 257.137 237.051 257.041 236.844C256.945 236.637 256.783 236.461 256.576 236.337C256.369 236.214 256.126 236.149 255.878 236.151C255.716 236.151 255.555 236.18 255.405 236.236C255.255 236.292 255.118 236.375 255.003 236.479C254.888 236.583 254.797 236.707 254.735 236.843C254.673 236.979 254.641 237.124 254.641 237.271Z" fill="#263238"/>
<path d="M263.934 236.491C263.934 236.715 264.007 236.933 264.144 237.119C264.281 237.305 264.476 237.45 264.704 237.536C264.933 237.621 265.184 237.644 265.426 237.6C265.668 237.556 265.891 237.449 266.065 237.29C266.24 237.132 266.359 236.931 266.407 236.712C266.455 236.492 266.43 236.265 266.336 236.058C266.241 235.852 266.081 235.675 265.876 235.551C265.671 235.427 265.429 235.36 265.182 235.36C264.851 235.36 264.533 235.479 264.299 235.691C264.065 235.904 263.934 236.191 263.934 236.491Z" fill="#263238"/>
<path d="M266.696 234.14L264.265 232.839C264.265 232.839 265.194 231.958 266.122 232.489C266.39 232.679 266.589 232.939 266.692 233.233C266.794 233.528 266.796 233.844 266.696 234.14Z" fill="#263238"/>
<path d="M253.325 234.96L255.745 233.649C255.745 233.649 254.817 232.769 253.889 233.299C253.622 233.492 253.425 233.754 253.324 234.051C253.224 234.347 253.224 234.664 253.325 234.96Z" fill="#263238"/>
<path d="M262.663 244.075C261.489 244.149 260.321 243.864 259.348 243.265C259.348 243.265 259.116 244.866 260.597 245.166C261.027 245.224 261.466 245.148 261.841 244.95C262.217 244.751 262.507 244.443 262.663 244.075Z" fill="#F28F8F"/>
<path d="M247.336 238.302C248.74 240.513 248.375 243.195 246.419 244.115C245.149 244.706 241.425 243.435 240.021 241.224C238.618 239.012 239.403 237.121 241.314 236.121C243.226 235.12 245.922 236.091 247.336 238.302Z" fill="#FFA8A7"/>
<path d="M248.044 239.943L243.745 235.721L246.839 234.04L248.044 239.943Z" fill="#253239"/>
<path d="M254.431 271.281L260.342 277.215C260.342 277.215 265.171 276.595 270.774 276.334C275.22 275.913 279.628 275.214 283.967 274.243C283.967 274.243 285.073 269.961 287.437 268.24V271.592C287.437 271.592 290.609 272.592 292.178 271.171C294.885 268.76 297.305 266.539 297.305 271.592C297.305 278.646 293.99 281.507 285.039 281.357C285.039 281.357 262.442 289.932 257.027 288.972C253.712 288.401 244.607 280.627 244.607 280.627L254.431 271.281Z" fill="#FFA8A7"/>
<path d="M230.12 257.123C233.922 253.621 238.264 255.252 242.077 258.704C245.889 262.156 254.431 271.281 254.431 271.281C254.431 271.281 253.569 278.396 244.607 280.657C244.607 280.657 232.518 269.26 230.971 267.709C228.165 264.868 226.518 260.465 230.12 257.123Z" fill="#7474E2"/>
<path opacity="0.2" d="M230.12 257.123C233.922 253.621 238.264 255.252 242.077 258.704C245.889 262.156 254.431 271.281 254.431 271.281C254.431 271.281 253.569 278.396 244.607 280.657C244.607 280.657 232.518 269.26 230.971 267.709C228.165 264.868 226.518 260.465 230.12 257.123Z" fill="white"/>
<path d="M310.3 285.32C310.397 284.185 310.748 283.081 311.334 282.075C311.919 281.068 312.725 280.18 313.703 279.466C318.797 275.944 318.587 279.466 318.709 280.917C318.83 282.368 313.991 287.521 308.687 286.16L310.3 285.32Z" fill="#FFA8A7"/>
<path d="M223.303 396.285C223.574 396.832 223.948 397.333 224.408 397.766C224.518 397.85 224.651 397.905 224.793 397.926C224.936 397.947 225.081 397.933 225.215 397.885C225.349 397.836 225.466 397.756 225.553 397.652C225.641 397.549 225.696 397.425 225.712 397.296C225.725 396.964 225.834 396.642 226.028 396.361C226.222 396.08 226.494 395.85 226.817 395.695C227.579 395.404 233.668 395.304 233.723 396.425C233.726 397.272 233.629 398.118 233.436 398.946C233.436 398.946 234.419 406.531 236.286 409.533C238.154 412.534 241.204 417.387 234.784 418.808C228.364 420.229 223.513 417.147 223.292 413.045C223.071 408.942 223.181 406.041 222.75 405.33C222.319 404.62 220.054 404.25 220.916 400.497C221.778 396.745 221.91 394.494 223.568 394.374L223.303 396.285Z" fill="#455A64"/>
<path d="M227.679 403.249C227.585 403.252 227.493 403.233 227.41 403.194C227.327 403.156 227.256 403.099 227.203 403.029C227.116 402.915 227.081 402.776 227.106 402.639C227.13 402.503 227.213 402.381 227.336 402.298C228.351 401.721 229.51 401.382 230.707 401.314C231.903 401.246 233.1 401.45 234.187 401.908C234.26 401.936 234.325 401.976 234.381 402.027C234.436 402.077 234.48 402.137 234.51 402.203C234.539 402.269 234.555 402.34 234.554 402.411C234.554 402.482 234.538 402.553 234.507 402.619C234.477 402.684 234.433 402.744 234.377 402.794C234.321 402.844 234.254 402.884 234.182 402.911C234.109 402.938 234.031 402.951 233.952 402.951C233.873 402.951 233.795 402.936 233.723 402.909C232.816 402.528 231.819 402.355 230.821 402.406C229.823 402.456 228.853 402.729 227.999 403.199C227.9 403.243 227.788 403.261 227.679 403.249Z" fill="#EBEBEB"/>
<path d="M228.629 406.951C228.536 406.95 228.445 406.93 228.362 406.892C228.28 406.854 228.208 406.799 228.154 406.731C228.067 406.616 228.034 406.476 228.061 406.339C228.088 406.203 228.173 406.081 228.297 406.001C229.311 405.42 230.47 405.08 231.666 405.01C232.863 404.94 234.06 405.143 235.148 405.6C235.289 405.659 235.398 405.765 235.454 405.896C235.509 406.027 235.507 406.172 235.447 406.301C235.382 406.428 235.264 406.526 235.119 406.575C234.974 406.624 234.814 406.619 234.673 406.561C233.768 406.178 232.773 406.005 231.776 406.055C230.779 406.106 229.812 406.379 228.96 406.851C228.866 406.918 228.749 406.954 228.629 406.951Z" fill="#EBEBEB"/>
<path d="M230.12 410.603C230.027 410.605 229.935 410.586 229.852 410.547C229.769 410.509 229.698 410.453 229.645 410.383C229.559 410.269 229.526 410.128 229.553 409.991C229.579 409.855 229.664 409.733 229.789 409.653C230.804 409.075 231.963 408.737 233.16 408.669C234.356 408.6 235.553 408.805 236.64 409.263C236.71 409.29 236.773 409.329 236.826 409.379C236.879 409.428 236.921 409.487 236.949 409.551C236.976 409.615 236.99 409.684 236.988 409.753C236.986 409.822 236.969 409.89 236.938 409.953C236.873 410.078 236.758 410.175 236.616 410.225C236.475 410.275 236.317 410.275 236.176 410.223C235.269 409.843 234.272 409.671 233.274 409.721C232.276 409.772 231.307 410.044 230.452 410.513C230.354 410.573 230.238 410.604 230.12 410.603Z" fill="#EBEBEB"/>
<path d="M258.906 392.082C260.05 392.778 261.407 393.128 262.784 393.083C262.784 393.083 262.133 390.772 264.022 389.991C265.912 389.211 268.928 388.18 269.547 389.111C269.984 390.175 270.222 391.298 270.254 392.433C270.254 392.433 274.752 396.125 278.089 397.165C281.426 398.206 285.824 399.267 285.404 402.058C284.984 404.85 280.012 408.892 273.249 406.111C266.486 403.329 265.271 403.229 263.105 402.929C260.939 402.629 256.906 402.789 257.072 399.517C257.237 396.245 256.928 390.832 258.729 390.391L258.906 392.082Z" fill="#455A64"/>
<path d="M266.652 397.085C266.586 397.095 266.519 397.095 266.453 397.085C266.309 397.038 266.191 396.941 266.125 396.816C266.059 396.69 266.05 396.546 266.1 396.415C266.543 395.476 267.257 394.662 268.167 394.059C269.077 393.455 270.149 393.083 271.271 392.983C271.397 392.998 271.515 393.051 271.604 393.133C271.694 393.215 271.75 393.322 271.766 393.437C271.781 393.551 271.753 393.667 271.688 393.766C271.622 393.865 271.522 393.942 271.404 393.984C270.496 394.063 269.627 394.36 268.888 394.844C268.148 395.327 267.563 395.98 267.194 396.735C267.152 396.836 267.078 396.923 266.982 396.985C266.885 397.047 266.771 397.082 266.652 397.085Z" fill="#EBEBEB"/>
<path d="M270.1 399.147H269.912C269.84 399.125 269.773 399.091 269.716 399.046C269.659 399.001 269.613 398.946 269.58 398.884C269.547 398.823 269.528 398.756 269.524 398.687C269.521 398.619 269.532 398.551 269.558 398.486C269.963 397.549 270.645 396.73 271.53 396.121C272.415 395.512 273.469 395.136 274.575 395.034C274.702 395.048 274.82 395.099 274.911 395.181C275.002 395.262 275.061 395.369 275.077 395.484C275.094 395.599 275.067 395.715 275.002 395.815C274.937 395.915 274.837 395.992 274.718 396.035C273.832 396.121 272.987 396.42 272.271 396.902C271.556 397.385 270.997 398.032 270.652 398.776C270.615 398.883 270.541 398.976 270.442 399.043C270.343 399.109 270.223 399.145 270.1 399.147Z" fill="#EBEBEB"/>
<path d="M274.453 400.778H274.321C274.171 400.751 274.038 400.672 273.951 400.558C273.865 400.444 273.831 400.304 273.857 400.167C274.066 399.186 274.663 398.307 275.535 397.694C276.407 397.081 277.495 396.776 278.597 396.835C278.751 396.84 278.896 396.9 279.001 397.001C279.106 397.102 279.164 397.237 279.161 397.376C279.161 397.445 279.145 397.514 279.115 397.578C279.084 397.642 279.04 397.7 278.984 397.747C278.928 397.795 278.862 397.832 278.79 397.856C278.718 397.88 278.641 397.89 278.564 397.886C277.741 397.841 276.927 398.066 276.272 398.52C275.616 398.974 275.163 399.626 274.995 400.357C274.968 400.472 274.901 400.575 274.803 400.651C274.705 400.727 274.582 400.771 274.453 400.778Z" fill="#EBEBEB"/>
<path d="M351.13 72.9949L341.726 77.8377V74.8359C341.726 74.6158 341.726 74.4057 341.726 74.1956C341.726 73.9854 341.726 73.7853 341.726 73.5852V73.5152C341.384 69.5128 338.047 67.9919 333.991 70.1232C332.147 71.139 330.567 72.5044 329.361 74.1255C328.466 68.7524 323.56 66.7512 317.659 69.843C311.095 73.275 305.78 81.6099 305.78 88.4639V94.9177C305.781 95.4283 305.633 95.9301 305.352 96.3727C305.071 96.8152 304.666 97.183 304.178 97.4392L298.653 100.381C297.454 101.016 296.459 101.925 295.769 103.017C295.078 104.109 294.717 105.346 294.719 106.605C294.73 107.122 294.888 107.628 295.178 108.073C295.469 108.519 295.881 108.889 296.376 109.148C296.871 109.407 297.431 109.545 298.002 109.55C298.573 109.555 299.136 109.426 299.637 109.176L350.986 82.3203C352.344 81.6092 353.473 80.5884 354.26 79.3596C355.047 78.1308 355.465 76.7368 355.473 75.3162C355.479 74.8529 355.35 74.3962 355.1 73.9923C354.849 73.5885 354.485 73.2517 354.044 73.0162C353.603 72.7806 353.102 72.6546 352.59 72.6509C352.078 72.6471 351.575 72.7658 351.13 72.9949Z" fill="#D5D5F6"/>
<path d="M265.846 83.0007L258.851 86.5828V84.3515C258.851 84.1914 258.851 84.0313 258.851 83.8813C258.851 83.7312 258.851 83.5711 258.851 83.431C258.597 80.4292 256.133 79.3486 253.116 80.9195C251.75 81.6837 250.585 82.708 249.701 83.9213C249.016 79.9189 245.403 78.4681 241.038 80.7494C238.471 82.2539 236.332 84.2859 234.796 86.6801C233.26 89.0743 232.37 91.763 232.198 94.5275V99.3003C232.198 99.6771 232.089 100.047 231.882 100.374C231.674 100.701 231.376 100.972 231.016 101.161L226.927 103.333C226.039 103.805 225.303 104.479 224.792 105.288C224.28 106.097 224.011 107.013 224.01 107.945C224.011 108.331 224.124 108.71 224.338 109.044C224.552 109.378 224.859 109.655 225.228 109.848C225.597 110.04 226.016 110.142 226.442 110.141C226.869 110.141 227.287 110.039 227.657 109.847L265.647 89.9748C266.655 89.4476 267.493 88.6891 268.074 87.7757C268.656 86.8623 268.962 85.8263 268.962 84.7718C268.952 84.4423 268.852 84.12 268.672 83.8337C268.491 83.5474 268.236 83.3059 267.927 83.1307C267.619 82.9554 267.268 82.8519 266.904 82.8292C266.541 82.8065 266.178 82.8655 265.846 83.0007Z" fill="#D5D5F6"/>
<path d="M760.655 78.5313C757.169 78.5313 755.744 76.0607 757.477 73.0303C758.479 71.2739 757.882 69.0349 756.13 68.0313L752.798 66.1204C751.277 65.2132 749.313 65.7537 748.408 67.2785L748.196 67.6452C746.463 70.6756 743.614 70.6756 741.861 67.6452L741.649 67.2785C740.783 65.7537 738.819 65.2132 737.298 66.1204L733.967 68.0313C732.214 69.0349 731.617 71.2932 732.619 73.0496C734.371 76.0607 732.946 78.5313 729.461 78.5313C727.458 78.5313 725.802 80.1719 725.802 82.1985V85.5956C725.802 87.6029 727.439 89.2629 729.461 89.2629C732.946 89.2629 734.371 91.7335 732.619 94.7638C731.617 96.5202 732.214 98.7592 733.967 99.7629L737.298 101.674C738.819 102.581 740.783 102.04 741.688 100.516L741.9 100.149C743.633 97.1186 746.483 97.1186 748.235 100.149L748.447 100.516C749.352 102.04 751.316 102.581 752.837 101.674L756.168 99.7629C757.92 98.7592 758.517 96.5009 757.516 94.7638C755.764 91.7335 757.189 89.2629 760.674 89.2629C762.676 89.2629 764.332 87.6222 764.332 85.5956V82.1985C764.313 80.1912 762.676 78.5313 760.655 78.5313ZM745.058 90.17C741.611 90.17 738.8 87.352 738.8 83.8971C738.8 80.4421 741.611 77.6241 745.058 77.6241C748.504 77.6241 751.316 80.4421 751.316 83.8971C751.316 87.352 748.504 90.17 745.058 90.17Z" fill="white" fill-opacity="0.72"/>
<path d="M784.275 337.943C780.79 337.943 779.365 335.472 781.098 332.442C782.099 330.686 781.502 328.447 779.75 327.443L776.419 325.532C774.897 324.625 772.933 325.165 772.028 326.69L771.816 327.057C770.083 330.087 767.234 330.087 765.481 327.057L765.27 326.69C764.403 325.165 762.439 324.625 760.918 325.532L757.587 327.443C755.834 328.447 755.238 330.705 756.239 332.461C757.991 335.472 756.566 337.943 753.081 337.943C751.078 337.943 749.422 339.584 749.422 341.61V345.007C749.422 347.015 751.059 348.675 753.081 348.675C756.566 348.675 757.991 351.145 756.239 354.176C755.238 355.932 755.834 358.171 757.587 359.175L760.918 361.085C762.439 361.993 764.403 361.452 765.308 359.927L765.52 359.561C767.253 356.53 770.103 356.53 771.855 359.561L772.067 359.927C772.972 361.452 774.936 361.993 776.457 361.085L779.788 359.175C781.54 358.171 782.137 355.913 781.136 354.176C779.384 351.145 780.809 348.675 784.294 348.675C786.297 348.675 787.953 347.034 787.953 345.007V341.61C787.933 339.603 786.297 337.943 784.275 337.943ZM768.678 349.582C765.231 349.582 762.42 346.764 762.42 343.309C762.42 339.854 765.231 337.036 768.678 337.036C772.125 337.036 774.936 339.854 774.936 343.309C774.936 346.764 772.125 349.582 768.678 349.582Z" fill="white" fill-opacity="0.72"/>
<path d="M104.429 424.414C100.944 424.414 99.5187 421.943 101.252 418.913C102.253 417.156 101.656 414.917 99.9038 413.914L96.5726 412.003C95.0514 411.096 93.0873 411.636 92.1823 413.161L91.9705 413.528C90.2375 416.558 87.3877 416.558 85.6355 413.528L85.4237 413.161C84.5572 411.636 82.5931 411.096 81.0719 412.003L77.7407 413.914C75.9885 414.917 75.3916 417.176 76.3928 418.932C78.1451 421.943 76.7202 424.414 73.235 424.414C71.2324 424.414 69.5764 426.054 69.5764 428.081V431.478C69.5764 433.485 71.2131 435.145 73.235 435.145C76.7202 435.145 78.1451 437.616 76.3928 440.646C75.3916 442.403 75.9885 444.642 77.7407 445.645L81.0719 447.556C82.5931 448.463 84.5572 447.923 85.4622 446.398L85.674 446.031C87.407 443.001 90.2568 443.001 92.009 446.031L92.2208 446.398C93.1258 447.923 95.0899 448.463 96.6111 447.556L99.9423 445.645C101.695 444.642 102.291 442.383 101.29 440.646C99.5379 437.616 100.963 435.145 104.448 435.145C106.451 435.145 108.107 433.505 108.107 431.478V428.081C108.087 426.074 106.451 424.414 104.429 424.414ZM88.8319 436.052C85.3851 436.052 82.5738 433.234 82.5738 429.779C82.5738 426.324 85.3851 423.506 88.8319 423.506C92.2786 423.506 95.0899 426.324 95.0899 429.779C95.0899 433.234 92.2786 436.052 88.8319 436.052Z" fill="white" fill-opacity="0.72"/>
<path d="M188.639 44.5607C185.154 44.5607 183.729 42.0901 185.462 39.0597C186.463 37.3033 185.866 35.0643 184.114 34.0607L180.783 32.1498C179.262 31.2426 177.298 31.7831 176.393 33.3079L176.181 33.6746C174.448 36.705 171.598 36.705 169.846 33.6746L169.634 33.3079C168.768 31.7831 166.804 31.2426 165.282 32.1498L161.951 34.0607C160.199 35.0643 159.602 37.3226 160.603 39.079C162.356 42.0901 160.931 44.5607 157.445 44.5607C155.443 44.5607 153.787 46.2013 153.787 48.2279V51.625C153.787 53.6324 155.424 55.2923 157.445 55.2923C160.931 55.2923 162.356 57.7629 160.603 60.7932C159.602 62.5496 160.199 64.7886 161.951 65.7923L165.282 67.7031C166.804 68.6103 168.768 68.0699 169.673 66.545L169.884 66.1783C171.617 63.148 174.467 63.148 176.219 66.1783L176.431 66.545C177.336 68.0699 179.3 68.6103 180.822 67.7031L184.153 65.7923C185.905 64.7886 186.502 62.5303 185.501 60.7932C183.748 57.7629 185.173 55.2923 188.658 55.2923C190.661 55.2923 192.317 53.6517 192.317 51.625V48.2279C192.298 46.2206 190.661 44.5607 188.639 44.5607ZM173.042 56.1994C169.596 56.1994 166.784 53.3814 166.784 49.9265C166.784 46.4715 169.596 43.6535 173.042 43.6535C176.489 43.6535 179.3 46.4715 179.3 49.9265C179.3 53.3814 176.489 56.1994 173.042 56.1994Z" fill="white" fill-opacity="0.72"/>
<path d="M219.705 55.1808C217.768 55.1808 216.977 53.8082 217.94 52.1247C218.496 51.1489 218.164 49.905 217.191 49.3474L215.34 48.2858C214.495 47.7819 213.404 48.0821 212.901 48.9292L212.783 49.133C211.821 50.8165 210.237 50.8165 209.264 49.133L209.146 48.9292C208.665 48.0821 207.574 47.7819 206.729 48.2858L204.878 49.3474C203.905 49.905 203.573 51.1596 204.129 52.1354C205.103 53.8082 204.311 55.1808 202.375 55.1808C201.262 55.1808 200.342 56.0922 200.342 57.2181V59.1054C200.342 60.2206 201.252 61.1428 202.375 61.1428C204.311 61.1428 205.103 62.5153 204.129 64.1988C203.573 65.1746 203.905 66.4185 204.878 66.9761L206.729 68.0377C207.574 68.5417 208.665 68.2414 209.168 67.3943L209.285 67.1906C210.248 65.507 211.831 65.507 212.805 67.1906L212.923 67.3943C213.425 68.2414 214.516 68.5417 215.362 68.0377L217.212 66.9761C218.186 66.4185 218.517 65.1639 217.961 64.1988C216.988 62.5153 217.779 61.1428 219.715 61.1428C220.828 61.1428 221.748 60.2313 221.748 59.1054V57.2181C221.737 56.1029 220.828 55.1808 219.705 55.1808ZM211.04 61.6467C209.125 61.6467 207.563 60.0812 207.563 58.1618C207.563 56.2423 209.125 54.6768 211.04 54.6768C212.955 54.6768 214.516 56.2423 214.516 58.1618C214.516 60.0812 212.955 61.6467 211.04 61.6467Z" fill="white" fill-opacity="0.72"/>
<path d="M323.427 343.416C321.491 343.416 320.7 342.044 321.662 340.36C322.219 339.384 321.887 338.14 320.913 337.583L319.063 336.521C318.218 336.017 317.127 336.317 316.624 337.165L316.506 337.368C315.543 339.052 313.96 339.052 312.987 337.368L312.869 337.165C312.388 336.317 311.296 336.017 310.451 336.521L308.601 337.583C307.627 338.14 307.296 339.395 307.852 340.371C308.825 342.044 308.034 343.416 306.097 343.416C304.985 343.416 304.065 344.328 304.065 345.453V347.341C304.065 348.456 304.974 349.378 306.097 349.378C308.034 349.378 308.825 350.751 307.852 352.434C307.296 353.41 307.627 354.654 308.601 355.211L310.451 356.273C311.296 356.777 312.388 356.477 312.89 355.63L313.008 355.426C313.971 353.742 315.554 353.742 316.528 355.426L316.645 355.63C317.148 356.477 318.239 356.777 319.084 356.273L320.935 355.211C321.908 354.654 322.24 353.399 321.684 352.434C320.71 350.751 321.502 349.378 323.438 349.378C324.551 349.378 325.471 348.467 325.471 347.341V345.453C325.46 344.338 324.551 343.416 323.427 343.416ZM314.762 349.882C312.848 349.882 311.286 348.316 311.286 346.397C311.286 344.478 312.848 342.912 314.762 342.912C316.677 342.912 318.239 344.478 318.239 346.397C318.239 348.316 316.677 349.882 314.762 349.882Z" fill="white" fill-opacity="0.72"/>
<ellipse cx="4.10783" cy="422.059" rx="4.10783" ry="4.11765" fill="#7474E2"/>
<ellipse cx="244.416" cy="541.471" rx="4.10783" ry="4.11765" fill="#7474E2"/>
<ellipse cx="315.276" cy="203.824" rx="5.13479" ry="5.14706" fill="#7474E2"/>
<ellipse cx="116.046" cy="4.11765" rx="4.10783" ry="4.11765" fill="#7474E2"/>
<ellipse cx="391.271" cy="75.1471" rx="4.10783" ry="4.11765" fill="#7474E2"/>
<ellipse cx="584.339" cy="12.3529" rx="4.10783" ry="4.11765" fill="#7474E2"/>
<ellipse cx="795.892" cy="292.353" rx="4.10783" ry="4.11765" fill="#7474E2"/>
<ellipse cx="547.368" cy="494.118" rx="4.10783" ry="4.11765" fill="#7474E2"/>
<ellipse cx="768.164" cy="447.794" rx="5.13479" ry="5.14706" fill="#7474E2"/>
<ellipse cx="697.304" cy="193.529" rx="5.13479" ry="5.14706" fill="#7474E2"/>
</svg>
