<svg width="144" height="42" viewBox="0 0 144 42" fill="none" xmlns="http://www.w3.org/2000/svg">
<g clip-path="url(#clip0_2023_1601)">
<path d="M27.9749 2.84799C26.5924 2.98869 25.1713 3.42969 23.5029 4.23399C21.5055 5.19789 19.7468 6.39069 17.9881 7.97619C15.4103 10.3009 13.0324 13.5181 11.2371 17.1049C10.3965 18.7828 9.53219 20.8849 9.14089 22.1995C8.82914 23.2537 8.62704 24.31 8.51739 25.4755C8.47009 25.9648 8.45289 27.1366 8.48299 27.628C8.59264 29.3542 8.96029 30.8032 9.61389 32.0863C10.0654 32.9725 10.5556 33.6487 11.2156 34.2955C11.9402 35.0053 12.6174 35.461 13.8709 36.0805C14.9179 36.5971 16.1241 37.0801 18.0741 37.7605C20.2521 38.5207 22.1978 38.9596 24.2016 39.1402C24.8015 39.1948 26.5107 39.1948 27.0719 39.1402C27.8459 39.0646 28.4866 38.9596 29.1617 38.7979C30.7204 38.4262 32.0986 37.7101 33.0618 36.7735C33.767 36.0868 34.1884 35.3938 34.3905 34.5895C34.5023 34.1338 34.5302 33.8839 34.5302 33.2875C34.5302 32.7352 34.5066 32.4664 34.412 31.9246C34.0959 30.1438 33.0575 27.6952 31.7481 25.6519C29.7443 22.5208 26.8891 19.8664 23.6534 18.1255C23.4878 18.0352 23.505 18.052 23.8791 18.325C25.1197 19.2301 26.3495 20.3851 27.3707 21.6094C27.8437 22.1764 28.6586 23.2999 28.8994 23.722C28.9746 23.8522 28.9617 23.8396 28.736 23.5645C28.1426 22.8358 27.2632 21.8278 26.7601 21.2965C24.2984 18.6988 21.9979 17.4766 19.4179 17.3968C17.9602 17.3527 16.6315 17.7328 15.6403 18.4741C15.5737 18.5245 15.5092 18.5665 15.4984 18.5665C15.4726 18.5665 15.3501 18.2641 15.3006 18.073C15.2297 17.7979 15.2082 17.5921 15.2211 17.2477C15.2512 16.3636 15.6145 15.4207 16.3412 14.3455C17.356 12.8461 18.7578 11.4706 20.2994 10.4668C21.7528 9.51759 23.3395 8.85819 24.9348 8.54109C26.6827 8.19459 28.3296 8.23449 30.3463 8.67759C32.0857 9.05769 33.2445 9.50499 34.0916 10.1224C34.326 10.2925 34.7409 10.6936 34.9065 10.912C35.0785 11.1388 35.1279 11.2123 35.3709 11.6365C35.6869 12.1825 35.8589 12.4093 36.1105 12.6067C36.5448 12.949 36.9855 13.0246 37.3962 12.8314C37.551 12.7579 37.8068 12.4954 37.9036 12.3148C38.3271 11.5168 37.9466 10.5235 36.7813 9.38949C35.229 7.87959 32.9134 6.97029 30.1614 6.78549C29.7379 6.75819 28.7403 6.75819 28.2974 6.78549C26.6784 6.88839 25.0401 7.24959 23.4921 7.84599C19.7877 9.26979 16.7347 11.8864 14.6621 15.4123C14.46 15.7546 14.0644 16.5001 13.8838 16.876L13.7935 17.065L13.8064 16.9495C13.8343 16.708 13.9504 16.0444 14.0128 15.7735C14.819 12.3253 17.1776 9.24879 20.5144 7.29579C22.8665 5.91819 25.7862 5.07399 28.7381 4.91649C29.811 4.85979 29.8948 4.85349 30.0582 4.81149C30.3657 4.73589 30.5721 4.58469 30.6882 4.35369C30.7419 4.24869 30.7484 4.21089 30.7484 4.03449C30.7484 3.78879 30.7054 3.64599 30.5635 3.43389C30.3592 3.12939 29.9873 2.92989 29.4691 2.84799C29.2176 2.81019 28.3576 2.80809 27.9749 2.84799ZM19.8371 20.971C21.2411 21.1768 22.5719 21.8446 23.9544 23.0374C24.6424 23.6296 26.214 25.2235 26.8784 26.0005C27.6481 26.9035 28.091 27.607 28.2802 28.2265C28.3468 28.447 28.3683 28.7788 28.3296 28.9426C28.1985 29.4823 27.6223 29.8225 26.9214 29.77C26.4226 29.7343 25.9173 29.6125 24.8896 29.287C24.694 29.224 24.2446 29.0938 23.8899 28.9951C21.6625 28.3819 19.8135 27.6994 18.7492 27.103C17.7086 26.5171 16.8981 25.7107 16.4853 24.8434C15.9349 23.6905 16.0359 22.4473 16.7368 21.7459C17.1754 21.307 17.8419 21.0277 18.6546 20.9395C18.904 20.9143 19.5619 20.9311 19.8371 20.971Z" fill="#7474E2"/>
<path d="M8.83984 19.0054C8.77749 19.0306 8.36039 19.4611 8.08519 19.7803C6.45764 21.6808 5.42779 23.9572 5.05584 26.494C4.94619 27.2437 4.92684 27.5251 4.92899 28.468C4.92899 29.3899 4.94834 29.6965 5.04724 30.379C5.25149 31.7944 5.69439 33.2161 6.29209 34.3795C6.98654 35.7298 8.20774 36.8365 9.96859 37.7059C11.2822 38.3569 12.9399 38.8777 14.2428 39.052C14.533 39.0898 14.7201 39.0919 14.7953 39.0583C14.8254 39.0457 14.8706 39.0016 14.8942 38.9638C14.9523 38.8714 14.9437 38.6845 14.877 38.6194C14.8534 38.5963 14.5266 38.4283 14.1482 38.2456C12.2626 37.3363 11.0178 36.5194 9.92774 35.482C9.35799 34.9381 8.96884 34.4845 8.56034 33.886C7.66809 32.5798 7.15854 31.1833 6.96504 29.518C6.91129 29.0623 6.91129 27.8401 6.96504 27.292C7.17144 25.1689 7.64229 23.239 8.40339 21.391C8.47434 21.2167 8.65924 20.8219 8.81189 20.5132C9.35154 19.4254 9.40529 19.1818 9.14729 19.0285C9.07419 18.9844 8.92154 18.9739 8.83984 19.0054Z" fill="#7474E2"/>
</g>
<path d="M48.26 16.528V13.42H59.74V16.528H55.736V34H52.264V16.528H48.26Z" fill="#7474E2"/>
<path d="M63.1 34V30.892H66.46V22.268H63.492V19.16H69.932V30.892H72.9V34H63.1ZM66.068 16.052C65.8627 15.716 65.76 15.3053 65.76 14.82C65.76 14.3347 65.8627 13.924 66.068 13.588C66.236 13.2893 66.4693 13.056 66.768 12.888C67.104 12.6827 67.5147 12.58 68 12.58C68.4853 12.58 68.896 12.6827 69.232 12.888C69.5307 13.056 69.764 13.2893 69.932 13.588C70.1373 13.924 70.24 14.3347 70.24 14.82C70.24 15.3053 70.1373 15.716 69.932 16.052C69.764 16.3507 69.5307 16.584 69.232 16.752C68.896 16.9573 68.4853 17.06 68 17.06C67.5147 17.06 67.104 16.9573 66.768 16.752C66.4693 16.584 66.236 16.3507 66.068 16.052Z" fill="#7474E2"/>
<path d="M76.26 34V19.16H79.704V20.98C80.1147 20.2893 80.628 19.776 81.244 19.44C81.804 19.104 82.4573 18.936 83.204 18.936C83.9693 18.936 84.632 19.104 85.192 19.44C85.8267 19.8133 86.3587 20.3547 86.788 21.064C87.4227 22.1653 87.74 23.584 87.74 25.32V34H84.296V25.32C84.296 24.424 84.128 23.696 83.792 23.136C83.568 22.7627 83.2973 22.4827 82.98 22.296C82.7 22.128 82.3733 22.044 82 22.044C81.6267 22.044 81.3 22.128 81.02 22.296C80.7027 22.4827 80.432 22.7627 80.208 23.136C79.872 23.696 79.704 24.424 79.704 25.32V34H76.26Z" fill="#7474E2"/>
<path d="M90.26 20.196V19.16H93.704V20.196C93.704 21.26 93.9653 22.604 94.488 24.228L95.944 28.82L97.512 24.228C98.0347 22.716 98.296 21.372 98.296 20.196V19.16H101.74V20.196C101.74 21.6893 101.423 23.3693 100.788 25.236L96.504 37.724C96.392 38.0787 96.336 38.6853 96.336 39.544V39.74H92.864V39.544C92.864 38.368 92.9853 37.4253 93.228 36.716L94.292 33.608L91.212 25.236C90.5773 23.5 90.26 21.82 90.26 20.196Z" fill="#7474E2"/>
<path d="M104.26 18.572V13.42H107.704V18.572C107.704 20.756 107.76 23.9293 107.872 28.092L109.16 21.652H110.84L112.128 28.092C112.24 23.9107 112.296 20.7373 112.296 18.572V13.42H115.74V18.572C115.74 21.6893 114.919 26.832 113.276 34H111.624L110 25.88L108.376 34H106.724C105.081 26.832 104.26 21.6893 104.26 18.572Z" fill="#7474E2"/>
<path d="M118.904 34V13.42H129.74V16.528H122.348V21.344H128.032V24.452H122.348V30.892H129.74V34H118.904Z" fill="#7474E2"/>
<path d="M132.26 34V13.42H137.972C139.073 13.42 140.025 13.6533 140.828 14.12C141.556 14.5307 142.135 15.1187 142.564 15.884C143.087 16.78 143.348 17.844 143.348 19.076C143.348 20.1027 143.133 20.98 142.704 21.708C142.349 22.324 141.864 22.828 141.248 23.22C142.144 23.668 142.825 24.312 143.292 25.152C143.74 25.9173 143.964 26.8413 143.964 27.924C143.964 29.212 143.693 30.332 143.152 31.284C142.685 32.1053 142.041 32.7493 141.22 33.216C140.305 33.7387 139.223 34 137.972 34H132.26ZM135.704 30.892H137.972C138.924 30.892 139.633 30.5 140.1 29.716C140.38 29.2307 140.52 28.624 140.52 27.896C140.52 27.168 140.371 26.552 140.072 26.048C139.605 25.264 138.905 24.8627 137.972 24.844H135.704V30.892ZM135.704 21.736H137.972C138.289 21.736 138.579 21.6707 138.84 21.54C139.101 21.3907 139.316 21.1573 139.484 20.84C139.745 20.392 139.876 19.8227 139.876 19.132C139.876 18.46 139.745 17.8907 139.484 17.424C139.316 17.1253 139.101 16.9013 138.84 16.752C138.579 16.6027 138.289 16.528 137.972 16.528H135.704V21.736Z" fill="#7474E2"/>
<defs>
<clipPath id="clip0_2023_1601">
<rect width="43" height="42" fill="white"/>
</clipPath>
</defs>
</svg>
