<svg width="18" height="18" viewBox="0 0 18 18" fill="none" xmlns="http://www.w3.org/2000/svg">
<path fill-rule="evenodd" clip-rule="evenodd" d="M1.125 4.5H16.875C17.4937 4.5 18 3.99375 18 3.375C18 2.75625 17.4937 2.25 16.875 2.25H1.125C0.50625 2.25 0 2.75625 0 3.375C0 3.99375 0.50625 4.5 1.125 4.5ZM16.875 13.5H1.125C0.50625 13.5 0 14.0063 0 14.625C0 15.2437 0.50625 15.75 1.125 15.75H16.875C17.4937 15.75 18 15.2437 18 14.625C18 14.0063 17.4937 13.5 16.875 13.5ZM16.875 7.875H1.125C0.50625 7.875 0 8.38125 0 9C0 9.61875 0.50625 10.125 1.125 10.125H16.875C17.4937 10.125 18 9.61875 18 9C18 8.38125 17.4937 7.875 16.875 7.875Z" fill="#7474E2"/>
</svg>
