<svg width="106" height="47" viewBox="0 0 106 47" fill="none" xmlns="http://www.w3.org/2000/svg">
<path fill-rule="evenodd" clip-rule="evenodd" d="M20.8092 1.09316L20.8121 1.09109C24.8661 1.08421 28.9209 1.09109 32.9751 1.09109L42.3151 25.7632C42.5162 25.3644 42.7657 24.9855 43.0641 24.6339C43.3436 24.3048 43.6656 23.9994 44.0301 23.7235L49.1491 19.8519C49.1534 19.8487 49.1576 19.8457 49.1618 19.8425C49.1682 19.8377 49.1746 19.833 49.1808 19.8284C49.2121 19.8051 49.2435 19.7821 49.2752 19.7593C49.2786 19.7568 49.2819 19.7543 49.2854 19.7518C50.0886 19.1771 51.0871 18.7413 52.2803 18.5026C52.9483 18.3691 53.6773 18.2972 54.4671 18.2972C56.8136 18.2972 58.6511 18.9184 59.9689 19.8968C61.4618 21.0055 62.2874 22.5727 62.4303 24.2159C62.5546 25.5139 62.3029 26.8309 61.5164 28.0919C61.0593 28.8246 60.4215 29.5382 59.5722 30.2182L59.569 30.2207C59.5336 30.249 59.4977 30.2773 59.4615 30.3055C59.4536 30.3117 59.4458 30.3178 59.4379 30.3239C59.4025 30.3514 59.3668 30.3788 59.3307 30.4062C59.3275 30.4086 59.3243 30.411 59.3211 30.4134L58.1239 31.319C58.4839 31.695 59.0728 32.3141 59.7026 32.9762L71.6795 4.8747L76.7985 1.00313C80.8524 1.00313 84.9068 0.996084 88.9606 1.00313C94.2034 14.8159 99.4276 28.637 104.654 42.4563L99.5346 46.3279H87.3493L85.2205 40.7101H73.9515L73.2898 42.4563L68.1708 46.3279H63.372L55.8302 46.3305L55.8217 46.322C55.6577 46.1579 55.4609 45.9612 55.2273 45.7234C55.0054 45.4972 54.7592 45.2429 54.4972 44.9648C53.2844 45.5961 51.9796 46.1255 50.6024 46.4862C49.3572 46.8121 48.0527 47 46.7034 47C45.8955 47 45.1471 46.9489 44.4553 46.8534C43.7319 46.7536 43.0707 46.6051 42.4685 46.416H31.3638L29.2349 40.7981H17.9658L17.3042 42.5443L12.1851 46.416H0C5.22589 32.5967 10.4502 18.7756 15.693 4.96282L20.8092 1.09316ZM23.6152 25.9494L23.0626 27.4062H24.1594L23.6152 25.9494ZM79.6008 25.8614L79.0482 27.3181H80.1449L79.6008 25.8614Z" fill="#F8F8F8"/>
<path d="M36.5038 42.5147H47.5924C48.7691 42.8848 50.1706 43.0989 51.8232 43.0989C54.6688 43.0989 57.3135 42.2619 59.6233 41.0568C60.1589 41.6259 60.6275 42.0945 60.9624 42.4293L68.4918 42.4268H73.2704L75.3993 36.8088H90.3605L92.4893 42.4268H104.612L88.9413 1.03223H76.8185L62.1101 35.5428C61.2399 34.639 58.8198 32.085 58.0163 31.2482C61.5315 29.1727 62.6361 26.662 62.4019 24.2182C62.134 21.1384 59.4559 18.3263 54.4679 18.3263C48.7434 18.3263 46.2327 22.1091 46.9692 25.7915C47.2036 26.9297 47.7392 28.0345 48.576 29.0387C47.066 29.6588 45.6015 30.4826 44.4793 31.5604L32.9557 1.12019H20.833L5.16211 42.5147H17.2849L19.4137 36.8969H34.3749L36.5038 42.5147ZM79.0066 27.3474L82.9096 17.0577L86.7533 27.3474H79.0066ZM53.0619 25.6576C51.5555 23.9168 53.1958 22.3435 54.5684 22.3435C55.9744 22.3435 56.7108 23.147 56.7108 24.3186C56.7108 25.2559 56.1082 26.4945 54.5014 27.298C53.8318 26.5615 53.3297 25.9924 53.0619 25.6576ZM49.279 36.6714C48.7099 35.1649 51.1202 34.0267 52.5932 33.5246C53.6309 34.6627 54.7023 35.8344 55.7065 36.9058C54.5349 37.4079 53.1958 37.7425 51.8902 37.7425C50.6516 37.7425 49.5804 37.4414 49.279 36.6714ZM23.0209 27.4353L26.9239 17.1458L30.7676 27.4353H23.0209Z" fill="#F8F8F8" stroke="#0F0F0F" stroke-miterlimit="22.9256"/>
</svg>
