<svg width="640" height="2268" viewBox="0 0 640 2268" fill="none" xmlns="http://www.w3.org/2000/svg">
<circle cx="180" cy="349" r="65" fill="#EAEAF7"/>
<circle cx="195" cy="1605" r="65" fill="#EAEAF7"/>
<circle cx="534" cy="1285" r="64" stroke="#EAEAF7" stroke-width="2"/>
<circle cx="510" cy="1256" r="64" stroke="#D7D7FC" stroke-width="2"/>
<circle cx="134" cy="2050" r="20" fill="#D9D8F7"/>
<circle cx="140" cy="974" r="19.5" stroke="#D9D8F7"/>
<circle cx="135" cy="960" r="19.5" stroke="#C3C1F9"/>
<path d="M148.258 1.27941C148.258 1.98601 147.529 2.55882 146.629 2.55882C145.729 2.55882 145 1.98601 145 1.27941C145 0.572812 145.729 0 146.629 0C147.529 0 148.258 0.572812 148.258 1.27941Z" fill="#D3D2F6"/>
<path d="M158.032 1.27941C158.032 1.98601 157.303 2.55882 156.403 2.55882C155.504 2.55882 154.774 1.98601 154.774 1.27941C154.774 0.572812 155.504 0 156.403 0C157.303 0 158.032 0.572812 158.032 1.27941Z" fill="#D3D2F6"/>
<path d="M167.806 1.27941C167.806 1.98601 167.077 2.55882 166.177 2.55882C165.278 2.55882 164.548 1.98601 164.548 1.27941C164.548 0.572812 165.278 0 166.177 0C167.077 0 167.806 0.572812 167.806 1.27941Z" fill="#D3D2F6"/>
<path d="M177.581 1.27941C177.581 1.98601 176.851 2.55882 175.952 2.55882C175.052 2.55882 174.323 1.98601 174.323 1.27941C174.323 0.572812 175.052 0 175.952 0C176.851 0 177.581 0.572812 177.581 1.27941Z" fill="#D3D2F6"/>
<path d="M187.355 1.27941C187.355 1.98601 186.625 2.55882 185.726 2.55882C184.826 2.55882 184.097 1.98601 184.097 1.27941C184.097 0.572812 184.826 0 185.726 0C186.625 0 187.355 0.572812 187.355 1.27941Z" fill="#D3D2F6"/>
<path d="M197.129 1.27941C197.129 1.98601 196.4 2.55882 195.5 2.55882C194.6 2.55882 193.871 1.98601 193.871 1.27941C193.871 0.572812 194.6 0 195.5 0C196.4 0 197.129 0.572812 197.129 1.27941Z" fill="#D3D2F6"/>
<path d="M206.903 1.27941C206.903 1.98601 206.174 2.55882 205.274 2.55882C204.375 2.55882 203.645 1.98601 203.645 1.27941C203.645 0.572812 204.375 0 205.274 0C206.174 0 206.903 0.572812 206.903 1.27941Z" fill="#D3D2F6"/>
<path d="M216.677 1.27941C216.677 1.98601 215.948 2.55882 215.048 2.55882C214.149 2.55882 213.419 1.98601 213.419 1.27941C213.419 0.572812 214.149 0 215.048 0C215.948 0 216.677 0.572812 216.677 1.27941Z" fill="#D3D2F6"/>
<path d="M226.452 1.27941C226.452 1.98601 225.722 2.55882 224.823 2.55882C223.923 2.55882 223.194 1.98601 223.194 1.27941C223.194 0.572812 223.923 0 224.823 0C225.722 0 226.452 0.572812 226.452 1.27941Z" fill="#D3D2F6"/>
<path d="M236.226 1.27941C236.226 1.98601 235.496 2.55882 234.597 2.55882C233.697 2.55882 232.968 1.98601 232.968 1.27941C232.968 0.572812 233.697 0 234.597 0C235.496 0 236.226 0.572812 236.226 1.27941Z" fill="#D3D2F6"/>
<path d="M246 1.27941C246 1.98601 245.271 2.55882 244.371 2.55882C243.471 2.55882 242.742 1.98601 242.742 1.27941C242.742 0.572812 243.471 0 244.371 0C245.271 0 246 0.572812 246 1.27941Z" fill="#D3D2F6"/>
<path d="M148.258 8.95588C148.258 9.66248 147.529 10.2353 146.629 10.2353C145.729 10.2353 145 9.66248 145 8.95588C145 8.24928 145.729 7.67647 146.629 7.67647C147.529 7.67647 148.258 8.24928 148.258 8.95588Z" fill="#D3D2F6"/>
<path d="M158.032 8.95588C158.032 9.66248 157.303 10.2353 156.403 10.2353C155.504 10.2353 154.774 9.66248 154.774 8.95588C154.774 8.24928 155.504 7.67647 156.403 7.67647C157.303 7.67647 158.032 8.24928 158.032 8.95588Z" fill="#D3D2F6"/>
<path d="M167.806 8.95588C167.806 9.66248 167.077 10.2353 166.177 10.2353C165.278 10.2353 164.548 9.66248 164.548 8.95588C164.548 8.24928 165.278 7.67647 166.177 7.67647C167.077 7.67647 167.806 8.24928 167.806 8.95588Z" fill="#D3D2F6"/>
<path d="M177.581 8.95588C177.581 9.66248 176.851 10.2353 175.952 10.2353C175.052 10.2353 174.323 9.66248 174.323 8.95588C174.323 8.24928 175.052 7.67647 175.952 7.67647C176.851 7.67647 177.581 8.24928 177.581 8.95588Z" fill="#D3D2F6"/>
<path d="M187.355 8.95588C187.355 9.66248 186.625 10.2353 185.726 10.2353C184.826 10.2353 184.097 9.66248 184.097 8.95588C184.097 8.24928 184.826 7.67647 185.726 7.67647C186.625 7.67647 187.355 8.24928 187.355 8.95588Z" fill="#D3D2F6"/>
<path d="M197.129 8.95588C197.129 9.66248 196.4 10.2353 195.5 10.2353C194.6 10.2353 193.871 9.66248 193.871 8.95588C193.871 8.24928 194.6 7.67647 195.5 7.67647C196.4 7.67647 197.129 8.24928 197.129 8.95588Z" fill="#D3D2F6"/>
<path d="M206.903 8.95588C206.903 9.66248 206.174 10.2353 205.274 10.2353C204.375 10.2353 203.645 9.66248 203.645 8.95588C203.645 8.24928 204.375 7.67647 205.274 7.67647C206.174 7.67647 206.903 8.24928 206.903 8.95588Z" fill="#D3D2F6"/>
<path d="M216.677 8.95588C216.677 9.66248 215.948 10.2353 215.048 10.2353C214.149 10.2353 213.419 9.66248 213.419 8.95588C213.419 8.24928 214.149 7.67647 215.048 7.67647C215.948 7.67647 216.677 8.24928 216.677 8.95588Z" fill="#D3D2F6"/>
<path d="M226.452 8.95588C226.452 9.66248 225.722 10.2353 224.823 10.2353C223.923 10.2353 223.194 9.66248 223.194 8.95588C223.194 8.24928 223.923 7.67647 224.823 7.67647C225.722 7.67647 226.452 8.24928 226.452 8.95588Z" fill="#D3D2F6"/>
<path d="M236.226 8.95588C236.226 9.66248 235.496 10.2353 234.597 10.2353C233.697 10.2353 232.968 9.66248 232.968 8.95588C232.968 8.24928 233.697 7.67647 234.597 7.67647C235.496 7.67647 236.226 8.24928 236.226 8.95588Z" fill="#D3D2F6"/>
<path d="M246 8.95588C246 9.66248 245.271 10.2353 244.371 10.2353C243.471 10.2353 242.742 9.66248 242.742 8.95588C242.742 8.24928 243.471 7.67647 244.371 7.67647C245.271 7.67647 246 8.24928 246 8.95588Z" fill="#D3D2F6"/>
<path d="M148.258 16.6324C148.258 17.339 147.529 17.9118 146.629 17.9118C145.729 17.9118 145 17.339 145 16.6324C145 15.9258 145.729 15.3529 146.629 15.3529C147.529 15.3529 148.258 15.9258 148.258 16.6324Z" fill="#D3D2F6"/>
<path d="M158.032 16.6324C158.032 17.339 157.303 17.9118 156.403 17.9118C155.504 17.9118 154.774 17.339 154.774 16.6324C154.774 15.9258 155.504 15.3529 156.403 15.3529C157.303 15.3529 158.032 15.9258 158.032 16.6324Z" fill="#D3D2F6"/>
<path d="M167.806 16.6324C167.806 17.339 167.077 17.9118 166.177 17.9118C165.278 17.9118 164.548 17.339 164.548 16.6324C164.548 15.9258 165.278 15.3529 166.177 15.3529C167.077 15.3529 167.806 15.9258 167.806 16.6324Z" fill="#D3D2F6"/>
<path d="M177.581 16.6324C177.581 17.339 176.851 17.9118 175.952 17.9118C175.052 17.9118 174.323 17.339 174.323 16.6324C174.323 15.9258 175.052 15.3529 175.952 15.3529C176.851 15.3529 177.581 15.9258 177.581 16.6324Z" fill="#D3D2F6"/>
<path d="M187.355 16.6324C187.355 17.339 186.625 17.9118 185.726 17.9118C184.826 17.9118 184.097 17.339 184.097 16.6324C184.097 15.9258 184.826 15.3529 185.726 15.3529C186.625 15.3529 187.355 15.9258 187.355 16.6324Z" fill="#D3D2F6"/>
<path d="M197.129 16.6324C197.129 17.339 196.4 17.9118 195.5 17.9118C194.6 17.9118 193.871 17.339 193.871 16.6324C193.871 15.9258 194.6 15.3529 195.5 15.3529C196.4 15.3529 197.129 15.9258 197.129 16.6324Z" fill="#D3D2F6"/>
<path d="M206.903 16.6324C206.903 17.339 206.174 17.9118 205.274 17.9118C204.375 17.9118 203.645 17.339 203.645 16.6324C203.645 15.9258 204.375 15.3529 205.274 15.3529C206.174 15.3529 206.903 15.9258 206.903 16.6324Z" fill="#D3D2F6"/>
<path d="M216.677 16.6324C216.677 17.339 215.948 17.9118 215.048 17.9118C214.149 17.9118 213.419 17.339 213.419 16.6324C213.419 15.9258 214.149 15.3529 215.048 15.3529C215.948 15.3529 216.677 15.9258 216.677 16.6324Z" fill="#D3D2F6"/>
<path d="M226.452 16.6324C226.452 17.339 225.722 17.9118 224.823 17.9118C223.923 17.9118 223.194 17.339 223.194 16.6324C223.194 15.9258 223.923 15.3529 224.823 15.3529C225.722 15.3529 226.452 15.9258 226.452 16.6324Z" fill="#D3D2F6"/>
<path d="M236.226 16.6324C236.226 17.339 235.496 17.9118 234.597 17.9118C233.697 17.9118 232.968 17.339 232.968 16.6324C232.968 15.9258 233.697 15.3529 234.597 15.3529C235.496 15.3529 236.226 15.9258 236.226 16.6324Z" fill="#D3D2F6"/>
<path d="M246 16.6324C246 17.339 245.271 17.9118 244.371 17.9118C243.471 17.9118 242.742 17.339 242.742 16.6324C242.742 15.9258 243.471 15.3529 244.371 15.3529C245.271 15.3529 246 15.9258 246 16.6324Z" fill="#D3D2F6"/>
<path d="M148.258 24.3088C148.258 25.0154 147.529 25.5882 146.629 25.5882C145.729 25.5882 145 25.0154 145 24.3088C145 23.6022 145.729 23.0294 146.629 23.0294C147.529 23.0294 148.258 23.6022 148.258 24.3088Z" fill="#D3D2F6"/>
<path d="M158.032 24.3088C158.032 25.0154 157.303 25.5882 156.403 25.5882C155.504 25.5882 154.774 25.0154 154.774 24.3088C154.774 23.6022 155.504 23.0294 156.403 23.0294C157.303 23.0294 158.032 23.6022 158.032 24.3088Z" fill="#D3D2F6"/>
<path d="M167.806 24.3088C167.806 25.0154 167.077 25.5882 166.177 25.5882C165.278 25.5882 164.548 25.0154 164.548 24.3088C164.548 23.6022 165.278 23.0294 166.177 23.0294C167.077 23.0294 167.806 23.6022 167.806 24.3088Z" fill="#D3D2F6"/>
<path d="M177.581 24.3088C177.581 25.0154 176.851 25.5882 175.952 25.5882C175.052 25.5882 174.323 25.0154 174.323 24.3088C174.323 23.6022 175.052 23.0294 175.952 23.0294C176.851 23.0294 177.581 23.6022 177.581 24.3088Z" fill="#D3D2F6"/>
<path d="M187.355 24.3088C187.355 25.0154 186.625 25.5882 185.726 25.5882C184.826 25.5882 184.097 25.0154 184.097 24.3088C184.097 23.6022 184.826 23.0294 185.726 23.0294C186.625 23.0294 187.355 23.6022 187.355 24.3088Z" fill="#D3D2F6"/>
<path d="M197.129 24.3088C197.129 25.0154 196.4 25.5882 195.5 25.5882C194.6 25.5882 193.871 25.0154 193.871 24.3088C193.871 23.6022 194.6 23.0294 195.5 23.0294C196.4 23.0294 197.129 23.6022 197.129 24.3088Z" fill="#D3D2F6"/>
<path d="M206.903 24.3088C206.903 25.0154 206.174 25.5882 205.274 25.5882C204.375 25.5882 203.645 25.0154 203.645 24.3088C203.645 23.6022 204.375 23.0294 205.274 23.0294C206.174 23.0294 206.903 23.6022 206.903 24.3088Z" fill="#D3D2F6"/>
<path d="M216.677 24.3088C216.677 25.0154 215.948 25.5882 215.048 25.5882C214.149 25.5882 213.419 25.0154 213.419 24.3088C213.419 23.6022 214.149 23.0294 215.048 23.0294C215.948 23.0294 216.677 23.6022 216.677 24.3088Z" fill="#D3D2F6"/>
<path d="M226.452 24.3088C226.452 25.0154 225.722 25.5882 224.823 25.5882C223.923 25.5882 223.194 25.0154 223.194 24.3088C223.194 23.6022 223.923 23.0294 224.823 23.0294C225.722 23.0294 226.452 23.6022 226.452 24.3088Z" fill="#D3D2F6"/>
<path d="M236.226 24.3088C236.226 25.0154 235.496 25.5882 234.597 25.5882C233.697 25.5882 232.968 25.0154 232.968 24.3088C232.968 23.6022 233.697 23.0294 234.597 23.0294C235.496 23.0294 236.226 23.6022 236.226 24.3088Z" fill="#D3D2F6"/>
<path d="M246 24.3088C246 25.0154 245.271 25.5882 244.371 25.5882C243.471 25.5882 242.742 25.0154 242.742 24.3088C242.742 23.6022 243.471 23.0294 244.371 23.0294C245.271 23.0294 246 23.6022 246 24.3088Z" fill="#D3D2F6"/>
<path d="M148.258 31.9853C148.258 32.6919 147.529 33.2647 146.629 33.2647C145.729 33.2647 145 32.6919 145 31.9853C145 31.2787 145.729 30.7059 146.629 30.7059C147.529 30.7059 148.258 31.2787 148.258 31.9853Z" fill="#D3D2F6"/>
<path d="M158.032 31.9853C158.032 32.6919 157.303 33.2647 156.403 33.2647C155.504 33.2647 154.774 32.6919 154.774 31.9853C154.774 31.2787 155.504 30.7059 156.403 30.7059C157.303 30.7059 158.032 31.2787 158.032 31.9853Z" fill="#D3D2F6"/>
<path d="M167.806 31.9853C167.806 32.6919 167.077 33.2647 166.177 33.2647C165.278 33.2647 164.548 32.6919 164.548 31.9853C164.548 31.2787 165.278 30.7059 166.177 30.7059C167.077 30.7059 167.806 31.2787 167.806 31.9853Z" fill="#D3D2F6"/>
<path d="M177.581 31.9853C177.581 32.6919 176.851 33.2647 175.952 33.2647C175.052 33.2647 174.323 32.6919 174.323 31.9853C174.323 31.2787 175.052 30.7059 175.952 30.7059C176.851 30.7059 177.581 31.2787 177.581 31.9853Z" fill="#D3D2F6"/>
<path d="M187.355 31.9853C187.355 32.6919 186.625 33.2647 185.726 33.2647C184.826 33.2647 184.097 32.6919 184.097 31.9853C184.097 31.2787 184.826 30.7059 185.726 30.7059C186.625 30.7059 187.355 31.2787 187.355 31.9853Z" fill="#D3D2F6"/>
<path d="M197.129 31.9853C197.129 32.6919 196.4 33.2647 195.5 33.2647C194.6 33.2647 193.871 32.6919 193.871 31.9853C193.871 31.2787 194.6 30.7059 195.5 30.7059C196.4 30.7059 197.129 31.2787 197.129 31.9853Z" fill="#D3D2F6"/>
<path d="M206.903 31.9853C206.903 32.6919 206.174 33.2647 205.274 33.2647C204.375 33.2647 203.645 32.6919 203.645 31.9853C203.645 31.2787 204.375 30.7059 205.274 30.7059C206.174 30.7059 206.903 31.2787 206.903 31.9853Z" fill="#D3D2F6"/>
<path d="M216.677 31.9853C216.677 32.6919 215.948 33.2647 215.048 33.2647C214.149 33.2647 213.419 32.6919 213.419 31.9853C213.419 31.2787 214.149 30.7059 215.048 30.7059C215.948 30.7059 216.677 31.2787 216.677 31.9853Z" fill="#D3D2F6"/>
<path d="M226.452 31.9853C226.452 32.6919 225.722 33.2647 224.823 33.2647C223.923 33.2647 223.194 32.6919 223.194 31.9853C223.194 31.2787 223.923 30.7059 224.823 30.7059C225.722 30.7059 226.452 31.2787 226.452 31.9853Z" fill="#D3D2F6"/>
<path d="M236.226 31.9853C236.226 32.6919 235.496 33.2647 234.597 33.2647C233.697 33.2647 232.968 32.6919 232.968 31.9853C232.968 31.2787 233.697 30.7059 234.597 30.7059C235.496 30.7059 236.226 31.2787 236.226 31.9853Z" fill="#D3D2F6"/>
<path d="M246 31.9853C246 32.6919 245.271 33.2647 244.371 33.2647C243.471 33.2647 242.742 32.6919 242.742 31.9853C242.742 31.2787 243.471 30.7059 244.371 30.7059C245.271 30.7059 246 31.2787 246 31.9853Z" fill="#D3D2F6"/>
<path d="M148.258 39.6618C148.258 40.3684 147.529 40.9412 146.629 40.9412C145.729 40.9412 145 40.3684 145 39.6618C145 38.9552 145.729 38.3824 146.629 38.3824C147.529 38.3824 148.258 38.9552 148.258 39.6618Z" fill="#D3D2F6"/>
<path d="M158.032 39.6618C158.032 40.3684 157.303 40.9412 156.403 40.9412C155.504 40.9412 154.774 40.3684 154.774 39.6618C154.774 38.9552 155.504 38.3824 156.403 38.3824C157.303 38.3824 158.032 38.9552 158.032 39.6618Z" fill="#D3D2F6"/>
<path d="M167.806 39.6618C167.806 40.3684 167.077 40.9412 166.177 40.9412C165.278 40.9412 164.548 40.3684 164.548 39.6618C164.548 38.9552 165.278 38.3824 166.177 38.3824C167.077 38.3824 167.806 38.9552 167.806 39.6618Z" fill="#D3D2F6"/>
<path d="M177.581 39.6618C177.581 40.3684 176.851 40.9412 175.952 40.9412C175.052 40.9412 174.323 40.3684 174.323 39.6618C174.323 38.9552 175.052 38.3824 175.952 38.3824C176.851 38.3824 177.581 38.9552 177.581 39.6618Z" fill="#D3D2F6"/>
<path d="M187.355 39.6618C187.355 40.3684 186.625 40.9412 185.726 40.9412C184.826 40.9412 184.097 40.3684 184.097 39.6618C184.097 38.9552 184.826 38.3824 185.726 38.3824C186.625 38.3824 187.355 38.9552 187.355 39.6618Z" fill="#D3D2F6"/>
<path d="M197.129 39.6618C197.129 40.3684 196.4 40.9412 195.5 40.9412C194.6 40.9412 193.871 40.3684 193.871 39.6618C193.871 38.9552 194.6 38.3824 195.5 38.3824C196.4 38.3824 197.129 38.9552 197.129 39.6618Z" fill="#D3D2F6"/>
<path d="M206.903 39.6618C206.903 40.3684 206.174 40.9412 205.274 40.9412C204.375 40.9412 203.645 40.3684 203.645 39.6618C203.645 38.9552 204.375 38.3824 205.274 38.3824C206.174 38.3824 206.903 38.9552 206.903 39.6618Z" fill="#D3D2F6"/>
<path d="M216.677 39.6618C216.677 40.3684 215.948 40.9412 215.048 40.9412C214.149 40.9412 213.419 40.3684 213.419 39.6618C213.419 38.9552 214.149 38.3824 215.048 38.3824C215.948 38.3824 216.677 38.9552 216.677 39.6618Z" fill="#D3D2F6"/>
<path d="M226.452 39.6618C226.452 40.3684 225.722 40.9412 224.823 40.9412C223.923 40.9412 223.194 40.3684 223.194 39.6618C223.194 38.9552 223.923 38.3824 224.823 38.3824C225.722 38.3824 226.452 38.9552 226.452 39.6618Z" fill="#D3D2F6"/>
<path d="M236.226 39.6618C236.226 40.3684 235.496 40.9412 234.597 40.9412C233.697 40.9412 232.968 40.3684 232.968 39.6618C232.968 38.9552 233.697 38.3824 234.597 38.3824C235.496 38.3824 236.226 38.9552 236.226 39.6618Z" fill="#D3D2F6"/>
<path d="M246 39.6618C246 40.3684 245.271 40.9412 244.371 40.9412C243.471 40.9412 242.742 40.3684 242.742 39.6618C242.742 38.9552 243.471 38.3824 244.371 38.3824C245.271 38.3824 246 38.9552 246 39.6618Z" fill="#D3D2F6"/>
<path d="M148.258 47.3382C148.258 48.0448 147.529 48.6176 146.629 48.6176C145.729 48.6176 145 48.0448 145 47.3382C145 46.6316 145.729 46.0588 146.629 46.0588C147.529 46.0588 148.258 46.6316 148.258 47.3382Z" fill="#D3D2F6"/>
<path d="M158.032 47.3382C158.032 48.0448 157.303 48.6176 156.403 48.6176C155.504 48.6176 154.774 48.0448 154.774 47.3382C154.774 46.6316 155.504 46.0588 156.403 46.0588C157.303 46.0588 158.032 46.6316 158.032 47.3382Z" fill="#D3D2F6"/>
<path d="M167.806 47.3382C167.806 48.0448 167.077 48.6176 166.177 48.6176C165.278 48.6176 164.548 48.0448 164.548 47.3382C164.548 46.6316 165.278 46.0588 166.177 46.0588C167.077 46.0588 167.806 46.6316 167.806 47.3382Z" fill="#D3D2F6"/>
<path d="M177.581 47.3382C177.581 48.0448 176.851 48.6176 175.952 48.6176C175.052 48.6176 174.323 48.0448 174.323 47.3382C174.323 46.6316 175.052 46.0588 175.952 46.0588C176.851 46.0588 177.581 46.6316 177.581 47.3382Z" fill="#D3D2F6"/>
<path d="M187.355 47.3382C187.355 48.0448 186.625 48.6176 185.726 48.6176C184.826 48.6176 184.097 48.0448 184.097 47.3382C184.097 46.6316 184.826 46.0588 185.726 46.0588C186.625 46.0588 187.355 46.6316 187.355 47.3382Z" fill="#D3D2F6"/>
<path d="M197.129 47.3382C197.129 48.0448 196.4 48.6176 195.5 48.6176C194.6 48.6176 193.871 48.0448 193.871 47.3382C193.871 46.6316 194.6 46.0588 195.5 46.0588C196.4 46.0588 197.129 46.6316 197.129 47.3382Z" fill="#D3D2F6"/>
<path d="M206.903 47.3382C206.903 48.0448 206.174 48.6176 205.274 48.6176C204.375 48.6176 203.645 48.0448 203.645 47.3382C203.645 46.6316 204.375 46.0588 205.274 46.0588C206.174 46.0588 206.903 46.6316 206.903 47.3382Z" fill="#D3D2F6"/>
<path d="M216.677 47.3382C216.677 48.0448 215.948 48.6176 215.048 48.6176C214.149 48.6176 213.419 48.0448 213.419 47.3382C213.419 46.6316 214.149 46.0588 215.048 46.0588C215.948 46.0588 216.677 46.6316 216.677 47.3382Z" fill="#D3D2F6"/>
<path d="M226.452 47.3382C226.452 48.0448 225.722 48.6176 224.823 48.6176C223.923 48.6176 223.194 48.0448 223.194 47.3382C223.194 46.6316 223.923 46.0588 224.823 46.0588C225.722 46.0588 226.452 46.6316 226.452 47.3382Z" fill="#D3D2F6"/>
<path d="M236.226 47.3382C236.226 48.0448 235.496 48.6176 234.597 48.6176C233.697 48.6176 232.968 48.0448 232.968 47.3382C232.968 46.6316 233.697 46.0588 234.597 46.0588C235.496 46.0588 236.226 46.6316 236.226 47.3382Z" fill="#D3D2F6"/>
<path d="M246 47.3382C246 48.0448 245.271 48.6176 244.371 48.6176C243.471 48.6176 242.742 48.0448 242.742 47.3382C242.742 46.6316 243.471 46.0588 244.371 46.0588C245.271 46.0588 246 46.6316 246 47.3382Z" fill="#D3D2F6"/>
<path d="M148.258 55.0147C148.258 55.7213 147.529 56.2941 146.629 56.2941C145.729 56.2941 145 55.7213 145 55.0147C145 54.3081 145.729 53.7353 146.629 53.7353C147.529 53.7353 148.258 54.3081 148.258 55.0147Z" fill="#D3D2F6"/>
<path d="M158.032 55.0147C158.032 55.7213 157.303 56.2941 156.403 56.2941C155.504 56.2941 154.774 55.7213 154.774 55.0147C154.774 54.3081 155.504 53.7353 156.403 53.7353C157.303 53.7353 158.032 54.3081 158.032 55.0147Z" fill="#D3D2F6"/>
<path d="M167.806 55.0147C167.806 55.7213 167.077 56.2941 166.177 56.2941C165.278 56.2941 164.548 55.7213 164.548 55.0147C164.548 54.3081 165.278 53.7353 166.177 53.7353C167.077 53.7353 167.806 54.3081 167.806 55.0147Z" fill="#D3D2F6"/>
<path d="M177.581 55.0147C177.581 55.7213 176.851 56.2941 175.952 56.2941C175.052 56.2941 174.323 55.7213 174.323 55.0147C174.323 54.3081 175.052 53.7353 175.952 53.7353C176.851 53.7353 177.581 54.3081 177.581 55.0147Z" fill="#D3D2F6"/>
<path d="M187.355 55.0147C187.355 55.7213 186.625 56.2941 185.726 56.2941C184.826 56.2941 184.097 55.7213 184.097 55.0147C184.097 54.3081 184.826 53.7353 185.726 53.7353C186.625 53.7353 187.355 54.3081 187.355 55.0147Z" fill="#D3D2F6"/>
<path d="M197.129 55.0147C197.129 55.7213 196.4 56.2941 195.5 56.2941C194.6 56.2941 193.871 55.7213 193.871 55.0147C193.871 54.3081 194.6 53.7353 195.5 53.7353C196.4 53.7353 197.129 54.3081 197.129 55.0147Z" fill="#D3D2F6"/>
<path d="M206.903 55.0147C206.903 55.7213 206.174 56.2941 205.274 56.2941C204.375 56.2941 203.645 55.7213 203.645 55.0147C203.645 54.3081 204.375 53.7353 205.274 53.7353C206.174 53.7353 206.903 54.3081 206.903 55.0147Z" fill="#D3D2F6"/>
<path d="M216.677 55.0147C216.677 55.7213 215.948 56.2941 215.048 56.2941C214.149 56.2941 213.419 55.7213 213.419 55.0147C213.419 54.3081 214.149 53.7353 215.048 53.7353C215.948 53.7353 216.677 54.3081 216.677 55.0147Z" fill="#D3D2F6"/>
<path d="M226.452 55.0147C226.452 55.7213 225.722 56.2941 224.823 56.2941C223.923 56.2941 223.194 55.7213 223.194 55.0147C223.194 54.3081 223.923 53.7353 224.823 53.7353C225.722 53.7353 226.452 54.3081 226.452 55.0147Z" fill="#D3D2F6"/>
<path d="M236.226 55.0147C236.226 55.7213 235.496 56.2941 234.597 56.2941C233.697 56.2941 232.968 55.7213 232.968 55.0147C232.968 54.3081 233.697 53.7353 234.597 53.7353C235.496 53.7353 236.226 54.3081 236.226 55.0147Z" fill="#D3D2F6"/>
<path d="M246 55.0147C246 55.7213 245.271 56.2941 244.371 56.2941C243.471 56.2941 242.742 55.7213 242.742 55.0147C242.742 54.3081 243.471 53.7353 244.371 53.7353C245.271 53.7353 246 54.3081 246 55.0147Z" fill="#D3D2F6"/>
<path d="M148.258 62.6912C148.258 63.3978 147.529 63.9706 146.629 63.9706C145.729 63.9706 145 63.3978 145 62.6912C145 61.9846 145.729 61.4118 146.629 61.4118C147.529 61.4118 148.258 61.9846 148.258 62.6912Z" fill="#D3D2F6"/>
<path d="M158.032 62.6912C158.032 63.3978 157.303 63.9706 156.403 63.9706C155.504 63.9706 154.774 63.3978 154.774 62.6912C154.774 61.9846 155.504 61.4118 156.403 61.4118C157.303 61.4118 158.032 61.9846 158.032 62.6912Z" fill="#D3D2F6"/>
<path d="M167.806 62.6912C167.806 63.3978 167.077 63.9706 166.177 63.9706C165.278 63.9706 164.548 63.3978 164.548 62.6912C164.548 61.9846 165.278 61.4118 166.177 61.4118C167.077 61.4118 167.806 61.9846 167.806 62.6912Z" fill="#D3D2F6"/>
<path d="M177.581 62.6912C177.581 63.3978 176.851 63.9706 175.952 63.9706C175.052 63.9706 174.323 63.3978 174.323 62.6912C174.323 61.9846 175.052 61.4118 175.952 61.4118C176.851 61.4118 177.581 61.9846 177.581 62.6912Z" fill="#D3D2F6"/>
<path d="M187.355 62.6912C187.355 63.3978 186.625 63.9706 185.726 63.9706C184.826 63.9706 184.097 63.3978 184.097 62.6912C184.097 61.9846 184.826 61.4118 185.726 61.4118C186.625 61.4118 187.355 61.9846 187.355 62.6912Z" fill="#D3D2F6"/>
<path d="M197.129 62.6912C197.129 63.3978 196.4 63.9706 195.5 63.9706C194.6 63.9706 193.871 63.3978 193.871 62.6912C193.871 61.9846 194.6 61.4118 195.5 61.4118C196.4 61.4118 197.129 61.9846 197.129 62.6912Z" fill="#D3D2F6"/>
<path d="M206.903 62.6912C206.903 63.3978 206.174 63.9706 205.274 63.9706C204.375 63.9706 203.645 63.3978 203.645 62.6912C203.645 61.9846 204.375 61.4118 205.274 61.4118C206.174 61.4118 206.903 61.9846 206.903 62.6912Z" fill="#D3D2F6"/>
<path d="M216.677 62.6912C216.677 63.3978 215.948 63.9706 215.048 63.9706C214.149 63.9706 213.419 63.3978 213.419 62.6912C213.419 61.9846 214.149 61.4118 215.048 61.4118C215.948 61.4118 216.677 61.9846 216.677 62.6912Z" fill="#D3D2F6"/>
<path d="M226.452 62.6912C226.452 63.3978 225.722 63.9706 224.823 63.9706C223.923 63.9706 223.194 63.3978 223.194 62.6912C223.194 61.9846 223.923 61.4118 224.823 61.4118C225.722 61.4118 226.452 61.9846 226.452 62.6912Z" fill="#D3D2F6"/>
<path d="M236.226 62.6912C236.226 63.3978 235.496 63.9706 234.597 63.9706C233.697 63.9706 232.968 63.3978 232.968 62.6912C232.968 61.9846 233.697 61.4118 234.597 61.4118C235.496 61.4118 236.226 61.9846 236.226 62.6912Z" fill="#D3D2F6"/>
<path d="M246 62.6912C246 63.3978 245.271 63.9706 244.371 63.9706C243.471 63.9706 242.742 63.3978 242.742 62.6912C242.742 61.9846 243.471 61.4118 244.371 61.4118C245.271 61.4118 246 61.9846 246 62.6912Z" fill="#D3D2F6"/>
<path d="M148.258 70.3676C148.258 71.0742 147.529 71.6471 146.629 71.6471C145.729 71.6471 145 71.0742 145 70.3676C145 69.661 145.729 69.0882 146.629 69.0882C147.529 69.0882 148.258 69.661 148.258 70.3676Z" fill="#D3D2F6"/>
<path d="M158.032 70.3676C158.032 71.0742 157.303 71.6471 156.403 71.6471C155.504 71.6471 154.774 71.0742 154.774 70.3676C154.774 69.661 155.504 69.0882 156.403 69.0882C157.303 69.0882 158.032 69.661 158.032 70.3676Z" fill="#D3D2F6"/>
<path d="M167.806 70.3676C167.806 71.0742 167.077 71.6471 166.177 71.6471C165.278 71.6471 164.548 71.0742 164.548 70.3676C164.548 69.661 165.278 69.0882 166.177 69.0882C167.077 69.0882 167.806 69.661 167.806 70.3676Z" fill="#D3D2F6"/>
<path d="M177.581 70.3676C177.581 71.0742 176.851 71.6471 175.952 71.6471C175.052 71.6471 174.323 71.0742 174.323 70.3676C174.323 69.661 175.052 69.0882 175.952 69.0882C176.851 69.0882 177.581 69.661 177.581 70.3676Z" fill="#D3D2F6"/>
<path d="M187.355 70.3676C187.355 71.0742 186.625 71.6471 185.726 71.6471C184.826 71.6471 184.097 71.0742 184.097 70.3676C184.097 69.661 184.826 69.0882 185.726 69.0882C186.625 69.0882 187.355 69.661 187.355 70.3676Z" fill="#D3D2F6"/>
<path d="M197.129 70.3676C197.129 71.0742 196.4 71.6471 195.5 71.6471C194.6 71.6471 193.871 71.0742 193.871 70.3676C193.871 69.661 194.6 69.0882 195.5 69.0882C196.4 69.0882 197.129 69.661 197.129 70.3676Z" fill="#D3D2F6"/>
<path d="M206.903 70.3676C206.903 71.0742 206.174 71.6471 205.274 71.6471C204.375 71.6471 203.645 71.0742 203.645 70.3676C203.645 69.661 204.375 69.0882 205.274 69.0882C206.174 69.0882 206.903 69.661 206.903 70.3676Z" fill="#D3D2F6"/>
<path d="M216.677 70.3676C216.677 71.0742 215.948 71.6471 215.048 71.6471C214.149 71.6471 213.419 71.0742 213.419 70.3676C213.419 69.661 214.149 69.0882 215.048 69.0882C215.948 69.0882 216.677 69.661 216.677 70.3676Z" fill="#D3D2F6"/>
<path d="M226.452 70.3676C226.452 71.0742 225.722 71.6471 224.823 71.6471C223.923 71.6471 223.194 71.0742 223.194 70.3676C223.194 69.661 223.923 69.0882 224.823 69.0882C225.722 69.0882 226.452 69.661 226.452 70.3676Z" fill="#D3D2F6"/>
<path d="M236.226 70.3676C236.226 71.0742 235.496 71.6471 234.597 71.6471C233.697 71.6471 232.968 71.0742 232.968 70.3676C232.968 69.661 233.697 69.0882 234.597 69.0882C235.496 69.0882 236.226 69.661 236.226 70.3676Z" fill="#D3D2F6"/>
<path d="M246 70.3676C246 71.0742 245.271 71.6471 244.371 71.6471C243.471 71.6471 242.742 71.0742 242.742 70.3676C242.742 69.661 243.471 69.0882 244.371 69.0882C245.271 69.0882 246 69.661 246 70.3676Z" fill="#D3D2F6"/>
<path d="M148.258 78.0441C148.258 78.7507 147.529 79.3235 146.629 79.3235C145.729 79.3235 145 78.7507 145 78.0441C145 77.3375 145.729 76.7647 146.629 76.7647C147.529 76.7647 148.258 77.3375 148.258 78.0441Z" fill="#D3D2F6"/>
<path d="M158.032 78.0441C158.032 78.7507 157.303 79.3235 156.403 79.3235C155.504 79.3235 154.774 78.7507 154.774 78.0441C154.774 77.3375 155.504 76.7647 156.403 76.7647C157.303 76.7647 158.032 77.3375 158.032 78.0441Z" fill="#D3D2F6"/>
<path d="M167.806 78.0441C167.806 78.7507 167.077 79.3235 166.177 79.3235C165.278 79.3235 164.548 78.7507 164.548 78.0441C164.548 77.3375 165.278 76.7647 166.177 76.7647C167.077 76.7647 167.806 77.3375 167.806 78.0441Z" fill="#D3D2F6"/>
<path d="M177.581 78.0441C177.581 78.7507 176.851 79.3235 175.952 79.3235C175.052 79.3235 174.323 78.7507 174.323 78.0441C174.323 77.3375 175.052 76.7647 175.952 76.7647C176.851 76.7647 177.581 77.3375 177.581 78.0441Z" fill="#D3D2F6"/>
<path d="M187.355 78.0441C187.355 78.7507 186.625 79.3235 185.726 79.3235C184.826 79.3235 184.097 78.7507 184.097 78.0441C184.097 77.3375 184.826 76.7647 185.726 76.7647C186.625 76.7647 187.355 77.3375 187.355 78.0441Z" fill="#D3D2F6"/>
<path d="M197.129 78.0441C197.129 78.7507 196.4 79.3235 195.5 79.3235C194.6 79.3235 193.871 78.7507 193.871 78.0441C193.871 77.3375 194.6 76.7647 195.5 76.7647C196.4 76.7647 197.129 77.3375 197.129 78.0441Z" fill="#D3D2F6"/>
<path d="M206.903 78.0441C206.903 78.7507 206.174 79.3235 205.274 79.3235C204.375 79.3235 203.645 78.7507 203.645 78.0441C203.645 77.3375 204.375 76.7647 205.274 76.7647C206.174 76.7647 206.903 77.3375 206.903 78.0441Z" fill="#D3D2F6"/>
<path d="M216.677 78.0441C216.677 78.7507 215.948 79.3235 215.048 79.3235C214.149 79.3235 213.419 78.7507 213.419 78.0441C213.419 77.3375 214.149 76.7647 215.048 76.7647C215.948 76.7647 216.677 77.3375 216.677 78.0441Z" fill="#D3D2F6"/>
<path d="M226.452 78.0441C226.452 78.7507 225.722 79.3235 224.823 79.3235C223.923 79.3235 223.194 78.7507 223.194 78.0441C223.194 77.3375 223.923 76.7647 224.823 76.7647C225.722 76.7647 226.452 77.3375 226.452 78.0441Z" fill="#D3D2F6"/>
<path d="M236.226 78.0441C236.226 78.7507 235.496 79.3235 234.597 79.3235C233.697 79.3235 232.968 78.7507 232.968 78.0441C232.968 77.3375 233.697 76.7647 234.597 76.7647C235.496 76.7647 236.226 77.3375 236.226 78.0441Z" fill="#D3D2F6"/>
<path d="M246 78.0441C246 78.7507 245.271 79.3235 244.371 79.3235C243.471 79.3235 242.742 78.7507 242.742 78.0441C242.742 77.3375 243.471 76.7647 244.371 76.7647C245.271 76.7647 246 77.3375 246 78.0441Z" fill="#D3D2F6"/>
<path d="M148.258 85.7206C148.258 86.4272 147.529 87 146.629 87C145.729 87 145 86.4272 145 85.7206C145 85.014 145.729 84.4412 146.629 84.4412C147.529 84.4412 148.258 85.014 148.258 85.7206Z" fill="#D3D2F6"/>
<path d="M158.032 85.7206C158.032 86.4272 157.303 87 156.403 87C155.504 87 154.774 86.4272 154.774 85.7206C154.774 85.014 155.504 84.4412 156.403 84.4412C157.303 84.4412 158.032 85.014 158.032 85.7206Z" fill="#D3D2F6"/>
<path d="M167.806 85.7206C167.806 86.4272 167.077 87 166.177 87C165.278 87 164.548 86.4272 164.548 85.7206C164.548 85.014 165.278 84.4412 166.177 84.4412C167.077 84.4412 167.806 85.014 167.806 85.7206Z" fill="#D3D2F6"/>
<path d="M177.581 85.7206C177.581 86.4272 176.851 87 175.952 87C175.052 87 174.323 86.4272 174.323 85.7206C174.323 85.014 175.052 84.4412 175.952 84.4412C176.851 84.4412 177.581 85.014 177.581 85.7206Z" fill="#D3D2F6"/>
<path d="M187.355 85.7206C187.355 86.4272 186.625 87 185.726 87C184.826 87 184.097 86.4272 184.097 85.7206C184.097 85.014 184.826 84.4412 185.726 84.4412C186.625 84.4412 187.355 85.014 187.355 85.7206Z" fill="#D3D2F6"/>
<path d="M197.129 85.7206C197.129 86.4272 196.4 87 195.5 87C194.6 87 193.871 86.4272 193.871 85.7206C193.871 85.014 194.6 84.4412 195.5 84.4412C196.4 84.4412 197.129 85.014 197.129 85.7206Z" fill="#D3D2F6"/>
<path d="M206.903 85.7206C206.903 86.4272 206.174 87 205.274 87C204.375 87 203.645 86.4272 203.645 85.7206C203.645 85.014 204.375 84.4412 205.274 84.4412C206.174 84.4412 206.903 85.014 206.903 85.7206Z" fill="#D3D2F6"/>
<path d="M216.677 85.7206C216.677 86.4272 215.948 87 215.048 87C214.149 87 213.419 86.4272 213.419 85.7206C213.419 85.014 214.149 84.4412 215.048 84.4412C215.948 84.4412 216.677 85.014 216.677 85.7206Z" fill="#D3D2F6"/>
<path d="M226.452 85.7206C226.452 86.4272 225.722 87 224.823 87C223.923 87 223.194 86.4272 223.194 85.7206C223.194 85.014 223.923 84.4412 224.823 84.4412C225.722 84.4412 226.452 85.014 226.452 85.7206Z" fill="#D3D2F6"/>
<path d="M236.226 85.7206C236.226 86.4272 235.496 87 234.597 87C233.697 87 232.968 86.4272 232.968 85.7206C232.968 85.014 233.697 84.4412 234.597 84.4412C235.496 84.4412 236.226 85.014 236.226 85.7206Z" fill="#D3D2F6"/>
<path d="M246 85.7206C246 86.4272 245.271 87 244.371 87C243.471 87 242.742 86.4272 242.742 85.7206C242.742 85.014 243.471 84.4412 244.371 84.4412C245.271 84.4412 246 85.014 246 85.7206Z" fill="#D3D2F6"/>
<path d="M397.258 1902.28C397.258 1902.99 396.529 1903.56 395.629 1903.56C394.729 1903.56 394 1902.99 394 1902.28C394 1901.57 394.729 1901 395.629 1901C396.529 1901 397.258 1901.57 397.258 1902.28Z" fill="#D3D2F6"/>
<path d="M407.032 1902.28C407.032 1902.99 406.303 1903.56 405.403 1903.56C404.504 1903.56 403.774 1902.99 403.774 1902.28C403.774 1901.57 404.504 1901 405.403 1901C406.303 1901 407.032 1901.57 407.032 1902.28Z" fill="#D3D2F6"/>
<path d="M416.806 1902.28C416.806 1902.99 416.077 1903.56 415.177 1903.56C414.278 1903.56 413.548 1902.99 413.548 1902.28C413.548 1901.57 414.278 1901 415.177 1901C416.077 1901 416.806 1901.57 416.806 1902.28Z" fill="#D3D2F6"/>
<path d="M426.581 1902.28C426.581 1902.99 425.851 1903.56 424.952 1903.56C424.052 1903.56 423.323 1902.99 423.323 1902.28C423.323 1901.57 424.052 1901 424.952 1901C425.851 1901 426.581 1901.57 426.581 1902.28Z" fill="#D3D2F6"/>
<path d="M436.355 1902.28C436.355 1902.99 435.625 1903.56 434.726 1903.56C433.826 1903.56 433.097 1902.99 433.097 1902.28C433.097 1901.57 433.826 1901 434.726 1901C435.625 1901 436.355 1901.57 436.355 1902.28Z" fill="#D3D2F6"/>
<path d="M446.129 1902.28C446.129 1902.99 445.4 1903.56 444.5 1903.56C443.6 1903.56 442.871 1902.99 442.871 1902.28C442.871 1901.57 443.6 1901 444.5 1901C445.4 1901 446.129 1901.57 446.129 1902.28Z" fill="#D3D2F6"/>
<path d="M455.903 1902.28C455.903 1902.99 455.174 1903.56 454.274 1903.56C453.375 1903.56 452.645 1902.99 452.645 1902.28C452.645 1901.57 453.375 1901 454.274 1901C455.174 1901 455.903 1901.57 455.903 1902.28Z" fill="#D3D2F6"/>
<path d="M465.677 1902.28C465.677 1902.99 464.948 1903.56 464.048 1903.56C463.149 1903.56 462.419 1902.99 462.419 1902.28C462.419 1901.57 463.149 1901 464.048 1901C464.948 1901 465.677 1901.57 465.677 1902.28Z" fill="#D3D2F6"/>
<path d="M475.452 1902.28C475.452 1902.99 474.722 1903.56 473.823 1903.56C472.923 1903.56 472.194 1902.99 472.194 1902.28C472.194 1901.57 472.923 1901 473.823 1901C474.722 1901 475.452 1901.57 475.452 1902.28Z" fill="#D3D2F6"/>
<path d="M485.226 1902.28C485.226 1902.99 484.496 1903.56 483.597 1903.56C482.697 1903.56 481.968 1902.99 481.968 1902.28C481.968 1901.57 482.697 1901 483.597 1901C484.496 1901 485.226 1901.57 485.226 1902.28Z" fill="#D3D2F6"/>
<path d="M495 1902.28C495 1902.99 494.271 1903.56 493.371 1903.56C492.471 1903.56 491.742 1902.99 491.742 1902.28C491.742 1901.57 492.471 1901 493.371 1901C494.271 1901 495 1901.57 495 1902.28Z" fill="#D3D2F6"/>
<path d="M397.258 1909.96C397.258 1910.66 396.529 1911.24 395.629 1911.24C394.729 1911.24 394 1910.66 394 1909.96C394 1909.25 394.729 1908.68 395.629 1908.68C396.529 1908.68 397.258 1909.25 397.258 1909.96Z" fill="#D3D2F6"/>
<path d="M407.032 1909.96C407.032 1910.66 406.303 1911.24 405.403 1911.24C404.504 1911.24 403.774 1910.66 403.774 1909.96C403.774 1909.25 404.504 1908.68 405.403 1908.68C406.303 1908.68 407.032 1909.25 407.032 1909.96Z" fill="#D3D2F6"/>
<path d="M416.806 1909.96C416.806 1910.66 416.077 1911.24 415.177 1911.24C414.278 1911.24 413.548 1910.66 413.548 1909.96C413.548 1909.25 414.278 1908.68 415.177 1908.68C416.077 1908.68 416.806 1909.25 416.806 1909.96Z" fill="#D3D2F6"/>
<path d="M426.581 1909.96C426.581 1910.66 425.851 1911.24 424.952 1911.24C424.052 1911.24 423.323 1910.66 423.323 1909.96C423.323 1909.25 424.052 1908.68 424.952 1908.68C425.851 1908.68 426.581 1909.25 426.581 1909.96Z" fill="#D3D2F6"/>
<path d="M436.355 1909.96C436.355 1910.66 435.625 1911.24 434.726 1911.24C433.826 1911.24 433.097 1910.66 433.097 1909.96C433.097 1909.25 433.826 1908.68 434.726 1908.68C435.625 1908.68 436.355 1909.25 436.355 1909.96Z" fill="#D3D2F6"/>
<path d="M446.129 1909.96C446.129 1910.66 445.4 1911.24 444.5 1911.24C443.6 1911.24 442.871 1910.66 442.871 1909.96C442.871 1909.25 443.6 1908.68 444.5 1908.68C445.4 1908.68 446.129 1909.25 446.129 1909.96Z" fill="#D3D2F6"/>
<path d="M455.903 1909.96C455.903 1910.66 455.174 1911.24 454.274 1911.24C453.375 1911.24 452.645 1910.66 452.645 1909.96C452.645 1909.25 453.375 1908.68 454.274 1908.68C455.174 1908.68 455.903 1909.25 455.903 1909.96Z" fill="#D3D2F6"/>
<path d="M465.677 1909.96C465.677 1910.66 464.948 1911.24 464.048 1911.24C463.149 1911.24 462.419 1910.66 462.419 1909.96C462.419 1909.25 463.149 1908.68 464.048 1908.68C464.948 1908.68 465.677 1909.25 465.677 1909.96Z" fill="#D3D2F6"/>
<path d="M475.452 1909.96C475.452 1910.66 474.722 1911.24 473.823 1911.24C472.923 1911.24 472.194 1910.66 472.194 1909.96C472.194 1909.25 472.923 1908.68 473.823 1908.68C474.722 1908.68 475.452 1909.25 475.452 1909.96Z" fill="#D3D2F6"/>
<path d="M485.226 1909.96C485.226 1910.66 484.496 1911.24 483.597 1911.24C482.697 1911.24 481.968 1910.66 481.968 1909.96C481.968 1909.25 482.697 1908.68 483.597 1908.68C484.496 1908.68 485.226 1909.25 485.226 1909.96Z" fill="#D3D2F6"/>
<path d="M495 1909.96C495 1910.66 494.271 1911.24 493.371 1911.24C492.471 1911.24 491.742 1910.66 491.742 1909.96C491.742 1909.25 492.471 1908.68 493.371 1908.68C494.271 1908.68 495 1909.25 495 1909.96Z" fill="#D3D2F6"/>
<path d="M397.258 1917.63C397.258 1918.34 396.529 1918.91 395.629 1918.91C394.729 1918.91 394 1918.34 394 1917.63C394 1916.93 394.729 1916.35 395.629 1916.35C396.529 1916.35 397.258 1916.93 397.258 1917.63Z" fill="#D3D2F6"/>
<path d="M407.032 1917.63C407.032 1918.34 406.303 1918.91 405.403 1918.91C404.504 1918.91 403.774 1918.34 403.774 1917.63C403.774 1916.93 404.504 1916.35 405.403 1916.35C406.303 1916.35 407.032 1916.93 407.032 1917.63Z" fill="#D3D2F6"/>
<path d="M416.806 1917.63C416.806 1918.34 416.077 1918.91 415.177 1918.91C414.278 1918.91 413.548 1918.34 413.548 1917.63C413.548 1916.93 414.278 1916.35 415.177 1916.35C416.077 1916.35 416.806 1916.93 416.806 1917.63Z" fill="#D3D2F6"/>
<path d="M426.581 1917.63C426.581 1918.34 425.851 1918.91 424.952 1918.91C424.052 1918.91 423.323 1918.34 423.323 1917.63C423.323 1916.93 424.052 1916.35 424.952 1916.35C425.851 1916.35 426.581 1916.93 426.581 1917.63Z" fill="#D3D2F6"/>
<path d="M436.355 1917.63C436.355 1918.34 435.625 1918.91 434.726 1918.91C433.826 1918.91 433.097 1918.34 433.097 1917.63C433.097 1916.93 433.826 1916.35 434.726 1916.35C435.625 1916.35 436.355 1916.93 436.355 1917.63Z" fill="#D3D2F6"/>
<path d="M446.129 1917.63C446.129 1918.34 445.4 1918.91 444.5 1918.91C443.6 1918.91 442.871 1918.34 442.871 1917.63C442.871 1916.93 443.6 1916.35 444.5 1916.35C445.4 1916.35 446.129 1916.93 446.129 1917.63Z" fill="#D3D2F6"/>
<path d="M455.903 1917.63C455.903 1918.34 455.174 1918.91 454.274 1918.91C453.375 1918.91 452.645 1918.34 452.645 1917.63C452.645 1916.93 453.375 1916.35 454.274 1916.35C455.174 1916.35 455.903 1916.93 455.903 1917.63Z" fill="#D3D2F6"/>
<path d="M465.677 1917.63C465.677 1918.34 464.948 1918.91 464.048 1918.91C463.149 1918.91 462.419 1918.34 462.419 1917.63C462.419 1916.93 463.149 1916.35 464.048 1916.35C464.948 1916.35 465.677 1916.93 465.677 1917.63Z" fill="#D3D2F6"/>
<path d="M475.452 1917.63C475.452 1918.34 474.722 1918.91 473.823 1918.91C472.923 1918.91 472.194 1918.34 472.194 1917.63C472.194 1916.93 472.923 1916.35 473.823 1916.35C474.722 1916.35 475.452 1916.93 475.452 1917.63Z" fill="#D3D2F6"/>
<path d="M485.226 1917.63C485.226 1918.34 484.496 1918.91 483.597 1918.91C482.697 1918.91 481.968 1918.34 481.968 1917.63C481.968 1916.93 482.697 1916.35 483.597 1916.35C484.496 1916.35 485.226 1916.93 485.226 1917.63Z" fill="#D3D2F6"/>
<path d="M495 1917.63C495 1918.34 494.271 1918.91 493.371 1918.91C492.471 1918.91 491.742 1918.34 491.742 1917.63C491.742 1916.93 492.471 1916.35 493.371 1916.35C494.271 1916.35 495 1916.93 495 1917.63Z" fill="#D3D2F6"/>
<path d="M397.258 1925.31C397.258 1926.02 396.529 1926.59 395.629 1926.59C394.729 1926.59 394 1926.02 394 1925.31C394 1924.6 394.729 1924.03 395.629 1924.03C396.529 1924.03 397.258 1924.6 397.258 1925.31Z" fill="#D3D2F6"/>
<path d="M407.032 1925.31C407.032 1926.02 406.303 1926.59 405.403 1926.59C404.504 1926.59 403.774 1926.02 403.774 1925.31C403.774 1924.6 404.504 1924.03 405.403 1924.03C406.303 1924.03 407.032 1924.6 407.032 1925.31Z" fill="#D3D2F6"/>
<path d="M416.806 1925.31C416.806 1926.02 416.077 1926.59 415.177 1926.59C414.278 1926.59 413.548 1926.02 413.548 1925.31C413.548 1924.6 414.278 1924.03 415.177 1924.03C416.077 1924.03 416.806 1924.6 416.806 1925.31Z" fill="#D3D2F6"/>
<path d="M426.581 1925.31C426.581 1926.02 425.851 1926.59 424.952 1926.59C424.052 1926.59 423.323 1926.02 423.323 1925.31C423.323 1924.6 424.052 1924.03 424.952 1924.03C425.851 1924.03 426.581 1924.6 426.581 1925.31Z" fill="#D3D2F6"/>
<path d="M436.355 1925.31C436.355 1926.02 435.625 1926.59 434.726 1926.59C433.826 1926.59 433.097 1926.02 433.097 1925.31C433.097 1924.6 433.826 1924.03 434.726 1924.03C435.625 1924.03 436.355 1924.6 436.355 1925.31Z" fill="#D3D2F6"/>
<path d="M446.129 1925.31C446.129 1926.02 445.4 1926.59 444.5 1926.59C443.6 1926.59 442.871 1926.02 442.871 1925.31C442.871 1924.6 443.6 1924.03 444.5 1924.03C445.4 1924.03 446.129 1924.6 446.129 1925.31Z" fill="#D3D2F6"/>
<path d="M455.903 1925.31C455.903 1926.02 455.174 1926.59 454.274 1926.59C453.375 1926.59 452.645 1926.02 452.645 1925.31C452.645 1924.6 453.375 1924.03 454.274 1924.03C455.174 1924.03 455.903 1924.6 455.903 1925.31Z" fill="#D3D2F6"/>
<path d="M465.677 1925.31C465.677 1926.02 464.948 1926.59 464.048 1926.59C463.149 1926.59 462.419 1926.02 462.419 1925.31C462.419 1924.6 463.149 1924.03 464.048 1924.03C464.948 1924.03 465.677 1924.6 465.677 1925.31Z" fill="#D3D2F6"/>
<path d="M475.452 1925.31C475.452 1926.02 474.722 1926.59 473.823 1926.59C472.923 1926.59 472.194 1926.02 472.194 1925.31C472.194 1924.6 472.923 1924.03 473.823 1924.03C474.722 1924.03 475.452 1924.6 475.452 1925.31Z" fill="#D3D2F6"/>
<path d="M485.226 1925.31C485.226 1926.02 484.496 1926.59 483.597 1926.59C482.697 1926.59 481.968 1926.02 481.968 1925.31C481.968 1924.6 482.697 1924.03 483.597 1924.03C484.496 1924.03 485.226 1924.6 485.226 1925.31Z" fill="#D3D2F6"/>
<path d="M495 1925.31C495 1926.02 494.271 1926.59 493.371 1926.59C492.471 1926.59 491.742 1926.02 491.742 1925.31C491.742 1924.6 492.471 1924.03 493.371 1924.03C494.271 1924.03 495 1924.6 495 1925.31Z" fill="#D3D2F6"/>
<path d="M397.258 1932.99C397.258 1933.69 396.529 1934.26 395.629 1934.26C394.729 1934.26 394 1933.69 394 1932.99C394 1932.28 394.729 1931.71 395.629 1931.71C396.529 1931.71 397.258 1932.28 397.258 1932.99Z" fill="#D3D2F6"/>
<path d="M407.032 1932.99C407.032 1933.69 406.303 1934.26 405.403 1934.26C404.504 1934.26 403.774 1933.69 403.774 1932.99C403.774 1932.28 404.504 1931.71 405.403 1931.71C406.303 1931.71 407.032 1932.28 407.032 1932.99Z" fill="#D3D2F6"/>
<path d="M416.806 1932.99C416.806 1933.69 416.077 1934.26 415.177 1934.26C414.278 1934.26 413.548 1933.69 413.548 1932.99C413.548 1932.28 414.278 1931.71 415.177 1931.71C416.077 1931.71 416.806 1932.28 416.806 1932.99Z" fill="#D3D2F6"/>
<path d="M426.581 1932.99C426.581 1933.69 425.851 1934.26 424.952 1934.26C424.052 1934.26 423.323 1933.69 423.323 1932.99C423.323 1932.28 424.052 1931.71 424.952 1931.71C425.851 1931.71 426.581 1932.28 426.581 1932.99Z" fill="#D3D2F6"/>
<path d="M436.355 1932.99C436.355 1933.69 435.625 1934.26 434.726 1934.26C433.826 1934.26 433.097 1933.69 433.097 1932.99C433.097 1932.28 433.826 1931.71 434.726 1931.71C435.625 1931.71 436.355 1932.28 436.355 1932.99Z" fill="#D3D2F6"/>
<path d="M446.129 1932.99C446.129 1933.69 445.4 1934.26 444.5 1934.26C443.6 1934.26 442.871 1933.69 442.871 1932.99C442.871 1932.28 443.6 1931.71 444.5 1931.71C445.4 1931.71 446.129 1932.28 446.129 1932.99Z" fill="#D3D2F6"/>
<path d="M455.903 1932.99C455.903 1933.69 455.174 1934.26 454.274 1934.26C453.375 1934.26 452.645 1933.69 452.645 1932.99C452.645 1932.28 453.375 1931.71 454.274 1931.71C455.174 1931.71 455.903 1932.28 455.903 1932.99Z" fill="#D3D2F6"/>
<path d="M465.677 1932.99C465.677 1933.69 464.948 1934.26 464.048 1934.26C463.149 1934.26 462.419 1933.69 462.419 1932.99C462.419 1932.28 463.149 1931.71 464.048 1931.71C464.948 1931.71 465.677 1932.28 465.677 1932.99Z" fill="#D3D2F6"/>
<path d="M475.452 1932.99C475.452 1933.69 474.722 1934.26 473.823 1934.26C472.923 1934.26 472.194 1933.69 472.194 1932.99C472.194 1932.28 472.923 1931.71 473.823 1931.71C474.722 1931.71 475.452 1932.28 475.452 1932.99Z" fill="#D3D2F6"/>
<path d="M485.226 1932.99C485.226 1933.69 484.496 1934.26 483.597 1934.26C482.697 1934.26 481.968 1933.69 481.968 1932.99C481.968 1932.28 482.697 1931.71 483.597 1931.71C484.496 1931.71 485.226 1932.28 485.226 1932.99Z" fill="#D3D2F6"/>
<path d="M495 1932.99C495 1933.69 494.271 1934.26 493.371 1934.26C492.471 1934.26 491.742 1933.69 491.742 1932.99C491.742 1932.28 492.471 1931.71 493.371 1931.71C494.271 1931.71 495 1932.28 495 1932.99Z" fill="#D3D2F6"/>
<path d="M397.258 1940.66C397.258 1941.37 396.529 1941.94 395.629 1941.94C394.729 1941.94 394 1941.37 394 1940.66C394 1939.96 394.729 1939.38 395.629 1939.38C396.529 1939.38 397.258 1939.96 397.258 1940.66Z" fill="#D3D2F6"/>
<path d="M407.032 1940.66C407.032 1941.37 406.303 1941.94 405.403 1941.94C404.504 1941.94 403.774 1941.37 403.774 1940.66C403.774 1939.96 404.504 1939.38 405.403 1939.38C406.303 1939.38 407.032 1939.96 407.032 1940.66Z" fill="#D3D2F6"/>
<path d="M416.806 1940.66C416.806 1941.37 416.077 1941.94 415.177 1941.94C414.278 1941.94 413.548 1941.37 413.548 1940.66C413.548 1939.96 414.278 1939.38 415.177 1939.38C416.077 1939.38 416.806 1939.96 416.806 1940.66Z" fill="#D3D2F6"/>
<path d="M426.581 1940.66C426.581 1941.37 425.851 1941.94 424.952 1941.94C424.052 1941.94 423.323 1941.37 423.323 1940.66C423.323 1939.96 424.052 1939.38 424.952 1939.38C425.851 1939.38 426.581 1939.96 426.581 1940.66Z" fill="#D3D2F6"/>
<path d="M436.355 1940.66C436.355 1941.37 435.625 1941.94 434.726 1941.94C433.826 1941.94 433.097 1941.37 433.097 1940.66C433.097 1939.96 433.826 1939.38 434.726 1939.38C435.625 1939.38 436.355 1939.96 436.355 1940.66Z" fill="#D3D2F6"/>
<path d="M446.129 1940.66C446.129 1941.37 445.4 1941.94 444.5 1941.94C443.6 1941.94 442.871 1941.37 442.871 1940.66C442.871 1939.96 443.6 1939.38 444.5 1939.38C445.4 1939.38 446.129 1939.96 446.129 1940.66Z" fill="#D3D2F6"/>
<path d="M455.903 1940.66C455.903 1941.37 455.174 1941.94 454.274 1941.94C453.375 1941.94 452.645 1941.37 452.645 1940.66C452.645 1939.96 453.375 1939.38 454.274 1939.38C455.174 1939.38 455.903 1939.96 455.903 1940.66Z" fill="#D3D2F6"/>
<path d="M465.677 1940.66C465.677 1941.37 464.948 1941.94 464.048 1941.94C463.149 1941.94 462.419 1941.37 462.419 1940.66C462.419 1939.96 463.149 1939.38 464.048 1939.38C464.948 1939.38 465.677 1939.96 465.677 1940.66Z" fill="#D3D2F6"/>
<path d="M475.452 1940.66C475.452 1941.37 474.722 1941.94 473.823 1941.94C472.923 1941.94 472.194 1941.37 472.194 1940.66C472.194 1939.96 472.923 1939.38 473.823 1939.38C474.722 1939.38 475.452 1939.96 475.452 1940.66Z" fill="#D3D2F6"/>
<path d="M485.226 1940.66C485.226 1941.37 484.496 1941.94 483.597 1941.94C482.697 1941.94 481.968 1941.37 481.968 1940.66C481.968 1939.96 482.697 1939.38 483.597 1939.38C484.496 1939.38 485.226 1939.96 485.226 1940.66Z" fill="#D3D2F6"/>
<path d="M495 1940.66C495 1941.37 494.271 1941.94 493.371 1941.94C492.471 1941.94 491.742 1941.37 491.742 1940.66C491.742 1939.96 492.471 1939.38 493.371 1939.38C494.271 1939.38 495 1939.96 495 1940.66Z" fill="#D3D2F6"/>
<path d="M397.258 1948.34C397.258 1949.04 396.529 1949.62 395.629 1949.62C394.729 1949.62 394 1949.04 394 1948.34C394 1947.63 394.729 1947.06 395.629 1947.06C396.529 1947.06 397.258 1947.63 397.258 1948.34Z" fill="#D3D2F6"/>
<path d="M407.032 1948.34C407.032 1949.04 406.303 1949.62 405.403 1949.62C404.504 1949.62 403.774 1949.04 403.774 1948.34C403.774 1947.63 404.504 1947.06 405.403 1947.06C406.303 1947.06 407.032 1947.63 407.032 1948.34Z" fill="#D3D2F6"/>
<path d="M416.806 1948.34C416.806 1949.04 416.077 1949.62 415.177 1949.62C414.278 1949.62 413.548 1949.04 413.548 1948.34C413.548 1947.63 414.278 1947.06 415.177 1947.06C416.077 1947.06 416.806 1947.63 416.806 1948.34Z" fill="#D3D2F6"/>
<path d="M426.581 1948.34C426.581 1949.04 425.851 1949.62 424.952 1949.62C424.052 1949.62 423.323 1949.04 423.323 1948.34C423.323 1947.63 424.052 1947.06 424.952 1947.06C425.851 1947.06 426.581 1947.63 426.581 1948.34Z" fill="#D3D2F6"/>
<path d="M436.355 1948.34C436.355 1949.04 435.625 1949.62 434.726 1949.62C433.826 1949.62 433.097 1949.04 433.097 1948.34C433.097 1947.63 433.826 1947.06 434.726 1947.06C435.625 1947.06 436.355 1947.63 436.355 1948.34Z" fill="#D3D2F6"/>
<path d="M446.129 1948.34C446.129 1949.04 445.4 1949.62 444.5 1949.62C443.6 1949.62 442.871 1949.04 442.871 1948.34C442.871 1947.63 443.6 1947.06 444.5 1947.06C445.4 1947.06 446.129 1947.63 446.129 1948.34Z" fill="#D3D2F6"/>
<path d="M455.903 1948.34C455.903 1949.04 455.174 1949.62 454.274 1949.62C453.375 1949.62 452.645 1949.04 452.645 1948.34C452.645 1947.63 453.375 1947.06 454.274 1947.06C455.174 1947.06 455.903 1947.63 455.903 1948.34Z" fill="#D3D2F6"/>
<path d="M465.677 1948.34C465.677 1949.04 464.948 1949.62 464.048 1949.62C463.149 1949.62 462.419 1949.04 462.419 1948.34C462.419 1947.63 463.149 1947.06 464.048 1947.06C464.948 1947.06 465.677 1947.63 465.677 1948.34Z" fill="#D3D2F6"/>
<path d="M475.452 1948.34C475.452 1949.04 474.722 1949.62 473.823 1949.62C472.923 1949.62 472.194 1949.04 472.194 1948.34C472.194 1947.63 472.923 1947.06 473.823 1947.06C474.722 1947.06 475.452 1947.63 475.452 1948.34Z" fill="#D3D2F6"/>
<path d="M485.226 1948.34C485.226 1949.04 484.496 1949.62 483.597 1949.62C482.697 1949.62 481.968 1949.04 481.968 1948.34C481.968 1947.63 482.697 1947.06 483.597 1947.06C484.496 1947.06 485.226 1947.63 485.226 1948.34Z" fill="#D3D2F6"/>
<path d="M495 1948.34C495 1949.04 494.271 1949.62 493.371 1949.62C492.471 1949.62 491.742 1949.04 491.742 1948.34C491.742 1947.63 492.471 1947.06 493.371 1947.06C494.271 1947.06 495 1947.63 495 1948.34Z" fill="#D3D2F6"/>
<path d="M397.258 1956.01C397.258 1956.72 396.529 1957.29 395.629 1957.29C394.729 1957.29 394 1956.72 394 1956.01C394 1955.31 394.729 1954.74 395.629 1954.74C396.529 1954.74 397.258 1955.31 397.258 1956.01Z" fill="#D3D2F6"/>
<path d="M407.032 1956.01C407.032 1956.72 406.303 1957.29 405.403 1957.29C404.504 1957.29 403.774 1956.72 403.774 1956.01C403.774 1955.31 404.504 1954.74 405.403 1954.74C406.303 1954.74 407.032 1955.31 407.032 1956.01Z" fill="#D3D2F6"/>
<path d="M416.806 1956.01C416.806 1956.72 416.077 1957.29 415.177 1957.29C414.278 1957.29 413.548 1956.72 413.548 1956.01C413.548 1955.31 414.278 1954.74 415.177 1954.74C416.077 1954.74 416.806 1955.31 416.806 1956.01Z" fill="#D3D2F6"/>
<path d="M426.581 1956.01C426.581 1956.72 425.851 1957.29 424.952 1957.29C424.052 1957.29 423.323 1956.72 423.323 1956.01C423.323 1955.31 424.052 1954.74 424.952 1954.74C425.851 1954.74 426.581 1955.31 426.581 1956.01Z" fill="#D3D2F6"/>
<path d="M436.355 1956.01C436.355 1956.72 435.625 1957.29 434.726 1957.29C433.826 1957.29 433.097 1956.72 433.097 1956.01C433.097 1955.31 433.826 1954.74 434.726 1954.74C435.625 1954.74 436.355 1955.31 436.355 1956.01Z" fill="#D3D2F6"/>
<path d="M446.129 1956.01C446.129 1956.72 445.4 1957.29 444.5 1957.29C443.6 1957.29 442.871 1956.72 442.871 1956.01C442.871 1955.31 443.6 1954.74 444.5 1954.74C445.4 1954.74 446.129 1955.31 446.129 1956.01Z" fill="#D3D2F6"/>
<path d="M455.903 1956.01C455.903 1956.72 455.174 1957.29 454.274 1957.29C453.375 1957.29 452.645 1956.72 452.645 1956.01C452.645 1955.31 453.375 1954.74 454.274 1954.74C455.174 1954.74 455.903 1955.31 455.903 1956.01Z" fill="#D3D2F6"/>
<path d="M465.677 1956.01C465.677 1956.72 464.948 1957.29 464.048 1957.29C463.149 1957.29 462.419 1956.72 462.419 1956.01C462.419 1955.31 463.149 1954.74 464.048 1954.74C464.948 1954.74 465.677 1955.31 465.677 1956.01Z" fill="#D3D2F6"/>
<path d="M475.452 1956.01C475.452 1956.72 474.722 1957.29 473.823 1957.29C472.923 1957.29 472.194 1956.72 472.194 1956.01C472.194 1955.31 472.923 1954.74 473.823 1954.74C474.722 1954.74 475.452 1955.31 475.452 1956.01Z" fill="#D3D2F6"/>
<path d="M485.226 1956.01C485.226 1956.72 484.496 1957.29 483.597 1957.29C482.697 1957.29 481.968 1956.72 481.968 1956.01C481.968 1955.31 482.697 1954.74 483.597 1954.74C484.496 1954.74 485.226 1955.31 485.226 1956.01Z" fill="#D3D2F6"/>
<path d="M495 1956.01C495 1956.72 494.271 1957.29 493.371 1957.29C492.471 1957.29 491.742 1956.72 491.742 1956.01C491.742 1955.31 492.471 1954.74 493.371 1954.74C494.271 1954.74 495 1955.31 495 1956.01Z" fill="#D3D2F6"/>
<path d="M397.258 1963.69C397.258 1964.4 396.529 1964.97 395.629 1964.97C394.729 1964.97 394 1964.4 394 1963.69C394 1962.98 394.729 1962.41 395.629 1962.41C396.529 1962.41 397.258 1962.98 397.258 1963.69Z" fill="#D3D2F6"/>
<path d="M407.032 1963.69C407.032 1964.4 406.303 1964.97 405.403 1964.97C404.504 1964.97 403.774 1964.4 403.774 1963.69C403.774 1962.98 404.504 1962.41 405.403 1962.41C406.303 1962.41 407.032 1962.98 407.032 1963.69Z" fill="#D3D2F6"/>
<path d="M416.806 1963.69C416.806 1964.4 416.077 1964.97 415.177 1964.97C414.278 1964.97 413.548 1964.4 413.548 1963.69C413.548 1962.98 414.278 1962.41 415.177 1962.41C416.077 1962.41 416.806 1962.98 416.806 1963.69Z" fill="#D3D2F6"/>
<path d="M426.581 1963.69C426.581 1964.4 425.851 1964.97 424.952 1964.97C424.052 1964.97 423.323 1964.4 423.323 1963.69C423.323 1962.98 424.052 1962.41 424.952 1962.41C425.851 1962.41 426.581 1962.98 426.581 1963.69Z" fill="#D3D2F6"/>
<path d="M436.355 1963.69C436.355 1964.4 435.625 1964.97 434.726 1964.97C433.826 1964.97 433.097 1964.4 433.097 1963.69C433.097 1962.98 433.826 1962.41 434.726 1962.41C435.625 1962.41 436.355 1962.98 436.355 1963.69Z" fill="#D3D2F6"/>
<path d="M446.129 1963.69C446.129 1964.4 445.4 1964.97 444.5 1964.97C443.6 1964.97 442.871 1964.4 442.871 1963.69C442.871 1962.98 443.6 1962.41 444.5 1962.41C445.4 1962.41 446.129 1962.98 446.129 1963.69Z" fill="#D3D2F6"/>
<path d="M455.903 1963.69C455.903 1964.4 455.174 1964.97 454.274 1964.97C453.375 1964.97 452.645 1964.4 452.645 1963.69C452.645 1962.98 453.375 1962.41 454.274 1962.41C455.174 1962.41 455.903 1962.98 455.903 1963.69Z" fill="#D3D2F6"/>
<path d="M465.677 1963.69C465.677 1964.4 464.948 1964.97 464.048 1964.97C463.149 1964.97 462.419 1964.4 462.419 1963.69C462.419 1962.98 463.149 1962.41 464.048 1962.41C464.948 1962.41 465.677 1962.98 465.677 1963.69Z" fill="#D3D2F6"/>
<path d="M475.452 1963.69C475.452 1964.4 474.722 1964.97 473.823 1964.97C472.923 1964.97 472.194 1964.4 472.194 1963.69C472.194 1962.98 472.923 1962.41 473.823 1962.41C474.722 1962.41 475.452 1962.98 475.452 1963.69Z" fill="#D3D2F6"/>
<path d="M485.226 1963.69C485.226 1964.4 484.496 1964.97 483.597 1964.97C482.697 1964.97 481.968 1964.4 481.968 1963.69C481.968 1962.98 482.697 1962.41 483.597 1962.41C484.496 1962.41 485.226 1962.98 485.226 1963.69Z" fill="#D3D2F6"/>
<path d="M495 1963.69C495 1964.4 494.271 1964.97 493.371 1964.97C492.471 1964.97 491.742 1964.4 491.742 1963.69C491.742 1962.98 492.471 1962.41 493.371 1962.41C494.271 1962.41 495 1962.98 495 1963.69Z" fill="#D3D2F6"/>
<path d="M397.258 1971.37C397.258 1972.07 396.529 1972.65 395.629 1972.65C394.729 1972.65 394 1972.07 394 1971.37C394 1970.66 394.729 1970.09 395.629 1970.09C396.529 1970.09 397.258 1970.66 397.258 1971.37Z" fill="#D3D2F6"/>
<path d="M407.032 1971.37C407.032 1972.07 406.303 1972.65 405.403 1972.65C404.504 1972.65 403.774 1972.07 403.774 1971.37C403.774 1970.66 404.504 1970.09 405.403 1970.09C406.303 1970.09 407.032 1970.66 407.032 1971.37Z" fill="#D3D2F6"/>
<path d="M416.806 1971.37C416.806 1972.07 416.077 1972.65 415.177 1972.65C414.278 1972.65 413.548 1972.07 413.548 1971.37C413.548 1970.66 414.278 1970.09 415.177 1970.09C416.077 1970.09 416.806 1970.66 416.806 1971.37Z" fill="#D3D2F6"/>
<path d="M426.581 1971.37C426.581 1972.07 425.851 1972.65 424.952 1972.65C424.052 1972.65 423.323 1972.07 423.323 1971.37C423.323 1970.66 424.052 1970.09 424.952 1970.09C425.851 1970.09 426.581 1970.66 426.581 1971.37Z" fill="#D3D2F6"/>
<path d="M436.355 1971.37C436.355 1972.07 435.625 1972.65 434.726 1972.65C433.826 1972.65 433.097 1972.07 433.097 1971.37C433.097 1970.66 433.826 1970.09 434.726 1970.09C435.625 1970.09 436.355 1970.66 436.355 1971.37Z" fill="#D3D2F6"/>
<path d="M446.129 1971.37C446.129 1972.07 445.4 1972.65 444.5 1972.65C443.6 1972.65 442.871 1972.07 442.871 1971.37C442.871 1970.66 443.6 1970.09 444.5 1970.09C445.4 1970.09 446.129 1970.66 446.129 1971.37Z" fill="#D3D2F6"/>
<path d="M455.903 1971.37C455.903 1972.07 455.174 1972.65 454.274 1972.65C453.375 1972.65 452.645 1972.07 452.645 1971.37C452.645 1970.66 453.375 1970.09 454.274 1970.09C455.174 1970.09 455.903 1970.66 455.903 1971.37Z" fill="#D3D2F6"/>
<path d="M465.677 1971.37C465.677 1972.07 464.948 1972.65 464.048 1972.65C463.149 1972.65 462.419 1972.07 462.419 1971.37C462.419 1970.66 463.149 1970.09 464.048 1970.09C464.948 1970.09 465.677 1970.66 465.677 1971.37Z" fill="#D3D2F6"/>
<path d="M475.452 1971.37C475.452 1972.07 474.722 1972.65 473.823 1972.65C472.923 1972.65 472.194 1972.07 472.194 1971.37C472.194 1970.66 472.923 1970.09 473.823 1970.09C474.722 1970.09 475.452 1970.66 475.452 1971.37Z" fill="#D3D2F6"/>
<path d="M485.226 1971.37C485.226 1972.07 484.496 1972.65 483.597 1972.65C482.697 1972.65 481.968 1972.07 481.968 1971.37C481.968 1970.66 482.697 1970.09 483.597 1970.09C484.496 1970.09 485.226 1970.66 485.226 1971.37Z" fill="#D3D2F6"/>
<path d="M495 1971.37C495 1972.07 494.271 1972.65 493.371 1972.65C492.471 1972.65 491.742 1972.07 491.742 1971.37C491.742 1970.66 492.471 1970.09 493.371 1970.09C494.271 1970.09 495 1970.66 495 1971.37Z" fill="#D3D2F6"/>
<path d="M397.258 1979.04C397.258 1979.75 396.529 1980.32 395.629 1980.32C394.729 1980.32 394 1979.75 394 1979.04C394 1978.34 394.729 1977.76 395.629 1977.76C396.529 1977.76 397.258 1978.34 397.258 1979.04Z" fill="#D3D2F6"/>
<path d="M407.032 1979.04C407.032 1979.75 406.303 1980.32 405.403 1980.32C404.504 1980.32 403.774 1979.75 403.774 1979.04C403.774 1978.34 404.504 1977.76 405.403 1977.76C406.303 1977.76 407.032 1978.34 407.032 1979.04Z" fill="#D3D2F6"/>
<path d="M416.806 1979.04C416.806 1979.75 416.077 1980.32 415.177 1980.32C414.278 1980.32 413.548 1979.75 413.548 1979.04C413.548 1978.34 414.278 1977.76 415.177 1977.76C416.077 1977.76 416.806 1978.34 416.806 1979.04Z" fill="#D3D2F6"/>
<path d="M426.581 1979.04C426.581 1979.75 425.851 1980.32 424.952 1980.32C424.052 1980.32 423.323 1979.75 423.323 1979.04C423.323 1978.34 424.052 1977.76 424.952 1977.76C425.851 1977.76 426.581 1978.34 426.581 1979.04Z" fill="#D3D2F6"/>
<path d="M436.355 1979.04C436.355 1979.75 435.625 1980.32 434.726 1980.32C433.826 1980.32 433.097 1979.75 433.097 1979.04C433.097 1978.34 433.826 1977.76 434.726 1977.76C435.625 1977.76 436.355 1978.34 436.355 1979.04Z" fill="#D3D2F6"/>
<path d="M446.129 1979.04C446.129 1979.75 445.4 1980.32 444.5 1980.32C443.6 1980.32 442.871 1979.75 442.871 1979.04C442.871 1978.34 443.6 1977.76 444.5 1977.76C445.4 1977.76 446.129 1978.34 446.129 1979.04Z" fill="#D3D2F6"/>
<path d="M455.903 1979.04C455.903 1979.75 455.174 1980.32 454.274 1980.32C453.375 1980.32 452.645 1979.75 452.645 1979.04C452.645 1978.34 453.375 1977.76 454.274 1977.76C455.174 1977.76 455.903 1978.34 455.903 1979.04Z" fill="#D3D2F6"/>
<path d="M465.677 1979.04C465.677 1979.75 464.948 1980.32 464.048 1980.32C463.149 1980.32 462.419 1979.75 462.419 1979.04C462.419 1978.34 463.149 1977.76 464.048 1977.76C464.948 1977.76 465.677 1978.34 465.677 1979.04Z" fill="#D3D2F6"/>
<path d="M475.452 1979.04C475.452 1979.75 474.722 1980.32 473.823 1980.32C472.923 1980.32 472.194 1979.75 472.194 1979.04C472.194 1978.34 472.923 1977.76 473.823 1977.76C474.722 1977.76 475.452 1978.34 475.452 1979.04Z" fill="#D3D2F6"/>
<path d="M485.226 1979.04C485.226 1979.75 484.496 1980.32 483.597 1980.32C482.697 1980.32 481.968 1979.75 481.968 1979.04C481.968 1978.34 482.697 1977.76 483.597 1977.76C484.496 1977.76 485.226 1978.34 485.226 1979.04Z" fill="#D3D2F6"/>
<path d="M495 1979.04C495 1979.75 494.271 1980.32 493.371 1980.32C492.471 1980.32 491.742 1979.75 491.742 1979.04C491.742 1978.34 492.471 1977.76 493.371 1977.76C494.271 1977.76 495 1978.34 495 1979.04Z" fill="#D3D2F6"/>
<path d="M397.258 1986.72C397.258 1987.43 396.529 1988 395.629 1988C394.729 1988 394 1987.43 394 1986.72C394 1986.01 394.729 1985.44 395.629 1985.44C396.529 1985.44 397.258 1986.01 397.258 1986.72Z" fill="#D3D2F6"/>
<path d="M407.032 1986.72C407.032 1987.43 406.303 1988 405.403 1988C404.504 1988 403.774 1987.43 403.774 1986.72C403.774 1986.01 404.504 1985.44 405.403 1985.44C406.303 1985.44 407.032 1986.01 407.032 1986.72Z" fill="#D3D2F6"/>
<path d="M416.806 1986.72C416.806 1987.43 416.077 1988 415.177 1988C414.278 1988 413.548 1987.43 413.548 1986.72C413.548 1986.01 414.278 1985.44 415.177 1985.44C416.077 1985.44 416.806 1986.01 416.806 1986.72Z" fill="#D3D2F6"/>
<path d="M426.581 1986.72C426.581 1987.43 425.851 1988 424.952 1988C424.052 1988 423.323 1987.43 423.323 1986.72C423.323 1986.01 424.052 1985.44 424.952 1985.44C425.851 1985.44 426.581 1986.01 426.581 1986.72Z" fill="#D3D2F6"/>
<path d="M436.355 1986.72C436.355 1987.43 435.625 1988 434.726 1988C433.826 1988 433.097 1987.43 433.097 1986.72C433.097 1986.01 433.826 1985.44 434.726 1985.44C435.625 1985.44 436.355 1986.01 436.355 1986.72Z" fill="#D3D2F6"/>
<path d="M446.129 1986.72C446.129 1987.43 445.4 1988 444.5 1988C443.6 1988 442.871 1987.43 442.871 1986.72C442.871 1986.01 443.6 1985.44 444.5 1985.44C445.4 1985.44 446.129 1986.01 446.129 1986.72Z" fill="#D3D2F6"/>
<path d="M455.903 1986.72C455.903 1987.43 455.174 1988 454.274 1988C453.375 1988 452.645 1987.43 452.645 1986.72C452.645 1986.01 453.375 1985.44 454.274 1985.44C455.174 1985.44 455.903 1986.01 455.903 1986.72Z" fill="#D3D2F6"/>
<path d="M465.677 1986.72C465.677 1987.43 464.948 1988 464.048 1988C463.149 1988 462.419 1987.43 462.419 1986.72C462.419 1986.01 463.149 1985.44 464.048 1985.44C464.948 1985.44 465.677 1986.01 465.677 1986.72Z" fill="#D3D2F6"/>
<path d="M475.452 1986.72C475.452 1987.43 474.722 1988 473.823 1988C472.923 1988 472.194 1987.43 472.194 1986.72C472.194 1986.01 472.923 1985.44 473.823 1985.44C474.722 1985.44 475.452 1986.01 475.452 1986.72Z" fill="#D3D2F6"/>
<path d="M485.226 1986.72C485.226 1987.43 484.496 1988 483.597 1988C482.697 1988 481.968 1987.43 481.968 1986.72C481.968 1986.01 482.697 1985.44 483.597 1985.44C484.496 1985.44 485.226 1986.01 485.226 1986.72Z" fill="#D3D2F6"/>
<path d="M495 1986.72C495 1987.43 494.271 1988 493.371 1988C492.471 1988 491.742 1987.43 491.742 1986.72C491.742 1986.01 492.471 1985.44 493.371 1985.44C494.271 1985.44 495 1986.01 495 1986.72Z" fill="#D3D2F6"/>
<path d="M407.258 564.279C407.258 564.986 406.529 565.559 405.629 565.559C404.729 565.559 404 564.986 404 564.279C404 563.573 404.729 563 405.629 563C406.529 563 407.258 563.573 407.258 564.279Z" fill="#D3D2F6"/>
<path d="M417.032 564.279C417.032 564.986 416.303 565.559 415.403 565.559C414.504 565.559 413.774 564.986 413.774 564.279C413.774 563.573 414.504 563 415.403 563C416.303 563 417.032 563.573 417.032 564.279Z" fill="#D3D2F6"/>
<path d="M426.806 564.279C426.806 564.986 426.077 565.559 425.177 565.559C424.278 565.559 423.548 564.986 423.548 564.279C423.548 563.573 424.278 563 425.177 563C426.077 563 426.806 563.573 426.806 564.279Z" fill="#D3D2F6"/>
<path d="M436.581 564.279C436.581 564.986 435.851 565.559 434.952 565.559C434.052 565.559 433.323 564.986 433.323 564.279C433.323 563.573 434.052 563 434.952 563C435.851 563 436.581 563.573 436.581 564.279Z" fill="#D3D2F6"/>
<path d="M446.355 564.279C446.355 564.986 445.625 565.559 444.726 565.559C443.826 565.559 443.097 564.986 443.097 564.279C443.097 563.573 443.826 563 444.726 563C445.625 563 446.355 563.573 446.355 564.279Z" fill="#D3D2F6"/>
<path d="M456.129 564.279C456.129 564.986 455.4 565.559 454.5 565.559C453.6 565.559 452.871 564.986 452.871 564.279C452.871 563.573 453.6 563 454.5 563C455.4 563 456.129 563.573 456.129 564.279Z" fill="#D3D2F6"/>
<path d="M465.903 564.279C465.903 564.986 465.174 565.559 464.274 565.559C463.375 565.559 462.645 564.986 462.645 564.279C462.645 563.573 463.375 563 464.274 563C465.174 563 465.903 563.573 465.903 564.279Z" fill="#D3D2F6"/>
<path d="M475.677 564.279C475.677 564.986 474.948 565.559 474.048 565.559C473.149 565.559 472.419 564.986 472.419 564.279C472.419 563.573 473.149 563 474.048 563C474.948 563 475.677 563.573 475.677 564.279Z" fill="#D3D2F6"/>
<path d="M485.452 564.279C485.452 564.986 484.722 565.559 483.823 565.559C482.923 565.559 482.194 564.986 482.194 564.279C482.194 563.573 482.923 563 483.823 563C484.722 563 485.452 563.573 485.452 564.279Z" fill="#D3D2F6"/>
<path d="M495.226 564.279C495.226 564.986 494.496 565.559 493.597 565.559C492.697 565.559 491.968 564.986 491.968 564.279C491.968 563.573 492.697 563 493.597 563C494.496 563 495.226 563.573 495.226 564.279Z" fill="#D3D2F6"/>
<path d="M505 564.279C505 564.986 504.271 565.559 503.371 565.559C502.471 565.559 501.742 564.986 501.742 564.279C501.742 563.573 502.471 563 503.371 563C504.271 563 505 563.573 505 564.279Z" fill="#D3D2F6"/>
<path d="M407.258 571.956C407.258 572.662 406.529 573.235 405.629 573.235C404.729 573.235 404 572.662 404 571.956C404 571.249 404.729 570.676 405.629 570.676C406.529 570.676 407.258 571.249 407.258 571.956Z" fill="#D3D2F6"/>
<path d="M417.032 571.956C417.032 572.662 416.303 573.235 415.403 573.235C414.504 573.235 413.774 572.662 413.774 571.956C413.774 571.249 414.504 570.676 415.403 570.676C416.303 570.676 417.032 571.249 417.032 571.956Z" fill="#D3D2F6"/>
<path d="M426.806 571.956C426.806 572.662 426.077 573.235 425.177 573.235C424.278 573.235 423.548 572.662 423.548 571.956C423.548 571.249 424.278 570.676 425.177 570.676C426.077 570.676 426.806 571.249 426.806 571.956Z" fill="#D3D2F6"/>
<path d="M436.581 571.956C436.581 572.662 435.851 573.235 434.952 573.235C434.052 573.235 433.323 572.662 433.323 571.956C433.323 571.249 434.052 570.676 434.952 570.676C435.851 570.676 436.581 571.249 436.581 571.956Z" fill="#D3D2F6"/>
<path d="M446.355 571.956C446.355 572.662 445.625 573.235 444.726 573.235C443.826 573.235 443.097 572.662 443.097 571.956C443.097 571.249 443.826 570.676 444.726 570.676C445.625 570.676 446.355 571.249 446.355 571.956Z" fill="#D3D2F6"/>
<path d="M456.129 571.956C456.129 572.662 455.4 573.235 454.5 573.235C453.6 573.235 452.871 572.662 452.871 571.956C452.871 571.249 453.6 570.676 454.5 570.676C455.4 570.676 456.129 571.249 456.129 571.956Z" fill="#D3D2F6"/>
<path d="M465.903 571.956C465.903 572.662 465.174 573.235 464.274 573.235C463.375 573.235 462.645 572.662 462.645 571.956C462.645 571.249 463.375 570.676 464.274 570.676C465.174 570.676 465.903 571.249 465.903 571.956Z" fill="#D3D2F6"/>
<path d="M475.677 571.956C475.677 572.662 474.948 573.235 474.048 573.235C473.149 573.235 472.419 572.662 472.419 571.956C472.419 571.249 473.149 570.676 474.048 570.676C474.948 570.676 475.677 571.249 475.677 571.956Z" fill="#D3D2F6"/>
<path d="M485.452 571.956C485.452 572.662 484.722 573.235 483.823 573.235C482.923 573.235 482.194 572.662 482.194 571.956C482.194 571.249 482.923 570.676 483.823 570.676C484.722 570.676 485.452 571.249 485.452 571.956Z" fill="#D3D2F6"/>
<path d="M495.226 571.956C495.226 572.662 494.496 573.235 493.597 573.235C492.697 573.235 491.968 572.662 491.968 571.956C491.968 571.249 492.697 570.676 493.597 570.676C494.496 570.676 495.226 571.249 495.226 571.956Z" fill="#D3D2F6"/>
<path d="M505 571.956C505 572.662 504.271 573.235 503.371 573.235C502.471 573.235 501.742 572.662 501.742 571.956C501.742 571.249 502.471 570.676 503.371 570.676C504.271 570.676 505 571.249 505 571.956Z" fill="#D3D2F6"/>
<path d="M407.258 579.632C407.258 580.339 406.529 580.912 405.629 580.912C404.729 580.912 404 580.339 404 579.632C404 578.926 404.729 578.353 405.629 578.353C406.529 578.353 407.258 578.926 407.258 579.632Z" fill="#D3D2F6"/>
<path d="M417.032 579.632C417.032 580.339 416.303 580.912 415.403 580.912C414.504 580.912 413.774 580.339 413.774 579.632C413.774 578.926 414.504 578.353 415.403 578.353C416.303 578.353 417.032 578.926 417.032 579.632Z" fill="#D3D2F6"/>
<path d="M426.806 579.632C426.806 580.339 426.077 580.912 425.177 580.912C424.278 580.912 423.548 580.339 423.548 579.632C423.548 578.926 424.278 578.353 425.177 578.353C426.077 578.353 426.806 578.926 426.806 579.632Z" fill="#D3D2F6"/>
<path d="M436.581 579.632C436.581 580.339 435.851 580.912 434.952 580.912C434.052 580.912 433.323 580.339 433.323 579.632C433.323 578.926 434.052 578.353 434.952 578.353C435.851 578.353 436.581 578.926 436.581 579.632Z" fill="#D3D2F6"/>
<path d="M446.355 579.632C446.355 580.339 445.625 580.912 444.726 580.912C443.826 580.912 443.097 580.339 443.097 579.632C443.097 578.926 443.826 578.353 444.726 578.353C445.625 578.353 446.355 578.926 446.355 579.632Z" fill="#D3D2F6"/>
<path d="M456.129 579.632C456.129 580.339 455.4 580.912 454.5 580.912C453.6 580.912 452.871 580.339 452.871 579.632C452.871 578.926 453.6 578.353 454.5 578.353C455.4 578.353 456.129 578.926 456.129 579.632Z" fill="#D3D2F6"/>
<path d="M465.903 579.632C465.903 580.339 465.174 580.912 464.274 580.912C463.375 580.912 462.645 580.339 462.645 579.632C462.645 578.926 463.375 578.353 464.274 578.353C465.174 578.353 465.903 578.926 465.903 579.632Z" fill="#D3D2F6"/>
<path d="M475.677 579.632C475.677 580.339 474.948 580.912 474.048 580.912C473.149 580.912 472.419 580.339 472.419 579.632C472.419 578.926 473.149 578.353 474.048 578.353C474.948 578.353 475.677 578.926 475.677 579.632Z" fill="#D3D2F6"/>
<path d="M485.452 579.632C485.452 580.339 484.722 580.912 483.823 580.912C482.923 580.912 482.194 580.339 482.194 579.632C482.194 578.926 482.923 578.353 483.823 578.353C484.722 578.353 485.452 578.926 485.452 579.632Z" fill="#D3D2F6"/>
<path d="M495.226 579.632C495.226 580.339 494.496 580.912 493.597 580.912C492.697 580.912 491.968 580.339 491.968 579.632C491.968 578.926 492.697 578.353 493.597 578.353C494.496 578.353 495.226 578.926 495.226 579.632Z" fill="#D3D2F6"/>
<path d="M505 579.632C505 580.339 504.271 580.912 503.371 580.912C502.471 580.912 501.742 580.339 501.742 579.632C501.742 578.926 502.471 578.353 503.371 578.353C504.271 578.353 505 578.926 505 579.632Z" fill="#D3D2F6"/>
<path d="M407.258 587.309C407.258 588.015 406.529 588.588 405.629 588.588C404.729 588.588 404 588.015 404 587.309C404 586.602 404.729 586.029 405.629 586.029C406.529 586.029 407.258 586.602 407.258 587.309Z" fill="#D3D2F6"/>
<path d="M417.032 587.309C417.032 588.015 416.303 588.588 415.403 588.588C414.504 588.588 413.774 588.015 413.774 587.309C413.774 586.602 414.504 586.029 415.403 586.029C416.303 586.029 417.032 586.602 417.032 587.309Z" fill="#D3D2F6"/>
<path d="M426.806 587.309C426.806 588.015 426.077 588.588 425.177 588.588C424.278 588.588 423.548 588.015 423.548 587.309C423.548 586.602 424.278 586.029 425.177 586.029C426.077 586.029 426.806 586.602 426.806 587.309Z" fill="#D3D2F6"/>
<path d="M436.581 587.309C436.581 588.015 435.851 588.588 434.952 588.588C434.052 588.588 433.323 588.015 433.323 587.309C433.323 586.602 434.052 586.029 434.952 586.029C435.851 586.029 436.581 586.602 436.581 587.309Z" fill="#D3D2F6"/>
<path d="M446.355 587.309C446.355 588.015 445.625 588.588 444.726 588.588C443.826 588.588 443.097 588.015 443.097 587.309C443.097 586.602 443.826 586.029 444.726 586.029C445.625 586.029 446.355 586.602 446.355 587.309Z" fill="#D3D2F6"/>
<path d="M456.129 587.309C456.129 588.015 455.4 588.588 454.5 588.588C453.6 588.588 452.871 588.015 452.871 587.309C452.871 586.602 453.6 586.029 454.5 586.029C455.4 586.029 456.129 586.602 456.129 587.309Z" fill="#D3D2F6"/>
<path d="M465.903 587.309C465.903 588.015 465.174 588.588 464.274 588.588C463.375 588.588 462.645 588.015 462.645 587.309C462.645 586.602 463.375 586.029 464.274 586.029C465.174 586.029 465.903 586.602 465.903 587.309Z" fill="#D3D2F6"/>
<path d="M475.677 587.309C475.677 588.015 474.948 588.588 474.048 588.588C473.149 588.588 472.419 588.015 472.419 587.309C472.419 586.602 473.149 586.029 474.048 586.029C474.948 586.029 475.677 586.602 475.677 587.309Z" fill="#D3D2F6"/>
<path d="M485.452 587.309C485.452 588.015 484.722 588.588 483.823 588.588C482.923 588.588 482.194 588.015 482.194 587.309C482.194 586.602 482.923 586.029 483.823 586.029C484.722 586.029 485.452 586.602 485.452 587.309Z" fill="#D3D2F6"/>
<path d="M495.226 587.309C495.226 588.015 494.496 588.588 493.597 588.588C492.697 588.588 491.968 588.015 491.968 587.309C491.968 586.602 492.697 586.029 493.597 586.029C494.496 586.029 495.226 586.602 495.226 587.309Z" fill="#D3D2F6"/>
<path d="M505 587.309C505 588.015 504.271 588.588 503.371 588.588C502.471 588.588 501.742 588.015 501.742 587.309C501.742 586.602 502.471 586.029 503.371 586.029C504.271 586.029 505 586.602 505 587.309Z" fill="#D3D2F6"/>
<path d="M407.258 594.985C407.258 595.692 406.529 596.265 405.629 596.265C404.729 596.265 404 595.692 404 594.985C404 594.279 404.729 593.706 405.629 593.706C406.529 593.706 407.258 594.279 407.258 594.985Z" fill="#D3D2F6"/>
<path d="M417.032 594.985C417.032 595.692 416.303 596.265 415.403 596.265C414.504 596.265 413.774 595.692 413.774 594.985C413.774 594.279 414.504 593.706 415.403 593.706C416.303 593.706 417.032 594.279 417.032 594.985Z" fill="#D3D2F6"/>
<path d="M426.806 594.985C426.806 595.692 426.077 596.265 425.177 596.265C424.278 596.265 423.548 595.692 423.548 594.985C423.548 594.279 424.278 593.706 425.177 593.706C426.077 593.706 426.806 594.279 426.806 594.985Z" fill="#D3D2F6"/>
<path d="M436.581 594.985C436.581 595.692 435.851 596.265 434.952 596.265C434.052 596.265 433.323 595.692 433.323 594.985C433.323 594.279 434.052 593.706 434.952 593.706C435.851 593.706 436.581 594.279 436.581 594.985Z" fill="#D3D2F6"/>
<path d="M446.355 594.985C446.355 595.692 445.625 596.265 444.726 596.265C443.826 596.265 443.097 595.692 443.097 594.985C443.097 594.279 443.826 593.706 444.726 593.706C445.625 593.706 446.355 594.279 446.355 594.985Z" fill="#D3D2F6"/>
<path d="M456.129 594.985C456.129 595.692 455.4 596.265 454.5 596.265C453.6 596.265 452.871 595.692 452.871 594.985C452.871 594.279 453.6 593.706 454.5 593.706C455.4 593.706 456.129 594.279 456.129 594.985Z" fill="#D3D2F6"/>
<path d="M465.903 594.985C465.903 595.692 465.174 596.265 464.274 596.265C463.375 596.265 462.645 595.692 462.645 594.985C462.645 594.279 463.375 593.706 464.274 593.706C465.174 593.706 465.903 594.279 465.903 594.985Z" fill="#D3D2F6"/>
<path d="M475.677 594.985C475.677 595.692 474.948 596.265 474.048 596.265C473.149 596.265 472.419 595.692 472.419 594.985C472.419 594.279 473.149 593.706 474.048 593.706C474.948 593.706 475.677 594.279 475.677 594.985Z" fill="#D3D2F6"/>
<path d="M485.452 594.985C485.452 595.692 484.722 596.265 483.823 596.265C482.923 596.265 482.194 595.692 482.194 594.985C482.194 594.279 482.923 593.706 483.823 593.706C484.722 593.706 485.452 594.279 485.452 594.985Z" fill="#D3D2F6"/>
<path d="M495.226 594.985C495.226 595.692 494.496 596.265 493.597 596.265C492.697 596.265 491.968 595.692 491.968 594.985C491.968 594.279 492.697 593.706 493.597 593.706C494.496 593.706 495.226 594.279 495.226 594.985Z" fill="#D3D2F6"/>
<path d="M505 594.985C505 595.692 504.271 596.265 503.371 596.265C502.471 596.265 501.742 595.692 501.742 594.985C501.742 594.279 502.471 593.706 503.371 593.706C504.271 593.706 505 594.279 505 594.985Z" fill="#D3D2F6"/>
<path d="M407.258 602.662C407.258 603.368 406.529 603.941 405.629 603.941C404.729 603.941 404 603.368 404 602.662C404 601.955 404.729 601.382 405.629 601.382C406.529 601.382 407.258 601.955 407.258 602.662Z" fill="#D3D2F6"/>
<path d="M417.032 602.662C417.032 603.368 416.303 603.941 415.403 603.941C414.504 603.941 413.774 603.368 413.774 602.662C413.774 601.955 414.504 601.382 415.403 601.382C416.303 601.382 417.032 601.955 417.032 602.662Z" fill="#D3D2F6"/>
<path d="M426.806 602.662C426.806 603.368 426.077 603.941 425.177 603.941C424.278 603.941 423.548 603.368 423.548 602.662C423.548 601.955 424.278 601.382 425.177 601.382C426.077 601.382 426.806 601.955 426.806 602.662Z" fill="#D3D2F6"/>
<path d="M436.581 602.662C436.581 603.368 435.851 603.941 434.952 603.941C434.052 603.941 433.323 603.368 433.323 602.662C433.323 601.955 434.052 601.382 434.952 601.382C435.851 601.382 436.581 601.955 436.581 602.662Z" fill="#D3D2F6"/>
<path d="M446.355 602.662C446.355 603.368 445.625 603.941 444.726 603.941C443.826 603.941 443.097 603.368 443.097 602.662C443.097 601.955 443.826 601.382 444.726 601.382C445.625 601.382 446.355 601.955 446.355 602.662Z" fill="#D3D2F6"/>
<path d="M456.129 602.662C456.129 603.368 455.4 603.941 454.5 603.941C453.6 603.941 452.871 603.368 452.871 602.662C452.871 601.955 453.6 601.382 454.5 601.382C455.4 601.382 456.129 601.955 456.129 602.662Z" fill="#D3D2F6"/>
<path d="M465.903 602.662C465.903 603.368 465.174 603.941 464.274 603.941C463.375 603.941 462.645 603.368 462.645 602.662C462.645 601.955 463.375 601.382 464.274 601.382C465.174 601.382 465.903 601.955 465.903 602.662Z" fill="#D3D2F6"/>
<path d="M475.677 602.662C475.677 603.368 474.948 603.941 474.048 603.941C473.149 603.941 472.419 603.368 472.419 602.662C472.419 601.955 473.149 601.382 474.048 601.382C474.948 601.382 475.677 601.955 475.677 602.662Z" fill="#D3D2F6"/>
<path d="M485.452 602.662C485.452 603.368 484.722 603.941 483.823 603.941C482.923 603.941 482.194 603.368 482.194 602.662C482.194 601.955 482.923 601.382 483.823 601.382C484.722 601.382 485.452 601.955 485.452 602.662Z" fill="#D3D2F6"/>
<path d="M495.226 602.662C495.226 603.368 494.496 603.941 493.597 603.941C492.697 603.941 491.968 603.368 491.968 602.662C491.968 601.955 492.697 601.382 493.597 601.382C494.496 601.382 495.226 601.955 495.226 602.662Z" fill="#D3D2F6"/>
<path d="M505 602.662C505 603.368 504.271 603.941 503.371 603.941C502.471 603.941 501.742 603.368 501.742 602.662C501.742 601.955 502.471 601.382 503.371 601.382C504.271 601.382 505 601.955 505 602.662Z" fill="#D3D2F6"/>
<path d="M407.258 610.338C407.258 611.045 406.529 611.618 405.629 611.618C404.729 611.618 404 611.045 404 610.338C404 609.632 404.729 609.059 405.629 609.059C406.529 609.059 407.258 609.632 407.258 610.338Z" fill="#D3D2F6"/>
<path d="M417.032 610.338C417.032 611.045 416.303 611.618 415.403 611.618C414.504 611.618 413.774 611.045 413.774 610.338C413.774 609.632 414.504 609.059 415.403 609.059C416.303 609.059 417.032 609.632 417.032 610.338Z" fill="#D3D2F6"/>
<path d="M426.806 610.338C426.806 611.045 426.077 611.618 425.177 611.618C424.278 611.618 423.548 611.045 423.548 610.338C423.548 609.632 424.278 609.059 425.177 609.059C426.077 609.059 426.806 609.632 426.806 610.338Z" fill="#D3D2F6"/>
<path d="M436.581 610.338C436.581 611.045 435.851 611.618 434.952 611.618C434.052 611.618 433.323 611.045 433.323 610.338C433.323 609.632 434.052 609.059 434.952 609.059C435.851 609.059 436.581 609.632 436.581 610.338Z" fill="#D3D2F6"/>
<path d="M446.355 610.338C446.355 611.045 445.625 611.618 444.726 611.618C443.826 611.618 443.097 611.045 443.097 610.338C443.097 609.632 443.826 609.059 444.726 609.059C445.625 609.059 446.355 609.632 446.355 610.338Z" fill="#D3D2F6"/>
<path d="M456.129 610.338C456.129 611.045 455.4 611.618 454.5 611.618C453.6 611.618 452.871 611.045 452.871 610.338C452.871 609.632 453.6 609.059 454.5 609.059C455.4 609.059 456.129 609.632 456.129 610.338Z" fill="#D3D2F6"/>
<path d="M465.903 610.338C465.903 611.045 465.174 611.618 464.274 611.618C463.375 611.618 462.645 611.045 462.645 610.338C462.645 609.632 463.375 609.059 464.274 609.059C465.174 609.059 465.903 609.632 465.903 610.338Z" fill="#D3D2F6"/>
<path d="M475.677 610.338C475.677 611.045 474.948 611.618 474.048 611.618C473.149 611.618 472.419 611.045 472.419 610.338C472.419 609.632 473.149 609.059 474.048 609.059C474.948 609.059 475.677 609.632 475.677 610.338Z" fill="#D3D2F6"/>
<path d="M485.452 610.338C485.452 611.045 484.722 611.618 483.823 611.618C482.923 611.618 482.194 611.045 482.194 610.338C482.194 609.632 482.923 609.059 483.823 609.059C484.722 609.059 485.452 609.632 485.452 610.338Z" fill="#D3D2F6"/>
<path d="M495.226 610.338C495.226 611.045 494.496 611.618 493.597 611.618C492.697 611.618 491.968 611.045 491.968 610.338C491.968 609.632 492.697 609.059 493.597 609.059C494.496 609.059 495.226 609.632 495.226 610.338Z" fill="#D3D2F6"/>
<path d="M505 610.338C505 611.045 504.271 611.618 503.371 611.618C502.471 611.618 501.742 611.045 501.742 610.338C501.742 609.632 502.471 609.059 503.371 609.059C504.271 609.059 505 609.632 505 610.338Z" fill="#D3D2F6"/>
<path d="M407.258 618.015C407.258 618.721 406.529 619.294 405.629 619.294C404.729 619.294 404 618.721 404 618.015C404 617.308 404.729 616.735 405.629 616.735C406.529 616.735 407.258 617.308 407.258 618.015Z" fill="#D3D2F6"/>
<path d="M417.032 618.015C417.032 618.721 416.303 619.294 415.403 619.294C414.504 619.294 413.774 618.721 413.774 618.015C413.774 617.308 414.504 616.735 415.403 616.735C416.303 616.735 417.032 617.308 417.032 618.015Z" fill="#D3D2F6"/>
<path d="M426.806 618.015C426.806 618.721 426.077 619.294 425.177 619.294C424.278 619.294 423.548 618.721 423.548 618.015C423.548 617.308 424.278 616.735 425.177 616.735C426.077 616.735 426.806 617.308 426.806 618.015Z" fill="#D3D2F6"/>
<path d="M436.581 618.015C436.581 618.721 435.851 619.294 434.952 619.294C434.052 619.294 433.323 618.721 433.323 618.015C433.323 617.308 434.052 616.735 434.952 616.735C435.851 616.735 436.581 617.308 436.581 618.015Z" fill="#D3D2F6"/>
<path d="M446.355 618.015C446.355 618.721 445.625 619.294 444.726 619.294C443.826 619.294 443.097 618.721 443.097 618.015C443.097 617.308 443.826 616.735 444.726 616.735C445.625 616.735 446.355 617.308 446.355 618.015Z" fill="#D3D2F6"/>
<path d="M456.129 618.015C456.129 618.721 455.4 619.294 454.5 619.294C453.6 619.294 452.871 618.721 452.871 618.015C452.871 617.308 453.6 616.735 454.5 616.735C455.4 616.735 456.129 617.308 456.129 618.015Z" fill="#D3D2F6"/>
<path d="M465.903 618.015C465.903 618.721 465.174 619.294 464.274 619.294C463.375 619.294 462.645 618.721 462.645 618.015C462.645 617.308 463.375 616.735 464.274 616.735C465.174 616.735 465.903 617.308 465.903 618.015Z" fill="#D3D2F6"/>
<path d="M475.677 618.015C475.677 618.721 474.948 619.294 474.048 619.294C473.149 619.294 472.419 618.721 472.419 618.015C472.419 617.308 473.149 616.735 474.048 616.735C474.948 616.735 475.677 617.308 475.677 618.015Z" fill="#D3D2F6"/>
<path d="M485.452 618.015C485.452 618.721 484.722 619.294 483.823 619.294C482.923 619.294 482.194 618.721 482.194 618.015C482.194 617.308 482.923 616.735 483.823 616.735C484.722 616.735 485.452 617.308 485.452 618.015Z" fill="#D3D2F6"/>
<path d="M495.226 618.015C495.226 618.721 494.496 619.294 493.597 619.294C492.697 619.294 491.968 618.721 491.968 618.015C491.968 617.308 492.697 616.735 493.597 616.735C494.496 616.735 495.226 617.308 495.226 618.015Z" fill="#D3D2F6"/>
<path d="M505 618.015C505 618.721 504.271 619.294 503.371 619.294C502.471 619.294 501.742 618.721 501.742 618.015C501.742 617.308 502.471 616.735 503.371 616.735C504.271 616.735 505 617.308 505 618.015Z" fill="#D3D2F6"/>
<path d="M407.258 625.691C407.258 626.398 406.529 626.971 405.629 626.971C404.729 626.971 404 626.398 404 625.691C404 624.985 404.729 624.412 405.629 624.412C406.529 624.412 407.258 624.985 407.258 625.691Z" fill="#D3D2F6"/>
<path d="M417.032 625.691C417.032 626.398 416.303 626.971 415.403 626.971C414.504 626.971 413.774 626.398 413.774 625.691C413.774 624.985 414.504 624.412 415.403 624.412C416.303 624.412 417.032 624.985 417.032 625.691Z" fill="#D3D2F6"/>
<path d="M426.806 625.691C426.806 626.398 426.077 626.971 425.177 626.971C424.278 626.971 423.548 626.398 423.548 625.691C423.548 624.985 424.278 624.412 425.177 624.412C426.077 624.412 426.806 624.985 426.806 625.691Z" fill="#D3D2F6"/>
<path d="M436.581 625.691C436.581 626.398 435.851 626.971 434.952 626.971C434.052 626.971 433.323 626.398 433.323 625.691C433.323 624.985 434.052 624.412 434.952 624.412C435.851 624.412 436.581 624.985 436.581 625.691Z" fill="#D3D2F6"/>
<path d="M446.355 625.691C446.355 626.398 445.625 626.971 444.726 626.971C443.826 626.971 443.097 626.398 443.097 625.691C443.097 624.985 443.826 624.412 444.726 624.412C445.625 624.412 446.355 624.985 446.355 625.691Z" fill="#D3D2F6"/>
<path d="M456.129 625.691C456.129 626.398 455.4 626.971 454.5 626.971C453.6 626.971 452.871 626.398 452.871 625.691C452.871 624.985 453.6 624.412 454.5 624.412C455.4 624.412 456.129 624.985 456.129 625.691Z" fill="#D3D2F6"/>
<path d="M465.903 625.691C465.903 626.398 465.174 626.971 464.274 626.971C463.375 626.971 462.645 626.398 462.645 625.691C462.645 624.985 463.375 624.412 464.274 624.412C465.174 624.412 465.903 624.985 465.903 625.691Z" fill="#D3D2F6"/>
<path d="M475.677 625.691C475.677 626.398 474.948 626.971 474.048 626.971C473.149 626.971 472.419 626.398 472.419 625.691C472.419 624.985 473.149 624.412 474.048 624.412C474.948 624.412 475.677 624.985 475.677 625.691Z" fill="#D3D2F6"/>
<path d="M485.452 625.691C485.452 626.398 484.722 626.971 483.823 626.971C482.923 626.971 482.194 626.398 482.194 625.691C482.194 624.985 482.923 624.412 483.823 624.412C484.722 624.412 485.452 624.985 485.452 625.691Z" fill="#D3D2F6"/>
<path d="M495.226 625.691C495.226 626.398 494.496 626.971 493.597 626.971C492.697 626.971 491.968 626.398 491.968 625.691C491.968 624.985 492.697 624.412 493.597 624.412C494.496 624.412 495.226 624.985 495.226 625.691Z" fill="#D3D2F6"/>
<path d="M505 625.691C505 626.398 504.271 626.971 503.371 626.971C502.471 626.971 501.742 626.398 501.742 625.691C501.742 624.985 502.471 624.412 503.371 624.412C504.271 624.412 505 624.985 505 625.691Z" fill="#D3D2F6"/>
<path d="M407.258 633.368C407.258 634.074 406.529 634.647 405.629 634.647C404.729 634.647 404 634.074 404 633.368C404 632.661 404.729 632.088 405.629 632.088C406.529 632.088 407.258 632.661 407.258 633.368Z" fill="#D3D2F6"/>
<path d="M417.032 633.368C417.032 634.074 416.303 634.647 415.403 634.647C414.504 634.647 413.774 634.074 413.774 633.368C413.774 632.661 414.504 632.088 415.403 632.088C416.303 632.088 417.032 632.661 417.032 633.368Z" fill="#D3D2F6"/>
<path d="M426.806 633.368C426.806 634.074 426.077 634.647 425.177 634.647C424.278 634.647 423.548 634.074 423.548 633.368C423.548 632.661 424.278 632.088 425.177 632.088C426.077 632.088 426.806 632.661 426.806 633.368Z" fill="#D3D2F6"/>
<path d="M436.581 633.368C436.581 634.074 435.851 634.647 434.952 634.647C434.052 634.647 433.323 634.074 433.323 633.368C433.323 632.661 434.052 632.088 434.952 632.088C435.851 632.088 436.581 632.661 436.581 633.368Z" fill="#D3D2F6"/>
<path d="M446.355 633.368C446.355 634.074 445.625 634.647 444.726 634.647C443.826 634.647 443.097 634.074 443.097 633.368C443.097 632.661 443.826 632.088 444.726 632.088C445.625 632.088 446.355 632.661 446.355 633.368Z" fill="#D3D2F6"/>
<path d="M456.129 633.368C456.129 634.074 455.4 634.647 454.5 634.647C453.6 634.647 452.871 634.074 452.871 633.368C452.871 632.661 453.6 632.088 454.5 632.088C455.4 632.088 456.129 632.661 456.129 633.368Z" fill="#D3D2F6"/>
<path d="M465.903 633.368C465.903 634.074 465.174 634.647 464.274 634.647C463.375 634.647 462.645 634.074 462.645 633.368C462.645 632.661 463.375 632.088 464.274 632.088C465.174 632.088 465.903 632.661 465.903 633.368Z" fill="#D3D2F6"/>
<path d="M475.677 633.368C475.677 634.074 474.948 634.647 474.048 634.647C473.149 634.647 472.419 634.074 472.419 633.368C472.419 632.661 473.149 632.088 474.048 632.088C474.948 632.088 475.677 632.661 475.677 633.368Z" fill="#D3D2F6"/>
<path d="M485.452 633.368C485.452 634.074 484.722 634.647 483.823 634.647C482.923 634.647 482.194 634.074 482.194 633.368C482.194 632.661 482.923 632.088 483.823 632.088C484.722 632.088 485.452 632.661 485.452 633.368Z" fill="#D3D2F6"/>
<path d="M495.226 633.368C495.226 634.074 494.496 634.647 493.597 634.647C492.697 634.647 491.968 634.074 491.968 633.368C491.968 632.661 492.697 632.088 493.597 632.088C494.496 632.088 495.226 632.661 495.226 633.368Z" fill="#D3D2F6"/>
<path d="M505 633.368C505 634.074 504.271 634.647 503.371 634.647C502.471 634.647 501.742 634.074 501.742 633.368C501.742 632.661 502.471 632.088 503.371 632.088C504.271 632.088 505 632.661 505 633.368Z" fill="#D3D2F6"/>
<path d="M407.258 641.044C407.258 641.751 406.529 642.324 405.629 642.324C404.729 642.324 404 641.751 404 641.044C404 640.338 404.729 639.765 405.629 639.765C406.529 639.765 407.258 640.338 407.258 641.044Z" fill="#D3D2F6"/>
<path d="M417.032 641.044C417.032 641.751 416.303 642.324 415.403 642.324C414.504 642.324 413.774 641.751 413.774 641.044C413.774 640.338 414.504 639.765 415.403 639.765C416.303 639.765 417.032 640.338 417.032 641.044Z" fill="#D3D2F6"/>
<path d="M426.806 641.044C426.806 641.751 426.077 642.324 425.177 642.324C424.278 642.324 423.548 641.751 423.548 641.044C423.548 640.338 424.278 639.765 425.177 639.765C426.077 639.765 426.806 640.338 426.806 641.044Z" fill="#D3D2F6"/>
<path d="M436.581 641.044C436.581 641.751 435.851 642.324 434.952 642.324C434.052 642.324 433.323 641.751 433.323 641.044C433.323 640.338 434.052 639.765 434.952 639.765C435.851 639.765 436.581 640.338 436.581 641.044Z" fill="#D3D2F6"/>
<path d="M446.355 641.044C446.355 641.751 445.625 642.324 444.726 642.324C443.826 642.324 443.097 641.751 443.097 641.044C443.097 640.338 443.826 639.765 444.726 639.765C445.625 639.765 446.355 640.338 446.355 641.044Z" fill="#D3D2F6"/>
<path d="M456.129 641.044C456.129 641.751 455.4 642.324 454.5 642.324C453.6 642.324 452.871 641.751 452.871 641.044C452.871 640.338 453.6 639.765 454.5 639.765C455.4 639.765 456.129 640.338 456.129 641.044Z" fill="#D3D2F6"/>
<path d="M465.903 641.044C465.903 641.751 465.174 642.324 464.274 642.324C463.375 642.324 462.645 641.751 462.645 641.044C462.645 640.338 463.375 639.765 464.274 639.765C465.174 639.765 465.903 640.338 465.903 641.044Z" fill="#D3D2F6"/>
<path d="M475.677 641.044C475.677 641.751 474.948 642.324 474.048 642.324C473.149 642.324 472.419 641.751 472.419 641.044C472.419 640.338 473.149 639.765 474.048 639.765C474.948 639.765 475.677 640.338 475.677 641.044Z" fill="#D3D2F6"/>
<path d="M485.452 641.044C485.452 641.751 484.722 642.324 483.823 642.324C482.923 642.324 482.194 641.751 482.194 641.044C482.194 640.338 482.923 639.765 483.823 639.765C484.722 639.765 485.452 640.338 485.452 641.044Z" fill="#D3D2F6"/>
<path d="M495.226 641.044C495.226 641.751 494.496 642.324 493.597 642.324C492.697 642.324 491.968 641.751 491.968 641.044C491.968 640.338 492.697 639.765 493.597 639.765C494.496 639.765 495.226 640.338 495.226 641.044Z" fill="#D3D2F6"/>
<path d="M505 641.044C505 641.751 504.271 642.324 503.371 642.324C502.471 642.324 501.742 641.751 501.742 641.044C501.742 640.338 502.471 639.765 503.371 639.765C504.271 639.765 505 640.338 505 641.044Z" fill="#D3D2F6"/>
<path d="M407.258 648.721C407.258 649.427 406.529 650 405.629 650C404.729 650 404 649.427 404 648.721C404 648.014 404.729 647.441 405.629 647.441C406.529 647.441 407.258 648.014 407.258 648.721Z" fill="#D3D2F6"/>
<path d="M417.032 648.721C417.032 649.427 416.303 650 415.403 650C414.504 650 413.774 649.427 413.774 648.721C413.774 648.014 414.504 647.441 415.403 647.441C416.303 647.441 417.032 648.014 417.032 648.721Z" fill="#D3D2F6"/>
<path d="M426.806 648.721C426.806 649.427 426.077 650 425.177 650C424.278 650 423.548 649.427 423.548 648.721C423.548 648.014 424.278 647.441 425.177 647.441C426.077 647.441 426.806 648.014 426.806 648.721Z" fill="#D3D2F6"/>
<path d="M436.581 648.721C436.581 649.427 435.851 650 434.952 650C434.052 650 433.323 649.427 433.323 648.721C433.323 648.014 434.052 647.441 434.952 647.441C435.851 647.441 436.581 648.014 436.581 648.721Z" fill="#D3D2F6"/>
<path d="M446.355 648.721C446.355 649.427 445.625 650 444.726 650C443.826 650 443.097 649.427 443.097 648.721C443.097 648.014 443.826 647.441 444.726 647.441C445.625 647.441 446.355 648.014 446.355 648.721Z" fill="#D3D2F6"/>
<path d="M456.129 648.721C456.129 649.427 455.4 650 454.5 650C453.6 650 452.871 649.427 452.871 648.721C452.871 648.014 453.6 647.441 454.5 647.441C455.4 647.441 456.129 648.014 456.129 648.721Z" fill="#D3D2F6"/>
<path d="M465.903 648.721C465.903 649.427 465.174 650 464.274 650C463.375 650 462.645 649.427 462.645 648.721C462.645 648.014 463.375 647.441 464.274 647.441C465.174 647.441 465.903 648.014 465.903 648.721Z" fill="#D3D2F6"/>
<path d="M475.677 648.721C475.677 649.427 474.948 650 474.048 650C473.149 650 472.419 649.427 472.419 648.721C472.419 648.014 473.149 647.441 474.048 647.441C474.948 647.441 475.677 648.014 475.677 648.721Z" fill="#D3D2F6"/>
<path d="M485.452 648.721C485.452 649.427 484.722 650 483.823 650C482.923 650 482.194 649.427 482.194 648.721C482.194 648.014 482.923 647.441 483.823 647.441C484.722 647.441 485.452 648.014 485.452 648.721Z" fill="#D3D2F6"/>
<path d="M495.226 648.721C495.226 649.427 494.496 650 493.597 650C492.697 650 491.968 649.427 491.968 648.721C491.968 648.014 492.697 647.441 493.597 647.441C494.496 647.441 495.226 648.014 495.226 648.721Z" fill="#D3D2F6"/>
<path d="M505 648.721C505 649.427 504.271 650 503.371 650C502.471 650 501.742 649.427 501.742 648.721C501.742 648.014 502.471 647.441 503.371 647.441C504.271 647.441 505 648.014 505 648.721Z" fill="#D3D2F6"/>
<circle cx="509" cy="604" r="20" fill="#D9D8F7"/>
</svg>
