<svg width="425" height="1313" viewBox="0 0 425 1313" fill="none" xmlns="http://www.w3.org/2000/svg">
<circle cx="100" cy="788" r="100" fill="#EAEAF7"/>
<circle cx="385" cy="414" r="40" fill="#D9D8F7"/>
<path d="M69.5484 1.70588C69.5484 2.64802 68.5302 3.41176 67.2742 3.41176C66.0182 3.41176 65 2.64802 65 1.70588C65 0.76375 66.0182 0 67.2742 0C68.5302 0 69.5484 0.76375 69.5484 1.70588Z" fill="#D3D2F6"/>
<path d="M83.1935 1.70588C83.1935 2.64802 82.1754 3.41176 80.9194 3.41176C79.6634 3.41176 78.6452 2.64802 78.6452 1.70588C78.6452 0.76375 79.6634 0 80.9194 0C82.1754 0 83.1935 0.76375 83.1935 1.70588Z" fill="#D3D2F6"/>
<path d="M96.8387 1.70588C96.8387 2.64802 95.8205 3.41176 94.5645 3.41176C93.3085 3.41176 92.2903 2.64802 92.2903 1.70588C92.2903 0.76375 93.3085 0 94.5645 0C95.8205 0 96.8387 0.76375 96.8387 1.70588Z" fill="#D3D2F6"/>
<path d="M110.484 1.70588C110.484 2.64802 109.466 3.41176 108.21 3.41176C106.954 3.41176 105.935 2.64802 105.935 1.70588C105.935 0.76375 106.954 0 108.21 0C109.466 0 110.484 0.76375 110.484 1.70588Z" fill="#D3D2F6"/>
<path d="M124.129 1.70588C124.129 2.64802 123.111 3.41176 121.855 3.41176C120.599 3.41176 119.581 2.64802 119.581 1.70588C119.581 0.76375 120.599 0 121.855 0C123.111 0 124.129 0.76375 124.129 1.70588Z" fill="#D3D2F6"/>
<path d="M137.774 1.70588C137.774 2.64802 136.756 3.41176 135.5 3.41176C134.244 3.41176 133.226 2.64802 133.226 1.70588C133.226 0.76375 134.244 0 135.5 0C136.756 0 137.774 0.76375 137.774 1.70588Z" fill="#D3D2F6"/>
<path d="M151.419 1.70588C151.419 2.64802 150.401 3.41176 149.145 3.41176C147.889 3.41176 146.871 2.64802 146.871 1.70588C146.871 0.76375 147.889 0 149.145 0C150.401 0 151.419 0.76375 151.419 1.70588Z" fill="#D3D2F6"/>
<path d="M165.065 1.70588C165.065 2.64802 164.046 3.41176 162.79 3.41176C161.534 3.41176 160.516 2.64802 160.516 1.70588C160.516 0.76375 161.534 0 162.79 0C164.046 0 165.065 0.76375 165.065 1.70588Z" fill="#D3D2F6"/>
<path d="M178.71 1.70588C178.71 2.64802 177.691 3.41176 176.435 3.41176C175.179 3.41176 174.161 2.64802 174.161 1.70588C174.161 0.76375 175.179 0 176.435 0C177.691 0 178.71 0.76375 178.71 1.70588Z" fill="#D3D2F6"/>
<path d="M192.355 1.70588C192.355 2.64802 191.337 3.41176 190.081 3.41176C188.825 3.41176 187.806 2.64802 187.806 1.70588C187.806 0.76375 188.825 0 190.081 0C191.337 0 192.355 0.76375 192.355 1.70588Z" fill="#D3D2F6"/>
<path d="M206 1.70588C206 2.64802 204.982 3.41176 203.726 3.41176C202.47 3.41176 201.452 2.64802 201.452 1.70588C201.452 0.76375 202.47 0 203.726 0C204.982 0 206 0.76375 206 1.70588Z" fill="#D3D2F6"/>
<path d="M69.5484 11.9412C69.5484 12.8833 68.5302 13.6471 67.2742 13.6471C66.0182 13.6471 65 12.8833 65 11.9412C65 10.999 66.0182 10.2353 67.2742 10.2353C68.5302 10.2353 69.5484 10.999 69.5484 11.9412Z" fill="#D3D2F6"/>
<path d="M83.1935 11.9412C83.1935 12.8833 82.1754 13.6471 80.9194 13.6471C79.6634 13.6471 78.6452 12.8833 78.6452 11.9412C78.6452 10.999 79.6634 10.2353 80.9194 10.2353C82.1754 10.2353 83.1935 10.999 83.1935 11.9412Z" fill="#D3D2F6"/>
<path d="M96.8387 11.9412C96.8387 12.8833 95.8205 13.6471 94.5645 13.6471C93.3085 13.6471 92.2903 12.8833 92.2903 11.9412C92.2903 10.999 93.3085 10.2353 94.5645 10.2353C95.8205 10.2353 96.8387 10.999 96.8387 11.9412Z" fill="#D3D2F6"/>
<path d="M110.484 11.9412C110.484 12.8833 109.466 13.6471 108.21 13.6471C106.954 13.6471 105.935 12.8833 105.935 11.9412C105.935 10.999 106.954 10.2353 108.21 10.2353C109.466 10.2353 110.484 10.999 110.484 11.9412Z" fill="#D3D2F6"/>
<path d="M124.129 11.9412C124.129 12.8833 123.111 13.6471 121.855 13.6471C120.599 13.6471 119.581 12.8833 119.581 11.9412C119.581 10.999 120.599 10.2353 121.855 10.2353C123.111 10.2353 124.129 10.999 124.129 11.9412Z" fill="#D3D2F6"/>
<path d="M137.774 11.9412C137.774 12.8833 136.756 13.6471 135.5 13.6471C134.244 13.6471 133.226 12.8833 133.226 11.9412C133.226 10.999 134.244 10.2353 135.5 10.2353C136.756 10.2353 137.774 10.999 137.774 11.9412Z" fill="#D3D2F6"/>
<path d="M151.419 11.9412C151.419 12.8833 150.401 13.6471 149.145 13.6471C147.889 13.6471 146.871 12.8833 146.871 11.9412C146.871 10.999 147.889 10.2353 149.145 10.2353C150.401 10.2353 151.419 10.999 151.419 11.9412Z" fill="#D3D2F6"/>
<path d="M165.065 11.9412C165.065 12.8833 164.046 13.6471 162.79 13.6471C161.534 13.6471 160.516 12.8833 160.516 11.9412C160.516 10.999 161.534 10.2353 162.79 10.2353C164.046 10.2353 165.065 10.999 165.065 11.9412Z" fill="#D3D2F6"/>
<path d="M178.71 11.9412C178.71 12.8833 177.691 13.6471 176.435 13.6471C175.179 13.6471 174.161 12.8833 174.161 11.9412C174.161 10.999 175.179 10.2353 176.435 10.2353C177.691 10.2353 178.71 10.999 178.71 11.9412Z" fill="#D3D2F6"/>
<path d="M192.355 11.9412C192.355 12.8833 191.337 13.6471 190.081 13.6471C188.825 13.6471 187.806 12.8833 187.806 11.9412C187.806 10.999 188.825 10.2353 190.081 10.2353C191.337 10.2353 192.355 10.999 192.355 11.9412Z" fill="#D3D2F6"/>
<path d="M206 11.9412C206 12.8833 204.982 13.6471 203.726 13.6471C202.47 13.6471 201.452 12.8833 201.452 11.9412C201.452 10.999 202.47 10.2353 203.726 10.2353C204.982 10.2353 206 10.999 206 11.9412Z" fill="#D3D2F6"/>
<path d="M69.5484 22.1765C69.5484 23.1186 68.5302 23.8824 67.2742 23.8824C66.0182 23.8824 65 23.1186 65 22.1765C65 21.2343 66.0182 20.4706 67.2742 20.4706C68.5302 20.4706 69.5484 21.2343 69.5484 22.1765Z" fill="#D3D2F6"/>
<path d="M83.1935 22.1765C83.1935 23.1186 82.1754 23.8824 80.9194 23.8824C79.6634 23.8824 78.6452 23.1186 78.6452 22.1765C78.6452 21.2343 79.6634 20.4706 80.9194 20.4706C82.1754 20.4706 83.1935 21.2343 83.1935 22.1765Z" fill="#D3D2F6"/>
<path d="M96.8387 22.1765C96.8387 23.1186 95.8205 23.8824 94.5645 23.8824C93.3085 23.8824 92.2903 23.1186 92.2903 22.1765C92.2903 21.2343 93.3085 20.4706 94.5645 20.4706C95.8205 20.4706 96.8387 21.2343 96.8387 22.1765Z" fill="#D3D2F6"/>
<path d="M110.484 22.1765C110.484 23.1186 109.466 23.8824 108.21 23.8824C106.954 23.8824 105.935 23.1186 105.935 22.1765C105.935 21.2343 106.954 20.4706 108.21 20.4706C109.466 20.4706 110.484 21.2343 110.484 22.1765Z" fill="#D3D2F6"/>
<path d="M124.129 22.1765C124.129 23.1186 123.111 23.8824 121.855 23.8824C120.599 23.8824 119.581 23.1186 119.581 22.1765C119.581 21.2343 120.599 20.4706 121.855 20.4706C123.111 20.4706 124.129 21.2343 124.129 22.1765Z" fill="#D3D2F6"/>
<path d="M137.774 22.1765C137.774 23.1186 136.756 23.8824 135.5 23.8824C134.244 23.8824 133.226 23.1186 133.226 22.1765C133.226 21.2343 134.244 20.4706 135.5 20.4706C136.756 20.4706 137.774 21.2343 137.774 22.1765Z" fill="#D3D2F6"/>
<path d="M151.419 22.1765C151.419 23.1186 150.401 23.8824 149.145 23.8824C147.889 23.8824 146.871 23.1186 146.871 22.1765C146.871 21.2343 147.889 20.4706 149.145 20.4706C150.401 20.4706 151.419 21.2343 151.419 22.1765Z" fill="#D3D2F6"/>
<path d="M165.065 22.1765C165.065 23.1186 164.046 23.8824 162.79 23.8824C161.534 23.8824 160.516 23.1186 160.516 22.1765C160.516 21.2343 161.534 20.4706 162.79 20.4706C164.046 20.4706 165.065 21.2343 165.065 22.1765Z" fill="#D3D2F6"/>
<path d="M178.71 22.1765C178.71 23.1186 177.691 23.8824 176.435 23.8824C175.179 23.8824 174.161 23.1186 174.161 22.1765C174.161 21.2343 175.179 20.4706 176.435 20.4706C177.691 20.4706 178.71 21.2343 178.71 22.1765Z" fill="#D3D2F6"/>
<path d="M192.355 22.1765C192.355 23.1186 191.337 23.8824 190.081 23.8824C188.825 23.8824 187.806 23.1186 187.806 22.1765C187.806 21.2343 188.825 20.4706 190.081 20.4706C191.337 20.4706 192.355 21.2343 192.355 22.1765Z" fill="#D3D2F6"/>
<path d="M206 22.1765C206 23.1186 204.982 23.8824 203.726 23.8824C202.47 23.8824 201.452 23.1186 201.452 22.1765C201.452 21.2343 202.47 20.4706 203.726 20.4706C204.982 20.4706 206 21.2343 206 22.1765Z" fill="#D3D2F6"/>
<path d="M69.5484 32.4118C69.5484 33.3539 68.5302 34.1176 67.2742 34.1176C66.0182 34.1176 65 33.3539 65 32.4118C65 31.4696 66.0182 30.7059 67.2742 30.7059C68.5302 30.7059 69.5484 31.4696 69.5484 32.4118Z" fill="#D3D2F6"/>
<path d="M83.1935 32.4118C83.1935 33.3539 82.1754 34.1176 80.9194 34.1176C79.6634 34.1176 78.6452 33.3539 78.6452 32.4118C78.6452 31.4696 79.6634 30.7059 80.9194 30.7059C82.1754 30.7059 83.1935 31.4696 83.1935 32.4118Z" fill="#D3D2F6"/>
<path d="M96.8387 32.4118C96.8387 33.3539 95.8205 34.1176 94.5645 34.1176C93.3085 34.1176 92.2903 33.3539 92.2903 32.4118C92.2903 31.4696 93.3085 30.7059 94.5645 30.7059C95.8205 30.7059 96.8387 31.4696 96.8387 32.4118Z" fill="#D3D2F6"/>
<path d="M110.484 32.4118C110.484 33.3539 109.466 34.1176 108.21 34.1176C106.954 34.1176 105.935 33.3539 105.935 32.4118C105.935 31.4696 106.954 30.7059 108.21 30.7059C109.466 30.7059 110.484 31.4696 110.484 32.4118Z" fill="#D3D2F6"/>
<path d="M124.129 32.4118C124.129 33.3539 123.111 34.1176 121.855 34.1176C120.599 34.1176 119.581 33.3539 119.581 32.4118C119.581 31.4696 120.599 30.7059 121.855 30.7059C123.111 30.7059 124.129 31.4696 124.129 32.4118Z" fill="#D3D2F6"/>
<path d="M137.774 32.4118C137.774 33.3539 136.756 34.1176 135.5 34.1176C134.244 34.1176 133.226 33.3539 133.226 32.4118C133.226 31.4696 134.244 30.7059 135.5 30.7059C136.756 30.7059 137.774 31.4696 137.774 32.4118Z" fill="#D3D2F6"/>
<path d="M151.419 32.4118C151.419 33.3539 150.401 34.1176 149.145 34.1176C147.889 34.1176 146.871 33.3539 146.871 32.4118C146.871 31.4696 147.889 30.7059 149.145 30.7059C150.401 30.7059 151.419 31.4696 151.419 32.4118Z" fill="#D3D2F6"/>
<path d="M165.065 32.4118C165.065 33.3539 164.046 34.1176 162.79 34.1176C161.534 34.1176 160.516 33.3539 160.516 32.4118C160.516 31.4696 161.534 30.7059 162.79 30.7059C164.046 30.7059 165.065 31.4696 165.065 32.4118Z" fill="#D3D2F6"/>
<path d="M178.71 32.4118C178.71 33.3539 177.691 34.1176 176.435 34.1176C175.179 34.1176 174.161 33.3539 174.161 32.4118C174.161 31.4696 175.179 30.7059 176.435 30.7059C177.691 30.7059 178.71 31.4696 178.71 32.4118Z" fill="#D3D2F6"/>
<path d="M192.355 32.4118C192.355 33.3539 191.337 34.1176 190.081 34.1176C188.825 34.1176 187.806 33.3539 187.806 32.4118C187.806 31.4696 188.825 30.7059 190.081 30.7059C191.337 30.7059 192.355 31.4696 192.355 32.4118Z" fill="#D3D2F6"/>
<path d="M206 32.4118C206 33.3539 204.982 34.1176 203.726 34.1176C202.47 34.1176 201.452 33.3539 201.452 32.4118C201.452 31.4696 202.47 30.7059 203.726 30.7059C204.982 30.7059 206 31.4696 206 32.4118Z" fill="#D3D2F6"/>
<path d="M69.5484 42.6471C69.5484 43.5892 68.5302 44.3529 67.2742 44.3529C66.0182 44.3529 65 43.5892 65 42.6471C65 41.7049 66.0182 40.9412 67.2742 40.9412C68.5302 40.9412 69.5484 41.7049 69.5484 42.6471Z" fill="#D3D2F6"/>
<path d="M83.1935 42.6471C83.1935 43.5892 82.1754 44.3529 80.9194 44.3529C79.6634 44.3529 78.6452 43.5892 78.6452 42.6471C78.6452 41.7049 79.6634 40.9412 80.9194 40.9412C82.1754 40.9412 83.1935 41.7049 83.1935 42.6471Z" fill="#D3D2F6"/>
<path d="M96.8387 42.6471C96.8387 43.5892 95.8205 44.3529 94.5645 44.3529C93.3085 44.3529 92.2903 43.5892 92.2903 42.6471C92.2903 41.7049 93.3085 40.9412 94.5645 40.9412C95.8205 40.9412 96.8387 41.7049 96.8387 42.6471Z" fill="#D3D2F6"/>
<path d="M110.484 42.6471C110.484 43.5892 109.466 44.3529 108.21 44.3529C106.954 44.3529 105.935 43.5892 105.935 42.6471C105.935 41.7049 106.954 40.9412 108.21 40.9412C109.466 40.9412 110.484 41.7049 110.484 42.6471Z" fill="#D3D2F6"/>
<path d="M124.129 42.6471C124.129 43.5892 123.111 44.3529 121.855 44.3529C120.599 44.3529 119.581 43.5892 119.581 42.6471C119.581 41.7049 120.599 40.9412 121.855 40.9412C123.111 40.9412 124.129 41.7049 124.129 42.6471Z" fill="#D3D2F6"/>
<path d="M137.774 42.6471C137.774 43.5892 136.756 44.3529 135.5 44.3529C134.244 44.3529 133.226 43.5892 133.226 42.6471C133.226 41.7049 134.244 40.9412 135.5 40.9412C136.756 40.9412 137.774 41.7049 137.774 42.6471Z" fill="#D3D2F6"/>
<path d="M151.419 42.6471C151.419 43.5892 150.401 44.3529 149.145 44.3529C147.889 44.3529 146.871 43.5892 146.871 42.6471C146.871 41.7049 147.889 40.9412 149.145 40.9412C150.401 40.9412 151.419 41.7049 151.419 42.6471Z" fill="#D3D2F6"/>
<path d="M165.065 42.6471C165.065 43.5892 164.046 44.3529 162.79 44.3529C161.534 44.3529 160.516 43.5892 160.516 42.6471C160.516 41.7049 161.534 40.9412 162.79 40.9412C164.046 40.9412 165.065 41.7049 165.065 42.6471Z" fill="#D3D2F6"/>
<path d="M178.71 42.6471C178.71 43.5892 177.691 44.3529 176.435 44.3529C175.179 44.3529 174.161 43.5892 174.161 42.6471C174.161 41.7049 175.179 40.9412 176.435 40.9412C177.691 40.9412 178.71 41.7049 178.71 42.6471Z" fill="#D3D2F6"/>
<path d="M192.355 42.6471C192.355 43.5892 191.337 44.3529 190.081 44.3529C188.825 44.3529 187.806 43.5892 187.806 42.6471C187.806 41.7049 188.825 40.9412 190.081 40.9412C191.337 40.9412 192.355 41.7049 192.355 42.6471Z" fill="#D3D2F6"/>
<path d="M206 42.6471C206 43.5892 204.982 44.3529 203.726 44.3529C202.47 44.3529 201.452 43.5892 201.452 42.6471C201.452 41.7049 202.47 40.9412 203.726 40.9412C204.982 40.9412 206 41.7049 206 42.6471Z" fill="#D3D2F6"/>
<path d="M69.5484 52.8824C69.5484 53.8245 68.5302 54.5882 67.2742 54.5882C66.0182 54.5882 65 53.8245 65 52.8824C65 51.9402 66.0182 51.1765 67.2742 51.1765C68.5302 51.1765 69.5484 51.9402 69.5484 52.8824Z" fill="#D3D2F6"/>
<path d="M83.1935 52.8824C83.1935 53.8245 82.1754 54.5882 80.9194 54.5882C79.6634 54.5882 78.6452 53.8245 78.6452 52.8824C78.6452 51.9402 79.6634 51.1765 80.9194 51.1765C82.1754 51.1765 83.1935 51.9402 83.1935 52.8824Z" fill="#D3D2F6"/>
<path d="M96.8387 52.8824C96.8387 53.8245 95.8205 54.5882 94.5645 54.5882C93.3085 54.5882 92.2903 53.8245 92.2903 52.8824C92.2903 51.9402 93.3085 51.1765 94.5645 51.1765C95.8205 51.1765 96.8387 51.9402 96.8387 52.8824Z" fill="#D3D2F6"/>
<path d="M110.484 52.8824C110.484 53.8245 109.466 54.5882 108.21 54.5882C106.954 54.5882 105.935 53.8245 105.935 52.8824C105.935 51.9402 106.954 51.1765 108.21 51.1765C109.466 51.1765 110.484 51.9402 110.484 52.8824Z" fill="#D3D2F6"/>
<path d="M124.129 52.8824C124.129 53.8245 123.111 54.5882 121.855 54.5882C120.599 54.5882 119.581 53.8245 119.581 52.8824C119.581 51.9402 120.599 51.1765 121.855 51.1765C123.111 51.1765 124.129 51.9402 124.129 52.8824Z" fill="#D3D2F6"/>
<path d="M137.774 52.8824C137.774 53.8245 136.756 54.5882 135.5 54.5882C134.244 54.5882 133.226 53.8245 133.226 52.8824C133.226 51.9402 134.244 51.1765 135.5 51.1765C136.756 51.1765 137.774 51.9402 137.774 52.8824Z" fill="#D3D2F6"/>
<path d="M151.419 52.8824C151.419 53.8245 150.401 54.5882 149.145 54.5882C147.889 54.5882 146.871 53.8245 146.871 52.8824C146.871 51.9402 147.889 51.1765 149.145 51.1765C150.401 51.1765 151.419 51.9402 151.419 52.8824Z" fill="#D3D2F6"/>
<path d="M165.065 52.8824C165.065 53.8245 164.046 54.5882 162.79 54.5882C161.534 54.5882 160.516 53.8245 160.516 52.8824C160.516 51.9402 161.534 51.1765 162.79 51.1765C164.046 51.1765 165.065 51.9402 165.065 52.8824Z" fill="#D3D2F6"/>
<path d="M178.71 52.8824C178.71 53.8245 177.691 54.5882 176.435 54.5882C175.179 54.5882 174.161 53.8245 174.161 52.8824C174.161 51.9402 175.179 51.1765 176.435 51.1765C177.691 51.1765 178.71 51.9402 178.71 52.8824Z" fill="#D3D2F6"/>
<path d="M192.355 52.8824C192.355 53.8245 191.337 54.5882 190.081 54.5882C188.825 54.5882 187.806 53.8245 187.806 52.8824C187.806 51.9402 188.825 51.1765 190.081 51.1765C191.337 51.1765 192.355 51.9402 192.355 52.8824Z" fill="#D3D2F6"/>
<path d="M206 52.8824C206 53.8245 204.982 54.5882 203.726 54.5882C202.47 54.5882 201.452 53.8245 201.452 52.8824C201.452 51.9402 202.47 51.1765 203.726 51.1765C204.982 51.1765 206 51.9402 206 52.8824Z" fill="#D3D2F6"/>
<path d="M69.5484 63.1176C69.5484 64.0598 68.5302 64.8235 67.2742 64.8235C66.0182 64.8235 65 64.0598 65 63.1176C65 62.1755 66.0182 61.4118 67.2742 61.4118C68.5302 61.4118 69.5484 62.1755 69.5484 63.1176Z" fill="#D3D2F6"/>
<path d="M83.1935 63.1176C83.1935 64.0598 82.1754 64.8235 80.9194 64.8235C79.6634 64.8235 78.6452 64.0598 78.6452 63.1176C78.6452 62.1755 79.6634 61.4118 80.9194 61.4118C82.1754 61.4118 83.1935 62.1755 83.1935 63.1176Z" fill="#D3D2F6"/>
<path d="M96.8387 63.1176C96.8387 64.0598 95.8205 64.8235 94.5645 64.8235C93.3085 64.8235 92.2903 64.0598 92.2903 63.1176C92.2903 62.1755 93.3085 61.4118 94.5645 61.4118C95.8205 61.4118 96.8387 62.1755 96.8387 63.1176Z" fill="#D3D2F6"/>
<path d="M110.484 63.1176C110.484 64.0598 109.466 64.8235 108.21 64.8235C106.954 64.8235 105.935 64.0598 105.935 63.1176C105.935 62.1755 106.954 61.4118 108.21 61.4118C109.466 61.4118 110.484 62.1755 110.484 63.1176Z" fill="#D3D2F6"/>
<path d="M124.129 63.1176C124.129 64.0598 123.111 64.8235 121.855 64.8235C120.599 64.8235 119.581 64.0598 119.581 63.1176C119.581 62.1755 120.599 61.4118 121.855 61.4118C123.111 61.4118 124.129 62.1755 124.129 63.1176Z" fill="#D3D2F6"/>
<path d="M137.774 63.1176C137.774 64.0598 136.756 64.8235 135.5 64.8235C134.244 64.8235 133.226 64.0598 133.226 63.1176C133.226 62.1755 134.244 61.4118 135.5 61.4118C136.756 61.4118 137.774 62.1755 137.774 63.1176Z" fill="#D3D2F6"/>
<path d="M151.419 63.1176C151.419 64.0598 150.401 64.8235 149.145 64.8235C147.889 64.8235 146.871 64.0598 146.871 63.1176C146.871 62.1755 147.889 61.4118 149.145 61.4118C150.401 61.4118 151.419 62.1755 151.419 63.1176Z" fill="#D3D2F6"/>
<path d="M165.065 63.1176C165.065 64.0598 164.046 64.8235 162.79 64.8235C161.534 64.8235 160.516 64.0598 160.516 63.1176C160.516 62.1755 161.534 61.4118 162.79 61.4118C164.046 61.4118 165.065 62.1755 165.065 63.1176Z" fill="#D3D2F6"/>
<path d="M178.71 63.1176C178.71 64.0598 177.691 64.8235 176.435 64.8235C175.179 64.8235 174.161 64.0598 174.161 63.1176C174.161 62.1755 175.179 61.4118 176.435 61.4118C177.691 61.4118 178.71 62.1755 178.71 63.1176Z" fill="#D3D2F6"/>
<path d="M192.355 63.1176C192.355 64.0598 191.337 64.8235 190.081 64.8235C188.825 64.8235 187.806 64.0598 187.806 63.1176C187.806 62.1755 188.825 61.4118 190.081 61.4118C191.337 61.4118 192.355 62.1755 192.355 63.1176Z" fill="#D3D2F6"/>
<path d="M206 63.1176C206 64.0598 204.982 64.8235 203.726 64.8235C202.47 64.8235 201.452 64.0598 201.452 63.1176C201.452 62.1755 202.47 61.4118 203.726 61.4118C204.982 61.4118 206 62.1755 206 63.1176Z" fill="#D3D2F6"/>
<path d="M69.5484 73.3529C69.5484 74.2951 68.5302 75.0588 67.2742 75.0588C66.0182 75.0588 65 74.2951 65 73.3529C65 72.4108 66.0182 71.6471 67.2742 71.6471C68.5302 71.6471 69.5484 72.4108 69.5484 73.3529Z" fill="#D3D2F6"/>
<path d="M83.1935 73.3529C83.1935 74.2951 82.1754 75.0588 80.9194 75.0588C79.6634 75.0588 78.6452 74.2951 78.6452 73.3529C78.6452 72.4108 79.6634 71.6471 80.9194 71.6471C82.1754 71.6471 83.1935 72.4108 83.1935 73.3529Z" fill="#D3D2F6"/>
<path d="M96.8387 73.3529C96.8387 74.2951 95.8205 75.0588 94.5645 75.0588C93.3085 75.0588 92.2903 74.2951 92.2903 73.3529C92.2903 72.4108 93.3085 71.6471 94.5645 71.6471C95.8205 71.6471 96.8387 72.4108 96.8387 73.3529Z" fill="#D3D2F6"/>
<path d="M110.484 73.3529C110.484 74.2951 109.466 75.0588 108.21 75.0588C106.954 75.0588 105.935 74.2951 105.935 73.3529C105.935 72.4108 106.954 71.6471 108.21 71.6471C109.466 71.6471 110.484 72.4108 110.484 73.3529Z" fill="#D3D2F6"/>
<path d="M124.129 73.3529C124.129 74.2951 123.111 75.0588 121.855 75.0588C120.599 75.0588 119.581 74.2951 119.581 73.3529C119.581 72.4108 120.599 71.6471 121.855 71.6471C123.111 71.6471 124.129 72.4108 124.129 73.3529Z" fill="#D3D2F6"/>
<path d="M137.774 73.3529C137.774 74.2951 136.756 75.0588 135.5 75.0588C134.244 75.0588 133.226 74.2951 133.226 73.3529C133.226 72.4108 134.244 71.6471 135.5 71.6471C136.756 71.6471 137.774 72.4108 137.774 73.3529Z" fill="#D3D2F6"/>
<path d="M151.419 73.3529C151.419 74.2951 150.401 75.0588 149.145 75.0588C147.889 75.0588 146.871 74.2951 146.871 73.3529C146.871 72.4108 147.889 71.6471 149.145 71.6471C150.401 71.6471 151.419 72.4108 151.419 73.3529Z" fill="#D3D2F6"/>
<path d="M165.065 73.3529C165.065 74.2951 164.046 75.0588 162.79 75.0588C161.534 75.0588 160.516 74.2951 160.516 73.3529C160.516 72.4108 161.534 71.6471 162.79 71.6471C164.046 71.6471 165.065 72.4108 165.065 73.3529Z" fill="#D3D2F6"/>
<path d="M178.71 73.3529C178.71 74.2951 177.691 75.0588 176.435 75.0588C175.179 75.0588 174.161 74.2951 174.161 73.3529C174.161 72.4108 175.179 71.6471 176.435 71.6471C177.691 71.6471 178.71 72.4108 178.71 73.3529Z" fill="#D3D2F6"/>
<path d="M192.355 73.3529C192.355 74.2951 191.337 75.0588 190.081 75.0588C188.825 75.0588 187.806 74.2951 187.806 73.3529C187.806 72.4108 188.825 71.6471 190.081 71.6471C191.337 71.6471 192.355 72.4108 192.355 73.3529Z" fill="#D3D2F6"/>
<path d="M206 73.3529C206 74.2951 204.982 75.0588 203.726 75.0588C202.47 75.0588 201.452 74.2951 201.452 73.3529C201.452 72.4108 202.47 71.6471 203.726 71.6471C204.982 71.6471 206 72.4108 206 73.3529Z" fill="#D3D2F6"/>
<path d="M69.5484 83.5882C69.5484 84.5304 68.5302 85.2941 67.2742 85.2941C66.0182 85.2941 65 84.5304 65 83.5882C65 82.6461 66.0182 81.8824 67.2742 81.8824C68.5302 81.8824 69.5484 82.6461 69.5484 83.5882Z" fill="#D3D2F6"/>
<path d="M83.1935 83.5882C83.1935 84.5304 82.1754 85.2941 80.9194 85.2941C79.6634 85.2941 78.6452 84.5304 78.6452 83.5882C78.6452 82.6461 79.6634 81.8824 80.9194 81.8824C82.1754 81.8824 83.1935 82.6461 83.1935 83.5882Z" fill="#D3D2F6"/>
<path d="M96.8387 83.5882C96.8387 84.5304 95.8205 85.2941 94.5645 85.2941C93.3085 85.2941 92.2903 84.5304 92.2903 83.5882C92.2903 82.6461 93.3085 81.8824 94.5645 81.8824C95.8205 81.8824 96.8387 82.6461 96.8387 83.5882Z" fill="#D3D2F6"/>
<path d="M110.484 83.5882C110.484 84.5304 109.466 85.2941 108.21 85.2941C106.954 85.2941 105.935 84.5304 105.935 83.5882C105.935 82.6461 106.954 81.8824 108.21 81.8824C109.466 81.8824 110.484 82.6461 110.484 83.5882Z" fill="#D3D2F6"/>
<path d="M124.129 83.5882C124.129 84.5304 123.111 85.2941 121.855 85.2941C120.599 85.2941 119.581 84.5304 119.581 83.5882C119.581 82.6461 120.599 81.8824 121.855 81.8824C123.111 81.8824 124.129 82.6461 124.129 83.5882Z" fill="#D3D2F6"/>
<path d="M137.774 83.5882C137.774 84.5304 136.756 85.2941 135.5 85.2941C134.244 85.2941 133.226 84.5304 133.226 83.5882C133.226 82.6461 134.244 81.8824 135.5 81.8824C136.756 81.8824 137.774 82.6461 137.774 83.5882Z" fill="#D3D2F6"/>
<path d="M151.419 83.5882C151.419 84.5304 150.401 85.2941 149.145 85.2941C147.889 85.2941 146.871 84.5304 146.871 83.5882C146.871 82.6461 147.889 81.8824 149.145 81.8824C150.401 81.8824 151.419 82.6461 151.419 83.5882Z" fill="#D3D2F6"/>
<path d="M165.065 83.5882C165.065 84.5304 164.046 85.2941 162.79 85.2941C161.534 85.2941 160.516 84.5304 160.516 83.5882C160.516 82.6461 161.534 81.8824 162.79 81.8824C164.046 81.8824 165.065 82.6461 165.065 83.5882Z" fill="#D3D2F6"/>
<path d="M178.71 83.5882C178.71 84.5304 177.691 85.2941 176.435 85.2941C175.179 85.2941 174.161 84.5304 174.161 83.5882C174.161 82.6461 175.179 81.8824 176.435 81.8824C177.691 81.8824 178.71 82.6461 178.71 83.5882Z" fill="#D3D2F6"/>
<path d="M192.355 83.5882C192.355 84.5304 191.337 85.2941 190.081 85.2941C188.825 85.2941 187.806 84.5304 187.806 83.5882C187.806 82.6461 188.825 81.8824 190.081 81.8824C191.337 81.8824 192.355 82.6461 192.355 83.5882Z" fill="#D3D2F6"/>
<path d="M206 83.5882C206 84.5304 204.982 85.2941 203.726 85.2941C202.47 85.2941 201.452 84.5304 201.452 83.5882C201.452 82.6461 202.47 81.8824 203.726 81.8824C204.982 81.8824 206 82.6461 206 83.5882Z" fill="#D3D2F6"/>
<path d="M69.5484 93.8235C69.5484 94.7657 68.5302 95.5294 67.2742 95.5294C66.0182 95.5294 65 94.7657 65 93.8235C65 92.8814 66.0182 92.1176 67.2742 92.1176C68.5302 92.1176 69.5484 92.8814 69.5484 93.8235Z" fill="#D3D2F6"/>
<path d="M83.1935 93.8235C83.1935 94.7657 82.1754 95.5294 80.9194 95.5294C79.6634 95.5294 78.6452 94.7657 78.6452 93.8235C78.6452 92.8814 79.6634 92.1176 80.9194 92.1176C82.1754 92.1176 83.1935 92.8814 83.1935 93.8235Z" fill="#D3D2F6"/>
<path d="M96.8387 93.8235C96.8387 94.7657 95.8205 95.5294 94.5645 95.5294C93.3085 95.5294 92.2903 94.7657 92.2903 93.8235C92.2903 92.8814 93.3085 92.1176 94.5645 92.1176C95.8205 92.1176 96.8387 92.8814 96.8387 93.8235Z" fill="#D3D2F6"/>
<path d="M110.484 93.8235C110.484 94.7657 109.466 95.5294 108.21 95.5294C106.954 95.5294 105.935 94.7657 105.935 93.8235C105.935 92.8814 106.954 92.1176 108.21 92.1176C109.466 92.1176 110.484 92.8814 110.484 93.8235Z" fill="#D3D2F6"/>
<path d="M124.129 93.8235C124.129 94.7657 123.111 95.5294 121.855 95.5294C120.599 95.5294 119.581 94.7657 119.581 93.8235C119.581 92.8814 120.599 92.1176 121.855 92.1176C123.111 92.1176 124.129 92.8814 124.129 93.8235Z" fill="#D3D2F6"/>
<path d="M137.774 93.8235C137.774 94.7657 136.756 95.5294 135.5 95.5294C134.244 95.5294 133.226 94.7657 133.226 93.8235C133.226 92.8814 134.244 92.1176 135.5 92.1176C136.756 92.1176 137.774 92.8814 137.774 93.8235Z" fill="#D3D2F6"/>
<path d="M151.419 93.8235C151.419 94.7657 150.401 95.5294 149.145 95.5294C147.889 95.5294 146.871 94.7657 146.871 93.8235C146.871 92.8814 147.889 92.1176 149.145 92.1176C150.401 92.1176 151.419 92.8814 151.419 93.8235Z" fill="#D3D2F6"/>
<path d="M165.065 93.8235C165.065 94.7657 164.046 95.5294 162.79 95.5294C161.534 95.5294 160.516 94.7657 160.516 93.8235C160.516 92.8814 161.534 92.1176 162.79 92.1176C164.046 92.1176 165.065 92.8814 165.065 93.8235Z" fill="#D3D2F6"/>
<path d="M178.71 93.8235C178.71 94.7657 177.691 95.5294 176.435 95.5294C175.179 95.5294 174.161 94.7657 174.161 93.8235C174.161 92.8814 175.179 92.1176 176.435 92.1176C177.691 92.1176 178.71 92.8814 178.71 93.8235Z" fill="#D3D2F6"/>
<path d="M192.355 93.8235C192.355 94.7657 191.337 95.5294 190.081 95.5294C188.825 95.5294 187.806 94.7657 187.806 93.8235C187.806 92.8814 188.825 92.1176 190.081 92.1176C191.337 92.1176 192.355 92.8814 192.355 93.8235Z" fill="#D3D2F6"/>
<path d="M206 93.8235C206 94.7657 204.982 95.5294 203.726 95.5294C202.47 95.5294 201.452 94.7657 201.452 93.8235C201.452 92.8814 202.47 92.1176 203.726 92.1176C204.982 92.1176 206 92.8814 206 93.8235Z" fill="#D3D2F6"/>
<path d="M69.5484 104.059C69.5484 105.001 68.5302 105.765 67.2742 105.765C66.0182 105.765 65 105.001 65 104.059C65 103.117 66.0182 102.353 67.2742 102.353C68.5302 102.353 69.5484 103.117 69.5484 104.059Z" fill="#D3D2F6"/>
<path d="M83.1935 104.059C83.1935 105.001 82.1754 105.765 80.9194 105.765C79.6634 105.765 78.6452 105.001 78.6452 104.059C78.6452 103.117 79.6634 102.353 80.9194 102.353C82.1754 102.353 83.1935 103.117 83.1935 104.059Z" fill="#D3D2F6"/>
<path d="M96.8387 104.059C96.8387 105.001 95.8205 105.765 94.5645 105.765C93.3085 105.765 92.2903 105.001 92.2903 104.059C92.2903 103.117 93.3085 102.353 94.5645 102.353C95.8205 102.353 96.8387 103.117 96.8387 104.059Z" fill="#D3D2F6"/>
<path d="M110.484 104.059C110.484 105.001 109.466 105.765 108.21 105.765C106.954 105.765 105.935 105.001 105.935 104.059C105.935 103.117 106.954 102.353 108.21 102.353C109.466 102.353 110.484 103.117 110.484 104.059Z" fill="#D3D2F6"/>
<path d="M124.129 104.059C124.129 105.001 123.111 105.765 121.855 105.765C120.599 105.765 119.581 105.001 119.581 104.059C119.581 103.117 120.599 102.353 121.855 102.353C123.111 102.353 124.129 103.117 124.129 104.059Z" fill="#D3D2F6"/>
<path d="M137.774 104.059C137.774 105.001 136.756 105.765 135.5 105.765C134.244 105.765 133.226 105.001 133.226 104.059C133.226 103.117 134.244 102.353 135.5 102.353C136.756 102.353 137.774 103.117 137.774 104.059Z" fill="#D3D2F6"/>
<path d="M151.419 104.059C151.419 105.001 150.401 105.765 149.145 105.765C147.889 105.765 146.871 105.001 146.871 104.059C146.871 103.117 147.889 102.353 149.145 102.353C150.401 102.353 151.419 103.117 151.419 104.059Z" fill="#D3D2F6"/>
<path d="M165.065 104.059C165.065 105.001 164.046 105.765 162.79 105.765C161.534 105.765 160.516 105.001 160.516 104.059C160.516 103.117 161.534 102.353 162.79 102.353C164.046 102.353 165.065 103.117 165.065 104.059Z" fill="#D3D2F6"/>
<path d="M178.71 104.059C178.71 105.001 177.691 105.765 176.435 105.765C175.179 105.765 174.161 105.001 174.161 104.059C174.161 103.117 175.179 102.353 176.435 102.353C177.691 102.353 178.71 103.117 178.71 104.059Z" fill="#D3D2F6"/>
<path d="M192.355 104.059C192.355 105.001 191.337 105.765 190.081 105.765C188.825 105.765 187.806 105.001 187.806 104.059C187.806 103.117 188.825 102.353 190.081 102.353C191.337 102.353 192.355 103.117 192.355 104.059Z" fill="#D3D2F6"/>
<path d="M206 104.059C206 105.001 204.982 105.765 203.726 105.765C202.47 105.765 201.452 105.001 201.452 104.059C201.452 103.117 202.47 102.353 203.726 102.353C204.982 102.353 206 103.117 206 104.059Z" fill="#D3D2F6"/>
<path d="M69.5484 114.294C69.5484 115.236 68.5302 116 67.2742 116C66.0182 116 65 115.236 65 114.294C65 113.352 66.0182 112.588 67.2742 112.588C68.5302 112.588 69.5484 113.352 69.5484 114.294Z" fill="#D3D2F6"/>
<path d="M83.1935 114.294C83.1935 115.236 82.1754 116 80.9194 116C79.6634 116 78.6452 115.236 78.6452 114.294C78.6452 113.352 79.6634 112.588 80.9194 112.588C82.1754 112.588 83.1935 113.352 83.1935 114.294Z" fill="#D3D2F6"/>
<path d="M96.8387 114.294C96.8387 115.236 95.8205 116 94.5645 116C93.3085 116 92.2903 115.236 92.2903 114.294C92.2903 113.352 93.3085 112.588 94.5645 112.588C95.8205 112.588 96.8387 113.352 96.8387 114.294Z" fill="#D3D2F6"/>
<path d="M110.484 114.294C110.484 115.236 109.466 116 108.21 116C106.954 116 105.935 115.236 105.935 114.294C105.935 113.352 106.954 112.588 108.21 112.588C109.466 112.588 110.484 113.352 110.484 114.294Z" fill="#D3D2F6"/>
<path d="M124.129 114.294C124.129 115.236 123.111 116 121.855 116C120.599 116 119.581 115.236 119.581 114.294C119.581 113.352 120.599 112.588 121.855 112.588C123.111 112.588 124.129 113.352 124.129 114.294Z" fill="#D3D2F6"/>
<path d="M137.774 114.294C137.774 115.236 136.756 116 135.5 116C134.244 116 133.226 115.236 133.226 114.294C133.226 113.352 134.244 112.588 135.5 112.588C136.756 112.588 137.774 113.352 137.774 114.294Z" fill="#D3D2F6"/>
<path d="M151.419 114.294C151.419 115.236 150.401 116 149.145 116C147.889 116 146.871 115.236 146.871 114.294C146.871 113.352 147.889 112.588 149.145 112.588C150.401 112.588 151.419 113.352 151.419 114.294Z" fill="#D3D2F6"/>
<path d="M165.065 114.294C165.065 115.236 164.046 116 162.79 116C161.534 116 160.516 115.236 160.516 114.294C160.516 113.352 161.534 112.588 162.79 112.588C164.046 112.588 165.065 113.352 165.065 114.294Z" fill="#D3D2F6"/>
<path d="M178.71 114.294C178.71 115.236 177.691 116 176.435 116C175.179 116 174.161 115.236 174.161 114.294C174.161 113.352 175.179 112.588 176.435 112.588C177.691 112.588 178.71 113.352 178.71 114.294Z" fill="#D3D2F6"/>
<path d="M192.355 114.294C192.355 115.236 191.337 116 190.081 116C188.825 116 187.806 115.236 187.806 114.294C187.806 113.352 188.825 112.588 190.081 112.588C191.337 112.588 192.355 113.352 192.355 114.294Z" fill="#D3D2F6"/>
<path d="M206 114.294C206 115.236 204.982 116 203.726 116C202.47 116 201.452 115.236 201.452 114.294C201.452 113.352 202.47 112.588 203.726 112.588C204.982 112.588 206 113.352 206 114.294Z" fill="#D3D2F6"/>
<path d="M288.548 1092.71C288.548 1093.65 287.53 1094.41 286.274 1094.41C285.018 1094.41 284 1093.65 284 1092.71C284 1091.76 285.018 1091 286.274 1091C287.53 1091 288.548 1091.76 288.548 1092.71Z" fill="#D3D2F6"/>
<path d="M302.194 1092.71C302.194 1093.65 301.175 1094.41 299.919 1094.41C298.663 1094.41 297.645 1093.65 297.645 1092.71C297.645 1091.76 298.663 1091 299.919 1091C301.175 1091 302.194 1091.76 302.194 1092.71Z" fill="#D3D2F6"/>
<path d="M315.839 1092.71C315.839 1093.65 314.821 1094.41 313.565 1094.41C312.309 1094.41 311.29 1093.65 311.29 1092.71C311.29 1091.76 312.309 1091 313.565 1091C314.821 1091 315.839 1091.76 315.839 1092.71Z" fill="#D3D2F6"/>
<path d="M329.484 1092.71C329.484 1093.65 328.466 1094.41 327.21 1094.41C325.954 1094.41 324.935 1093.65 324.935 1092.71C324.935 1091.76 325.954 1091 327.21 1091C328.466 1091 329.484 1091.76 329.484 1092.71Z" fill="#D3D2F6"/>
<path d="M343.129 1092.71C343.129 1093.65 342.111 1094.41 340.855 1094.41C339.599 1094.41 338.581 1093.65 338.581 1092.71C338.581 1091.76 339.599 1091 340.855 1091C342.111 1091 343.129 1091.76 343.129 1092.71Z" fill="#D3D2F6"/>
<path d="M356.774 1092.71C356.774 1093.65 355.756 1094.41 354.5 1094.41C353.244 1094.41 352.226 1093.65 352.226 1092.71C352.226 1091.76 353.244 1091 354.5 1091C355.756 1091 356.774 1091.76 356.774 1092.71Z" fill="#D3D2F6"/>
<path d="M370.419 1092.71C370.419 1093.65 369.401 1094.41 368.145 1094.41C366.889 1094.41 365.871 1093.65 365.871 1092.71C365.871 1091.76 366.889 1091 368.145 1091C369.401 1091 370.419 1091.76 370.419 1092.71Z" fill="#D3D2F6"/>
<path d="M384.065 1092.71C384.065 1093.65 383.046 1094.41 381.79 1094.41C380.534 1094.41 379.516 1093.65 379.516 1092.71C379.516 1091.76 380.534 1091 381.79 1091C383.046 1091 384.065 1091.76 384.065 1092.71Z" fill="#D3D2F6"/>
<path d="M397.71 1092.71C397.71 1093.65 396.691 1094.41 395.435 1094.41C394.179 1094.41 393.161 1093.65 393.161 1092.71C393.161 1091.76 394.179 1091 395.435 1091C396.691 1091 397.71 1091.76 397.71 1092.71Z" fill="#D3D2F6"/>
<path d="M411.355 1092.71C411.355 1093.65 410.337 1094.41 409.081 1094.41C407.825 1094.41 406.806 1093.65 406.806 1092.71C406.806 1091.76 407.825 1091 409.081 1091C410.337 1091 411.355 1091.76 411.355 1092.71Z" fill="#D3D2F6"/>
<path d="M425 1092.71C425 1093.65 423.982 1094.41 422.726 1094.41C421.47 1094.41 420.452 1093.65 420.452 1092.71C420.452 1091.76 421.47 1091 422.726 1091C423.982 1091 425 1091.76 425 1092.71Z" fill="#D3D2F6"/>
<path d="M288.548 1102.94C288.548 1103.88 287.53 1104.65 286.274 1104.65C285.018 1104.65 284 1103.88 284 1102.94C284 1102 285.018 1101.24 286.274 1101.24C287.53 1101.24 288.548 1102 288.548 1102.94Z" fill="#D3D2F6"/>
<path d="M302.194 1102.94C302.194 1103.88 301.175 1104.65 299.919 1104.65C298.663 1104.65 297.645 1103.88 297.645 1102.94C297.645 1102 298.663 1101.24 299.919 1101.24C301.175 1101.24 302.194 1102 302.194 1102.94Z" fill="#D3D2F6"/>
<path d="M315.839 1102.94C315.839 1103.88 314.821 1104.65 313.565 1104.65C312.309 1104.65 311.29 1103.88 311.29 1102.94C311.29 1102 312.309 1101.24 313.565 1101.24C314.821 1101.24 315.839 1102 315.839 1102.94Z" fill="#D3D2F6"/>
<path d="M329.484 1102.94C329.484 1103.88 328.466 1104.65 327.21 1104.65C325.954 1104.65 324.935 1103.88 324.935 1102.94C324.935 1102 325.954 1101.24 327.21 1101.24C328.466 1101.24 329.484 1102 329.484 1102.94Z" fill="#D3D2F6"/>
<path d="M343.129 1102.94C343.129 1103.88 342.111 1104.65 340.855 1104.65C339.599 1104.65 338.581 1103.88 338.581 1102.94C338.581 1102 339.599 1101.24 340.855 1101.24C342.111 1101.24 343.129 1102 343.129 1102.94Z" fill="#D3D2F6"/>
<path d="M356.774 1102.94C356.774 1103.88 355.756 1104.65 354.5 1104.65C353.244 1104.65 352.226 1103.88 352.226 1102.94C352.226 1102 353.244 1101.24 354.5 1101.24C355.756 1101.24 356.774 1102 356.774 1102.94Z" fill="#D3D2F6"/>
<path d="M370.419 1102.94C370.419 1103.88 369.401 1104.65 368.145 1104.65C366.889 1104.65 365.871 1103.88 365.871 1102.94C365.871 1102 366.889 1101.24 368.145 1101.24C369.401 1101.24 370.419 1102 370.419 1102.94Z" fill="#D3D2F6"/>
<path d="M384.065 1102.94C384.065 1103.88 383.046 1104.65 381.79 1104.65C380.534 1104.65 379.516 1103.88 379.516 1102.94C379.516 1102 380.534 1101.24 381.79 1101.24C383.046 1101.24 384.065 1102 384.065 1102.94Z" fill="#D3D2F6"/>
<path d="M397.71 1102.94C397.71 1103.88 396.691 1104.65 395.435 1104.65C394.179 1104.65 393.161 1103.88 393.161 1102.94C393.161 1102 394.179 1101.24 395.435 1101.24C396.691 1101.24 397.71 1102 397.71 1102.94Z" fill="#D3D2F6"/>
<path d="M411.355 1102.94C411.355 1103.88 410.337 1104.65 409.081 1104.65C407.825 1104.65 406.806 1103.88 406.806 1102.94C406.806 1102 407.825 1101.24 409.081 1101.24C410.337 1101.24 411.355 1102 411.355 1102.94Z" fill="#D3D2F6"/>
<path d="M425 1102.94C425 1103.88 423.982 1104.65 422.726 1104.65C421.47 1104.65 420.452 1103.88 420.452 1102.94C420.452 1102 421.47 1101.24 422.726 1101.24C423.982 1101.24 425 1102 425 1102.94Z" fill="#D3D2F6"/>
<path d="M288.548 1113.18C288.548 1114.12 287.53 1114.88 286.274 1114.88C285.018 1114.88 284 1114.12 284 1113.18C284 1112.23 285.018 1111.47 286.274 1111.47C287.53 1111.47 288.548 1112.23 288.548 1113.18Z" fill="#D3D2F6"/>
<path d="M302.194 1113.18C302.194 1114.12 301.175 1114.88 299.919 1114.88C298.663 1114.88 297.645 1114.12 297.645 1113.18C297.645 1112.23 298.663 1111.47 299.919 1111.47C301.175 1111.47 302.194 1112.23 302.194 1113.18Z" fill="#D3D2F6"/>
<path d="M315.839 1113.18C315.839 1114.12 314.821 1114.88 313.565 1114.88C312.309 1114.88 311.29 1114.12 311.29 1113.18C311.29 1112.23 312.309 1111.47 313.565 1111.47C314.821 1111.47 315.839 1112.23 315.839 1113.18Z" fill="#D3D2F6"/>
<path d="M329.484 1113.18C329.484 1114.12 328.466 1114.88 327.21 1114.88C325.954 1114.88 324.935 1114.12 324.935 1113.18C324.935 1112.23 325.954 1111.47 327.21 1111.47C328.466 1111.47 329.484 1112.23 329.484 1113.18Z" fill="#D3D2F6"/>
<path d="M343.129 1113.18C343.129 1114.12 342.111 1114.88 340.855 1114.88C339.599 1114.88 338.581 1114.12 338.581 1113.18C338.581 1112.23 339.599 1111.47 340.855 1111.47C342.111 1111.47 343.129 1112.23 343.129 1113.18Z" fill="#D3D2F6"/>
<path d="M356.774 1113.18C356.774 1114.12 355.756 1114.88 354.5 1114.88C353.244 1114.88 352.226 1114.12 352.226 1113.18C352.226 1112.23 353.244 1111.47 354.5 1111.47C355.756 1111.47 356.774 1112.23 356.774 1113.18Z" fill="#D3D2F6"/>
<path d="M370.419 1113.18C370.419 1114.12 369.401 1114.88 368.145 1114.88C366.889 1114.88 365.871 1114.12 365.871 1113.18C365.871 1112.23 366.889 1111.47 368.145 1111.47C369.401 1111.47 370.419 1112.23 370.419 1113.18Z" fill="#D3D2F6"/>
<path d="M384.065 1113.18C384.065 1114.12 383.046 1114.88 381.79 1114.88C380.534 1114.88 379.516 1114.12 379.516 1113.18C379.516 1112.23 380.534 1111.47 381.79 1111.47C383.046 1111.47 384.065 1112.23 384.065 1113.18Z" fill="#D3D2F6"/>
<path d="M397.71 1113.18C397.71 1114.12 396.691 1114.88 395.435 1114.88C394.179 1114.88 393.161 1114.12 393.161 1113.18C393.161 1112.23 394.179 1111.47 395.435 1111.47C396.691 1111.47 397.71 1112.23 397.71 1113.18Z" fill="#D3D2F6"/>
<path d="M411.355 1113.18C411.355 1114.12 410.337 1114.88 409.081 1114.88C407.825 1114.88 406.806 1114.12 406.806 1113.18C406.806 1112.23 407.825 1111.47 409.081 1111.47C410.337 1111.47 411.355 1112.23 411.355 1113.18Z" fill="#D3D2F6"/>
<path d="M425 1113.18C425 1114.12 423.982 1114.88 422.726 1114.88C421.47 1114.88 420.452 1114.12 420.452 1113.18C420.452 1112.23 421.47 1111.47 422.726 1111.47C423.982 1111.47 425 1112.23 425 1113.18Z" fill="#D3D2F6"/>
<path d="M288.548 1123.41C288.548 1124.35 287.53 1125.12 286.274 1125.12C285.018 1125.12 284 1124.35 284 1123.41C284 1122.47 285.018 1121.71 286.274 1121.71C287.53 1121.71 288.548 1122.47 288.548 1123.41Z" fill="#D3D2F6"/>
<path d="M302.194 1123.41C302.194 1124.35 301.175 1125.12 299.919 1125.12C298.663 1125.12 297.645 1124.35 297.645 1123.41C297.645 1122.47 298.663 1121.71 299.919 1121.71C301.175 1121.71 302.194 1122.47 302.194 1123.41Z" fill="#D3D2F6"/>
<path d="M315.839 1123.41C315.839 1124.35 314.821 1125.12 313.565 1125.12C312.309 1125.12 311.29 1124.35 311.29 1123.41C311.29 1122.47 312.309 1121.71 313.565 1121.71C314.821 1121.71 315.839 1122.47 315.839 1123.41Z" fill="#D3D2F6"/>
<path d="M329.484 1123.41C329.484 1124.35 328.466 1125.12 327.21 1125.12C325.954 1125.12 324.935 1124.35 324.935 1123.41C324.935 1122.47 325.954 1121.71 327.21 1121.71C328.466 1121.71 329.484 1122.47 329.484 1123.41Z" fill="#D3D2F6"/>
<path d="M343.129 1123.41C343.129 1124.35 342.111 1125.12 340.855 1125.12C339.599 1125.12 338.581 1124.35 338.581 1123.41C338.581 1122.47 339.599 1121.71 340.855 1121.71C342.111 1121.71 343.129 1122.47 343.129 1123.41Z" fill="#D3D2F6"/>
<path d="M356.774 1123.41C356.774 1124.35 355.756 1125.12 354.5 1125.12C353.244 1125.12 352.226 1124.35 352.226 1123.41C352.226 1122.47 353.244 1121.71 354.5 1121.71C355.756 1121.71 356.774 1122.47 356.774 1123.41Z" fill="#D3D2F6"/>
<path d="M370.419 1123.41C370.419 1124.35 369.401 1125.12 368.145 1125.12C366.889 1125.12 365.871 1124.35 365.871 1123.41C365.871 1122.47 366.889 1121.71 368.145 1121.71C369.401 1121.71 370.419 1122.47 370.419 1123.41Z" fill="#D3D2F6"/>
<path d="M384.065 1123.41C384.065 1124.35 383.046 1125.12 381.79 1125.12C380.534 1125.12 379.516 1124.35 379.516 1123.41C379.516 1122.47 380.534 1121.71 381.79 1121.71C383.046 1121.71 384.065 1122.47 384.065 1123.41Z" fill="#D3D2F6"/>
<path d="M397.71 1123.41C397.71 1124.35 396.691 1125.12 395.435 1125.12C394.179 1125.12 393.161 1124.35 393.161 1123.41C393.161 1122.47 394.179 1121.71 395.435 1121.71C396.691 1121.71 397.71 1122.47 397.71 1123.41Z" fill="#D3D2F6"/>
<path d="M411.355 1123.41C411.355 1124.35 410.337 1125.12 409.081 1125.12C407.825 1125.12 406.806 1124.35 406.806 1123.41C406.806 1122.47 407.825 1121.71 409.081 1121.71C410.337 1121.71 411.355 1122.47 411.355 1123.41Z" fill="#D3D2F6"/>
<path d="M425 1123.41C425 1124.35 423.982 1125.12 422.726 1125.12C421.47 1125.12 420.452 1124.35 420.452 1123.41C420.452 1122.47 421.47 1121.71 422.726 1121.71C423.982 1121.71 425 1122.47 425 1123.41Z" fill="#D3D2F6"/>
<path d="M288.548 1133.65C288.548 1134.59 287.53 1135.35 286.274 1135.35C285.018 1135.35 284 1134.59 284 1133.65C284 1132.7 285.018 1131.94 286.274 1131.94C287.53 1131.94 288.548 1132.7 288.548 1133.65Z" fill="#D3D2F6"/>
<path d="M302.194 1133.65C302.194 1134.59 301.175 1135.35 299.919 1135.35C298.663 1135.35 297.645 1134.59 297.645 1133.65C297.645 1132.7 298.663 1131.94 299.919 1131.94C301.175 1131.94 302.194 1132.7 302.194 1133.65Z" fill="#D3D2F6"/>
<path d="M315.839 1133.65C315.839 1134.59 314.821 1135.35 313.565 1135.35C312.309 1135.35 311.29 1134.59 311.29 1133.65C311.29 1132.7 312.309 1131.94 313.565 1131.94C314.821 1131.94 315.839 1132.7 315.839 1133.65Z" fill="#D3D2F6"/>
<path d="M329.484 1133.65C329.484 1134.59 328.466 1135.35 327.21 1135.35C325.954 1135.35 324.935 1134.59 324.935 1133.65C324.935 1132.7 325.954 1131.94 327.21 1131.94C328.466 1131.94 329.484 1132.7 329.484 1133.65Z" fill="#D3D2F6"/>
<path d="M343.129 1133.65C343.129 1134.59 342.111 1135.35 340.855 1135.35C339.599 1135.35 338.581 1134.59 338.581 1133.65C338.581 1132.7 339.599 1131.94 340.855 1131.94C342.111 1131.94 343.129 1132.7 343.129 1133.65Z" fill="#D3D2F6"/>
<path d="M356.774 1133.65C356.774 1134.59 355.756 1135.35 354.5 1135.35C353.244 1135.35 352.226 1134.59 352.226 1133.65C352.226 1132.7 353.244 1131.94 354.5 1131.94C355.756 1131.94 356.774 1132.7 356.774 1133.65Z" fill="#D3D2F6"/>
<path d="M370.419 1133.65C370.419 1134.59 369.401 1135.35 368.145 1135.35C366.889 1135.35 365.871 1134.59 365.871 1133.65C365.871 1132.7 366.889 1131.94 368.145 1131.94C369.401 1131.94 370.419 1132.7 370.419 1133.65Z" fill="#D3D2F6"/>
<path d="M384.065 1133.65C384.065 1134.59 383.046 1135.35 381.79 1135.35C380.534 1135.35 379.516 1134.59 379.516 1133.65C379.516 1132.7 380.534 1131.94 381.79 1131.94C383.046 1131.94 384.065 1132.7 384.065 1133.65Z" fill="#D3D2F6"/>
<path d="M397.71 1133.65C397.71 1134.59 396.691 1135.35 395.435 1135.35C394.179 1135.35 393.161 1134.59 393.161 1133.65C393.161 1132.7 394.179 1131.94 395.435 1131.94C396.691 1131.94 397.71 1132.7 397.71 1133.65Z" fill="#D3D2F6"/>
<path d="M411.355 1133.65C411.355 1134.59 410.337 1135.35 409.081 1135.35C407.825 1135.35 406.806 1134.59 406.806 1133.65C406.806 1132.7 407.825 1131.94 409.081 1131.94C410.337 1131.94 411.355 1132.7 411.355 1133.65Z" fill="#D3D2F6"/>
<path d="M425 1133.65C425 1134.59 423.982 1135.35 422.726 1135.35C421.47 1135.35 420.452 1134.59 420.452 1133.65C420.452 1132.7 421.47 1131.94 422.726 1131.94C423.982 1131.94 425 1132.7 425 1133.65Z" fill="#D3D2F6"/>
<path d="M288.548 1143.88C288.548 1144.82 287.53 1145.59 286.274 1145.59C285.018 1145.59 284 1144.82 284 1143.88C284 1142.94 285.018 1142.18 286.274 1142.18C287.53 1142.18 288.548 1142.94 288.548 1143.88Z" fill="#D3D2F6"/>
<path d="M302.194 1143.88C302.194 1144.82 301.175 1145.59 299.919 1145.59C298.663 1145.59 297.645 1144.82 297.645 1143.88C297.645 1142.94 298.663 1142.18 299.919 1142.18C301.175 1142.18 302.194 1142.94 302.194 1143.88Z" fill="#D3D2F6"/>
<path d="M315.839 1143.88C315.839 1144.82 314.821 1145.59 313.565 1145.59C312.309 1145.59 311.29 1144.82 311.29 1143.88C311.29 1142.94 312.309 1142.18 313.565 1142.18C314.821 1142.18 315.839 1142.94 315.839 1143.88Z" fill="#D3D2F6"/>
<path d="M329.484 1143.88C329.484 1144.82 328.466 1145.59 327.21 1145.59C325.954 1145.59 324.935 1144.82 324.935 1143.88C324.935 1142.94 325.954 1142.18 327.21 1142.18C328.466 1142.18 329.484 1142.94 329.484 1143.88Z" fill="#D3D2F6"/>
<path d="M343.129 1143.88C343.129 1144.82 342.111 1145.59 340.855 1145.59C339.599 1145.59 338.581 1144.82 338.581 1143.88C338.581 1142.94 339.599 1142.18 340.855 1142.18C342.111 1142.18 343.129 1142.94 343.129 1143.88Z" fill="#D3D2F6"/>
<path d="M356.774 1143.88C356.774 1144.82 355.756 1145.59 354.5 1145.59C353.244 1145.59 352.226 1144.82 352.226 1143.88C352.226 1142.94 353.244 1142.18 354.5 1142.18C355.756 1142.18 356.774 1142.94 356.774 1143.88Z" fill="#D3D2F6"/>
<path d="M370.419 1143.88C370.419 1144.82 369.401 1145.59 368.145 1145.59C366.889 1145.59 365.871 1144.82 365.871 1143.88C365.871 1142.94 366.889 1142.18 368.145 1142.18C369.401 1142.18 370.419 1142.94 370.419 1143.88Z" fill="#D3D2F6"/>
<path d="M384.065 1143.88C384.065 1144.82 383.046 1145.59 381.79 1145.59C380.534 1145.59 379.516 1144.82 379.516 1143.88C379.516 1142.94 380.534 1142.18 381.79 1142.18C383.046 1142.18 384.065 1142.94 384.065 1143.88Z" fill="#D3D2F6"/>
<path d="M397.71 1143.88C397.71 1144.82 396.691 1145.59 395.435 1145.59C394.179 1145.59 393.161 1144.82 393.161 1143.88C393.161 1142.94 394.179 1142.18 395.435 1142.18C396.691 1142.18 397.71 1142.94 397.71 1143.88Z" fill="#D3D2F6"/>
<path d="M411.355 1143.88C411.355 1144.82 410.337 1145.59 409.081 1145.59C407.825 1145.59 406.806 1144.82 406.806 1143.88C406.806 1142.94 407.825 1142.18 409.081 1142.18C410.337 1142.18 411.355 1142.94 411.355 1143.88Z" fill="#D3D2F6"/>
<path d="M425 1143.88C425 1144.82 423.982 1145.59 422.726 1145.59C421.47 1145.59 420.452 1144.82 420.452 1143.88C420.452 1142.94 421.47 1142.18 422.726 1142.18C423.982 1142.18 425 1142.94 425 1143.88Z" fill="#D3D2F6"/>
<path d="M288.548 1154.12C288.548 1155.06 287.53 1155.82 286.274 1155.82C285.018 1155.82 284 1155.06 284 1154.12C284 1153.18 285.018 1152.41 286.274 1152.41C287.53 1152.41 288.548 1153.18 288.548 1154.12Z" fill="#D3D2F6"/>
<path d="M302.194 1154.12C302.194 1155.06 301.175 1155.82 299.919 1155.82C298.663 1155.82 297.645 1155.06 297.645 1154.12C297.645 1153.18 298.663 1152.41 299.919 1152.41C301.175 1152.41 302.194 1153.18 302.194 1154.12Z" fill="#D3D2F6"/>
<path d="M315.839 1154.12C315.839 1155.06 314.821 1155.82 313.565 1155.82C312.309 1155.82 311.29 1155.06 311.29 1154.12C311.29 1153.18 312.309 1152.41 313.565 1152.41C314.821 1152.41 315.839 1153.18 315.839 1154.12Z" fill="#D3D2F6"/>
<path d="M329.484 1154.12C329.484 1155.06 328.466 1155.82 327.21 1155.82C325.954 1155.82 324.935 1155.06 324.935 1154.12C324.935 1153.18 325.954 1152.41 327.21 1152.41C328.466 1152.41 329.484 1153.18 329.484 1154.12Z" fill="#D3D2F6"/>
<path d="M343.129 1154.12C343.129 1155.06 342.111 1155.82 340.855 1155.82C339.599 1155.82 338.581 1155.06 338.581 1154.12C338.581 1153.18 339.599 1152.41 340.855 1152.41C342.111 1152.41 343.129 1153.18 343.129 1154.12Z" fill="#D3D2F6"/>
<path d="M356.774 1154.12C356.774 1155.06 355.756 1155.82 354.5 1155.82C353.244 1155.82 352.226 1155.06 352.226 1154.12C352.226 1153.18 353.244 1152.41 354.5 1152.41C355.756 1152.41 356.774 1153.18 356.774 1154.12Z" fill="#D3D2F6"/>
<path d="M370.419 1154.12C370.419 1155.06 369.401 1155.82 368.145 1155.82C366.889 1155.82 365.871 1155.06 365.871 1154.12C365.871 1153.18 366.889 1152.41 368.145 1152.41C369.401 1152.41 370.419 1153.18 370.419 1154.12Z" fill="#D3D2F6"/>
<path d="M384.065 1154.12C384.065 1155.06 383.046 1155.82 381.79 1155.82C380.534 1155.82 379.516 1155.06 379.516 1154.12C379.516 1153.18 380.534 1152.41 381.79 1152.41C383.046 1152.41 384.065 1153.18 384.065 1154.12Z" fill="#D3D2F6"/>
<path d="M397.71 1154.12C397.71 1155.06 396.691 1155.82 395.435 1155.82C394.179 1155.82 393.161 1155.06 393.161 1154.12C393.161 1153.18 394.179 1152.41 395.435 1152.41C396.691 1152.41 397.71 1153.18 397.71 1154.12Z" fill="#D3D2F6"/>
<path d="M411.355 1154.12C411.355 1155.06 410.337 1155.82 409.081 1155.82C407.825 1155.82 406.806 1155.06 406.806 1154.12C406.806 1153.18 407.825 1152.41 409.081 1152.41C410.337 1152.41 411.355 1153.18 411.355 1154.12Z" fill="#D3D2F6"/>
<path d="M425 1154.12C425 1155.06 423.982 1155.82 422.726 1155.82C421.47 1155.82 420.452 1155.06 420.452 1154.12C420.452 1153.18 421.47 1152.41 422.726 1152.41C423.982 1152.41 425 1153.18 425 1154.12Z" fill="#D3D2F6"/>
<path d="M288.548 1164.35C288.548 1165.3 287.53 1166.06 286.274 1166.06C285.018 1166.06 284 1165.3 284 1164.35C284 1163.41 285.018 1162.65 286.274 1162.65C287.53 1162.65 288.548 1163.41 288.548 1164.35Z" fill="#D3D2F6"/>
<path d="M302.194 1164.35C302.194 1165.3 301.175 1166.06 299.919 1166.06C298.663 1166.06 297.645 1165.3 297.645 1164.35C297.645 1163.41 298.663 1162.65 299.919 1162.65C301.175 1162.65 302.194 1163.41 302.194 1164.35Z" fill="#D3D2F6"/>
<path d="M315.839 1164.35C315.839 1165.3 314.821 1166.06 313.565 1166.06C312.309 1166.06 311.29 1165.3 311.29 1164.35C311.29 1163.41 312.309 1162.65 313.565 1162.65C314.821 1162.65 315.839 1163.41 315.839 1164.35Z" fill="#D3D2F6"/>
<path d="M329.484 1164.35C329.484 1165.3 328.466 1166.06 327.21 1166.06C325.954 1166.06 324.935 1165.3 324.935 1164.35C324.935 1163.41 325.954 1162.65 327.21 1162.65C328.466 1162.65 329.484 1163.41 329.484 1164.35Z" fill="#D3D2F6"/>
<path d="M343.129 1164.35C343.129 1165.3 342.111 1166.06 340.855 1166.06C339.599 1166.06 338.581 1165.3 338.581 1164.35C338.581 1163.41 339.599 1162.65 340.855 1162.65C342.111 1162.65 343.129 1163.41 343.129 1164.35Z" fill="#D3D2F6"/>
<path d="M356.774 1164.35C356.774 1165.3 355.756 1166.06 354.5 1166.06C353.244 1166.06 352.226 1165.3 352.226 1164.35C352.226 1163.41 353.244 1162.65 354.5 1162.65C355.756 1162.65 356.774 1163.41 356.774 1164.35Z" fill="#D3D2F6"/>
<path d="M370.419 1164.35C370.419 1165.3 369.401 1166.06 368.145 1166.06C366.889 1166.06 365.871 1165.3 365.871 1164.35C365.871 1163.41 366.889 1162.65 368.145 1162.65C369.401 1162.65 370.419 1163.41 370.419 1164.35Z" fill="#D3D2F6"/>
<path d="M384.065 1164.35C384.065 1165.3 383.046 1166.06 381.79 1166.06C380.534 1166.06 379.516 1165.3 379.516 1164.35C379.516 1163.41 380.534 1162.65 381.79 1162.65C383.046 1162.65 384.065 1163.41 384.065 1164.35Z" fill="#D3D2F6"/>
<path d="M397.71 1164.35C397.71 1165.3 396.691 1166.06 395.435 1166.06C394.179 1166.06 393.161 1165.3 393.161 1164.35C393.161 1163.41 394.179 1162.65 395.435 1162.65C396.691 1162.65 397.71 1163.41 397.71 1164.35Z" fill="#D3D2F6"/>
<path d="M411.355 1164.35C411.355 1165.3 410.337 1166.06 409.081 1166.06C407.825 1166.06 406.806 1165.3 406.806 1164.35C406.806 1163.41 407.825 1162.65 409.081 1162.65C410.337 1162.65 411.355 1163.41 411.355 1164.35Z" fill="#D3D2F6"/>
<path d="M425 1164.35C425 1165.3 423.982 1166.06 422.726 1166.06C421.47 1166.06 420.452 1165.3 420.452 1164.35C420.452 1163.41 421.47 1162.65 422.726 1162.65C423.982 1162.65 425 1163.41 425 1164.35Z" fill="#D3D2F6"/>
<path d="M288.548 1174.59C288.548 1175.53 287.53 1176.29 286.274 1176.29C285.018 1176.29 284 1175.53 284 1174.59C284 1173.65 285.018 1172.88 286.274 1172.88C287.53 1172.88 288.548 1173.65 288.548 1174.59Z" fill="#D3D2F6"/>
<path d="M302.194 1174.59C302.194 1175.53 301.175 1176.29 299.919 1176.29C298.663 1176.29 297.645 1175.53 297.645 1174.59C297.645 1173.65 298.663 1172.88 299.919 1172.88C301.175 1172.88 302.194 1173.65 302.194 1174.59Z" fill="#D3D2F6"/>
<path d="M315.839 1174.59C315.839 1175.53 314.821 1176.29 313.565 1176.29C312.309 1176.29 311.29 1175.53 311.29 1174.59C311.29 1173.65 312.309 1172.88 313.565 1172.88C314.821 1172.88 315.839 1173.65 315.839 1174.59Z" fill="#D3D2F6"/>
<path d="M329.484 1174.59C329.484 1175.53 328.466 1176.29 327.21 1176.29C325.954 1176.29 324.935 1175.53 324.935 1174.59C324.935 1173.65 325.954 1172.88 327.21 1172.88C328.466 1172.88 329.484 1173.65 329.484 1174.59Z" fill="#D3D2F6"/>
<path d="M343.129 1174.59C343.129 1175.53 342.111 1176.29 340.855 1176.29C339.599 1176.29 338.581 1175.53 338.581 1174.59C338.581 1173.65 339.599 1172.88 340.855 1172.88C342.111 1172.88 343.129 1173.65 343.129 1174.59Z" fill="#D3D2F6"/>
<path d="M356.774 1174.59C356.774 1175.53 355.756 1176.29 354.5 1176.29C353.244 1176.29 352.226 1175.53 352.226 1174.59C352.226 1173.65 353.244 1172.88 354.5 1172.88C355.756 1172.88 356.774 1173.65 356.774 1174.59Z" fill="#D3D2F6"/>
<path d="M370.419 1174.59C370.419 1175.53 369.401 1176.29 368.145 1176.29C366.889 1176.29 365.871 1175.53 365.871 1174.59C365.871 1173.65 366.889 1172.88 368.145 1172.88C369.401 1172.88 370.419 1173.65 370.419 1174.59Z" fill="#D3D2F6"/>
<path d="M384.065 1174.59C384.065 1175.53 383.046 1176.29 381.79 1176.29C380.534 1176.29 379.516 1175.53 379.516 1174.59C379.516 1173.65 380.534 1172.88 381.79 1172.88C383.046 1172.88 384.065 1173.65 384.065 1174.59Z" fill="#D3D2F6"/>
<path d="M397.71 1174.59C397.71 1175.53 396.691 1176.29 395.435 1176.29C394.179 1176.29 393.161 1175.53 393.161 1174.59C393.161 1173.65 394.179 1172.88 395.435 1172.88C396.691 1172.88 397.71 1173.65 397.71 1174.59Z" fill="#D3D2F6"/>
<path d="M411.355 1174.59C411.355 1175.53 410.337 1176.29 409.081 1176.29C407.825 1176.29 406.806 1175.53 406.806 1174.59C406.806 1173.65 407.825 1172.88 409.081 1172.88C410.337 1172.88 411.355 1173.65 411.355 1174.59Z" fill="#D3D2F6"/>
<path d="M425 1174.59C425 1175.53 423.982 1176.29 422.726 1176.29C421.47 1176.29 420.452 1175.53 420.452 1174.59C420.452 1173.65 421.47 1172.88 422.726 1172.88C423.982 1172.88 425 1173.65 425 1174.59Z" fill="#D3D2F6"/>
<path d="M288.548 1184.82C288.548 1185.77 287.53 1186.53 286.274 1186.53C285.018 1186.53 284 1185.77 284 1184.82C284 1183.88 285.018 1183.12 286.274 1183.12C287.53 1183.12 288.548 1183.88 288.548 1184.82Z" fill="#D3D2F6"/>
<path d="M302.194 1184.82C302.194 1185.77 301.175 1186.53 299.919 1186.53C298.663 1186.53 297.645 1185.77 297.645 1184.82C297.645 1183.88 298.663 1183.12 299.919 1183.12C301.175 1183.12 302.194 1183.88 302.194 1184.82Z" fill="#D3D2F6"/>
<path d="M315.839 1184.82C315.839 1185.77 314.821 1186.53 313.565 1186.53C312.309 1186.53 311.29 1185.77 311.29 1184.82C311.29 1183.88 312.309 1183.12 313.565 1183.12C314.821 1183.12 315.839 1183.88 315.839 1184.82Z" fill="#D3D2F6"/>
<path d="M329.484 1184.82C329.484 1185.77 328.466 1186.53 327.21 1186.53C325.954 1186.53 324.935 1185.77 324.935 1184.82C324.935 1183.88 325.954 1183.12 327.21 1183.12C328.466 1183.12 329.484 1183.88 329.484 1184.82Z" fill="#D3D2F6"/>
<path d="M343.129 1184.82C343.129 1185.77 342.111 1186.53 340.855 1186.53C339.599 1186.53 338.581 1185.77 338.581 1184.82C338.581 1183.88 339.599 1183.12 340.855 1183.12C342.111 1183.12 343.129 1183.88 343.129 1184.82Z" fill="#D3D2F6"/>
<path d="M356.774 1184.82C356.774 1185.77 355.756 1186.53 354.5 1186.53C353.244 1186.53 352.226 1185.77 352.226 1184.82C352.226 1183.88 353.244 1183.12 354.5 1183.12C355.756 1183.12 356.774 1183.88 356.774 1184.82Z" fill="#D3D2F6"/>
<path d="M370.419 1184.82C370.419 1185.77 369.401 1186.53 368.145 1186.53C366.889 1186.53 365.871 1185.77 365.871 1184.82C365.871 1183.88 366.889 1183.12 368.145 1183.12C369.401 1183.12 370.419 1183.88 370.419 1184.82Z" fill="#D3D2F6"/>
<path d="M384.065 1184.82C384.065 1185.77 383.046 1186.53 381.79 1186.53C380.534 1186.53 379.516 1185.77 379.516 1184.82C379.516 1183.88 380.534 1183.12 381.79 1183.12C383.046 1183.12 384.065 1183.88 384.065 1184.82Z" fill="#D3D2F6"/>
<path d="M397.71 1184.82C397.71 1185.77 396.691 1186.53 395.435 1186.53C394.179 1186.53 393.161 1185.77 393.161 1184.82C393.161 1183.88 394.179 1183.12 395.435 1183.12C396.691 1183.12 397.71 1183.88 397.71 1184.82Z" fill="#D3D2F6"/>
<path d="M411.355 1184.82C411.355 1185.77 410.337 1186.53 409.081 1186.53C407.825 1186.53 406.806 1185.77 406.806 1184.82C406.806 1183.88 407.825 1183.12 409.081 1183.12C410.337 1183.12 411.355 1183.88 411.355 1184.82Z" fill="#D3D2F6"/>
<path d="M425 1184.82C425 1185.77 423.982 1186.53 422.726 1186.53C421.47 1186.53 420.452 1185.77 420.452 1184.82C420.452 1183.88 421.47 1183.12 422.726 1183.12C423.982 1183.12 425 1183.88 425 1184.82Z" fill="#D3D2F6"/>
<path d="M288.548 1195.06C288.548 1196 287.53 1196.76 286.274 1196.76C285.018 1196.76 284 1196 284 1195.06C284 1194.12 285.018 1193.35 286.274 1193.35C287.53 1193.35 288.548 1194.12 288.548 1195.06Z" fill="#D3D2F6"/>
<path d="M302.194 1195.06C302.194 1196 301.175 1196.76 299.919 1196.76C298.663 1196.76 297.645 1196 297.645 1195.06C297.645 1194.12 298.663 1193.35 299.919 1193.35C301.175 1193.35 302.194 1194.12 302.194 1195.06Z" fill="#D3D2F6"/>
<path d="M315.839 1195.06C315.839 1196 314.821 1196.76 313.565 1196.76C312.309 1196.76 311.29 1196 311.29 1195.06C311.29 1194.12 312.309 1193.35 313.565 1193.35C314.821 1193.35 315.839 1194.12 315.839 1195.06Z" fill="#D3D2F6"/>
<path d="M329.484 1195.06C329.484 1196 328.466 1196.76 327.21 1196.76C325.954 1196.76 324.935 1196 324.935 1195.06C324.935 1194.12 325.954 1193.35 327.21 1193.35C328.466 1193.35 329.484 1194.12 329.484 1195.06Z" fill="#D3D2F6"/>
<path d="M343.129 1195.06C343.129 1196 342.111 1196.76 340.855 1196.76C339.599 1196.76 338.581 1196 338.581 1195.06C338.581 1194.12 339.599 1193.35 340.855 1193.35C342.111 1193.35 343.129 1194.12 343.129 1195.06Z" fill="#D3D2F6"/>
<path d="M356.774 1195.06C356.774 1196 355.756 1196.76 354.5 1196.76C353.244 1196.76 352.226 1196 352.226 1195.06C352.226 1194.12 353.244 1193.35 354.5 1193.35C355.756 1193.35 356.774 1194.12 356.774 1195.06Z" fill="#D3D2F6"/>
<path d="M370.419 1195.06C370.419 1196 369.401 1196.76 368.145 1196.76C366.889 1196.76 365.871 1196 365.871 1195.06C365.871 1194.12 366.889 1193.35 368.145 1193.35C369.401 1193.35 370.419 1194.12 370.419 1195.06Z" fill="#D3D2F6"/>
<path d="M384.065 1195.06C384.065 1196 383.046 1196.76 381.79 1196.76C380.534 1196.76 379.516 1196 379.516 1195.06C379.516 1194.12 380.534 1193.35 381.79 1193.35C383.046 1193.35 384.065 1194.12 384.065 1195.06Z" fill="#D3D2F6"/>
<path d="M397.71 1195.06C397.71 1196 396.691 1196.76 395.435 1196.76C394.179 1196.76 393.161 1196 393.161 1195.06C393.161 1194.12 394.179 1193.35 395.435 1193.35C396.691 1193.35 397.71 1194.12 397.71 1195.06Z" fill="#D3D2F6"/>
<path d="M411.355 1195.06C411.355 1196 410.337 1196.76 409.081 1196.76C407.825 1196.76 406.806 1196 406.806 1195.06C406.806 1194.12 407.825 1193.35 409.081 1193.35C410.337 1193.35 411.355 1194.12 411.355 1195.06Z" fill="#D3D2F6"/>
<path d="M425 1195.06C425 1196 423.982 1196.76 422.726 1196.76C421.47 1196.76 420.452 1196 420.452 1195.06C420.452 1194.12 421.47 1193.35 422.726 1193.35C423.982 1193.35 425 1194.12 425 1195.06Z" fill="#D3D2F6"/>
<path d="M288.548 1205.29C288.548 1206.24 287.53 1207 286.274 1207C285.018 1207 284 1206.24 284 1205.29C284 1204.35 285.018 1203.59 286.274 1203.59C287.53 1203.59 288.548 1204.35 288.548 1205.29Z" fill="#D3D2F6"/>
<path d="M302.194 1205.29C302.194 1206.24 301.175 1207 299.919 1207C298.663 1207 297.645 1206.24 297.645 1205.29C297.645 1204.35 298.663 1203.59 299.919 1203.59C301.175 1203.59 302.194 1204.35 302.194 1205.29Z" fill="#D3D2F6"/>
<path d="M315.839 1205.29C315.839 1206.24 314.821 1207 313.565 1207C312.309 1207 311.29 1206.24 311.29 1205.29C311.29 1204.35 312.309 1203.59 313.565 1203.59C314.821 1203.59 315.839 1204.35 315.839 1205.29Z" fill="#D3D2F6"/>
<path d="M329.484 1205.29C329.484 1206.24 328.466 1207 327.21 1207C325.954 1207 324.935 1206.24 324.935 1205.29C324.935 1204.35 325.954 1203.59 327.21 1203.59C328.466 1203.59 329.484 1204.35 329.484 1205.29Z" fill="#D3D2F6"/>
<path d="M343.129 1205.29C343.129 1206.24 342.111 1207 340.855 1207C339.599 1207 338.581 1206.24 338.581 1205.29C338.581 1204.35 339.599 1203.59 340.855 1203.59C342.111 1203.59 343.129 1204.35 343.129 1205.29Z" fill="#D3D2F6"/>
<path d="M356.774 1205.29C356.774 1206.24 355.756 1207 354.5 1207C353.244 1207 352.226 1206.24 352.226 1205.29C352.226 1204.35 353.244 1203.59 354.5 1203.59C355.756 1203.59 356.774 1204.35 356.774 1205.29Z" fill="#D3D2F6"/>
<path d="M370.419 1205.29C370.419 1206.24 369.401 1207 368.145 1207C366.889 1207 365.871 1206.24 365.871 1205.29C365.871 1204.35 366.889 1203.59 368.145 1203.59C369.401 1203.59 370.419 1204.35 370.419 1205.29Z" fill="#D3D2F6"/>
<path d="M384.065 1205.29C384.065 1206.24 383.046 1207 381.79 1207C380.534 1207 379.516 1206.24 379.516 1205.29C379.516 1204.35 380.534 1203.59 381.79 1203.59C383.046 1203.59 384.065 1204.35 384.065 1205.29Z" fill="#D3D2F6"/>
<path d="M397.71 1205.29C397.71 1206.24 396.691 1207 395.435 1207C394.179 1207 393.161 1206.24 393.161 1205.29C393.161 1204.35 394.179 1203.59 395.435 1203.59C396.691 1203.59 397.71 1204.35 397.71 1205.29Z" fill="#D3D2F6"/>
<path d="M411.355 1205.29C411.355 1206.24 410.337 1207 409.081 1207C407.825 1207 406.806 1206.24 406.806 1205.29C406.806 1204.35 407.825 1203.59 409.081 1203.59C410.337 1203.59 411.355 1204.35 411.355 1205.29Z" fill="#D3D2F6"/>
<path d="M425 1205.29C425 1206.24 423.982 1207 422.726 1207C421.47 1207 420.452 1206.24 420.452 1205.29C420.452 1204.35 421.47 1203.59 422.726 1203.59C423.982 1203.59 425 1204.35 425 1205.29Z" fill="#D3D2F6"/>
</svg>
