<svg width="384" height="2288" viewBox="0 0 384 2288" fill="none" xmlns="http://www.w3.org/2000/svg">
<path d="M3.25806 1.27941C3.25806 1.98601 2.52872 2.55882 1.62903 2.55882C0.729343 2.55882 0 1.98601 0 1.27941C0 0.572812 0.729343 0 1.62903 0C2.52872 0 3.25806 0.572812 3.25806 1.27941Z" fill="#D3D2F6"/>
<path d="M13.0323 1.27941C13.0323 1.98601 12.3029 2.55882 11.4032 2.55882C10.5035 2.55882 9.77419 1.98601 9.77419 1.27941C9.77419 0.572812 10.5035 0 11.4032 0C12.3029 0 13.0323 0.572812 13.0323 1.27941Z" fill="#D3D2F6"/>
<path d="M22.8065 1.27941C22.8065 1.98601 22.0771 2.55882 21.1774 2.55882C20.2777 2.55882 19.5484 1.98601 19.5484 1.27941C19.5484 0.572812 20.2777 0 21.1774 0C22.0771 0 22.8065 0.572812 22.8065 1.27941Z" fill="#D3D2F6"/>
<path d="M32.5806 1.27941C32.5806 1.98601 31.8513 2.55882 30.9516 2.55882C30.0519 2.55882 29.3226 1.98601 29.3226 1.27941C29.3226 0.572812 30.0519 0 30.9516 0C31.8513 0 32.5806 0.572812 32.5806 1.27941Z" fill="#D3D2F6"/>
<path d="M42.3548 1.27941C42.3548 1.98601 41.6255 2.55882 40.7258 2.55882C39.8261 2.55882 39.0968 1.98601 39.0968 1.27941C39.0968 0.572812 39.8261 0 40.7258 0C41.6255 0 42.3548 0.572812 42.3548 1.27941Z" fill="#D3D2F6"/>
<path d="M52.129 1.27941C52.129 1.98601 51.3997 2.55882 50.5 2.55882C49.6003 2.55882 48.871 1.98601 48.871 1.27941C48.871 0.572812 49.6003 0 50.5 0C51.3997 0 52.129 0.572812 52.129 1.27941Z" fill="#D3D2F6"/>
<path d="M61.9032 1.27941C61.9032 1.98601 61.1739 2.55882 60.2742 2.55882C59.3745 2.55882 58.6452 1.98601 58.6452 1.27941C58.6452 0.572812 59.3745 0 60.2742 0C61.1739 0 61.9032 0.572812 61.9032 1.27941Z" fill="#D3D2F6"/>
<path d="M71.6774 1.27941C71.6774 1.98601 70.9481 2.55882 70.0484 2.55882C69.1487 2.55882 68.4194 1.98601 68.4194 1.27941C68.4194 0.572812 69.1487 0 70.0484 0C70.9481 0 71.6774 0.572812 71.6774 1.27941Z" fill="#D3D2F6"/>
<path d="M81.4516 1.27941C81.4516 1.98601 80.7223 2.55882 79.8226 2.55882C78.9229 2.55882 78.1935 1.98601 78.1935 1.27941C78.1935 0.572812 78.9229 0 79.8226 0C80.7223 0 81.4516 0.572812 81.4516 1.27941Z" fill="#D3D2F6"/>
<path d="M91.2258 1.27941C91.2258 1.98601 90.4965 2.55882 89.5968 2.55882C88.6971 2.55882 87.9677 1.98601 87.9677 1.27941C87.9677 0.572812 88.6971 0 89.5968 0C90.4965 0 91.2258 0.572812 91.2258 1.27941Z" fill="#D3D2F6"/>
<path d="M101 1.27941C101 1.98601 100.271 2.55882 99.371 2.55882C98.4713 2.55882 97.7419 1.98601 97.7419 1.27941C97.7419 0.572812 98.4713 0 99.371 0C100.271 0 101 0.572812 101 1.27941Z" fill="#D3D2F6"/>
<path d="M3.25806 8.95588C3.25806 9.66248 2.52872 10.2353 1.62903 10.2353C0.729343 10.2353 0 9.66248 0 8.95588C0 8.24928 0.729343 7.67647 1.62903 7.67647C2.52872 7.67647 3.25806 8.24928 3.25806 8.95588Z" fill="#D3D2F6"/>
<path d="M13.0323 8.95588C13.0323 9.66248 12.3029 10.2353 11.4032 10.2353C10.5035 10.2353 9.77419 9.66248 9.77419 8.95588C9.77419 8.24928 10.5035 7.67647 11.4032 7.67647C12.3029 7.67647 13.0323 8.24928 13.0323 8.95588Z" fill="#D3D2F6"/>
<path d="M22.8065 8.95588C22.8065 9.66248 22.0771 10.2353 21.1774 10.2353C20.2777 10.2353 19.5484 9.66248 19.5484 8.95588C19.5484 8.24928 20.2777 7.67647 21.1774 7.67647C22.0771 7.67647 22.8065 8.24928 22.8065 8.95588Z" fill="#D3D2F6"/>
<path d="M32.5806 8.95588C32.5806 9.66248 31.8513 10.2353 30.9516 10.2353C30.0519 10.2353 29.3226 9.66248 29.3226 8.95588C29.3226 8.24928 30.0519 7.67647 30.9516 7.67647C31.8513 7.67647 32.5806 8.24928 32.5806 8.95588Z" fill="#D3D2F6"/>
<path d="M42.3548 8.95588C42.3548 9.66248 41.6255 10.2353 40.7258 10.2353C39.8261 10.2353 39.0968 9.66248 39.0968 8.95588C39.0968 8.24928 39.8261 7.67647 40.7258 7.67647C41.6255 7.67647 42.3548 8.24928 42.3548 8.95588Z" fill="#D3D2F6"/>
<path d="M52.129 8.95588C52.129 9.66248 51.3997 10.2353 50.5 10.2353C49.6003 10.2353 48.871 9.66248 48.871 8.95588C48.871 8.24928 49.6003 7.67647 50.5 7.67647C51.3997 7.67647 52.129 8.24928 52.129 8.95588Z" fill="#D3D2F6"/>
<path d="M61.9032 8.95588C61.9032 9.66248 61.1739 10.2353 60.2742 10.2353C59.3745 10.2353 58.6452 9.66248 58.6452 8.95588C58.6452 8.24928 59.3745 7.67647 60.2742 7.67647C61.1739 7.67647 61.9032 8.24928 61.9032 8.95588Z" fill="#D3D2F6"/>
<path d="M71.6774 8.95588C71.6774 9.66248 70.9481 10.2353 70.0484 10.2353C69.1487 10.2353 68.4194 9.66248 68.4194 8.95588C68.4194 8.24928 69.1487 7.67647 70.0484 7.67647C70.9481 7.67647 71.6774 8.24928 71.6774 8.95588Z" fill="#D3D2F6"/>
<path d="M81.4516 8.95588C81.4516 9.66248 80.7223 10.2353 79.8226 10.2353C78.9229 10.2353 78.1935 9.66248 78.1935 8.95588C78.1935 8.24928 78.9229 7.67647 79.8226 7.67647C80.7223 7.67647 81.4516 8.24928 81.4516 8.95588Z" fill="#D3D2F6"/>
<path d="M91.2258 8.95588C91.2258 9.66248 90.4965 10.2353 89.5968 10.2353C88.6971 10.2353 87.9677 9.66248 87.9677 8.95588C87.9677 8.24928 88.6971 7.67647 89.5968 7.67647C90.4965 7.67647 91.2258 8.24928 91.2258 8.95588Z" fill="#D3D2F6"/>
<path d="M101 8.95588C101 9.66248 100.271 10.2353 99.371 10.2353C98.4713 10.2353 97.7419 9.66248 97.7419 8.95588C97.7419 8.24928 98.4713 7.67647 99.371 7.67647C100.271 7.67647 101 8.24928 101 8.95588Z" fill="#D3D2F6"/>
<path d="M3.25806 16.6324C3.25806 17.339 2.52872 17.9118 1.62903 17.9118C0.729343 17.9118 0 17.339 0 16.6324C0 15.9258 0.729343 15.3529 1.62903 15.3529C2.52872 15.3529 3.25806 15.9258 3.25806 16.6324Z" fill="#D3D2F6"/>
<path d="M13.0323 16.6324C13.0323 17.339 12.3029 17.9118 11.4032 17.9118C10.5035 17.9118 9.77419 17.339 9.77419 16.6324C9.77419 15.9258 10.5035 15.3529 11.4032 15.3529C12.3029 15.3529 13.0323 15.9258 13.0323 16.6324Z" fill="#D3D2F6"/>
<path d="M22.8065 16.6324C22.8065 17.339 22.0771 17.9118 21.1774 17.9118C20.2777 17.9118 19.5484 17.339 19.5484 16.6324C19.5484 15.9258 20.2777 15.3529 21.1774 15.3529C22.0771 15.3529 22.8065 15.9258 22.8065 16.6324Z" fill="#D3D2F6"/>
<path d="M32.5806 16.6324C32.5806 17.339 31.8513 17.9118 30.9516 17.9118C30.0519 17.9118 29.3226 17.339 29.3226 16.6324C29.3226 15.9258 30.0519 15.3529 30.9516 15.3529C31.8513 15.3529 32.5806 15.9258 32.5806 16.6324Z" fill="#D3D2F6"/>
<path d="M42.3548 16.6324C42.3548 17.339 41.6255 17.9118 40.7258 17.9118C39.8261 17.9118 39.0968 17.339 39.0968 16.6324C39.0968 15.9258 39.8261 15.3529 40.7258 15.3529C41.6255 15.3529 42.3548 15.9258 42.3548 16.6324Z" fill="#D3D2F6"/>
<path d="M52.129 16.6324C52.129 17.339 51.3997 17.9118 50.5 17.9118C49.6003 17.9118 48.871 17.339 48.871 16.6324C48.871 15.9258 49.6003 15.3529 50.5 15.3529C51.3997 15.3529 52.129 15.9258 52.129 16.6324Z" fill="#D3D2F6"/>
<path d="M61.9032 16.6324C61.9032 17.339 61.1739 17.9118 60.2742 17.9118C59.3745 17.9118 58.6452 17.339 58.6452 16.6324C58.6452 15.9258 59.3745 15.3529 60.2742 15.3529C61.1739 15.3529 61.9032 15.9258 61.9032 16.6324Z" fill="#D3D2F6"/>
<path d="M71.6774 16.6324C71.6774 17.339 70.9481 17.9118 70.0484 17.9118C69.1487 17.9118 68.4194 17.339 68.4194 16.6324C68.4194 15.9258 69.1487 15.3529 70.0484 15.3529C70.9481 15.3529 71.6774 15.9258 71.6774 16.6324Z" fill="#D3D2F6"/>
<path d="M81.4516 16.6324C81.4516 17.339 80.7223 17.9118 79.8226 17.9118C78.9229 17.9118 78.1935 17.339 78.1935 16.6324C78.1935 15.9258 78.9229 15.3529 79.8226 15.3529C80.7223 15.3529 81.4516 15.9258 81.4516 16.6324Z" fill="#D3D2F6"/>
<path d="M91.2258 16.6324C91.2258 17.339 90.4965 17.9118 89.5968 17.9118C88.6971 17.9118 87.9677 17.339 87.9677 16.6324C87.9677 15.9258 88.6971 15.3529 89.5968 15.3529C90.4965 15.3529 91.2258 15.9258 91.2258 16.6324Z" fill="#D3D2F6"/>
<path d="M101 16.6324C101 17.339 100.271 17.9118 99.371 17.9118C98.4713 17.9118 97.7419 17.339 97.7419 16.6324C97.7419 15.9258 98.4713 15.3529 99.371 15.3529C100.271 15.3529 101 15.9258 101 16.6324Z" fill="#D3D2F6"/>
<path d="M3.25806 24.3088C3.25806 25.0154 2.52872 25.5882 1.62903 25.5882C0.729343 25.5882 0 25.0154 0 24.3088C0 23.6022 0.729343 23.0294 1.62903 23.0294C2.52872 23.0294 3.25806 23.6022 3.25806 24.3088Z" fill="#D3D2F6"/>
<path d="M13.0323 24.3088C13.0323 25.0154 12.3029 25.5882 11.4032 25.5882C10.5035 25.5882 9.77419 25.0154 9.77419 24.3088C9.77419 23.6022 10.5035 23.0294 11.4032 23.0294C12.3029 23.0294 13.0323 23.6022 13.0323 24.3088Z" fill="#D3D2F6"/>
<path d="M22.8065 24.3088C22.8065 25.0154 22.0771 25.5882 21.1774 25.5882C20.2777 25.5882 19.5484 25.0154 19.5484 24.3088C19.5484 23.6022 20.2777 23.0294 21.1774 23.0294C22.0771 23.0294 22.8065 23.6022 22.8065 24.3088Z" fill="#D3D2F6"/>
<path d="M32.5806 24.3088C32.5806 25.0154 31.8513 25.5882 30.9516 25.5882C30.0519 25.5882 29.3226 25.0154 29.3226 24.3088C29.3226 23.6022 30.0519 23.0294 30.9516 23.0294C31.8513 23.0294 32.5806 23.6022 32.5806 24.3088Z" fill="#D3D2F6"/>
<path d="M42.3548 24.3088C42.3548 25.0154 41.6255 25.5882 40.7258 25.5882C39.8261 25.5882 39.0968 25.0154 39.0968 24.3088C39.0968 23.6022 39.8261 23.0294 40.7258 23.0294C41.6255 23.0294 42.3548 23.6022 42.3548 24.3088Z" fill="#D3D2F6"/>
<path d="M52.129 24.3088C52.129 25.0154 51.3997 25.5882 50.5 25.5882C49.6003 25.5882 48.871 25.0154 48.871 24.3088C48.871 23.6022 49.6003 23.0294 50.5 23.0294C51.3997 23.0294 52.129 23.6022 52.129 24.3088Z" fill="#D3D2F6"/>
<path d="M61.9032 24.3088C61.9032 25.0154 61.1739 25.5882 60.2742 25.5882C59.3745 25.5882 58.6452 25.0154 58.6452 24.3088C58.6452 23.6022 59.3745 23.0294 60.2742 23.0294C61.1739 23.0294 61.9032 23.6022 61.9032 24.3088Z" fill="#D3D2F6"/>
<path d="M71.6774 24.3088C71.6774 25.0154 70.9481 25.5882 70.0484 25.5882C69.1487 25.5882 68.4194 25.0154 68.4194 24.3088C68.4194 23.6022 69.1487 23.0294 70.0484 23.0294C70.9481 23.0294 71.6774 23.6022 71.6774 24.3088Z" fill="#D3D2F6"/>
<path d="M81.4516 24.3088C81.4516 25.0154 80.7223 25.5882 79.8226 25.5882C78.9229 25.5882 78.1935 25.0154 78.1935 24.3088C78.1935 23.6022 78.9229 23.0294 79.8226 23.0294C80.7223 23.0294 81.4516 23.6022 81.4516 24.3088Z" fill="#D3D2F6"/>
<path d="M91.2258 24.3088C91.2258 25.0154 90.4965 25.5882 89.5968 25.5882C88.6971 25.5882 87.9677 25.0154 87.9677 24.3088C87.9677 23.6022 88.6971 23.0294 89.5968 23.0294C90.4965 23.0294 91.2258 23.6022 91.2258 24.3088Z" fill="#D3D2F6"/>
<path d="M101 24.3088C101 25.0154 100.271 25.5882 99.371 25.5882C98.4713 25.5882 97.7419 25.0154 97.7419 24.3088C97.7419 23.6022 98.4713 23.0294 99.371 23.0294C100.271 23.0294 101 23.6022 101 24.3088Z" fill="#D3D2F6"/>
<path d="M3.25806 31.9853C3.25806 32.6919 2.52872 33.2647 1.62903 33.2647C0.729343 33.2647 0 32.6919 0 31.9853C0 31.2787 0.729343 30.7059 1.62903 30.7059C2.52872 30.7059 3.25806 31.2787 3.25806 31.9853Z" fill="#D3D2F6"/>
<path d="M13.0323 31.9853C13.0323 32.6919 12.3029 33.2647 11.4032 33.2647C10.5035 33.2647 9.77419 32.6919 9.77419 31.9853C9.77419 31.2787 10.5035 30.7059 11.4032 30.7059C12.3029 30.7059 13.0323 31.2787 13.0323 31.9853Z" fill="#D3D2F6"/>
<path d="M22.8065 31.9853C22.8065 32.6919 22.0771 33.2647 21.1774 33.2647C20.2777 33.2647 19.5484 32.6919 19.5484 31.9853C19.5484 31.2787 20.2777 30.7059 21.1774 30.7059C22.0771 30.7059 22.8065 31.2787 22.8065 31.9853Z" fill="#D3D2F6"/>
<path d="M32.5806 31.9853C32.5806 32.6919 31.8513 33.2647 30.9516 33.2647C30.0519 33.2647 29.3226 32.6919 29.3226 31.9853C29.3226 31.2787 30.0519 30.7059 30.9516 30.7059C31.8513 30.7059 32.5806 31.2787 32.5806 31.9853Z" fill="#D3D2F6"/>
<path d="M42.3548 31.9853C42.3548 32.6919 41.6255 33.2647 40.7258 33.2647C39.8261 33.2647 39.0968 32.6919 39.0968 31.9853C39.0968 31.2787 39.8261 30.7059 40.7258 30.7059C41.6255 30.7059 42.3548 31.2787 42.3548 31.9853Z" fill="#D3D2F6"/>
<path d="M52.129 31.9853C52.129 32.6919 51.3997 33.2647 50.5 33.2647C49.6003 33.2647 48.871 32.6919 48.871 31.9853C48.871 31.2787 49.6003 30.7059 50.5 30.7059C51.3997 30.7059 52.129 31.2787 52.129 31.9853Z" fill="#D3D2F6"/>
<path d="M61.9032 31.9853C61.9032 32.6919 61.1739 33.2647 60.2742 33.2647C59.3745 33.2647 58.6452 32.6919 58.6452 31.9853C58.6452 31.2787 59.3745 30.7059 60.2742 30.7059C61.1739 30.7059 61.9032 31.2787 61.9032 31.9853Z" fill="#D3D2F6"/>
<path d="M71.6774 31.9853C71.6774 32.6919 70.9481 33.2647 70.0484 33.2647C69.1487 33.2647 68.4194 32.6919 68.4194 31.9853C68.4194 31.2787 69.1487 30.7059 70.0484 30.7059C70.9481 30.7059 71.6774 31.2787 71.6774 31.9853Z" fill="#D3D2F6"/>
<path d="M81.4516 31.9853C81.4516 32.6919 80.7223 33.2647 79.8226 33.2647C78.9229 33.2647 78.1935 32.6919 78.1935 31.9853C78.1935 31.2787 78.9229 30.7059 79.8226 30.7059C80.7223 30.7059 81.4516 31.2787 81.4516 31.9853Z" fill="#D3D2F6"/>
<path d="M91.2258 31.9853C91.2258 32.6919 90.4965 33.2647 89.5968 33.2647C88.6971 33.2647 87.9677 32.6919 87.9677 31.9853C87.9677 31.2787 88.6971 30.7059 89.5968 30.7059C90.4965 30.7059 91.2258 31.2787 91.2258 31.9853Z" fill="#D3D2F6"/>
<path d="M101 31.9853C101 32.6919 100.271 33.2647 99.371 33.2647C98.4713 33.2647 97.7419 32.6919 97.7419 31.9853C97.7419 31.2787 98.4713 30.7059 99.371 30.7059C100.271 30.7059 101 31.2787 101 31.9853Z" fill="#D3D2F6"/>
<path d="M3.25806 39.6618C3.25806 40.3684 2.52872 40.9412 1.62903 40.9412C0.729343 40.9412 0 40.3684 0 39.6618C0 38.9552 0.729343 38.3824 1.62903 38.3824C2.52872 38.3824 3.25806 38.9552 3.25806 39.6618Z" fill="#D3D2F6"/>
<path d="M13.0323 39.6618C13.0323 40.3684 12.3029 40.9412 11.4032 40.9412C10.5035 40.9412 9.77419 40.3684 9.77419 39.6618C9.77419 38.9552 10.5035 38.3824 11.4032 38.3824C12.3029 38.3824 13.0323 38.9552 13.0323 39.6618Z" fill="#D3D2F6"/>
<path d="M22.8065 39.6618C22.8065 40.3684 22.0771 40.9412 21.1774 40.9412C20.2777 40.9412 19.5484 40.3684 19.5484 39.6618C19.5484 38.9552 20.2777 38.3824 21.1774 38.3824C22.0771 38.3824 22.8065 38.9552 22.8065 39.6618Z" fill="#D3D2F6"/>
<path d="M32.5806 39.6618C32.5806 40.3684 31.8513 40.9412 30.9516 40.9412C30.0519 40.9412 29.3226 40.3684 29.3226 39.6618C29.3226 38.9552 30.0519 38.3824 30.9516 38.3824C31.8513 38.3824 32.5806 38.9552 32.5806 39.6618Z" fill="#D3D2F6"/>
<path d="M42.3548 39.6618C42.3548 40.3684 41.6255 40.9412 40.7258 40.9412C39.8261 40.9412 39.0968 40.3684 39.0968 39.6618C39.0968 38.9552 39.8261 38.3824 40.7258 38.3824C41.6255 38.3824 42.3548 38.9552 42.3548 39.6618Z" fill="#D3D2F6"/>
<path d="M52.129 39.6618C52.129 40.3684 51.3997 40.9412 50.5 40.9412C49.6003 40.9412 48.871 40.3684 48.871 39.6618C48.871 38.9552 49.6003 38.3824 50.5 38.3824C51.3997 38.3824 52.129 38.9552 52.129 39.6618Z" fill="#D3D2F6"/>
<path d="M61.9032 39.6618C61.9032 40.3684 61.1739 40.9412 60.2742 40.9412C59.3745 40.9412 58.6452 40.3684 58.6452 39.6618C58.6452 38.9552 59.3745 38.3824 60.2742 38.3824C61.1739 38.3824 61.9032 38.9552 61.9032 39.6618Z" fill="#D3D2F6"/>
<path d="M71.6774 39.6618C71.6774 40.3684 70.9481 40.9412 70.0484 40.9412C69.1487 40.9412 68.4194 40.3684 68.4194 39.6618C68.4194 38.9552 69.1487 38.3824 70.0484 38.3824C70.9481 38.3824 71.6774 38.9552 71.6774 39.6618Z" fill="#D3D2F6"/>
<path d="M81.4516 39.6618C81.4516 40.3684 80.7223 40.9412 79.8226 40.9412C78.9229 40.9412 78.1935 40.3684 78.1935 39.6618C78.1935 38.9552 78.9229 38.3824 79.8226 38.3824C80.7223 38.3824 81.4516 38.9552 81.4516 39.6618Z" fill="#D3D2F6"/>
<path d="M91.2258 39.6618C91.2258 40.3684 90.4965 40.9412 89.5968 40.9412C88.6971 40.9412 87.9677 40.3684 87.9677 39.6618C87.9677 38.9552 88.6971 38.3824 89.5968 38.3824C90.4965 38.3824 91.2258 38.9552 91.2258 39.6618Z" fill="#D3D2F6"/>
<path d="M101 39.6618C101 40.3684 100.271 40.9412 99.371 40.9412C98.4713 40.9412 97.7419 40.3684 97.7419 39.6618C97.7419 38.9552 98.4713 38.3824 99.371 38.3824C100.271 38.3824 101 38.9552 101 39.6618Z" fill="#D3D2F6"/>
<path d="M3.25806 47.3382C3.25806 48.0448 2.52872 48.6176 1.62903 48.6176C0.729343 48.6176 0 48.0448 0 47.3382C0 46.6316 0.729343 46.0588 1.62903 46.0588C2.52872 46.0588 3.25806 46.6316 3.25806 47.3382Z" fill="#D3D2F6"/>
<path d="M13.0323 47.3382C13.0323 48.0448 12.3029 48.6176 11.4032 48.6176C10.5035 48.6176 9.77419 48.0448 9.77419 47.3382C9.77419 46.6316 10.5035 46.0588 11.4032 46.0588C12.3029 46.0588 13.0323 46.6316 13.0323 47.3382Z" fill="#D3D2F6"/>
<path d="M22.8065 47.3382C22.8065 48.0448 22.0771 48.6176 21.1774 48.6176C20.2777 48.6176 19.5484 48.0448 19.5484 47.3382C19.5484 46.6316 20.2777 46.0588 21.1774 46.0588C22.0771 46.0588 22.8065 46.6316 22.8065 47.3382Z" fill="#D3D2F6"/>
<path d="M32.5806 47.3382C32.5806 48.0448 31.8513 48.6176 30.9516 48.6176C30.0519 48.6176 29.3226 48.0448 29.3226 47.3382C29.3226 46.6316 30.0519 46.0588 30.9516 46.0588C31.8513 46.0588 32.5806 46.6316 32.5806 47.3382Z" fill="#D3D2F6"/>
<path d="M42.3548 47.3382C42.3548 48.0448 41.6255 48.6176 40.7258 48.6176C39.8261 48.6176 39.0968 48.0448 39.0968 47.3382C39.0968 46.6316 39.8261 46.0588 40.7258 46.0588C41.6255 46.0588 42.3548 46.6316 42.3548 47.3382Z" fill="#D3D2F6"/>
<path d="M52.129 47.3382C52.129 48.0448 51.3997 48.6176 50.5 48.6176C49.6003 48.6176 48.871 48.0448 48.871 47.3382C48.871 46.6316 49.6003 46.0588 50.5 46.0588C51.3997 46.0588 52.129 46.6316 52.129 47.3382Z" fill="#D3D2F6"/>
<path d="M61.9032 47.3382C61.9032 48.0448 61.1739 48.6176 60.2742 48.6176C59.3745 48.6176 58.6452 48.0448 58.6452 47.3382C58.6452 46.6316 59.3745 46.0588 60.2742 46.0588C61.1739 46.0588 61.9032 46.6316 61.9032 47.3382Z" fill="#D3D2F6"/>
<path d="M71.6774 47.3382C71.6774 48.0448 70.9481 48.6176 70.0484 48.6176C69.1487 48.6176 68.4194 48.0448 68.4194 47.3382C68.4194 46.6316 69.1487 46.0588 70.0484 46.0588C70.9481 46.0588 71.6774 46.6316 71.6774 47.3382Z" fill="#D3D2F6"/>
<path d="M81.4516 47.3382C81.4516 48.0448 80.7223 48.6176 79.8226 48.6176C78.9229 48.6176 78.1935 48.0448 78.1935 47.3382C78.1935 46.6316 78.9229 46.0588 79.8226 46.0588C80.7223 46.0588 81.4516 46.6316 81.4516 47.3382Z" fill="#D3D2F6"/>
<path d="M91.2258 47.3382C91.2258 48.0448 90.4965 48.6176 89.5968 48.6176C88.6971 48.6176 87.9677 48.0448 87.9677 47.3382C87.9677 46.6316 88.6971 46.0588 89.5968 46.0588C90.4965 46.0588 91.2258 46.6316 91.2258 47.3382Z" fill="#D3D2F6"/>
<path d="M101 47.3382C101 48.0448 100.271 48.6176 99.371 48.6176C98.4713 48.6176 97.7419 48.0448 97.7419 47.3382C97.7419 46.6316 98.4713 46.0588 99.371 46.0588C100.271 46.0588 101 46.6316 101 47.3382Z" fill="#D3D2F6"/>
<path d="M3.25806 55.0147C3.25806 55.7213 2.52872 56.2941 1.62903 56.2941C0.729343 56.2941 0 55.7213 0 55.0147C0 54.3081 0.729343 53.7353 1.62903 53.7353C2.52872 53.7353 3.25806 54.3081 3.25806 55.0147Z" fill="#D3D2F6"/>
<path d="M13.0323 55.0147C13.0323 55.7213 12.3029 56.2941 11.4032 56.2941C10.5035 56.2941 9.77419 55.7213 9.77419 55.0147C9.77419 54.3081 10.5035 53.7353 11.4032 53.7353C12.3029 53.7353 13.0323 54.3081 13.0323 55.0147Z" fill="#D3D2F6"/>
<path d="M22.8065 55.0147C22.8065 55.7213 22.0771 56.2941 21.1774 56.2941C20.2777 56.2941 19.5484 55.7213 19.5484 55.0147C19.5484 54.3081 20.2777 53.7353 21.1774 53.7353C22.0771 53.7353 22.8065 54.3081 22.8065 55.0147Z" fill="#D3D2F6"/>
<path d="M32.5806 55.0147C32.5806 55.7213 31.8513 56.2941 30.9516 56.2941C30.0519 56.2941 29.3226 55.7213 29.3226 55.0147C29.3226 54.3081 30.0519 53.7353 30.9516 53.7353C31.8513 53.7353 32.5806 54.3081 32.5806 55.0147Z" fill="#D3D2F6"/>
<path d="M42.3548 55.0147C42.3548 55.7213 41.6255 56.2941 40.7258 56.2941C39.8261 56.2941 39.0968 55.7213 39.0968 55.0147C39.0968 54.3081 39.8261 53.7353 40.7258 53.7353C41.6255 53.7353 42.3548 54.3081 42.3548 55.0147Z" fill="#D3D2F6"/>
<path d="M52.129 55.0147C52.129 55.7213 51.3997 56.2941 50.5 56.2941C49.6003 56.2941 48.871 55.7213 48.871 55.0147C48.871 54.3081 49.6003 53.7353 50.5 53.7353C51.3997 53.7353 52.129 54.3081 52.129 55.0147Z" fill="#D3D2F6"/>
<path d="M61.9032 55.0147C61.9032 55.7213 61.1739 56.2941 60.2742 56.2941C59.3745 56.2941 58.6452 55.7213 58.6452 55.0147C58.6452 54.3081 59.3745 53.7353 60.2742 53.7353C61.1739 53.7353 61.9032 54.3081 61.9032 55.0147Z" fill="#D3D2F6"/>
<path d="M71.6774 55.0147C71.6774 55.7213 70.9481 56.2941 70.0484 56.2941C69.1487 56.2941 68.4194 55.7213 68.4194 55.0147C68.4194 54.3081 69.1487 53.7353 70.0484 53.7353C70.9481 53.7353 71.6774 54.3081 71.6774 55.0147Z" fill="#D3D2F6"/>
<path d="M81.4516 55.0147C81.4516 55.7213 80.7223 56.2941 79.8226 56.2941C78.9229 56.2941 78.1935 55.7213 78.1935 55.0147C78.1935 54.3081 78.9229 53.7353 79.8226 53.7353C80.7223 53.7353 81.4516 54.3081 81.4516 55.0147Z" fill="#D3D2F6"/>
<path d="M91.2258 55.0147C91.2258 55.7213 90.4965 56.2941 89.5968 56.2941C88.6971 56.2941 87.9677 55.7213 87.9677 55.0147C87.9677 54.3081 88.6971 53.7353 89.5968 53.7353C90.4965 53.7353 91.2258 54.3081 91.2258 55.0147Z" fill="#D3D2F6"/>
<path d="M101 55.0147C101 55.7213 100.271 56.2941 99.371 56.2941C98.4713 56.2941 97.7419 55.7213 97.7419 55.0147C97.7419 54.3081 98.4713 53.7353 99.371 53.7353C100.271 53.7353 101 54.3081 101 55.0147Z" fill="#D3D2F6"/>
<path d="M3.25806 62.6912C3.25806 63.3978 2.52872 63.9706 1.62903 63.9706C0.729343 63.9706 0 63.3978 0 62.6912C0 61.9846 0.729343 61.4118 1.62903 61.4118C2.52872 61.4118 3.25806 61.9846 3.25806 62.6912Z" fill="#D3D2F6"/>
<path d="M13.0323 62.6912C13.0323 63.3978 12.3029 63.9706 11.4032 63.9706C10.5035 63.9706 9.77419 63.3978 9.77419 62.6912C9.77419 61.9846 10.5035 61.4118 11.4032 61.4118C12.3029 61.4118 13.0323 61.9846 13.0323 62.6912Z" fill="#D3D2F6"/>
<path d="M22.8065 62.6912C22.8065 63.3978 22.0771 63.9706 21.1774 63.9706C20.2777 63.9706 19.5484 63.3978 19.5484 62.6912C19.5484 61.9846 20.2777 61.4118 21.1774 61.4118C22.0771 61.4118 22.8065 61.9846 22.8065 62.6912Z" fill="#D3D2F6"/>
<path d="M32.5806 62.6912C32.5806 63.3978 31.8513 63.9706 30.9516 63.9706C30.0519 63.9706 29.3226 63.3978 29.3226 62.6912C29.3226 61.9846 30.0519 61.4118 30.9516 61.4118C31.8513 61.4118 32.5806 61.9846 32.5806 62.6912Z" fill="#D3D2F6"/>
<path d="M42.3548 62.6912C42.3548 63.3978 41.6255 63.9706 40.7258 63.9706C39.8261 63.9706 39.0968 63.3978 39.0968 62.6912C39.0968 61.9846 39.8261 61.4118 40.7258 61.4118C41.6255 61.4118 42.3548 61.9846 42.3548 62.6912Z" fill="#D3D2F6"/>
<path d="M52.129 62.6912C52.129 63.3978 51.3997 63.9706 50.5 63.9706C49.6003 63.9706 48.871 63.3978 48.871 62.6912C48.871 61.9846 49.6003 61.4118 50.5 61.4118C51.3997 61.4118 52.129 61.9846 52.129 62.6912Z" fill="#D3D2F6"/>
<path d="M61.9032 62.6912C61.9032 63.3978 61.1739 63.9706 60.2742 63.9706C59.3745 63.9706 58.6452 63.3978 58.6452 62.6912C58.6452 61.9846 59.3745 61.4118 60.2742 61.4118C61.1739 61.4118 61.9032 61.9846 61.9032 62.6912Z" fill="#D3D2F6"/>
<path d="M71.6774 62.6912C71.6774 63.3978 70.9481 63.9706 70.0484 63.9706C69.1487 63.9706 68.4194 63.3978 68.4194 62.6912C68.4194 61.9846 69.1487 61.4118 70.0484 61.4118C70.9481 61.4118 71.6774 61.9846 71.6774 62.6912Z" fill="#D3D2F6"/>
<path d="M81.4516 62.6912C81.4516 63.3978 80.7223 63.9706 79.8226 63.9706C78.9229 63.9706 78.1935 63.3978 78.1935 62.6912C78.1935 61.9846 78.9229 61.4118 79.8226 61.4118C80.7223 61.4118 81.4516 61.9846 81.4516 62.6912Z" fill="#D3D2F6"/>
<path d="M91.2258 62.6912C91.2258 63.3978 90.4965 63.9706 89.5968 63.9706C88.6971 63.9706 87.9677 63.3978 87.9677 62.6912C87.9677 61.9846 88.6971 61.4118 89.5968 61.4118C90.4965 61.4118 91.2258 61.9846 91.2258 62.6912Z" fill="#D3D2F6"/>
<path d="M101 62.6912C101 63.3978 100.271 63.9706 99.371 63.9706C98.4713 63.9706 97.7419 63.3978 97.7419 62.6912C97.7419 61.9846 98.4713 61.4118 99.371 61.4118C100.271 61.4118 101 61.9846 101 62.6912Z" fill="#D3D2F6"/>
<path d="M3.25806 70.3676C3.25806 71.0742 2.52872 71.6471 1.62903 71.6471C0.729343 71.6471 0 71.0742 0 70.3676C0 69.661 0.729343 69.0882 1.62903 69.0882C2.52872 69.0882 3.25806 69.661 3.25806 70.3676Z" fill="#D3D2F6"/>
<path d="M13.0323 70.3676C13.0323 71.0742 12.3029 71.6471 11.4032 71.6471C10.5035 71.6471 9.77419 71.0742 9.77419 70.3676C9.77419 69.661 10.5035 69.0882 11.4032 69.0882C12.3029 69.0882 13.0323 69.661 13.0323 70.3676Z" fill="#D3D2F6"/>
<path d="M22.8065 70.3676C22.8065 71.0742 22.0771 71.6471 21.1774 71.6471C20.2777 71.6471 19.5484 71.0742 19.5484 70.3676C19.5484 69.661 20.2777 69.0882 21.1774 69.0882C22.0771 69.0882 22.8065 69.661 22.8065 70.3676Z" fill="#D3D2F6"/>
<path d="M32.5806 70.3676C32.5806 71.0742 31.8513 71.6471 30.9516 71.6471C30.0519 71.6471 29.3226 71.0742 29.3226 70.3676C29.3226 69.661 30.0519 69.0882 30.9516 69.0882C31.8513 69.0882 32.5806 69.661 32.5806 70.3676Z" fill="#D3D2F6"/>
<path d="M42.3548 70.3676C42.3548 71.0742 41.6255 71.6471 40.7258 71.6471C39.8261 71.6471 39.0968 71.0742 39.0968 70.3676C39.0968 69.661 39.8261 69.0882 40.7258 69.0882C41.6255 69.0882 42.3548 69.661 42.3548 70.3676Z" fill="#D3D2F6"/>
<path d="M52.129 70.3676C52.129 71.0742 51.3997 71.6471 50.5 71.6471C49.6003 71.6471 48.871 71.0742 48.871 70.3676C48.871 69.661 49.6003 69.0882 50.5 69.0882C51.3997 69.0882 52.129 69.661 52.129 70.3676Z" fill="#D3D2F6"/>
<path d="M61.9032 70.3676C61.9032 71.0742 61.1739 71.6471 60.2742 71.6471C59.3745 71.6471 58.6452 71.0742 58.6452 70.3676C58.6452 69.661 59.3745 69.0882 60.2742 69.0882C61.1739 69.0882 61.9032 69.661 61.9032 70.3676Z" fill="#D3D2F6"/>
<path d="M71.6774 70.3676C71.6774 71.0742 70.9481 71.6471 70.0484 71.6471C69.1487 71.6471 68.4194 71.0742 68.4194 70.3676C68.4194 69.661 69.1487 69.0882 70.0484 69.0882C70.9481 69.0882 71.6774 69.661 71.6774 70.3676Z" fill="#D3D2F6"/>
<path d="M81.4516 70.3676C81.4516 71.0742 80.7223 71.6471 79.8226 71.6471C78.9229 71.6471 78.1935 71.0742 78.1935 70.3676C78.1935 69.661 78.9229 69.0882 79.8226 69.0882C80.7223 69.0882 81.4516 69.661 81.4516 70.3676Z" fill="#D3D2F6"/>
<path d="M91.2258 70.3676C91.2258 71.0742 90.4965 71.6471 89.5968 71.6471C88.6971 71.6471 87.9677 71.0742 87.9677 70.3676C87.9677 69.661 88.6971 69.0882 89.5968 69.0882C90.4965 69.0882 91.2258 69.661 91.2258 70.3676Z" fill="#D3D2F6"/>
<path d="M101 70.3676C101 71.0742 100.271 71.6471 99.371 71.6471C98.4713 71.6471 97.7419 71.0742 97.7419 70.3676C97.7419 69.661 98.4713 69.0882 99.371 69.0882C100.271 69.0882 101 69.661 101 70.3676Z" fill="#D3D2F6"/>
<path d="M3.25806 78.0441C3.25806 78.7507 2.52872 79.3235 1.62903 79.3235C0.729343 79.3235 0 78.7507 0 78.0441C0 77.3375 0.729343 76.7647 1.62903 76.7647C2.52872 76.7647 3.25806 77.3375 3.25806 78.0441Z" fill="#D3D2F6"/>
<path d="M13.0323 78.0441C13.0323 78.7507 12.3029 79.3235 11.4032 79.3235C10.5035 79.3235 9.77419 78.7507 9.77419 78.0441C9.77419 77.3375 10.5035 76.7647 11.4032 76.7647C12.3029 76.7647 13.0323 77.3375 13.0323 78.0441Z" fill="#D3D2F6"/>
<path d="M22.8065 78.0441C22.8065 78.7507 22.0771 79.3235 21.1774 79.3235C20.2777 79.3235 19.5484 78.7507 19.5484 78.0441C19.5484 77.3375 20.2777 76.7647 21.1774 76.7647C22.0771 76.7647 22.8065 77.3375 22.8065 78.0441Z" fill="#D3D2F6"/>
<path d="M32.5806 78.0441C32.5806 78.7507 31.8513 79.3235 30.9516 79.3235C30.0519 79.3235 29.3226 78.7507 29.3226 78.0441C29.3226 77.3375 30.0519 76.7647 30.9516 76.7647C31.8513 76.7647 32.5806 77.3375 32.5806 78.0441Z" fill="#D3D2F6"/>
<path d="M42.3548 78.0441C42.3548 78.7507 41.6255 79.3235 40.7258 79.3235C39.8261 79.3235 39.0968 78.7507 39.0968 78.0441C39.0968 77.3375 39.8261 76.7647 40.7258 76.7647C41.6255 76.7647 42.3548 77.3375 42.3548 78.0441Z" fill="#D3D2F6"/>
<path d="M52.129 78.0441C52.129 78.7507 51.3997 79.3235 50.5 79.3235C49.6003 79.3235 48.871 78.7507 48.871 78.0441C48.871 77.3375 49.6003 76.7647 50.5 76.7647C51.3997 76.7647 52.129 77.3375 52.129 78.0441Z" fill="#D3D2F6"/>
<path d="M61.9032 78.0441C61.9032 78.7507 61.1739 79.3235 60.2742 79.3235C59.3745 79.3235 58.6452 78.7507 58.6452 78.0441C58.6452 77.3375 59.3745 76.7647 60.2742 76.7647C61.1739 76.7647 61.9032 77.3375 61.9032 78.0441Z" fill="#D3D2F6"/>
<path d="M71.6774 78.0441C71.6774 78.7507 70.9481 79.3235 70.0484 79.3235C69.1487 79.3235 68.4194 78.7507 68.4194 78.0441C68.4194 77.3375 69.1487 76.7647 70.0484 76.7647C70.9481 76.7647 71.6774 77.3375 71.6774 78.0441Z" fill="#D3D2F6"/>
<path d="M81.4516 78.0441C81.4516 78.7507 80.7223 79.3235 79.8226 79.3235C78.9229 79.3235 78.1935 78.7507 78.1935 78.0441C78.1935 77.3375 78.9229 76.7647 79.8226 76.7647C80.7223 76.7647 81.4516 77.3375 81.4516 78.0441Z" fill="#D3D2F6"/>
<path d="M91.2258 78.0441C91.2258 78.7507 90.4965 79.3235 89.5968 79.3235C88.6971 79.3235 87.9677 78.7507 87.9677 78.0441C87.9677 77.3375 88.6971 76.7647 89.5968 76.7647C90.4965 76.7647 91.2258 77.3375 91.2258 78.0441Z" fill="#D3D2F6"/>
<path d="M101 78.0441C101 78.7507 100.271 79.3235 99.371 79.3235C98.4713 79.3235 97.7419 78.7507 97.7419 78.0441C97.7419 77.3375 98.4713 76.7647 99.371 76.7647C100.271 76.7647 101 77.3375 101 78.0441Z" fill="#D3D2F6"/>
<path d="M3.25806 85.7206C3.25806 86.4272 2.52872 87 1.62903 87C0.729343 87 0 86.4272 0 85.7206C0 85.014 0.729343 84.4412 1.62903 84.4412C2.52872 84.4412 3.25806 85.014 3.25806 85.7206Z" fill="#D3D2F6"/>
<path d="M13.0323 85.7206C13.0323 86.4272 12.3029 87 11.4032 87C10.5035 87 9.77419 86.4272 9.77419 85.7206C9.77419 85.014 10.5035 84.4412 11.4032 84.4412C12.3029 84.4412 13.0323 85.014 13.0323 85.7206Z" fill="#D3D2F6"/>
<path d="M22.8065 85.7206C22.8065 86.4272 22.0771 87 21.1774 87C20.2777 87 19.5484 86.4272 19.5484 85.7206C19.5484 85.014 20.2777 84.4412 21.1774 84.4412C22.0771 84.4412 22.8065 85.014 22.8065 85.7206Z" fill="#D3D2F6"/>
<path d="M32.5806 85.7206C32.5806 86.4272 31.8513 87 30.9516 87C30.0519 87 29.3226 86.4272 29.3226 85.7206C29.3226 85.014 30.0519 84.4412 30.9516 84.4412C31.8513 84.4412 32.5806 85.014 32.5806 85.7206Z" fill="#D3D2F6"/>
<path d="M42.3548 85.7206C42.3548 86.4272 41.6255 87 40.7258 87C39.8261 87 39.0968 86.4272 39.0968 85.7206C39.0968 85.014 39.8261 84.4412 40.7258 84.4412C41.6255 84.4412 42.3548 85.014 42.3548 85.7206Z" fill="#D3D2F6"/>
<path d="M52.129 85.7206C52.129 86.4272 51.3997 87 50.5 87C49.6003 87 48.871 86.4272 48.871 85.7206C48.871 85.014 49.6003 84.4412 50.5 84.4412C51.3997 84.4412 52.129 85.014 52.129 85.7206Z" fill="#D3D2F6"/>
<path d="M61.9032 85.7206C61.9032 86.4272 61.1739 87 60.2742 87C59.3745 87 58.6452 86.4272 58.6452 85.7206C58.6452 85.014 59.3745 84.4412 60.2742 84.4412C61.1739 84.4412 61.9032 85.014 61.9032 85.7206Z" fill="#D3D2F6"/>
<path d="M71.6774 85.7206C71.6774 86.4272 70.9481 87 70.0484 87C69.1487 87 68.4194 86.4272 68.4194 85.7206C68.4194 85.014 69.1487 84.4412 70.0484 84.4412C70.9481 84.4412 71.6774 85.014 71.6774 85.7206Z" fill="#D3D2F6"/>
<path d="M81.4516 85.7206C81.4516 86.4272 80.7223 87 79.8226 87C78.9229 87 78.1935 86.4272 78.1935 85.7206C78.1935 85.014 78.9229 84.4412 79.8226 84.4412C80.7223 84.4412 81.4516 85.014 81.4516 85.7206Z" fill="#D3D2F6"/>
<path d="M91.2258 85.7206C91.2258 86.4272 90.4965 87 89.5968 87C88.6971 87 87.9677 86.4272 87.9677 85.7206C87.9677 85.014 88.6971 84.4412 89.5968 84.4412C90.4965 84.4412 91.2258 85.014 91.2258 85.7206Z" fill="#D3D2F6"/>
<path d="M101 85.7206C101 86.4272 100.271 87 99.371 87C98.4713 87 97.7419 86.4272 97.7419 85.7206C97.7419 85.014 98.4713 84.4412 99.371 84.4412C100.271 84.4412 101 85.014 101 85.7206Z" fill="#D3D2F6"/>
<path d="M252.258 1902.28C252.258 1902.99 251.529 1903.56 250.629 1903.56C249.729 1903.56 249 1902.99 249 1902.28C249 1901.57 249.729 1901 250.629 1901C251.529 1901 252.258 1901.57 252.258 1902.28Z" fill="#D3D2F6"/>
<path d="M262.032 1902.28C262.032 1902.99 261.303 1903.56 260.403 1903.56C259.504 1903.56 258.774 1902.99 258.774 1902.28C258.774 1901.57 259.504 1901 260.403 1901C261.303 1901 262.032 1901.57 262.032 1902.28Z" fill="#D3D2F6"/>
<path d="M271.806 1902.28C271.806 1902.99 271.077 1903.56 270.177 1903.56C269.278 1903.56 268.548 1902.99 268.548 1902.28C268.548 1901.57 269.278 1901 270.177 1901C271.077 1901 271.806 1901.57 271.806 1902.28Z" fill="#D3D2F6"/>
<path d="M281.581 1902.28C281.581 1902.99 280.851 1903.56 279.952 1903.56C279.052 1903.56 278.323 1902.99 278.323 1902.28C278.323 1901.57 279.052 1901 279.952 1901C280.851 1901 281.581 1901.57 281.581 1902.28Z" fill="#D3D2F6"/>
<path d="M291.355 1902.28C291.355 1902.99 290.625 1903.56 289.726 1903.56C288.826 1903.56 288.097 1902.99 288.097 1902.28C288.097 1901.57 288.826 1901 289.726 1901C290.625 1901 291.355 1901.57 291.355 1902.28Z" fill="#D3D2F6"/>
<path d="M301.129 1902.28C301.129 1902.99 300.4 1903.56 299.5 1903.56C298.6 1903.56 297.871 1902.99 297.871 1902.28C297.871 1901.57 298.6 1901 299.5 1901C300.4 1901 301.129 1901.57 301.129 1902.28Z" fill="#D3D2F6"/>
<path d="M310.903 1902.28C310.903 1902.99 310.174 1903.56 309.274 1903.56C308.375 1903.56 307.645 1902.99 307.645 1902.28C307.645 1901.57 308.375 1901 309.274 1901C310.174 1901 310.903 1901.57 310.903 1902.28Z" fill="#D3D2F6"/>
<path d="M320.677 1902.28C320.677 1902.99 319.948 1903.56 319.048 1903.56C318.149 1903.56 317.419 1902.99 317.419 1902.28C317.419 1901.57 318.149 1901 319.048 1901C319.948 1901 320.677 1901.57 320.677 1902.28Z" fill="#D3D2F6"/>
<path d="M330.452 1902.28C330.452 1902.99 329.722 1903.56 328.823 1903.56C327.923 1903.56 327.194 1902.99 327.194 1902.28C327.194 1901.57 327.923 1901 328.823 1901C329.722 1901 330.452 1901.57 330.452 1902.28Z" fill="#D3D2F6"/>
<path d="M340.226 1902.28C340.226 1902.99 339.496 1903.56 338.597 1903.56C337.697 1903.56 336.968 1902.99 336.968 1902.28C336.968 1901.57 337.697 1901 338.597 1901C339.496 1901 340.226 1901.57 340.226 1902.28Z" fill="#D3D2F6"/>
<path d="M350 1902.28C350 1902.99 349.271 1903.56 348.371 1903.56C347.471 1903.56 346.742 1902.99 346.742 1902.28C346.742 1901.57 347.471 1901 348.371 1901C349.271 1901 350 1901.57 350 1902.28Z" fill="#D3D2F6"/>
<path d="M252.258 1909.96C252.258 1910.66 251.529 1911.24 250.629 1911.24C249.729 1911.24 249 1910.66 249 1909.96C249 1909.25 249.729 1908.68 250.629 1908.68C251.529 1908.68 252.258 1909.25 252.258 1909.96Z" fill="#D3D2F6"/>
<path d="M262.032 1909.96C262.032 1910.66 261.303 1911.24 260.403 1911.24C259.504 1911.24 258.774 1910.66 258.774 1909.96C258.774 1909.25 259.504 1908.68 260.403 1908.68C261.303 1908.68 262.032 1909.25 262.032 1909.96Z" fill="#D3D2F6"/>
<path d="M271.806 1909.96C271.806 1910.66 271.077 1911.24 270.177 1911.24C269.278 1911.24 268.548 1910.66 268.548 1909.96C268.548 1909.25 269.278 1908.68 270.177 1908.68C271.077 1908.68 271.806 1909.25 271.806 1909.96Z" fill="#D3D2F6"/>
<path d="M281.581 1909.96C281.581 1910.66 280.851 1911.24 279.952 1911.24C279.052 1911.24 278.323 1910.66 278.323 1909.96C278.323 1909.25 279.052 1908.68 279.952 1908.68C280.851 1908.68 281.581 1909.25 281.581 1909.96Z" fill="#D3D2F6"/>
<path d="M291.355 1909.96C291.355 1910.66 290.625 1911.24 289.726 1911.24C288.826 1911.24 288.097 1910.66 288.097 1909.96C288.097 1909.25 288.826 1908.68 289.726 1908.68C290.625 1908.68 291.355 1909.25 291.355 1909.96Z" fill="#D3D2F6"/>
<path d="M301.129 1909.96C301.129 1910.66 300.4 1911.24 299.5 1911.24C298.6 1911.24 297.871 1910.66 297.871 1909.96C297.871 1909.25 298.6 1908.68 299.5 1908.68C300.4 1908.68 301.129 1909.25 301.129 1909.96Z" fill="#D3D2F6"/>
<path d="M310.903 1909.96C310.903 1910.66 310.174 1911.24 309.274 1911.24C308.375 1911.24 307.645 1910.66 307.645 1909.96C307.645 1909.25 308.375 1908.68 309.274 1908.68C310.174 1908.68 310.903 1909.25 310.903 1909.96Z" fill="#D3D2F6"/>
<path d="M320.677 1909.96C320.677 1910.66 319.948 1911.24 319.048 1911.24C318.149 1911.24 317.419 1910.66 317.419 1909.96C317.419 1909.25 318.149 1908.68 319.048 1908.68C319.948 1908.68 320.677 1909.25 320.677 1909.96Z" fill="#D3D2F6"/>
<path d="M330.452 1909.96C330.452 1910.66 329.722 1911.24 328.823 1911.24C327.923 1911.24 327.194 1910.66 327.194 1909.96C327.194 1909.25 327.923 1908.68 328.823 1908.68C329.722 1908.68 330.452 1909.25 330.452 1909.96Z" fill="#D3D2F6"/>
<path d="M340.226 1909.96C340.226 1910.66 339.496 1911.24 338.597 1911.24C337.697 1911.24 336.968 1910.66 336.968 1909.96C336.968 1909.25 337.697 1908.68 338.597 1908.68C339.496 1908.68 340.226 1909.25 340.226 1909.96Z" fill="#D3D2F6"/>
<path d="M350 1909.96C350 1910.66 349.271 1911.24 348.371 1911.24C347.471 1911.24 346.742 1910.66 346.742 1909.96C346.742 1909.25 347.471 1908.68 348.371 1908.68C349.271 1908.68 350 1909.25 350 1909.96Z" fill="#D3D2F6"/>
<path d="M252.258 1917.63C252.258 1918.34 251.529 1918.91 250.629 1918.91C249.729 1918.91 249 1918.34 249 1917.63C249 1916.93 249.729 1916.35 250.629 1916.35C251.529 1916.35 252.258 1916.93 252.258 1917.63Z" fill="#D3D2F6"/>
<path d="M262.032 1917.63C262.032 1918.34 261.303 1918.91 260.403 1918.91C259.504 1918.91 258.774 1918.34 258.774 1917.63C258.774 1916.93 259.504 1916.35 260.403 1916.35C261.303 1916.35 262.032 1916.93 262.032 1917.63Z" fill="#D3D2F6"/>
<path d="M271.806 1917.63C271.806 1918.34 271.077 1918.91 270.177 1918.91C269.278 1918.91 268.548 1918.34 268.548 1917.63C268.548 1916.93 269.278 1916.35 270.177 1916.35C271.077 1916.35 271.806 1916.93 271.806 1917.63Z" fill="#D3D2F6"/>
<path d="M281.581 1917.63C281.581 1918.34 280.851 1918.91 279.952 1918.91C279.052 1918.91 278.323 1918.34 278.323 1917.63C278.323 1916.93 279.052 1916.35 279.952 1916.35C280.851 1916.35 281.581 1916.93 281.581 1917.63Z" fill="#D3D2F6"/>
<path d="M291.355 1917.63C291.355 1918.34 290.625 1918.91 289.726 1918.91C288.826 1918.91 288.097 1918.34 288.097 1917.63C288.097 1916.93 288.826 1916.35 289.726 1916.35C290.625 1916.35 291.355 1916.93 291.355 1917.63Z" fill="#D3D2F6"/>
<path d="M301.129 1917.63C301.129 1918.34 300.4 1918.91 299.5 1918.91C298.6 1918.91 297.871 1918.34 297.871 1917.63C297.871 1916.93 298.6 1916.35 299.5 1916.35C300.4 1916.35 301.129 1916.93 301.129 1917.63Z" fill="#D3D2F6"/>
<path d="M310.903 1917.63C310.903 1918.34 310.174 1918.91 309.274 1918.91C308.375 1918.91 307.645 1918.34 307.645 1917.63C307.645 1916.93 308.375 1916.35 309.274 1916.35C310.174 1916.35 310.903 1916.93 310.903 1917.63Z" fill="#D3D2F6"/>
<path d="M320.677 1917.63C320.677 1918.34 319.948 1918.91 319.048 1918.91C318.149 1918.91 317.419 1918.34 317.419 1917.63C317.419 1916.93 318.149 1916.35 319.048 1916.35C319.948 1916.35 320.677 1916.93 320.677 1917.63Z" fill="#D3D2F6"/>
<path d="M330.452 1917.63C330.452 1918.34 329.722 1918.91 328.823 1918.91C327.923 1918.91 327.194 1918.34 327.194 1917.63C327.194 1916.93 327.923 1916.35 328.823 1916.35C329.722 1916.35 330.452 1916.93 330.452 1917.63Z" fill="#D3D2F6"/>
<path d="M340.226 1917.63C340.226 1918.34 339.496 1918.91 338.597 1918.91C337.697 1918.91 336.968 1918.34 336.968 1917.63C336.968 1916.93 337.697 1916.35 338.597 1916.35C339.496 1916.35 340.226 1916.93 340.226 1917.63Z" fill="#D3D2F6"/>
<path d="M350 1917.63C350 1918.34 349.271 1918.91 348.371 1918.91C347.471 1918.91 346.742 1918.34 346.742 1917.63C346.742 1916.93 347.471 1916.35 348.371 1916.35C349.271 1916.35 350 1916.93 350 1917.63Z" fill="#D3D2F6"/>
<path d="M252.258 1925.31C252.258 1926.02 251.529 1926.59 250.629 1926.59C249.729 1926.59 249 1926.02 249 1925.31C249 1924.6 249.729 1924.03 250.629 1924.03C251.529 1924.03 252.258 1924.6 252.258 1925.31Z" fill="#D3D2F6"/>
<path d="M262.032 1925.31C262.032 1926.02 261.303 1926.59 260.403 1926.59C259.504 1926.59 258.774 1926.02 258.774 1925.31C258.774 1924.6 259.504 1924.03 260.403 1924.03C261.303 1924.03 262.032 1924.6 262.032 1925.31Z" fill="#D3D2F6"/>
<path d="M271.806 1925.31C271.806 1926.02 271.077 1926.59 270.177 1926.59C269.278 1926.59 268.548 1926.02 268.548 1925.31C268.548 1924.6 269.278 1924.03 270.177 1924.03C271.077 1924.03 271.806 1924.6 271.806 1925.31Z" fill="#D3D2F6"/>
<path d="M281.581 1925.31C281.581 1926.02 280.851 1926.59 279.952 1926.59C279.052 1926.59 278.323 1926.02 278.323 1925.31C278.323 1924.6 279.052 1924.03 279.952 1924.03C280.851 1924.03 281.581 1924.6 281.581 1925.31Z" fill="#D3D2F6"/>
<path d="M291.355 1925.31C291.355 1926.02 290.625 1926.59 289.726 1926.59C288.826 1926.59 288.097 1926.02 288.097 1925.31C288.097 1924.6 288.826 1924.03 289.726 1924.03C290.625 1924.03 291.355 1924.6 291.355 1925.31Z" fill="#D3D2F6"/>
<path d="M301.129 1925.31C301.129 1926.02 300.4 1926.59 299.5 1926.59C298.6 1926.59 297.871 1926.02 297.871 1925.31C297.871 1924.6 298.6 1924.03 299.5 1924.03C300.4 1924.03 301.129 1924.6 301.129 1925.31Z" fill="#D3D2F6"/>
<path d="M310.903 1925.31C310.903 1926.02 310.174 1926.59 309.274 1926.59C308.375 1926.59 307.645 1926.02 307.645 1925.31C307.645 1924.6 308.375 1924.03 309.274 1924.03C310.174 1924.03 310.903 1924.6 310.903 1925.31Z" fill="#D3D2F6"/>
<path d="M320.677 1925.31C320.677 1926.02 319.948 1926.59 319.048 1926.59C318.149 1926.59 317.419 1926.02 317.419 1925.31C317.419 1924.6 318.149 1924.03 319.048 1924.03C319.948 1924.03 320.677 1924.6 320.677 1925.31Z" fill="#D3D2F6"/>
<path d="M330.452 1925.31C330.452 1926.02 329.722 1926.59 328.823 1926.59C327.923 1926.59 327.194 1926.02 327.194 1925.31C327.194 1924.6 327.923 1924.03 328.823 1924.03C329.722 1924.03 330.452 1924.6 330.452 1925.31Z" fill="#D3D2F6"/>
<path d="M340.226 1925.31C340.226 1926.02 339.496 1926.59 338.597 1926.59C337.697 1926.59 336.968 1926.02 336.968 1925.31C336.968 1924.6 337.697 1924.03 338.597 1924.03C339.496 1924.03 340.226 1924.6 340.226 1925.31Z" fill="#D3D2F6"/>
<path d="M350 1925.31C350 1926.02 349.271 1926.59 348.371 1926.59C347.471 1926.59 346.742 1926.02 346.742 1925.31C346.742 1924.6 347.471 1924.03 348.371 1924.03C349.271 1924.03 350 1924.6 350 1925.31Z" fill="#D3D2F6"/>
<path d="M252.258 1932.99C252.258 1933.69 251.529 1934.26 250.629 1934.26C249.729 1934.26 249 1933.69 249 1932.99C249 1932.28 249.729 1931.71 250.629 1931.71C251.529 1931.71 252.258 1932.28 252.258 1932.99Z" fill="#D3D2F6"/>
<path d="M262.032 1932.99C262.032 1933.69 261.303 1934.26 260.403 1934.26C259.504 1934.26 258.774 1933.69 258.774 1932.99C258.774 1932.28 259.504 1931.71 260.403 1931.71C261.303 1931.71 262.032 1932.28 262.032 1932.99Z" fill="#D3D2F6"/>
<path d="M271.806 1932.99C271.806 1933.69 271.077 1934.26 270.177 1934.26C269.278 1934.26 268.548 1933.69 268.548 1932.99C268.548 1932.28 269.278 1931.71 270.177 1931.71C271.077 1931.71 271.806 1932.28 271.806 1932.99Z" fill="#D3D2F6"/>
<path d="M281.581 1932.99C281.581 1933.69 280.851 1934.26 279.952 1934.26C279.052 1934.26 278.323 1933.69 278.323 1932.99C278.323 1932.28 279.052 1931.71 279.952 1931.71C280.851 1931.71 281.581 1932.28 281.581 1932.99Z" fill="#D3D2F6"/>
<path d="M291.355 1932.99C291.355 1933.69 290.625 1934.26 289.726 1934.26C288.826 1934.26 288.097 1933.69 288.097 1932.99C288.097 1932.28 288.826 1931.71 289.726 1931.71C290.625 1931.71 291.355 1932.28 291.355 1932.99Z" fill="#D3D2F6"/>
<path d="M301.129 1932.99C301.129 1933.69 300.4 1934.26 299.5 1934.26C298.6 1934.26 297.871 1933.69 297.871 1932.99C297.871 1932.28 298.6 1931.71 299.5 1931.71C300.4 1931.71 301.129 1932.28 301.129 1932.99Z" fill="#D3D2F6"/>
<path d="M310.903 1932.99C310.903 1933.69 310.174 1934.26 309.274 1934.26C308.375 1934.26 307.645 1933.69 307.645 1932.99C307.645 1932.28 308.375 1931.71 309.274 1931.71C310.174 1931.71 310.903 1932.28 310.903 1932.99Z" fill="#D3D2F6"/>
<path d="M320.677 1932.99C320.677 1933.69 319.948 1934.26 319.048 1934.26C318.149 1934.26 317.419 1933.69 317.419 1932.99C317.419 1932.28 318.149 1931.71 319.048 1931.71C319.948 1931.71 320.677 1932.28 320.677 1932.99Z" fill="#D3D2F6"/>
<path d="M330.452 1932.99C330.452 1933.69 329.722 1934.26 328.823 1934.26C327.923 1934.26 327.194 1933.69 327.194 1932.99C327.194 1932.28 327.923 1931.71 328.823 1931.71C329.722 1931.71 330.452 1932.28 330.452 1932.99Z" fill="#D3D2F6"/>
<path d="M340.226 1932.99C340.226 1933.69 339.496 1934.26 338.597 1934.26C337.697 1934.26 336.968 1933.69 336.968 1932.99C336.968 1932.28 337.697 1931.71 338.597 1931.71C339.496 1931.71 340.226 1932.28 340.226 1932.99Z" fill="#D3D2F6"/>
<path d="M350 1932.99C350 1933.69 349.271 1934.26 348.371 1934.26C347.471 1934.26 346.742 1933.69 346.742 1932.99C346.742 1932.28 347.471 1931.71 348.371 1931.71C349.271 1931.71 350 1932.28 350 1932.99Z" fill="#D3D2F6"/>
<path d="M252.258 1940.66C252.258 1941.37 251.529 1941.94 250.629 1941.94C249.729 1941.94 249 1941.37 249 1940.66C249 1939.96 249.729 1939.38 250.629 1939.38C251.529 1939.38 252.258 1939.96 252.258 1940.66Z" fill="#D3D2F6"/>
<path d="M262.032 1940.66C262.032 1941.37 261.303 1941.94 260.403 1941.94C259.504 1941.94 258.774 1941.37 258.774 1940.66C258.774 1939.96 259.504 1939.38 260.403 1939.38C261.303 1939.38 262.032 1939.96 262.032 1940.66Z" fill="#D3D2F6"/>
<path d="M271.806 1940.66C271.806 1941.37 271.077 1941.94 270.177 1941.94C269.278 1941.94 268.548 1941.37 268.548 1940.66C268.548 1939.96 269.278 1939.38 270.177 1939.38C271.077 1939.38 271.806 1939.96 271.806 1940.66Z" fill="#D3D2F6"/>
<path d="M281.581 1940.66C281.581 1941.37 280.851 1941.94 279.952 1941.94C279.052 1941.94 278.323 1941.37 278.323 1940.66C278.323 1939.96 279.052 1939.38 279.952 1939.38C280.851 1939.38 281.581 1939.96 281.581 1940.66Z" fill="#D3D2F6"/>
<path d="M291.355 1940.66C291.355 1941.37 290.625 1941.94 289.726 1941.94C288.826 1941.94 288.097 1941.37 288.097 1940.66C288.097 1939.96 288.826 1939.38 289.726 1939.38C290.625 1939.38 291.355 1939.96 291.355 1940.66Z" fill="#D3D2F6"/>
<path d="M301.129 1940.66C301.129 1941.37 300.4 1941.94 299.5 1941.94C298.6 1941.94 297.871 1941.37 297.871 1940.66C297.871 1939.96 298.6 1939.38 299.5 1939.38C300.4 1939.38 301.129 1939.96 301.129 1940.66Z" fill="#D3D2F6"/>
<path d="M310.903 1940.66C310.903 1941.37 310.174 1941.94 309.274 1941.94C308.375 1941.94 307.645 1941.37 307.645 1940.66C307.645 1939.96 308.375 1939.38 309.274 1939.38C310.174 1939.38 310.903 1939.96 310.903 1940.66Z" fill="#D3D2F6"/>
<path d="M320.677 1940.66C320.677 1941.37 319.948 1941.94 319.048 1941.94C318.149 1941.94 317.419 1941.37 317.419 1940.66C317.419 1939.96 318.149 1939.38 319.048 1939.38C319.948 1939.38 320.677 1939.96 320.677 1940.66Z" fill="#D3D2F6"/>
<path d="M330.452 1940.66C330.452 1941.37 329.722 1941.94 328.823 1941.94C327.923 1941.94 327.194 1941.37 327.194 1940.66C327.194 1939.96 327.923 1939.38 328.823 1939.38C329.722 1939.38 330.452 1939.96 330.452 1940.66Z" fill="#D3D2F6"/>
<path d="M340.226 1940.66C340.226 1941.37 339.496 1941.94 338.597 1941.94C337.697 1941.94 336.968 1941.37 336.968 1940.66C336.968 1939.96 337.697 1939.38 338.597 1939.38C339.496 1939.38 340.226 1939.96 340.226 1940.66Z" fill="#D3D2F6"/>
<path d="M350 1940.66C350 1941.37 349.271 1941.94 348.371 1941.94C347.471 1941.94 346.742 1941.37 346.742 1940.66C346.742 1939.96 347.471 1939.38 348.371 1939.38C349.271 1939.38 350 1939.96 350 1940.66Z" fill="#D3D2F6"/>
<path d="M252.258 1948.34C252.258 1949.04 251.529 1949.62 250.629 1949.62C249.729 1949.62 249 1949.04 249 1948.34C249 1947.63 249.729 1947.06 250.629 1947.06C251.529 1947.06 252.258 1947.63 252.258 1948.34Z" fill="#D3D2F6"/>
<path d="M262.032 1948.34C262.032 1949.04 261.303 1949.62 260.403 1949.62C259.504 1949.62 258.774 1949.04 258.774 1948.34C258.774 1947.63 259.504 1947.06 260.403 1947.06C261.303 1947.06 262.032 1947.63 262.032 1948.34Z" fill="#D3D2F6"/>
<path d="M271.806 1948.34C271.806 1949.04 271.077 1949.62 270.177 1949.62C269.278 1949.62 268.548 1949.04 268.548 1948.34C268.548 1947.63 269.278 1947.06 270.177 1947.06C271.077 1947.06 271.806 1947.63 271.806 1948.34Z" fill="#D3D2F6"/>
<path d="M281.581 1948.34C281.581 1949.04 280.851 1949.62 279.952 1949.62C279.052 1949.62 278.323 1949.04 278.323 1948.34C278.323 1947.63 279.052 1947.06 279.952 1947.06C280.851 1947.06 281.581 1947.63 281.581 1948.34Z" fill="#D3D2F6"/>
<path d="M291.355 1948.34C291.355 1949.04 290.625 1949.62 289.726 1949.62C288.826 1949.62 288.097 1949.04 288.097 1948.34C288.097 1947.63 288.826 1947.06 289.726 1947.06C290.625 1947.06 291.355 1947.63 291.355 1948.34Z" fill="#D3D2F6"/>
<path d="M301.129 1948.34C301.129 1949.04 300.4 1949.62 299.5 1949.62C298.6 1949.62 297.871 1949.04 297.871 1948.34C297.871 1947.63 298.6 1947.06 299.5 1947.06C300.4 1947.06 301.129 1947.63 301.129 1948.34Z" fill="#D3D2F6"/>
<path d="M310.903 1948.34C310.903 1949.04 310.174 1949.62 309.274 1949.62C308.375 1949.62 307.645 1949.04 307.645 1948.34C307.645 1947.63 308.375 1947.06 309.274 1947.06C310.174 1947.06 310.903 1947.63 310.903 1948.34Z" fill="#D3D2F6"/>
<path d="M320.677 1948.34C320.677 1949.04 319.948 1949.62 319.048 1949.62C318.149 1949.62 317.419 1949.04 317.419 1948.34C317.419 1947.63 318.149 1947.06 319.048 1947.06C319.948 1947.06 320.677 1947.63 320.677 1948.34Z" fill="#D3D2F6"/>
<path d="M330.452 1948.34C330.452 1949.04 329.722 1949.62 328.823 1949.62C327.923 1949.62 327.194 1949.04 327.194 1948.34C327.194 1947.63 327.923 1947.06 328.823 1947.06C329.722 1947.06 330.452 1947.63 330.452 1948.34Z" fill="#D3D2F6"/>
<path d="M340.226 1948.34C340.226 1949.04 339.496 1949.62 338.597 1949.62C337.697 1949.62 336.968 1949.04 336.968 1948.34C336.968 1947.63 337.697 1947.06 338.597 1947.06C339.496 1947.06 340.226 1947.63 340.226 1948.34Z" fill="#D3D2F6"/>
<path d="M350 1948.34C350 1949.04 349.271 1949.62 348.371 1949.62C347.471 1949.62 346.742 1949.04 346.742 1948.34C346.742 1947.63 347.471 1947.06 348.371 1947.06C349.271 1947.06 350 1947.63 350 1948.34Z" fill="#D3D2F6"/>
<path d="M252.258 1956.01C252.258 1956.72 251.529 1957.29 250.629 1957.29C249.729 1957.29 249 1956.72 249 1956.01C249 1955.31 249.729 1954.74 250.629 1954.74C251.529 1954.74 252.258 1955.31 252.258 1956.01Z" fill="#D3D2F6"/>
<path d="M262.032 1956.01C262.032 1956.72 261.303 1957.29 260.403 1957.29C259.504 1957.29 258.774 1956.72 258.774 1956.01C258.774 1955.31 259.504 1954.74 260.403 1954.74C261.303 1954.74 262.032 1955.31 262.032 1956.01Z" fill="#D3D2F6"/>
<path d="M271.806 1956.01C271.806 1956.72 271.077 1957.29 270.177 1957.29C269.278 1957.29 268.548 1956.72 268.548 1956.01C268.548 1955.31 269.278 1954.74 270.177 1954.74C271.077 1954.74 271.806 1955.31 271.806 1956.01Z" fill="#D3D2F6"/>
<path d="M281.581 1956.01C281.581 1956.72 280.851 1957.29 279.952 1957.29C279.052 1957.29 278.323 1956.72 278.323 1956.01C278.323 1955.31 279.052 1954.74 279.952 1954.74C280.851 1954.74 281.581 1955.31 281.581 1956.01Z" fill="#D3D2F6"/>
<path d="M291.355 1956.01C291.355 1956.72 290.625 1957.29 289.726 1957.29C288.826 1957.29 288.097 1956.72 288.097 1956.01C288.097 1955.31 288.826 1954.74 289.726 1954.74C290.625 1954.74 291.355 1955.31 291.355 1956.01Z" fill="#D3D2F6"/>
<path d="M301.129 1956.01C301.129 1956.72 300.4 1957.29 299.5 1957.29C298.6 1957.29 297.871 1956.72 297.871 1956.01C297.871 1955.31 298.6 1954.74 299.5 1954.74C300.4 1954.74 301.129 1955.31 301.129 1956.01Z" fill="#D3D2F6"/>
<path d="M310.903 1956.01C310.903 1956.72 310.174 1957.29 309.274 1957.29C308.375 1957.29 307.645 1956.72 307.645 1956.01C307.645 1955.31 308.375 1954.74 309.274 1954.74C310.174 1954.74 310.903 1955.31 310.903 1956.01Z" fill="#D3D2F6"/>
<path d="M320.677 1956.01C320.677 1956.72 319.948 1957.29 319.048 1957.29C318.149 1957.29 317.419 1956.72 317.419 1956.01C317.419 1955.31 318.149 1954.74 319.048 1954.74C319.948 1954.74 320.677 1955.31 320.677 1956.01Z" fill="#D3D2F6"/>
<path d="M330.452 1956.01C330.452 1956.72 329.722 1957.29 328.823 1957.29C327.923 1957.29 327.194 1956.72 327.194 1956.01C327.194 1955.31 327.923 1954.74 328.823 1954.74C329.722 1954.74 330.452 1955.31 330.452 1956.01Z" fill="#D3D2F6"/>
<path d="M340.226 1956.01C340.226 1956.72 339.496 1957.29 338.597 1957.29C337.697 1957.29 336.968 1956.72 336.968 1956.01C336.968 1955.31 337.697 1954.74 338.597 1954.74C339.496 1954.74 340.226 1955.31 340.226 1956.01Z" fill="#D3D2F6"/>
<path d="M350 1956.01C350 1956.72 349.271 1957.29 348.371 1957.29C347.471 1957.29 346.742 1956.72 346.742 1956.01C346.742 1955.31 347.471 1954.74 348.371 1954.74C349.271 1954.74 350 1955.31 350 1956.01Z" fill="#D3D2F6"/>
<path d="M252.258 1963.69C252.258 1964.4 251.529 1964.97 250.629 1964.97C249.729 1964.97 249 1964.4 249 1963.69C249 1962.98 249.729 1962.41 250.629 1962.41C251.529 1962.41 252.258 1962.98 252.258 1963.69Z" fill="#D3D2F6"/>
<path d="M262.032 1963.69C262.032 1964.4 261.303 1964.97 260.403 1964.97C259.504 1964.97 258.774 1964.4 258.774 1963.69C258.774 1962.98 259.504 1962.41 260.403 1962.41C261.303 1962.41 262.032 1962.98 262.032 1963.69Z" fill="#D3D2F6"/>
<path d="M271.806 1963.69C271.806 1964.4 271.077 1964.97 270.177 1964.97C269.278 1964.97 268.548 1964.4 268.548 1963.69C268.548 1962.98 269.278 1962.41 270.177 1962.41C271.077 1962.41 271.806 1962.98 271.806 1963.69Z" fill="#D3D2F6"/>
<path d="M281.581 1963.69C281.581 1964.4 280.851 1964.97 279.952 1964.97C279.052 1964.97 278.323 1964.4 278.323 1963.69C278.323 1962.98 279.052 1962.41 279.952 1962.41C280.851 1962.41 281.581 1962.98 281.581 1963.69Z" fill="#D3D2F6"/>
<path d="M291.355 1963.69C291.355 1964.4 290.625 1964.97 289.726 1964.97C288.826 1964.97 288.097 1964.4 288.097 1963.69C288.097 1962.98 288.826 1962.41 289.726 1962.41C290.625 1962.41 291.355 1962.98 291.355 1963.69Z" fill="#D3D2F6"/>
<path d="M301.129 1963.69C301.129 1964.4 300.4 1964.97 299.5 1964.97C298.6 1964.97 297.871 1964.4 297.871 1963.69C297.871 1962.98 298.6 1962.41 299.5 1962.41C300.4 1962.41 301.129 1962.98 301.129 1963.69Z" fill="#D3D2F6"/>
<path d="M310.903 1963.69C310.903 1964.4 310.174 1964.97 309.274 1964.97C308.375 1964.97 307.645 1964.4 307.645 1963.69C307.645 1962.98 308.375 1962.41 309.274 1962.41C310.174 1962.41 310.903 1962.98 310.903 1963.69Z" fill="#D3D2F6"/>
<path d="M320.677 1963.69C320.677 1964.4 319.948 1964.97 319.048 1964.97C318.149 1964.97 317.419 1964.4 317.419 1963.69C317.419 1962.98 318.149 1962.41 319.048 1962.41C319.948 1962.41 320.677 1962.98 320.677 1963.69Z" fill="#D3D2F6"/>
<path d="M330.452 1963.69C330.452 1964.4 329.722 1964.97 328.823 1964.97C327.923 1964.97 327.194 1964.4 327.194 1963.69C327.194 1962.98 327.923 1962.41 328.823 1962.41C329.722 1962.41 330.452 1962.98 330.452 1963.69Z" fill="#D3D2F6"/>
<path d="M340.226 1963.69C340.226 1964.4 339.496 1964.97 338.597 1964.97C337.697 1964.97 336.968 1964.4 336.968 1963.69C336.968 1962.98 337.697 1962.41 338.597 1962.41C339.496 1962.41 340.226 1962.98 340.226 1963.69Z" fill="#D3D2F6"/>
<path d="M350 1963.69C350 1964.4 349.271 1964.97 348.371 1964.97C347.471 1964.97 346.742 1964.4 346.742 1963.69C346.742 1962.98 347.471 1962.41 348.371 1962.41C349.271 1962.41 350 1962.98 350 1963.69Z" fill="#D3D2F6"/>
<path d="M252.258 1971.37C252.258 1972.07 251.529 1972.65 250.629 1972.65C249.729 1972.65 249 1972.07 249 1971.37C249 1970.66 249.729 1970.09 250.629 1970.09C251.529 1970.09 252.258 1970.66 252.258 1971.37Z" fill="#D3D2F6"/>
<path d="M262.032 1971.37C262.032 1972.07 261.303 1972.65 260.403 1972.65C259.504 1972.65 258.774 1972.07 258.774 1971.37C258.774 1970.66 259.504 1970.09 260.403 1970.09C261.303 1970.09 262.032 1970.66 262.032 1971.37Z" fill="#D3D2F6"/>
<path d="M271.806 1971.37C271.806 1972.07 271.077 1972.65 270.177 1972.65C269.278 1972.65 268.548 1972.07 268.548 1971.37C268.548 1970.66 269.278 1970.09 270.177 1970.09C271.077 1970.09 271.806 1970.66 271.806 1971.37Z" fill="#D3D2F6"/>
<path d="M281.581 1971.37C281.581 1972.07 280.851 1972.65 279.952 1972.65C279.052 1972.65 278.323 1972.07 278.323 1971.37C278.323 1970.66 279.052 1970.09 279.952 1970.09C280.851 1970.09 281.581 1970.66 281.581 1971.37Z" fill="#D3D2F6"/>
<path d="M291.355 1971.37C291.355 1972.07 290.625 1972.65 289.726 1972.65C288.826 1972.65 288.097 1972.07 288.097 1971.37C288.097 1970.66 288.826 1970.09 289.726 1970.09C290.625 1970.09 291.355 1970.66 291.355 1971.37Z" fill="#D3D2F6"/>
<path d="M301.129 1971.37C301.129 1972.07 300.4 1972.65 299.5 1972.65C298.6 1972.65 297.871 1972.07 297.871 1971.37C297.871 1970.66 298.6 1970.09 299.5 1970.09C300.4 1970.09 301.129 1970.66 301.129 1971.37Z" fill="#D3D2F6"/>
<path d="M310.903 1971.37C310.903 1972.07 310.174 1972.65 309.274 1972.65C308.375 1972.65 307.645 1972.07 307.645 1971.37C307.645 1970.66 308.375 1970.09 309.274 1970.09C310.174 1970.09 310.903 1970.66 310.903 1971.37Z" fill="#D3D2F6"/>
<path d="M320.677 1971.37C320.677 1972.07 319.948 1972.65 319.048 1972.65C318.149 1972.65 317.419 1972.07 317.419 1971.37C317.419 1970.66 318.149 1970.09 319.048 1970.09C319.948 1970.09 320.677 1970.66 320.677 1971.37Z" fill="#D3D2F6"/>
<path d="M330.452 1971.37C330.452 1972.07 329.722 1972.65 328.823 1972.65C327.923 1972.65 327.194 1972.07 327.194 1971.37C327.194 1970.66 327.923 1970.09 328.823 1970.09C329.722 1970.09 330.452 1970.66 330.452 1971.37Z" fill="#D3D2F6"/>
<path d="M340.226 1971.37C340.226 1972.07 339.496 1972.65 338.597 1972.65C337.697 1972.65 336.968 1972.07 336.968 1971.37C336.968 1970.66 337.697 1970.09 338.597 1970.09C339.496 1970.09 340.226 1970.66 340.226 1971.37Z" fill="#D3D2F6"/>
<path d="M350 1971.37C350 1972.07 349.271 1972.65 348.371 1972.65C347.471 1972.65 346.742 1972.07 346.742 1971.37C346.742 1970.66 347.471 1970.09 348.371 1970.09C349.271 1970.09 350 1970.66 350 1971.37Z" fill="#D3D2F6"/>
<path d="M252.258 1979.04C252.258 1979.75 251.529 1980.32 250.629 1980.32C249.729 1980.32 249 1979.75 249 1979.04C249 1978.34 249.729 1977.76 250.629 1977.76C251.529 1977.76 252.258 1978.34 252.258 1979.04Z" fill="#D3D2F6"/>
<path d="M262.032 1979.04C262.032 1979.75 261.303 1980.32 260.403 1980.32C259.504 1980.32 258.774 1979.75 258.774 1979.04C258.774 1978.34 259.504 1977.76 260.403 1977.76C261.303 1977.76 262.032 1978.34 262.032 1979.04Z" fill="#D3D2F6"/>
<path d="M271.806 1979.04C271.806 1979.75 271.077 1980.32 270.177 1980.32C269.278 1980.32 268.548 1979.75 268.548 1979.04C268.548 1978.34 269.278 1977.76 270.177 1977.76C271.077 1977.76 271.806 1978.34 271.806 1979.04Z" fill="#D3D2F6"/>
<path d="M281.581 1979.04C281.581 1979.75 280.851 1980.32 279.952 1980.32C279.052 1980.32 278.323 1979.75 278.323 1979.04C278.323 1978.34 279.052 1977.76 279.952 1977.76C280.851 1977.76 281.581 1978.34 281.581 1979.04Z" fill="#D3D2F6"/>
<path d="M291.355 1979.04C291.355 1979.75 290.625 1980.32 289.726 1980.32C288.826 1980.32 288.097 1979.75 288.097 1979.04C288.097 1978.34 288.826 1977.76 289.726 1977.76C290.625 1977.76 291.355 1978.34 291.355 1979.04Z" fill="#D3D2F6"/>
<path d="M301.129 1979.04C301.129 1979.75 300.4 1980.32 299.5 1980.32C298.6 1980.32 297.871 1979.75 297.871 1979.04C297.871 1978.34 298.6 1977.76 299.5 1977.76C300.4 1977.76 301.129 1978.34 301.129 1979.04Z" fill="#D3D2F6"/>
<path d="M310.903 1979.04C310.903 1979.75 310.174 1980.32 309.274 1980.32C308.375 1980.32 307.645 1979.75 307.645 1979.04C307.645 1978.34 308.375 1977.76 309.274 1977.76C310.174 1977.76 310.903 1978.34 310.903 1979.04Z" fill="#D3D2F6"/>
<path d="M320.677 1979.04C320.677 1979.75 319.948 1980.32 319.048 1980.32C318.149 1980.32 317.419 1979.75 317.419 1979.04C317.419 1978.34 318.149 1977.76 319.048 1977.76C319.948 1977.76 320.677 1978.34 320.677 1979.04Z" fill="#D3D2F6"/>
<path d="M330.452 1979.04C330.452 1979.75 329.722 1980.32 328.823 1980.32C327.923 1980.32 327.194 1979.75 327.194 1979.04C327.194 1978.34 327.923 1977.76 328.823 1977.76C329.722 1977.76 330.452 1978.34 330.452 1979.04Z" fill="#D3D2F6"/>
<path d="M340.226 1979.04C340.226 1979.75 339.496 1980.32 338.597 1980.32C337.697 1980.32 336.968 1979.75 336.968 1979.04C336.968 1978.34 337.697 1977.76 338.597 1977.76C339.496 1977.76 340.226 1978.34 340.226 1979.04Z" fill="#D3D2F6"/>
<path d="M350 1979.04C350 1979.75 349.271 1980.32 348.371 1980.32C347.471 1980.32 346.742 1979.75 346.742 1979.04C346.742 1978.34 347.471 1977.76 348.371 1977.76C349.271 1977.76 350 1978.34 350 1979.04Z" fill="#D3D2F6"/>
<path d="M252.258 1986.72C252.258 1987.43 251.529 1988 250.629 1988C249.729 1988 249 1987.43 249 1986.72C249 1986.01 249.729 1985.44 250.629 1985.44C251.529 1985.44 252.258 1986.01 252.258 1986.72Z" fill="#D3D2F6"/>
<path d="M262.032 1986.72C262.032 1987.43 261.303 1988 260.403 1988C259.504 1988 258.774 1987.43 258.774 1986.72C258.774 1986.01 259.504 1985.44 260.403 1985.44C261.303 1985.44 262.032 1986.01 262.032 1986.72Z" fill="#D3D2F6"/>
<path d="M271.806 1986.72C271.806 1987.43 271.077 1988 270.177 1988C269.278 1988 268.548 1987.43 268.548 1986.72C268.548 1986.01 269.278 1985.44 270.177 1985.44C271.077 1985.44 271.806 1986.01 271.806 1986.72Z" fill="#D3D2F6"/>
<path d="M281.581 1986.72C281.581 1987.43 280.851 1988 279.952 1988C279.052 1988 278.323 1987.43 278.323 1986.72C278.323 1986.01 279.052 1985.44 279.952 1985.44C280.851 1985.44 281.581 1986.01 281.581 1986.72Z" fill="#D3D2F6"/>
<path d="M291.355 1986.72C291.355 1987.43 290.625 1988 289.726 1988C288.826 1988 288.097 1987.43 288.097 1986.72C288.097 1986.01 288.826 1985.44 289.726 1985.44C290.625 1985.44 291.355 1986.01 291.355 1986.72Z" fill="#D3D2F6"/>
<path d="M301.129 1986.72C301.129 1987.43 300.4 1988 299.5 1988C298.6 1988 297.871 1987.43 297.871 1986.72C297.871 1986.01 298.6 1985.44 299.5 1985.44C300.4 1985.44 301.129 1986.01 301.129 1986.72Z" fill="#D3D2F6"/>
<path d="M310.903 1986.72C310.903 1987.43 310.174 1988 309.274 1988C308.375 1988 307.645 1987.43 307.645 1986.72C307.645 1986.01 308.375 1985.44 309.274 1985.44C310.174 1985.44 310.903 1986.01 310.903 1986.72Z" fill="#D3D2F6"/>
<path d="M320.677 1986.72C320.677 1987.43 319.948 1988 319.048 1988C318.149 1988 317.419 1987.43 317.419 1986.72C317.419 1986.01 318.149 1985.44 319.048 1985.44C319.948 1985.44 320.677 1986.01 320.677 1986.72Z" fill="#D3D2F6"/>
<path d="M330.452 1986.72C330.452 1987.43 329.722 1988 328.823 1988C327.923 1988 327.194 1987.43 327.194 1986.72C327.194 1986.01 327.923 1985.44 328.823 1985.44C329.722 1985.44 330.452 1986.01 330.452 1986.72Z" fill="#D3D2F6"/>
<path d="M340.226 1986.72C340.226 1987.43 339.496 1988 338.597 1988C337.697 1988 336.968 1987.43 336.968 1986.72C336.968 1986.01 337.697 1985.44 338.597 1985.44C339.496 1985.44 340.226 1986.01 340.226 1986.72Z" fill="#D3D2F6"/>
<path d="M350 1986.72C350 1987.43 349.271 1988 348.371 1988C347.471 1988 346.742 1987.43 346.742 1986.72C346.742 1986.01 347.471 1985.44 348.371 1985.44C349.271 1985.44 350 1986.01 350 1986.72Z" fill="#D3D2F6"/>
<path d="M262.258 564.279C262.258 564.986 261.529 565.559 260.629 565.559C259.729 565.559 259 564.986 259 564.279C259 563.573 259.729 563 260.629 563C261.529 563 262.258 563.573 262.258 564.279Z" fill="#D3D2F6"/>
<path d="M272.032 564.279C272.032 564.986 271.303 565.559 270.403 565.559C269.504 565.559 268.774 564.986 268.774 564.279C268.774 563.573 269.504 563 270.403 563C271.303 563 272.032 563.573 272.032 564.279Z" fill="#D3D2F6"/>
<path d="M281.806 564.279C281.806 564.986 281.077 565.559 280.177 565.559C279.278 565.559 278.548 564.986 278.548 564.279C278.548 563.573 279.278 563 280.177 563C281.077 563 281.806 563.573 281.806 564.279Z" fill="#D3D2F6"/>
<path d="M291.581 564.279C291.581 564.986 290.851 565.559 289.952 565.559C289.052 565.559 288.323 564.986 288.323 564.279C288.323 563.573 289.052 563 289.952 563C290.851 563 291.581 563.573 291.581 564.279Z" fill="#D3D2F6"/>
<path d="M301.355 564.279C301.355 564.986 300.625 565.559 299.726 565.559C298.826 565.559 298.097 564.986 298.097 564.279C298.097 563.573 298.826 563 299.726 563C300.625 563 301.355 563.573 301.355 564.279Z" fill="#D3D2F6"/>
<path d="M311.129 564.279C311.129 564.986 310.4 565.559 309.5 565.559C308.6 565.559 307.871 564.986 307.871 564.279C307.871 563.573 308.6 563 309.5 563C310.4 563 311.129 563.573 311.129 564.279Z" fill="#D3D2F6"/>
<path d="M320.903 564.279C320.903 564.986 320.174 565.559 319.274 565.559C318.375 565.559 317.645 564.986 317.645 564.279C317.645 563.573 318.375 563 319.274 563C320.174 563 320.903 563.573 320.903 564.279Z" fill="#D3D2F6"/>
<path d="M330.677 564.279C330.677 564.986 329.948 565.559 329.048 565.559C328.149 565.559 327.419 564.986 327.419 564.279C327.419 563.573 328.149 563 329.048 563C329.948 563 330.677 563.573 330.677 564.279Z" fill="#D3D2F6"/>
<path d="M340.452 564.279C340.452 564.986 339.722 565.559 338.823 565.559C337.923 565.559 337.194 564.986 337.194 564.279C337.194 563.573 337.923 563 338.823 563C339.722 563 340.452 563.573 340.452 564.279Z" fill="#D3D2F6"/>
<path d="M350.226 564.279C350.226 564.986 349.496 565.559 348.597 565.559C347.697 565.559 346.968 564.986 346.968 564.279C346.968 563.573 347.697 563 348.597 563C349.496 563 350.226 563.573 350.226 564.279Z" fill="#D3D2F6"/>
<path d="M360 564.279C360 564.986 359.271 565.559 358.371 565.559C357.471 565.559 356.742 564.986 356.742 564.279C356.742 563.573 357.471 563 358.371 563C359.271 563 360 563.573 360 564.279Z" fill="#D3D2F6"/>
<path d="M262.258 571.956C262.258 572.662 261.529 573.235 260.629 573.235C259.729 573.235 259 572.662 259 571.956C259 571.249 259.729 570.676 260.629 570.676C261.529 570.676 262.258 571.249 262.258 571.956Z" fill="#D3D2F6"/>
<path d="M272.032 571.956C272.032 572.662 271.303 573.235 270.403 573.235C269.504 573.235 268.774 572.662 268.774 571.956C268.774 571.249 269.504 570.676 270.403 570.676C271.303 570.676 272.032 571.249 272.032 571.956Z" fill="#D3D2F6"/>
<path d="M281.806 571.956C281.806 572.662 281.077 573.235 280.177 573.235C279.278 573.235 278.548 572.662 278.548 571.956C278.548 571.249 279.278 570.676 280.177 570.676C281.077 570.676 281.806 571.249 281.806 571.956Z" fill="#D3D2F6"/>
<path d="M291.581 571.956C291.581 572.662 290.851 573.235 289.952 573.235C289.052 573.235 288.323 572.662 288.323 571.956C288.323 571.249 289.052 570.676 289.952 570.676C290.851 570.676 291.581 571.249 291.581 571.956Z" fill="#D3D2F6"/>
<path d="M301.355 571.956C301.355 572.662 300.625 573.235 299.726 573.235C298.826 573.235 298.097 572.662 298.097 571.956C298.097 571.249 298.826 570.676 299.726 570.676C300.625 570.676 301.355 571.249 301.355 571.956Z" fill="#D3D2F6"/>
<path d="M311.129 571.956C311.129 572.662 310.4 573.235 309.5 573.235C308.6 573.235 307.871 572.662 307.871 571.956C307.871 571.249 308.6 570.676 309.5 570.676C310.4 570.676 311.129 571.249 311.129 571.956Z" fill="#D3D2F6"/>
<path d="M320.903 571.956C320.903 572.662 320.174 573.235 319.274 573.235C318.375 573.235 317.645 572.662 317.645 571.956C317.645 571.249 318.375 570.676 319.274 570.676C320.174 570.676 320.903 571.249 320.903 571.956Z" fill="#D3D2F6"/>
<path d="M330.677 571.956C330.677 572.662 329.948 573.235 329.048 573.235C328.149 573.235 327.419 572.662 327.419 571.956C327.419 571.249 328.149 570.676 329.048 570.676C329.948 570.676 330.677 571.249 330.677 571.956Z" fill="#D3D2F6"/>
<path d="M340.452 571.956C340.452 572.662 339.722 573.235 338.823 573.235C337.923 573.235 337.194 572.662 337.194 571.956C337.194 571.249 337.923 570.676 338.823 570.676C339.722 570.676 340.452 571.249 340.452 571.956Z" fill="#D3D2F6"/>
<path d="M350.226 571.956C350.226 572.662 349.496 573.235 348.597 573.235C347.697 573.235 346.968 572.662 346.968 571.956C346.968 571.249 347.697 570.676 348.597 570.676C349.496 570.676 350.226 571.249 350.226 571.956Z" fill="#D3D2F6"/>
<path d="M360 571.956C360 572.662 359.271 573.235 358.371 573.235C357.471 573.235 356.742 572.662 356.742 571.956C356.742 571.249 357.471 570.676 358.371 570.676C359.271 570.676 360 571.249 360 571.956Z" fill="#D3D2F6"/>
<path d="M262.258 579.632C262.258 580.339 261.529 580.912 260.629 580.912C259.729 580.912 259 580.339 259 579.632C259 578.926 259.729 578.353 260.629 578.353C261.529 578.353 262.258 578.926 262.258 579.632Z" fill="#D3D2F6"/>
<path d="M272.032 579.632C272.032 580.339 271.303 580.912 270.403 580.912C269.504 580.912 268.774 580.339 268.774 579.632C268.774 578.926 269.504 578.353 270.403 578.353C271.303 578.353 272.032 578.926 272.032 579.632Z" fill="#D3D2F6"/>
<path d="M281.806 579.632C281.806 580.339 281.077 580.912 280.177 580.912C279.278 580.912 278.548 580.339 278.548 579.632C278.548 578.926 279.278 578.353 280.177 578.353C281.077 578.353 281.806 578.926 281.806 579.632Z" fill="#D3D2F6"/>
<path d="M291.581 579.632C291.581 580.339 290.851 580.912 289.952 580.912C289.052 580.912 288.323 580.339 288.323 579.632C288.323 578.926 289.052 578.353 289.952 578.353C290.851 578.353 291.581 578.926 291.581 579.632Z" fill="#D3D2F6"/>
<path d="M301.355 579.632C301.355 580.339 300.625 580.912 299.726 580.912C298.826 580.912 298.097 580.339 298.097 579.632C298.097 578.926 298.826 578.353 299.726 578.353C300.625 578.353 301.355 578.926 301.355 579.632Z" fill="#D3D2F6"/>
<path d="M311.129 579.632C311.129 580.339 310.4 580.912 309.5 580.912C308.6 580.912 307.871 580.339 307.871 579.632C307.871 578.926 308.6 578.353 309.5 578.353C310.4 578.353 311.129 578.926 311.129 579.632Z" fill="#D3D2F6"/>
<path d="M320.903 579.632C320.903 580.339 320.174 580.912 319.274 580.912C318.375 580.912 317.645 580.339 317.645 579.632C317.645 578.926 318.375 578.353 319.274 578.353C320.174 578.353 320.903 578.926 320.903 579.632Z" fill="#D3D2F6"/>
<path d="M330.677 579.632C330.677 580.339 329.948 580.912 329.048 580.912C328.149 580.912 327.419 580.339 327.419 579.632C327.419 578.926 328.149 578.353 329.048 578.353C329.948 578.353 330.677 578.926 330.677 579.632Z" fill="#D3D2F6"/>
<path d="M340.452 579.632C340.452 580.339 339.722 580.912 338.823 580.912C337.923 580.912 337.194 580.339 337.194 579.632C337.194 578.926 337.923 578.353 338.823 578.353C339.722 578.353 340.452 578.926 340.452 579.632Z" fill="#D3D2F6"/>
<path d="M350.226 579.632C350.226 580.339 349.496 580.912 348.597 580.912C347.697 580.912 346.968 580.339 346.968 579.632C346.968 578.926 347.697 578.353 348.597 578.353C349.496 578.353 350.226 578.926 350.226 579.632Z" fill="#D3D2F6"/>
<path d="M360 579.632C360 580.339 359.271 580.912 358.371 580.912C357.471 580.912 356.742 580.339 356.742 579.632C356.742 578.926 357.471 578.353 358.371 578.353C359.271 578.353 360 578.926 360 579.632Z" fill="#D3D2F6"/>
<path d="M262.258 587.309C262.258 588.015 261.529 588.588 260.629 588.588C259.729 588.588 259 588.015 259 587.309C259 586.602 259.729 586.029 260.629 586.029C261.529 586.029 262.258 586.602 262.258 587.309Z" fill="#D3D2F6"/>
<path d="M272.032 587.309C272.032 588.015 271.303 588.588 270.403 588.588C269.504 588.588 268.774 588.015 268.774 587.309C268.774 586.602 269.504 586.029 270.403 586.029C271.303 586.029 272.032 586.602 272.032 587.309Z" fill="#D3D2F6"/>
<path d="M281.806 587.309C281.806 588.015 281.077 588.588 280.177 588.588C279.278 588.588 278.548 588.015 278.548 587.309C278.548 586.602 279.278 586.029 280.177 586.029C281.077 586.029 281.806 586.602 281.806 587.309Z" fill="#D3D2F6"/>
<path d="M291.581 587.309C291.581 588.015 290.851 588.588 289.952 588.588C289.052 588.588 288.323 588.015 288.323 587.309C288.323 586.602 289.052 586.029 289.952 586.029C290.851 586.029 291.581 586.602 291.581 587.309Z" fill="#D3D2F6"/>
<path d="M301.355 587.309C301.355 588.015 300.625 588.588 299.726 588.588C298.826 588.588 298.097 588.015 298.097 587.309C298.097 586.602 298.826 586.029 299.726 586.029C300.625 586.029 301.355 586.602 301.355 587.309Z" fill="#D3D2F6"/>
<path d="M311.129 587.309C311.129 588.015 310.4 588.588 309.5 588.588C308.6 588.588 307.871 588.015 307.871 587.309C307.871 586.602 308.6 586.029 309.5 586.029C310.4 586.029 311.129 586.602 311.129 587.309Z" fill="#D3D2F6"/>
<path d="M320.903 587.309C320.903 588.015 320.174 588.588 319.274 588.588C318.375 588.588 317.645 588.015 317.645 587.309C317.645 586.602 318.375 586.029 319.274 586.029C320.174 586.029 320.903 586.602 320.903 587.309Z" fill="#D3D2F6"/>
<path d="M330.677 587.309C330.677 588.015 329.948 588.588 329.048 588.588C328.149 588.588 327.419 588.015 327.419 587.309C327.419 586.602 328.149 586.029 329.048 586.029C329.948 586.029 330.677 586.602 330.677 587.309Z" fill="#D3D2F6"/>
<path d="M340.452 587.309C340.452 588.015 339.722 588.588 338.823 588.588C337.923 588.588 337.194 588.015 337.194 587.309C337.194 586.602 337.923 586.029 338.823 586.029C339.722 586.029 340.452 586.602 340.452 587.309Z" fill="#D3D2F6"/>
<path d="M350.226 587.309C350.226 588.015 349.496 588.588 348.597 588.588C347.697 588.588 346.968 588.015 346.968 587.309C346.968 586.602 347.697 586.029 348.597 586.029C349.496 586.029 350.226 586.602 350.226 587.309Z" fill="#D3D2F6"/>
<path d="M360 587.309C360 588.015 359.271 588.588 358.371 588.588C357.471 588.588 356.742 588.015 356.742 587.309C356.742 586.602 357.471 586.029 358.371 586.029C359.271 586.029 360 586.602 360 587.309Z" fill="#D3D2F6"/>
<path d="M262.258 594.985C262.258 595.692 261.529 596.265 260.629 596.265C259.729 596.265 259 595.692 259 594.985C259 594.279 259.729 593.706 260.629 593.706C261.529 593.706 262.258 594.279 262.258 594.985Z" fill="#D3D2F6"/>
<path d="M272.032 594.985C272.032 595.692 271.303 596.265 270.403 596.265C269.504 596.265 268.774 595.692 268.774 594.985C268.774 594.279 269.504 593.706 270.403 593.706C271.303 593.706 272.032 594.279 272.032 594.985Z" fill="#D3D2F6"/>
<path d="M281.806 594.985C281.806 595.692 281.077 596.265 280.177 596.265C279.278 596.265 278.548 595.692 278.548 594.985C278.548 594.279 279.278 593.706 280.177 593.706C281.077 593.706 281.806 594.279 281.806 594.985Z" fill="#D3D2F6"/>
<path d="M291.581 594.985C291.581 595.692 290.851 596.265 289.952 596.265C289.052 596.265 288.323 595.692 288.323 594.985C288.323 594.279 289.052 593.706 289.952 593.706C290.851 593.706 291.581 594.279 291.581 594.985Z" fill="#D3D2F6"/>
<path d="M301.355 594.985C301.355 595.692 300.625 596.265 299.726 596.265C298.826 596.265 298.097 595.692 298.097 594.985C298.097 594.279 298.826 593.706 299.726 593.706C300.625 593.706 301.355 594.279 301.355 594.985Z" fill="#D3D2F6"/>
<path d="M311.129 594.985C311.129 595.692 310.4 596.265 309.5 596.265C308.6 596.265 307.871 595.692 307.871 594.985C307.871 594.279 308.6 593.706 309.5 593.706C310.4 593.706 311.129 594.279 311.129 594.985Z" fill="#D3D2F6"/>
<path d="M320.903 594.985C320.903 595.692 320.174 596.265 319.274 596.265C318.375 596.265 317.645 595.692 317.645 594.985C317.645 594.279 318.375 593.706 319.274 593.706C320.174 593.706 320.903 594.279 320.903 594.985Z" fill="#D3D2F6"/>
<path d="M330.677 594.985C330.677 595.692 329.948 596.265 329.048 596.265C328.149 596.265 327.419 595.692 327.419 594.985C327.419 594.279 328.149 593.706 329.048 593.706C329.948 593.706 330.677 594.279 330.677 594.985Z" fill="#D3D2F6"/>
<path d="M340.452 594.985C340.452 595.692 339.722 596.265 338.823 596.265C337.923 596.265 337.194 595.692 337.194 594.985C337.194 594.279 337.923 593.706 338.823 593.706C339.722 593.706 340.452 594.279 340.452 594.985Z" fill="#D3D2F6"/>
<path d="M350.226 594.985C350.226 595.692 349.496 596.265 348.597 596.265C347.697 596.265 346.968 595.692 346.968 594.985C346.968 594.279 347.697 593.706 348.597 593.706C349.496 593.706 350.226 594.279 350.226 594.985Z" fill="#D3D2F6"/>
<path d="M360 594.985C360 595.692 359.271 596.265 358.371 596.265C357.471 596.265 356.742 595.692 356.742 594.985C356.742 594.279 357.471 593.706 358.371 593.706C359.271 593.706 360 594.279 360 594.985Z" fill="#D3D2F6"/>
<path d="M262.258 602.662C262.258 603.368 261.529 603.941 260.629 603.941C259.729 603.941 259 603.368 259 602.662C259 601.955 259.729 601.382 260.629 601.382C261.529 601.382 262.258 601.955 262.258 602.662Z" fill="#D3D2F6"/>
<path d="M272.032 602.662C272.032 603.368 271.303 603.941 270.403 603.941C269.504 603.941 268.774 603.368 268.774 602.662C268.774 601.955 269.504 601.382 270.403 601.382C271.303 601.382 272.032 601.955 272.032 602.662Z" fill="#D3D2F6"/>
<path d="M281.806 602.662C281.806 603.368 281.077 603.941 280.177 603.941C279.278 603.941 278.548 603.368 278.548 602.662C278.548 601.955 279.278 601.382 280.177 601.382C281.077 601.382 281.806 601.955 281.806 602.662Z" fill="#D3D2F6"/>
<path d="M291.581 602.662C291.581 603.368 290.851 603.941 289.952 603.941C289.052 603.941 288.323 603.368 288.323 602.662C288.323 601.955 289.052 601.382 289.952 601.382C290.851 601.382 291.581 601.955 291.581 602.662Z" fill="#D3D2F6"/>
<path d="M301.355 602.662C301.355 603.368 300.625 603.941 299.726 603.941C298.826 603.941 298.097 603.368 298.097 602.662C298.097 601.955 298.826 601.382 299.726 601.382C300.625 601.382 301.355 601.955 301.355 602.662Z" fill="#D3D2F6"/>
<path d="M311.129 602.662C311.129 603.368 310.4 603.941 309.5 603.941C308.6 603.941 307.871 603.368 307.871 602.662C307.871 601.955 308.6 601.382 309.5 601.382C310.4 601.382 311.129 601.955 311.129 602.662Z" fill="#D3D2F6"/>
<path d="M320.903 602.662C320.903 603.368 320.174 603.941 319.274 603.941C318.375 603.941 317.645 603.368 317.645 602.662C317.645 601.955 318.375 601.382 319.274 601.382C320.174 601.382 320.903 601.955 320.903 602.662Z" fill="#D3D2F6"/>
<path d="M330.677 602.662C330.677 603.368 329.948 603.941 329.048 603.941C328.149 603.941 327.419 603.368 327.419 602.662C327.419 601.955 328.149 601.382 329.048 601.382C329.948 601.382 330.677 601.955 330.677 602.662Z" fill="#D3D2F6"/>
<path d="M340.452 602.662C340.452 603.368 339.722 603.941 338.823 603.941C337.923 603.941 337.194 603.368 337.194 602.662C337.194 601.955 337.923 601.382 338.823 601.382C339.722 601.382 340.452 601.955 340.452 602.662Z" fill="#D3D2F6"/>
<path d="M350.226 602.662C350.226 603.368 349.496 603.941 348.597 603.941C347.697 603.941 346.968 603.368 346.968 602.662C346.968 601.955 347.697 601.382 348.597 601.382C349.496 601.382 350.226 601.955 350.226 602.662Z" fill="#D3D2F6"/>
<path d="M360 602.662C360 603.368 359.271 603.941 358.371 603.941C357.471 603.941 356.742 603.368 356.742 602.662C356.742 601.955 357.471 601.382 358.371 601.382C359.271 601.382 360 601.955 360 602.662Z" fill="#D3D2F6"/>
<path d="M262.258 610.338C262.258 611.045 261.529 611.618 260.629 611.618C259.729 611.618 259 611.045 259 610.338C259 609.632 259.729 609.059 260.629 609.059C261.529 609.059 262.258 609.632 262.258 610.338Z" fill="#D3D2F6"/>
<path d="M272.032 610.338C272.032 611.045 271.303 611.618 270.403 611.618C269.504 611.618 268.774 611.045 268.774 610.338C268.774 609.632 269.504 609.059 270.403 609.059C271.303 609.059 272.032 609.632 272.032 610.338Z" fill="#D3D2F6"/>
<path d="M281.806 610.338C281.806 611.045 281.077 611.618 280.177 611.618C279.278 611.618 278.548 611.045 278.548 610.338C278.548 609.632 279.278 609.059 280.177 609.059C281.077 609.059 281.806 609.632 281.806 610.338Z" fill="#D3D2F6"/>
<path d="M291.581 610.338C291.581 611.045 290.851 611.618 289.952 611.618C289.052 611.618 288.323 611.045 288.323 610.338C288.323 609.632 289.052 609.059 289.952 609.059C290.851 609.059 291.581 609.632 291.581 610.338Z" fill="#D3D2F6"/>
<path d="M301.355 610.338C301.355 611.045 300.625 611.618 299.726 611.618C298.826 611.618 298.097 611.045 298.097 610.338C298.097 609.632 298.826 609.059 299.726 609.059C300.625 609.059 301.355 609.632 301.355 610.338Z" fill="#D3D2F6"/>
<path d="M311.129 610.338C311.129 611.045 310.4 611.618 309.5 611.618C308.6 611.618 307.871 611.045 307.871 610.338C307.871 609.632 308.6 609.059 309.5 609.059C310.4 609.059 311.129 609.632 311.129 610.338Z" fill="#D3D2F6"/>
<path d="M320.903 610.338C320.903 611.045 320.174 611.618 319.274 611.618C318.375 611.618 317.645 611.045 317.645 610.338C317.645 609.632 318.375 609.059 319.274 609.059C320.174 609.059 320.903 609.632 320.903 610.338Z" fill="#D3D2F6"/>
<path d="M330.677 610.338C330.677 611.045 329.948 611.618 329.048 611.618C328.149 611.618 327.419 611.045 327.419 610.338C327.419 609.632 328.149 609.059 329.048 609.059C329.948 609.059 330.677 609.632 330.677 610.338Z" fill="#D3D2F6"/>
<path d="M340.452 610.338C340.452 611.045 339.722 611.618 338.823 611.618C337.923 611.618 337.194 611.045 337.194 610.338C337.194 609.632 337.923 609.059 338.823 609.059C339.722 609.059 340.452 609.632 340.452 610.338Z" fill="#D3D2F6"/>
<path d="M350.226 610.338C350.226 611.045 349.496 611.618 348.597 611.618C347.697 611.618 346.968 611.045 346.968 610.338C346.968 609.632 347.697 609.059 348.597 609.059C349.496 609.059 350.226 609.632 350.226 610.338Z" fill="#D3D2F6"/>
<path d="M360 610.338C360 611.045 359.271 611.618 358.371 611.618C357.471 611.618 356.742 611.045 356.742 610.338C356.742 609.632 357.471 609.059 358.371 609.059C359.271 609.059 360 609.632 360 610.338Z" fill="#D3D2F6"/>
<path d="M262.258 618.015C262.258 618.721 261.529 619.294 260.629 619.294C259.729 619.294 259 618.721 259 618.015C259 617.308 259.729 616.735 260.629 616.735C261.529 616.735 262.258 617.308 262.258 618.015Z" fill="#D3D2F6"/>
<path d="M272.032 618.015C272.032 618.721 271.303 619.294 270.403 619.294C269.504 619.294 268.774 618.721 268.774 618.015C268.774 617.308 269.504 616.735 270.403 616.735C271.303 616.735 272.032 617.308 272.032 618.015Z" fill="#D3D2F6"/>
<path d="M281.806 618.015C281.806 618.721 281.077 619.294 280.177 619.294C279.278 619.294 278.548 618.721 278.548 618.015C278.548 617.308 279.278 616.735 280.177 616.735C281.077 616.735 281.806 617.308 281.806 618.015Z" fill="#D3D2F6"/>
<path d="M291.581 618.015C291.581 618.721 290.851 619.294 289.952 619.294C289.052 619.294 288.323 618.721 288.323 618.015C288.323 617.308 289.052 616.735 289.952 616.735C290.851 616.735 291.581 617.308 291.581 618.015Z" fill="#D3D2F6"/>
<path d="M301.355 618.015C301.355 618.721 300.625 619.294 299.726 619.294C298.826 619.294 298.097 618.721 298.097 618.015C298.097 617.308 298.826 616.735 299.726 616.735C300.625 616.735 301.355 617.308 301.355 618.015Z" fill="#D3D2F6"/>
<path d="M311.129 618.015C311.129 618.721 310.4 619.294 309.5 619.294C308.6 619.294 307.871 618.721 307.871 618.015C307.871 617.308 308.6 616.735 309.5 616.735C310.4 616.735 311.129 617.308 311.129 618.015Z" fill="#D3D2F6"/>
<path d="M320.903 618.015C320.903 618.721 320.174 619.294 319.274 619.294C318.375 619.294 317.645 618.721 317.645 618.015C317.645 617.308 318.375 616.735 319.274 616.735C320.174 616.735 320.903 617.308 320.903 618.015Z" fill="#D3D2F6"/>
<path d="M330.677 618.015C330.677 618.721 329.948 619.294 329.048 619.294C328.149 619.294 327.419 618.721 327.419 618.015C327.419 617.308 328.149 616.735 329.048 616.735C329.948 616.735 330.677 617.308 330.677 618.015Z" fill="#D3D2F6"/>
<path d="M340.452 618.015C340.452 618.721 339.722 619.294 338.823 619.294C337.923 619.294 337.194 618.721 337.194 618.015C337.194 617.308 337.923 616.735 338.823 616.735C339.722 616.735 340.452 617.308 340.452 618.015Z" fill="#D3D2F6"/>
<path d="M350.226 618.015C350.226 618.721 349.496 619.294 348.597 619.294C347.697 619.294 346.968 618.721 346.968 618.015C346.968 617.308 347.697 616.735 348.597 616.735C349.496 616.735 350.226 617.308 350.226 618.015Z" fill="#D3D2F6"/>
<path d="M360 618.015C360 618.721 359.271 619.294 358.371 619.294C357.471 619.294 356.742 618.721 356.742 618.015C356.742 617.308 357.471 616.735 358.371 616.735C359.271 616.735 360 617.308 360 618.015Z" fill="#D3D2F6"/>
<path d="M262.258 625.691C262.258 626.398 261.529 626.971 260.629 626.971C259.729 626.971 259 626.398 259 625.691C259 624.985 259.729 624.412 260.629 624.412C261.529 624.412 262.258 624.985 262.258 625.691Z" fill="#D3D2F6"/>
<path d="M272.032 625.691C272.032 626.398 271.303 626.971 270.403 626.971C269.504 626.971 268.774 626.398 268.774 625.691C268.774 624.985 269.504 624.412 270.403 624.412C271.303 624.412 272.032 624.985 272.032 625.691Z" fill="#D3D2F6"/>
<path d="M281.806 625.691C281.806 626.398 281.077 626.971 280.177 626.971C279.278 626.971 278.548 626.398 278.548 625.691C278.548 624.985 279.278 624.412 280.177 624.412C281.077 624.412 281.806 624.985 281.806 625.691Z" fill="#D3D2F6"/>
<path d="M291.581 625.691C291.581 626.398 290.851 626.971 289.952 626.971C289.052 626.971 288.323 626.398 288.323 625.691C288.323 624.985 289.052 624.412 289.952 624.412C290.851 624.412 291.581 624.985 291.581 625.691Z" fill="#D3D2F6"/>
<path d="M301.355 625.691C301.355 626.398 300.625 626.971 299.726 626.971C298.826 626.971 298.097 626.398 298.097 625.691C298.097 624.985 298.826 624.412 299.726 624.412C300.625 624.412 301.355 624.985 301.355 625.691Z" fill="#D3D2F6"/>
<path d="M311.129 625.691C311.129 626.398 310.4 626.971 309.5 626.971C308.6 626.971 307.871 626.398 307.871 625.691C307.871 624.985 308.6 624.412 309.5 624.412C310.4 624.412 311.129 624.985 311.129 625.691Z" fill="#D3D2F6"/>
<path d="M320.903 625.691C320.903 626.398 320.174 626.971 319.274 626.971C318.375 626.971 317.645 626.398 317.645 625.691C317.645 624.985 318.375 624.412 319.274 624.412C320.174 624.412 320.903 624.985 320.903 625.691Z" fill="#D3D2F6"/>
<path d="M330.677 625.691C330.677 626.398 329.948 626.971 329.048 626.971C328.149 626.971 327.419 626.398 327.419 625.691C327.419 624.985 328.149 624.412 329.048 624.412C329.948 624.412 330.677 624.985 330.677 625.691Z" fill="#D3D2F6"/>
<path d="M340.452 625.691C340.452 626.398 339.722 626.971 338.823 626.971C337.923 626.971 337.194 626.398 337.194 625.691C337.194 624.985 337.923 624.412 338.823 624.412C339.722 624.412 340.452 624.985 340.452 625.691Z" fill="#D3D2F6"/>
<path d="M350.226 625.691C350.226 626.398 349.496 626.971 348.597 626.971C347.697 626.971 346.968 626.398 346.968 625.691C346.968 624.985 347.697 624.412 348.597 624.412C349.496 624.412 350.226 624.985 350.226 625.691Z" fill="#D3D2F6"/>
<path d="M360 625.691C360 626.398 359.271 626.971 358.371 626.971C357.471 626.971 356.742 626.398 356.742 625.691C356.742 624.985 357.471 624.412 358.371 624.412C359.271 624.412 360 624.985 360 625.691Z" fill="#D3D2F6"/>
<path d="M262.258 633.368C262.258 634.074 261.529 634.647 260.629 634.647C259.729 634.647 259 634.074 259 633.368C259 632.661 259.729 632.088 260.629 632.088C261.529 632.088 262.258 632.661 262.258 633.368Z" fill="#D3D2F6"/>
<path d="M272.032 633.368C272.032 634.074 271.303 634.647 270.403 634.647C269.504 634.647 268.774 634.074 268.774 633.368C268.774 632.661 269.504 632.088 270.403 632.088C271.303 632.088 272.032 632.661 272.032 633.368Z" fill="#D3D2F6"/>
<path d="M281.806 633.368C281.806 634.074 281.077 634.647 280.177 634.647C279.278 634.647 278.548 634.074 278.548 633.368C278.548 632.661 279.278 632.088 280.177 632.088C281.077 632.088 281.806 632.661 281.806 633.368Z" fill="#D3D2F6"/>
<path d="M291.581 633.368C291.581 634.074 290.851 634.647 289.952 634.647C289.052 634.647 288.323 634.074 288.323 633.368C288.323 632.661 289.052 632.088 289.952 632.088C290.851 632.088 291.581 632.661 291.581 633.368Z" fill="#D3D2F6"/>
<path d="M301.355 633.368C301.355 634.074 300.625 634.647 299.726 634.647C298.826 634.647 298.097 634.074 298.097 633.368C298.097 632.661 298.826 632.088 299.726 632.088C300.625 632.088 301.355 632.661 301.355 633.368Z" fill="#D3D2F6"/>
<path d="M311.129 633.368C311.129 634.074 310.4 634.647 309.5 634.647C308.6 634.647 307.871 634.074 307.871 633.368C307.871 632.661 308.6 632.088 309.5 632.088C310.4 632.088 311.129 632.661 311.129 633.368Z" fill="#D3D2F6"/>
<path d="M320.903 633.368C320.903 634.074 320.174 634.647 319.274 634.647C318.375 634.647 317.645 634.074 317.645 633.368C317.645 632.661 318.375 632.088 319.274 632.088C320.174 632.088 320.903 632.661 320.903 633.368Z" fill="#D3D2F6"/>
<path d="M330.677 633.368C330.677 634.074 329.948 634.647 329.048 634.647C328.149 634.647 327.419 634.074 327.419 633.368C327.419 632.661 328.149 632.088 329.048 632.088C329.948 632.088 330.677 632.661 330.677 633.368Z" fill="#D3D2F6"/>
<path d="M340.452 633.368C340.452 634.074 339.722 634.647 338.823 634.647C337.923 634.647 337.194 634.074 337.194 633.368C337.194 632.661 337.923 632.088 338.823 632.088C339.722 632.088 340.452 632.661 340.452 633.368Z" fill="#D3D2F6"/>
<path d="M350.226 633.368C350.226 634.074 349.496 634.647 348.597 634.647C347.697 634.647 346.968 634.074 346.968 633.368C346.968 632.661 347.697 632.088 348.597 632.088C349.496 632.088 350.226 632.661 350.226 633.368Z" fill="#D3D2F6"/>
<path d="M360 633.368C360 634.074 359.271 634.647 358.371 634.647C357.471 634.647 356.742 634.074 356.742 633.368C356.742 632.661 357.471 632.088 358.371 632.088C359.271 632.088 360 632.661 360 633.368Z" fill="#D3D2F6"/>
<path d="M262.258 641.044C262.258 641.751 261.529 642.324 260.629 642.324C259.729 642.324 259 641.751 259 641.044C259 640.338 259.729 639.765 260.629 639.765C261.529 639.765 262.258 640.338 262.258 641.044Z" fill="#D3D2F6"/>
<path d="M272.032 641.044C272.032 641.751 271.303 642.324 270.403 642.324C269.504 642.324 268.774 641.751 268.774 641.044C268.774 640.338 269.504 639.765 270.403 639.765C271.303 639.765 272.032 640.338 272.032 641.044Z" fill="#D3D2F6"/>
<path d="M281.806 641.044C281.806 641.751 281.077 642.324 280.177 642.324C279.278 642.324 278.548 641.751 278.548 641.044C278.548 640.338 279.278 639.765 280.177 639.765C281.077 639.765 281.806 640.338 281.806 641.044Z" fill="#D3D2F6"/>
<path d="M291.581 641.044C291.581 641.751 290.851 642.324 289.952 642.324C289.052 642.324 288.323 641.751 288.323 641.044C288.323 640.338 289.052 639.765 289.952 639.765C290.851 639.765 291.581 640.338 291.581 641.044Z" fill="#D3D2F6"/>
<path d="M301.355 641.044C301.355 641.751 300.625 642.324 299.726 642.324C298.826 642.324 298.097 641.751 298.097 641.044C298.097 640.338 298.826 639.765 299.726 639.765C300.625 639.765 301.355 640.338 301.355 641.044Z" fill="#D3D2F6"/>
<path d="M311.129 641.044C311.129 641.751 310.4 642.324 309.5 642.324C308.6 642.324 307.871 641.751 307.871 641.044C307.871 640.338 308.6 639.765 309.5 639.765C310.4 639.765 311.129 640.338 311.129 641.044Z" fill="#D3D2F6"/>
<path d="M320.903 641.044C320.903 641.751 320.174 642.324 319.274 642.324C318.375 642.324 317.645 641.751 317.645 641.044C317.645 640.338 318.375 639.765 319.274 639.765C320.174 639.765 320.903 640.338 320.903 641.044Z" fill="#D3D2F6"/>
<path d="M330.677 641.044C330.677 641.751 329.948 642.324 329.048 642.324C328.149 642.324 327.419 641.751 327.419 641.044C327.419 640.338 328.149 639.765 329.048 639.765C329.948 639.765 330.677 640.338 330.677 641.044Z" fill="#D3D2F6"/>
<path d="M340.452 641.044C340.452 641.751 339.722 642.324 338.823 642.324C337.923 642.324 337.194 641.751 337.194 641.044C337.194 640.338 337.923 639.765 338.823 639.765C339.722 639.765 340.452 640.338 340.452 641.044Z" fill="#D3D2F6"/>
<path d="M350.226 641.044C350.226 641.751 349.496 642.324 348.597 642.324C347.697 642.324 346.968 641.751 346.968 641.044C346.968 640.338 347.697 639.765 348.597 639.765C349.496 639.765 350.226 640.338 350.226 641.044Z" fill="#D3D2F6"/>
<path d="M360 641.044C360 641.751 359.271 642.324 358.371 642.324C357.471 642.324 356.742 641.751 356.742 641.044C356.742 640.338 357.471 639.765 358.371 639.765C359.271 639.765 360 640.338 360 641.044Z" fill="#D3D2F6"/>
<path d="M262.258 648.721C262.258 649.427 261.529 650 260.629 650C259.729 650 259 649.427 259 648.721C259 648.014 259.729 647.441 260.629 647.441C261.529 647.441 262.258 648.014 262.258 648.721Z" fill="#D3D2F6"/>
<path d="M272.032 648.721C272.032 649.427 271.303 650 270.403 650C269.504 650 268.774 649.427 268.774 648.721C268.774 648.014 269.504 647.441 270.403 647.441C271.303 647.441 272.032 648.014 272.032 648.721Z" fill="#D3D2F6"/>
<path d="M281.806 648.721C281.806 649.427 281.077 650 280.177 650C279.278 650 278.548 649.427 278.548 648.721C278.548 648.014 279.278 647.441 280.177 647.441C281.077 647.441 281.806 648.014 281.806 648.721Z" fill="#D3D2F6"/>
<path d="M291.581 648.721C291.581 649.427 290.851 650 289.952 650C289.052 650 288.323 649.427 288.323 648.721C288.323 648.014 289.052 647.441 289.952 647.441C290.851 647.441 291.581 648.014 291.581 648.721Z" fill="#D3D2F6"/>
<path d="M301.355 648.721C301.355 649.427 300.625 650 299.726 650C298.826 650 298.097 649.427 298.097 648.721C298.097 648.014 298.826 647.441 299.726 647.441C300.625 647.441 301.355 648.014 301.355 648.721Z" fill="#D3D2F6"/>
<path d="M311.129 648.721C311.129 649.427 310.4 650 309.5 650C308.6 650 307.871 649.427 307.871 648.721C307.871 648.014 308.6 647.441 309.5 647.441C310.4 647.441 311.129 648.014 311.129 648.721Z" fill="#D3D2F6"/>
<path d="M320.903 648.721C320.903 649.427 320.174 650 319.274 650C318.375 650 317.645 649.427 317.645 648.721C317.645 648.014 318.375 647.441 319.274 647.441C320.174 647.441 320.903 648.014 320.903 648.721Z" fill="#D3D2F6"/>
<path d="M330.677 648.721C330.677 649.427 329.948 650 329.048 650C328.149 650 327.419 649.427 327.419 648.721C327.419 648.014 328.149 647.441 329.048 647.441C329.948 647.441 330.677 648.014 330.677 648.721Z" fill="#D3D2F6"/>
<path d="M340.452 648.721C340.452 649.427 339.722 650 338.823 650C337.923 650 337.194 649.427 337.194 648.721C337.194 648.014 337.923 647.441 338.823 647.441C339.722 647.441 340.452 648.014 340.452 648.721Z" fill="#D3D2F6"/>
<path d="M350.226 648.721C350.226 649.427 349.496 650 348.597 650C347.697 650 346.968 649.427 346.968 648.721C346.968 648.014 347.697 647.441 348.597 647.441C349.496 647.441 350.226 648.014 350.226 648.721Z" fill="#D3D2F6"/>
<path d="M360 648.721C360 649.427 359.271 650 358.371 650C357.471 650 356.742 649.427 356.742 648.721C356.742 648.014 357.471 647.441 358.371 647.441C359.271 647.441 360 648.014 360 648.721Z" fill="#D3D2F6"/>
<circle cx="364" cy="604" r="20" fill="#D9D8F7"/>
</svg>
