<svg width="1920" height="2122" viewBox="0 0 1920 2122" fill="none" xmlns="http://www.w3.org/2000/svg">
<g clip-path="url(#clip0_2011_672)">
<circle cx="571" cy="1574" r="175" fill="#EAEAF7"/>
<path d="M1524.97 720.426C1524.97 721.767 1523.63 722.853 1521.98 722.853C1520.34 722.853 1519 721.767 1519 720.426C1519 719.086 1520.34 718 1521.98 718C1523.63 718 1524.97 719.086 1524.97 720.426Z" fill="#D3D2F6"/>
<path d="M1542.87 720.426C1542.87 721.767 1541.54 722.853 1539.89 722.853C1538.24 722.853 1536.9 721.767 1536.9 720.426C1536.9 719.086 1538.24 718 1539.89 718C1541.54 718 1542.87 719.086 1542.87 720.426Z" fill="#D3D2F6"/>
<path d="M1560.77 720.426C1560.77 721.767 1559.44 722.853 1557.79 722.853C1556.14 722.853 1554.81 721.767 1554.81 720.426C1554.81 719.086 1556.14 718 1557.79 718C1559.44 718 1560.77 719.086 1560.77 720.426Z" fill="#D3D2F6"/>
<path d="M1578.68 720.426C1578.68 721.767 1577.34 722.853 1575.69 722.853C1574.05 722.853 1572.71 721.767 1572.71 720.426C1572.71 719.086 1574.05 718 1575.69 718C1577.34 718 1578.68 719.086 1578.68 720.426Z" fill="#D3D2F6"/>
<path d="M1596.58 720.426C1596.58 721.767 1595.24 722.853 1593.6 722.853C1591.95 722.853 1590.61 721.767 1590.61 720.426C1590.61 719.086 1591.95 718 1593.6 718C1595.24 718 1596.58 719.086 1596.58 720.426Z" fill="#D3D2F6"/>
<path d="M1614.48 720.426C1614.48 721.767 1613.15 722.853 1611.5 722.853C1609.85 722.853 1608.52 721.767 1608.52 720.426C1608.52 719.086 1609.85 718 1611.5 718C1613.15 718 1614.48 719.086 1614.48 720.426Z" fill="#D3D2F6"/>
<path d="M1632.39 720.426C1632.39 721.767 1631.05 722.853 1629.4 722.853C1627.76 722.853 1626.42 721.767 1626.42 720.426C1626.42 719.086 1627.76 718 1629.4 718C1631.05 718 1632.39 719.086 1632.39 720.426Z" fill="#D3D2F6"/>
<path d="M1650.29 720.426C1650.29 721.767 1648.95 722.853 1647.31 722.853C1645.66 722.853 1644.32 721.767 1644.32 720.426C1644.32 719.086 1645.66 718 1647.31 718C1648.95 718 1650.29 719.086 1650.29 720.426Z" fill="#D3D2F6"/>
<path d="M1668.19 720.426C1668.19 721.767 1666.86 722.853 1665.21 722.853C1663.56 722.853 1662.23 721.767 1662.23 720.426C1662.23 719.086 1663.56 718 1665.21 718C1666.86 718 1668.19 719.086 1668.19 720.426Z" fill="#D3D2F6"/>
<path d="M1686.1 720.426C1686.1 721.767 1684.76 722.853 1683.11 722.853C1681.46 722.853 1680.13 721.767 1680.13 720.426C1680.13 719.086 1681.46 718 1683.11 718C1684.76 718 1686.1 719.086 1686.1 720.426Z" fill="#D3D2F6"/>
<path d="M1704 720.426C1704 721.767 1702.66 722.853 1701.02 722.853C1699.37 722.853 1698.03 721.767 1698.03 720.426C1698.03 719.086 1699.37 718 1701.02 718C1702.66 718 1704 719.086 1704 720.426Z" fill="#D3D2F6"/>
<path d="M1524.97 734.985C1524.97 736.325 1523.63 737.412 1521.98 737.412C1520.34 737.412 1519 736.325 1519 734.985C1519 733.645 1520.34 732.559 1521.98 732.559C1523.63 732.559 1524.97 733.645 1524.97 734.985Z" fill="#D3D2F6"/>
<path d="M1542.87 734.985C1542.87 736.325 1541.54 737.412 1539.89 737.412C1538.24 737.412 1536.9 736.325 1536.9 734.985C1536.9 733.645 1538.24 732.559 1539.89 732.559C1541.54 732.559 1542.87 733.645 1542.87 734.985Z" fill="#D3D2F6"/>
<path d="M1560.77 734.985C1560.77 736.325 1559.44 737.412 1557.79 737.412C1556.14 737.412 1554.81 736.325 1554.81 734.985C1554.81 733.645 1556.14 732.559 1557.79 732.559C1559.44 732.559 1560.77 733.645 1560.77 734.985Z" fill="#D3D2F6"/>
<path d="M1578.68 734.985C1578.68 736.325 1577.34 737.412 1575.69 737.412C1574.05 737.412 1572.71 736.325 1572.71 734.985C1572.71 733.645 1574.05 732.559 1575.69 732.559C1577.34 732.559 1578.68 733.645 1578.68 734.985Z" fill="#D3D2F6"/>
<path d="M1596.58 734.985C1596.58 736.325 1595.24 737.412 1593.6 737.412C1591.95 737.412 1590.61 736.325 1590.61 734.985C1590.61 733.645 1591.95 732.559 1593.6 732.559C1595.24 732.559 1596.58 733.645 1596.58 734.985Z" fill="#D3D2F6"/>
<path d="M1614.48 734.985C1614.48 736.325 1613.15 737.412 1611.5 737.412C1609.85 737.412 1608.52 736.325 1608.52 734.985C1608.52 733.645 1609.85 732.559 1611.5 732.559C1613.15 732.559 1614.48 733.645 1614.48 734.985Z" fill="#D3D2F6"/>
<path d="M1632.39 734.985C1632.39 736.325 1631.05 737.412 1629.4 737.412C1627.76 737.412 1626.42 736.325 1626.42 734.985C1626.42 733.645 1627.76 732.559 1629.4 732.559C1631.05 732.559 1632.39 733.645 1632.39 734.985Z" fill="#D3D2F6"/>
<path d="M1650.29 734.985C1650.29 736.325 1648.95 737.412 1647.31 737.412C1645.66 737.412 1644.32 736.325 1644.32 734.985C1644.32 733.645 1645.66 732.559 1647.31 732.559C1648.95 732.559 1650.29 733.645 1650.29 734.985Z" fill="#D3D2F6"/>
<path d="M1668.19 734.985C1668.19 736.325 1666.86 737.412 1665.21 737.412C1663.56 737.412 1662.23 736.325 1662.23 734.985C1662.23 733.645 1663.56 732.559 1665.21 732.559C1666.86 732.559 1668.19 733.645 1668.19 734.985Z" fill="#D3D2F6"/>
<path d="M1686.1 734.985C1686.1 736.325 1684.76 737.412 1683.11 737.412C1681.46 737.412 1680.13 736.325 1680.13 734.985C1680.13 733.645 1681.46 732.559 1683.11 732.559C1684.76 732.559 1686.1 733.645 1686.1 734.985Z" fill="#D3D2F6"/>
<path d="M1704 734.985C1704 736.325 1702.66 737.412 1701.02 737.412C1699.37 737.412 1698.03 736.325 1698.03 734.985C1698.03 733.645 1699.37 732.559 1701.02 732.559C1702.66 732.559 1704 733.645 1704 734.985Z" fill="#D3D2F6"/>
<path d="M1524.97 749.544C1524.97 750.884 1523.63 751.971 1521.98 751.971C1520.34 751.971 1519 750.884 1519 749.544C1519 748.204 1520.34 747.118 1521.98 747.118C1523.63 747.118 1524.97 748.204 1524.97 749.544Z" fill="#D3D2F6"/>
<path d="M1542.87 749.544C1542.87 750.884 1541.54 751.971 1539.89 751.971C1538.24 751.971 1536.9 750.884 1536.9 749.544C1536.9 748.204 1538.24 747.118 1539.89 747.118C1541.54 747.118 1542.87 748.204 1542.87 749.544Z" fill="#D3D2F6"/>
<path d="M1560.77 749.544C1560.77 750.884 1559.44 751.971 1557.79 751.971C1556.14 751.971 1554.81 750.884 1554.81 749.544C1554.81 748.204 1556.14 747.118 1557.79 747.118C1559.44 747.118 1560.77 748.204 1560.77 749.544Z" fill="#D3D2F6"/>
<path d="M1578.68 749.544C1578.68 750.884 1577.34 751.971 1575.69 751.971C1574.05 751.971 1572.71 750.884 1572.71 749.544C1572.71 748.204 1574.05 747.118 1575.69 747.118C1577.34 747.118 1578.68 748.204 1578.68 749.544Z" fill="#D3D2F6"/>
<path d="M1596.58 749.544C1596.58 750.884 1595.24 751.971 1593.6 751.971C1591.95 751.971 1590.61 750.884 1590.61 749.544C1590.61 748.204 1591.95 747.118 1593.6 747.118C1595.24 747.118 1596.58 748.204 1596.58 749.544Z" fill="#D3D2F6"/>
<path d="M1614.48 749.544C1614.48 750.884 1613.15 751.971 1611.5 751.971C1609.85 751.971 1608.52 750.884 1608.52 749.544C1608.52 748.204 1609.85 747.118 1611.5 747.118C1613.15 747.118 1614.48 748.204 1614.48 749.544Z" fill="#D3D2F6"/>
<path d="M1632.39 749.544C1632.39 750.884 1631.05 751.971 1629.4 751.971C1627.76 751.971 1626.42 750.884 1626.42 749.544C1626.42 748.204 1627.76 747.118 1629.4 747.118C1631.05 747.118 1632.39 748.204 1632.39 749.544Z" fill="#D3D2F6"/>
<path d="M1650.29 749.544C1650.29 750.884 1648.95 751.971 1647.31 751.971C1645.66 751.971 1644.32 750.884 1644.32 749.544C1644.32 748.204 1645.66 747.118 1647.31 747.118C1648.95 747.118 1650.29 748.204 1650.29 749.544Z" fill="#D3D2F6"/>
<path d="M1668.19 749.544C1668.19 750.884 1666.86 751.971 1665.21 751.971C1663.56 751.971 1662.23 750.884 1662.23 749.544C1662.23 748.204 1663.56 747.118 1665.21 747.118C1666.86 747.118 1668.19 748.204 1668.19 749.544Z" fill="#D3D2F6"/>
<path d="M1686.1 749.544C1686.1 750.884 1684.76 751.971 1683.11 751.971C1681.46 751.971 1680.13 750.884 1680.13 749.544C1680.13 748.204 1681.46 747.118 1683.11 747.118C1684.76 747.118 1686.1 748.204 1686.1 749.544Z" fill="#D3D2F6"/>
<path d="M1704 749.544C1704 750.884 1702.66 751.971 1701.02 751.971C1699.37 751.971 1698.03 750.884 1698.03 749.544C1698.03 748.204 1699.37 747.118 1701.02 747.118C1702.66 747.118 1704 748.204 1704 749.544Z" fill="#D3D2F6"/>
<path d="M1524.97 764.103C1524.97 765.443 1523.63 766.529 1521.98 766.529C1520.34 766.529 1519 765.443 1519 764.103C1519 762.763 1520.34 761.676 1521.98 761.676C1523.63 761.676 1524.97 762.763 1524.97 764.103Z" fill="#D3D2F6"/>
<path d="M1542.87 764.103C1542.87 765.443 1541.54 766.529 1539.89 766.529C1538.24 766.529 1536.9 765.443 1536.9 764.103C1536.9 762.763 1538.24 761.676 1539.89 761.676C1541.54 761.676 1542.87 762.763 1542.87 764.103Z" fill="#D3D2F6"/>
<path d="M1560.77 764.103C1560.77 765.443 1559.44 766.529 1557.79 766.529C1556.14 766.529 1554.81 765.443 1554.81 764.103C1554.81 762.763 1556.14 761.676 1557.79 761.676C1559.44 761.676 1560.77 762.763 1560.77 764.103Z" fill="#D3D2F6"/>
<path d="M1578.68 764.103C1578.68 765.443 1577.34 766.529 1575.69 766.529C1574.05 766.529 1572.71 765.443 1572.71 764.103C1572.71 762.763 1574.05 761.676 1575.69 761.676C1577.34 761.676 1578.68 762.763 1578.68 764.103Z" fill="#D3D2F6"/>
<path d="M1596.58 764.103C1596.58 765.443 1595.24 766.529 1593.6 766.529C1591.95 766.529 1590.61 765.443 1590.61 764.103C1590.61 762.763 1591.95 761.676 1593.6 761.676C1595.24 761.676 1596.58 762.763 1596.58 764.103Z" fill="#D3D2F6"/>
<path d="M1614.48 764.103C1614.48 765.443 1613.15 766.529 1611.5 766.529C1609.85 766.529 1608.52 765.443 1608.52 764.103C1608.52 762.763 1609.85 761.676 1611.5 761.676C1613.15 761.676 1614.48 762.763 1614.48 764.103Z" fill="#D3D2F6"/>
<path d="M1632.39 764.103C1632.39 765.443 1631.05 766.529 1629.4 766.529C1627.76 766.529 1626.42 765.443 1626.42 764.103C1626.42 762.763 1627.76 761.676 1629.4 761.676C1631.05 761.676 1632.39 762.763 1632.39 764.103Z" fill="#D3D2F6"/>
<path d="M1650.29 764.103C1650.29 765.443 1648.95 766.529 1647.31 766.529C1645.66 766.529 1644.32 765.443 1644.32 764.103C1644.32 762.763 1645.66 761.676 1647.31 761.676C1648.95 761.676 1650.29 762.763 1650.29 764.103Z" fill="#D3D2F6"/>
<path d="M1668.19 764.103C1668.19 765.443 1666.86 766.529 1665.21 766.529C1663.56 766.529 1662.23 765.443 1662.23 764.103C1662.23 762.763 1663.56 761.676 1665.21 761.676C1666.86 761.676 1668.19 762.763 1668.19 764.103Z" fill="#D3D2F6"/>
<path d="M1686.1 764.103C1686.1 765.443 1684.76 766.529 1683.11 766.529C1681.46 766.529 1680.13 765.443 1680.13 764.103C1680.13 762.763 1681.46 761.676 1683.11 761.676C1684.76 761.676 1686.1 762.763 1686.1 764.103Z" fill="#D3D2F6"/>
<path d="M1704 764.103C1704 765.443 1702.66 766.529 1701.02 766.529C1699.37 766.529 1698.03 765.443 1698.03 764.103C1698.03 762.763 1699.37 761.676 1701.02 761.676C1702.66 761.676 1704 762.763 1704 764.103Z" fill="#D3D2F6"/>
<path d="M1524.97 778.662C1524.97 780.002 1523.63 781.088 1521.98 781.088C1520.34 781.088 1519 780.002 1519 778.662C1519 777.322 1520.34 776.235 1521.98 776.235C1523.63 776.235 1524.97 777.322 1524.97 778.662Z" fill="#D3D2F6"/>
<path d="M1542.87 778.662C1542.87 780.002 1541.54 781.088 1539.89 781.088C1538.24 781.088 1536.9 780.002 1536.9 778.662C1536.9 777.322 1538.24 776.235 1539.89 776.235C1541.54 776.235 1542.87 777.322 1542.87 778.662Z" fill="#D3D2F6"/>
<path d="M1560.77 778.662C1560.77 780.002 1559.44 781.088 1557.79 781.088C1556.14 781.088 1554.81 780.002 1554.81 778.662C1554.81 777.322 1556.14 776.235 1557.79 776.235C1559.44 776.235 1560.77 777.322 1560.77 778.662Z" fill="#D3D2F6"/>
<path d="M1578.68 778.662C1578.68 780.002 1577.34 781.088 1575.69 781.088C1574.05 781.088 1572.71 780.002 1572.71 778.662C1572.71 777.322 1574.05 776.235 1575.69 776.235C1577.34 776.235 1578.68 777.322 1578.68 778.662Z" fill="#D3D2F6"/>
<path d="M1596.58 778.662C1596.58 780.002 1595.24 781.088 1593.6 781.088C1591.95 781.088 1590.61 780.002 1590.61 778.662C1590.61 777.322 1591.95 776.235 1593.6 776.235C1595.24 776.235 1596.58 777.322 1596.58 778.662Z" fill="#D3D2F6"/>
<path d="M1614.48 778.662C1614.48 780.002 1613.15 781.088 1611.5 781.088C1609.85 781.088 1608.52 780.002 1608.52 778.662C1608.52 777.322 1609.85 776.235 1611.5 776.235C1613.15 776.235 1614.48 777.322 1614.48 778.662Z" fill="#D3D2F6"/>
<path d="M1632.39 778.662C1632.39 780.002 1631.05 781.088 1629.4 781.088C1627.76 781.088 1626.42 780.002 1626.42 778.662C1626.42 777.322 1627.76 776.235 1629.4 776.235C1631.05 776.235 1632.39 777.322 1632.39 778.662Z" fill="#D3D2F6"/>
<path d="M1650.29 778.662C1650.29 780.002 1648.95 781.088 1647.31 781.088C1645.66 781.088 1644.32 780.002 1644.32 778.662C1644.32 777.322 1645.66 776.235 1647.31 776.235C1648.95 776.235 1650.29 777.322 1650.29 778.662Z" fill="#D3D2F6"/>
<path d="M1668.19 778.662C1668.19 780.002 1666.86 781.088 1665.21 781.088C1663.56 781.088 1662.23 780.002 1662.23 778.662C1662.23 777.322 1663.56 776.235 1665.21 776.235C1666.86 776.235 1668.19 777.322 1668.19 778.662Z" fill="#D3D2F6"/>
<path d="M1686.1 778.662C1686.1 780.002 1684.76 781.088 1683.11 781.088C1681.46 781.088 1680.13 780.002 1680.13 778.662C1680.13 777.322 1681.46 776.235 1683.11 776.235C1684.76 776.235 1686.1 777.322 1686.1 778.662Z" fill="#D3D2F6"/>
<path d="M1704 778.662C1704 780.002 1702.66 781.088 1701.02 781.088C1699.37 781.088 1698.03 780.002 1698.03 778.662C1698.03 777.322 1699.37 776.235 1701.02 776.235C1702.66 776.235 1704 777.322 1704 778.662Z" fill="#D3D2F6"/>
<path d="M1524.97 793.221C1524.97 794.561 1523.63 795.647 1521.98 795.647C1520.34 795.647 1519 794.561 1519 793.221C1519 791.88 1520.34 790.794 1521.98 790.794C1523.63 790.794 1524.97 791.88 1524.97 793.221Z" fill="#D3D2F6"/>
<path d="M1542.87 793.221C1542.87 794.561 1541.54 795.647 1539.89 795.647C1538.24 795.647 1536.9 794.561 1536.9 793.221C1536.9 791.88 1538.24 790.794 1539.89 790.794C1541.54 790.794 1542.87 791.88 1542.87 793.221Z" fill="#D3D2F6"/>
<path d="M1560.77 793.221C1560.77 794.561 1559.44 795.647 1557.79 795.647C1556.14 795.647 1554.81 794.561 1554.81 793.221C1554.81 791.88 1556.14 790.794 1557.79 790.794C1559.44 790.794 1560.77 791.88 1560.77 793.221Z" fill="#D3D2F6"/>
<path d="M1578.68 793.221C1578.68 794.561 1577.34 795.647 1575.69 795.647C1574.05 795.647 1572.71 794.561 1572.71 793.221C1572.71 791.88 1574.05 790.794 1575.69 790.794C1577.34 790.794 1578.68 791.88 1578.68 793.221Z" fill="#D3D2F6"/>
<path d="M1596.58 793.221C1596.58 794.561 1595.24 795.647 1593.6 795.647C1591.95 795.647 1590.61 794.561 1590.61 793.221C1590.61 791.88 1591.95 790.794 1593.6 790.794C1595.24 790.794 1596.58 791.88 1596.58 793.221Z" fill="#D3D2F6"/>
<path d="M1614.48 793.221C1614.48 794.561 1613.15 795.647 1611.5 795.647C1609.85 795.647 1608.52 794.561 1608.52 793.221C1608.52 791.88 1609.85 790.794 1611.5 790.794C1613.15 790.794 1614.48 791.88 1614.48 793.221Z" fill="#D3D2F6"/>
<path d="M1632.39 793.221C1632.39 794.561 1631.05 795.647 1629.4 795.647C1627.76 795.647 1626.42 794.561 1626.42 793.221C1626.42 791.88 1627.76 790.794 1629.4 790.794C1631.05 790.794 1632.39 791.88 1632.39 793.221Z" fill="#D3D2F6"/>
<path d="M1650.29 793.221C1650.29 794.561 1648.95 795.647 1647.31 795.647C1645.66 795.647 1644.32 794.561 1644.32 793.221C1644.32 791.88 1645.66 790.794 1647.31 790.794C1648.95 790.794 1650.29 791.88 1650.29 793.221Z" fill="#D3D2F6"/>
<path d="M1668.19 793.221C1668.19 794.561 1666.86 795.647 1665.21 795.647C1663.56 795.647 1662.23 794.561 1662.23 793.221C1662.23 791.88 1663.56 790.794 1665.21 790.794C1666.86 790.794 1668.19 791.88 1668.19 793.221Z" fill="#D3D2F6"/>
<path d="M1686.1 793.221C1686.1 794.561 1684.76 795.647 1683.11 795.647C1681.46 795.647 1680.13 794.561 1680.13 793.221C1680.13 791.88 1681.46 790.794 1683.11 790.794C1684.76 790.794 1686.1 791.88 1686.1 793.221Z" fill="#D3D2F6"/>
<path d="M1704 793.221C1704 794.561 1702.66 795.647 1701.02 795.647C1699.37 795.647 1698.03 794.561 1698.03 793.221C1698.03 791.88 1699.37 790.794 1701.02 790.794C1702.66 790.794 1704 791.88 1704 793.221Z" fill="#D3D2F6"/>
<path d="M1524.97 807.779C1524.97 809.12 1523.63 810.206 1521.98 810.206C1520.34 810.206 1519 809.12 1519 807.779C1519 806.439 1520.34 805.353 1521.98 805.353C1523.63 805.353 1524.97 806.439 1524.97 807.779Z" fill="#D3D2F6"/>
<path d="M1542.87 807.779C1542.87 809.12 1541.54 810.206 1539.89 810.206C1538.24 810.206 1536.9 809.12 1536.9 807.779C1536.9 806.439 1538.24 805.353 1539.89 805.353C1541.54 805.353 1542.87 806.439 1542.87 807.779Z" fill="#D3D2F6"/>
<path d="M1560.77 807.779C1560.77 809.12 1559.44 810.206 1557.79 810.206C1556.14 810.206 1554.81 809.12 1554.81 807.779C1554.81 806.439 1556.14 805.353 1557.79 805.353C1559.44 805.353 1560.77 806.439 1560.77 807.779Z" fill="#D3D2F6"/>
<path d="M1578.68 807.779C1578.68 809.12 1577.34 810.206 1575.69 810.206C1574.05 810.206 1572.71 809.12 1572.71 807.779C1572.71 806.439 1574.05 805.353 1575.69 805.353C1577.34 805.353 1578.68 806.439 1578.68 807.779Z" fill="#D3D2F6"/>
<path d="M1596.58 807.779C1596.58 809.12 1595.24 810.206 1593.6 810.206C1591.95 810.206 1590.61 809.12 1590.61 807.779C1590.61 806.439 1591.95 805.353 1593.6 805.353C1595.24 805.353 1596.58 806.439 1596.58 807.779Z" fill="#D3D2F6"/>
<path d="M1614.48 807.779C1614.48 809.12 1613.15 810.206 1611.5 810.206C1609.85 810.206 1608.52 809.12 1608.52 807.779C1608.52 806.439 1609.85 805.353 1611.5 805.353C1613.15 805.353 1614.48 806.439 1614.48 807.779Z" fill="#D3D2F6"/>
<path d="M1632.39 807.779C1632.39 809.12 1631.05 810.206 1629.4 810.206C1627.76 810.206 1626.42 809.12 1626.42 807.779C1626.42 806.439 1627.76 805.353 1629.4 805.353C1631.05 805.353 1632.39 806.439 1632.39 807.779Z" fill="#D3D2F6"/>
<path d="M1650.29 807.779C1650.29 809.12 1648.95 810.206 1647.31 810.206C1645.66 810.206 1644.32 809.12 1644.32 807.779C1644.32 806.439 1645.66 805.353 1647.31 805.353C1648.95 805.353 1650.29 806.439 1650.29 807.779Z" fill="#D3D2F6"/>
<path d="M1668.19 807.779C1668.19 809.12 1666.86 810.206 1665.21 810.206C1663.56 810.206 1662.23 809.12 1662.23 807.779C1662.23 806.439 1663.56 805.353 1665.21 805.353C1666.86 805.353 1668.19 806.439 1668.19 807.779Z" fill="#D3D2F6"/>
<path d="M1686.1 807.779C1686.1 809.12 1684.76 810.206 1683.11 810.206C1681.46 810.206 1680.13 809.12 1680.13 807.779C1680.13 806.439 1681.46 805.353 1683.11 805.353C1684.76 805.353 1686.1 806.439 1686.1 807.779Z" fill="#D3D2F6"/>
<path d="M1704 807.779C1704 809.12 1702.66 810.206 1701.02 810.206C1699.37 810.206 1698.03 809.12 1698.03 807.779C1698.03 806.439 1699.37 805.353 1701.02 805.353C1702.66 805.353 1704 806.439 1704 807.779Z" fill="#D3D2F6"/>
<path d="M1524.97 822.338C1524.97 823.678 1523.63 824.765 1521.98 824.765C1520.34 824.765 1519 823.678 1519 822.338C1519 820.998 1520.34 819.912 1521.98 819.912C1523.63 819.912 1524.97 820.998 1524.97 822.338Z" fill="#D3D2F6"/>
<path d="M1542.87 822.338C1542.87 823.678 1541.54 824.765 1539.89 824.765C1538.24 824.765 1536.9 823.678 1536.9 822.338C1536.9 820.998 1538.24 819.912 1539.89 819.912C1541.54 819.912 1542.87 820.998 1542.87 822.338Z" fill="#D3D2F6"/>
<path d="M1560.77 822.338C1560.77 823.678 1559.44 824.765 1557.79 824.765C1556.14 824.765 1554.81 823.678 1554.81 822.338C1554.81 820.998 1556.14 819.912 1557.79 819.912C1559.44 819.912 1560.77 820.998 1560.77 822.338Z" fill="#D3D2F6"/>
<path d="M1578.68 822.338C1578.68 823.678 1577.34 824.765 1575.69 824.765C1574.05 824.765 1572.71 823.678 1572.71 822.338C1572.71 820.998 1574.05 819.912 1575.69 819.912C1577.34 819.912 1578.68 820.998 1578.68 822.338Z" fill="#D3D2F6"/>
<path d="M1596.58 822.338C1596.58 823.678 1595.24 824.765 1593.6 824.765C1591.95 824.765 1590.61 823.678 1590.61 822.338C1590.61 820.998 1591.95 819.912 1593.6 819.912C1595.24 819.912 1596.58 820.998 1596.58 822.338Z" fill="#D3D2F6"/>
<path d="M1614.48 822.338C1614.48 823.678 1613.15 824.765 1611.5 824.765C1609.85 824.765 1608.52 823.678 1608.52 822.338C1608.52 820.998 1609.85 819.912 1611.5 819.912C1613.15 819.912 1614.48 820.998 1614.48 822.338Z" fill="#D3D2F6"/>
<path d="M1632.39 822.338C1632.39 823.678 1631.05 824.765 1629.4 824.765C1627.76 824.765 1626.42 823.678 1626.42 822.338C1626.42 820.998 1627.76 819.912 1629.4 819.912C1631.05 819.912 1632.39 820.998 1632.39 822.338Z" fill="#D3D2F6"/>
<path d="M1650.29 822.338C1650.29 823.678 1648.95 824.765 1647.31 824.765C1645.66 824.765 1644.32 823.678 1644.32 822.338C1644.32 820.998 1645.66 819.912 1647.31 819.912C1648.95 819.912 1650.29 820.998 1650.29 822.338Z" fill="#D3D2F6"/>
<path d="M1668.19 822.338C1668.19 823.678 1666.86 824.765 1665.21 824.765C1663.56 824.765 1662.23 823.678 1662.23 822.338C1662.23 820.998 1663.56 819.912 1665.21 819.912C1666.86 819.912 1668.19 820.998 1668.19 822.338Z" fill="#D3D2F6"/>
<path d="M1686.1 822.338C1686.1 823.678 1684.76 824.765 1683.11 824.765C1681.46 824.765 1680.13 823.678 1680.13 822.338C1680.13 820.998 1681.46 819.912 1683.11 819.912C1684.76 819.912 1686.1 820.998 1686.1 822.338Z" fill="#D3D2F6"/>
<path d="M1704 822.338C1704 823.678 1702.66 824.765 1701.02 824.765C1699.37 824.765 1698.03 823.678 1698.03 822.338C1698.03 820.998 1699.37 819.912 1701.02 819.912C1702.66 819.912 1704 820.998 1704 822.338Z" fill="#D3D2F6"/>
<path d="M1524.97 836.897C1524.97 838.237 1523.63 839.324 1521.98 839.324C1520.34 839.324 1519 838.237 1519 836.897C1519 835.557 1520.34 834.471 1521.98 834.471C1523.63 834.471 1524.97 835.557 1524.97 836.897Z" fill="#D3D2F6"/>
<path d="M1542.87 836.897C1542.87 838.237 1541.54 839.324 1539.89 839.324C1538.24 839.324 1536.9 838.237 1536.9 836.897C1536.9 835.557 1538.24 834.471 1539.89 834.471C1541.54 834.471 1542.87 835.557 1542.87 836.897Z" fill="#D3D2F6"/>
<path d="M1560.77 836.897C1560.77 838.237 1559.44 839.324 1557.79 839.324C1556.14 839.324 1554.81 838.237 1554.81 836.897C1554.81 835.557 1556.14 834.471 1557.79 834.471C1559.44 834.471 1560.77 835.557 1560.77 836.897Z" fill="#D3D2F6"/>
<path d="M1578.68 836.897C1578.68 838.237 1577.34 839.324 1575.69 839.324C1574.05 839.324 1572.71 838.237 1572.71 836.897C1572.71 835.557 1574.05 834.471 1575.69 834.471C1577.34 834.471 1578.68 835.557 1578.68 836.897Z" fill="#D3D2F6"/>
<path d="M1596.58 836.897C1596.58 838.237 1595.24 839.324 1593.6 839.324C1591.95 839.324 1590.61 838.237 1590.61 836.897C1590.61 835.557 1591.95 834.471 1593.6 834.471C1595.24 834.471 1596.58 835.557 1596.58 836.897Z" fill="#D3D2F6"/>
<path d="M1614.48 836.897C1614.48 838.237 1613.15 839.324 1611.5 839.324C1609.85 839.324 1608.52 838.237 1608.52 836.897C1608.52 835.557 1609.85 834.471 1611.5 834.471C1613.15 834.471 1614.48 835.557 1614.48 836.897Z" fill="#D3D2F6"/>
<path d="M1632.39 836.897C1632.39 838.237 1631.05 839.324 1629.4 839.324C1627.76 839.324 1626.42 838.237 1626.42 836.897C1626.42 835.557 1627.76 834.471 1629.4 834.471C1631.05 834.471 1632.39 835.557 1632.39 836.897Z" fill="#D3D2F6"/>
<path d="M1650.29 836.897C1650.29 838.237 1648.95 839.324 1647.31 839.324C1645.66 839.324 1644.32 838.237 1644.32 836.897C1644.32 835.557 1645.66 834.471 1647.31 834.471C1648.95 834.471 1650.29 835.557 1650.29 836.897Z" fill="#D3D2F6"/>
<path d="M1668.19 836.897C1668.19 838.237 1666.86 839.324 1665.21 839.324C1663.56 839.324 1662.23 838.237 1662.23 836.897C1662.23 835.557 1663.56 834.471 1665.21 834.471C1666.86 834.471 1668.19 835.557 1668.19 836.897Z" fill="#D3D2F6"/>
<path d="M1686.1 836.897C1686.1 838.237 1684.76 839.324 1683.11 839.324C1681.46 839.324 1680.13 838.237 1680.13 836.897C1680.13 835.557 1681.46 834.471 1683.11 834.471C1684.76 834.471 1686.1 835.557 1686.1 836.897Z" fill="#D3D2F6"/>
<path d="M1704 836.897C1704 838.237 1702.66 839.324 1701.02 839.324C1699.37 839.324 1698.03 838.237 1698.03 836.897C1698.03 835.557 1699.37 834.471 1701.02 834.471C1702.66 834.471 1704 835.557 1704 836.897Z" fill="#D3D2F6"/>
<path d="M1524.97 851.456C1524.97 852.796 1523.63 853.882 1521.98 853.882C1520.34 853.882 1519 852.796 1519 851.456C1519 850.116 1520.34 849.029 1521.98 849.029C1523.63 849.029 1524.97 850.116 1524.97 851.456Z" fill="#D3D2F6"/>
<path d="M1542.87 851.456C1542.87 852.796 1541.54 853.882 1539.89 853.882C1538.24 853.882 1536.9 852.796 1536.9 851.456C1536.9 850.116 1538.24 849.029 1539.89 849.029C1541.54 849.029 1542.87 850.116 1542.87 851.456Z" fill="#D3D2F6"/>
<path d="M1560.77 851.456C1560.77 852.796 1559.44 853.882 1557.79 853.882C1556.14 853.882 1554.81 852.796 1554.81 851.456C1554.81 850.116 1556.14 849.029 1557.79 849.029C1559.44 849.029 1560.77 850.116 1560.77 851.456Z" fill="#D3D2F6"/>
<path d="M1578.68 851.456C1578.68 852.796 1577.34 853.882 1575.69 853.882C1574.05 853.882 1572.71 852.796 1572.71 851.456C1572.71 850.116 1574.05 849.029 1575.69 849.029C1577.34 849.029 1578.68 850.116 1578.68 851.456Z" fill="#D3D2F6"/>
<path d="M1596.58 851.456C1596.58 852.796 1595.24 853.882 1593.6 853.882C1591.95 853.882 1590.61 852.796 1590.61 851.456C1590.61 850.116 1591.95 849.029 1593.6 849.029C1595.24 849.029 1596.58 850.116 1596.58 851.456Z" fill="#D3D2F6"/>
<path d="M1614.48 851.456C1614.48 852.796 1613.15 853.882 1611.5 853.882C1609.85 853.882 1608.52 852.796 1608.52 851.456C1608.52 850.116 1609.85 849.029 1611.5 849.029C1613.15 849.029 1614.48 850.116 1614.48 851.456Z" fill="#D3D2F6"/>
<path d="M1632.39 851.456C1632.39 852.796 1631.05 853.882 1629.4 853.882C1627.76 853.882 1626.42 852.796 1626.42 851.456C1626.42 850.116 1627.76 849.029 1629.4 849.029C1631.05 849.029 1632.39 850.116 1632.39 851.456Z" fill="#D3D2F6"/>
<path d="M1650.29 851.456C1650.29 852.796 1648.95 853.882 1647.31 853.882C1645.66 853.882 1644.32 852.796 1644.32 851.456C1644.32 850.116 1645.66 849.029 1647.31 849.029C1648.95 849.029 1650.29 850.116 1650.29 851.456Z" fill="#D3D2F6"/>
<path d="M1668.19 851.456C1668.19 852.796 1666.86 853.882 1665.21 853.882C1663.56 853.882 1662.23 852.796 1662.23 851.456C1662.23 850.116 1663.56 849.029 1665.21 849.029C1666.86 849.029 1668.19 850.116 1668.19 851.456Z" fill="#D3D2F6"/>
<path d="M1686.1 851.456C1686.1 852.796 1684.76 853.882 1683.11 853.882C1681.46 853.882 1680.13 852.796 1680.13 851.456C1680.13 850.116 1681.46 849.029 1683.11 849.029C1684.76 849.029 1686.1 850.116 1686.1 851.456Z" fill="#D3D2F6"/>
<path d="M1704 851.456C1704 852.796 1702.66 853.882 1701.02 853.882C1699.37 853.882 1698.03 852.796 1698.03 851.456C1698.03 850.116 1699.37 849.029 1701.02 849.029C1702.66 849.029 1704 850.116 1704 851.456Z" fill="#D3D2F6"/>
<path d="M1524.97 866.015C1524.97 867.355 1523.63 868.441 1521.98 868.441C1520.34 868.441 1519 867.355 1519 866.015C1519 864.675 1520.34 863.588 1521.98 863.588C1523.63 863.588 1524.97 864.675 1524.97 866.015Z" fill="#D3D2F6"/>
<path d="M1542.87 866.015C1542.87 867.355 1541.54 868.441 1539.89 868.441C1538.24 868.441 1536.9 867.355 1536.9 866.015C1536.9 864.675 1538.24 863.588 1539.89 863.588C1541.54 863.588 1542.87 864.675 1542.87 866.015Z" fill="#D3D2F6"/>
<path d="M1560.77 866.015C1560.77 867.355 1559.44 868.441 1557.79 868.441C1556.14 868.441 1554.81 867.355 1554.81 866.015C1554.81 864.675 1556.14 863.588 1557.79 863.588C1559.44 863.588 1560.77 864.675 1560.77 866.015Z" fill="#D3D2F6"/>
<path d="M1578.68 866.015C1578.68 867.355 1577.34 868.441 1575.69 868.441C1574.05 868.441 1572.71 867.355 1572.71 866.015C1572.71 864.675 1574.05 863.588 1575.69 863.588C1577.34 863.588 1578.68 864.675 1578.68 866.015Z" fill="#D3D2F6"/>
<path d="M1596.58 866.015C1596.58 867.355 1595.24 868.441 1593.6 868.441C1591.95 868.441 1590.61 867.355 1590.61 866.015C1590.61 864.675 1591.95 863.588 1593.6 863.588C1595.24 863.588 1596.58 864.675 1596.58 866.015Z" fill="#D3D2F6"/>
<path d="M1614.48 866.015C1614.48 867.355 1613.15 868.441 1611.5 868.441C1609.85 868.441 1608.52 867.355 1608.52 866.015C1608.52 864.675 1609.85 863.588 1611.5 863.588C1613.15 863.588 1614.48 864.675 1614.48 866.015Z" fill="#D3D2F6"/>
<path d="M1632.39 866.015C1632.39 867.355 1631.05 868.441 1629.4 868.441C1627.76 868.441 1626.42 867.355 1626.42 866.015C1626.42 864.675 1627.76 863.588 1629.4 863.588C1631.05 863.588 1632.39 864.675 1632.39 866.015Z" fill="#D3D2F6"/>
<path d="M1650.29 866.015C1650.29 867.355 1648.95 868.441 1647.31 868.441C1645.66 868.441 1644.32 867.355 1644.32 866.015C1644.32 864.675 1645.66 863.588 1647.31 863.588C1648.95 863.588 1650.29 864.675 1650.29 866.015Z" fill="#D3D2F6"/>
<path d="M1668.19 866.015C1668.19 867.355 1666.86 868.441 1665.21 868.441C1663.56 868.441 1662.23 867.355 1662.23 866.015C1662.23 864.675 1663.56 863.588 1665.21 863.588C1666.86 863.588 1668.19 864.675 1668.19 866.015Z" fill="#D3D2F6"/>
<path d="M1686.1 866.015C1686.1 867.355 1684.76 868.441 1683.11 868.441C1681.46 868.441 1680.13 867.355 1680.13 866.015C1680.13 864.675 1681.46 863.588 1683.11 863.588C1684.76 863.588 1686.1 864.675 1686.1 866.015Z" fill="#D3D2F6"/>
<path d="M1704 866.015C1704 867.355 1702.66 868.441 1701.02 868.441C1699.37 868.441 1698.03 867.355 1698.03 866.015C1698.03 864.675 1699.37 863.588 1701.02 863.588C1702.66 863.588 1704 864.675 1704 866.015Z" fill="#D3D2F6"/>
<path d="M1524.97 880.574C1524.97 881.914 1523.63 883 1521.98 883C1520.34 883 1519 881.914 1519 880.574C1519 879.233 1520.34 878.147 1521.98 878.147C1523.63 878.147 1524.97 879.233 1524.97 880.574Z" fill="#D3D2F6"/>
<path d="M1542.87 880.574C1542.87 881.914 1541.54 883 1539.89 883C1538.24 883 1536.9 881.914 1536.9 880.574C1536.9 879.233 1538.24 878.147 1539.89 878.147C1541.54 878.147 1542.87 879.233 1542.87 880.574Z" fill="#D3D2F6"/>
<path d="M1560.77 880.574C1560.77 881.914 1559.44 883 1557.79 883C1556.14 883 1554.81 881.914 1554.81 880.574C1554.81 879.233 1556.14 878.147 1557.79 878.147C1559.44 878.147 1560.77 879.233 1560.77 880.574Z" fill="#D3D2F6"/>
<path d="M1578.68 880.574C1578.68 881.914 1577.34 883 1575.69 883C1574.05 883 1572.71 881.914 1572.71 880.574C1572.71 879.233 1574.05 878.147 1575.69 878.147C1577.34 878.147 1578.68 879.233 1578.68 880.574Z" fill="#D3D2F6"/>
<path d="M1596.58 880.574C1596.58 881.914 1595.24 883 1593.6 883C1591.95 883 1590.61 881.914 1590.61 880.574C1590.61 879.233 1591.95 878.147 1593.6 878.147C1595.24 878.147 1596.58 879.233 1596.58 880.574Z" fill="#D3D2F6"/>
<path d="M1614.48 880.574C1614.48 881.914 1613.15 883 1611.5 883C1609.85 883 1608.52 881.914 1608.52 880.574C1608.52 879.233 1609.85 878.147 1611.5 878.147C1613.15 878.147 1614.48 879.233 1614.48 880.574Z" fill="#D3D2F6"/>
<path d="M1632.39 880.574C1632.39 881.914 1631.05 883 1629.4 883C1627.76 883 1626.42 881.914 1626.42 880.574C1626.42 879.233 1627.76 878.147 1629.4 878.147C1631.05 878.147 1632.39 879.233 1632.39 880.574Z" fill="#D3D2F6"/>
<path d="M1650.29 880.574C1650.29 881.914 1648.95 883 1647.31 883C1645.66 883 1644.32 881.914 1644.32 880.574C1644.32 879.233 1645.66 878.147 1647.31 878.147C1648.95 878.147 1650.29 879.233 1650.29 880.574Z" fill="#D3D2F6"/>
<path d="M1668.19 880.574C1668.19 881.914 1666.86 883 1665.21 883C1663.56 883 1662.23 881.914 1662.23 880.574C1662.23 879.233 1663.56 878.147 1665.21 878.147C1666.86 878.147 1668.19 879.233 1668.19 880.574Z" fill="#D3D2F6"/>
<path d="M1686.1 880.574C1686.1 881.914 1684.76 883 1683.11 883C1681.46 883 1680.13 881.914 1680.13 880.574C1680.13 879.233 1681.46 878.147 1683.11 878.147C1684.76 878.147 1686.1 879.233 1686.1 880.574Z" fill="#D3D2F6"/>
<path d="M1704 880.574C1704 881.914 1702.66 883 1701.02 883C1699.37 883 1698.03 881.914 1698.03 880.574C1698.03 879.233 1699.37 878.147 1701.02 878.147C1702.66 878.147 1704 879.233 1704 880.574Z" fill="#D3D2F6"/>
<circle cx="1533" cy="731" r="40" fill="#D9D8F7"/>
<circle cx="133" cy="2082" r="40" fill="#D9D8F7"/>
<circle cx="162" cy="815" r="39.5" stroke="#D9D8F7"/>
<circle cx="184" cy="786" r="39.5" stroke="#B3B0FF"/>
<circle cx="1917" cy="1333" r="149" stroke="#E9E8FC" stroke-width="2"/>
<circle cx="1879" cy="1273" r="149" stroke="#C5C3FF" stroke-width="2"/>
<path d="M411.452 261.912C411.452 263.52 409.784 264.824 407.726 264.824C405.668 264.824 404 263.52 404 261.912C404 260.304 405.668 259 407.726 259C409.784 259 411.452 260.304 411.452 261.912Z" fill="#D3D2F6"/>
<path d="M433.806 261.912C433.806 263.52 432.138 264.824 430.081 264.824C428.023 264.824 426.355 263.52 426.355 261.912C426.355 260.304 428.023 259 430.081 259C432.138 259 433.806 260.304 433.806 261.912Z" fill="#D3D2F6"/>
<path d="M456.161 261.912C456.161 263.52 454.493 264.824 452.435 264.824C450.378 264.824 448.71 263.52 448.71 261.912C448.71 260.304 450.378 259 452.435 259C454.493 259 456.161 260.304 456.161 261.912Z" fill="#D3D2F6"/>
<path d="M478.516 261.912C478.516 263.52 476.848 264.824 474.79 264.824C472.733 264.824 471.065 263.52 471.065 261.912C471.065 260.304 472.733 259 474.79 259C476.848 259 478.516 260.304 478.516 261.912Z" fill="#D3D2F6"/>
<path d="M500.871 261.912C500.871 263.52 499.203 264.824 497.145 264.824C495.087 264.824 493.419 263.52 493.419 261.912C493.419 260.304 495.087 259 497.145 259C499.203 259 500.871 260.304 500.871 261.912Z" fill="#D3D2F6"/>
<path d="M523.226 261.912C523.226 263.52 521.558 264.824 519.5 264.824C517.442 264.824 515.774 263.52 515.774 261.912C515.774 260.304 517.442 259 519.5 259C521.558 259 523.226 260.304 523.226 261.912Z" fill="#D3D2F6"/>
<path d="M545.581 261.912C545.581 263.52 543.913 264.824 541.855 264.824C539.797 264.824 538.129 263.52 538.129 261.912C538.129 260.304 539.797 259 541.855 259C543.913 259 545.581 260.304 545.581 261.912Z" fill="#D3D2F6"/>
<path d="M567.935 261.912C567.935 263.52 566.267 264.824 564.21 264.824C562.152 264.824 560.484 263.52 560.484 261.912C560.484 260.304 562.152 259 564.21 259C566.267 259 567.935 260.304 567.935 261.912Z" fill="#D3D2F6"/>
<path d="M590.29 261.912C590.29 263.52 588.622 264.824 586.565 264.824C584.507 264.824 582.839 263.52 582.839 261.912C582.839 260.304 584.507 259 586.565 259C588.622 259 590.29 260.304 590.29 261.912Z" fill="#D3D2F6"/>
<path d="M612.645 261.912C612.645 263.52 610.977 264.824 608.919 264.824C606.862 264.824 605.194 263.52 605.194 261.912C605.194 260.304 606.862 259 608.919 259C610.977 259 612.645 260.304 612.645 261.912Z" fill="#D3D2F6"/>
<path d="M635 261.912C635 263.52 633.332 264.824 631.274 264.824C629.216 264.824 627.548 263.52 627.548 261.912C627.548 260.304 629.216 259 631.274 259C633.332 259 635 260.304 635 261.912Z" fill="#D3D2F6"/>
<path d="M411.452 279.382C411.452 280.99 409.784 282.294 407.726 282.294C405.668 282.294 404 280.99 404 279.382C404 277.774 405.668 276.471 407.726 276.471C409.784 276.471 411.452 277.774 411.452 279.382Z" fill="#D3D2F6"/>
<path d="M433.806 279.382C433.806 280.99 432.138 282.294 430.081 282.294C428.023 282.294 426.355 280.99 426.355 279.382C426.355 277.774 428.023 276.471 430.081 276.471C432.138 276.471 433.806 277.774 433.806 279.382Z" fill="#D3D2F6"/>
<path d="M456.161 279.382C456.161 280.99 454.493 282.294 452.435 282.294C450.378 282.294 448.71 280.99 448.71 279.382C448.71 277.774 450.378 276.471 452.435 276.471C454.493 276.471 456.161 277.774 456.161 279.382Z" fill="#D3D2F6"/>
<path d="M478.516 279.382C478.516 280.99 476.848 282.294 474.79 282.294C472.733 282.294 471.065 280.99 471.065 279.382C471.065 277.774 472.733 276.471 474.79 276.471C476.848 276.471 478.516 277.774 478.516 279.382Z" fill="#D3D2F6"/>
<path d="M500.871 279.382C500.871 280.99 499.203 282.294 497.145 282.294C495.087 282.294 493.419 280.99 493.419 279.382C493.419 277.774 495.087 276.471 497.145 276.471C499.203 276.471 500.871 277.774 500.871 279.382Z" fill="#D3D2F6"/>
<path d="M523.226 279.382C523.226 280.99 521.558 282.294 519.5 282.294C517.442 282.294 515.774 280.99 515.774 279.382C515.774 277.774 517.442 276.471 519.5 276.471C521.558 276.471 523.226 277.774 523.226 279.382Z" fill="#D3D2F6"/>
<path d="M545.581 279.382C545.581 280.99 543.913 282.294 541.855 282.294C539.797 282.294 538.129 280.99 538.129 279.382C538.129 277.774 539.797 276.471 541.855 276.471C543.913 276.471 545.581 277.774 545.581 279.382Z" fill="#D3D2F6"/>
<path d="M567.935 279.382C567.935 280.99 566.267 282.294 564.21 282.294C562.152 282.294 560.484 280.99 560.484 279.382C560.484 277.774 562.152 276.471 564.21 276.471C566.267 276.471 567.935 277.774 567.935 279.382Z" fill="#D3D2F6"/>
<path d="M590.29 279.382C590.29 280.99 588.622 282.294 586.565 282.294C584.507 282.294 582.839 280.99 582.839 279.382C582.839 277.774 584.507 276.471 586.565 276.471C588.622 276.471 590.29 277.774 590.29 279.382Z" fill="#D3D2F6"/>
<path d="M612.645 279.382C612.645 280.99 610.977 282.294 608.919 282.294C606.862 282.294 605.194 280.99 605.194 279.382C605.194 277.774 606.862 276.471 608.919 276.471C610.977 276.471 612.645 277.774 612.645 279.382Z" fill="#D3D2F6"/>
<path d="M635 279.382C635 280.99 633.332 282.294 631.274 282.294C629.216 282.294 627.548 280.99 627.548 279.382C627.548 277.774 629.216 276.471 631.274 276.471C633.332 276.471 635 277.774 635 279.382Z" fill="#D3D2F6"/>
<path d="M411.452 296.853C411.452 298.461 409.784 299.765 407.726 299.765C405.668 299.765 404 298.461 404 296.853C404 295.245 405.668 293.941 407.726 293.941C409.784 293.941 411.452 295.245 411.452 296.853Z" fill="#D3D2F6"/>
<path d="M433.806 296.853C433.806 298.461 432.138 299.765 430.081 299.765C428.023 299.765 426.355 298.461 426.355 296.853C426.355 295.245 428.023 293.941 430.081 293.941C432.138 293.941 433.806 295.245 433.806 296.853Z" fill="#D3D2F6"/>
<path d="M456.161 296.853C456.161 298.461 454.493 299.765 452.435 299.765C450.378 299.765 448.71 298.461 448.71 296.853C448.71 295.245 450.378 293.941 452.435 293.941C454.493 293.941 456.161 295.245 456.161 296.853Z" fill="#D3D2F6"/>
<path d="M478.516 296.853C478.516 298.461 476.848 299.765 474.79 299.765C472.733 299.765 471.065 298.461 471.065 296.853C471.065 295.245 472.733 293.941 474.79 293.941C476.848 293.941 478.516 295.245 478.516 296.853Z" fill="#D3D2F6"/>
<path d="M500.871 296.853C500.871 298.461 499.203 299.765 497.145 299.765C495.087 299.765 493.419 298.461 493.419 296.853C493.419 295.245 495.087 293.941 497.145 293.941C499.203 293.941 500.871 295.245 500.871 296.853Z" fill="#D3D2F6"/>
<path d="M523.226 296.853C523.226 298.461 521.558 299.765 519.5 299.765C517.442 299.765 515.774 298.461 515.774 296.853C515.774 295.245 517.442 293.941 519.5 293.941C521.558 293.941 523.226 295.245 523.226 296.853Z" fill="#D3D2F6"/>
<path d="M545.581 296.853C545.581 298.461 543.913 299.765 541.855 299.765C539.797 299.765 538.129 298.461 538.129 296.853C538.129 295.245 539.797 293.941 541.855 293.941C543.913 293.941 545.581 295.245 545.581 296.853Z" fill="#D3D2F6"/>
<path d="M567.935 296.853C567.935 298.461 566.267 299.765 564.21 299.765C562.152 299.765 560.484 298.461 560.484 296.853C560.484 295.245 562.152 293.941 564.21 293.941C566.267 293.941 567.935 295.245 567.935 296.853Z" fill="#D3D2F6"/>
<path d="M590.29 296.853C590.29 298.461 588.622 299.765 586.565 299.765C584.507 299.765 582.839 298.461 582.839 296.853C582.839 295.245 584.507 293.941 586.565 293.941C588.622 293.941 590.29 295.245 590.29 296.853Z" fill="#D3D2F6"/>
<path d="M612.645 296.853C612.645 298.461 610.977 299.765 608.919 299.765C606.862 299.765 605.194 298.461 605.194 296.853C605.194 295.245 606.862 293.941 608.919 293.941C610.977 293.941 612.645 295.245 612.645 296.853Z" fill="#D3D2F6"/>
<path d="M635 296.853C635 298.461 633.332 299.765 631.274 299.765C629.216 299.765 627.548 298.461 627.548 296.853C627.548 295.245 629.216 293.941 631.274 293.941C633.332 293.941 635 295.245 635 296.853Z" fill="#D3D2F6"/>
<path d="M411.452 314.324C411.452 315.932 409.784 317.235 407.726 317.235C405.668 317.235 404 315.932 404 314.324C404 312.715 405.668 311.412 407.726 311.412C409.784 311.412 411.452 312.715 411.452 314.324Z" fill="#D3D2F6"/>
<path d="M433.806 314.324C433.806 315.932 432.138 317.235 430.081 317.235C428.023 317.235 426.355 315.932 426.355 314.324C426.355 312.715 428.023 311.412 430.081 311.412C432.138 311.412 433.806 312.715 433.806 314.324Z" fill="#D3D2F6"/>
<path d="M456.161 314.324C456.161 315.932 454.493 317.235 452.435 317.235C450.378 317.235 448.71 315.932 448.71 314.324C448.71 312.715 450.378 311.412 452.435 311.412C454.493 311.412 456.161 312.715 456.161 314.324Z" fill="#D3D2F6"/>
<path d="M478.516 314.324C478.516 315.932 476.848 317.235 474.79 317.235C472.733 317.235 471.065 315.932 471.065 314.324C471.065 312.715 472.733 311.412 474.79 311.412C476.848 311.412 478.516 312.715 478.516 314.324Z" fill="#D3D2F6"/>
<path d="M500.871 314.324C500.871 315.932 499.203 317.235 497.145 317.235C495.087 317.235 493.419 315.932 493.419 314.324C493.419 312.715 495.087 311.412 497.145 311.412C499.203 311.412 500.871 312.715 500.871 314.324Z" fill="#D3D2F6"/>
<path d="M523.226 314.324C523.226 315.932 521.558 317.235 519.5 317.235C517.442 317.235 515.774 315.932 515.774 314.324C515.774 312.715 517.442 311.412 519.5 311.412C521.558 311.412 523.226 312.715 523.226 314.324Z" fill="#D3D2F6"/>
<path d="M545.581 314.324C545.581 315.932 543.913 317.235 541.855 317.235C539.797 317.235 538.129 315.932 538.129 314.324C538.129 312.715 539.797 311.412 541.855 311.412C543.913 311.412 545.581 312.715 545.581 314.324Z" fill="#D3D2F6"/>
<path d="M567.935 314.324C567.935 315.932 566.267 317.235 564.21 317.235C562.152 317.235 560.484 315.932 560.484 314.324C560.484 312.715 562.152 311.412 564.21 311.412C566.267 311.412 567.935 312.715 567.935 314.324Z" fill="#D3D2F6"/>
<path d="M590.29 314.324C590.29 315.932 588.622 317.235 586.565 317.235C584.507 317.235 582.839 315.932 582.839 314.324C582.839 312.715 584.507 311.412 586.565 311.412C588.622 311.412 590.29 312.715 590.29 314.324Z" fill="#D3D2F6"/>
<path d="M612.645 314.324C612.645 315.932 610.977 317.235 608.919 317.235C606.862 317.235 605.194 315.932 605.194 314.324C605.194 312.715 606.862 311.412 608.919 311.412C610.977 311.412 612.645 312.715 612.645 314.324Z" fill="#D3D2F6"/>
<path d="M635 314.324C635 315.932 633.332 317.235 631.274 317.235C629.216 317.235 627.548 315.932 627.548 314.324C627.548 312.715 629.216 311.412 631.274 311.412C633.332 311.412 635 312.715 635 314.324Z" fill="#D3D2F6"/>
<path d="M411.452 331.794C411.452 333.402 409.784 334.706 407.726 334.706C405.668 334.706 404 333.402 404 331.794C404 330.186 405.668 328.882 407.726 328.882C409.784 328.882 411.452 330.186 411.452 331.794Z" fill="#D3D2F6"/>
<path d="M433.806 331.794C433.806 333.402 432.138 334.706 430.081 334.706C428.023 334.706 426.355 333.402 426.355 331.794C426.355 330.186 428.023 328.882 430.081 328.882C432.138 328.882 433.806 330.186 433.806 331.794Z" fill="#D3D2F6"/>
<path d="M456.161 331.794C456.161 333.402 454.493 334.706 452.435 334.706C450.378 334.706 448.71 333.402 448.71 331.794C448.71 330.186 450.378 328.882 452.435 328.882C454.493 328.882 456.161 330.186 456.161 331.794Z" fill="#D3D2F6"/>
<path d="M478.516 331.794C478.516 333.402 476.848 334.706 474.79 334.706C472.733 334.706 471.065 333.402 471.065 331.794C471.065 330.186 472.733 328.882 474.79 328.882C476.848 328.882 478.516 330.186 478.516 331.794Z" fill="#D3D2F6"/>
<path d="M500.871 331.794C500.871 333.402 499.203 334.706 497.145 334.706C495.087 334.706 493.419 333.402 493.419 331.794C493.419 330.186 495.087 328.882 497.145 328.882C499.203 328.882 500.871 330.186 500.871 331.794Z" fill="#D3D2F6"/>
<path d="M523.226 331.794C523.226 333.402 521.558 334.706 519.5 334.706C517.442 334.706 515.774 333.402 515.774 331.794C515.774 330.186 517.442 328.882 519.5 328.882C521.558 328.882 523.226 330.186 523.226 331.794Z" fill="#D3D2F6"/>
<path d="M545.581 331.794C545.581 333.402 543.913 334.706 541.855 334.706C539.797 334.706 538.129 333.402 538.129 331.794C538.129 330.186 539.797 328.882 541.855 328.882C543.913 328.882 545.581 330.186 545.581 331.794Z" fill="#D3D2F6"/>
<path d="M567.935 331.794C567.935 333.402 566.267 334.706 564.21 334.706C562.152 334.706 560.484 333.402 560.484 331.794C560.484 330.186 562.152 328.882 564.21 328.882C566.267 328.882 567.935 330.186 567.935 331.794Z" fill="#D3D2F6"/>
<path d="M590.29 331.794C590.29 333.402 588.622 334.706 586.565 334.706C584.507 334.706 582.839 333.402 582.839 331.794C582.839 330.186 584.507 328.882 586.565 328.882C588.622 328.882 590.29 330.186 590.29 331.794Z" fill="#D3D2F6"/>
<path d="M612.645 331.794C612.645 333.402 610.977 334.706 608.919 334.706C606.862 334.706 605.194 333.402 605.194 331.794C605.194 330.186 606.862 328.882 608.919 328.882C610.977 328.882 612.645 330.186 612.645 331.794Z" fill="#D3D2F6"/>
<path d="M635 331.794C635 333.402 633.332 334.706 631.274 334.706C629.216 334.706 627.548 333.402 627.548 331.794C627.548 330.186 629.216 328.882 631.274 328.882C633.332 328.882 635 330.186 635 331.794Z" fill="#D3D2F6"/>
<path d="M411.452 349.265C411.452 350.873 409.784 352.176 407.726 352.176C405.668 352.176 404 350.873 404 349.265C404 347.657 405.668 346.353 407.726 346.353C409.784 346.353 411.452 347.657 411.452 349.265Z" fill="#D3D2F6"/>
<path d="M433.806 349.265C433.806 350.873 432.138 352.176 430.081 352.176C428.023 352.176 426.355 350.873 426.355 349.265C426.355 347.657 428.023 346.353 430.081 346.353C432.138 346.353 433.806 347.657 433.806 349.265Z" fill="#D3D2F6"/>
<path d="M456.161 349.265C456.161 350.873 454.493 352.176 452.435 352.176C450.378 352.176 448.71 350.873 448.71 349.265C448.71 347.657 450.378 346.353 452.435 346.353C454.493 346.353 456.161 347.657 456.161 349.265Z" fill="#D3D2F6"/>
<path d="M478.516 349.265C478.516 350.873 476.848 352.176 474.79 352.176C472.733 352.176 471.065 350.873 471.065 349.265C471.065 347.657 472.733 346.353 474.79 346.353C476.848 346.353 478.516 347.657 478.516 349.265Z" fill="#D3D2F6"/>
<path d="M500.871 349.265C500.871 350.873 499.203 352.176 497.145 352.176C495.087 352.176 493.419 350.873 493.419 349.265C493.419 347.657 495.087 346.353 497.145 346.353C499.203 346.353 500.871 347.657 500.871 349.265Z" fill="#D3D2F6"/>
<path d="M523.226 349.265C523.226 350.873 521.558 352.176 519.5 352.176C517.442 352.176 515.774 350.873 515.774 349.265C515.774 347.657 517.442 346.353 519.5 346.353C521.558 346.353 523.226 347.657 523.226 349.265Z" fill="#D3D2F6"/>
<path d="M545.581 349.265C545.581 350.873 543.913 352.176 541.855 352.176C539.797 352.176 538.129 350.873 538.129 349.265C538.129 347.657 539.797 346.353 541.855 346.353C543.913 346.353 545.581 347.657 545.581 349.265Z" fill="#D3D2F6"/>
<path d="M567.935 349.265C567.935 350.873 566.267 352.176 564.21 352.176C562.152 352.176 560.484 350.873 560.484 349.265C560.484 347.657 562.152 346.353 564.21 346.353C566.267 346.353 567.935 347.657 567.935 349.265Z" fill="#D3D2F6"/>
<path d="M590.29 349.265C590.29 350.873 588.622 352.176 586.565 352.176C584.507 352.176 582.839 350.873 582.839 349.265C582.839 347.657 584.507 346.353 586.565 346.353C588.622 346.353 590.29 347.657 590.29 349.265Z" fill="#D3D2F6"/>
<path d="M612.645 349.265C612.645 350.873 610.977 352.176 608.919 352.176C606.862 352.176 605.194 350.873 605.194 349.265C605.194 347.657 606.862 346.353 608.919 346.353C610.977 346.353 612.645 347.657 612.645 349.265Z" fill="#D3D2F6"/>
<path d="M635 349.265C635 350.873 633.332 352.176 631.274 352.176C629.216 352.176 627.548 350.873 627.548 349.265C627.548 347.657 629.216 346.353 631.274 346.353C633.332 346.353 635 347.657 635 349.265Z" fill="#D3D2F6"/>
<path d="M411.452 366.735C411.452 368.343 409.784 369.647 407.726 369.647C405.668 369.647 404 368.343 404 366.735C404 365.127 405.668 363.824 407.726 363.824C409.784 363.824 411.452 365.127 411.452 366.735Z" fill="#D3D2F6"/>
<path d="M433.806 366.735C433.806 368.343 432.138 369.647 430.081 369.647C428.023 369.647 426.355 368.343 426.355 366.735C426.355 365.127 428.023 363.824 430.081 363.824C432.138 363.824 433.806 365.127 433.806 366.735Z" fill="#D3D2F6"/>
<path d="M456.161 366.735C456.161 368.343 454.493 369.647 452.435 369.647C450.378 369.647 448.71 368.343 448.71 366.735C448.71 365.127 450.378 363.824 452.435 363.824C454.493 363.824 456.161 365.127 456.161 366.735Z" fill="#D3D2F6"/>
<path d="M478.516 366.735C478.516 368.343 476.848 369.647 474.79 369.647C472.733 369.647 471.065 368.343 471.065 366.735C471.065 365.127 472.733 363.824 474.79 363.824C476.848 363.824 478.516 365.127 478.516 366.735Z" fill="#D3D2F6"/>
<path d="M500.871 366.735C500.871 368.343 499.203 369.647 497.145 369.647C495.087 369.647 493.419 368.343 493.419 366.735C493.419 365.127 495.087 363.824 497.145 363.824C499.203 363.824 500.871 365.127 500.871 366.735Z" fill="#D3D2F6"/>
<path d="M523.226 366.735C523.226 368.343 521.558 369.647 519.5 369.647C517.442 369.647 515.774 368.343 515.774 366.735C515.774 365.127 517.442 363.824 519.5 363.824C521.558 363.824 523.226 365.127 523.226 366.735Z" fill="#D3D2F6"/>
<path d="M545.581 366.735C545.581 368.343 543.913 369.647 541.855 369.647C539.797 369.647 538.129 368.343 538.129 366.735C538.129 365.127 539.797 363.824 541.855 363.824C543.913 363.824 545.581 365.127 545.581 366.735Z" fill="#D3D2F6"/>
<path d="M567.935 366.735C567.935 368.343 566.267 369.647 564.21 369.647C562.152 369.647 560.484 368.343 560.484 366.735C560.484 365.127 562.152 363.824 564.21 363.824C566.267 363.824 567.935 365.127 567.935 366.735Z" fill="#D3D2F6"/>
<path d="M590.29 366.735C590.29 368.343 588.622 369.647 586.565 369.647C584.507 369.647 582.839 368.343 582.839 366.735C582.839 365.127 584.507 363.824 586.565 363.824C588.622 363.824 590.29 365.127 590.29 366.735Z" fill="#D3D2F6"/>
<path d="M612.645 366.735C612.645 368.343 610.977 369.647 608.919 369.647C606.862 369.647 605.194 368.343 605.194 366.735C605.194 365.127 606.862 363.824 608.919 363.824C610.977 363.824 612.645 365.127 612.645 366.735Z" fill="#D3D2F6"/>
<path d="M635 366.735C635 368.343 633.332 369.647 631.274 369.647C629.216 369.647 627.548 368.343 627.548 366.735C627.548 365.127 629.216 363.824 631.274 363.824C633.332 363.824 635 365.127 635 366.735Z" fill="#D3D2F6"/>
<path d="M411.452 384.206C411.452 385.814 409.784 387.118 407.726 387.118C405.668 387.118 404 385.814 404 384.206C404 382.598 405.668 381.294 407.726 381.294C409.784 381.294 411.452 382.598 411.452 384.206Z" fill="#D3D2F6"/>
<path d="M433.806 384.206C433.806 385.814 432.138 387.118 430.081 387.118C428.023 387.118 426.355 385.814 426.355 384.206C426.355 382.598 428.023 381.294 430.081 381.294C432.138 381.294 433.806 382.598 433.806 384.206Z" fill="#D3D2F6"/>
<path d="M456.161 384.206C456.161 385.814 454.493 387.118 452.435 387.118C450.378 387.118 448.71 385.814 448.71 384.206C448.71 382.598 450.378 381.294 452.435 381.294C454.493 381.294 456.161 382.598 456.161 384.206Z" fill="#D3D2F6"/>
<path d="M478.516 384.206C478.516 385.814 476.848 387.118 474.79 387.118C472.733 387.118 471.065 385.814 471.065 384.206C471.065 382.598 472.733 381.294 474.79 381.294C476.848 381.294 478.516 382.598 478.516 384.206Z" fill="#D3D2F6"/>
<path d="M500.871 384.206C500.871 385.814 499.203 387.118 497.145 387.118C495.087 387.118 493.419 385.814 493.419 384.206C493.419 382.598 495.087 381.294 497.145 381.294C499.203 381.294 500.871 382.598 500.871 384.206Z" fill="#D3D2F6"/>
<path d="M523.226 384.206C523.226 385.814 521.558 387.118 519.5 387.118C517.442 387.118 515.774 385.814 515.774 384.206C515.774 382.598 517.442 381.294 519.5 381.294C521.558 381.294 523.226 382.598 523.226 384.206Z" fill="#D3D2F6"/>
<path d="M545.581 384.206C545.581 385.814 543.913 387.118 541.855 387.118C539.797 387.118 538.129 385.814 538.129 384.206C538.129 382.598 539.797 381.294 541.855 381.294C543.913 381.294 545.581 382.598 545.581 384.206Z" fill="#D3D2F6"/>
<path d="M567.935 384.206C567.935 385.814 566.267 387.118 564.21 387.118C562.152 387.118 560.484 385.814 560.484 384.206C560.484 382.598 562.152 381.294 564.21 381.294C566.267 381.294 567.935 382.598 567.935 384.206Z" fill="#D3D2F6"/>
<path d="M590.29 384.206C590.29 385.814 588.622 387.118 586.565 387.118C584.507 387.118 582.839 385.814 582.839 384.206C582.839 382.598 584.507 381.294 586.565 381.294C588.622 381.294 590.29 382.598 590.29 384.206Z" fill="#D3D2F6"/>
<path d="M612.645 384.206C612.645 385.814 610.977 387.118 608.919 387.118C606.862 387.118 605.194 385.814 605.194 384.206C605.194 382.598 606.862 381.294 608.919 381.294C610.977 381.294 612.645 382.598 612.645 384.206Z" fill="#D3D2F6"/>
<path d="M635 384.206C635 385.814 633.332 387.118 631.274 387.118C629.216 387.118 627.548 385.814 627.548 384.206C627.548 382.598 629.216 381.294 631.274 381.294C633.332 381.294 635 382.598 635 384.206Z" fill="#D3D2F6"/>
<path d="M411.452 401.676C411.452 403.285 409.784 404.588 407.726 404.588C405.668 404.588 404 403.285 404 401.676C404 400.068 405.668 398.765 407.726 398.765C409.784 398.765 411.452 400.068 411.452 401.676Z" fill="#D3D2F6"/>
<path d="M433.806 401.676C433.806 403.285 432.138 404.588 430.081 404.588C428.023 404.588 426.355 403.285 426.355 401.676C426.355 400.068 428.023 398.765 430.081 398.765C432.138 398.765 433.806 400.068 433.806 401.676Z" fill="#D3D2F6"/>
<path d="M456.161 401.676C456.161 403.285 454.493 404.588 452.435 404.588C450.378 404.588 448.71 403.285 448.71 401.676C448.71 400.068 450.378 398.765 452.435 398.765C454.493 398.765 456.161 400.068 456.161 401.676Z" fill="#D3D2F6"/>
<path d="M478.516 401.676C478.516 403.285 476.848 404.588 474.79 404.588C472.733 404.588 471.065 403.285 471.065 401.676C471.065 400.068 472.733 398.765 474.79 398.765C476.848 398.765 478.516 400.068 478.516 401.676Z" fill="#D3D2F6"/>
<path d="M500.871 401.676C500.871 403.285 499.203 404.588 497.145 404.588C495.087 404.588 493.419 403.285 493.419 401.676C493.419 400.068 495.087 398.765 497.145 398.765C499.203 398.765 500.871 400.068 500.871 401.676Z" fill="#D3D2F6"/>
<path d="M523.226 401.676C523.226 403.285 521.558 404.588 519.5 404.588C517.442 404.588 515.774 403.285 515.774 401.676C515.774 400.068 517.442 398.765 519.5 398.765C521.558 398.765 523.226 400.068 523.226 401.676Z" fill="#D3D2F6"/>
<path d="M545.581 401.676C545.581 403.285 543.913 404.588 541.855 404.588C539.797 404.588 538.129 403.285 538.129 401.676C538.129 400.068 539.797 398.765 541.855 398.765C543.913 398.765 545.581 400.068 545.581 401.676Z" fill="#D3D2F6"/>
<path d="M567.935 401.676C567.935 403.285 566.267 404.588 564.21 404.588C562.152 404.588 560.484 403.285 560.484 401.676C560.484 400.068 562.152 398.765 564.21 398.765C566.267 398.765 567.935 400.068 567.935 401.676Z" fill="#D3D2F6"/>
<path d="M590.29 401.676C590.29 403.285 588.622 404.588 586.565 404.588C584.507 404.588 582.839 403.285 582.839 401.676C582.839 400.068 584.507 398.765 586.565 398.765C588.622 398.765 590.29 400.068 590.29 401.676Z" fill="#D3D2F6"/>
<path d="M612.645 401.676C612.645 403.285 610.977 404.588 608.919 404.588C606.862 404.588 605.194 403.285 605.194 401.676C605.194 400.068 606.862 398.765 608.919 398.765C610.977 398.765 612.645 400.068 612.645 401.676Z" fill="#D3D2F6"/>
<path d="M635 401.676C635 403.285 633.332 404.588 631.274 404.588C629.216 404.588 627.548 403.285 627.548 401.676C627.548 400.068 629.216 398.765 631.274 398.765C633.332 398.765 635 400.068 635 401.676Z" fill="#D3D2F6"/>
<path d="M411.452 419.147C411.452 420.755 409.784 422.059 407.726 422.059C405.668 422.059 404 420.755 404 419.147C404 417.539 405.668 416.235 407.726 416.235C409.784 416.235 411.452 417.539 411.452 419.147Z" fill="#D3D2F6"/>
<path d="M433.806 419.147C433.806 420.755 432.138 422.059 430.081 422.059C428.023 422.059 426.355 420.755 426.355 419.147C426.355 417.539 428.023 416.235 430.081 416.235C432.138 416.235 433.806 417.539 433.806 419.147Z" fill="#D3D2F6"/>
<path d="M456.161 419.147C456.161 420.755 454.493 422.059 452.435 422.059C450.378 422.059 448.71 420.755 448.71 419.147C448.71 417.539 450.378 416.235 452.435 416.235C454.493 416.235 456.161 417.539 456.161 419.147Z" fill="#D3D2F6"/>
<path d="M478.516 419.147C478.516 420.755 476.848 422.059 474.79 422.059C472.733 422.059 471.065 420.755 471.065 419.147C471.065 417.539 472.733 416.235 474.79 416.235C476.848 416.235 478.516 417.539 478.516 419.147Z" fill="#D3D2F6"/>
<path d="M500.871 419.147C500.871 420.755 499.203 422.059 497.145 422.059C495.087 422.059 493.419 420.755 493.419 419.147C493.419 417.539 495.087 416.235 497.145 416.235C499.203 416.235 500.871 417.539 500.871 419.147Z" fill="#D3D2F6"/>
<path d="M523.226 419.147C523.226 420.755 521.558 422.059 519.5 422.059C517.442 422.059 515.774 420.755 515.774 419.147C515.774 417.539 517.442 416.235 519.5 416.235C521.558 416.235 523.226 417.539 523.226 419.147Z" fill="#D3D2F6"/>
<path d="M545.581 419.147C545.581 420.755 543.913 422.059 541.855 422.059C539.797 422.059 538.129 420.755 538.129 419.147C538.129 417.539 539.797 416.235 541.855 416.235C543.913 416.235 545.581 417.539 545.581 419.147Z" fill="#D3D2F6"/>
<path d="M567.935 419.147C567.935 420.755 566.267 422.059 564.21 422.059C562.152 422.059 560.484 420.755 560.484 419.147C560.484 417.539 562.152 416.235 564.21 416.235C566.267 416.235 567.935 417.539 567.935 419.147Z" fill="#D3D2F6"/>
<path d="M590.29 419.147C590.29 420.755 588.622 422.059 586.565 422.059C584.507 422.059 582.839 420.755 582.839 419.147C582.839 417.539 584.507 416.235 586.565 416.235C588.622 416.235 590.29 417.539 590.29 419.147Z" fill="#D3D2F6"/>
<path d="M612.645 419.147C612.645 420.755 610.977 422.059 608.919 422.059C606.862 422.059 605.194 420.755 605.194 419.147C605.194 417.539 606.862 416.235 608.919 416.235C610.977 416.235 612.645 417.539 612.645 419.147Z" fill="#D3D2F6"/>
<path d="M635 419.147C635 420.755 633.332 422.059 631.274 422.059C629.216 422.059 627.548 420.755 627.548 419.147C627.548 417.539 629.216 416.235 631.274 416.235C633.332 416.235 635 417.539 635 419.147Z" fill="#D3D2F6"/>
<path d="M411.452 436.618C411.452 438.226 409.784 439.529 407.726 439.529C405.668 439.529 404 438.226 404 436.618C404 435.01 405.668 433.706 407.726 433.706C409.784 433.706 411.452 435.01 411.452 436.618Z" fill="#D3D2F6"/>
<path d="M433.806 436.618C433.806 438.226 432.138 439.529 430.081 439.529C428.023 439.529 426.355 438.226 426.355 436.618C426.355 435.01 428.023 433.706 430.081 433.706C432.138 433.706 433.806 435.01 433.806 436.618Z" fill="#D3D2F6"/>
<path d="M456.161 436.618C456.161 438.226 454.493 439.529 452.435 439.529C450.378 439.529 448.71 438.226 448.71 436.618C448.71 435.01 450.378 433.706 452.435 433.706C454.493 433.706 456.161 435.01 456.161 436.618Z" fill="#D3D2F6"/>
<path d="M478.516 436.618C478.516 438.226 476.848 439.529 474.79 439.529C472.733 439.529 471.065 438.226 471.065 436.618C471.065 435.01 472.733 433.706 474.79 433.706C476.848 433.706 478.516 435.01 478.516 436.618Z" fill="#D3D2F6"/>
<path d="M500.871 436.618C500.871 438.226 499.203 439.529 497.145 439.529C495.087 439.529 493.419 438.226 493.419 436.618C493.419 435.01 495.087 433.706 497.145 433.706C499.203 433.706 500.871 435.01 500.871 436.618Z" fill="#D3D2F6"/>
<path d="M523.226 436.618C523.226 438.226 521.558 439.529 519.5 439.529C517.442 439.529 515.774 438.226 515.774 436.618C515.774 435.01 517.442 433.706 519.5 433.706C521.558 433.706 523.226 435.01 523.226 436.618Z" fill="#D3D2F6"/>
<path d="M545.581 436.618C545.581 438.226 543.913 439.529 541.855 439.529C539.797 439.529 538.129 438.226 538.129 436.618C538.129 435.01 539.797 433.706 541.855 433.706C543.913 433.706 545.581 435.01 545.581 436.618Z" fill="#D3D2F6"/>
<path d="M567.935 436.618C567.935 438.226 566.267 439.529 564.21 439.529C562.152 439.529 560.484 438.226 560.484 436.618C560.484 435.01 562.152 433.706 564.21 433.706C566.267 433.706 567.935 435.01 567.935 436.618Z" fill="#D3D2F6"/>
<path d="M590.29 436.618C590.29 438.226 588.622 439.529 586.565 439.529C584.507 439.529 582.839 438.226 582.839 436.618C582.839 435.01 584.507 433.706 586.565 433.706C588.622 433.706 590.29 435.01 590.29 436.618Z" fill="#D3D2F6"/>
<path d="M612.645 436.618C612.645 438.226 610.977 439.529 608.919 439.529C606.862 439.529 605.194 438.226 605.194 436.618C605.194 435.01 606.862 433.706 608.919 433.706C610.977 433.706 612.645 435.01 612.645 436.618Z" fill="#D3D2F6"/>
<path d="M635 436.618C635 438.226 633.332 439.529 631.274 439.529C629.216 439.529 627.548 438.226 627.548 436.618C627.548 435.01 629.216 433.706 631.274 433.706C633.332 433.706 635 435.01 635 436.618Z" fill="#D3D2F6"/>
<path d="M411.452 454.088C411.452 455.696 409.784 457 407.726 457C405.668 457 404 455.696 404 454.088C404 452.48 405.668 451.176 407.726 451.176C409.784 451.176 411.452 452.48 411.452 454.088Z" fill="#D3D2F6"/>
<path d="M433.806 454.088C433.806 455.696 432.138 457 430.081 457C428.023 457 426.355 455.696 426.355 454.088C426.355 452.48 428.023 451.176 430.081 451.176C432.138 451.176 433.806 452.48 433.806 454.088Z" fill="#D3D2F6"/>
<path d="M456.161 454.088C456.161 455.696 454.493 457 452.435 457C450.378 457 448.71 455.696 448.71 454.088C448.71 452.48 450.378 451.176 452.435 451.176C454.493 451.176 456.161 452.48 456.161 454.088Z" fill="#D3D2F6"/>
<path d="M478.516 454.088C478.516 455.696 476.848 457 474.79 457C472.733 457 471.065 455.696 471.065 454.088C471.065 452.48 472.733 451.176 474.79 451.176C476.848 451.176 478.516 452.48 478.516 454.088Z" fill="#D3D2F6"/>
<path d="M500.871 454.088C500.871 455.696 499.203 457 497.145 457C495.087 457 493.419 455.696 493.419 454.088C493.419 452.48 495.087 451.176 497.145 451.176C499.203 451.176 500.871 452.48 500.871 454.088Z" fill="#D3D2F6"/>
<path d="M523.226 454.088C523.226 455.696 521.558 457 519.5 457C517.442 457 515.774 455.696 515.774 454.088C515.774 452.48 517.442 451.176 519.5 451.176C521.558 451.176 523.226 452.48 523.226 454.088Z" fill="#D3D2F6"/>
<path d="M545.581 454.088C545.581 455.696 543.913 457 541.855 457C539.797 457 538.129 455.696 538.129 454.088C538.129 452.48 539.797 451.176 541.855 451.176C543.913 451.176 545.581 452.48 545.581 454.088Z" fill="#D3D2F6"/>
<path d="M567.935 454.088C567.935 455.696 566.267 457 564.21 457C562.152 457 560.484 455.696 560.484 454.088C560.484 452.48 562.152 451.176 564.21 451.176C566.267 451.176 567.935 452.48 567.935 454.088Z" fill="#D3D2F6"/>
<path d="M590.29 454.088C590.29 455.696 588.622 457 586.565 457C584.507 457 582.839 455.696 582.839 454.088C582.839 452.48 584.507 451.176 586.565 451.176C588.622 451.176 590.29 452.48 590.29 454.088Z" fill="#D3D2F6"/>
<path d="M612.645 454.088C612.645 455.696 610.977 457 608.919 457C606.862 457 605.194 455.696 605.194 454.088C605.194 452.48 606.862 451.176 608.919 451.176C610.977 451.176 612.645 452.48 612.645 454.088Z" fill="#D3D2F6"/>
<path d="M635 454.088C635 455.696 633.332 457 631.274 457C629.216 457 627.548 455.696 627.548 454.088C627.548 452.48 629.216 451.176 631.274 451.176C633.332 451.176 635 452.48 635 454.088Z" fill="#D3D2F6"/>
<path d="M1361.45 1870.91C1361.45 1872.52 1359.78 1873.82 1357.73 1873.82C1355.67 1873.82 1354 1872.52 1354 1870.91C1354 1869.3 1355.67 1868 1357.73 1868C1359.78 1868 1361.45 1869.3 1361.45 1870.91Z" fill="#D3D2F6"/>
<path d="M1383.81 1870.91C1383.81 1872.52 1382.14 1873.82 1380.08 1873.82C1378.02 1873.82 1376.35 1872.52 1376.35 1870.91C1376.35 1869.3 1378.02 1868 1380.08 1868C1382.14 1868 1383.81 1869.3 1383.81 1870.91Z" fill="#D3D2F6"/>
<path d="M1406.16 1870.91C1406.16 1872.52 1404.49 1873.82 1402.44 1873.82C1400.38 1873.82 1398.71 1872.52 1398.71 1870.91C1398.71 1869.3 1400.38 1868 1402.44 1868C1404.49 1868 1406.16 1869.3 1406.16 1870.91Z" fill="#D3D2F6"/>
<path d="M1428.52 1870.91C1428.52 1872.52 1426.85 1873.82 1424.79 1873.82C1422.73 1873.82 1421.06 1872.52 1421.06 1870.91C1421.06 1869.3 1422.73 1868 1424.79 1868C1426.85 1868 1428.52 1869.3 1428.52 1870.91Z" fill="#D3D2F6"/>
<path d="M1450.87 1870.91C1450.87 1872.52 1449.2 1873.82 1447.15 1873.82C1445.09 1873.82 1443.42 1872.52 1443.42 1870.91C1443.42 1869.3 1445.09 1868 1447.15 1868C1449.2 1868 1450.87 1869.3 1450.87 1870.91Z" fill="#D3D2F6"/>
<path d="M1473.23 1870.91C1473.23 1872.52 1471.56 1873.82 1469.5 1873.82C1467.44 1873.82 1465.77 1872.52 1465.77 1870.91C1465.77 1869.3 1467.44 1868 1469.5 1868C1471.56 1868 1473.23 1869.3 1473.23 1870.91Z" fill="#D3D2F6"/>
<path d="M1495.58 1870.91C1495.58 1872.52 1493.91 1873.82 1491.85 1873.82C1489.8 1873.82 1488.13 1872.52 1488.13 1870.91C1488.13 1869.3 1489.8 1868 1491.85 1868C1493.91 1868 1495.58 1869.3 1495.58 1870.91Z" fill="#D3D2F6"/>
<path d="M1517.94 1870.91C1517.94 1872.52 1516.27 1873.82 1514.21 1873.82C1512.15 1873.82 1510.48 1872.52 1510.48 1870.91C1510.48 1869.3 1512.15 1868 1514.21 1868C1516.27 1868 1517.94 1869.3 1517.94 1870.91Z" fill="#D3D2F6"/>
<path d="M1540.29 1870.91C1540.29 1872.52 1538.62 1873.82 1536.56 1873.82C1534.51 1873.82 1532.84 1872.52 1532.84 1870.91C1532.84 1869.3 1534.51 1868 1536.56 1868C1538.62 1868 1540.29 1869.3 1540.29 1870.91Z" fill="#D3D2F6"/>
<path d="M1562.65 1870.91C1562.65 1872.52 1560.98 1873.82 1558.92 1873.82C1556.86 1873.82 1555.19 1872.52 1555.19 1870.91C1555.19 1869.3 1556.86 1868 1558.92 1868C1560.98 1868 1562.65 1869.3 1562.65 1870.91Z" fill="#D3D2F6"/>
<path d="M1585 1870.91C1585 1872.52 1583.33 1873.82 1581.27 1873.82C1579.22 1873.82 1577.55 1872.52 1577.55 1870.91C1577.55 1869.3 1579.22 1868 1581.27 1868C1583.33 1868 1585 1869.3 1585 1870.91Z" fill="#D3D2F6"/>
<path d="M1361.45 1888.38C1361.45 1889.99 1359.78 1891.29 1357.73 1891.29C1355.67 1891.29 1354 1889.99 1354 1888.38C1354 1886.77 1355.67 1885.47 1357.73 1885.47C1359.78 1885.47 1361.45 1886.77 1361.45 1888.38Z" fill="#D3D2F6"/>
<path d="M1383.81 1888.38C1383.81 1889.99 1382.14 1891.29 1380.08 1891.29C1378.02 1891.29 1376.35 1889.99 1376.35 1888.38C1376.35 1886.77 1378.02 1885.47 1380.08 1885.47C1382.14 1885.47 1383.81 1886.77 1383.81 1888.38Z" fill="#D3D2F6"/>
<path d="M1406.16 1888.38C1406.16 1889.99 1404.49 1891.29 1402.44 1891.29C1400.38 1891.29 1398.71 1889.99 1398.71 1888.38C1398.71 1886.77 1400.38 1885.47 1402.44 1885.47C1404.49 1885.47 1406.16 1886.77 1406.16 1888.38Z" fill="#D3D2F6"/>
<path d="M1428.52 1888.38C1428.52 1889.99 1426.85 1891.29 1424.79 1891.29C1422.73 1891.29 1421.06 1889.99 1421.06 1888.38C1421.06 1886.77 1422.73 1885.47 1424.79 1885.47C1426.85 1885.47 1428.52 1886.77 1428.52 1888.38Z" fill="#D3D2F6"/>
<path d="M1450.87 1888.38C1450.87 1889.99 1449.2 1891.29 1447.15 1891.29C1445.09 1891.29 1443.42 1889.99 1443.42 1888.38C1443.42 1886.77 1445.09 1885.47 1447.15 1885.47C1449.2 1885.47 1450.87 1886.77 1450.87 1888.38Z" fill="#D3D2F6"/>
<path d="M1473.23 1888.38C1473.23 1889.99 1471.56 1891.29 1469.5 1891.29C1467.44 1891.29 1465.77 1889.99 1465.77 1888.38C1465.77 1886.77 1467.44 1885.47 1469.5 1885.47C1471.56 1885.47 1473.23 1886.77 1473.23 1888.38Z" fill="#D3D2F6"/>
<path d="M1495.58 1888.38C1495.58 1889.99 1493.91 1891.29 1491.85 1891.29C1489.8 1891.29 1488.13 1889.99 1488.13 1888.38C1488.13 1886.77 1489.8 1885.47 1491.85 1885.47C1493.91 1885.47 1495.58 1886.77 1495.58 1888.38Z" fill="#D3D2F6"/>
<path d="M1517.94 1888.38C1517.94 1889.99 1516.27 1891.29 1514.21 1891.29C1512.15 1891.29 1510.48 1889.99 1510.48 1888.38C1510.48 1886.77 1512.15 1885.47 1514.21 1885.47C1516.27 1885.47 1517.94 1886.77 1517.94 1888.38Z" fill="#D3D2F6"/>
<path d="M1540.29 1888.38C1540.29 1889.99 1538.62 1891.29 1536.56 1891.29C1534.51 1891.29 1532.84 1889.99 1532.84 1888.38C1532.84 1886.77 1534.51 1885.47 1536.56 1885.47C1538.62 1885.47 1540.29 1886.77 1540.29 1888.38Z" fill="#D3D2F6"/>
<path d="M1562.65 1888.38C1562.65 1889.99 1560.98 1891.29 1558.92 1891.29C1556.86 1891.29 1555.19 1889.99 1555.19 1888.38C1555.19 1886.77 1556.86 1885.47 1558.92 1885.47C1560.98 1885.47 1562.65 1886.77 1562.65 1888.38Z" fill="#D3D2F6"/>
<path d="M1585 1888.38C1585 1889.99 1583.33 1891.29 1581.27 1891.29C1579.22 1891.29 1577.55 1889.99 1577.55 1888.38C1577.55 1886.77 1579.22 1885.47 1581.27 1885.47C1583.33 1885.47 1585 1886.77 1585 1888.38Z" fill="#D3D2F6"/>
<path d="M1361.45 1905.85C1361.45 1907.46 1359.78 1908.76 1357.73 1908.76C1355.67 1908.76 1354 1907.46 1354 1905.85C1354 1904.24 1355.67 1902.94 1357.73 1902.94C1359.78 1902.94 1361.45 1904.24 1361.45 1905.85Z" fill="#D3D2F6"/>
<path d="M1383.81 1905.85C1383.81 1907.46 1382.14 1908.76 1380.08 1908.76C1378.02 1908.76 1376.35 1907.46 1376.35 1905.85C1376.35 1904.24 1378.02 1902.94 1380.08 1902.94C1382.14 1902.94 1383.81 1904.24 1383.81 1905.85Z" fill="#D3D2F6"/>
<path d="M1406.16 1905.85C1406.16 1907.46 1404.49 1908.76 1402.44 1908.76C1400.38 1908.76 1398.71 1907.46 1398.71 1905.85C1398.71 1904.24 1400.38 1902.94 1402.44 1902.94C1404.49 1902.94 1406.16 1904.24 1406.16 1905.85Z" fill="#D3D2F6"/>
<path d="M1428.52 1905.85C1428.52 1907.46 1426.85 1908.76 1424.79 1908.76C1422.73 1908.76 1421.06 1907.46 1421.06 1905.85C1421.06 1904.24 1422.73 1902.94 1424.79 1902.94C1426.85 1902.94 1428.52 1904.24 1428.52 1905.85Z" fill="#D3D2F6"/>
<path d="M1450.87 1905.85C1450.87 1907.46 1449.2 1908.76 1447.15 1908.76C1445.09 1908.76 1443.42 1907.46 1443.42 1905.85C1443.42 1904.24 1445.09 1902.94 1447.15 1902.94C1449.2 1902.94 1450.87 1904.24 1450.87 1905.85Z" fill="#D3D2F6"/>
<path d="M1473.23 1905.85C1473.23 1907.46 1471.56 1908.76 1469.5 1908.76C1467.44 1908.76 1465.77 1907.46 1465.77 1905.85C1465.77 1904.24 1467.44 1902.94 1469.5 1902.94C1471.56 1902.94 1473.23 1904.24 1473.23 1905.85Z" fill="#D3D2F6"/>
<path d="M1495.58 1905.85C1495.58 1907.46 1493.91 1908.76 1491.85 1908.76C1489.8 1908.76 1488.13 1907.46 1488.13 1905.85C1488.13 1904.24 1489.8 1902.94 1491.85 1902.94C1493.91 1902.94 1495.58 1904.24 1495.58 1905.85Z" fill="#D3D2F6"/>
<path d="M1517.94 1905.85C1517.94 1907.46 1516.27 1908.76 1514.21 1908.76C1512.15 1908.76 1510.48 1907.46 1510.48 1905.85C1510.48 1904.24 1512.15 1902.94 1514.21 1902.94C1516.27 1902.94 1517.94 1904.24 1517.94 1905.85Z" fill="#D3D2F6"/>
<path d="M1540.29 1905.85C1540.29 1907.46 1538.62 1908.76 1536.56 1908.76C1534.51 1908.76 1532.84 1907.46 1532.84 1905.85C1532.84 1904.24 1534.51 1902.94 1536.56 1902.94C1538.62 1902.94 1540.29 1904.24 1540.29 1905.85Z" fill="#D3D2F6"/>
<path d="M1562.65 1905.85C1562.65 1907.46 1560.98 1908.76 1558.92 1908.76C1556.86 1908.76 1555.19 1907.46 1555.19 1905.85C1555.19 1904.24 1556.86 1902.94 1558.92 1902.94C1560.98 1902.94 1562.65 1904.24 1562.65 1905.85Z" fill="#D3D2F6"/>
<path d="M1585 1905.85C1585 1907.46 1583.33 1908.76 1581.27 1908.76C1579.22 1908.76 1577.55 1907.46 1577.55 1905.85C1577.55 1904.24 1579.22 1902.94 1581.27 1902.94C1583.33 1902.94 1585 1904.24 1585 1905.85Z" fill="#D3D2F6"/>
<path d="M1361.45 1923.32C1361.45 1924.93 1359.78 1926.24 1357.73 1926.24C1355.67 1926.24 1354 1924.93 1354 1923.32C1354 1921.72 1355.67 1920.41 1357.73 1920.41C1359.78 1920.41 1361.45 1921.72 1361.45 1923.32Z" fill="#D3D2F6"/>
<path d="M1383.81 1923.32C1383.81 1924.93 1382.14 1926.24 1380.08 1926.24C1378.02 1926.24 1376.35 1924.93 1376.35 1923.32C1376.35 1921.72 1378.02 1920.41 1380.08 1920.41C1382.14 1920.41 1383.81 1921.72 1383.81 1923.32Z" fill="#D3D2F6"/>
<path d="M1406.16 1923.32C1406.16 1924.93 1404.49 1926.24 1402.44 1926.24C1400.38 1926.24 1398.71 1924.93 1398.71 1923.32C1398.71 1921.72 1400.38 1920.41 1402.44 1920.41C1404.49 1920.41 1406.16 1921.72 1406.16 1923.32Z" fill="#D3D2F6"/>
<path d="M1428.52 1923.32C1428.52 1924.93 1426.85 1926.24 1424.79 1926.24C1422.73 1926.24 1421.06 1924.93 1421.06 1923.32C1421.06 1921.72 1422.73 1920.41 1424.79 1920.41C1426.85 1920.41 1428.52 1921.72 1428.52 1923.32Z" fill="#D3D2F6"/>
<path d="M1450.87 1923.32C1450.87 1924.93 1449.2 1926.24 1447.15 1926.24C1445.09 1926.24 1443.42 1924.93 1443.42 1923.32C1443.42 1921.72 1445.09 1920.41 1447.15 1920.41C1449.2 1920.41 1450.87 1921.72 1450.87 1923.32Z" fill="#D3D2F6"/>
<path d="M1473.23 1923.32C1473.23 1924.93 1471.56 1926.24 1469.5 1926.24C1467.44 1926.24 1465.77 1924.93 1465.77 1923.32C1465.77 1921.72 1467.44 1920.41 1469.5 1920.41C1471.56 1920.41 1473.23 1921.72 1473.23 1923.32Z" fill="#D3D2F6"/>
<path d="M1495.58 1923.32C1495.58 1924.93 1493.91 1926.24 1491.85 1926.24C1489.8 1926.24 1488.13 1924.93 1488.13 1923.32C1488.13 1921.72 1489.8 1920.41 1491.85 1920.41C1493.91 1920.41 1495.58 1921.72 1495.58 1923.32Z" fill="#D3D2F6"/>
<path d="M1517.94 1923.32C1517.94 1924.93 1516.27 1926.24 1514.21 1926.24C1512.15 1926.24 1510.48 1924.93 1510.48 1923.32C1510.48 1921.72 1512.15 1920.41 1514.21 1920.41C1516.27 1920.41 1517.94 1921.72 1517.94 1923.32Z" fill="#D3D2F6"/>
<path d="M1540.29 1923.32C1540.29 1924.93 1538.62 1926.24 1536.56 1926.24C1534.51 1926.24 1532.84 1924.93 1532.84 1923.32C1532.84 1921.72 1534.51 1920.41 1536.56 1920.41C1538.62 1920.41 1540.29 1921.72 1540.29 1923.32Z" fill="#D3D2F6"/>
<path d="M1562.65 1923.32C1562.65 1924.93 1560.98 1926.24 1558.92 1926.24C1556.86 1926.24 1555.19 1924.93 1555.19 1923.32C1555.19 1921.72 1556.86 1920.41 1558.92 1920.41C1560.98 1920.41 1562.65 1921.72 1562.65 1923.32Z" fill="#D3D2F6"/>
<path d="M1585 1923.32C1585 1924.93 1583.33 1926.24 1581.27 1926.24C1579.22 1926.24 1577.55 1924.93 1577.55 1923.32C1577.55 1921.72 1579.22 1920.41 1581.27 1920.41C1583.33 1920.41 1585 1921.72 1585 1923.32Z" fill="#D3D2F6"/>
<path d="M1361.45 1940.79C1361.45 1942.4 1359.78 1943.71 1357.73 1943.71C1355.67 1943.71 1354 1942.4 1354 1940.79C1354 1939.19 1355.67 1937.88 1357.73 1937.88C1359.78 1937.88 1361.45 1939.19 1361.45 1940.79Z" fill="#D3D2F6"/>
<path d="M1383.81 1940.79C1383.81 1942.4 1382.14 1943.71 1380.08 1943.71C1378.02 1943.71 1376.35 1942.4 1376.35 1940.79C1376.35 1939.19 1378.02 1937.88 1380.08 1937.88C1382.14 1937.88 1383.81 1939.19 1383.81 1940.79Z" fill="#D3D2F6"/>
<path d="M1406.16 1940.79C1406.16 1942.4 1404.49 1943.71 1402.44 1943.71C1400.38 1943.71 1398.71 1942.4 1398.71 1940.79C1398.71 1939.19 1400.38 1937.88 1402.44 1937.88C1404.49 1937.88 1406.16 1939.19 1406.16 1940.79Z" fill="#D3D2F6"/>
<path d="M1428.52 1940.79C1428.52 1942.4 1426.85 1943.71 1424.79 1943.71C1422.73 1943.71 1421.06 1942.4 1421.06 1940.79C1421.06 1939.19 1422.73 1937.88 1424.79 1937.88C1426.85 1937.88 1428.52 1939.19 1428.52 1940.79Z" fill="#D3D2F6"/>
<path d="M1450.87 1940.79C1450.87 1942.4 1449.2 1943.71 1447.15 1943.71C1445.09 1943.71 1443.42 1942.4 1443.42 1940.79C1443.42 1939.19 1445.09 1937.88 1447.15 1937.88C1449.2 1937.88 1450.87 1939.19 1450.87 1940.79Z" fill="#D3D2F6"/>
<path d="M1473.23 1940.79C1473.23 1942.4 1471.56 1943.71 1469.5 1943.71C1467.44 1943.71 1465.77 1942.4 1465.77 1940.79C1465.77 1939.19 1467.44 1937.88 1469.5 1937.88C1471.56 1937.88 1473.23 1939.19 1473.23 1940.79Z" fill="#D3D2F6"/>
<path d="M1495.58 1940.79C1495.58 1942.4 1493.91 1943.71 1491.85 1943.71C1489.8 1943.71 1488.13 1942.4 1488.13 1940.79C1488.13 1939.19 1489.8 1937.88 1491.85 1937.88C1493.91 1937.88 1495.58 1939.19 1495.58 1940.79Z" fill="#D3D2F6"/>
<path d="M1517.94 1940.79C1517.94 1942.4 1516.27 1943.71 1514.21 1943.71C1512.15 1943.71 1510.48 1942.4 1510.48 1940.79C1510.48 1939.19 1512.15 1937.88 1514.21 1937.88C1516.27 1937.88 1517.94 1939.19 1517.94 1940.79Z" fill="#D3D2F6"/>
<path d="M1540.29 1940.79C1540.29 1942.4 1538.62 1943.71 1536.56 1943.71C1534.51 1943.71 1532.84 1942.4 1532.84 1940.79C1532.84 1939.19 1534.51 1937.88 1536.56 1937.88C1538.62 1937.88 1540.29 1939.19 1540.29 1940.79Z" fill="#D3D2F6"/>
<path d="M1562.65 1940.79C1562.65 1942.4 1560.98 1943.71 1558.92 1943.71C1556.86 1943.71 1555.19 1942.4 1555.19 1940.79C1555.19 1939.19 1556.86 1937.88 1558.92 1937.88C1560.98 1937.88 1562.65 1939.19 1562.65 1940.79Z" fill="#D3D2F6"/>
<path d="M1585 1940.79C1585 1942.4 1583.33 1943.71 1581.27 1943.71C1579.22 1943.71 1577.55 1942.4 1577.55 1940.79C1577.55 1939.19 1579.22 1937.88 1581.27 1937.88C1583.33 1937.88 1585 1939.19 1585 1940.79Z" fill="#D3D2F6"/>
<path d="M1361.45 1958.26C1361.45 1959.87 1359.78 1961.18 1357.73 1961.18C1355.67 1961.18 1354 1959.87 1354 1958.26C1354 1956.66 1355.67 1955.35 1357.73 1955.35C1359.78 1955.35 1361.45 1956.66 1361.45 1958.26Z" fill="#D3D2F6"/>
<path d="M1383.81 1958.26C1383.81 1959.87 1382.14 1961.18 1380.08 1961.18C1378.02 1961.18 1376.35 1959.87 1376.35 1958.26C1376.35 1956.66 1378.02 1955.35 1380.08 1955.35C1382.14 1955.35 1383.81 1956.66 1383.81 1958.26Z" fill="#D3D2F6"/>
<path d="M1406.16 1958.26C1406.16 1959.87 1404.49 1961.18 1402.44 1961.18C1400.38 1961.18 1398.71 1959.87 1398.71 1958.26C1398.71 1956.66 1400.38 1955.35 1402.44 1955.35C1404.49 1955.35 1406.16 1956.66 1406.16 1958.26Z" fill="#D3D2F6"/>
<path d="M1428.52 1958.26C1428.52 1959.87 1426.85 1961.18 1424.79 1961.18C1422.73 1961.18 1421.06 1959.87 1421.06 1958.26C1421.06 1956.66 1422.73 1955.35 1424.79 1955.35C1426.85 1955.35 1428.52 1956.66 1428.52 1958.26Z" fill="#D3D2F6"/>
<path d="M1450.87 1958.26C1450.87 1959.87 1449.2 1961.18 1447.15 1961.18C1445.09 1961.18 1443.42 1959.87 1443.42 1958.26C1443.42 1956.66 1445.09 1955.35 1447.15 1955.35C1449.2 1955.35 1450.87 1956.66 1450.87 1958.26Z" fill="#D3D2F6"/>
<path d="M1473.23 1958.26C1473.23 1959.87 1471.56 1961.18 1469.5 1961.18C1467.44 1961.18 1465.77 1959.87 1465.77 1958.26C1465.77 1956.66 1467.44 1955.35 1469.5 1955.35C1471.56 1955.35 1473.23 1956.66 1473.23 1958.26Z" fill="#D3D2F6"/>
<path d="M1495.58 1958.26C1495.58 1959.87 1493.91 1961.18 1491.85 1961.18C1489.8 1961.18 1488.13 1959.87 1488.13 1958.26C1488.13 1956.66 1489.8 1955.35 1491.85 1955.35C1493.91 1955.35 1495.58 1956.66 1495.58 1958.26Z" fill="#D3D2F6"/>
<path d="M1517.94 1958.26C1517.94 1959.87 1516.27 1961.18 1514.21 1961.18C1512.15 1961.18 1510.48 1959.87 1510.48 1958.26C1510.48 1956.66 1512.15 1955.35 1514.21 1955.35C1516.27 1955.35 1517.94 1956.66 1517.94 1958.26Z" fill="#D3D2F6"/>
<path d="M1540.29 1958.26C1540.29 1959.87 1538.62 1961.18 1536.56 1961.18C1534.51 1961.18 1532.84 1959.87 1532.84 1958.26C1532.84 1956.66 1534.51 1955.35 1536.56 1955.35C1538.62 1955.35 1540.29 1956.66 1540.29 1958.26Z" fill="#D3D2F6"/>
<path d="M1562.65 1958.26C1562.65 1959.87 1560.98 1961.18 1558.92 1961.18C1556.86 1961.18 1555.19 1959.87 1555.19 1958.26C1555.19 1956.66 1556.86 1955.35 1558.92 1955.35C1560.98 1955.35 1562.65 1956.66 1562.65 1958.26Z" fill="#D3D2F6"/>
<path d="M1585 1958.26C1585 1959.87 1583.33 1961.18 1581.27 1961.18C1579.22 1961.18 1577.55 1959.87 1577.55 1958.26C1577.55 1956.66 1579.22 1955.35 1581.27 1955.35C1583.33 1955.35 1585 1956.66 1585 1958.26Z" fill="#D3D2F6"/>
<path d="M1361.45 1975.74C1361.45 1977.34 1359.78 1978.65 1357.73 1978.65C1355.67 1978.65 1354 1977.34 1354 1975.74C1354 1974.13 1355.67 1972.82 1357.73 1972.82C1359.78 1972.82 1361.45 1974.13 1361.45 1975.74Z" fill="#D3D2F6"/>
<path d="M1383.81 1975.74C1383.81 1977.34 1382.14 1978.65 1380.08 1978.65C1378.02 1978.65 1376.35 1977.34 1376.35 1975.74C1376.35 1974.13 1378.02 1972.82 1380.08 1972.82C1382.14 1972.82 1383.81 1974.13 1383.81 1975.74Z" fill="#D3D2F6"/>
<path d="M1406.16 1975.74C1406.16 1977.34 1404.49 1978.65 1402.44 1978.65C1400.38 1978.65 1398.71 1977.34 1398.71 1975.74C1398.71 1974.13 1400.38 1972.82 1402.44 1972.82C1404.49 1972.82 1406.16 1974.13 1406.16 1975.74Z" fill="#D3D2F6"/>
<path d="M1428.52 1975.74C1428.52 1977.34 1426.85 1978.65 1424.79 1978.65C1422.73 1978.65 1421.06 1977.34 1421.06 1975.74C1421.06 1974.13 1422.73 1972.82 1424.79 1972.82C1426.85 1972.82 1428.52 1974.13 1428.52 1975.74Z" fill="#D3D2F6"/>
<path d="M1450.87 1975.74C1450.87 1977.34 1449.2 1978.65 1447.15 1978.65C1445.09 1978.65 1443.42 1977.34 1443.42 1975.74C1443.42 1974.13 1445.09 1972.82 1447.15 1972.82C1449.2 1972.82 1450.87 1974.13 1450.87 1975.74Z" fill="#D3D2F6"/>
<path d="M1473.23 1975.74C1473.23 1977.34 1471.56 1978.65 1469.5 1978.65C1467.44 1978.65 1465.77 1977.34 1465.77 1975.74C1465.77 1974.13 1467.44 1972.82 1469.5 1972.82C1471.56 1972.82 1473.23 1974.13 1473.23 1975.74Z" fill="#D3D2F6"/>
<path d="M1495.58 1975.74C1495.58 1977.34 1493.91 1978.65 1491.85 1978.65C1489.8 1978.65 1488.13 1977.34 1488.13 1975.74C1488.13 1974.13 1489.8 1972.82 1491.85 1972.82C1493.91 1972.82 1495.58 1974.13 1495.58 1975.74Z" fill="#D3D2F6"/>
<path d="M1517.94 1975.74C1517.94 1977.34 1516.27 1978.65 1514.21 1978.65C1512.15 1978.65 1510.48 1977.34 1510.48 1975.74C1510.48 1974.13 1512.15 1972.82 1514.21 1972.82C1516.27 1972.82 1517.94 1974.13 1517.94 1975.74Z" fill="#D3D2F6"/>
<path d="M1540.29 1975.74C1540.29 1977.34 1538.62 1978.65 1536.56 1978.65C1534.51 1978.65 1532.84 1977.34 1532.84 1975.74C1532.84 1974.13 1534.51 1972.82 1536.56 1972.82C1538.62 1972.82 1540.29 1974.13 1540.29 1975.74Z" fill="#D3D2F6"/>
<path d="M1562.65 1975.74C1562.65 1977.34 1560.98 1978.65 1558.92 1978.65C1556.86 1978.65 1555.19 1977.34 1555.19 1975.74C1555.19 1974.13 1556.86 1972.82 1558.92 1972.82C1560.98 1972.82 1562.65 1974.13 1562.65 1975.74Z" fill="#D3D2F6"/>
<path d="M1585 1975.74C1585 1977.34 1583.33 1978.65 1581.27 1978.65C1579.22 1978.65 1577.55 1977.34 1577.55 1975.74C1577.55 1974.13 1579.22 1972.82 1581.27 1972.82C1583.33 1972.82 1585 1974.13 1585 1975.74Z" fill="#D3D2F6"/>
<path d="M1361.45 1993.21C1361.45 1994.81 1359.78 1996.12 1357.73 1996.12C1355.67 1996.12 1354 1994.81 1354 1993.21C1354 1991.6 1355.67 1990.29 1357.73 1990.29C1359.78 1990.29 1361.45 1991.6 1361.45 1993.21Z" fill="#D3D2F6"/>
<path d="M1383.81 1993.21C1383.81 1994.81 1382.14 1996.12 1380.08 1996.12C1378.02 1996.12 1376.35 1994.81 1376.35 1993.21C1376.35 1991.6 1378.02 1990.29 1380.08 1990.29C1382.14 1990.29 1383.81 1991.6 1383.81 1993.21Z" fill="#D3D2F6"/>
<path d="M1406.16 1993.21C1406.16 1994.81 1404.49 1996.12 1402.44 1996.12C1400.38 1996.12 1398.71 1994.81 1398.71 1993.21C1398.71 1991.6 1400.38 1990.29 1402.44 1990.29C1404.49 1990.29 1406.16 1991.6 1406.16 1993.21Z" fill="#D3D2F6"/>
<path d="M1428.52 1993.21C1428.52 1994.81 1426.85 1996.12 1424.79 1996.12C1422.73 1996.12 1421.06 1994.81 1421.06 1993.21C1421.06 1991.6 1422.73 1990.29 1424.79 1990.29C1426.85 1990.29 1428.52 1991.6 1428.52 1993.21Z" fill="#D3D2F6"/>
<path d="M1450.87 1993.21C1450.87 1994.81 1449.2 1996.12 1447.15 1996.12C1445.09 1996.12 1443.42 1994.81 1443.42 1993.21C1443.42 1991.6 1445.09 1990.29 1447.15 1990.29C1449.2 1990.29 1450.87 1991.6 1450.87 1993.21Z" fill="#D3D2F6"/>
<path d="M1473.23 1993.21C1473.23 1994.81 1471.56 1996.12 1469.5 1996.12C1467.44 1996.12 1465.77 1994.81 1465.77 1993.21C1465.77 1991.6 1467.44 1990.29 1469.5 1990.29C1471.56 1990.29 1473.23 1991.6 1473.23 1993.21Z" fill="#D3D2F6"/>
<path d="M1495.58 1993.21C1495.58 1994.81 1493.91 1996.12 1491.85 1996.12C1489.8 1996.12 1488.13 1994.81 1488.13 1993.21C1488.13 1991.6 1489.8 1990.29 1491.85 1990.29C1493.91 1990.29 1495.58 1991.6 1495.58 1993.21Z" fill="#D3D2F6"/>
<path d="M1517.94 1993.21C1517.94 1994.81 1516.27 1996.12 1514.21 1996.12C1512.15 1996.12 1510.48 1994.81 1510.48 1993.21C1510.48 1991.6 1512.15 1990.29 1514.21 1990.29C1516.27 1990.29 1517.94 1991.6 1517.94 1993.21Z" fill="#D3D2F6"/>
<path d="M1540.29 1993.21C1540.29 1994.81 1538.62 1996.12 1536.56 1996.12C1534.51 1996.12 1532.84 1994.81 1532.84 1993.21C1532.84 1991.6 1534.51 1990.29 1536.56 1990.29C1538.62 1990.29 1540.29 1991.6 1540.29 1993.21Z" fill="#D3D2F6"/>
<path d="M1562.65 1993.21C1562.65 1994.81 1560.98 1996.12 1558.92 1996.12C1556.86 1996.12 1555.19 1994.81 1555.19 1993.21C1555.19 1991.6 1556.86 1990.29 1558.92 1990.29C1560.98 1990.29 1562.65 1991.6 1562.65 1993.21Z" fill="#D3D2F6"/>
<path d="M1585 1993.21C1585 1994.81 1583.33 1996.12 1581.27 1996.12C1579.22 1996.12 1577.55 1994.81 1577.55 1993.21C1577.55 1991.6 1579.22 1990.29 1581.27 1990.29C1583.33 1990.29 1585 1991.6 1585 1993.21Z" fill="#D3D2F6"/>
<path d="M1361.45 2010.68C1361.45 2012.28 1359.78 2013.59 1357.73 2013.59C1355.67 2013.59 1354 2012.28 1354 2010.68C1354 2009.07 1355.67 2007.76 1357.73 2007.76C1359.78 2007.76 1361.45 2009.07 1361.45 2010.68Z" fill="#D3D2F6"/>
<path d="M1383.81 2010.68C1383.81 2012.28 1382.14 2013.59 1380.08 2013.59C1378.02 2013.59 1376.35 2012.28 1376.35 2010.68C1376.35 2009.07 1378.02 2007.76 1380.08 2007.76C1382.14 2007.76 1383.81 2009.07 1383.81 2010.68Z" fill="#D3D2F6"/>
<path d="M1406.16 2010.68C1406.16 2012.28 1404.49 2013.59 1402.44 2013.59C1400.38 2013.59 1398.71 2012.28 1398.71 2010.68C1398.71 2009.07 1400.38 2007.76 1402.44 2007.76C1404.49 2007.76 1406.16 2009.07 1406.16 2010.68Z" fill="#D3D2F6"/>
<path d="M1428.52 2010.68C1428.52 2012.28 1426.85 2013.59 1424.79 2013.59C1422.73 2013.59 1421.06 2012.28 1421.06 2010.68C1421.06 2009.07 1422.73 2007.76 1424.79 2007.76C1426.85 2007.76 1428.52 2009.07 1428.52 2010.68Z" fill="#D3D2F6"/>
<path d="M1450.87 2010.68C1450.87 2012.28 1449.2 2013.59 1447.15 2013.59C1445.09 2013.59 1443.42 2012.28 1443.42 2010.68C1443.42 2009.07 1445.09 2007.76 1447.15 2007.76C1449.2 2007.76 1450.87 2009.07 1450.87 2010.68Z" fill="#D3D2F6"/>
<path d="M1473.23 2010.68C1473.23 2012.28 1471.56 2013.59 1469.5 2013.59C1467.44 2013.59 1465.77 2012.28 1465.77 2010.68C1465.77 2009.07 1467.44 2007.76 1469.5 2007.76C1471.56 2007.76 1473.23 2009.07 1473.23 2010.68Z" fill="#D3D2F6"/>
<path d="M1495.58 2010.68C1495.58 2012.28 1493.91 2013.59 1491.85 2013.59C1489.8 2013.59 1488.13 2012.28 1488.13 2010.68C1488.13 2009.07 1489.8 2007.76 1491.85 2007.76C1493.91 2007.76 1495.58 2009.07 1495.58 2010.68Z" fill="#D3D2F6"/>
<path d="M1517.94 2010.68C1517.94 2012.28 1516.27 2013.59 1514.21 2013.59C1512.15 2013.59 1510.48 2012.28 1510.48 2010.68C1510.48 2009.07 1512.15 2007.76 1514.21 2007.76C1516.27 2007.76 1517.94 2009.07 1517.94 2010.68Z" fill="#D3D2F6"/>
<path d="M1540.29 2010.68C1540.29 2012.28 1538.62 2013.59 1536.56 2013.59C1534.51 2013.59 1532.84 2012.28 1532.84 2010.68C1532.84 2009.07 1534.51 2007.76 1536.56 2007.76C1538.62 2007.76 1540.29 2009.07 1540.29 2010.68Z" fill="#D3D2F6"/>
<path d="M1562.65 2010.68C1562.65 2012.28 1560.98 2013.59 1558.92 2013.59C1556.86 2013.59 1555.19 2012.28 1555.19 2010.68C1555.19 2009.07 1556.86 2007.76 1558.92 2007.76C1560.98 2007.76 1562.65 2009.07 1562.65 2010.68Z" fill="#D3D2F6"/>
<path d="M1585 2010.68C1585 2012.28 1583.33 2013.59 1581.27 2013.59C1579.22 2013.59 1577.55 2012.28 1577.55 2010.68C1577.55 2009.07 1579.22 2007.76 1581.27 2007.76C1583.33 2007.76 1585 2009.07 1585 2010.68Z" fill="#D3D2F6"/>
<path d="M1361.45 2028.15C1361.45 2029.76 1359.78 2031.06 1357.73 2031.06C1355.67 2031.06 1354 2029.76 1354 2028.15C1354 2026.54 1355.67 2025.24 1357.73 2025.24C1359.78 2025.24 1361.45 2026.54 1361.45 2028.15Z" fill="#D3D2F6"/>
<path d="M1383.81 2028.15C1383.81 2029.76 1382.14 2031.06 1380.08 2031.06C1378.02 2031.06 1376.35 2029.76 1376.35 2028.15C1376.35 2026.54 1378.02 2025.24 1380.08 2025.24C1382.14 2025.24 1383.81 2026.54 1383.81 2028.15Z" fill="#D3D2F6"/>
<path d="M1406.16 2028.15C1406.16 2029.76 1404.49 2031.06 1402.44 2031.06C1400.38 2031.06 1398.71 2029.76 1398.71 2028.15C1398.71 2026.54 1400.38 2025.24 1402.44 2025.24C1404.49 2025.24 1406.16 2026.54 1406.16 2028.15Z" fill="#D3D2F6"/>
<path d="M1428.52 2028.15C1428.52 2029.76 1426.85 2031.06 1424.79 2031.06C1422.73 2031.06 1421.06 2029.76 1421.06 2028.15C1421.06 2026.54 1422.73 2025.24 1424.79 2025.24C1426.85 2025.24 1428.52 2026.54 1428.52 2028.15Z" fill="#D3D2F6"/>
<path d="M1450.87 2028.15C1450.87 2029.76 1449.2 2031.06 1447.15 2031.06C1445.09 2031.06 1443.42 2029.76 1443.42 2028.15C1443.42 2026.54 1445.09 2025.24 1447.15 2025.24C1449.2 2025.24 1450.87 2026.54 1450.87 2028.15Z" fill="#D3D2F6"/>
<path d="M1473.23 2028.15C1473.23 2029.76 1471.56 2031.06 1469.5 2031.06C1467.44 2031.06 1465.77 2029.76 1465.77 2028.15C1465.77 2026.54 1467.44 2025.24 1469.5 2025.24C1471.56 2025.24 1473.23 2026.54 1473.23 2028.15Z" fill="#D3D2F6"/>
<path d="M1495.58 2028.15C1495.58 2029.76 1493.91 2031.06 1491.85 2031.06C1489.8 2031.06 1488.13 2029.76 1488.13 2028.15C1488.13 2026.54 1489.8 2025.24 1491.85 2025.24C1493.91 2025.24 1495.58 2026.54 1495.58 2028.15Z" fill="#D3D2F6"/>
<path d="M1517.94 2028.15C1517.94 2029.76 1516.27 2031.06 1514.21 2031.06C1512.15 2031.06 1510.48 2029.76 1510.48 2028.15C1510.48 2026.54 1512.15 2025.24 1514.21 2025.24C1516.27 2025.24 1517.94 2026.54 1517.94 2028.15Z" fill="#D3D2F6"/>
<path d="M1540.29 2028.15C1540.29 2029.76 1538.62 2031.06 1536.56 2031.06C1534.51 2031.06 1532.84 2029.76 1532.84 2028.15C1532.84 2026.54 1534.51 2025.24 1536.56 2025.24C1538.62 2025.24 1540.29 2026.54 1540.29 2028.15Z" fill="#D3D2F6"/>
<path d="M1562.65 2028.15C1562.65 2029.76 1560.98 2031.06 1558.92 2031.06C1556.86 2031.06 1555.19 2029.76 1555.19 2028.15C1555.19 2026.54 1556.86 2025.24 1558.92 2025.24C1560.98 2025.24 1562.65 2026.54 1562.65 2028.15Z" fill="#D3D2F6"/>
<path d="M1585 2028.15C1585 2029.76 1583.33 2031.06 1581.27 2031.06C1579.22 2031.06 1577.55 2029.76 1577.55 2028.15C1577.55 2026.54 1579.22 2025.24 1581.27 2025.24C1583.33 2025.24 1585 2026.54 1585 2028.15Z" fill="#D3D2F6"/>
<path d="M1361.45 2045.62C1361.45 2047.23 1359.78 2048.53 1357.73 2048.53C1355.67 2048.53 1354 2047.23 1354 2045.62C1354 2044.01 1355.67 2042.71 1357.73 2042.71C1359.78 2042.71 1361.45 2044.01 1361.45 2045.62Z" fill="#D3D2F6"/>
<path d="M1383.81 2045.62C1383.81 2047.23 1382.14 2048.53 1380.08 2048.53C1378.02 2048.53 1376.35 2047.23 1376.35 2045.62C1376.35 2044.01 1378.02 2042.71 1380.08 2042.71C1382.14 2042.71 1383.81 2044.01 1383.81 2045.62Z" fill="#D3D2F6"/>
<path d="M1406.16 2045.62C1406.16 2047.23 1404.49 2048.53 1402.44 2048.53C1400.38 2048.53 1398.71 2047.23 1398.71 2045.62C1398.71 2044.01 1400.38 2042.71 1402.44 2042.71C1404.49 2042.71 1406.16 2044.01 1406.16 2045.62Z" fill="#D3D2F6"/>
<path d="M1428.52 2045.62C1428.52 2047.23 1426.85 2048.53 1424.79 2048.53C1422.73 2048.53 1421.06 2047.23 1421.06 2045.62C1421.06 2044.01 1422.73 2042.71 1424.79 2042.71C1426.85 2042.71 1428.52 2044.01 1428.52 2045.62Z" fill="#D3D2F6"/>
<path d="M1450.87 2045.62C1450.87 2047.23 1449.2 2048.53 1447.15 2048.53C1445.09 2048.53 1443.42 2047.23 1443.42 2045.62C1443.42 2044.01 1445.09 2042.71 1447.15 2042.71C1449.2 2042.71 1450.87 2044.01 1450.87 2045.62Z" fill="#D3D2F6"/>
<path d="M1473.23 2045.62C1473.23 2047.23 1471.56 2048.53 1469.5 2048.53C1467.44 2048.53 1465.77 2047.23 1465.77 2045.62C1465.77 2044.01 1467.44 2042.71 1469.5 2042.71C1471.56 2042.71 1473.23 2044.01 1473.23 2045.62Z" fill="#D3D2F6"/>
<path d="M1495.58 2045.62C1495.58 2047.23 1493.91 2048.53 1491.85 2048.53C1489.8 2048.53 1488.13 2047.23 1488.13 2045.62C1488.13 2044.01 1489.8 2042.71 1491.85 2042.71C1493.91 2042.71 1495.58 2044.01 1495.58 2045.62Z" fill="#D3D2F6"/>
<path d="M1517.94 2045.62C1517.94 2047.23 1516.27 2048.53 1514.21 2048.53C1512.15 2048.53 1510.48 2047.23 1510.48 2045.62C1510.48 2044.01 1512.15 2042.71 1514.21 2042.71C1516.27 2042.71 1517.94 2044.01 1517.94 2045.62Z" fill="#D3D2F6"/>
<path d="M1540.29 2045.62C1540.29 2047.23 1538.62 2048.53 1536.56 2048.53C1534.51 2048.53 1532.84 2047.23 1532.84 2045.62C1532.84 2044.01 1534.51 2042.71 1536.56 2042.71C1538.62 2042.71 1540.29 2044.01 1540.29 2045.62Z" fill="#D3D2F6"/>
<path d="M1562.65 2045.62C1562.65 2047.23 1560.98 2048.53 1558.92 2048.53C1556.86 2048.53 1555.19 2047.23 1555.19 2045.62C1555.19 2044.01 1556.86 2042.71 1558.92 2042.71C1560.98 2042.71 1562.65 2044.01 1562.65 2045.62Z" fill="#D3D2F6"/>
<path d="M1585 2045.62C1585 2047.23 1583.33 2048.53 1581.27 2048.53C1579.22 2048.53 1577.55 2047.23 1577.55 2045.62C1577.55 2044.01 1579.22 2042.71 1581.27 2042.71C1583.33 2042.71 1585 2044.01 1585 2045.62Z" fill="#D3D2F6"/>
<path d="M1361.45 2063.09C1361.45 2064.7 1359.78 2066 1357.73 2066C1355.67 2066 1354 2064.7 1354 2063.09C1354 2061.48 1355.67 2060.18 1357.73 2060.18C1359.78 2060.18 1361.45 2061.48 1361.45 2063.09Z" fill="#D3D2F6"/>
<path d="M1383.81 2063.09C1383.81 2064.7 1382.14 2066 1380.08 2066C1378.02 2066 1376.35 2064.7 1376.35 2063.09C1376.35 2061.48 1378.02 2060.18 1380.08 2060.18C1382.14 2060.18 1383.81 2061.48 1383.81 2063.09Z" fill="#D3D2F6"/>
<path d="M1406.16 2063.09C1406.16 2064.7 1404.49 2066 1402.44 2066C1400.38 2066 1398.71 2064.7 1398.71 2063.09C1398.71 2061.48 1400.38 2060.18 1402.44 2060.18C1404.49 2060.18 1406.16 2061.48 1406.16 2063.09Z" fill="#D3D2F6"/>
<path d="M1428.52 2063.09C1428.52 2064.7 1426.85 2066 1424.79 2066C1422.73 2066 1421.06 2064.7 1421.06 2063.09C1421.06 2061.48 1422.73 2060.18 1424.79 2060.18C1426.85 2060.18 1428.52 2061.48 1428.52 2063.09Z" fill="#D3D2F6"/>
<path d="M1450.87 2063.09C1450.87 2064.7 1449.2 2066 1447.15 2066C1445.09 2066 1443.42 2064.7 1443.42 2063.09C1443.42 2061.48 1445.09 2060.18 1447.15 2060.18C1449.2 2060.18 1450.87 2061.48 1450.87 2063.09Z" fill="#D3D2F6"/>
<path d="M1473.23 2063.09C1473.23 2064.7 1471.56 2066 1469.5 2066C1467.44 2066 1465.77 2064.7 1465.77 2063.09C1465.77 2061.48 1467.44 2060.18 1469.5 2060.18C1471.56 2060.18 1473.23 2061.48 1473.23 2063.09Z" fill="#D3D2F6"/>
<path d="M1495.58 2063.09C1495.58 2064.7 1493.91 2066 1491.85 2066C1489.8 2066 1488.13 2064.7 1488.13 2063.09C1488.13 2061.48 1489.8 2060.18 1491.85 2060.18C1493.91 2060.18 1495.58 2061.48 1495.58 2063.09Z" fill="#D3D2F6"/>
<path d="M1517.94 2063.09C1517.94 2064.7 1516.27 2066 1514.21 2066C1512.15 2066 1510.48 2064.7 1510.48 2063.09C1510.48 2061.48 1512.15 2060.18 1514.21 2060.18C1516.27 2060.18 1517.94 2061.48 1517.94 2063.09Z" fill="#D3D2F6"/>
<path d="M1540.29 2063.09C1540.29 2064.7 1538.62 2066 1536.56 2066C1534.51 2066 1532.84 2064.7 1532.84 2063.09C1532.84 2061.48 1534.51 2060.18 1536.56 2060.18C1538.62 2060.18 1540.29 2061.48 1540.29 2063.09Z" fill="#D3D2F6"/>
<path d="M1562.65 2063.09C1562.65 2064.7 1560.98 2066 1558.92 2066C1556.86 2066 1555.19 2064.7 1555.19 2063.09C1555.19 2061.48 1556.86 2060.18 1558.92 2060.18C1560.98 2060.18 1562.65 2061.48 1562.65 2063.09Z" fill="#D3D2F6"/>
<path d="M1585 2063.09C1585 2064.7 1583.33 2066 1581.27 2066C1579.22 2066 1577.55 2064.7 1577.55 2063.09C1577.55 2061.48 1579.22 2060.18 1581.27 2060.18C1583.33 2060.18 1585 2061.48 1585 2063.09Z" fill="#D3D2F6"/>
</g>
<defs>
<clipPath id="clip0_2011_672">
<rect width="1920" height="2122" fill="white"/>
</clipPath>
</defs>
</svg>
