<svg width="1920" height="1465" viewBox="0 0 1920 1465" fill="none" xmlns="http://www.w3.org/2000/svg">
<circle cx="405" cy="920" r="200" fill="#EAEAF7"/>
<path d="M108.806 89.4118C108.806 91.8483 106.163 93.8235 102.903 93.8235C99.643 93.8235 97 91.8483 97 89.4118C97 86.9752 99.643 85 102.903 85C106.163 85 108.806 86.9752 108.806 89.4118Z" fill="#D3D2F6"/>
<path d="M144.226 89.4118C144.226 91.8483 141.583 93.8235 138.323 93.8235C135.062 93.8235 132.419 91.8483 132.419 89.4118C132.419 86.9752 135.062 85 138.323 85C141.583 85 144.226 86.9752 144.226 89.4118Z" fill="#D3D2F6"/>
<path d="M179.645 89.4118C179.645 91.8483 177.002 93.8235 173.742 93.8235C170.482 93.8235 167.839 91.8483 167.839 89.4118C167.839 86.9752 170.482 85 173.742 85C177.002 85 179.645 86.9752 179.645 89.4118Z" fill="#D3D2F6"/>
<path d="M215.065 89.4118C215.065 91.8483 212.422 93.8235 209.161 93.8235C205.901 93.8235 203.258 91.8483 203.258 89.4118C203.258 86.9752 205.901 85 209.161 85C212.422 85 215.065 86.9752 215.065 89.4118Z" fill="#D3D2F6"/>
<path d="M250.484 89.4118C250.484 91.8483 247.841 93.8235 244.581 93.8235C241.32 93.8235 238.677 91.8483 238.677 89.4118C238.677 86.9752 241.32 85 244.581 85C247.841 85 250.484 86.9752 250.484 89.4118Z" fill="#D3D2F6"/>
<path d="M285.903 89.4118C285.903 91.8483 283.26 93.8235 280 93.8235C276.74 93.8235 274.097 91.8483 274.097 89.4118C274.097 86.9752 276.74 85 280 85C283.26 85 285.903 86.9752 285.903 89.4118Z" fill="#D3D2F6"/>
<path d="M321.323 89.4118C321.323 91.8483 318.68 93.8235 315.419 93.8235C312.159 93.8235 309.516 91.8483 309.516 89.4118C309.516 86.9752 312.159 85 315.419 85C318.68 85 321.323 86.9752 321.323 89.4118Z" fill="#D3D2F6"/>
<path d="M356.742 89.4118C356.742 91.8483 354.099 93.8235 350.839 93.8235C347.578 93.8235 344.935 91.8483 344.935 89.4118C344.935 86.9752 347.578 85 350.839 85C354.099 85 356.742 86.9752 356.742 89.4118Z" fill="#D3D2F6"/>
<path d="M392.161 89.4118C392.161 91.8483 389.518 93.8235 386.258 93.8235C382.998 93.8235 380.355 91.8483 380.355 89.4118C380.355 86.9752 382.998 85 386.258 85C389.518 85 392.161 86.9752 392.161 89.4118Z" fill="#D3D2F6"/>
<path d="M427.581 89.4118C427.581 91.8483 424.938 93.8235 421.677 93.8235C418.417 93.8235 415.774 91.8483 415.774 89.4118C415.774 86.9752 418.417 85 421.677 85C424.938 85 427.581 86.9752 427.581 89.4118Z" fill="#D3D2F6"/>
<path d="M463 89.4118C463 91.8483 460.357 93.8235 457.097 93.8235C453.836 93.8235 451.194 91.8483 451.194 89.4118C451.194 86.9752 453.836 85 457.097 85C460.357 85 463 86.9752 463 89.4118Z" fill="#D3D2F6"/>
<path d="M108.806 115.882C108.806 118.319 106.163 120.294 102.903 120.294C99.643 120.294 97 118.319 97 115.882C97 113.446 99.643 111.471 102.903 111.471C106.163 111.471 108.806 113.446 108.806 115.882Z" fill="#D3D2F6"/>
<path d="M144.226 115.882C144.226 118.319 141.583 120.294 138.323 120.294C135.062 120.294 132.419 118.319 132.419 115.882C132.419 113.446 135.062 111.471 138.323 111.471C141.583 111.471 144.226 113.446 144.226 115.882Z" fill="#D3D2F6"/>
<path d="M179.645 115.882C179.645 118.319 177.002 120.294 173.742 120.294C170.482 120.294 167.839 118.319 167.839 115.882C167.839 113.446 170.482 111.471 173.742 111.471C177.002 111.471 179.645 113.446 179.645 115.882Z" fill="#D3D2F6"/>
<path d="M215.065 115.882C215.065 118.319 212.422 120.294 209.161 120.294C205.901 120.294 203.258 118.319 203.258 115.882C203.258 113.446 205.901 111.471 209.161 111.471C212.422 111.471 215.065 113.446 215.065 115.882Z" fill="#D3D2F6"/>
<path d="M250.484 115.882C250.484 118.319 247.841 120.294 244.581 120.294C241.32 120.294 238.677 118.319 238.677 115.882C238.677 113.446 241.32 111.471 244.581 111.471C247.841 111.471 250.484 113.446 250.484 115.882Z" fill="#D3D2F6"/>
<path d="M285.903 115.882C285.903 118.319 283.26 120.294 280 120.294C276.74 120.294 274.097 118.319 274.097 115.882C274.097 113.446 276.74 111.471 280 111.471C283.26 111.471 285.903 113.446 285.903 115.882Z" fill="#D3D2F6"/>
<path d="M321.323 115.882C321.323 118.319 318.68 120.294 315.419 120.294C312.159 120.294 309.516 118.319 309.516 115.882C309.516 113.446 312.159 111.471 315.419 111.471C318.68 111.471 321.323 113.446 321.323 115.882Z" fill="#D3D2F6"/>
<path d="M356.742 115.882C356.742 118.319 354.099 120.294 350.839 120.294C347.578 120.294 344.935 118.319 344.935 115.882C344.935 113.446 347.578 111.471 350.839 111.471C354.099 111.471 356.742 113.446 356.742 115.882Z" fill="#D3D2F6"/>
<path d="M392.161 115.882C392.161 118.319 389.518 120.294 386.258 120.294C382.998 120.294 380.355 118.319 380.355 115.882C380.355 113.446 382.998 111.471 386.258 111.471C389.518 111.471 392.161 113.446 392.161 115.882Z" fill="#D3D2F6"/>
<path d="M427.581 115.882C427.581 118.319 424.938 120.294 421.677 120.294C418.417 120.294 415.774 118.319 415.774 115.882C415.774 113.446 418.417 111.471 421.677 111.471C424.938 111.471 427.581 113.446 427.581 115.882Z" fill="#D3D2F6"/>
<path d="M463 115.882C463 118.319 460.357 120.294 457.097 120.294C453.836 120.294 451.194 118.319 451.194 115.882C451.194 113.446 453.836 111.471 457.097 111.471C460.357 111.471 463 113.446 463 115.882Z" fill="#D3D2F6"/>
<path d="M108.806 142.353C108.806 144.789 106.163 146.765 102.903 146.765C99.643 146.765 97 144.789 97 142.353C97 139.916 99.643 137.941 102.903 137.941C106.163 137.941 108.806 139.916 108.806 142.353Z" fill="#D3D2F6"/>
<path d="M144.226 142.353C144.226 144.789 141.583 146.765 138.323 146.765C135.062 146.765 132.419 144.789 132.419 142.353C132.419 139.916 135.062 137.941 138.323 137.941C141.583 137.941 144.226 139.916 144.226 142.353Z" fill="#D3D2F6"/>
<path d="M179.645 142.353C179.645 144.789 177.002 146.765 173.742 146.765C170.482 146.765 167.839 144.789 167.839 142.353C167.839 139.916 170.482 137.941 173.742 137.941C177.002 137.941 179.645 139.916 179.645 142.353Z" fill="#D3D2F6"/>
<path d="M215.065 142.353C215.065 144.789 212.422 146.765 209.161 146.765C205.901 146.765 203.258 144.789 203.258 142.353C203.258 139.916 205.901 137.941 209.161 137.941C212.422 137.941 215.065 139.916 215.065 142.353Z" fill="#D3D2F6"/>
<path d="M250.484 142.353C250.484 144.789 247.841 146.765 244.581 146.765C241.32 146.765 238.677 144.789 238.677 142.353C238.677 139.916 241.32 137.941 244.581 137.941C247.841 137.941 250.484 139.916 250.484 142.353Z" fill="#D3D2F6"/>
<path d="M285.903 142.353C285.903 144.789 283.26 146.765 280 146.765C276.74 146.765 274.097 144.789 274.097 142.353C274.097 139.916 276.74 137.941 280 137.941C283.26 137.941 285.903 139.916 285.903 142.353Z" fill="#D3D2F6"/>
<path d="M321.323 142.353C321.323 144.789 318.68 146.765 315.419 146.765C312.159 146.765 309.516 144.789 309.516 142.353C309.516 139.916 312.159 137.941 315.419 137.941C318.68 137.941 321.323 139.916 321.323 142.353Z" fill="#D3D2F6"/>
<path d="M356.742 142.353C356.742 144.789 354.099 146.765 350.839 146.765C347.578 146.765 344.935 144.789 344.935 142.353C344.935 139.916 347.578 137.941 350.839 137.941C354.099 137.941 356.742 139.916 356.742 142.353Z" fill="#D3D2F6"/>
<path d="M392.161 142.353C392.161 144.789 389.518 146.765 386.258 146.765C382.998 146.765 380.355 144.789 380.355 142.353C380.355 139.916 382.998 137.941 386.258 137.941C389.518 137.941 392.161 139.916 392.161 142.353Z" fill="#D3D2F6"/>
<path d="M427.581 142.353C427.581 144.789 424.938 146.765 421.677 146.765C418.417 146.765 415.774 144.789 415.774 142.353C415.774 139.916 418.417 137.941 421.677 137.941C424.938 137.941 427.581 139.916 427.581 142.353Z" fill="#D3D2F6"/>
<path d="M463 142.353C463 144.789 460.357 146.765 457.097 146.765C453.836 146.765 451.194 144.789 451.194 142.353C451.194 139.916 453.836 137.941 457.097 137.941C460.357 137.941 463 139.916 463 142.353Z" fill="#D3D2F6"/>
<path d="M108.806 168.824C108.806 171.26 106.163 173.235 102.903 173.235C99.643 173.235 97 171.26 97 168.824C97 166.387 99.643 164.412 102.903 164.412C106.163 164.412 108.806 166.387 108.806 168.824Z" fill="#D3D2F6"/>
<path d="M144.226 168.824C144.226 171.26 141.583 173.235 138.323 173.235C135.062 173.235 132.419 171.26 132.419 168.824C132.419 166.387 135.062 164.412 138.323 164.412C141.583 164.412 144.226 166.387 144.226 168.824Z" fill="#D3D2F6"/>
<path d="M179.645 168.824C179.645 171.26 177.002 173.235 173.742 173.235C170.482 173.235 167.839 171.26 167.839 168.824C167.839 166.387 170.482 164.412 173.742 164.412C177.002 164.412 179.645 166.387 179.645 168.824Z" fill="#D3D2F6"/>
<path d="M215.065 168.824C215.065 171.26 212.422 173.235 209.161 173.235C205.901 173.235 203.258 171.26 203.258 168.824C203.258 166.387 205.901 164.412 209.161 164.412C212.422 164.412 215.065 166.387 215.065 168.824Z" fill="#D3D2F6"/>
<path d="M250.484 168.824C250.484 171.26 247.841 173.235 244.581 173.235C241.32 173.235 238.677 171.26 238.677 168.824C238.677 166.387 241.32 164.412 244.581 164.412C247.841 164.412 250.484 166.387 250.484 168.824Z" fill="#D3D2F6"/>
<path d="M285.903 168.824C285.903 171.26 283.26 173.235 280 173.235C276.74 173.235 274.097 171.26 274.097 168.824C274.097 166.387 276.74 164.412 280 164.412C283.26 164.412 285.903 166.387 285.903 168.824Z" fill="#D3D2F6"/>
<path d="M321.323 168.824C321.323 171.26 318.68 173.235 315.419 173.235C312.159 173.235 309.516 171.26 309.516 168.824C309.516 166.387 312.159 164.412 315.419 164.412C318.68 164.412 321.323 166.387 321.323 168.824Z" fill="#D3D2F6"/>
<path d="M356.742 168.824C356.742 171.26 354.099 173.235 350.839 173.235C347.578 173.235 344.935 171.26 344.935 168.824C344.935 166.387 347.578 164.412 350.839 164.412C354.099 164.412 356.742 166.387 356.742 168.824Z" fill="#D3D2F6"/>
<path d="M392.161 168.824C392.161 171.26 389.518 173.235 386.258 173.235C382.998 173.235 380.355 171.26 380.355 168.824C380.355 166.387 382.998 164.412 386.258 164.412C389.518 164.412 392.161 166.387 392.161 168.824Z" fill="#D3D2F6"/>
<path d="M427.581 168.824C427.581 171.26 424.938 173.235 421.677 173.235C418.417 173.235 415.774 171.26 415.774 168.824C415.774 166.387 418.417 164.412 421.677 164.412C424.938 164.412 427.581 166.387 427.581 168.824Z" fill="#D3D2F6"/>
<path d="M463 168.824C463 171.26 460.357 173.235 457.097 173.235C453.836 173.235 451.194 171.26 451.194 168.824C451.194 166.387 453.836 164.412 457.097 164.412C460.357 164.412 463 166.387 463 168.824Z" fill="#D3D2F6"/>
<path d="M108.806 195.294C108.806 197.731 106.163 199.706 102.903 199.706C99.643 199.706 97 197.731 97 195.294C97 192.858 99.643 190.882 102.903 190.882C106.163 190.882 108.806 192.858 108.806 195.294Z" fill="#D3D2F6"/>
<path d="M144.226 195.294C144.226 197.731 141.583 199.706 138.323 199.706C135.062 199.706 132.419 197.731 132.419 195.294C132.419 192.858 135.062 190.882 138.323 190.882C141.583 190.882 144.226 192.858 144.226 195.294Z" fill="#D3D2F6"/>
<path d="M179.645 195.294C179.645 197.731 177.002 199.706 173.742 199.706C170.482 199.706 167.839 197.731 167.839 195.294C167.839 192.858 170.482 190.882 173.742 190.882C177.002 190.882 179.645 192.858 179.645 195.294Z" fill="#D3D2F6"/>
<path d="M215.065 195.294C215.065 197.731 212.422 199.706 209.161 199.706C205.901 199.706 203.258 197.731 203.258 195.294C203.258 192.858 205.901 190.882 209.161 190.882C212.422 190.882 215.065 192.858 215.065 195.294Z" fill="#D3D2F6"/>
<path d="M250.484 195.294C250.484 197.731 247.841 199.706 244.581 199.706C241.32 199.706 238.677 197.731 238.677 195.294C238.677 192.858 241.32 190.882 244.581 190.882C247.841 190.882 250.484 192.858 250.484 195.294Z" fill="#D3D2F6"/>
<path d="M285.903 195.294C285.903 197.731 283.26 199.706 280 199.706C276.74 199.706 274.097 197.731 274.097 195.294C274.097 192.858 276.74 190.882 280 190.882C283.26 190.882 285.903 192.858 285.903 195.294Z" fill="#D3D2F6"/>
<path d="M321.323 195.294C321.323 197.731 318.68 199.706 315.419 199.706C312.159 199.706 309.516 197.731 309.516 195.294C309.516 192.858 312.159 190.882 315.419 190.882C318.68 190.882 321.323 192.858 321.323 195.294Z" fill="#D3D2F6"/>
<path d="M356.742 195.294C356.742 197.731 354.099 199.706 350.839 199.706C347.578 199.706 344.935 197.731 344.935 195.294C344.935 192.858 347.578 190.882 350.839 190.882C354.099 190.882 356.742 192.858 356.742 195.294Z" fill="#D3D2F6"/>
<path d="M392.161 195.294C392.161 197.731 389.518 199.706 386.258 199.706C382.998 199.706 380.355 197.731 380.355 195.294C380.355 192.858 382.998 190.882 386.258 190.882C389.518 190.882 392.161 192.858 392.161 195.294Z" fill="#D3D2F6"/>
<path d="M427.581 195.294C427.581 197.731 424.938 199.706 421.677 199.706C418.417 199.706 415.774 197.731 415.774 195.294C415.774 192.858 418.417 190.882 421.677 190.882C424.938 190.882 427.581 192.858 427.581 195.294Z" fill="#D3D2F6"/>
<path d="M463 195.294C463 197.731 460.357 199.706 457.097 199.706C453.836 199.706 451.194 197.731 451.194 195.294C451.194 192.858 453.836 190.882 457.097 190.882C460.357 190.882 463 192.858 463 195.294Z" fill="#D3D2F6"/>
<path d="M108.806 221.765C108.806 224.201 106.163 226.176 102.903 226.176C99.643 226.176 97 224.201 97 221.765C97 219.328 99.643 217.353 102.903 217.353C106.163 217.353 108.806 219.328 108.806 221.765Z" fill="#D3D2F6"/>
<path d="M144.226 221.765C144.226 224.201 141.583 226.176 138.323 226.176C135.062 226.176 132.419 224.201 132.419 221.765C132.419 219.328 135.062 217.353 138.323 217.353C141.583 217.353 144.226 219.328 144.226 221.765Z" fill="#D3D2F6"/>
<path d="M179.645 221.765C179.645 224.201 177.002 226.176 173.742 226.176C170.482 226.176 167.839 224.201 167.839 221.765C167.839 219.328 170.482 217.353 173.742 217.353C177.002 217.353 179.645 219.328 179.645 221.765Z" fill="#D3D2F6"/>
<path d="M215.065 221.765C215.065 224.201 212.422 226.176 209.161 226.176C205.901 226.176 203.258 224.201 203.258 221.765C203.258 219.328 205.901 217.353 209.161 217.353C212.422 217.353 215.065 219.328 215.065 221.765Z" fill="#D3D2F6"/>
<path d="M250.484 221.765C250.484 224.201 247.841 226.176 244.581 226.176C241.32 226.176 238.677 224.201 238.677 221.765C238.677 219.328 241.32 217.353 244.581 217.353C247.841 217.353 250.484 219.328 250.484 221.765Z" fill="#D3D2F6"/>
<path d="M285.903 221.765C285.903 224.201 283.26 226.176 280 226.176C276.74 226.176 274.097 224.201 274.097 221.765C274.097 219.328 276.74 217.353 280 217.353C283.26 217.353 285.903 219.328 285.903 221.765Z" fill="#D3D2F6"/>
<path d="M321.323 221.765C321.323 224.201 318.68 226.176 315.419 226.176C312.159 226.176 309.516 224.201 309.516 221.765C309.516 219.328 312.159 217.353 315.419 217.353C318.68 217.353 321.323 219.328 321.323 221.765Z" fill="#D3D2F6"/>
<path d="M356.742 221.765C356.742 224.201 354.099 226.176 350.839 226.176C347.578 226.176 344.935 224.201 344.935 221.765C344.935 219.328 347.578 217.353 350.839 217.353C354.099 217.353 356.742 219.328 356.742 221.765Z" fill="#D3D2F6"/>
<path d="M392.161 221.765C392.161 224.201 389.518 226.176 386.258 226.176C382.998 226.176 380.355 224.201 380.355 221.765C380.355 219.328 382.998 217.353 386.258 217.353C389.518 217.353 392.161 219.328 392.161 221.765Z" fill="#D3D2F6"/>
<path d="M427.581 221.765C427.581 224.201 424.938 226.176 421.677 226.176C418.417 226.176 415.774 224.201 415.774 221.765C415.774 219.328 418.417 217.353 421.677 217.353C424.938 217.353 427.581 219.328 427.581 221.765Z" fill="#D3D2F6"/>
<path d="M463 221.765C463 224.201 460.357 226.176 457.097 226.176C453.836 226.176 451.194 224.201 451.194 221.765C451.194 219.328 453.836 217.353 457.097 217.353C460.357 217.353 463 219.328 463 221.765Z" fill="#D3D2F6"/>
<path d="M108.806 248.235C108.806 250.672 106.163 252.647 102.903 252.647C99.643 252.647 97 250.672 97 248.235C97 245.799 99.643 243.824 102.903 243.824C106.163 243.824 108.806 245.799 108.806 248.235Z" fill="#D3D2F6"/>
<path d="M144.226 248.235C144.226 250.672 141.583 252.647 138.323 252.647C135.062 252.647 132.419 250.672 132.419 248.235C132.419 245.799 135.062 243.824 138.323 243.824C141.583 243.824 144.226 245.799 144.226 248.235Z" fill="#D3D2F6"/>
<path d="M179.645 248.235C179.645 250.672 177.002 252.647 173.742 252.647C170.482 252.647 167.839 250.672 167.839 248.235C167.839 245.799 170.482 243.824 173.742 243.824C177.002 243.824 179.645 245.799 179.645 248.235Z" fill="#D3D2F6"/>
<path d="M215.065 248.235C215.065 250.672 212.422 252.647 209.161 252.647C205.901 252.647 203.258 250.672 203.258 248.235C203.258 245.799 205.901 243.824 209.161 243.824C212.422 243.824 215.065 245.799 215.065 248.235Z" fill="#D3D2F6"/>
<path d="M250.484 248.235C250.484 250.672 247.841 252.647 244.581 252.647C241.32 252.647 238.677 250.672 238.677 248.235C238.677 245.799 241.32 243.824 244.581 243.824C247.841 243.824 250.484 245.799 250.484 248.235Z" fill="#D3D2F6"/>
<path d="M285.903 248.235C285.903 250.672 283.26 252.647 280 252.647C276.74 252.647 274.097 250.672 274.097 248.235C274.097 245.799 276.74 243.824 280 243.824C283.26 243.824 285.903 245.799 285.903 248.235Z" fill="#D3D2F6"/>
<path d="M321.323 248.235C321.323 250.672 318.68 252.647 315.419 252.647C312.159 252.647 309.516 250.672 309.516 248.235C309.516 245.799 312.159 243.824 315.419 243.824C318.68 243.824 321.323 245.799 321.323 248.235Z" fill="#D3D2F6"/>
<path d="M356.742 248.235C356.742 250.672 354.099 252.647 350.839 252.647C347.578 252.647 344.935 250.672 344.935 248.235C344.935 245.799 347.578 243.824 350.839 243.824C354.099 243.824 356.742 245.799 356.742 248.235Z" fill="#D3D2F6"/>
<path d="M392.161 248.235C392.161 250.672 389.518 252.647 386.258 252.647C382.998 252.647 380.355 250.672 380.355 248.235C380.355 245.799 382.998 243.824 386.258 243.824C389.518 243.824 392.161 245.799 392.161 248.235Z" fill="#D3D2F6"/>
<path d="M427.581 248.235C427.581 250.672 424.938 252.647 421.677 252.647C418.417 252.647 415.774 250.672 415.774 248.235C415.774 245.799 418.417 243.824 421.677 243.824C424.938 243.824 427.581 245.799 427.581 248.235Z" fill="#D3D2F6"/>
<path d="M463 248.235C463 250.672 460.357 252.647 457.097 252.647C453.836 252.647 451.194 250.672 451.194 248.235C451.194 245.799 453.836 243.824 457.097 243.824C460.357 243.824 463 245.799 463 248.235Z" fill="#D3D2F6"/>
<path d="M108.806 274.706C108.806 277.142 106.163 279.118 102.903 279.118C99.643 279.118 97 277.142 97 274.706C97 272.269 99.643 270.294 102.903 270.294C106.163 270.294 108.806 272.269 108.806 274.706Z" fill="#D3D2F6"/>
<path d="M144.226 274.706C144.226 277.142 141.583 279.118 138.323 279.118C135.062 279.118 132.419 277.142 132.419 274.706C132.419 272.269 135.062 270.294 138.323 270.294C141.583 270.294 144.226 272.269 144.226 274.706Z" fill="#D3D2F6"/>
<path d="M179.645 274.706C179.645 277.142 177.002 279.118 173.742 279.118C170.482 279.118 167.839 277.142 167.839 274.706C167.839 272.269 170.482 270.294 173.742 270.294C177.002 270.294 179.645 272.269 179.645 274.706Z" fill="#D3D2F6"/>
<path d="M215.065 274.706C215.065 277.142 212.422 279.118 209.161 279.118C205.901 279.118 203.258 277.142 203.258 274.706C203.258 272.269 205.901 270.294 209.161 270.294C212.422 270.294 215.065 272.269 215.065 274.706Z" fill="#D3D2F6"/>
<path d="M250.484 274.706C250.484 277.142 247.841 279.118 244.581 279.118C241.32 279.118 238.677 277.142 238.677 274.706C238.677 272.269 241.32 270.294 244.581 270.294C247.841 270.294 250.484 272.269 250.484 274.706Z" fill="#D3D2F6"/>
<path d="M285.903 274.706C285.903 277.142 283.26 279.118 280 279.118C276.74 279.118 274.097 277.142 274.097 274.706C274.097 272.269 276.74 270.294 280 270.294C283.26 270.294 285.903 272.269 285.903 274.706Z" fill="#D3D2F6"/>
<path d="M321.323 274.706C321.323 277.142 318.68 279.118 315.419 279.118C312.159 279.118 309.516 277.142 309.516 274.706C309.516 272.269 312.159 270.294 315.419 270.294C318.68 270.294 321.323 272.269 321.323 274.706Z" fill="#D3D2F6"/>
<path d="M356.742 274.706C356.742 277.142 354.099 279.118 350.839 279.118C347.578 279.118 344.935 277.142 344.935 274.706C344.935 272.269 347.578 270.294 350.839 270.294C354.099 270.294 356.742 272.269 356.742 274.706Z" fill="#D3D2F6"/>
<path d="M392.161 274.706C392.161 277.142 389.518 279.118 386.258 279.118C382.998 279.118 380.355 277.142 380.355 274.706C380.355 272.269 382.998 270.294 386.258 270.294C389.518 270.294 392.161 272.269 392.161 274.706Z" fill="#D3D2F6"/>
<path d="M427.581 274.706C427.581 277.142 424.938 279.118 421.677 279.118C418.417 279.118 415.774 277.142 415.774 274.706C415.774 272.269 418.417 270.294 421.677 270.294C424.938 270.294 427.581 272.269 427.581 274.706Z" fill="#D3D2F6"/>
<path d="M463 274.706C463 277.142 460.357 279.118 457.097 279.118C453.836 279.118 451.194 277.142 451.194 274.706C451.194 272.269 453.836 270.294 457.097 270.294C460.357 270.294 463 272.269 463 274.706Z" fill="#D3D2F6"/>
<path d="M108.806 301.176C108.806 303.613 106.163 305.588 102.903 305.588C99.643 305.588 97 303.613 97 301.176C97 298.74 99.643 296.765 102.903 296.765C106.163 296.765 108.806 298.74 108.806 301.176Z" fill="#D3D2F6"/>
<path d="M144.226 301.176C144.226 303.613 141.583 305.588 138.323 305.588C135.062 305.588 132.419 303.613 132.419 301.176C132.419 298.74 135.062 296.765 138.323 296.765C141.583 296.765 144.226 298.74 144.226 301.176Z" fill="#D3D2F6"/>
<path d="M179.645 301.176C179.645 303.613 177.002 305.588 173.742 305.588C170.482 305.588 167.839 303.613 167.839 301.176C167.839 298.74 170.482 296.765 173.742 296.765C177.002 296.765 179.645 298.74 179.645 301.176Z" fill="#D3D2F6"/>
<path d="M215.065 301.176C215.065 303.613 212.422 305.588 209.161 305.588C205.901 305.588 203.258 303.613 203.258 301.176C203.258 298.74 205.901 296.765 209.161 296.765C212.422 296.765 215.065 298.74 215.065 301.176Z" fill="#D3D2F6"/>
<path d="M250.484 301.176C250.484 303.613 247.841 305.588 244.581 305.588C241.32 305.588 238.677 303.613 238.677 301.176C238.677 298.74 241.32 296.765 244.581 296.765C247.841 296.765 250.484 298.74 250.484 301.176Z" fill="#D3D2F6"/>
<path d="M285.903 301.176C285.903 303.613 283.26 305.588 280 305.588C276.74 305.588 274.097 303.613 274.097 301.176C274.097 298.74 276.74 296.765 280 296.765C283.26 296.765 285.903 298.74 285.903 301.176Z" fill="#D3D2F6"/>
<path d="M321.323 301.176C321.323 303.613 318.68 305.588 315.419 305.588C312.159 305.588 309.516 303.613 309.516 301.176C309.516 298.74 312.159 296.765 315.419 296.765C318.68 296.765 321.323 298.74 321.323 301.176Z" fill="#D3D2F6"/>
<path d="M356.742 301.176C356.742 303.613 354.099 305.588 350.839 305.588C347.578 305.588 344.935 303.613 344.935 301.176C344.935 298.74 347.578 296.765 350.839 296.765C354.099 296.765 356.742 298.74 356.742 301.176Z" fill="#D3D2F6"/>
<path d="M392.161 301.176C392.161 303.613 389.518 305.588 386.258 305.588C382.998 305.588 380.355 303.613 380.355 301.176C380.355 298.74 382.998 296.765 386.258 296.765C389.518 296.765 392.161 298.74 392.161 301.176Z" fill="#D3D2F6"/>
<path d="M427.581 301.176C427.581 303.613 424.938 305.588 421.677 305.588C418.417 305.588 415.774 303.613 415.774 301.176C415.774 298.74 418.417 296.765 421.677 296.765C424.938 296.765 427.581 298.74 427.581 301.176Z" fill="#D3D2F6"/>
<path d="M463 301.176C463 303.613 460.357 305.588 457.097 305.588C453.836 305.588 451.194 303.613 451.194 301.176C451.194 298.74 453.836 296.765 457.097 296.765C460.357 296.765 463 298.74 463 301.176Z" fill="#D3D2F6"/>
<path d="M108.806 327.647C108.806 330.084 106.163 332.059 102.903 332.059C99.643 332.059 97 330.084 97 327.647C97 325.211 99.643 323.235 102.903 323.235C106.163 323.235 108.806 325.211 108.806 327.647Z" fill="#D3D2F6"/>
<path d="M144.226 327.647C144.226 330.084 141.583 332.059 138.323 332.059C135.062 332.059 132.419 330.084 132.419 327.647C132.419 325.211 135.062 323.235 138.323 323.235C141.583 323.235 144.226 325.211 144.226 327.647Z" fill="#D3D2F6"/>
<path d="M179.645 327.647C179.645 330.084 177.002 332.059 173.742 332.059C170.482 332.059 167.839 330.084 167.839 327.647C167.839 325.211 170.482 323.235 173.742 323.235C177.002 323.235 179.645 325.211 179.645 327.647Z" fill="#D3D2F6"/>
<path d="M215.065 327.647C215.065 330.084 212.422 332.059 209.161 332.059C205.901 332.059 203.258 330.084 203.258 327.647C203.258 325.211 205.901 323.235 209.161 323.235C212.422 323.235 215.065 325.211 215.065 327.647Z" fill="#D3D2F6"/>
<path d="M250.484 327.647C250.484 330.084 247.841 332.059 244.581 332.059C241.32 332.059 238.677 330.084 238.677 327.647C238.677 325.211 241.32 323.235 244.581 323.235C247.841 323.235 250.484 325.211 250.484 327.647Z" fill="#D3D2F6"/>
<path d="M285.903 327.647C285.903 330.084 283.26 332.059 280 332.059C276.74 332.059 274.097 330.084 274.097 327.647C274.097 325.211 276.74 323.235 280 323.235C283.26 323.235 285.903 325.211 285.903 327.647Z" fill="#D3D2F6"/>
<path d="M321.323 327.647C321.323 330.084 318.68 332.059 315.419 332.059C312.159 332.059 309.516 330.084 309.516 327.647C309.516 325.211 312.159 323.235 315.419 323.235C318.68 323.235 321.323 325.211 321.323 327.647Z" fill="#D3D2F6"/>
<path d="M356.742 327.647C356.742 330.084 354.099 332.059 350.839 332.059C347.578 332.059 344.935 330.084 344.935 327.647C344.935 325.211 347.578 323.235 350.839 323.235C354.099 323.235 356.742 325.211 356.742 327.647Z" fill="#D3D2F6"/>
<path d="M392.161 327.647C392.161 330.084 389.518 332.059 386.258 332.059C382.998 332.059 380.355 330.084 380.355 327.647C380.355 325.211 382.998 323.235 386.258 323.235C389.518 323.235 392.161 325.211 392.161 327.647Z" fill="#D3D2F6"/>
<path d="M427.581 327.647C427.581 330.084 424.938 332.059 421.677 332.059C418.417 332.059 415.774 330.084 415.774 327.647C415.774 325.211 418.417 323.235 421.677 323.235C424.938 323.235 427.581 325.211 427.581 327.647Z" fill="#D3D2F6"/>
<path d="M463 327.647C463 330.084 460.357 332.059 457.097 332.059C453.836 332.059 451.194 330.084 451.194 327.647C451.194 325.211 453.836 323.235 457.097 323.235C460.357 323.235 463 325.211 463 327.647Z" fill="#D3D2F6"/>
<path d="M108.806 354.118C108.806 356.554 106.163 358.529 102.903 358.529C99.643 358.529 97 356.554 97 354.118C97 351.681 99.643 349.706 102.903 349.706C106.163 349.706 108.806 351.681 108.806 354.118Z" fill="#D3D2F6"/>
<path d="M144.226 354.118C144.226 356.554 141.583 358.529 138.323 358.529C135.062 358.529 132.419 356.554 132.419 354.118C132.419 351.681 135.062 349.706 138.323 349.706C141.583 349.706 144.226 351.681 144.226 354.118Z" fill="#D3D2F6"/>
<path d="M179.645 354.118C179.645 356.554 177.002 358.529 173.742 358.529C170.482 358.529 167.839 356.554 167.839 354.118C167.839 351.681 170.482 349.706 173.742 349.706C177.002 349.706 179.645 351.681 179.645 354.118Z" fill="#D3D2F6"/>
<path d="M215.065 354.118C215.065 356.554 212.422 358.529 209.161 358.529C205.901 358.529 203.258 356.554 203.258 354.118C203.258 351.681 205.901 349.706 209.161 349.706C212.422 349.706 215.065 351.681 215.065 354.118Z" fill="#D3D2F6"/>
<path d="M250.484 354.118C250.484 356.554 247.841 358.529 244.581 358.529C241.32 358.529 238.677 356.554 238.677 354.118C238.677 351.681 241.32 349.706 244.581 349.706C247.841 349.706 250.484 351.681 250.484 354.118Z" fill="#D3D2F6"/>
<path d="M285.903 354.118C285.903 356.554 283.26 358.529 280 358.529C276.74 358.529 274.097 356.554 274.097 354.118C274.097 351.681 276.74 349.706 280 349.706C283.26 349.706 285.903 351.681 285.903 354.118Z" fill="#D3D2F6"/>
<path d="M321.323 354.118C321.323 356.554 318.68 358.529 315.419 358.529C312.159 358.529 309.516 356.554 309.516 354.118C309.516 351.681 312.159 349.706 315.419 349.706C318.68 349.706 321.323 351.681 321.323 354.118Z" fill="#D3D2F6"/>
<path d="M356.742 354.118C356.742 356.554 354.099 358.529 350.839 358.529C347.578 358.529 344.935 356.554 344.935 354.118C344.935 351.681 347.578 349.706 350.839 349.706C354.099 349.706 356.742 351.681 356.742 354.118Z" fill="#D3D2F6"/>
<path d="M392.161 354.118C392.161 356.554 389.518 358.529 386.258 358.529C382.998 358.529 380.355 356.554 380.355 354.118C380.355 351.681 382.998 349.706 386.258 349.706C389.518 349.706 392.161 351.681 392.161 354.118Z" fill="#D3D2F6"/>
<path d="M427.581 354.118C427.581 356.554 424.938 358.529 421.677 358.529C418.417 358.529 415.774 356.554 415.774 354.118C415.774 351.681 418.417 349.706 421.677 349.706C424.938 349.706 427.581 351.681 427.581 354.118Z" fill="#D3D2F6"/>
<path d="M463 354.118C463 356.554 460.357 358.529 457.097 358.529C453.836 358.529 451.194 356.554 451.194 354.118C451.194 351.681 453.836 349.706 457.097 349.706C460.357 349.706 463 351.681 463 354.118Z" fill="#D3D2F6"/>
<path d="M108.806 380.588C108.806 383.025 106.163 385 102.903 385C99.643 385 97 383.025 97 380.588C97 378.152 99.643 376.176 102.903 376.176C106.163 376.176 108.806 378.152 108.806 380.588Z" fill="#D3D2F6"/>
<path d="M144.226 380.588C144.226 383.025 141.583 385 138.323 385C135.062 385 132.419 383.025 132.419 380.588C132.419 378.152 135.062 376.176 138.323 376.176C141.583 376.176 144.226 378.152 144.226 380.588Z" fill="#D3D2F6"/>
<path d="M179.645 380.588C179.645 383.025 177.002 385 173.742 385C170.482 385 167.839 383.025 167.839 380.588C167.839 378.152 170.482 376.176 173.742 376.176C177.002 376.176 179.645 378.152 179.645 380.588Z" fill="#D3D2F6"/>
<path d="M215.065 380.588C215.065 383.025 212.422 385 209.161 385C205.901 385 203.258 383.025 203.258 380.588C203.258 378.152 205.901 376.176 209.161 376.176C212.422 376.176 215.065 378.152 215.065 380.588Z" fill="#D3D2F6"/>
<path d="M250.484 380.588C250.484 383.025 247.841 385 244.581 385C241.32 385 238.677 383.025 238.677 380.588C238.677 378.152 241.32 376.176 244.581 376.176C247.841 376.176 250.484 378.152 250.484 380.588Z" fill="#D3D2F6"/>
<path d="M285.903 380.588C285.903 383.025 283.26 385 280 385C276.74 385 274.097 383.025 274.097 380.588C274.097 378.152 276.74 376.176 280 376.176C283.26 376.176 285.903 378.152 285.903 380.588Z" fill="#D3D2F6"/>
<path d="M321.323 380.588C321.323 383.025 318.68 385 315.419 385C312.159 385 309.516 383.025 309.516 380.588C309.516 378.152 312.159 376.176 315.419 376.176C318.68 376.176 321.323 378.152 321.323 380.588Z" fill="#D3D2F6"/>
<path d="M356.742 380.588C356.742 383.025 354.099 385 350.839 385C347.578 385 344.935 383.025 344.935 380.588C344.935 378.152 347.578 376.176 350.839 376.176C354.099 376.176 356.742 378.152 356.742 380.588Z" fill="#D3D2F6"/>
<path d="M392.161 380.588C392.161 383.025 389.518 385 386.258 385C382.998 385 380.355 383.025 380.355 380.588C380.355 378.152 382.998 376.176 386.258 376.176C389.518 376.176 392.161 378.152 392.161 380.588Z" fill="#D3D2F6"/>
<path d="M427.581 380.588C427.581 383.025 424.938 385 421.677 385C418.417 385 415.774 383.025 415.774 380.588C415.774 378.152 418.417 376.176 421.677 376.176C424.938 376.176 427.581 378.152 427.581 380.588Z" fill="#D3D2F6"/>
<path d="M463 380.588C463 383.025 460.357 385 457.097 385C453.836 385 451.194 383.025 451.194 380.588C451.194 378.152 453.836 376.176 457.097 376.176C460.357 376.176 463 378.152 463 380.588Z" fill="#D3D2F6"/>
<path d="M1382.81 1084.41C1382.81 1086.85 1380.16 1088.82 1376.9 1088.82C1373.64 1088.82 1371 1086.85 1371 1084.41C1371 1081.98 1373.64 1080 1376.9 1080C1380.16 1080 1382.81 1081.98 1382.81 1084.41Z" fill="#D3D2F6"/>
<path d="M1418.23 1084.41C1418.23 1086.85 1415.58 1088.82 1412.32 1088.82C1409.06 1088.82 1406.42 1086.85 1406.42 1084.41C1406.42 1081.98 1409.06 1080 1412.32 1080C1415.58 1080 1418.23 1081.98 1418.23 1084.41Z" fill="#D3D2F6"/>
<path d="M1453.65 1084.41C1453.65 1086.85 1451 1088.82 1447.74 1088.82C1444.48 1088.82 1441.84 1086.85 1441.84 1084.41C1441.84 1081.98 1444.48 1080 1447.74 1080C1451 1080 1453.65 1081.98 1453.65 1084.41Z" fill="#D3D2F6"/>
<path d="M1489.06 1084.41C1489.06 1086.85 1486.42 1088.82 1483.16 1088.82C1479.9 1088.82 1477.26 1086.85 1477.26 1084.41C1477.26 1081.98 1479.9 1080 1483.16 1080C1486.42 1080 1489.06 1081.98 1489.06 1084.41Z" fill="#D3D2F6"/>
<path d="M1524.48 1084.41C1524.48 1086.85 1521.84 1088.82 1518.58 1088.82C1515.32 1088.82 1512.68 1086.85 1512.68 1084.41C1512.68 1081.98 1515.32 1080 1518.58 1080C1521.84 1080 1524.48 1081.98 1524.48 1084.41Z" fill="#D3D2F6"/>
<path d="M1559.9 1084.41C1559.9 1086.85 1557.26 1088.82 1554 1088.82C1550.74 1088.82 1548.1 1086.85 1548.1 1084.41C1548.1 1081.98 1550.74 1080 1554 1080C1557.26 1080 1559.9 1081.98 1559.9 1084.41Z" fill="#D3D2F6"/>
<path d="M1595.32 1084.41C1595.32 1086.85 1592.68 1088.82 1589.42 1088.82C1586.16 1088.82 1583.52 1086.85 1583.52 1084.41C1583.52 1081.98 1586.16 1080 1589.42 1080C1592.68 1080 1595.32 1081.98 1595.32 1084.41Z" fill="#D3D2F6"/>
<path d="M1630.74 1084.41C1630.74 1086.85 1628.1 1088.82 1624.84 1088.82C1621.58 1088.82 1618.94 1086.85 1618.94 1084.41C1618.94 1081.98 1621.58 1080 1624.84 1080C1628.1 1080 1630.74 1081.98 1630.74 1084.41Z" fill="#D3D2F6"/>
<path d="M1666.16 1084.41C1666.16 1086.85 1663.52 1088.82 1660.26 1088.82C1657 1088.82 1654.35 1086.85 1654.35 1084.41C1654.35 1081.98 1657 1080 1660.26 1080C1663.52 1080 1666.16 1081.98 1666.16 1084.41Z" fill="#D3D2F6"/>
<path d="M1701.58 1084.41C1701.58 1086.85 1698.94 1088.82 1695.68 1088.82C1692.42 1088.82 1689.77 1086.85 1689.77 1084.41C1689.77 1081.98 1692.42 1080 1695.68 1080C1698.94 1080 1701.58 1081.98 1701.58 1084.41Z" fill="#D3D2F6"/>
<path d="M1737 1084.41C1737 1086.85 1734.36 1088.82 1731.1 1088.82C1727.84 1088.82 1725.19 1086.85 1725.19 1084.41C1725.19 1081.98 1727.84 1080 1731.1 1080C1734.36 1080 1737 1081.98 1737 1084.41Z" fill="#D3D2F6"/>
<path d="M1382.81 1110.88C1382.81 1113.32 1380.16 1115.29 1376.9 1115.29C1373.64 1115.29 1371 1113.32 1371 1110.88C1371 1108.45 1373.64 1106.47 1376.9 1106.47C1380.16 1106.47 1382.81 1108.45 1382.81 1110.88Z" fill="#D3D2F6"/>
<path d="M1418.23 1110.88C1418.23 1113.32 1415.58 1115.29 1412.32 1115.29C1409.06 1115.29 1406.42 1113.32 1406.42 1110.88C1406.42 1108.45 1409.06 1106.47 1412.32 1106.47C1415.58 1106.47 1418.23 1108.45 1418.23 1110.88Z" fill="#D3D2F6"/>
<path d="M1453.65 1110.88C1453.65 1113.32 1451 1115.29 1447.74 1115.29C1444.48 1115.29 1441.84 1113.32 1441.84 1110.88C1441.84 1108.45 1444.48 1106.47 1447.74 1106.47C1451 1106.47 1453.65 1108.45 1453.65 1110.88Z" fill="#D3D2F6"/>
<path d="M1489.06 1110.88C1489.06 1113.32 1486.42 1115.29 1483.16 1115.29C1479.9 1115.29 1477.26 1113.32 1477.26 1110.88C1477.26 1108.45 1479.9 1106.47 1483.16 1106.47C1486.42 1106.47 1489.06 1108.45 1489.06 1110.88Z" fill="#D3D2F6"/>
<path d="M1524.48 1110.88C1524.48 1113.32 1521.84 1115.29 1518.58 1115.29C1515.32 1115.29 1512.68 1113.32 1512.68 1110.88C1512.68 1108.45 1515.32 1106.47 1518.58 1106.47C1521.84 1106.47 1524.48 1108.45 1524.48 1110.88Z" fill="#D3D2F6"/>
<path d="M1559.9 1110.88C1559.9 1113.32 1557.26 1115.29 1554 1115.29C1550.74 1115.29 1548.1 1113.32 1548.1 1110.88C1548.1 1108.45 1550.74 1106.47 1554 1106.47C1557.26 1106.47 1559.9 1108.45 1559.9 1110.88Z" fill="#D3D2F6"/>
<path d="M1595.32 1110.88C1595.32 1113.32 1592.68 1115.29 1589.42 1115.29C1586.16 1115.29 1583.52 1113.32 1583.52 1110.88C1583.52 1108.45 1586.16 1106.47 1589.42 1106.47C1592.68 1106.47 1595.32 1108.45 1595.32 1110.88Z" fill="#D3D2F6"/>
<path d="M1630.74 1110.88C1630.74 1113.32 1628.1 1115.29 1624.84 1115.29C1621.58 1115.29 1618.94 1113.32 1618.94 1110.88C1618.94 1108.45 1621.58 1106.47 1624.84 1106.47C1628.1 1106.47 1630.74 1108.45 1630.74 1110.88Z" fill="#D3D2F6"/>
<path d="M1666.16 1110.88C1666.16 1113.32 1663.52 1115.29 1660.26 1115.29C1657 1115.29 1654.35 1113.32 1654.35 1110.88C1654.35 1108.45 1657 1106.47 1660.26 1106.47C1663.52 1106.47 1666.16 1108.45 1666.16 1110.88Z" fill="#D3D2F6"/>
<path d="M1701.58 1110.88C1701.58 1113.32 1698.94 1115.29 1695.68 1115.29C1692.42 1115.29 1689.77 1113.32 1689.77 1110.88C1689.77 1108.45 1692.42 1106.47 1695.68 1106.47C1698.94 1106.47 1701.58 1108.45 1701.58 1110.88Z" fill="#D3D2F6"/>
<path d="M1737 1110.88C1737 1113.32 1734.36 1115.29 1731.1 1115.29C1727.84 1115.29 1725.19 1113.32 1725.19 1110.88C1725.19 1108.45 1727.84 1106.47 1731.1 1106.47C1734.36 1106.47 1737 1108.45 1737 1110.88Z" fill="#D3D2F6"/>
<path d="M1382.81 1137.35C1382.81 1139.79 1380.16 1141.76 1376.9 1141.76C1373.64 1141.76 1371 1139.79 1371 1137.35C1371 1134.92 1373.64 1132.94 1376.9 1132.94C1380.16 1132.94 1382.81 1134.92 1382.81 1137.35Z" fill="#D3D2F6"/>
<path d="M1418.23 1137.35C1418.23 1139.79 1415.58 1141.76 1412.32 1141.76C1409.06 1141.76 1406.42 1139.79 1406.42 1137.35C1406.42 1134.92 1409.06 1132.94 1412.32 1132.94C1415.58 1132.94 1418.23 1134.92 1418.23 1137.35Z" fill="#D3D2F6"/>
<path d="M1453.65 1137.35C1453.65 1139.79 1451 1141.76 1447.74 1141.76C1444.48 1141.76 1441.84 1139.79 1441.84 1137.35C1441.84 1134.92 1444.48 1132.94 1447.74 1132.94C1451 1132.94 1453.65 1134.92 1453.65 1137.35Z" fill="#D3D2F6"/>
<path d="M1489.06 1137.35C1489.06 1139.79 1486.42 1141.76 1483.16 1141.76C1479.9 1141.76 1477.26 1139.79 1477.26 1137.35C1477.26 1134.92 1479.9 1132.94 1483.16 1132.94C1486.42 1132.94 1489.06 1134.92 1489.06 1137.35Z" fill="#D3D2F6"/>
<path d="M1524.48 1137.35C1524.48 1139.79 1521.84 1141.76 1518.58 1141.76C1515.32 1141.76 1512.68 1139.79 1512.68 1137.35C1512.68 1134.92 1515.32 1132.94 1518.58 1132.94C1521.84 1132.94 1524.48 1134.92 1524.48 1137.35Z" fill="#D3D2F6"/>
<path d="M1559.9 1137.35C1559.9 1139.79 1557.26 1141.76 1554 1141.76C1550.74 1141.76 1548.1 1139.79 1548.1 1137.35C1548.1 1134.92 1550.74 1132.94 1554 1132.94C1557.26 1132.94 1559.9 1134.92 1559.9 1137.35Z" fill="#D3D2F6"/>
<path d="M1595.32 1137.35C1595.32 1139.79 1592.68 1141.76 1589.42 1141.76C1586.16 1141.76 1583.52 1139.79 1583.52 1137.35C1583.52 1134.92 1586.16 1132.94 1589.42 1132.94C1592.68 1132.94 1595.32 1134.92 1595.32 1137.35Z" fill="#D3D2F6"/>
<path d="M1630.74 1137.35C1630.74 1139.79 1628.1 1141.76 1624.84 1141.76C1621.58 1141.76 1618.94 1139.79 1618.94 1137.35C1618.94 1134.92 1621.58 1132.94 1624.84 1132.94C1628.1 1132.94 1630.74 1134.92 1630.74 1137.35Z" fill="#D3D2F6"/>
<path d="M1666.16 1137.35C1666.16 1139.79 1663.52 1141.76 1660.26 1141.76C1657 1141.76 1654.35 1139.79 1654.35 1137.35C1654.35 1134.92 1657 1132.94 1660.26 1132.94C1663.52 1132.94 1666.16 1134.92 1666.16 1137.35Z" fill="#D3D2F6"/>
<path d="M1701.58 1137.35C1701.58 1139.79 1698.94 1141.76 1695.68 1141.76C1692.42 1141.76 1689.77 1139.79 1689.77 1137.35C1689.77 1134.92 1692.42 1132.94 1695.68 1132.94C1698.94 1132.94 1701.58 1134.92 1701.58 1137.35Z" fill="#D3D2F6"/>
<path d="M1737 1137.35C1737 1139.79 1734.36 1141.76 1731.1 1141.76C1727.84 1141.76 1725.19 1139.79 1725.19 1137.35C1725.19 1134.92 1727.84 1132.94 1731.1 1132.94C1734.36 1132.94 1737 1134.92 1737 1137.35Z" fill="#D3D2F6"/>
<path d="M1382.81 1163.82C1382.81 1166.26 1380.16 1168.24 1376.9 1168.24C1373.64 1168.24 1371 1166.26 1371 1163.82C1371 1161.39 1373.64 1159.41 1376.9 1159.41C1380.16 1159.41 1382.81 1161.39 1382.81 1163.82Z" fill="#D3D2F6"/>
<path d="M1418.23 1163.82C1418.23 1166.26 1415.58 1168.24 1412.32 1168.24C1409.06 1168.24 1406.42 1166.26 1406.42 1163.82C1406.42 1161.39 1409.06 1159.41 1412.32 1159.41C1415.58 1159.41 1418.23 1161.39 1418.23 1163.82Z" fill="#D3D2F6"/>
<path d="M1453.65 1163.82C1453.65 1166.26 1451 1168.24 1447.74 1168.24C1444.48 1168.24 1441.84 1166.26 1441.84 1163.82C1441.84 1161.39 1444.48 1159.41 1447.74 1159.41C1451 1159.41 1453.65 1161.39 1453.65 1163.82Z" fill="#D3D2F6"/>
<path d="M1489.06 1163.82C1489.06 1166.26 1486.42 1168.24 1483.16 1168.24C1479.9 1168.24 1477.26 1166.26 1477.26 1163.82C1477.26 1161.39 1479.9 1159.41 1483.16 1159.41C1486.42 1159.41 1489.06 1161.39 1489.06 1163.82Z" fill="#D3D2F6"/>
<path d="M1524.48 1163.82C1524.48 1166.26 1521.84 1168.24 1518.58 1168.24C1515.32 1168.24 1512.68 1166.26 1512.68 1163.82C1512.68 1161.39 1515.32 1159.41 1518.58 1159.41C1521.84 1159.41 1524.48 1161.39 1524.48 1163.82Z" fill="#D3D2F6"/>
<path d="M1559.9 1163.82C1559.9 1166.26 1557.26 1168.24 1554 1168.24C1550.74 1168.24 1548.1 1166.26 1548.1 1163.82C1548.1 1161.39 1550.74 1159.41 1554 1159.41C1557.26 1159.41 1559.9 1161.39 1559.9 1163.82Z" fill="#D3D2F6"/>
<path d="M1595.32 1163.82C1595.32 1166.26 1592.68 1168.24 1589.42 1168.24C1586.16 1168.24 1583.52 1166.26 1583.52 1163.82C1583.52 1161.39 1586.16 1159.41 1589.42 1159.41C1592.68 1159.41 1595.32 1161.39 1595.32 1163.82Z" fill="#D3D2F6"/>
<path d="M1630.74 1163.82C1630.74 1166.26 1628.1 1168.24 1624.84 1168.24C1621.58 1168.24 1618.94 1166.26 1618.94 1163.82C1618.94 1161.39 1621.58 1159.41 1624.84 1159.41C1628.1 1159.41 1630.74 1161.39 1630.74 1163.82Z" fill="#D3D2F6"/>
<path d="M1666.16 1163.82C1666.16 1166.26 1663.52 1168.24 1660.26 1168.24C1657 1168.24 1654.35 1166.26 1654.35 1163.82C1654.35 1161.39 1657 1159.41 1660.26 1159.41C1663.52 1159.41 1666.16 1161.39 1666.16 1163.82Z" fill="#D3D2F6"/>
<path d="M1701.58 1163.82C1701.58 1166.26 1698.94 1168.24 1695.68 1168.24C1692.42 1168.24 1689.77 1166.26 1689.77 1163.82C1689.77 1161.39 1692.42 1159.41 1695.68 1159.41C1698.94 1159.41 1701.58 1161.39 1701.58 1163.82Z" fill="#D3D2F6"/>
<path d="M1737 1163.82C1737 1166.26 1734.36 1168.24 1731.1 1168.24C1727.84 1168.24 1725.19 1166.26 1725.19 1163.82C1725.19 1161.39 1727.84 1159.41 1731.1 1159.41C1734.36 1159.41 1737 1161.39 1737 1163.82Z" fill="#D3D2F6"/>
<path d="M1382.81 1190.29C1382.81 1192.73 1380.16 1194.71 1376.9 1194.71C1373.64 1194.71 1371 1192.73 1371 1190.29C1371 1187.86 1373.64 1185.88 1376.9 1185.88C1380.16 1185.88 1382.81 1187.86 1382.81 1190.29Z" fill="#D3D2F6"/>
<path d="M1418.23 1190.29C1418.23 1192.73 1415.58 1194.71 1412.32 1194.71C1409.06 1194.71 1406.42 1192.73 1406.42 1190.29C1406.42 1187.86 1409.06 1185.88 1412.32 1185.88C1415.58 1185.88 1418.23 1187.86 1418.23 1190.29Z" fill="#D3D2F6"/>
<path d="M1453.65 1190.29C1453.65 1192.73 1451 1194.71 1447.74 1194.71C1444.48 1194.71 1441.84 1192.73 1441.84 1190.29C1441.84 1187.86 1444.48 1185.88 1447.74 1185.88C1451 1185.88 1453.65 1187.86 1453.65 1190.29Z" fill="#D3D2F6"/>
<path d="M1489.06 1190.29C1489.06 1192.73 1486.42 1194.71 1483.16 1194.71C1479.9 1194.71 1477.26 1192.73 1477.26 1190.29C1477.26 1187.86 1479.9 1185.88 1483.16 1185.88C1486.42 1185.88 1489.06 1187.86 1489.06 1190.29Z" fill="#D3D2F6"/>
<path d="M1524.48 1190.29C1524.48 1192.73 1521.84 1194.71 1518.58 1194.71C1515.32 1194.71 1512.68 1192.73 1512.68 1190.29C1512.68 1187.86 1515.32 1185.88 1518.58 1185.88C1521.84 1185.88 1524.48 1187.86 1524.48 1190.29Z" fill="#D3D2F6"/>
<path d="M1559.9 1190.29C1559.9 1192.73 1557.26 1194.71 1554 1194.71C1550.74 1194.71 1548.1 1192.73 1548.1 1190.29C1548.1 1187.86 1550.74 1185.88 1554 1185.88C1557.26 1185.88 1559.9 1187.86 1559.9 1190.29Z" fill="#D3D2F6"/>
<path d="M1595.32 1190.29C1595.32 1192.73 1592.68 1194.71 1589.42 1194.71C1586.16 1194.71 1583.52 1192.73 1583.52 1190.29C1583.52 1187.86 1586.16 1185.88 1589.42 1185.88C1592.68 1185.88 1595.32 1187.86 1595.32 1190.29Z" fill="#D3D2F6"/>
<path d="M1630.74 1190.29C1630.74 1192.73 1628.1 1194.71 1624.84 1194.71C1621.58 1194.71 1618.94 1192.73 1618.94 1190.29C1618.94 1187.86 1621.58 1185.88 1624.84 1185.88C1628.1 1185.88 1630.74 1187.86 1630.74 1190.29Z" fill="#D3D2F6"/>
<path d="M1666.16 1190.29C1666.16 1192.73 1663.52 1194.71 1660.26 1194.71C1657 1194.71 1654.35 1192.73 1654.35 1190.29C1654.35 1187.86 1657 1185.88 1660.26 1185.88C1663.52 1185.88 1666.16 1187.86 1666.16 1190.29Z" fill="#D3D2F6"/>
<path d="M1701.58 1190.29C1701.58 1192.73 1698.94 1194.71 1695.68 1194.71C1692.42 1194.71 1689.77 1192.73 1689.77 1190.29C1689.77 1187.86 1692.42 1185.88 1695.68 1185.88C1698.94 1185.88 1701.58 1187.86 1701.58 1190.29Z" fill="#D3D2F6"/>
<path d="M1737 1190.29C1737 1192.73 1734.36 1194.71 1731.1 1194.71C1727.84 1194.71 1725.19 1192.73 1725.19 1190.29C1725.19 1187.86 1727.84 1185.88 1731.1 1185.88C1734.36 1185.88 1737 1187.86 1737 1190.29Z" fill="#D3D2F6"/>
<path d="M1382.81 1216.76C1382.81 1219.2 1380.16 1221.18 1376.9 1221.18C1373.64 1221.18 1371 1219.2 1371 1216.76C1371 1214.33 1373.64 1212.35 1376.9 1212.35C1380.16 1212.35 1382.81 1214.33 1382.81 1216.76Z" fill="#D3D2F6"/>
<path d="M1418.23 1216.76C1418.23 1219.2 1415.58 1221.18 1412.32 1221.18C1409.06 1221.18 1406.42 1219.2 1406.42 1216.76C1406.42 1214.33 1409.06 1212.35 1412.32 1212.35C1415.58 1212.35 1418.23 1214.33 1418.23 1216.76Z" fill="#D3D2F6"/>
<path d="M1453.65 1216.76C1453.65 1219.2 1451 1221.18 1447.74 1221.18C1444.48 1221.18 1441.84 1219.2 1441.84 1216.76C1441.84 1214.33 1444.48 1212.35 1447.74 1212.35C1451 1212.35 1453.65 1214.33 1453.65 1216.76Z" fill="#D3D2F6"/>
<path d="M1489.06 1216.76C1489.06 1219.2 1486.42 1221.18 1483.16 1221.18C1479.9 1221.18 1477.26 1219.2 1477.26 1216.76C1477.26 1214.33 1479.9 1212.35 1483.16 1212.35C1486.42 1212.35 1489.06 1214.33 1489.06 1216.76Z" fill="#D3D2F6"/>
<path d="M1524.48 1216.76C1524.48 1219.2 1521.84 1221.18 1518.58 1221.18C1515.32 1221.18 1512.68 1219.2 1512.68 1216.76C1512.68 1214.33 1515.32 1212.35 1518.58 1212.35C1521.84 1212.35 1524.48 1214.33 1524.48 1216.76Z" fill="#D3D2F6"/>
<path d="M1559.9 1216.76C1559.9 1219.2 1557.26 1221.18 1554 1221.18C1550.74 1221.18 1548.1 1219.2 1548.1 1216.76C1548.1 1214.33 1550.74 1212.35 1554 1212.35C1557.26 1212.35 1559.9 1214.33 1559.9 1216.76Z" fill="#D3D2F6"/>
<path d="M1595.32 1216.76C1595.32 1219.2 1592.68 1221.18 1589.42 1221.18C1586.16 1221.18 1583.52 1219.2 1583.52 1216.76C1583.52 1214.33 1586.16 1212.35 1589.42 1212.35C1592.68 1212.35 1595.32 1214.33 1595.32 1216.76Z" fill="#D3D2F6"/>
<path d="M1630.74 1216.76C1630.74 1219.2 1628.1 1221.18 1624.84 1221.18C1621.58 1221.18 1618.94 1219.2 1618.94 1216.76C1618.94 1214.33 1621.58 1212.35 1624.84 1212.35C1628.1 1212.35 1630.74 1214.33 1630.74 1216.76Z" fill="#D3D2F6"/>
<path d="M1666.16 1216.76C1666.16 1219.2 1663.52 1221.18 1660.26 1221.18C1657 1221.18 1654.35 1219.2 1654.35 1216.76C1654.35 1214.33 1657 1212.35 1660.26 1212.35C1663.52 1212.35 1666.16 1214.33 1666.16 1216.76Z" fill="#D3D2F6"/>
<path d="M1701.58 1216.76C1701.58 1219.2 1698.94 1221.18 1695.68 1221.18C1692.42 1221.18 1689.77 1219.2 1689.77 1216.76C1689.77 1214.33 1692.42 1212.35 1695.68 1212.35C1698.94 1212.35 1701.58 1214.33 1701.58 1216.76Z" fill="#D3D2F6"/>
<path d="M1737 1216.76C1737 1219.2 1734.36 1221.18 1731.1 1221.18C1727.84 1221.18 1725.19 1219.2 1725.19 1216.76C1725.19 1214.33 1727.84 1212.35 1731.1 1212.35C1734.36 1212.35 1737 1214.33 1737 1216.76Z" fill="#D3D2F6"/>
<path d="M1382.81 1243.24C1382.81 1245.67 1380.16 1247.65 1376.9 1247.65C1373.64 1247.65 1371 1245.67 1371 1243.24C1371 1240.8 1373.64 1238.82 1376.9 1238.82C1380.16 1238.82 1382.81 1240.8 1382.81 1243.24Z" fill="#D3D2F6"/>
<path d="M1418.23 1243.24C1418.23 1245.67 1415.58 1247.65 1412.32 1247.65C1409.06 1247.65 1406.42 1245.67 1406.42 1243.24C1406.42 1240.8 1409.06 1238.82 1412.32 1238.82C1415.58 1238.82 1418.23 1240.8 1418.23 1243.24Z" fill="#D3D2F6"/>
<path d="M1453.65 1243.24C1453.65 1245.67 1451 1247.65 1447.74 1247.65C1444.48 1247.65 1441.84 1245.67 1441.84 1243.24C1441.84 1240.8 1444.48 1238.82 1447.74 1238.82C1451 1238.82 1453.65 1240.8 1453.65 1243.24Z" fill="#D3D2F6"/>
<path d="M1489.06 1243.24C1489.06 1245.67 1486.42 1247.65 1483.16 1247.65C1479.9 1247.65 1477.26 1245.67 1477.26 1243.24C1477.26 1240.8 1479.9 1238.82 1483.16 1238.82C1486.42 1238.82 1489.06 1240.8 1489.06 1243.24Z" fill="#D3D2F6"/>
<path d="M1524.48 1243.24C1524.48 1245.67 1521.84 1247.65 1518.58 1247.65C1515.32 1247.65 1512.68 1245.67 1512.68 1243.24C1512.68 1240.8 1515.32 1238.82 1518.58 1238.82C1521.84 1238.82 1524.48 1240.8 1524.48 1243.24Z" fill="#D3D2F6"/>
<path d="M1559.9 1243.24C1559.9 1245.67 1557.26 1247.65 1554 1247.65C1550.74 1247.65 1548.1 1245.67 1548.1 1243.24C1548.1 1240.8 1550.74 1238.82 1554 1238.82C1557.26 1238.82 1559.9 1240.8 1559.9 1243.24Z" fill="#D3D2F6"/>
<path d="M1595.32 1243.24C1595.32 1245.67 1592.68 1247.65 1589.42 1247.65C1586.16 1247.65 1583.52 1245.67 1583.52 1243.24C1583.52 1240.8 1586.16 1238.82 1589.42 1238.82C1592.68 1238.82 1595.32 1240.8 1595.32 1243.24Z" fill="#D3D2F6"/>
<path d="M1630.74 1243.24C1630.74 1245.67 1628.1 1247.65 1624.84 1247.65C1621.58 1247.65 1618.94 1245.67 1618.94 1243.24C1618.94 1240.8 1621.58 1238.82 1624.84 1238.82C1628.1 1238.82 1630.74 1240.8 1630.74 1243.24Z" fill="#D3D2F6"/>
<path d="M1666.16 1243.24C1666.16 1245.67 1663.52 1247.65 1660.26 1247.65C1657 1247.65 1654.35 1245.67 1654.35 1243.24C1654.35 1240.8 1657 1238.82 1660.26 1238.82C1663.52 1238.82 1666.16 1240.8 1666.16 1243.24Z" fill="#D3D2F6"/>
<path d="M1701.58 1243.24C1701.58 1245.67 1698.94 1247.65 1695.68 1247.65C1692.42 1247.65 1689.77 1245.67 1689.77 1243.24C1689.77 1240.8 1692.42 1238.82 1695.68 1238.82C1698.94 1238.82 1701.58 1240.8 1701.58 1243.24Z" fill="#D3D2F6"/>
<path d="M1737 1243.24C1737 1245.67 1734.36 1247.65 1731.1 1247.65C1727.84 1247.65 1725.19 1245.67 1725.19 1243.24C1725.19 1240.8 1727.84 1238.82 1731.1 1238.82C1734.36 1238.82 1737 1240.8 1737 1243.24Z" fill="#D3D2F6"/>
<path d="M1382.81 1269.71C1382.81 1272.14 1380.16 1274.12 1376.9 1274.12C1373.64 1274.12 1371 1272.14 1371 1269.71C1371 1267.27 1373.64 1265.29 1376.9 1265.29C1380.16 1265.29 1382.81 1267.27 1382.81 1269.71Z" fill="#D3D2F6"/>
<path d="M1418.23 1269.71C1418.23 1272.14 1415.58 1274.12 1412.32 1274.12C1409.06 1274.12 1406.42 1272.14 1406.42 1269.71C1406.42 1267.27 1409.06 1265.29 1412.32 1265.29C1415.58 1265.29 1418.23 1267.27 1418.23 1269.71Z" fill="#D3D2F6"/>
<path d="M1453.65 1269.71C1453.65 1272.14 1451 1274.12 1447.74 1274.12C1444.48 1274.12 1441.84 1272.14 1441.84 1269.71C1441.84 1267.27 1444.48 1265.29 1447.74 1265.29C1451 1265.29 1453.65 1267.27 1453.65 1269.71Z" fill="#D3D2F6"/>
<path d="M1489.06 1269.71C1489.06 1272.14 1486.42 1274.12 1483.16 1274.12C1479.9 1274.12 1477.26 1272.14 1477.26 1269.71C1477.26 1267.27 1479.9 1265.29 1483.16 1265.29C1486.42 1265.29 1489.06 1267.27 1489.06 1269.71Z" fill="#D3D2F6"/>
<path d="M1524.48 1269.71C1524.48 1272.14 1521.84 1274.12 1518.58 1274.12C1515.32 1274.12 1512.68 1272.14 1512.68 1269.71C1512.68 1267.27 1515.32 1265.29 1518.58 1265.29C1521.84 1265.29 1524.48 1267.27 1524.48 1269.71Z" fill="#D3D2F6"/>
<path d="M1559.9 1269.71C1559.9 1272.14 1557.26 1274.12 1554 1274.12C1550.74 1274.12 1548.1 1272.14 1548.1 1269.71C1548.1 1267.27 1550.74 1265.29 1554 1265.29C1557.26 1265.29 1559.9 1267.27 1559.9 1269.71Z" fill="#D3D2F6"/>
<path d="M1595.32 1269.71C1595.32 1272.14 1592.68 1274.12 1589.42 1274.12C1586.16 1274.12 1583.52 1272.14 1583.52 1269.71C1583.52 1267.27 1586.16 1265.29 1589.42 1265.29C1592.68 1265.29 1595.32 1267.27 1595.32 1269.71Z" fill="#D3D2F6"/>
<path d="M1630.74 1269.71C1630.74 1272.14 1628.1 1274.12 1624.84 1274.12C1621.58 1274.12 1618.94 1272.14 1618.94 1269.71C1618.94 1267.27 1621.58 1265.29 1624.84 1265.29C1628.1 1265.29 1630.74 1267.27 1630.74 1269.71Z" fill="#D3D2F6"/>
<path d="M1666.16 1269.71C1666.16 1272.14 1663.52 1274.12 1660.26 1274.12C1657 1274.12 1654.35 1272.14 1654.35 1269.71C1654.35 1267.27 1657 1265.29 1660.26 1265.29C1663.52 1265.29 1666.16 1267.27 1666.16 1269.71Z" fill="#D3D2F6"/>
<path d="M1701.58 1269.71C1701.58 1272.14 1698.94 1274.12 1695.68 1274.12C1692.42 1274.12 1689.77 1272.14 1689.77 1269.71C1689.77 1267.27 1692.42 1265.29 1695.68 1265.29C1698.94 1265.29 1701.58 1267.27 1701.58 1269.71Z" fill="#D3D2F6"/>
<path d="M1737 1269.71C1737 1272.14 1734.36 1274.12 1731.1 1274.12C1727.84 1274.12 1725.19 1272.14 1725.19 1269.71C1725.19 1267.27 1727.84 1265.29 1731.1 1265.29C1734.36 1265.29 1737 1267.27 1737 1269.71Z" fill="#D3D2F6"/>
<path d="M1382.81 1296.18C1382.81 1298.61 1380.16 1300.59 1376.9 1300.59C1373.64 1300.59 1371 1298.61 1371 1296.18C1371 1293.74 1373.64 1291.76 1376.9 1291.76C1380.16 1291.76 1382.81 1293.74 1382.81 1296.18Z" fill="#D3D2F6"/>
<path d="M1418.23 1296.18C1418.23 1298.61 1415.58 1300.59 1412.32 1300.59C1409.06 1300.59 1406.42 1298.61 1406.42 1296.18C1406.42 1293.74 1409.06 1291.76 1412.32 1291.76C1415.58 1291.76 1418.23 1293.74 1418.23 1296.18Z" fill="#D3D2F6"/>
<path d="M1453.65 1296.18C1453.65 1298.61 1451 1300.59 1447.74 1300.59C1444.48 1300.59 1441.84 1298.61 1441.84 1296.18C1441.84 1293.74 1444.48 1291.76 1447.74 1291.76C1451 1291.76 1453.65 1293.74 1453.65 1296.18Z" fill="#D3D2F6"/>
<path d="M1489.06 1296.18C1489.06 1298.61 1486.42 1300.59 1483.16 1300.59C1479.9 1300.59 1477.26 1298.61 1477.26 1296.18C1477.26 1293.74 1479.9 1291.76 1483.16 1291.76C1486.42 1291.76 1489.06 1293.74 1489.06 1296.18Z" fill="#D3D2F6"/>
<path d="M1524.48 1296.18C1524.48 1298.61 1521.84 1300.59 1518.58 1300.59C1515.32 1300.59 1512.68 1298.61 1512.68 1296.18C1512.68 1293.74 1515.32 1291.76 1518.58 1291.76C1521.84 1291.76 1524.48 1293.74 1524.48 1296.18Z" fill="#D3D2F6"/>
<path d="M1559.9 1296.18C1559.9 1298.61 1557.26 1300.59 1554 1300.59C1550.74 1300.59 1548.1 1298.61 1548.1 1296.18C1548.1 1293.74 1550.74 1291.76 1554 1291.76C1557.26 1291.76 1559.9 1293.74 1559.9 1296.18Z" fill="#D3D2F6"/>
<path d="M1595.32 1296.18C1595.32 1298.61 1592.68 1300.59 1589.42 1300.59C1586.16 1300.59 1583.52 1298.61 1583.52 1296.18C1583.52 1293.74 1586.16 1291.76 1589.42 1291.76C1592.68 1291.76 1595.32 1293.74 1595.32 1296.18Z" fill="#D3D2F6"/>
<path d="M1630.74 1296.18C1630.74 1298.61 1628.1 1300.59 1624.84 1300.59C1621.58 1300.59 1618.94 1298.61 1618.94 1296.18C1618.94 1293.74 1621.58 1291.76 1624.84 1291.76C1628.1 1291.76 1630.74 1293.74 1630.74 1296.18Z" fill="#D3D2F6"/>
<path d="M1666.16 1296.18C1666.16 1298.61 1663.52 1300.59 1660.26 1300.59C1657 1300.59 1654.35 1298.61 1654.35 1296.18C1654.35 1293.74 1657 1291.76 1660.26 1291.76C1663.52 1291.76 1666.16 1293.74 1666.16 1296.18Z" fill="#D3D2F6"/>
<path d="M1701.58 1296.18C1701.58 1298.61 1698.94 1300.59 1695.68 1300.59C1692.42 1300.59 1689.77 1298.61 1689.77 1296.18C1689.77 1293.74 1692.42 1291.76 1695.68 1291.76C1698.94 1291.76 1701.58 1293.74 1701.58 1296.18Z" fill="#D3D2F6"/>
<path d="M1737 1296.18C1737 1298.61 1734.36 1300.59 1731.1 1300.59C1727.84 1300.59 1725.19 1298.61 1725.19 1296.18C1725.19 1293.74 1727.84 1291.76 1731.1 1291.76C1734.36 1291.76 1737 1293.74 1737 1296.18Z" fill="#D3D2F6"/>
<path d="M1382.81 1322.65C1382.81 1325.08 1380.16 1327.06 1376.9 1327.06C1373.64 1327.06 1371 1325.08 1371 1322.65C1371 1320.21 1373.64 1318.24 1376.9 1318.24C1380.16 1318.24 1382.81 1320.21 1382.81 1322.65Z" fill="#D3D2F6"/>
<path d="M1418.23 1322.65C1418.23 1325.08 1415.58 1327.06 1412.32 1327.06C1409.06 1327.06 1406.42 1325.08 1406.42 1322.65C1406.42 1320.21 1409.06 1318.24 1412.32 1318.24C1415.58 1318.24 1418.23 1320.21 1418.23 1322.65Z" fill="#D3D2F6"/>
<path d="M1453.65 1322.65C1453.65 1325.08 1451 1327.06 1447.74 1327.06C1444.48 1327.06 1441.84 1325.08 1441.84 1322.65C1441.84 1320.21 1444.48 1318.24 1447.74 1318.24C1451 1318.24 1453.65 1320.21 1453.65 1322.65Z" fill="#D3D2F6"/>
<path d="M1489.06 1322.65C1489.06 1325.08 1486.42 1327.06 1483.16 1327.06C1479.9 1327.06 1477.26 1325.08 1477.26 1322.65C1477.26 1320.21 1479.9 1318.24 1483.16 1318.24C1486.42 1318.24 1489.06 1320.21 1489.06 1322.65Z" fill="#D3D2F6"/>
<path d="M1524.48 1322.65C1524.48 1325.08 1521.84 1327.06 1518.58 1327.06C1515.32 1327.06 1512.68 1325.08 1512.68 1322.65C1512.68 1320.21 1515.32 1318.24 1518.58 1318.24C1521.84 1318.24 1524.48 1320.21 1524.48 1322.65Z" fill="#D3D2F6"/>
<path d="M1559.9 1322.65C1559.9 1325.08 1557.26 1327.06 1554 1327.06C1550.74 1327.06 1548.1 1325.08 1548.1 1322.65C1548.1 1320.21 1550.74 1318.24 1554 1318.24C1557.26 1318.24 1559.9 1320.21 1559.9 1322.65Z" fill="#D3D2F6"/>
<path d="M1595.32 1322.65C1595.32 1325.08 1592.68 1327.06 1589.42 1327.06C1586.16 1327.06 1583.52 1325.08 1583.52 1322.65C1583.52 1320.21 1586.16 1318.24 1589.42 1318.24C1592.68 1318.24 1595.32 1320.21 1595.32 1322.65Z" fill="#D3D2F6"/>
<path d="M1630.74 1322.65C1630.74 1325.08 1628.1 1327.06 1624.84 1327.06C1621.58 1327.06 1618.94 1325.08 1618.94 1322.65C1618.94 1320.21 1621.58 1318.24 1624.84 1318.24C1628.1 1318.24 1630.74 1320.21 1630.74 1322.65Z" fill="#D3D2F6"/>
<path d="M1666.16 1322.65C1666.16 1325.08 1663.52 1327.06 1660.26 1327.06C1657 1327.06 1654.35 1325.08 1654.35 1322.65C1654.35 1320.21 1657 1318.24 1660.26 1318.24C1663.52 1318.24 1666.16 1320.21 1666.16 1322.65Z" fill="#D3D2F6"/>
<path d="M1701.58 1322.65C1701.58 1325.08 1698.94 1327.06 1695.68 1327.06C1692.42 1327.06 1689.77 1325.08 1689.77 1322.65C1689.77 1320.21 1692.42 1318.24 1695.68 1318.24C1698.94 1318.24 1701.58 1320.21 1701.58 1322.65Z" fill="#D3D2F6"/>
<path d="M1737 1322.65C1737 1325.08 1734.36 1327.06 1731.1 1327.06C1727.84 1327.06 1725.19 1325.08 1725.19 1322.65C1725.19 1320.21 1727.84 1318.24 1731.1 1318.24C1734.36 1318.24 1737 1320.21 1737 1322.65Z" fill="#D3D2F6"/>
<path d="M1382.81 1349.12C1382.81 1351.55 1380.16 1353.53 1376.9 1353.53C1373.64 1353.53 1371 1351.55 1371 1349.12C1371 1346.68 1373.64 1344.71 1376.9 1344.71C1380.16 1344.71 1382.81 1346.68 1382.81 1349.12Z" fill="#D3D2F6"/>
<path d="M1418.23 1349.12C1418.23 1351.55 1415.58 1353.53 1412.32 1353.53C1409.06 1353.53 1406.42 1351.55 1406.42 1349.12C1406.42 1346.68 1409.06 1344.71 1412.32 1344.71C1415.58 1344.71 1418.23 1346.68 1418.23 1349.12Z" fill="#D3D2F6"/>
<path d="M1453.65 1349.12C1453.65 1351.55 1451 1353.53 1447.74 1353.53C1444.48 1353.53 1441.84 1351.55 1441.84 1349.12C1441.84 1346.68 1444.48 1344.71 1447.74 1344.71C1451 1344.71 1453.65 1346.68 1453.65 1349.12Z" fill="#D3D2F6"/>
<path d="M1489.06 1349.12C1489.06 1351.55 1486.42 1353.53 1483.16 1353.53C1479.9 1353.53 1477.26 1351.55 1477.26 1349.12C1477.26 1346.68 1479.9 1344.71 1483.16 1344.71C1486.42 1344.71 1489.06 1346.68 1489.06 1349.12Z" fill="#D3D2F6"/>
<path d="M1524.48 1349.12C1524.48 1351.55 1521.84 1353.53 1518.58 1353.53C1515.32 1353.53 1512.68 1351.55 1512.68 1349.12C1512.68 1346.68 1515.32 1344.71 1518.58 1344.71C1521.84 1344.71 1524.48 1346.68 1524.48 1349.12Z" fill="#D3D2F6"/>
<path d="M1559.9 1349.12C1559.9 1351.55 1557.26 1353.53 1554 1353.53C1550.74 1353.53 1548.1 1351.55 1548.1 1349.12C1548.1 1346.68 1550.74 1344.71 1554 1344.71C1557.26 1344.71 1559.9 1346.68 1559.9 1349.12Z" fill="#D3D2F6"/>
<path d="M1595.32 1349.12C1595.32 1351.55 1592.68 1353.53 1589.42 1353.53C1586.16 1353.53 1583.52 1351.55 1583.52 1349.12C1583.52 1346.68 1586.16 1344.71 1589.42 1344.71C1592.68 1344.71 1595.32 1346.68 1595.32 1349.12Z" fill="#D3D2F6"/>
<path d="M1630.74 1349.12C1630.74 1351.55 1628.1 1353.53 1624.84 1353.53C1621.58 1353.53 1618.94 1351.55 1618.94 1349.12C1618.94 1346.68 1621.58 1344.71 1624.84 1344.71C1628.1 1344.71 1630.74 1346.68 1630.74 1349.12Z" fill="#D3D2F6"/>
<path d="M1666.16 1349.12C1666.16 1351.55 1663.52 1353.53 1660.26 1353.53C1657 1353.53 1654.35 1351.55 1654.35 1349.12C1654.35 1346.68 1657 1344.71 1660.26 1344.71C1663.52 1344.71 1666.16 1346.68 1666.16 1349.12Z" fill="#D3D2F6"/>
<path d="M1701.58 1349.12C1701.58 1351.55 1698.94 1353.53 1695.68 1353.53C1692.42 1353.53 1689.77 1351.55 1689.77 1349.12C1689.77 1346.68 1692.42 1344.71 1695.68 1344.71C1698.94 1344.71 1701.58 1346.68 1701.58 1349.12Z" fill="#D3D2F6"/>
<path d="M1737 1349.12C1737 1351.55 1734.36 1353.53 1731.1 1353.53C1727.84 1353.53 1725.19 1351.55 1725.19 1349.12C1725.19 1346.68 1727.84 1344.71 1731.1 1344.71C1734.36 1344.71 1737 1346.68 1737 1349.12Z" fill="#D3D2F6"/>
<path d="M1382.81 1375.59C1382.81 1378.02 1380.16 1380 1376.9 1380C1373.64 1380 1371 1378.02 1371 1375.59C1371 1373.15 1373.64 1371.18 1376.9 1371.18C1380.16 1371.18 1382.81 1373.15 1382.81 1375.59Z" fill="#D3D2F6"/>
<path d="M1418.23 1375.59C1418.23 1378.02 1415.58 1380 1412.32 1380C1409.06 1380 1406.42 1378.02 1406.42 1375.59C1406.42 1373.15 1409.06 1371.18 1412.32 1371.18C1415.58 1371.18 1418.23 1373.15 1418.23 1375.59Z" fill="#D3D2F6"/>
<path d="M1453.65 1375.59C1453.65 1378.02 1451 1380 1447.74 1380C1444.48 1380 1441.84 1378.02 1441.84 1375.59C1441.84 1373.15 1444.48 1371.18 1447.74 1371.18C1451 1371.18 1453.65 1373.15 1453.65 1375.59Z" fill="#D3D2F6"/>
<path d="M1489.06 1375.59C1489.06 1378.02 1486.42 1380 1483.16 1380C1479.9 1380 1477.26 1378.02 1477.26 1375.59C1477.26 1373.15 1479.9 1371.18 1483.16 1371.18C1486.42 1371.18 1489.06 1373.15 1489.06 1375.59Z" fill="#D3D2F6"/>
<path d="M1524.48 1375.59C1524.48 1378.02 1521.84 1380 1518.58 1380C1515.32 1380 1512.68 1378.02 1512.68 1375.59C1512.68 1373.15 1515.32 1371.18 1518.58 1371.18C1521.84 1371.18 1524.48 1373.15 1524.48 1375.59Z" fill="#D3D2F6"/>
<path d="M1559.9 1375.59C1559.9 1378.02 1557.26 1380 1554 1380C1550.74 1380 1548.1 1378.02 1548.1 1375.59C1548.1 1373.15 1550.74 1371.18 1554 1371.18C1557.26 1371.18 1559.9 1373.15 1559.9 1375.59Z" fill="#D3D2F6"/>
<path d="M1595.32 1375.59C1595.32 1378.02 1592.68 1380 1589.42 1380C1586.16 1380 1583.52 1378.02 1583.52 1375.59C1583.52 1373.15 1586.16 1371.18 1589.42 1371.18C1592.68 1371.18 1595.32 1373.15 1595.32 1375.59Z" fill="#D3D2F6"/>
<path d="M1630.74 1375.59C1630.74 1378.02 1628.1 1380 1624.84 1380C1621.58 1380 1618.94 1378.02 1618.94 1375.59C1618.94 1373.15 1621.58 1371.18 1624.84 1371.18C1628.1 1371.18 1630.74 1373.15 1630.74 1375.59Z" fill="#D3D2F6"/>
<path d="M1666.16 1375.59C1666.16 1378.02 1663.52 1380 1660.26 1380C1657 1380 1654.35 1378.02 1654.35 1375.59C1654.35 1373.15 1657 1371.18 1660.26 1371.18C1663.52 1371.18 1666.16 1373.15 1666.16 1375.59Z" fill="#D3D2F6"/>
<path d="M1701.58 1375.59C1701.58 1378.02 1698.94 1380 1695.68 1380C1692.42 1380 1689.77 1378.02 1689.77 1375.59C1689.77 1373.15 1692.42 1371.18 1695.68 1371.18C1698.94 1371.18 1701.58 1373.15 1701.58 1375.59Z" fill="#D3D2F6"/>
<path d="M1737 1375.59C1737 1378.02 1734.36 1380 1731.1 1380C1727.84 1380 1725.19 1378.02 1725.19 1375.59C1725.19 1373.15 1727.84 1371.18 1731.1 1371.18C1734.36 1371.18 1737 1373.15 1737 1375.59Z" fill="#D3D2F6"/>
<circle cx="1640" cy="497" r="50" fill="#D9D8F7"/>
<path d="M108.806 89.4118C108.806 91.8483 106.163 93.8235 102.903 93.8235C99.643 93.8235 97 91.8483 97 89.4118C97 86.9752 99.643 85 102.903 85C106.163 85 108.806 86.9752 108.806 89.4118Z" fill="#D3D2F6"/>
<path d="M144.226 89.4118C144.226 91.8483 141.583 93.8235 138.323 93.8235C135.062 93.8235 132.419 91.8483 132.419 89.4118C132.419 86.9752 135.062 85 138.323 85C141.583 85 144.226 86.9752 144.226 89.4118Z" fill="#D3D2F6"/>
<path d="M179.645 89.4118C179.645 91.8483 177.002 93.8235 173.742 93.8235C170.482 93.8235 167.839 91.8483 167.839 89.4118C167.839 86.9752 170.482 85 173.742 85C177.002 85 179.645 86.9752 179.645 89.4118Z" fill="#D3D2F6"/>
<path d="M215.065 89.4118C215.065 91.8483 212.422 93.8235 209.161 93.8235C205.901 93.8235 203.258 91.8483 203.258 89.4118C203.258 86.9752 205.901 85 209.161 85C212.422 85 215.065 86.9752 215.065 89.4118Z" fill="#D3D2F6"/>
<path d="M250.484 89.4118C250.484 91.8483 247.841 93.8235 244.581 93.8235C241.32 93.8235 238.677 91.8483 238.677 89.4118C238.677 86.9752 241.32 85 244.581 85C247.841 85 250.484 86.9752 250.484 89.4118Z" fill="#D3D2F6"/>
<path d="M285.903 89.4118C285.903 91.8483 283.26 93.8235 280 93.8235C276.74 93.8235 274.097 91.8483 274.097 89.4118C274.097 86.9752 276.74 85 280 85C283.26 85 285.903 86.9752 285.903 89.4118Z" fill="#D3D2F6"/>
<path d="M321.323 89.4118C321.323 91.8483 318.68 93.8235 315.419 93.8235C312.159 93.8235 309.516 91.8483 309.516 89.4118C309.516 86.9752 312.159 85 315.419 85C318.68 85 321.323 86.9752 321.323 89.4118Z" fill="#D3D2F6"/>
<path d="M356.742 89.4118C356.742 91.8483 354.099 93.8235 350.839 93.8235C347.578 93.8235 344.935 91.8483 344.935 89.4118C344.935 86.9752 347.578 85 350.839 85C354.099 85 356.742 86.9752 356.742 89.4118Z" fill="#D3D2F6"/>
<path d="M392.161 89.4118C392.161 91.8483 389.518 93.8235 386.258 93.8235C382.998 93.8235 380.355 91.8483 380.355 89.4118C380.355 86.9752 382.998 85 386.258 85C389.518 85 392.161 86.9752 392.161 89.4118Z" fill="#D3D2F6"/>
<path d="M427.581 89.4118C427.581 91.8483 424.938 93.8235 421.677 93.8235C418.417 93.8235 415.774 91.8483 415.774 89.4118C415.774 86.9752 418.417 85 421.677 85C424.938 85 427.581 86.9752 427.581 89.4118Z" fill="#D3D2F6"/>
<path d="M463 89.4118C463 91.8483 460.357 93.8235 457.097 93.8235C453.836 93.8235 451.194 91.8483 451.194 89.4118C451.194 86.9752 453.836 85 457.097 85C460.357 85 463 86.9752 463 89.4118Z" fill="#D3D2F6"/>
<path d="M108.806 115.882C108.806 118.319 106.163 120.294 102.903 120.294C99.643 120.294 97 118.319 97 115.882C97 113.446 99.643 111.471 102.903 111.471C106.163 111.471 108.806 113.446 108.806 115.882Z" fill="#D3D2F6"/>
<path d="M144.226 115.882C144.226 118.319 141.583 120.294 138.323 120.294C135.062 120.294 132.419 118.319 132.419 115.882C132.419 113.446 135.062 111.471 138.323 111.471C141.583 111.471 144.226 113.446 144.226 115.882Z" fill="#D3D2F6"/>
<path d="M179.645 115.882C179.645 118.319 177.002 120.294 173.742 120.294C170.482 120.294 167.839 118.319 167.839 115.882C167.839 113.446 170.482 111.471 173.742 111.471C177.002 111.471 179.645 113.446 179.645 115.882Z" fill="#D3D2F6"/>
<path d="M215.065 115.882C215.065 118.319 212.422 120.294 209.161 120.294C205.901 120.294 203.258 118.319 203.258 115.882C203.258 113.446 205.901 111.471 209.161 111.471C212.422 111.471 215.065 113.446 215.065 115.882Z" fill="#D3D2F6"/>
<path d="M250.484 115.882C250.484 118.319 247.841 120.294 244.581 120.294C241.32 120.294 238.677 118.319 238.677 115.882C238.677 113.446 241.32 111.471 244.581 111.471C247.841 111.471 250.484 113.446 250.484 115.882Z" fill="#D3D2F6"/>
<path d="M285.903 115.882C285.903 118.319 283.26 120.294 280 120.294C276.74 120.294 274.097 118.319 274.097 115.882C274.097 113.446 276.74 111.471 280 111.471C283.26 111.471 285.903 113.446 285.903 115.882Z" fill="#D3D2F6"/>
<path d="M321.323 115.882C321.323 118.319 318.68 120.294 315.419 120.294C312.159 120.294 309.516 118.319 309.516 115.882C309.516 113.446 312.159 111.471 315.419 111.471C318.68 111.471 321.323 113.446 321.323 115.882Z" fill="#D3D2F6"/>
<path d="M356.742 115.882C356.742 118.319 354.099 120.294 350.839 120.294C347.578 120.294 344.935 118.319 344.935 115.882C344.935 113.446 347.578 111.471 350.839 111.471C354.099 111.471 356.742 113.446 356.742 115.882Z" fill="#D3D2F6"/>
<path d="M392.161 115.882C392.161 118.319 389.518 120.294 386.258 120.294C382.998 120.294 380.355 118.319 380.355 115.882C380.355 113.446 382.998 111.471 386.258 111.471C389.518 111.471 392.161 113.446 392.161 115.882Z" fill="#D3D2F6"/>
<path d="M427.581 115.882C427.581 118.319 424.938 120.294 421.677 120.294C418.417 120.294 415.774 118.319 415.774 115.882C415.774 113.446 418.417 111.471 421.677 111.471C424.938 111.471 427.581 113.446 427.581 115.882Z" fill="#D3D2F6"/>
<path d="M463 115.882C463 118.319 460.357 120.294 457.097 120.294C453.836 120.294 451.194 118.319 451.194 115.882C451.194 113.446 453.836 111.471 457.097 111.471C460.357 111.471 463 113.446 463 115.882Z" fill="#D3D2F6"/>
<path d="M108.806 142.353C108.806 144.789 106.163 146.765 102.903 146.765C99.643 146.765 97 144.789 97 142.353C97 139.916 99.643 137.941 102.903 137.941C106.163 137.941 108.806 139.916 108.806 142.353Z" fill="#D3D2F6"/>
<path d="M144.226 142.353C144.226 144.789 141.583 146.765 138.323 146.765C135.062 146.765 132.419 144.789 132.419 142.353C132.419 139.916 135.062 137.941 138.323 137.941C141.583 137.941 144.226 139.916 144.226 142.353Z" fill="#D3D2F6"/>
<path d="M179.645 142.353C179.645 144.789 177.002 146.765 173.742 146.765C170.482 146.765 167.839 144.789 167.839 142.353C167.839 139.916 170.482 137.941 173.742 137.941C177.002 137.941 179.645 139.916 179.645 142.353Z" fill="#D3D2F6"/>
<path d="M215.065 142.353C215.065 144.789 212.422 146.765 209.161 146.765C205.901 146.765 203.258 144.789 203.258 142.353C203.258 139.916 205.901 137.941 209.161 137.941C212.422 137.941 215.065 139.916 215.065 142.353Z" fill="#D3D2F6"/>
<path d="M250.484 142.353C250.484 144.789 247.841 146.765 244.581 146.765C241.32 146.765 238.677 144.789 238.677 142.353C238.677 139.916 241.32 137.941 244.581 137.941C247.841 137.941 250.484 139.916 250.484 142.353Z" fill="#D3D2F6"/>
<path d="M285.903 142.353C285.903 144.789 283.26 146.765 280 146.765C276.74 146.765 274.097 144.789 274.097 142.353C274.097 139.916 276.74 137.941 280 137.941C283.26 137.941 285.903 139.916 285.903 142.353Z" fill="#D3D2F6"/>
<path d="M321.323 142.353C321.323 144.789 318.68 146.765 315.419 146.765C312.159 146.765 309.516 144.789 309.516 142.353C309.516 139.916 312.159 137.941 315.419 137.941C318.68 137.941 321.323 139.916 321.323 142.353Z" fill="#D3D2F6"/>
<path d="M356.742 142.353C356.742 144.789 354.099 146.765 350.839 146.765C347.578 146.765 344.935 144.789 344.935 142.353C344.935 139.916 347.578 137.941 350.839 137.941C354.099 137.941 356.742 139.916 356.742 142.353Z" fill="#D3D2F6"/>
<path d="M392.161 142.353C392.161 144.789 389.518 146.765 386.258 146.765C382.998 146.765 380.355 144.789 380.355 142.353C380.355 139.916 382.998 137.941 386.258 137.941C389.518 137.941 392.161 139.916 392.161 142.353Z" fill="#D3D2F6"/>
<path d="M427.581 142.353C427.581 144.789 424.938 146.765 421.677 146.765C418.417 146.765 415.774 144.789 415.774 142.353C415.774 139.916 418.417 137.941 421.677 137.941C424.938 137.941 427.581 139.916 427.581 142.353Z" fill="#D3D2F6"/>
<path d="M463 142.353C463 144.789 460.357 146.765 457.097 146.765C453.836 146.765 451.194 144.789 451.194 142.353C451.194 139.916 453.836 137.941 457.097 137.941C460.357 137.941 463 139.916 463 142.353Z" fill="#D3D2F6"/>
<path d="M108.806 168.824C108.806 171.26 106.163 173.235 102.903 173.235C99.643 173.235 97 171.26 97 168.824C97 166.387 99.643 164.412 102.903 164.412C106.163 164.412 108.806 166.387 108.806 168.824Z" fill="#D3D2F6"/>
<path d="M144.226 168.824C144.226 171.26 141.583 173.235 138.323 173.235C135.062 173.235 132.419 171.26 132.419 168.824C132.419 166.387 135.062 164.412 138.323 164.412C141.583 164.412 144.226 166.387 144.226 168.824Z" fill="#D3D2F6"/>
<path d="M179.645 168.824C179.645 171.26 177.002 173.235 173.742 173.235C170.482 173.235 167.839 171.26 167.839 168.824C167.839 166.387 170.482 164.412 173.742 164.412C177.002 164.412 179.645 166.387 179.645 168.824Z" fill="#D3D2F6"/>
<path d="M215.065 168.824C215.065 171.26 212.422 173.235 209.161 173.235C205.901 173.235 203.258 171.26 203.258 168.824C203.258 166.387 205.901 164.412 209.161 164.412C212.422 164.412 215.065 166.387 215.065 168.824Z" fill="#D3D2F6"/>
<path d="M250.484 168.824C250.484 171.26 247.841 173.235 244.581 173.235C241.32 173.235 238.677 171.26 238.677 168.824C238.677 166.387 241.32 164.412 244.581 164.412C247.841 164.412 250.484 166.387 250.484 168.824Z" fill="#D3D2F6"/>
<path d="M285.903 168.824C285.903 171.26 283.26 173.235 280 173.235C276.74 173.235 274.097 171.26 274.097 168.824C274.097 166.387 276.74 164.412 280 164.412C283.26 164.412 285.903 166.387 285.903 168.824Z" fill="#D3D2F6"/>
<path d="M321.323 168.824C321.323 171.26 318.68 173.235 315.419 173.235C312.159 173.235 309.516 171.26 309.516 168.824C309.516 166.387 312.159 164.412 315.419 164.412C318.68 164.412 321.323 166.387 321.323 168.824Z" fill="#D3D2F6"/>
<path d="M356.742 168.824C356.742 171.26 354.099 173.235 350.839 173.235C347.578 173.235 344.935 171.26 344.935 168.824C344.935 166.387 347.578 164.412 350.839 164.412C354.099 164.412 356.742 166.387 356.742 168.824Z" fill="#D3D2F6"/>
<path d="M392.161 168.824C392.161 171.26 389.518 173.235 386.258 173.235C382.998 173.235 380.355 171.26 380.355 168.824C380.355 166.387 382.998 164.412 386.258 164.412C389.518 164.412 392.161 166.387 392.161 168.824Z" fill="#D3D2F6"/>
<path d="M427.581 168.824C427.581 171.26 424.938 173.235 421.677 173.235C418.417 173.235 415.774 171.26 415.774 168.824C415.774 166.387 418.417 164.412 421.677 164.412C424.938 164.412 427.581 166.387 427.581 168.824Z" fill="#D3D2F6"/>
<path d="M463 168.824C463 171.26 460.357 173.235 457.097 173.235C453.836 173.235 451.194 171.26 451.194 168.824C451.194 166.387 453.836 164.412 457.097 164.412C460.357 164.412 463 166.387 463 168.824Z" fill="#D3D2F6"/>
<path d="M108.806 195.294C108.806 197.731 106.163 199.706 102.903 199.706C99.643 199.706 97 197.731 97 195.294C97 192.858 99.643 190.882 102.903 190.882C106.163 190.882 108.806 192.858 108.806 195.294Z" fill="#D3D2F6"/>
<path d="M144.226 195.294C144.226 197.731 141.583 199.706 138.323 199.706C135.062 199.706 132.419 197.731 132.419 195.294C132.419 192.858 135.062 190.882 138.323 190.882C141.583 190.882 144.226 192.858 144.226 195.294Z" fill="#D3D2F6"/>
<path d="M179.645 195.294C179.645 197.731 177.002 199.706 173.742 199.706C170.482 199.706 167.839 197.731 167.839 195.294C167.839 192.858 170.482 190.882 173.742 190.882C177.002 190.882 179.645 192.858 179.645 195.294Z" fill="#D3D2F6"/>
<path d="M215.065 195.294C215.065 197.731 212.422 199.706 209.161 199.706C205.901 199.706 203.258 197.731 203.258 195.294C203.258 192.858 205.901 190.882 209.161 190.882C212.422 190.882 215.065 192.858 215.065 195.294Z" fill="#D3D2F6"/>
<path d="M250.484 195.294C250.484 197.731 247.841 199.706 244.581 199.706C241.32 199.706 238.677 197.731 238.677 195.294C238.677 192.858 241.32 190.882 244.581 190.882C247.841 190.882 250.484 192.858 250.484 195.294Z" fill="#D3D2F6"/>
<path d="M285.903 195.294C285.903 197.731 283.26 199.706 280 199.706C276.74 199.706 274.097 197.731 274.097 195.294C274.097 192.858 276.74 190.882 280 190.882C283.26 190.882 285.903 192.858 285.903 195.294Z" fill="#D3D2F6"/>
<path d="M321.323 195.294C321.323 197.731 318.68 199.706 315.419 199.706C312.159 199.706 309.516 197.731 309.516 195.294C309.516 192.858 312.159 190.882 315.419 190.882C318.68 190.882 321.323 192.858 321.323 195.294Z" fill="#D3D2F6"/>
<path d="M356.742 195.294C356.742 197.731 354.099 199.706 350.839 199.706C347.578 199.706 344.935 197.731 344.935 195.294C344.935 192.858 347.578 190.882 350.839 190.882C354.099 190.882 356.742 192.858 356.742 195.294Z" fill="#D3D2F6"/>
<path d="M392.161 195.294C392.161 197.731 389.518 199.706 386.258 199.706C382.998 199.706 380.355 197.731 380.355 195.294C380.355 192.858 382.998 190.882 386.258 190.882C389.518 190.882 392.161 192.858 392.161 195.294Z" fill="#D3D2F6"/>
<path d="M427.581 195.294C427.581 197.731 424.938 199.706 421.677 199.706C418.417 199.706 415.774 197.731 415.774 195.294C415.774 192.858 418.417 190.882 421.677 190.882C424.938 190.882 427.581 192.858 427.581 195.294Z" fill="#D3D2F6"/>
<path d="M463 195.294C463 197.731 460.357 199.706 457.097 199.706C453.836 199.706 451.194 197.731 451.194 195.294C451.194 192.858 453.836 190.882 457.097 190.882C460.357 190.882 463 192.858 463 195.294Z" fill="#D3D2F6"/>
<path d="M108.806 221.765C108.806 224.201 106.163 226.176 102.903 226.176C99.643 226.176 97 224.201 97 221.765C97 219.328 99.643 217.353 102.903 217.353C106.163 217.353 108.806 219.328 108.806 221.765Z" fill="#D3D2F6"/>
<path d="M144.226 221.765C144.226 224.201 141.583 226.176 138.323 226.176C135.062 226.176 132.419 224.201 132.419 221.765C132.419 219.328 135.062 217.353 138.323 217.353C141.583 217.353 144.226 219.328 144.226 221.765Z" fill="#D3D2F6"/>
<path d="M179.645 221.765C179.645 224.201 177.002 226.176 173.742 226.176C170.482 226.176 167.839 224.201 167.839 221.765C167.839 219.328 170.482 217.353 173.742 217.353C177.002 217.353 179.645 219.328 179.645 221.765Z" fill="#D3D2F6"/>
<path d="M215.065 221.765C215.065 224.201 212.422 226.176 209.161 226.176C205.901 226.176 203.258 224.201 203.258 221.765C203.258 219.328 205.901 217.353 209.161 217.353C212.422 217.353 215.065 219.328 215.065 221.765Z" fill="#D3D2F6"/>
<path d="M250.484 221.765C250.484 224.201 247.841 226.176 244.581 226.176C241.32 226.176 238.677 224.201 238.677 221.765C238.677 219.328 241.32 217.353 244.581 217.353C247.841 217.353 250.484 219.328 250.484 221.765Z" fill="#D3D2F6"/>
<path d="M285.903 221.765C285.903 224.201 283.26 226.176 280 226.176C276.74 226.176 274.097 224.201 274.097 221.765C274.097 219.328 276.74 217.353 280 217.353C283.26 217.353 285.903 219.328 285.903 221.765Z" fill="#D3D2F6"/>
<path d="M321.323 221.765C321.323 224.201 318.68 226.176 315.419 226.176C312.159 226.176 309.516 224.201 309.516 221.765C309.516 219.328 312.159 217.353 315.419 217.353C318.68 217.353 321.323 219.328 321.323 221.765Z" fill="#D3D2F6"/>
<path d="M356.742 221.765C356.742 224.201 354.099 226.176 350.839 226.176C347.578 226.176 344.935 224.201 344.935 221.765C344.935 219.328 347.578 217.353 350.839 217.353C354.099 217.353 356.742 219.328 356.742 221.765Z" fill="#D3D2F6"/>
<path d="M392.161 221.765C392.161 224.201 389.518 226.176 386.258 226.176C382.998 226.176 380.355 224.201 380.355 221.765C380.355 219.328 382.998 217.353 386.258 217.353C389.518 217.353 392.161 219.328 392.161 221.765Z" fill="#D3D2F6"/>
<path d="M427.581 221.765C427.581 224.201 424.938 226.176 421.677 226.176C418.417 226.176 415.774 224.201 415.774 221.765C415.774 219.328 418.417 217.353 421.677 217.353C424.938 217.353 427.581 219.328 427.581 221.765Z" fill="#D3D2F6"/>
<path d="M463 221.765C463 224.201 460.357 226.176 457.097 226.176C453.836 226.176 451.194 224.201 451.194 221.765C451.194 219.328 453.836 217.353 457.097 217.353C460.357 217.353 463 219.328 463 221.765Z" fill="#D3D2F6"/>
<path d="M108.806 248.235C108.806 250.672 106.163 252.647 102.903 252.647C99.643 252.647 97 250.672 97 248.235C97 245.799 99.643 243.824 102.903 243.824C106.163 243.824 108.806 245.799 108.806 248.235Z" fill="#D3D2F6"/>
<path d="M144.226 248.235C144.226 250.672 141.583 252.647 138.323 252.647C135.062 252.647 132.419 250.672 132.419 248.235C132.419 245.799 135.062 243.824 138.323 243.824C141.583 243.824 144.226 245.799 144.226 248.235Z" fill="#D3D2F6"/>
<path d="M179.645 248.235C179.645 250.672 177.002 252.647 173.742 252.647C170.482 252.647 167.839 250.672 167.839 248.235C167.839 245.799 170.482 243.824 173.742 243.824C177.002 243.824 179.645 245.799 179.645 248.235Z" fill="#D3D2F6"/>
<path d="M215.065 248.235C215.065 250.672 212.422 252.647 209.161 252.647C205.901 252.647 203.258 250.672 203.258 248.235C203.258 245.799 205.901 243.824 209.161 243.824C212.422 243.824 215.065 245.799 215.065 248.235Z" fill="#D3D2F6"/>
<path d="M250.484 248.235C250.484 250.672 247.841 252.647 244.581 252.647C241.32 252.647 238.677 250.672 238.677 248.235C238.677 245.799 241.32 243.824 244.581 243.824C247.841 243.824 250.484 245.799 250.484 248.235Z" fill="#D3D2F6"/>
<path d="M285.903 248.235C285.903 250.672 283.26 252.647 280 252.647C276.74 252.647 274.097 250.672 274.097 248.235C274.097 245.799 276.74 243.824 280 243.824C283.26 243.824 285.903 245.799 285.903 248.235Z" fill="#D3D2F6"/>
<path d="M321.323 248.235C321.323 250.672 318.68 252.647 315.419 252.647C312.159 252.647 309.516 250.672 309.516 248.235C309.516 245.799 312.159 243.824 315.419 243.824C318.68 243.824 321.323 245.799 321.323 248.235Z" fill="#D3D2F6"/>
<path d="M356.742 248.235C356.742 250.672 354.099 252.647 350.839 252.647C347.578 252.647 344.935 250.672 344.935 248.235C344.935 245.799 347.578 243.824 350.839 243.824C354.099 243.824 356.742 245.799 356.742 248.235Z" fill="#D3D2F6"/>
<path d="M392.161 248.235C392.161 250.672 389.518 252.647 386.258 252.647C382.998 252.647 380.355 250.672 380.355 248.235C380.355 245.799 382.998 243.824 386.258 243.824C389.518 243.824 392.161 245.799 392.161 248.235Z" fill="#D3D2F6"/>
<path d="M427.581 248.235C427.581 250.672 424.938 252.647 421.677 252.647C418.417 252.647 415.774 250.672 415.774 248.235C415.774 245.799 418.417 243.824 421.677 243.824C424.938 243.824 427.581 245.799 427.581 248.235Z" fill="#D3D2F6"/>
<path d="M463 248.235C463 250.672 460.357 252.647 457.097 252.647C453.836 252.647 451.194 250.672 451.194 248.235C451.194 245.799 453.836 243.824 457.097 243.824C460.357 243.824 463 245.799 463 248.235Z" fill="#D3D2F6"/>
<path d="M108.806 274.706C108.806 277.142 106.163 279.118 102.903 279.118C99.643 279.118 97 277.142 97 274.706C97 272.269 99.643 270.294 102.903 270.294C106.163 270.294 108.806 272.269 108.806 274.706Z" fill="#D3D2F6"/>
<path d="M144.226 274.706C144.226 277.142 141.583 279.118 138.323 279.118C135.062 279.118 132.419 277.142 132.419 274.706C132.419 272.269 135.062 270.294 138.323 270.294C141.583 270.294 144.226 272.269 144.226 274.706Z" fill="#D3D2F6"/>
<path d="M179.645 274.706C179.645 277.142 177.002 279.118 173.742 279.118C170.482 279.118 167.839 277.142 167.839 274.706C167.839 272.269 170.482 270.294 173.742 270.294C177.002 270.294 179.645 272.269 179.645 274.706Z" fill="#D3D2F6"/>
<path d="M215.065 274.706C215.065 277.142 212.422 279.118 209.161 279.118C205.901 279.118 203.258 277.142 203.258 274.706C203.258 272.269 205.901 270.294 209.161 270.294C212.422 270.294 215.065 272.269 215.065 274.706Z" fill="#D3D2F6"/>
<path d="M250.484 274.706C250.484 277.142 247.841 279.118 244.581 279.118C241.32 279.118 238.677 277.142 238.677 274.706C238.677 272.269 241.32 270.294 244.581 270.294C247.841 270.294 250.484 272.269 250.484 274.706Z" fill="#D3D2F6"/>
<path d="M285.903 274.706C285.903 277.142 283.26 279.118 280 279.118C276.74 279.118 274.097 277.142 274.097 274.706C274.097 272.269 276.74 270.294 280 270.294C283.26 270.294 285.903 272.269 285.903 274.706Z" fill="#D3D2F6"/>
<path d="M321.323 274.706C321.323 277.142 318.68 279.118 315.419 279.118C312.159 279.118 309.516 277.142 309.516 274.706C309.516 272.269 312.159 270.294 315.419 270.294C318.68 270.294 321.323 272.269 321.323 274.706Z" fill="#D3D2F6"/>
<path d="M356.742 274.706C356.742 277.142 354.099 279.118 350.839 279.118C347.578 279.118 344.935 277.142 344.935 274.706C344.935 272.269 347.578 270.294 350.839 270.294C354.099 270.294 356.742 272.269 356.742 274.706Z" fill="#D3D2F6"/>
<path d="M392.161 274.706C392.161 277.142 389.518 279.118 386.258 279.118C382.998 279.118 380.355 277.142 380.355 274.706C380.355 272.269 382.998 270.294 386.258 270.294C389.518 270.294 392.161 272.269 392.161 274.706Z" fill="#D3D2F6"/>
<path d="M427.581 274.706C427.581 277.142 424.938 279.118 421.677 279.118C418.417 279.118 415.774 277.142 415.774 274.706C415.774 272.269 418.417 270.294 421.677 270.294C424.938 270.294 427.581 272.269 427.581 274.706Z" fill="#D3D2F6"/>
<path d="M463 274.706C463 277.142 460.357 279.118 457.097 279.118C453.836 279.118 451.194 277.142 451.194 274.706C451.194 272.269 453.836 270.294 457.097 270.294C460.357 270.294 463 272.269 463 274.706Z" fill="#D3D2F6"/>
<path d="M108.806 301.176C108.806 303.613 106.163 305.588 102.903 305.588C99.643 305.588 97 303.613 97 301.176C97 298.74 99.643 296.765 102.903 296.765C106.163 296.765 108.806 298.74 108.806 301.176Z" fill="#D3D2F6"/>
<path d="M144.226 301.176C144.226 303.613 141.583 305.588 138.323 305.588C135.062 305.588 132.419 303.613 132.419 301.176C132.419 298.74 135.062 296.765 138.323 296.765C141.583 296.765 144.226 298.74 144.226 301.176Z" fill="#D3D2F6"/>
<path d="M179.645 301.176C179.645 303.613 177.002 305.588 173.742 305.588C170.482 305.588 167.839 303.613 167.839 301.176C167.839 298.74 170.482 296.765 173.742 296.765C177.002 296.765 179.645 298.74 179.645 301.176Z" fill="#D3D2F6"/>
<path d="M215.065 301.176C215.065 303.613 212.422 305.588 209.161 305.588C205.901 305.588 203.258 303.613 203.258 301.176C203.258 298.74 205.901 296.765 209.161 296.765C212.422 296.765 215.065 298.74 215.065 301.176Z" fill="#D3D2F6"/>
<path d="M250.484 301.176C250.484 303.613 247.841 305.588 244.581 305.588C241.32 305.588 238.677 303.613 238.677 301.176C238.677 298.74 241.32 296.765 244.581 296.765C247.841 296.765 250.484 298.74 250.484 301.176Z" fill="#D3D2F6"/>
<path d="M285.903 301.176C285.903 303.613 283.26 305.588 280 305.588C276.74 305.588 274.097 303.613 274.097 301.176C274.097 298.74 276.74 296.765 280 296.765C283.26 296.765 285.903 298.74 285.903 301.176Z" fill="#D3D2F6"/>
<path d="M321.323 301.176C321.323 303.613 318.68 305.588 315.419 305.588C312.159 305.588 309.516 303.613 309.516 301.176C309.516 298.74 312.159 296.765 315.419 296.765C318.68 296.765 321.323 298.74 321.323 301.176Z" fill="#D3D2F6"/>
<path d="M356.742 301.176C356.742 303.613 354.099 305.588 350.839 305.588C347.578 305.588 344.935 303.613 344.935 301.176C344.935 298.74 347.578 296.765 350.839 296.765C354.099 296.765 356.742 298.74 356.742 301.176Z" fill="#D3D2F6"/>
<path d="M392.161 301.176C392.161 303.613 389.518 305.588 386.258 305.588C382.998 305.588 380.355 303.613 380.355 301.176C380.355 298.74 382.998 296.765 386.258 296.765C389.518 296.765 392.161 298.74 392.161 301.176Z" fill="#D3D2F6"/>
<path d="M427.581 301.176C427.581 303.613 424.938 305.588 421.677 305.588C418.417 305.588 415.774 303.613 415.774 301.176C415.774 298.74 418.417 296.765 421.677 296.765C424.938 296.765 427.581 298.74 427.581 301.176Z" fill="#D3D2F6"/>
<path d="M463 301.176C463 303.613 460.357 305.588 457.097 305.588C453.836 305.588 451.194 303.613 451.194 301.176C451.194 298.74 453.836 296.765 457.097 296.765C460.357 296.765 463 298.74 463 301.176Z" fill="#D3D2F6"/>
<path d="M108.806 327.647C108.806 330.084 106.163 332.059 102.903 332.059C99.643 332.059 97 330.084 97 327.647C97 325.211 99.643 323.235 102.903 323.235C106.163 323.235 108.806 325.211 108.806 327.647Z" fill="#D3D2F6"/>
<path d="M144.226 327.647C144.226 330.084 141.583 332.059 138.323 332.059C135.062 332.059 132.419 330.084 132.419 327.647C132.419 325.211 135.062 323.235 138.323 323.235C141.583 323.235 144.226 325.211 144.226 327.647Z" fill="#D3D2F6"/>
<path d="M179.645 327.647C179.645 330.084 177.002 332.059 173.742 332.059C170.482 332.059 167.839 330.084 167.839 327.647C167.839 325.211 170.482 323.235 173.742 323.235C177.002 323.235 179.645 325.211 179.645 327.647Z" fill="#D3D2F6"/>
<path d="M215.065 327.647C215.065 330.084 212.422 332.059 209.161 332.059C205.901 332.059 203.258 330.084 203.258 327.647C203.258 325.211 205.901 323.235 209.161 323.235C212.422 323.235 215.065 325.211 215.065 327.647Z" fill="#D3D2F6"/>
<path d="M250.484 327.647C250.484 330.084 247.841 332.059 244.581 332.059C241.32 332.059 238.677 330.084 238.677 327.647C238.677 325.211 241.32 323.235 244.581 323.235C247.841 323.235 250.484 325.211 250.484 327.647Z" fill="#D3D2F6"/>
<path d="M285.903 327.647C285.903 330.084 283.26 332.059 280 332.059C276.74 332.059 274.097 330.084 274.097 327.647C274.097 325.211 276.74 323.235 280 323.235C283.26 323.235 285.903 325.211 285.903 327.647Z" fill="#D3D2F6"/>
<path d="M321.323 327.647C321.323 330.084 318.68 332.059 315.419 332.059C312.159 332.059 309.516 330.084 309.516 327.647C309.516 325.211 312.159 323.235 315.419 323.235C318.68 323.235 321.323 325.211 321.323 327.647Z" fill="#D3D2F6"/>
<path d="M356.742 327.647C356.742 330.084 354.099 332.059 350.839 332.059C347.578 332.059 344.935 330.084 344.935 327.647C344.935 325.211 347.578 323.235 350.839 323.235C354.099 323.235 356.742 325.211 356.742 327.647Z" fill="#D3D2F6"/>
<path d="M392.161 327.647C392.161 330.084 389.518 332.059 386.258 332.059C382.998 332.059 380.355 330.084 380.355 327.647C380.355 325.211 382.998 323.235 386.258 323.235C389.518 323.235 392.161 325.211 392.161 327.647Z" fill="#D3D2F6"/>
<path d="M427.581 327.647C427.581 330.084 424.938 332.059 421.677 332.059C418.417 332.059 415.774 330.084 415.774 327.647C415.774 325.211 418.417 323.235 421.677 323.235C424.938 323.235 427.581 325.211 427.581 327.647Z" fill="#D3D2F6"/>
<path d="M463 327.647C463 330.084 460.357 332.059 457.097 332.059C453.836 332.059 451.194 330.084 451.194 327.647C451.194 325.211 453.836 323.235 457.097 323.235C460.357 323.235 463 325.211 463 327.647Z" fill="#D3D2F6"/>
<path d="M108.806 354.118C108.806 356.554 106.163 358.529 102.903 358.529C99.643 358.529 97 356.554 97 354.118C97 351.681 99.643 349.706 102.903 349.706C106.163 349.706 108.806 351.681 108.806 354.118Z" fill="#D3D2F6"/>
<path d="M144.226 354.118C144.226 356.554 141.583 358.529 138.323 358.529C135.062 358.529 132.419 356.554 132.419 354.118C132.419 351.681 135.062 349.706 138.323 349.706C141.583 349.706 144.226 351.681 144.226 354.118Z" fill="#D3D2F6"/>
<path d="M179.645 354.118C179.645 356.554 177.002 358.529 173.742 358.529C170.482 358.529 167.839 356.554 167.839 354.118C167.839 351.681 170.482 349.706 173.742 349.706C177.002 349.706 179.645 351.681 179.645 354.118Z" fill="#D3D2F6"/>
<path d="M215.065 354.118C215.065 356.554 212.422 358.529 209.161 358.529C205.901 358.529 203.258 356.554 203.258 354.118C203.258 351.681 205.901 349.706 209.161 349.706C212.422 349.706 215.065 351.681 215.065 354.118Z" fill="#D3D2F6"/>
<path d="M250.484 354.118C250.484 356.554 247.841 358.529 244.581 358.529C241.32 358.529 238.677 356.554 238.677 354.118C238.677 351.681 241.32 349.706 244.581 349.706C247.841 349.706 250.484 351.681 250.484 354.118Z" fill="#D3D2F6"/>
<path d="M285.903 354.118C285.903 356.554 283.26 358.529 280 358.529C276.74 358.529 274.097 356.554 274.097 354.118C274.097 351.681 276.74 349.706 280 349.706C283.26 349.706 285.903 351.681 285.903 354.118Z" fill="#D3D2F6"/>
<path d="M321.323 354.118C321.323 356.554 318.68 358.529 315.419 358.529C312.159 358.529 309.516 356.554 309.516 354.118C309.516 351.681 312.159 349.706 315.419 349.706C318.68 349.706 321.323 351.681 321.323 354.118Z" fill="#D3D2F6"/>
<path d="M356.742 354.118C356.742 356.554 354.099 358.529 350.839 358.529C347.578 358.529 344.935 356.554 344.935 354.118C344.935 351.681 347.578 349.706 350.839 349.706C354.099 349.706 356.742 351.681 356.742 354.118Z" fill="#D3D2F6"/>
<path d="M392.161 354.118C392.161 356.554 389.518 358.529 386.258 358.529C382.998 358.529 380.355 356.554 380.355 354.118C380.355 351.681 382.998 349.706 386.258 349.706C389.518 349.706 392.161 351.681 392.161 354.118Z" fill="#D3D2F6"/>
<path d="M427.581 354.118C427.581 356.554 424.938 358.529 421.677 358.529C418.417 358.529 415.774 356.554 415.774 354.118C415.774 351.681 418.417 349.706 421.677 349.706C424.938 349.706 427.581 351.681 427.581 354.118Z" fill="#D3D2F6"/>
<path d="M463 354.118C463 356.554 460.357 358.529 457.097 358.529C453.836 358.529 451.194 356.554 451.194 354.118C451.194 351.681 453.836 349.706 457.097 349.706C460.357 349.706 463 351.681 463 354.118Z" fill="#D3D2F6"/>
<path d="M108.806 380.588C108.806 383.025 106.163 385 102.903 385C99.643 385 97 383.025 97 380.588C97 378.152 99.643 376.176 102.903 376.176C106.163 376.176 108.806 378.152 108.806 380.588Z" fill="#D3D2F6"/>
<path d="M144.226 380.588C144.226 383.025 141.583 385 138.323 385C135.062 385 132.419 383.025 132.419 380.588C132.419 378.152 135.062 376.176 138.323 376.176C141.583 376.176 144.226 378.152 144.226 380.588Z" fill="#D3D2F6"/>
<path d="M179.645 380.588C179.645 383.025 177.002 385 173.742 385C170.482 385 167.839 383.025 167.839 380.588C167.839 378.152 170.482 376.176 173.742 376.176C177.002 376.176 179.645 378.152 179.645 380.588Z" fill="#D3D2F6"/>
<path d="M215.065 380.588C215.065 383.025 212.422 385 209.161 385C205.901 385 203.258 383.025 203.258 380.588C203.258 378.152 205.901 376.176 209.161 376.176C212.422 376.176 215.065 378.152 215.065 380.588Z" fill="#D3D2F6"/>
<path d="M250.484 380.588C250.484 383.025 247.841 385 244.581 385C241.32 385 238.677 383.025 238.677 380.588C238.677 378.152 241.32 376.176 244.581 376.176C247.841 376.176 250.484 378.152 250.484 380.588Z" fill="#D3D2F6"/>
<path d="M285.903 380.588C285.903 383.025 283.26 385 280 385C276.74 385 274.097 383.025 274.097 380.588C274.097 378.152 276.74 376.176 280 376.176C283.26 376.176 285.903 378.152 285.903 380.588Z" fill="#D3D2F6"/>
<path d="M321.323 380.588C321.323 383.025 318.68 385 315.419 385C312.159 385 309.516 383.025 309.516 380.588C309.516 378.152 312.159 376.176 315.419 376.176C318.68 376.176 321.323 378.152 321.323 380.588Z" fill="#D3D2F6"/>
<path d="M356.742 380.588C356.742 383.025 354.099 385 350.839 385C347.578 385 344.935 383.025 344.935 380.588C344.935 378.152 347.578 376.176 350.839 376.176C354.099 376.176 356.742 378.152 356.742 380.588Z" fill="#D3D2F6"/>
<path d="M392.161 380.588C392.161 383.025 389.518 385 386.258 385C382.998 385 380.355 383.025 380.355 380.588C380.355 378.152 382.998 376.176 386.258 376.176C389.518 376.176 392.161 378.152 392.161 380.588Z" fill="#D3D2F6"/>
<path d="M427.581 380.588C427.581 383.025 424.938 385 421.677 385C418.417 385 415.774 383.025 415.774 380.588C415.774 378.152 418.417 376.176 421.677 376.176C424.938 376.176 427.581 378.152 427.581 380.588Z" fill="#D3D2F6"/>
<path d="M463 380.588C463 383.025 460.357 385 457.097 385C453.836 385 451.194 383.025 451.194 380.588C451.194 378.152 453.836 376.176 457.097 376.176C460.357 376.176 463 378.152 463 380.588Z" fill="#D3D2F6"/>
</svg>
