<svg width="1920" height="1300" viewBox="0 0 1920 1300" fill="none" xmlns="http://www.w3.org/2000/svg">
<circle cx="594" cy="829" r="175" fill="#EAEAF7"/>
<circle cx="1411" cy="451" r="40" fill="#D9D8F7"/>
<path d="M389.161 38.1618C389.161 39.908 387.11 41.3235 384.581 41.3235C382.051 41.3235 380 39.908 380 38.1618C380 36.4156 382.051 35 384.581 35C387.11 35 389.161 36.4156 389.161 38.1618Z" fill="#D3D2F6"/>
<path d="M416.645 38.1618C416.645 39.908 414.594 41.3235 412.065 41.3235C409.535 41.3235 407.484 39.908 407.484 38.1618C407.484 36.4156 409.535 35 412.065 35C414.594 35 416.645 36.4156 416.645 38.1618Z" fill="#D3D2F6"/>
<path d="M444.129 38.1618C444.129 39.908 442.078 41.3235 439.548 41.3235C437.019 41.3235 434.968 39.908 434.968 38.1618C434.968 36.4156 437.019 35 439.548 35C442.078 35 444.129 36.4156 444.129 38.1618Z" fill="#D3D2F6"/>
<path d="M471.613 38.1618C471.613 39.908 469.562 41.3235 467.032 41.3235C464.502 41.3235 462.452 39.908 462.452 38.1618C462.452 36.4156 464.502 35 467.032 35C469.562 35 471.613 36.4156 471.613 38.1618Z" fill="#D3D2F6"/>
<path d="M499.097 38.1618C499.097 39.908 497.046 41.3235 494.516 41.3235C491.986 41.3235 489.935 39.908 489.935 38.1618C489.935 36.4156 491.986 35 494.516 35C497.046 35 499.097 36.4156 499.097 38.1618Z" fill="#D3D2F6"/>
<path d="M526.581 38.1618C526.581 39.908 524.53 41.3235 522 41.3235C519.47 41.3235 517.419 39.908 517.419 38.1618C517.419 36.4156 519.47 35 522 35C524.53 35 526.581 36.4156 526.581 38.1618Z" fill="#D3D2F6"/>
<path d="M554.065 38.1618C554.065 39.908 552.014 41.3235 549.484 41.3235C546.954 41.3235 544.903 39.908 544.903 38.1618C544.903 36.4156 546.954 35 549.484 35C552.014 35 554.065 36.4156 554.065 38.1618Z" fill="#D3D2F6"/>
<path d="M581.548 38.1618C581.548 39.908 579.498 41.3235 576.968 41.3235C574.438 41.3235 572.387 39.908 572.387 38.1618C572.387 36.4156 574.438 35 576.968 35C579.498 35 581.548 36.4156 581.548 38.1618Z" fill="#D3D2F6"/>
<path d="M609.032 38.1618C609.032 39.908 606.981 41.3235 604.452 41.3235C601.922 41.3235 599.871 39.908 599.871 38.1618C599.871 36.4156 601.922 35 604.452 35C606.981 35 609.032 36.4156 609.032 38.1618Z" fill="#D3D2F6"/>
<path d="M636.516 38.1618C636.516 39.908 634.465 41.3235 631.935 41.3235C629.406 41.3235 627.355 39.908 627.355 38.1618C627.355 36.4156 629.406 35 631.935 35C634.465 35 636.516 36.4156 636.516 38.1618Z" fill="#D3D2F6"/>
<path d="M664 38.1618C664 39.908 661.949 41.3235 659.419 41.3235C656.89 41.3235 654.839 39.908 654.839 38.1618C654.839 36.4156 656.89 35 659.419 35C661.949 35 664 36.4156 664 38.1618Z" fill="#D3D2F6"/>
<path d="M389.161 57.1324C389.161 58.8785 387.11 60.2941 384.581 60.2941C382.051 60.2941 380 58.8785 380 57.1324C380 55.3862 382.051 53.9706 384.581 53.9706C387.11 53.9706 389.161 55.3862 389.161 57.1324Z" fill="#D3D2F6"/>
<path d="M416.645 57.1324C416.645 58.8785 414.594 60.2941 412.065 60.2941C409.535 60.2941 407.484 58.8785 407.484 57.1324C407.484 55.3862 409.535 53.9706 412.065 53.9706C414.594 53.9706 416.645 55.3862 416.645 57.1324Z" fill="#D3D2F6"/>
<path d="M444.129 57.1324C444.129 58.8785 442.078 60.2941 439.548 60.2941C437.019 60.2941 434.968 58.8785 434.968 57.1324C434.968 55.3862 437.019 53.9706 439.548 53.9706C442.078 53.9706 444.129 55.3862 444.129 57.1324Z" fill="#D3D2F6"/>
<path d="M471.613 57.1324C471.613 58.8785 469.562 60.2941 467.032 60.2941C464.502 60.2941 462.452 58.8785 462.452 57.1324C462.452 55.3862 464.502 53.9706 467.032 53.9706C469.562 53.9706 471.613 55.3862 471.613 57.1324Z" fill="#D3D2F6"/>
<path d="M499.097 57.1324C499.097 58.8785 497.046 60.2941 494.516 60.2941C491.986 60.2941 489.935 58.8785 489.935 57.1324C489.935 55.3862 491.986 53.9706 494.516 53.9706C497.046 53.9706 499.097 55.3862 499.097 57.1324Z" fill="#D3D2F6"/>
<path d="M526.581 57.1324C526.581 58.8785 524.53 60.2941 522 60.2941C519.47 60.2941 517.419 58.8785 517.419 57.1324C517.419 55.3862 519.47 53.9706 522 53.9706C524.53 53.9706 526.581 55.3862 526.581 57.1324Z" fill="#D3D2F6"/>
<path d="M554.065 57.1324C554.065 58.8785 552.014 60.2941 549.484 60.2941C546.954 60.2941 544.903 58.8785 544.903 57.1324C544.903 55.3862 546.954 53.9706 549.484 53.9706C552.014 53.9706 554.065 55.3862 554.065 57.1324Z" fill="#D3D2F6"/>
<path d="M581.548 57.1324C581.548 58.8785 579.498 60.2941 576.968 60.2941C574.438 60.2941 572.387 58.8785 572.387 57.1324C572.387 55.3862 574.438 53.9706 576.968 53.9706C579.498 53.9706 581.548 55.3862 581.548 57.1324Z" fill="#D3D2F6"/>
<path d="M609.032 57.1324C609.032 58.8785 606.981 60.2941 604.452 60.2941C601.922 60.2941 599.871 58.8785 599.871 57.1324C599.871 55.3862 601.922 53.9706 604.452 53.9706C606.981 53.9706 609.032 55.3862 609.032 57.1324Z" fill="#D3D2F6"/>
<path d="M636.516 57.1324C636.516 58.8785 634.465 60.2941 631.935 60.2941C629.406 60.2941 627.355 58.8785 627.355 57.1324C627.355 55.3862 629.406 53.9706 631.935 53.9706C634.465 53.9706 636.516 55.3862 636.516 57.1324Z" fill="#D3D2F6"/>
<path d="M664 57.1324C664 58.8785 661.949 60.2941 659.419 60.2941C656.89 60.2941 654.839 58.8785 654.839 57.1324C654.839 55.3862 656.89 53.9706 659.419 53.9706C661.949 53.9706 664 55.3862 664 57.1324Z" fill="#D3D2F6"/>
<path d="M389.161 76.1029C389.161 77.8491 387.11 79.2647 384.581 79.2647C382.051 79.2647 380 77.8491 380 76.1029C380 74.3567 382.051 72.9412 384.581 72.9412C387.11 72.9412 389.161 74.3567 389.161 76.1029Z" fill="#D3D2F6"/>
<path d="M416.645 76.1029C416.645 77.8491 414.594 79.2647 412.065 79.2647C409.535 79.2647 407.484 77.8491 407.484 76.1029C407.484 74.3567 409.535 72.9412 412.065 72.9412C414.594 72.9412 416.645 74.3567 416.645 76.1029Z" fill="#D3D2F6"/>
<path d="M444.129 76.1029C444.129 77.8491 442.078 79.2647 439.548 79.2647C437.019 79.2647 434.968 77.8491 434.968 76.1029C434.968 74.3567 437.019 72.9412 439.548 72.9412C442.078 72.9412 444.129 74.3567 444.129 76.1029Z" fill="#D3D2F6"/>
<path d="M471.613 76.1029C471.613 77.8491 469.562 79.2647 467.032 79.2647C464.502 79.2647 462.452 77.8491 462.452 76.1029C462.452 74.3567 464.502 72.9412 467.032 72.9412C469.562 72.9412 471.613 74.3567 471.613 76.1029Z" fill="#D3D2F6"/>
<path d="M499.097 76.1029C499.097 77.8491 497.046 79.2647 494.516 79.2647C491.986 79.2647 489.935 77.8491 489.935 76.1029C489.935 74.3567 491.986 72.9412 494.516 72.9412C497.046 72.9412 499.097 74.3567 499.097 76.1029Z" fill="#D3D2F6"/>
<path d="M526.581 76.1029C526.581 77.8491 524.53 79.2647 522 79.2647C519.47 79.2647 517.419 77.8491 517.419 76.1029C517.419 74.3567 519.47 72.9412 522 72.9412C524.53 72.9412 526.581 74.3567 526.581 76.1029Z" fill="#D3D2F6"/>
<path d="M554.065 76.1029C554.065 77.8491 552.014 79.2647 549.484 79.2647C546.954 79.2647 544.903 77.8491 544.903 76.1029C544.903 74.3567 546.954 72.9412 549.484 72.9412C552.014 72.9412 554.065 74.3567 554.065 76.1029Z" fill="#D3D2F6"/>
<path d="M581.548 76.1029C581.548 77.8491 579.498 79.2647 576.968 79.2647C574.438 79.2647 572.387 77.8491 572.387 76.1029C572.387 74.3567 574.438 72.9412 576.968 72.9412C579.498 72.9412 581.548 74.3567 581.548 76.1029Z" fill="#D3D2F6"/>
<path d="M609.032 76.1029C609.032 77.8491 606.981 79.2647 604.452 79.2647C601.922 79.2647 599.871 77.8491 599.871 76.1029C599.871 74.3567 601.922 72.9412 604.452 72.9412C606.981 72.9412 609.032 74.3567 609.032 76.1029Z" fill="#D3D2F6"/>
<path d="M636.516 76.1029C636.516 77.8491 634.465 79.2647 631.935 79.2647C629.406 79.2647 627.355 77.8491 627.355 76.1029C627.355 74.3567 629.406 72.9412 631.935 72.9412C634.465 72.9412 636.516 74.3567 636.516 76.1029Z" fill="#D3D2F6"/>
<path d="M664 76.1029C664 77.8491 661.949 79.2647 659.419 79.2647C656.89 79.2647 654.839 77.8491 654.839 76.1029C654.839 74.3567 656.89 72.9412 659.419 72.9412C661.949 72.9412 664 74.3567 664 76.1029Z" fill="#D3D2F6"/>
<path d="M389.161 95.0735C389.161 96.8197 387.11 98.2353 384.581 98.2353C382.051 98.2353 380 96.8197 380 95.0735C380 93.3273 382.051 91.9118 384.581 91.9118C387.11 91.9118 389.161 93.3273 389.161 95.0735Z" fill="#D3D2F6"/>
<path d="M416.645 95.0735C416.645 96.8197 414.594 98.2353 412.065 98.2353C409.535 98.2353 407.484 96.8197 407.484 95.0735C407.484 93.3273 409.535 91.9118 412.065 91.9118C414.594 91.9118 416.645 93.3273 416.645 95.0735Z" fill="#D3D2F6"/>
<path d="M444.129 95.0735C444.129 96.8197 442.078 98.2353 439.548 98.2353C437.019 98.2353 434.968 96.8197 434.968 95.0735C434.968 93.3273 437.019 91.9118 439.548 91.9118C442.078 91.9118 444.129 93.3273 444.129 95.0735Z" fill="#D3D2F6"/>
<path d="M471.613 95.0735C471.613 96.8197 469.562 98.2353 467.032 98.2353C464.502 98.2353 462.452 96.8197 462.452 95.0735C462.452 93.3273 464.502 91.9118 467.032 91.9118C469.562 91.9118 471.613 93.3273 471.613 95.0735Z" fill="#D3D2F6"/>
<path d="M499.097 95.0735C499.097 96.8197 497.046 98.2353 494.516 98.2353C491.986 98.2353 489.935 96.8197 489.935 95.0735C489.935 93.3273 491.986 91.9118 494.516 91.9118C497.046 91.9118 499.097 93.3273 499.097 95.0735Z" fill="#D3D2F6"/>
<path d="M526.581 95.0735C526.581 96.8197 524.53 98.2353 522 98.2353C519.47 98.2353 517.419 96.8197 517.419 95.0735C517.419 93.3273 519.47 91.9118 522 91.9118C524.53 91.9118 526.581 93.3273 526.581 95.0735Z" fill="#D3D2F6"/>
<path d="M554.065 95.0735C554.065 96.8197 552.014 98.2353 549.484 98.2353C546.954 98.2353 544.903 96.8197 544.903 95.0735C544.903 93.3273 546.954 91.9118 549.484 91.9118C552.014 91.9118 554.065 93.3273 554.065 95.0735Z" fill="#D3D2F6"/>
<path d="M581.548 95.0735C581.548 96.8197 579.498 98.2353 576.968 98.2353C574.438 98.2353 572.387 96.8197 572.387 95.0735C572.387 93.3273 574.438 91.9118 576.968 91.9118C579.498 91.9118 581.548 93.3273 581.548 95.0735Z" fill="#D3D2F6"/>
<path d="M609.032 95.0735C609.032 96.8197 606.981 98.2353 604.452 98.2353C601.922 98.2353 599.871 96.8197 599.871 95.0735C599.871 93.3273 601.922 91.9118 604.452 91.9118C606.981 91.9118 609.032 93.3273 609.032 95.0735Z" fill="#D3D2F6"/>
<path d="M636.516 95.0735C636.516 96.8197 634.465 98.2353 631.935 98.2353C629.406 98.2353 627.355 96.8197 627.355 95.0735C627.355 93.3273 629.406 91.9118 631.935 91.9118C634.465 91.9118 636.516 93.3273 636.516 95.0735Z" fill="#D3D2F6"/>
<path d="M664 95.0735C664 96.8197 661.949 98.2353 659.419 98.2353C656.89 98.2353 654.839 96.8197 654.839 95.0735C654.839 93.3273 656.89 91.9118 659.419 91.9118C661.949 91.9118 664 93.3273 664 95.0735Z" fill="#D3D2F6"/>
<path d="M389.161 114.044C389.161 115.79 387.11 117.206 384.581 117.206C382.051 117.206 380 115.79 380 114.044C380 112.298 382.051 110.882 384.581 110.882C387.11 110.882 389.161 112.298 389.161 114.044Z" fill="#D3D2F6"/>
<path d="M416.645 114.044C416.645 115.79 414.594 117.206 412.065 117.206C409.535 117.206 407.484 115.79 407.484 114.044C407.484 112.298 409.535 110.882 412.065 110.882C414.594 110.882 416.645 112.298 416.645 114.044Z" fill="#D3D2F6"/>
<path d="M444.129 114.044C444.129 115.79 442.078 117.206 439.548 117.206C437.019 117.206 434.968 115.79 434.968 114.044C434.968 112.298 437.019 110.882 439.548 110.882C442.078 110.882 444.129 112.298 444.129 114.044Z" fill="#D3D2F6"/>
<path d="M471.613 114.044C471.613 115.79 469.562 117.206 467.032 117.206C464.502 117.206 462.452 115.79 462.452 114.044C462.452 112.298 464.502 110.882 467.032 110.882C469.562 110.882 471.613 112.298 471.613 114.044Z" fill="#D3D2F6"/>
<path d="M499.097 114.044C499.097 115.79 497.046 117.206 494.516 117.206C491.986 117.206 489.935 115.79 489.935 114.044C489.935 112.298 491.986 110.882 494.516 110.882C497.046 110.882 499.097 112.298 499.097 114.044Z" fill="#D3D2F6"/>
<path d="M526.581 114.044C526.581 115.79 524.53 117.206 522 117.206C519.47 117.206 517.419 115.79 517.419 114.044C517.419 112.298 519.47 110.882 522 110.882C524.53 110.882 526.581 112.298 526.581 114.044Z" fill="#D3D2F6"/>
<path d="M554.065 114.044C554.065 115.79 552.014 117.206 549.484 117.206C546.954 117.206 544.903 115.79 544.903 114.044C544.903 112.298 546.954 110.882 549.484 110.882C552.014 110.882 554.065 112.298 554.065 114.044Z" fill="#D3D2F6"/>
<path d="M581.548 114.044C581.548 115.79 579.498 117.206 576.968 117.206C574.438 117.206 572.387 115.79 572.387 114.044C572.387 112.298 574.438 110.882 576.968 110.882C579.498 110.882 581.548 112.298 581.548 114.044Z" fill="#D3D2F6"/>
<path d="M609.032 114.044C609.032 115.79 606.981 117.206 604.452 117.206C601.922 117.206 599.871 115.79 599.871 114.044C599.871 112.298 601.922 110.882 604.452 110.882C606.981 110.882 609.032 112.298 609.032 114.044Z" fill="#D3D2F6"/>
<path d="M636.516 114.044C636.516 115.79 634.465 117.206 631.935 117.206C629.406 117.206 627.355 115.79 627.355 114.044C627.355 112.298 629.406 110.882 631.935 110.882C634.465 110.882 636.516 112.298 636.516 114.044Z" fill="#D3D2F6"/>
<path d="M664 114.044C664 115.79 661.949 117.206 659.419 117.206C656.89 117.206 654.839 115.79 654.839 114.044C654.839 112.298 656.89 110.882 659.419 110.882C661.949 110.882 664 112.298 664 114.044Z" fill="#D3D2F6"/>
<path d="M389.161 133.015C389.161 134.761 387.11 136.176 384.581 136.176C382.051 136.176 380 134.761 380 133.015C380 131.269 382.051 129.853 384.581 129.853C387.11 129.853 389.161 131.269 389.161 133.015Z" fill="#D3D2F6"/>
<path d="M416.645 133.015C416.645 134.761 414.594 136.176 412.065 136.176C409.535 136.176 407.484 134.761 407.484 133.015C407.484 131.269 409.535 129.853 412.065 129.853C414.594 129.853 416.645 131.269 416.645 133.015Z" fill="#D3D2F6"/>
<path d="M444.129 133.015C444.129 134.761 442.078 136.176 439.548 136.176C437.019 136.176 434.968 134.761 434.968 133.015C434.968 131.269 437.019 129.853 439.548 129.853C442.078 129.853 444.129 131.269 444.129 133.015Z" fill="#D3D2F6"/>
<path d="M471.613 133.015C471.613 134.761 469.562 136.176 467.032 136.176C464.502 136.176 462.452 134.761 462.452 133.015C462.452 131.269 464.502 129.853 467.032 129.853C469.562 129.853 471.613 131.269 471.613 133.015Z" fill="#D3D2F6"/>
<path d="M499.097 133.015C499.097 134.761 497.046 136.176 494.516 136.176C491.986 136.176 489.935 134.761 489.935 133.015C489.935 131.269 491.986 129.853 494.516 129.853C497.046 129.853 499.097 131.269 499.097 133.015Z" fill="#D3D2F6"/>
<path d="M526.581 133.015C526.581 134.761 524.53 136.176 522 136.176C519.47 136.176 517.419 134.761 517.419 133.015C517.419 131.269 519.47 129.853 522 129.853C524.53 129.853 526.581 131.269 526.581 133.015Z" fill="#D3D2F6"/>
<path d="M554.065 133.015C554.065 134.761 552.014 136.176 549.484 136.176C546.954 136.176 544.903 134.761 544.903 133.015C544.903 131.269 546.954 129.853 549.484 129.853C552.014 129.853 554.065 131.269 554.065 133.015Z" fill="#D3D2F6"/>
<path d="M581.548 133.015C581.548 134.761 579.498 136.176 576.968 136.176C574.438 136.176 572.387 134.761 572.387 133.015C572.387 131.269 574.438 129.853 576.968 129.853C579.498 129.853 581.548 131.269 581.548 133.015Z" fill="#D3D2F6"/>
<path d="M609.032 133.015C609.032 134.761 606.981 136.176 604.452 136.176C601.922 136.176 599.871 134.761 599.871 133.015C599.871 131.269 601.922 129.853 604.452 129.853C606.981 129.853 609.032 131.269 609.032 133.015Z" fill="#D3D2F6"/>
<path d="M636.516 133.015C636.516 134.761 634.465 136.176 631.935 136.176C629.406 136.176 627.355 134.761 627.355 133.015C627.355 131.269 629.406 129.853 631.935 129.853C634.465 129.853 636.516 131.269 636.516 133.015Z" fill="#D3D2F6"/>
<path d="M664 133.015C664 134.761 661.949 136.176 659.419 136.176C656.89 136.176 654.839 134.761 654.839 133.015C654.839 131.269 656.89 129.853 659.419 129.853C661.949 129.853 664 131.269 664 133.015Z" fill="#D3D2F6"/>
<path d="M389.161 151.985C389.161 153.731 387.11 155.147 384.581 155.147C382.051 155.147 380 153.731 380 151.985C380 150.239 382.051 148.824 384.581 148.824C387.11 148.824 389.161 150.239 389.161 151.985Z" fill="#D3D2F6"/>
<path d="M416.645 151.985C416.645 153.731 414.594 155.147 412.065 155.147C409.535 155.147 407.484 153.731 407.484 151.985C407.484 150.239 409.535 148.824 412.065 148.824C414.594 148.824 416.645 150.239 416.645 151.985Z" fill="#D3D2F6"/>
<path d="M444.129 151.985C444.129 153.731 442.078 155.147 439.548 155.147C437.019 155.147 434.968 153.731 434.968 151.985C434.968 150.239 437.019 148.824 439.548 148.824C442.078 148.824 444.129 150.239 444.129 151.985Z" fill="#D3D2F6"/>
<path d="M471.613 151.985C471.613 153.731 469.562 155.147 467.032 155.147C464.502 155.147 462.452 153.731 462.452 151.985C462.452 150.239 464.502 148.824 467.032 148.824C469.562 148.824 471.613 150.239 471.613 151.985Z" fill="#D3D2F6"/>
<path d="M499.097 151.985C499.097 153.731 497.046 155.147 494.516 155.147C491.986 155.147 489.935 153.731 489.935 151.985C489.935 150.239 491.986 148.824 494.516 148.824C497.046 148.824 499.097 150.239 499.097 151.985Z" fill="#D3D2F6"/>
<path d="M526.581 151.985C526.581 153.731 524.53 155.147 522 155.147C519.47 155.147 517.419 153.731 517.419 151.985C517.419 150.239 519.47 148.824 522 148.824C524.53 148.824 526.581 150.239 526.581 151.985Z" fill="#D3D2F6"/>
<path d="M554.065 151.985C554.065 153.731 552.014 155.147 549.484 155.147C546.954 155.147 544.903 153.731 544.903 151.985C544.903 150.239 546.954 148.824 549.484 148.824C552.014 148.824 554.065 150.239 554.065 151.985Z" fill="#D3D2F6"/>
<path d="M581.548 151.985C581.548 153.731 579.498 155.147 576.968 155.147C574.438 155.147 572.387 153.731 572.387 151.985C572.387 150.239 574.438 148.824 576.968 148.824C579.498 148.824 581.548 150.239 581.548 151.985Z" fill="#D3D2F6"/>
<path d="M609.032 151.985C609.032 153.731 606.981 155.147 604.452 155.147C601.922 155.147 599.871 153.731 599.871 151.985C599.871 150.239 601.922 148.824 604.452 148.824C606.981 148.824 609.032 150.239 609.032 151.985Z" fill="#D3D2F6"/>
<path d="M636.516 151.985C636.516 153.731 634.465 155.147 631.935 155.147C629.406 155.147 627.355 153.731 627.355 151.985C627.355 150.239 629.406 148.824 631.935 148.824C634.465 148.824 636.516 150.239 636.516 151.985Z" fill="#D3D2F6"/>
<path d="M664 151.985C664 153.731 661.949 155.147 659.419 155.147C656.89 155.147 654.839 153.731 654.839 151.985C654.839 150.239 656.89 148.824 659.419 148.824C661.949 148.824 664 150.239 664 151.985Z" fill="#D3D2F6"/>
<path d="M389.161 170.956C389.161 172.702 387.11 174.118 384.581 174.118C382.051 174.118 380 172.702 380 170.956C380 169.21 382.051 167.794 384.581 167.794C387.11 167.794 389.161 169.21 389.161 170.956Z" fill="#D3D2F6"/>
<path d="M416.645 170.956C416.645 172.702 414.594 174.118 412.065 174.118C409.535 174.118 407.484 172.702 407.484 170.956C407.484 169.21 409.535 167.794 412.065 167.794C414.594 167.794 416.645 169.21 416.645 170.956Z" fill="#D3D2F6"/>
<path d="M444.129 170.956C444.129 172.702 442.078 174.118 439.548 174.118C437.019 174.118 434.968 172.702 434.968 170.956C434.968 169.21 437.019 167.794 439.548 167.794C442.078 167.794 444.129 169.21 444.129 170.956Z" fill="#D3D2F6"/>
<path d="M471.613 170.956C471.613 172.702 469.562 174.118 467.032 174.118C464.502 174.118 462.452 172.702 462.452 170.956C462.452 169.21 464.502 167.794 467.032 167.794C469.562 167.794 471.613 169.21 471.613 170.956Z" fill="#D3D2F6"/>
<path d="M499.097 170.956C499.097 172.702 497.046 174.118 494.516 174.118C491.986 174.118 489.935 172.702 489.935 170.956C489.935 169.21 491.986 167.794 494.516 167.794C497.046 167.794 499.097 169.21 499.097 170.956Z" fill="#D3D2F6"/>
<path d="M526.581 170.956C526.581 172.702 524.53 174.118 522 174.118C519.47 174.118 517.419 172.702 517.419 170.956C517.419 169.21 519.47 167.794 522 167.794C524.53 167.794 526.581 169.21 526.581 170.956Z" fill="#D3D2F6"/>
<path d="M554.065 170.956C554.065 172.702 552.014 174.118 549.484 174.118C546.954 174.118 544.903 172.702 544.903 170.956C544.903 169.21 546.954 167.794 549.484 167.794C552.014 167.794 554.065 169.21 554.065 170.956Z" fill="#D3D2F6"/>
<path d="M581.548 170.956C581.548 172.702 579.498 174.118 576.968 174.118C574.438 174.118 572.387 172.702 572.387 170.956C572.387 169.21 574.438 167.794 576.968 167.794C579.498 167.794 581.548 169.21 581.548 170.956Z" fill="#D3D2F6"/>
<path d="M609.032 170.956C609.032 172.702 606.981 174.118 604.452 174.118C601.922 174.118 599.871 172.702 599.871 170.956C599.871 169.21 601.922 167.794 604.452 167.794C606.981 167.794 609.032 169.21 609.032 170.956Z" fill="#D3D2F6"/>
<path d="M636.516 170.956C636.516 172.702 634.465 174.118 631.935 174.118C629.406 174.118 627.355 172.702 627.355 170.956C627.355 169.21 629.406 167.794 631.935 167.794C634.465 167.794 636.516 169.21 636.516 170.956Z" fill="#D3D2F6"/>
<path d="M664 170.956C664 172.702 661.949 174.118 659.419 174.118C656.89 174.118 654.839 172.702 654.839 170.956C654.839 169.21 656.89 167.794 659.419 167.794C661.949 167.794 664 169.21 664 170.956Z" fill="#D3D2F6"/>
<path d="M389.161 189.926C389.161 191.673 387.11 193.088 384.581 193.088C382.051 193.088 380 191.673 380 189.926C380 188.18 382.051 186.765 384.581 186.765C387.11 186.765 389.161 188.18 389.161 189.926Z" fill="#D3D2F6"/>
<path d="M416.645 189.926C416.645 191.673 414.594 193.088 412.065 193.088C409.535 193.088 407.484 191.673 407.484 189.926C407.484 188.18 409.535 186.765 412.065 186.765C414.594 186.765 416.645 188.18 416.645 189.926Z" fill="#D3D2F6"/>
<path d="M444.129 189.926C444.129 191.673 442.078 193.088 439.548 193.088C437.019 193.088 434.968 191.673 434.968 189.926C434.968 188.18 437.019 186.765 439.548 186.765C442.078 186.765 444.129 188.18 444.129 189.926Z" fill="#D3D2F6"/>
<path d="M471.613 189.926C471.613 191.673 469.562 193.088 467.032 193.088C464.502 193.088 462.452 191.673 462.452 189.926C462.452 188.18 464.502 186.765 467.032 186.765C469.562 186.765 471.613 188.18 471.613 189.926Z" fill="#D3D2F6"/>
<path d="M499.097 189.926C499.097 191.673 497.046 193.088 494.516 193.088C491.986 193.088 489.935 191.673 489.935 189.926C489.935 188.18 491.986 186.765 494.516 186.765C497.046 186.765 499.097 188.18 499.097 189.926Z" fill="#D3D2F6"/>
<path d="M526.581 189.926C526.581 191.673 524.53 193.088 522 193.088C519.47 193.088 517.419 191.673 517.419 189.926C517.419 188.18 519.47 186.765 522 186.765C524.53 186.765 526.581 188.18 526.581 189.926Z" fill="#D3D2F6"/>
<path d="M554.065 189.926C554.065 191.673 552.014 193.088 549.484 193.088C546.954 193.088 544.903 191.673 544.903 189.926C544.903 188.18 546.954 186.765 549.484 186.765C552.014 186.765 554.065 188.18 554.065 189.926Z" fill="#D3D2F6"/>
<path d="M581.548 189.926C581.548 191.673 579.498 193.088 576.968 193.088C574.438 193.088 572.387 191.673 572.387 189.926C572.387 188.18 574.438 186.765 576.968 186.765C579.498 186.765 581.548 188.18 581.548 189.926Z" fill="#D3D2F6"/>
<path d="M609.032 189.926C609.032 191.673 606.981 193.088 604.452 193.088C601.922 193.088 599.871 191.673 599.871 189.926C599.871 188.18 601.922 186.765 604.452 186.765C606.981 186.765 609.032 188.18 609.032 189.926Z" fill="#D3D2F6"/>
<path d="M636.516 189.926C636.516 191.673 634.465 193.088 631.935 193.088C629.406 193.088 627.355 191.673 627.355 189.926C627.355 188.18 629.406 186.765 631.935 186.765C634.465 186.765 636.516 188.18 636.516 189.926Z" fill="#D3D2F6"/>
<path d="M664 189.926C664 191.673 661.949 193.088 659.419 193.088C656.89 193.088 654.839 191.673 654.839 189.926C654.839 188.18 656.89 186.765 659.419 186.765C661.949 186.765 664 188.18 664 189.926Z" fill="#D3D2F6"/>
<path d="M389.161 208.897C389.161 210.643 387.11 212.059 384.581 212.059C382.051 212.059 380 210.643 380 208.897C380 207.151 382.051 205.735 384.581 205.735C387.11 205.735 389.161 207.151 389.161 208.897Z" fill="#D3D2F6"/>
<path d="M416.645 208.897C416.645 210.643 414.594 212.059 412.065 212.059C409.535 212.059 407.484 210.643 407.484 208.897C407.484 207.151 409.535 205.735 412.065 205.735C414.594 205.735 416.645 207.151 416.645 208.897Z" fill="#D3D2F6"/>
<path d="M444.129 208.897C444.129 210.643 442.078 212.059 439.548 212.059C437.019 212.059 434.968 210.643 434.968 208.897C434.968 207.151 437.019 205.735 439.548 205.735C442.078 205.735 444.129 207.151 444.129 208.897Z" fill="#D3D2F6"/>
<path d="M471.613 208.897C471.613 210.643 469.562 212.059 467.032 212.059C464.502 212.059 462.452 210.643 462.452 208.897C462.452 207.151 464.502 205.735 467.032 205.735C469.562 205.735 471.613 207.151 471.613 208.897Z" fill="#D3D2F6"/>
<path d="M499.097 208.897C499.097 210.643 497.046 212.059 494.516 212.059C491.986 212.059 489.935 210.643 489.935 208.897C489.935 207.151 491.986 205.735 494.516 205.735C497.046 205.735 499.097 207.151 499.097 208.897Z" fill="#D3D2F6"/>
<path d="M526.581 208.897C526.581 210.643 524.53 212.059 522 212.059C519.47 212.059 517.419 210.643 517.419 208.897C517.419 207.151 519.47 205.735 522 205.735C524.53 205.735 526.581 207.151 526.581 208.897Z" fill="#D3D2F6"/>
<path d="M554.065 208.897C554.065 210.643 552.014 212.059 549.484 212.059C546.954 212.059 544.903 210.643 544.903 208.897C544.903 207.151 546.954 205.735 549.484 205.735C552.014 205.735 554.065 207.151 554.065 208.897Z" fill="#D3D2F6"/>
<path d="M581.548 208.897C581.548 210.643 579.498 212.059 576.968 212.059C574.438 212.059 572.387 210.643 572.387 208.897C572.387 207.151 574.438 205.735 576.968 205.735C579.498 205.735 581.548 207.151 581.548 208.897Z" fill="#D3D2F6"/>
<path d="M609.032 208.897C609.032 210.643 606.981 212.059 604.452 212.059C601.922 212.059 599.871 210.643 599.871 208.897C599.871 207.151 601.922 205.735 604.452 205.735C606.981 205.735 609.032 207.151 609.032 208.897Z" fill="#D3D2F6"/>
<path d="M636.516 208.897C636.516 210.643 634.465 212.059 631.935 212.059C629.406 212.059 627.355 210.643 627.355 208.897C627.355 207.151 629.406 205.735 631.935 205.735C634.465 205.735 636.516 207.151 636.516 208.897Z" fill="#D3D2F6"/>
<path d="M664 208.897C664 210.643 661.949 212.059 659.419 212.059C656.89 212.059 654.839 210.643 654.839 208.897C654.839 207.151 656.89 205.735 659.419 205.735C661.949 205.735 664 207.151 664 208.897Z" fill="#D3D2F6"/>
<path d="M389.161 227.868C389.161 229.614 387.11 231.029 384.581 231.029C382.051 231.029 380 229.614 380 227.868C380 226.121 382.051 224.706 384.581 224.706C387.11 224.706 389.161 226.121 389.161 227.868Z" fill="#D3D2F6"/>
<path d="M416.645 227.868C416.645 229.614 414.594 231.029 412.065 231.029C409.535 231.029 407.484 229.614 407.484 227.868C407.484 226.121 409.535 224.706 412.065 224.706C414.594 224.706 416.645 226.121 416.645 227.868Z" fill="#D3D2F6"/>
<path d="M444.129 227.868C444.129 229.614 442.078 231.029 439.548 231.029C437.019 231.029 434.968 229.614 434.968 227.868C434.968 226.121 437.019 224.706 439.548 224.706C442.078 224.706 444.129 226.121 444.129 227.868Z" fill="#D3D2F6"/>
<path d="M471.613 227.868C471.613 229.614 469.562 231.029 467.032 231.029C464.502 231.029 462.452 229.614 462.452 227.868C462.452 226.121 464.502 224.706 467.032 224.706C469.562 224.706 471.613 226.121 471.613 227.868Z" fill="#D3D2F6"/>
<path d="M499.097 227.868C499.097 229.614 497.046 231.029 494.516 231.029C491.986 231.029 489.935 229.614 489.935 227.868C489.935 226.121 491.986 224.706 494.516 224.706C497.046 224.706 499.097 226.121 499.097 227.868Z" fill="#D3D2F6"/>
<path d="M526.581 227.868C526.581 229.614 524.53 231.029 522 231.029C519.47 231.029 517.419 229.614 517.419 227.868C517.419 226.121 519.47 224.706 522 224.706C524.53 224.706 526.581 226.121 526.581 227.868Z" fill="#D3D2F6"/>
<path d="M554.065 227.868C554.065 229.614 552.014 231.029 549.484 231.029C546.954 231.029 544.903 229.614 544.903 227.868C544.903 226.121 546.954 224.706 549.484 224.706C552.014 224.706 554.065 226.121 554.065 227.868Z" fill="#D3D2F6"/>
<path d="M581.548 227.868C581.548 229.614 579.498 231.029 576.968 231.029C574.438 231.029 572.387 229.614 572.387 227.868C572.387 226.121 574.438 224.706 576.968 224.706C579.498 224.706 581.548 226.121 581.548 227.868Z" fill="#D3D2F6"/>
<path d="M609.032 227.868C609.032 229.614 606.981 231.029 604.452 231.029C601.922 231.029 599.871 229.614 599.871 227.868C599.871 226.121 601.922 224.706 604.452 224.706C606.981 224.706 609.032 226.121 609.032 227.868Z" fill="#D3D2F6"/>
<path d="M636.516 227.868C636.516 229.614 634.465 231.029 631.935 231.029C629.406 231.029 627.355 229.614 627.355 227.868C627.355 226.121 629.406 224.706 631.935 224.706C634.465 224.706 636.516 226.121 636.516 227.868Z" fill="#D3D2F6"/>
<path d="M664 227.868C664 229.614 661.949 231.029 659.419 231.029C656.89 231.029 654.839 229.614 654.839 227.868C654.839 226.121 656.89 224.706 659.419 224.706C661.949 224.706 664 226.121 664 227.868Z" fill="#D3D2F6"/>
<path d="M389.161 246.838C389.161 248.584 387.11 250 384.581 250C382.051 250 380 248.584 380 246.838C380 245.092 382.051 243.676 384.581 243.676C387.11 243.676 389.161 245.092 389.161 246.838Z" fill="#D3D2F6"/>
<path d="M416.645 246.838C416.645 248.584 414.594 250 412.065 250C409.535 250 407.484 248.584 407.484 246.838C407.484 245.092 409.535 243.676 412.065 243.676C414.594 243.676 416.645 245.092 416.645 246.838Z" fill="#D3D2F6"/>
<path d="M444.129 246.838C444.129 248.584 442.078 250 439.548 250C437.019 250 434.968 248.584 434.968 246.838C434.968 245.092 437.019 243.676 439.548 243.676C442.078 243.676 444.129 245.092 444.129 246.838Z" fill="#D3D2F6"/>
<path d="M471.613 246.838C471.613 248.584 469.562 250 467.032 250C464.502 250 462.452 248.584 462.452 246.838C462.452 245.092 464.502 243.676 467.032 243.676C469.562 243.676 471.613 245.092 471.613 246.838Z" fill="#D3D2F6"/>
<path d="M499.097 246.838C499.097 248.584 497.046 250 494.516 250C491.986 250 489.935 248.584 489.935 246.838C489.935 245.092 491.986 243.676 494.516 243.676C497.046 243.676 499.097 245.092 499.097 246.838Z" fill="#D3D2F6"/>
<path d="M526.581 246.838C526.581 248.584 524.53 250 522 250C519.47 250 517.419 248.584 517.419 246.838C517.419 245.092 519.47 243.676 522 243.676C524.53 243.676 526.581 245.092 526.581 246.838Z" fill="#D3D2F6"/>
<path d="M554.065 246.838C554.065 248.584 552.014 250 549.484 250C546.954 250 544.903 248.584 544.903 246.838C544.903 245.092 546.954 243.676 549.484 243.676C552.014 243.676 554.065 245.092 554.065 246.838Z" fill="#D3D2F6"/>
<path d="M581.548 246.838C581.548 248.584 579.498 250 576.968 250C574.438 250 572.387 248.584 572.387 246.838C572.387 245.092 574.438 243.676 576.968 243.676C579.498 243.676 581.548 245.092 581.548 246.838Z" fill="#D3D2F6"/>
<path d="M609.032 246.838C609.032 248.584 606.981 250 604.452 250C601.922 250 599.871 248.584 599.871 246.838C599.871 245.092 601.922 243.676 604.452 243.676C606.981 243.676 609.032 245.092 609.032 246.838Z" fill="#D3D2F6"/>
<path d="M636.516 246.838C636.516 248.584 634.465 250 631.935 250C629.406 250 627.355 248.584 627.355 246.838C627.355 245.092 629.406 243.676 631.935 243.676C634.465 243.676 636.516 245.092 636.516 246.838Z" fill="#D3D2F6"/>
<path d="M664 246.838C664 248.584 661.949 250 659.419 250C656.89 250 654.839 248.584 654.839 246.838C654.839 245.092 656.89 243.676 659.419 243.676C661.949 243.676 664 245.092 664 246.838Z" fill="#D3D2F6"/>
<path d="M1265.16 1018.16C1265.16 1019.91 1263.11 1021.32 1260.58 1021.32C1258.05 1021.32 1256 1019.91 1256 1018.16C1256 1016.42 1258.05 1015 1260.58 1015C1263.11 1015 1265.16 1016.42 1265.16 1018.16Z" fill="#D3D2F6"/>
<path d="M1292.65 1018.16C1292.65 1019.91 1290.59 1021.32 1288.06 1021.32C1285.53 1021.32 1283.48 1019.91 1283.48 1018.16C1283.48 1016.42 1285.53 1015 1288.06 1015C1290.59 1015 1292.65 1016.42 1292.65 1018.16Z" fill="#D3D2F6"/>
<path d="M1320.13 1018.16C1320.13 1019.91 1318.08 1021.32 1315.55 1021.32C1313.02 1021.32 1310.97 1019.91 1310.97 1018.16C1310.97 1016.42 1313.02 1015 1315.55 1015C1318.08 1015 1320.13 1016.42 1320.13 1018.16Z" fill="#D3D2F6"/>
<path d="M1347.61 1018.16C1347.61 1019.91 1345.56 1021.32 1343.03 1021.32C1340.5 1021.32 1338.45 1019.91 1338.45 1018.16C1338.45 1016.42 1340.5 1015 1343.03 1015C1345.56 1015 1347.61 1016.42 1347.61 1018.16Z" fill="#D3D2F6"/>
<path d="M1375.1 1018.16C1375.1 1019.91 1373.05 1021.32 1370.52 1021.32C1367.99 1021.32 1365.94 1019.91 1365.94 1018.16C1365.94 1016.42 1367.99 1015 1370.52 1015C1373.05 1015 1375.1 1016.42 1375.1 1018.16Z" fill="#D3D2F6"/>
<path d="M1402.58 1018.16C1402.58 1019.91 1400.53 1021.32 1398 1021.32C1395.47 1021.32 1393.42 1019.91 1393.42 1018.16C1393.42 1016.42 1395.47 1015 1398 1015C1400.53 1015 1402.58 1016.42 1402.58 1018.16Z" fill="#D3D2F6"/>
<path d="M1430.06 1018.16C1430.06 1019.91 1428.01 1021.32 1425.48 1021.32C1422.95 1021.32 1420.9 1019.91 1420.9 1018.16C1420.9 1016.42 1422.95 1015 1425.48 1015C1428.01 1015 1430.06 1016.42 1430.06 1018.16Z" fill="#D3D2F6"/>
<path d="M1457.55 1018.16C1457.55 1019.91 1455.5 1021.32 1452.97 1021.32C1450.44 1021.32 1448.39 1019.91 1448.39 1018.16C1448.39 1016.42 1450.44 1015 1452.97 1015C1455.5 1015 1457.55 1016.42 1457.55 1018.16Z" fill="#D3D2F6"/>
<path d="M1485.03 1018.16C1485.03 1019.91 1482.98 1021.32 1480.45 1021.32C1477.92 1021.32 1475.87 1019.91 1475.87 1018.16C1475.87 1016.42 1477.92 1015 1480.45 1015C1482.98 1015 1485.03 1016.42 1485.03 1018.16Z" fill="#D3D2F6"/>
<path d="M1512.52 1018.16C1512.52 1019.91 1510.47 1021.32 1507.94 1021.32C1505.41 1021.32 1503.35 1019.91 1503.35 1018.16C1503.35 1016.42 1505.41 1015 1507.94 1015C1510.47 1015 1512.52 1016.42 1512.52 1018.16Z" fill="#D3D2F6"/>
<path d="M1540 1018.16C1540 1019.91 1537.95 1021.32 1535.42 1021.32C1532.89 1021.32 1530.84 1019.91 1530.84 1018.16C1530.84 1016.42 1532.89 1015 1535.42 1015C1537.95 1015 1540 1016.42 1540 1018.16Z" fill="#D3D2F6"/>
<path d="M1265.16 1037.13C1265.16 1038.88 1263.11 1040.29 1260.58 1040.29C1258.05 1040.29 1256 1038.88 1256 1037.13C1256 1035.39 1258.05 1033.97 1260.58 1033.97C1263.11 1033.97 1265.16 1035.39 1265.16 1037.13Z" fill="#D3D2F6"/>
<path d="M1292.65 1037.13C1292.65 1038.88 1290.59 1040.29 1288.06 1040.29C1285.53 1040.29 1283.48 1038.88 1283.48 1037.13C1283.48 1035.39 1285.53 1033.97 1288.06 1033.97C1290.59 1033.97 1292.65 1035.39 1292.65 1037.13Z" fill="#D3D2F6"/>
<path d="M1320.13 1037.13C1320.13 1038.88 1318.08 1040.29 1315.55 1040.29C1313.02 1040.29 1310.97 1038.88 1310.97 1037.13C1310.97 1035.39 1313.02 1033.97 1315.55 1033.97C1318.08 1033.97 1320.13 1035.39 1320.13 1037.13Z" fill="#D3D2F6"/>
<path d="M1347.61 1037.13C1347.61 1038.88 1345.56 1040.29 1343.03 1040.29C1340.5 1040.29 1338.45 1038.88 1338.45 1037.13C1338.45 1035.39 1340.5 1033.97 1343.03 1033.97C1345.56 1033.97 1347.61 1035.39 1347.61 1037.13Z" fill="#D3D2F6"/>
<path d="M1375.1 1037.13C1375.1 1038.88 1373.05 1040.29 1370.52 1040.29C1367.99 1040.29 1365.94 1038.88 1365.94 1037.13C1365.94 1035.39 1367.99 1033.97 1370.52 1033.97C1373.05 1033.97 1375.1 1035.39 1375.1 1037.13Z" fill="#D3D2F6"/>
<path d="M1402.58 1037.13C1402.58 1038.88 1400.53 1040.29 1398 1040.29C1395.47 1040.29 1393.42 1038.88 1393.42 1037.13C1393.42 1035.39 1395.47 1033.97 1398 1033.97C1400.53 1033.97 1402.58 1035.39 1402.58 1037.13Z" fill="#D3D2F6"/>
<path d="M1430.06 1037.13C1430.06 1038.88 1428.01 1040.29 1425.48 1040.29C1422.95 1040.29 1420.9 1038.88 1420.9 1037.13C1420.9 1035.39 1422.95 1033.97 1425.48 1033.97C1428.01 1033.97 1430.06 1035.39 1430.06 1037.13Z" fill="#D3D2F6"/>
<path d="M1457.55 1037.13C1457.55 1038.88 1455.5 1040.29 1452.97 1040.29C1450.44 1040.29 1448.39 1038.88 1448.39 1037.13C1448.39 1035.39 1450.44 1033.97 1452.97 1033.97C1455.5 1033.97 1457.55 1035.39 1457.55 1037.13Z" fill="#D3D2F6"/>
<path d="M1485.03 1037.13C1485.03 1038.88 1482.98 1040.29 1480.45 1040.29C1477.92 1040.29 1475.87 1038.88 1475.87 1037.13C1475.87 1035.39 1477.92 1033.97 1480.45 1033.97C1482.98 1033.97 1485.03 1035.39 1485.03 1037.13Z" fill="#D3D2F6"/>
<path d="M1512.52 1037.13C1512.52 1038.88 1510.47 1040.29 1507.94 1040.29C1505.41 1040.29 1503.35 1038.88 1503.35 1037.13C1503.35 1035.39 1505.41 1033.97 1507.94 1033.97C1510.47 1033.97 1512.52 1035.39 1512.52 1037.13Z" fill="#D3D2F6"/>
<path d="M1540 1037.13C1540 1038.88 1537.95 1040.29 1535.42 1040.29C1532.89 1040.29 1530.84 1038.88 1530.84 1037.13C1530.84 1035.39 1532.89 1033.97 1535.42 1033.97C1537.95 1033.97 1540 1035.39 1540 1037.13Z" fill="#D3D2F6"/>
<path d="M1265.16 1056.1C1265.16 1057.85 1263.11 1059.26 1260.58 1059.26C1258.05 1059.26 1256 1057.85 1256 1056.1C1256 1054.36 1258.05 1052.94 1260.58 1052.94C1263.11 1052.94 1265.16 1054.36 1265.16 1056.1Z" fill="#D3D2F6"/>
<path d="M1292.65 1056.1C1292.65 1057.85 1290.59 1059.26 1288.06 1059.26C1285.53 1059.26 1283.48 1057.85 1283.48 1056.1C1283.48 1054.36 1285.53 1052.94 1288.06 1052.94C1290.59 1052.94 1292.65 1054.36 1292.65 1056.1Z" fill="#D3D2F6"/>
<path d="M1320.13 1056.1C1320.13 1057.85 1318.08 1059.26 1315.55 1059.26C1313.02 1059.26 1310.97 1057.85 1310.97 1056.1C1310.97 1054.36 1313.02 1052.94 1315.55 1052.94C1318.08 1052.94 1320.13 1054.36 1320.13 1056.1Z" fill="#D3D2F6"/>
<path d="M1347.61 1056.1C1347.61 1057.85 1345.56 1059.26 1343.03 1059.26C1340.5 1059.26 1338.45 1057.85 1338.45 1056.1C1338.45 1054.36 1340.5 1052.94 1343.03 1052.94C1345.56 1052.94 1347.61 1054.36 1347.61 1056.1Z" fill="#D3D2F6"/>
<path d="M1375.1 1056.1C1375.1 1057.85 1373.05 1059.26 1370.52 1059.26C1367.99 1059.26 1365.94 1057.85 1365.94 1056.1C1365.94 1054.36 1367.99 1052.94 1370.52 1052.94C1373.05 1052.94 1375.1 1054.36 1375.1 1056.1Z" fill="#D3D2F6"/>
<path d="M1402.58 1056.1C1402.58 1057.85 1400.53 1059.26 1398 1059.26C1395.47 1059.26 1393.42 1057.85 1393.42 1056.1C1393.42 1054.36 1395.47 1052.94 1398 1052.94C1400.53 1052.94 1402.58 1054.36 1402.58 1056.1Z" fill="#D3D2F6"/>
<path d="M1430.06 1056.1C1430.06 1057.85 1428.01 1059.26 1425.48 1059.26C1422.95 1059.26 1420.9 1057.85 1420.9 1056.1C1420.9 1054.36 1422.95 1052.94 1425.48 1052.94C1428.01 1052.94 1430.06 1054.36 1430.06 1056.1Z" fill="#D3D2F6"/>
<path d="M1457.55 1056.1C1457.55 1057.85 1455.5 1059.26 1452.97 1059.26C1450.44 1059.26 1448.39 1057.85 1448.39 1056.1C1448.39 1054.36 1450.44 1052.94 1452.97 1052.94C1455.5 1052.94 1457.55 1054.36 1457.55 1056.1Z" fill="#D3D2F6"/>
<path d="M1485.03 1056.1C1485.03 1057.85 1482.98 1059.26 1480.45 1059.26C1477.92 1059.26 1475.87 1057.85 1475.87 1056.1C1475.87 1054.36 1477.92 1052.94 1480.45 1052.94C1482.98 1052.94 1485.03 1054.36 1485.03 1056.1Z" fill="#D3D2F6"/>
<path d="M1512.52 1056.1C1512.52 1057.85 1510.47 1059.26 1507.94 1059.26C1505.41 1059.26 1503.35 1057.85 1503.35 1056.1C1503.35 1054.36 1505.41 1052.94 1507.94 1052.94C1510.47 1052.94 1512.52 1054.36 1512.52 1056.1Z" fill="#D3D2F6"/>
<path d="M1540 1056.1C1540 1057.85 1537.95 1059.26 1535.42 1059.26C1532.89 1059.26 1530.84 1057.85 1530.84 1056.1C1530.84 1054.36 1532.89 1052.94 1535.42 1052.94C1537.95 1052.94 1540 1054.36 1540 1056.1Z" fill="#D3D2F6"/>
<path d="M1265.16 1075.07C1265.16 1076.82 1263.11 1078.24 1260.58 1078.24C1258.05 1078.24 1256 1076.82 1256 1075.07C1256 1073.33 1258.05 1071.91 1260.58 1071.91C1263.11 1071.91 1265.16 1073.33 1265.16 1075.07Z" fill="#D3D2F6"/>
<path d="M1292.65 1075.07C1292.65 1076.82 1290.59 1078.24 1288.06 1078.24C1285.53 1078.24 1283.48 1076.82 1283.48 1075.07C1283.48 1073.33 1285.53 1071.91 1288.06 1071.91C1290.59 1071.91 1292.65 1073.33 1292.65 1075.07Z" fill="#D3D2F6"/>
<path d="M1320.13 1075.07C1320.13 1076.82 1318.08 1078.24 1315.55 1078.24C1313.02 1078.24 1310.97 1076.82 1310.97 1075.07C1310.97 1073.33 1313.02 1071.91 1315.55 1071.91C1318.08 1071.91 1320.13 1073.33 1320.13 1075.07Z" fill="#D3D2F6"/>
<path d="M1347.61 1075.07C1347.61 1076.82 1345.56 1078.24 1343.03 1078.24C1340.5 1078.24 1338.45 1076.82 1338.45 1075.07C1338.45 1073.33 1340.5 1071.91 1343.03 1071.91C1345.56 1071.91 1347.61 1073.33 1347.61 1075.07Z" fill="#D3D2F6"/>
<path d="M1375.1 1075.07C1375.1 1076.82 1373.05 1078.24 1370.52 1078.24C1367.99 1078.24 1365.94 1076.82 1365.94 1075.07C1365.94 1073.33 1367.99 1071.91 1370.52 1071.91C1373.05 1071.91 1375.1 1073.33 1375.1 1075.07Z" fill="#D3D2F6"/>
<path d="M1402.58 1075.07C1402.58 1076.82 1400.53 1078.24 1398 1078.24C1395.47 1078.24 1393.42 1076.82 1393.42 1075.07C1393.42 1073.33 1395.47 1071.91 1398 1071.91C1400.53 1071.91 1402.58 1073.33 1402.58 1075.07Z" fill="#D3D2F6"/>
<path d="M1430.06 1075.07C1430.06 1076.82 1428.01 1078.24 1425.48 1078.24C1422.95 1078.24 1420.9 1076.82 1420.9 1075.07C1420.9 1073.33 1422.95 1071.91 1425.48 1071.91C1428.01 1071.91 1430.06 1073.33 1430.06 1075.07Z" fill="#D3D2F6"/>
<path d="M1457.55 1075.07C1457.55 1076.82 1455.5 1078.24 1452.97 1078.24C1450.44 1078.24 1448.39 1076.82 1448.39 1075.07C1448.39 1073.33 1450.44 1071.91 1452.97 1071.91C1455.5 1071.91 1457.55 1073.33 1457.55 1075.07Z" fill="#D3D2F6"/>
<path d="M1485.03 1075.07C1485.03 1076.82 1482.98 1078.24 1480.45 1078.24C1477.92 1078.24 1475.87 1076.82 1475.87 1075.07C1475.87 1073.33 1477.92 1071.91 1480.45 1071.91C1482.98 1071.91 1485.03 1073.33 1485.03 1075.07Z" fill="#D3D2F6"/>
<path d="M1512.52 1075.07C1512.52 1076.82 1510.47 1078.24 1507.94 1078.24C1505.41 1078.24 1503.35 1076.82 1503.35 1075.07C1503.35 1073.33 1505.41 1071.91 1507.94 1071.91C1510.47 1071.91 1512.52 1073.33 1512.52 1075.07Z" fill="#D3D2F6"/>
<path d="M1540 1075.07C1540 1076.82 1537.95 1078.24 1535.42 1078.24C1532.89 1078.24 1530.84 1076.82 1530.84 1075.07C1530.84 1073.33 1532.89 1071.91 1535.42 1071.91C1537.95 1071.91 1540 1073.33 1540 1075.07Z" fill="#D3D2F6"/>
<path d="M1265.16 1094.04C1265.16 1095.79 1263.11 1097.21 1260.58 1097.21C1258.05 1097.21 1256 1095.79 1256 1094.04C1256 1092.3 1258.05 1090.88 1260.58 1090.88C1263.11 1090.88 1265.16 1092.3 1265.16 1094.04Z" fill="#D3D2F6"/>
<path d="M1292.65 1094.04C1292.65 1095.79 1290.59 1097.21 1288.06 1097.21C1285.53 1097.21 1283.48 1095.79 1283.48 1094.04C1283.48 1092.3 1285.53 1090.88 1288.06 1090.88C1290.59 1090.88 1292.65 1092.3 1292.65 1094.04Z" fill="#D3D2F6"/>
<path d="M1320.13 1094.04C1320.13 1095.79 1318.08 1097.21 1315.55 1097.21C1313.02 1097.21 1310.97 1095.79 1310.97 1094.04C1310.97 1092.3 1313.02 1090.88 1315.55 1090.88C1318.08 1090.88 1320.13 1092.3 1320.13 1094.04Z" fill="#D3D2F6"/>
<path d="M1347.61 1094.04C1347.61 1095.79 1345.56 1097.21 1343.03 1097.21C1340.5 1097.21 1338.45 1095.79 1338.45 1094.04C1338.45 1092.3 1340.5 1090.88 1343.03 1090.88C1345.56 1090.88 1347.61 1092.3 1347.61 1094.04Z" fill="#D3D2F6"/>
<path d="M1375.1 1094.04C1375.1 1095.79 1373.05 1097.21 1370.52 1097.21C1367.99 1097.21 1365.94 1095.79 1365.94 1094.04C1365.94 1092.3 1367.99 1090.88 1370.52 1090.88C1373.05 1090.88 1375.1 1092.3 1375.1 1094.04Z" fill="#D3D2F6"/>
<path d="M1402.58 1094.04C1402.58 1095.79 1400.53 1097.21 1398 1097.21C1395.47 1097.21 1393.42 1095.79 1393.42 1094.04C1393.42 1092.3 1395.47 1090.88 1398 1090.88C1400.53 1090.88 1402.58 1092.3 1402.58 1094.04Z" fill="#D3D2F6"/>
<path d="M1430.06 1094.04C1430.06 1095.79 1428.01 1097.21 1425.48 1097.21C1422.95 1097.21 1420.9 1095.79 1420.9 1094.04C1420.9 1092.3 1422.95 1090.88 1425.48 1090.88C1428.01 1090.88 1430.06 1092.3 1430.06 1094.04Z" fill="#D3D2F6"/>
<path d="M1457.55 1094.04C1457.55 1095.79 1455.5 1097.21 1452.97 1097.21C1450.44 1097.21 1448.39 1095.79 1448.39 1094.04C1448.39 1092.3 1450.44 1090.88 1452.97 1090.88C1455.5 1090.88 1457.55 1092.3 1457.55 1094.04Z" fill="#D3D2F6"/>
<path d="M1485.03 1094.04C1485.03 1095.79 1482.98 1097.21 1480.45 1097.21C1477.92 1097.21 1475.87 1095.79 1475.87 1094.04C1475.87 1092.3 1477.92 1090.88 1480.45 1090.88C1482.98 1090.88 1485.03 1092.3 1485.03 1094.04Z" fill="#D3D2F6"/>
<path d="M1512.52 1094.04C1512.52 1095.79 1510.47 1097.21 1507.94 1097.21C1505.41 1097.21 1503.35 1095.79 1503.35 1094.04C1503.35 1092.3 1505.41 1090.88 1507.94 1090.88C1510.47 1090.88 1512.52 1092.3 1512.52 1094.04Z" fill="#D3D2F6"/>
<path d="M1540 1094.04C1540 1095.79 1537.95 1097.21 1535.42 1097.21C1532.89 1097.21 1530.84 1095.79 1530.84 1094.04C1530.84 1092.3 1532.89 1090.88 1535.42 1090.88C1537.95 1090.88 1540 1092.3 1540 1094.04Z" fill="#D3D2F6"/>
<path d="M1265.16 1113.01C1265.16 1114.76 1263.11 1116.18 1260.58 1116.18C1258.05 1116.18 1256 1114.76 1256 1113.01C1256 1111.27 1258.05 1109.85 1260.58 1109.85C1263.11 1109.85 1265.16 1111.27 1265.16 1113.01Z" fill="#D3D2F6"/>
<path d="M1292.65 1113.01C1292.65 1114.76 1290.59 1116.18 1288.06 1116.18C1285.53 1116.18 1283.48 1114.76 1283.48 1113.01C1283.48 1111.27 1285.53 1109.85 1288.06 1109.85C1290.59 1109.85 1292.65 1111.27 1292.65 1113.01Z" fill="#D3D2F6"/>
<path d="M1320.13 1113.01C1320.13 1114.76 1318.08 1116.18 1315.55 1116.18C1313.02 1116.18 1310.97 1114.76 1310.97 1113.01C1310.97 1111.27 1313.02 1109.85 1315.55 1109.85C1318.08 1109.85 1320.13 1111.27 1320.13 1113.01Z" fill="#D3D2F6"/>
<path d="M1347.61 1113.01C1347.61 1114.76 1345.56 1116.18 1343.03 1116.18C1340.5 1116.18 1338.45 1114.76 1338.45 1113.01C1338.45 1111.27 1340.5 1109.85 1343.03 1109.85C1345.56 1109.85 1347.61 1111.27 1347.61 1113.01Z" fill="#D3D2F6"/>
<path d="M1375.1 1113.01C1375.1 1114.76 1373.05 1116.18 1370.52 1116.18C1367.99 1116.18 1365.94 1114.76 1365.94 1113.01C1365.94 1111.27 1367.99 1109.85 1370.52 1109.85C1373.05 1109.85 1375.1 1111.27 1375.1 1113.01Z" fill="#D3D2F6"/>
<path d="M1402.58 1113.01C1402.58 1114.76 1400.53 1116.18 1398 1116.18C1395.47 1116.18 1393.42 1114.76 1393.42 1113.01C1393.42 1111.27 1395.47 1109.85 1398 1109.85C1400.53 1109.85 1402.58 1111.27 1402.58 1113.01Z" fill="#D3D2F6"/>
<path d="M1430.06 1113.01C1430.06 1114.76 1428.01 1116.18 1425.48 1116.18C1422.95 1116.18 1420.9 1114.76 1420.9 1113.01C1420.9 1111.27 1422.95 1109.85 1425.48 1109.85C1428.01 1109.85 1430.06 1111.27 1430.06 1113.01Z" fill="#D3D2F6"/>
<path d="M1457.55 1113.01C1457.55 1114.76 1455.5 1116.18 1452.97 1116.18C1450.44 1116.18 1448.39 1114.76 1448.39 1113.01C1448.39 1111.27 1450.44 1109.85 1452.97 1109.85C1455.5 1109.85 1457.55 1111.27 1457.55 1113.01Z" fill="#D3D2F6"/>
<path d="M1485.03 1113.01C1485.03 1114.76 1482.98 1116.18 1480.45 1116.18C1477.92 1116.18 1475.87 1114.76 1475.87 1113.01C1475.87 1111.27 1477.92 1109.85 1480.45 1109.85C1482.98 1109.85 1485.03 1111.27 1485.03 1113.01Z" fill="#D3D2F6"/>
<path d="M1512.52 1113.01C1512.52 1114.76 1510.47 1116.18 1507.94 1116.18C1505.41 1116.18 1503.35 1114.76 1503.35 1113.01C1503.35 1111.27 1505.41 1109.85 1507.94 1109.85C1510.47 1109.85 1512.52 1111.27 1512.52 1113.01Z" fill="#D3D2F6"/>
<path d="M1540 1113.01C1540 1114.76 1537.95 1116.18 1535.42 1116.18C1532.89 1116.18 1530.84 1114.76 1530.84 1113.01C1530.84 1111.27 1532.89 1109.85 1535.42 1109.85C1537.95 1109.85 1540 1111.27 1540 1113.01Z" fill="#D3D2F6"/>
<path d="M1265.16 1131.99C1265.16 1133.73 1263.11 1135.15 1260.58 1135.15C1258.05 1135.15 1256 1133.73 1256 1131.99C1256 1130.24 1258.05 1128.82 1260.58 1128.82C1263.11 1128.82 1265.16 1130.24 1265.16 1131.99Z" fill="#D3D2F6"/>
<path d="M1292.65 1131.99C1292.65 1133.73 1290.59 1135.15 1288.06 1135.15C1285.53 1135.15 1283.48 1133.73 1283.48 1131.99C1283.48 1130.24 1285.53 1128.82 1288.06 1128.82C1290.59 1128.82 1292.65 1130.24 1292.65 1131.99Z" fill="#D3D2F6"/>
<path d="M1320.13 1131.99C1320.13 1133.73 1318.08 1135.15 1315.55 1135.15C1313.02 1135.15 1310.97 1133.73 1310.97 1131.99C1310.97 1130.24 1313.02 1128.82 1315.55 1128.82C1318.08 1128.82 1320.13 1130.24 1320.13 1131.99Z" fill="#D3D2F6"/>
<path d="M1347.61 1131.99C1347.61 1133.73 1345.56 1135.15 1343.03 1135.15C1340.5 1135.15 1338.45 1133.73 1338.45 1131.99C1338.45 1130.24 1340.5 1128.82 1343.03 1128.82C1345.56 1128.82 1347.61 1130.24 1347.61 1131.99Z" fill="#D3D2F6"/>
<path d="M1375.1 1131.99C1375.1 1133.73 1373.05 1135.15 1370.52 1135.15C1367.99 1135.15 1365.94 1133.73 1365.94 1131.99C1365.94 1130.24 1367.99 1128.82 1370.52 1128.82C1373.05 1128.82 1375.1 1130.24 1375.1 1131.99Z" fill="#D3D2F6"/>
<path d="M1402.58 1131.99C1402.58 1133.73 1400.53 1135.15 1398 1135.15C1395.47 1135.15 1393.42 1133.73 1393.42 1131.99C1393.42 1130.24 1395.47 1128.82 1398 1128.82C1400.53 1128.82 1402.58 1130.24 1402.58 1131.99Z" fill="#D3D2F6"/>
<path d="M1430.06 1131.99C1430.06 1133.73 1428.01 1135.15 1425.48 1135.15C1422.95 1135.15 1420.9 1133.73 1420.9 1131.99C1420.9 1130.24 1422.95 1128.82 1425.48 1128.82C1428.01 1128.82 1430.06 1130.24 1430.06 1131.99Z" fill="#D3D2F6"/>
<path d="M1457.55 1131.99C1457.55 1133.73 1455.5 1135.15 1452.97 1135.15C1450.44 1135.15 1448.39 1133.73 1448.39 1131.99C1448.39 1130.24 1450.44 1128.82 1452.97 1128.82C1455.5 1128.82 1457.55 1130.24 1457.55 1131.99Z" fill="#D3D2F6"/>
<path d="M1485.03 1131.99C1485.03 1133.73 1482.98 1135.15 1480.45 1135.15C1477.92 1135.15 1475.87 1133.73 1475.87 1131.99C1475.87 1130.24 1477.92 1128.82 1480.45 1128.82C1482.98 1128.82 1485.03 1130.24 1485.03 1131.99Z" fill="#D3D2F6"/>
<path d="M1512.52 1131.99C1512.52 1133.73 1510.47 1135.15 1507.94 1135.15C1505.41 1135.15 1503.35 1133.73 1503.35 1131.99C1503.35 1130.24 1505.41 1128.82 1507.94 1128.82C1510.47 1128.82 1512.52 1130.24 1512.52 1131.99Z" fill="#D3D2F6"/>
<path d="M1540 1131.99C1540 1133.73 1537.95 1135.15 1535.42 1135.15C1532.89 1135.15 1530.84 1133.73 1530.84 1131.99C1530.84 1130.24 1532.89 1128.82 1535.42 1128.82C1537.95 1128.82 1540 1130.24 1540 1131.99Z" fill="#D3D2F6"/>
<path d="M1265.16 1150.96C1265.16 1152.7 1263.11 1154.12 1260.58 1154.12C1258.05 1154.12 1256 1152.7 1256 1150.96C1256 1149.21 1258.05 1147.79 1260.58 1147.79C1263.11 1147.79 1265.16 1149.21 1265.16 1150.96Z" fill="#D3D2F6"/>
<path d="M1292.65 1150.96C1292.65 1152.7 1290.59 1154.12 1288.06 1154.12C1285.53 1154.12 1283.48 1152.7 1283.48 1150.96C1283.48 1149.21 1285.53 1147.79 1288.06 1147.79C1290.59 1147.79 1292.65 1149.21 1292.65 1150.96Z" fill="#D3D2F6"/>
<path d="M1320.13 1150.96C1320.13 1152.7 1318.08 1154.12 1315.55 1154.12C1313.02 1154.12 1310.97 1152.7 1310.97 1150.96C1310.97 1149.21 1313.02 1147.79 1315.55 1147.79C1318.08 1147.79 1320.13 1149.21 1320.13 1150.96Z" fill="#D3D2F6"/>
<path d="M1347.61 1150.96C1347.61 1152.7 1345.56 1154.12 1343.03 1154.12C1340.5 1154.12 1338.45 1152.7 1338.45 1150.96C1338.45 1149.21 1340.5 1147.79 1343.03 1147.79C1345.56 1147.79 1347.61 1149.21 1347.61 1150.96Z" fill="#D3D2F6"/>
<path d="M1375.1 1150.96C1375.1 1152.7 1373.05 1154.12 1370.52 1154.12C1367.99 1154.12 1365.94 1152.7 1365.94 1150.96C1365.94 1149.21 1367.99 1147.79 1370.52 1147.79C1373.05 1147.79 1375.1 1149.21 1375.1 1150.96Z" fill="#D3D2F6"/>
<path d="M1402.58 1150.96C1402.58 1152.7 1400.53 1154.12 1398 1154.12C1395.47 1154.12 1393.42 1152.7 1393.42 1150.96C1393.42 1149.21 1395.47 1147.79 1398 1147.79C1400.53 1147.79 1402.58 1149.21 1402.58 1150.96Z" fill="#D3D2F6"/>
<path d="M1430.06 1150.96C1430.06 1152.7 1428.01 1154.12 1425.48 1154.12C1422.95 1154.12 1420.9 1152.7 1420.9 1150.96C1420.9 1149.21 1422.95 1147.79 1425.48 1147.79C1428.01 1147.79 1430.06 1149.21 1430.06 1150.96Z" fill="#D3D2F6"/>
<path d="M1457.55 1150.96C1457.55 1152.7 1455.5 1154.12 1452.97 1154.12C1450.44 1154.12 1448.39 1152.7 1448.39 1150.96C1448.39 1149.21 1450.44 1147.79 1452.97 1147.79C1455.5 1147.79 1457.55 1149.21 1457.55 1150.96Z" fill="#D3D2F6"/>
<path d="M1485.03 1150.96C1485.03 1152.7 1482.98 1154.12 1480.45 1154.12C1477.92 1154.12 1475.87 1152.7 1475.87 1150.96C1475.87 1149.21 1477.92 1147.79 1480.45 1147.79C1482.98 1147.79 1485.03 1149.21 1485.03 1150.96Z" fill="#D3D2F6"/>
<path d="M1512.52 1150.96C1512.52 1152.7 1510.47 1154.12 1507.94 1154.12C1505.41 1154.12 1503.35 1152.7 1503.35 1150.96C1503.35 1149.21 1505.41 1147.79 1507.94 1147.79C1510.47 1147.79 1512.52 1149.21 1512.52 1150.96Z" fill="#D3D2F6"/>
<path d="M1540 1150.96C1540 1152.7 1537.95 1154.12 1535.42 1154.12C1532.89 1154.12 1530.84 1152.7 1530.84 1150.96C1530.84 1149.21 1532.89 1147.79 1535.42 1147.79C1537.95 1147.79 1540 1149.21 1540 1150.96Z" fill="#D3D2F6"/>
<path d="M1265.16 1169.93C1265.16 1171.67 1263.11 1173.09 1260.58 1173.09C1258.05 1173.09 1256 1171.67 1256 1169.93C1256 1168.18 1258.05 1166.76 1260.58 1166.76C1263.11 1166.76 1265.16 1168.18 1265.16 1169.93Z" fill="#D3D2F6"/>
<path d="M1292.65 1169.93C1292.65 1171.67 1290.59 1173.09 1288.06 1173.09C1285.53 1173.09 1283.48 1171.67 1283.48 1169.93C1283.48 1168.18 1285.53 1166.76 1288.06 1166.76C1290.59 1166.76 1292.65 1168.18 1292.65 1169.93Z" fill="#D3D2F6"/>
<path d="M1320.13 1169.93C1320.13 1171.67 1318.08 1173.09 1315.55 1173.09C1313.02 1173.09 1310.97 1171.67 1310.97 1169.93C1310.97 1168.18 1313.02 1166.76 1315.55 1166.76C1318.08 1166.76 1320.13 1168.18 1320.13 1169.93Z" fill="#D3D2F6"/>
<path d="M1347.61 1169.93C1347.61 1171.67 1345.56 1173.09 1343.03 1173.09C1340.5 1173.09 1338.45 1171.67 1338.45 1169.93C1338.45 1168.18 1340.5 1166.76 1343.03 1166.76C1345.56 1166.76 1347.61 1168.18 1347.61 1169.93Z" fill="#D3D2F6"/>
<path d="M1375.1 1169.93C1375.1 1171.67 1373.05 1173.09 1370.52 1173.09C1367.99 1173.09 1365.94 1171.67 1365.94 1169.93C1365.94 1168.18 1367.99 1166.76 1370.52 1166.76C1373.05 1166.76 1375.1 1168.18 1375.1 1169.93Z" fill="#D3D2F6"/>
<path d="M1402.58 1169.93C1402.58 1171.67 1400.53 1173.09 1398 1173.09C1395.47 1173.09 1393.42 1171.67 1393.42 1169.93C1393.42 1168.18 1395.47 1166.76 1398 1166.76C1400.53 1166.76 1402.58 1168.18 1402.58 1169.93Z" fill="#D3D2F6"/>
<path d="M1430.06 1169.93C1430.06 1171.67 1428.01 1173.09 1425.48 1173.09C1422.95 1173.09 1420.9 1171.67 1420.9 1169.93C1420.9 1168.18 1422.95 1166.76 1425.48 1166.76C1428.01 1166.76 1430.06 1168.18 1430.06 1169.93Z" fill="#D3D2F6"/>
<path d="M1457.55 1169.93C1457.55 1171.67 1455.5 1173.09 1452.97 1173.09C1450.44 1173.09 1448.39 1171.67 1448.39 1169.93C1448.39 1168.18 1450.44 1166.76 1452.97 1166.76C1455.5 1166.76 1457.55 1168.18 1457.55 1169.93Z" fill="#D3D2F6"/>
<path d="M1485.03 1169.93C1485.03 1171.67 1482.98 1173.09 1480.45 1173.09C1477.92 1173.09 1475.87 1171.67 1475.87 1169.93C1475.87 1168.18 1477.92 1166.76 1480.45 1166.76C1482.98 1166.76 1485.03 1168.18 1485.03 1169.93Z" fill="#D3D2F6"/>
<path d="M1512.52 1169.93C1512.52 1171.67 1510.47 1173.09 1507.94 1173.09C1505.41 1173.09 1503.35 1171.67 1503.35 1169.93C1503.35 1168.18 1505.41 1166.76 1507.94 1166.76C1510.47 1166.76 1512.52 1168.18 1512.52 1169.93Z" fill="#D3D2F6"/>
<path d="M1540 1169.93C1540 1171.67 1537.95 1173.09 1535.42 1173.09C1532.89 1173.09 1530.84 1171.67 1530.84 1169.93C1530.84 1168.18 1532.89 1166.76 1535.42 1166.76C1537.95 1166.76 1540 1168.18 1540 1169.93Z" fill="#D3D2F6"/>
<path d="M1265.16 1188.9C1265.16 1190.64 1263.11 1192.06 1260.58 1192.06C1258.05 1192.06 1256 1190.64 1256 1188.9C1256 1187.15 1258.05 1185.74 1260.58 1185.74C1263.11 1185.74 1265.16 1187.15 1265.16 1188.9Z" fill="#D3D2F6"/>
<path d="M1292.65 1188.9C1292.65 1190.64 1290.59 1192.06 1288.06 1192.06C1285.53 1192.06 1283.48 1190.64 1283.48 1188.9C1283.48 1187.15 1285.53 1185.74 1288.06 1185.74C1290.59 1185.74 1292.65 1187.15 1292.65 1188.9Z" fill="#D3D2F6"/>
<path d="M1320.13 1188.9C1320.13 1190.64 1318.08 1192.06 1315.55 1192.06C1313.02 1192.06 1310.97 1190.64 1310.97 1188.9C1310.97 1187.15 1313.02 1185.74 1315.55 1185.74C1318.08 1185.74 1320.13 1187.15 1320.13 1188.9Z" fill="#D3D2F6"/>
<path d="M1347.61 1188.9C1347.61 1190.64 1345.56 1192.06 1343.03 1192.06C1340.5 1192.06 1338.45 1190.64 1338.45 1188.9C1338.45 1187.15 1340.5 1185.74 1343.03 1185.74C1345.56 1185.74 1347.61 1187.15 1347.61 1188.9Z" fill="#D3D2F6"/>
<path d="M1375.1 1188.9C1375.1 1190.64 1373.05 1192.06 1370.52 1192.06C1367.99 1192.06 1365.94 1190.64 1365.94 1188.9C1365.94 1187.15 1367.99 1185.74 1370.52 1185.74C1373.05 1185.74 1375.1 1187.15 1375.1 1188.9Z" fill="#D3D2F6"/>
<path d="M1402.58 1188.9C1402.58 1190.64 1400.53 1192.06 1398 1192.06C1395.47 1192.06 1393.42 1190.64 1393.42 1188.9C1393.42 1187.15 1395.47 1185.74 1398 1185.74C1400.53 1185.74 1402.58 1187.15 1402.58 1188.9Z" fill="#D3D2F6"/>
<path d="M1430.06 1188.9C1430.06 1190.64 1428.01 1192.06 1425.48 1192.06C1422.95 1192.06 1420.9 1190.64 1420.9 1188.9C1420.9 1187.15 1422.95 1185.74 1425.48 1185.74C1428.01 1185.74 1430.06 1187.15 1430.06 1188.9Z" fill="#D3D2F6"/>
<path d="M1457.55 1188.9C1457.55 1190.64 1455.5 1192.06 1452.97 1192.06C1450.44 1192.06 1448.39 1190.64 1448.39 1188.9C1448.39 1187.15 1450.44 1185.74 1452.97 1185.74C1455.5 1185.74 1457.55 1187.15 1457.55 1188.9Z" fill="#D3D2F6"/>
<path d="M1485.03 1188.9C1485.03 1190.64 1482.98 1192.06 1480.45 1192.06C1477.92 1192.06 1475.87 1190.64 1475.87 1188.9C1475.87 1187.15 1477.92 1185.74 1480.45 1185.74C1482.98 1185.74 1485.03 1187.15 1485.03 1188.9Z" fill="#D3D2F6"/>
<path d="M1512.52 1188.9C1512.52 1190.64 1510.47 1192.06 1507.94 1192.06C1505.41 1192.06 1503.35 1190.64 1503.35 1188.9C1503.35 1187.15 1505.41 1185.74 1507.94 1185.74C1510.47 1185.74 1512.52 1187.15 1512.52 1188.9Z" fill="#D3D2F6"/>
<path d="M1540 1188.9C1540 1190.64 1537.95 1192.06 1535.42 1192.06C1532.89 1192.06 1530.84 1190.64 1530.84 1188.9C1530.84 1187.15 1532.89 1185.74 1535.42 1185.74C1537.95 1185.74 1540 1187.15 1540 1188.9Z" fill="#D3D2F6"/>
<path d="M1265.16 1207.87C1265.16 1209.61 1263.11 1211.03 1260.58 1211.03C1258.05 1211.03 1256 1209.61 1256 1207.87C1256 1206.12 1258.05 1204.71 1260.58 1204.71C1263.11 1204.71 1265.16 1206.12 1265.16 1207.87Z" fill="#D3D2F6"/>
<path d="M1292.65 1207.87C1292.65 1209.61 1290.59 1211.03 1288.06 1211.03C1285.53 1211.03 1283.48 1209.61 1283.48 1207.87C1283.48 1206.12 1285.53 1204.71 1288.06 1204.71C1290.59 1204.71 1292.65 1206.12 1292.65 1207.87Z" fill="#D3D2F6"/>
<path d="M1320.13 1207.87C1320.13 1209.61 1318.08 1211.03 1315.55 1211.03C1313.02 1211.03 1310.97 1209.61 1310.97 1207.87C1310.97 1206.12 1313.02 1204.71 1315.55 1204.71C1318.08 1204.71 1320.13 1206.12 1320.13 1207.87Z" fill="#D3D2F6"/>
<path d="M1347.61 1207.87C1347.61 1209.61 1345.56 1211.03 1343.03 1211.03C1340.5 1211.03 1338.45 1209.61 1338.45 1207.87C1338.45 1206.12 1340.5 1204.71 1343.03 1204.71C1345.56 1204.71 1347.61 1206.12 1347.61 1207.87Z" fill="#D3D2F6"/>
<path d="M1375.1 1207.87C1375.1 1209.61 1373.05 1211.03 1370.52 1211.03C1367.99 1211.03 1365.94 1209.61 1365.94 1207.87C1365.94 1206.12 1367.99 1204.71 1370.52 1204.71C1373.05 1204.71 1375.1 1206.12 1375.1 1207.87Z" fill="#D3D2F6"/>
<path d="M1402.58 1207.87C1402.58 1209.61 1400.53 1211.03 1398 1211.03C1395.47 1211.03 1393.42 1209.61 1393.42 1207.87C1393.42 1206.12 1395.47 1204.71 1398 1204.71C1400.53 1204.71 1402.58 1206.12 1402.58 1207.87Z" fill="#D3D2F6"/>
<path d="M1430.06 1207.87C1430.06 1209.61 1428.01 1211.03 1425.48 1211.03C1422.95 1211.03 1420.9 1209.61 1420.9 1207.87C1420.9 1206.12 1422.95 1204.71 1425.48 1204.71C1428.01 1204.71 1430.06 1206.12 1430.06 1207.87Z" fill="#D3D2F6"/>
<path d="M1457.55 1207.87C1457.55 1209.61 1455.5 1211.03 1452.97 1211.03C1450.44 1211.03 1448.39 1209.61 1448.39 1207.87C1448.39 1206.12 1450.44 1204.71 1452.97 1204.71C1455.5 1204.71 1457.55 1206.12 1457.55 1207.87Z" fill="#D3D2F6"/>
<path d="M1485.03 1207.87C1485.03 1209.61 1482.98 1211.03 1480.45 1211.03C1477.92 1211.03 1475.87 1209.61 1475.87 1207.87C1475.87 1206.12 1477.92 1204.71 1480.45 1204.71C1482.98 1204.71 1485.03 1206.12 1485.03 1207.87Z" fill="#D3D2F6"/>
<path d="M1512.52 1207.87C1512.52 1209.61 1510.47 1211.03 1507.94 1211.03C1505.41 1211.03 1503.35 1209.61 1503.35 1207.87C1503.35 1206.12 1505.41 1204.71 1507.94 1204.71C1510.47 1204.71 1512.52 1206.12 1512.52 1207.87Z" fill="#D3D2F6"/>
<path d="M1540 1207.87C1540 1209.61 1537.95 1211.03 1535.42 1211.03C1532.89 1211.03 1530.84 1209.61 1530.84 1207.87C1530.84 1206.12 1532.89 1204.71 1535.42 1204.71C1537.95 1204.71 1540 1206.12 1540 1207.87Z" fill="#D3D2F6"/>
<path d="M1265.16 1226.84C1265.16 1228.58 1263.11 1230 1260.58 1230C1258.05 1230 1256 1228.58 1256 1226.84C1256 1225.09 1258.05 1223.68 1260.58 1223.68C1263.11 1223.68 1265.16 1225.09 1265.16 1226.84Z" fill="#D3D2F6"/>
<path d="M1292.65 1226.84C1292.65 1228.58 1290.59 1230 1288.06 1230C1285.53 1230 1283.48 1228.58 1283.48 1226.84C1283.48 1225.09 1285.53 1223.68 1288.06 1223.68C1290.59 1223.68 1292.65 1225.09 1292.65 1226.84Z" fill="#D3D2F6"/>
<path d="M1320.13 1226.84C1320.13 1228.58 1318.08 1230 1315.55 1230C1313.02 1230 1310.97 1228.58 1310.97 1226.84C1310.97 1225.09 1313.02 1223.68 1315.55 1223.68C1318.08 1223.68 1320.13 1225.09 1320.13 1226.84Z" fill="#D3D2F6"/>
<path d="M1347.61 1226.84C1347.61 1228.58 1345.56 1230 1343.03 1230C1340.5 1230 1338.45 1228.58 1338.45 1226.84C1338.45 1225.09 1340.5 1223.68 1343.03 1223.68C1345.56 1223.68 1347.61 1225.09 1347.61 1226.84Z" fill="#D3D2F6"/>
<path d="M1375.1 1226.84C1375.1 1228.58 1373.05 1230 1370.52 1230C1367.99 1230 1365.94 1228.58 1365.94 1226.84C1365.94 1225.09 1367.99 1223.68 1370.52 1223.68C1373.05 1223.68 1375.1 1225.09 1375.1 1226.84Z" fill="#D3D2F6"/>
<path d="M1402.58 1226.84C1402.58 1228.58 1400.53 1230 1398 1230C1395.47 1230 1393.42 1228.58 1393.42 1226.84C1393.42 1225.09 1395.47 1223.68 1398 1223.68C1400.53 1223.68 1402.58 1225.09 1402.58 1226.84Z" fill="#D3D2F6"/>
<path d="M1430.06 1226.84C1430.06 1228.58 1428.01 1230 1425.48 1230C1422.95 1230 1420.9 1228.58 1420.9 1226.84C1420.9 1225.09 1422.95 1223.68 1425.48 1223.68C1428.01 1223.68 1430.06 1225.09 1430.06 1226.84Z" fill="#D3D2F6"/>
<path d="M1457.55 1226.84C1457.55 1228.58 1455.5 1230 1452.97 1230C1450.44 1230 1448.39 1228.58 1448.39 1226.84C1448.39 1225.09 1450.44 1223.68 1452.97 1223.68C1455.5 1223.68 1457.55 1225.09 1457.55 1226.84Z" fill="#D3D2F6"/>
<path d="M1485.03 1226.84C1485.03 1228.58 1482.98 1230 1480.45 1230C1477.92 1230 1475.87 1228.58 1475.87 1226.84C1475.87 1225.09 1477.92 1223.68 1480.45 1223.68C1482.98 1223.68 1485.03 1225.09 1485.03 1226.84Z" fill="#D3D2F6"/>
<path d="M1512.52 1226.84C1512.52 1228.58 1510.47 1230 1507.94 1230C1505.41 1230 1503.35 1228.58 1503.35 1226.84C1503.35 1225.09 1505.41 1223.68 1507.94 1223.68C1510.47 1223.68 1512.52 1225.09 1512.52 1226.84Z" fill="#D3D2F6"/>
<path d="M1540 1226.84C1540 1228.58 1537.95 1230 1535.42 1230C1532.89 1230 1530.84 1228.58 1530.84 1226.84C1530.84 1225.09 1532.89 1223.68 1535.42 1223.68C1537.95 1223.68 1540 1225.09 1540 1226.84Z" fill="#D3D2F6"/>
</svg>
