<svg width="805" height="665" viewBox="0 0 805 665" fill="none" xmlns="http://www.w3.org/2000/svg">
<path d="M426.366 238.601C434.952 238.601 649.44 237.336 710.01 237.336C714.258 237.336 708.894 231.133 706.554 230.691C699.102 229.32 691.344 229.244 683.784 228.573C676.318 227.981 669 226.439 662.076 224.001C656.118 221.867 650.16 219.429 643.698 218.56C631.224 216.899 620.298 222.629 608.562 225.159C605.008 226.026 601.28 226.254 597.616 225.829C593.952 225.404 590.433 224.335 587.286 222.69C581.886 219.947 576.954 216.594 571.302 214.217C560.463 209.695 548.638 207.118 536.567 206.646C524.497 206.173 512.441 207.817 501.156 211.474C495.786 213.222 490.651 215.449 485.838 218.118C480.114 221.288 475.182 225.357 469.458 228.482C456.75 235.446 441.036 233.191 427.194 237.168C426.474 237.397 425.556 238.601 426.366 238.601Z" fill="#EBEBEB"/>
<path d="M138.6 454.46C147.186 454.46 361.656 453.195 422.244 453.195C426.474 453.195 421.128 446.977 418.788 446.55C411.336 445.163 403.578 445.102 396 444.432C388.534 443.838 381.216 442.296 374.292 439.86C368.334 437.726 362.394 435.288 355.932 434.419C343.458 432.758 332.532 438.488 320.796 441.018C317.245 441.876 313.522 442.097 309.865 441.666C306.207 441.236 302.696 440.164 299.556 438.519C294.156 435.776 289.224 432.423 283.572 430.045C272.738 425.535 260.921 422.966 248.86 422.499C236.8 422.033 224.755 423.678 213.48 427.333C208.102 429.077 202.961 431.305 198.144 433.977C192.438 437.147 187.506 441.216 181.764 444.34C169.074 451.305 153.36 449.05 139.5 453.027C138.708 453.241 137.844 454.46 138.6 454.46Z" fill="#EBEBEB"/>
<path d="M42.642 394.978C54 394.978 245.214 396.045 257.238 395.725C258.102 395.725 258.57 394.628 257.706 394.201C250.128 391.031 241.506 391.671 233.658 389.416C229.032 388.105 226.188 385.529 222.966 382.588C220.301 380.032 216.867 378.135 213.03 377.102C209.522 376.205 205.798 376.105 202.23 376.812C198.342 377.589 195.03 379.464 191.286 380.653C182.088 383.594 173.16 380.805 166.608 375.044C161.208 370.305 155.808 365.824 148.518 363.279C145.516 362.128 142.266 361.513 138.97 361.474C135.675 361.434 132.405 361.971 129.366 363.05C122.364 365.733 117.54 371.158 110.952 374.404C103.14 378.275 93.798 377.361 85.176 378.519C76.554 379.677 69.93 385.834 62.37 389.385C59.9014 390.72 57.0537 391.468 54.126 391.549C52.434 391.549 50.778 391.122 49.104 390.94C46.494 390.665 44.028 390.726 42.264 392.57C41.814 393.088 41.904 394.978 42.642 394.978Z" fill="#EBEBEB"/>
<path d="M120.96 234.501C129.258 234.501 268.866 235.278 277.56 235.05C278.19 235.05 278.532 234.242 277.902 233.983C272.376 231.666 266.094 232.124 260.352 230.493C257.277 229.448 254.587 227.727 252.558 225.509C250.625 223.648 248.139 222.259 245.358 221.486C242.79 220.834 240.065 220.766 237.456 221.288C234.716 222.073 232.04 223.009 229.446 224.092C222.75 226.241 216.234 224.199 211.446 219.993C207.486 216.533 203.616 213.272 198.234 211.397C196.04 210.561 193.667 210.114 191.262 210.085C188.856 210.057 186.469 210.446 184.248 211.23C179.136 213.196 175.626 217.158 170.82 219.52C165.114 222.355 158.22 221.684 151.992 222.568C145.764 223.452 140.868 227.902 135.342 230.493C133.532 231.453 131.448 231.98 129.312 232.017C128.104 231.927 126.903 231.784 125.712 231.59C124.832 231.386 123.903 231.389 123.024 231.598C122.146 231.808 121.351 232.216 120.726 232.779C120.348 233.114 120.42 234.501 120.96 234.501Z" fill="#EBEBEB"/>
<path d="M627.642 297.899C635.94 297.899 775.548 298.677 784.242 298.448C784.872 298.448 785.214 297.64 784.584 297.381C779.058 295.065 772.776 295.537 767.034 293.891C763.956 292.851 761.264 291.13 759.24 288.908C757.307 287.047 754.821 285.658 752.04 284.885C749.472 284.233 746.747 284.164 744.138 284.686C741.398 285.471 738.722 286.408 736.128 287.491C729.432 289.639 722.916 287.597 718.128 283.391C714.168 279.932 710.298 276.67 704.916 274.796C702.723 273.957 700.348 273.511 697.942 273.485C695.535 273.458 693.148 273.853 690.93 274.643C685.818 276.594 682.308 280.556 677.502 282.934C671.796 285.753 664.902 285.083 658.674 285.982C652.446 286.881 647.55 291.316 642.024 293.907C640.214 294.866 638.13 295.393 635.994 295.431C634.77 295.431 633.546 295.111 632.394 294.989C631.514 294.784 630.585 294.787 629.706 294.997C628.828 295.206 628.033 295.614 627.408 296.177C627.03 296.513 627.156 297.899 627.642 297.899Z" fill="#EBEBEB"/>
<path d="M19.818 646.743C18.792 646.377 18.342 647.81 19.368 648.16C20.667 648.613 21.7222 649.456 22.3303 650.528C22.9385 651.601 23.0567 652.825 22.662 653.967C22.5999 654.155 22.6286 654.356 22.7417 654.526C22.8548 654.696 23.043 654.821 23.265 654.873C23.487 654.926 23.7245 654.902 23.9254 654.806C24.1262 654.71 24.2739 654.551 24.336 654.363C24.8495 652.844 24.67 651.218 23.833 649.806C22.9961 648.395 21.5629 647.301 19.818 646.743Z" fill="#EBEBEB"/>
<path d="M27.468 645.356C26.366 647.401 26.0148 649.679 26.46 651.894C26.622 652.824 28.26 652.428 28.134 651.498C27.792 649.67 28.0794 647.797 28.962 646.103C29.412 645.25 27.918 644.488 27.468 645.356Z" fill="#EBEBEB"/>
<path d="M667.728 656.055C666.684 655.69 666.234 657.122 667.26 657.488C668.564 657.935 669.624 658.778 670.234 659.852C670.843 660.925 670.957 662.153 670.554 663.294C670.524 663.475 670.574 663.658 670.693 663.81C670.812 663.962 670.993 664.072 671.201 664.118C671.409 664.165 671.63 664.146 671.823 664.064C672.015 663.983 672.166 663.844 672.246 663.675C672.751 662.157 672.567 660.534 671.731 659.124C670.896 657.714 669.468 656.62 667.728 656.055Z" fill="#EBEBEB"/>
<path d="M675.36 654.653C674.274 656.702 673.923 658.975 674.352 661.191C674.532 662.121 676.152 661.725 676.044 660.795C675.693 658.967 675.98 657.091 676.872 655.4C677.322 654.562 675.756 653.815 675.36 654.653Z" fill="#EBEBEB"/>
<path d="M189.846 643.39C188.802 643.025 188.352 644.457 189.378 644.823C190.676 645.273 191.73 646.113 192.339 647.183C192.947 648.252 193.066 649.475 192.672 650.614C192.635 650.797 192.679 650.985 192.796 651.141C192.913 651.298 193.095 651.412 193.306 651.461C193.517 651.511 193.742 651.492 193.938 651.409C194.133 651.325 194.285 651.183 194.364 651.01C194.869 649.492 194.685 647.869 193.85 646.459C193.014 645.049 191.586 643.955 189.846 643.39Z" fill="#EBEBEB"/>
<path d="M197.478 642.019C196.385 644.06 196.034 646.33 196.47 648.541C196.65 649.486 198.27 649.09 198.144 648.16C197.799 646.331 198.093 644.455 198.99 642.765C199.44 641.897 197.928 641.15 197.478 642.019Z" fill="#EBEBEB"/>
<path d="M292.554 644.503C291.564 644.046 290.754 645.326 291.672 645.768C292.624 646.188 293.406 646.839 293.919 647.637C294.432 648.435 294.652 649.344 294.552 650.249C294.462 651.194 296.208 651.194 296.352 650.249C296.458 649.081 296.154 647.912 295.479 646.89C294.803 645.868 293.785 645.038 292.554 644.503Z" fill="#EBEBEB"/>
<path d="M297.756 642.186C297.234 641.348 295.722 642.095 296.262 642.933C297.49 644.872 298.058 647.062 297.9 649.258C297.9 650.203 299.592 650.203 299.7 649.258C299.849 646.793 299.176 644.342 297.756 642.186Z" fill="#EBEBEB"/>
<path d="M301.788 643.162C300.839 644.598 300.455 646.253 300.69 647.886C300.816 648.816 302.49 648.831 302.49 647.886C302.259 646.516 302.562 645.12 303.354 643.909C303.84 643.086 302.328 642.339 301.788 643.162Z" fill="#EBEBEB"/>
<path d="M774.756 638.91C773.766 638.468 772.956 639.748 773.874 640.19C774.823 640.609 775.603 641.257 776.115 642.052C776.628 642.847 776.85 643.753 776.754 644.655C776.664 645.615 778.41 645.6 778.554 644.655C778.655 643.488 778.35 642.321 777.674 641.3C776.999 640.278 775.984 639.447 774.756 638.91Z" fill="#EBEBEB"/>
<path d="M779.85 636.609C779.328 635.771 777.816 636.502 778.356 637.34C779.584 639.279 780.152 641.469 779.994 643.665C779.994 644.61 781.686 644.61 781.794 643.665C781.944 641.205 781.27 638.759 779.85 636.609Z" fill="#EBEBEB"/>
<path d="M783.9 637.584C782.944 639.012 782.559 640.664 782.802 642.293C782.928 643.238 784.602 643.238 784.602 642.293C784.368 640.928 784.672 639.535 785.466 638.331C785.583 638.155 785.613 637.947 785.548 637.752C785.484 637.558 785.332 637.393 785.124 637.294C785.021 637.245 784.908 637.214 784.791 637.202C784.674 637.19 784.555 637.197 784.441 637.224C784.212 637.279 784.017 637.408 783.9 637.584Z" fill="#EBEBEB"/>
<path d="M428.076 638.087C428.274 638.016 428.495 638.008 428.7 638.065C428.904 638.122 429.076 638.241 429.185 638.398C429.293 638.555 429.33 638.74 429.288 638.919C429.246 639.098 429.129 639.257 428.958 639.368C427.827 639.937 426.901 640.758 426.283 641.741C425.664 642.725 425.375 643.833 425.448 644.945C425.448 645.89 423.756 645.89 423.648 644.945C423.574 643.569 423.948 642.201 424.729 640.992C425.509 639.783 426.667 638.778 428.076 638.087Z" fill="#EBEBEB"/>
<path d="M421.686 641.638C421.884 642.628 422.082 643.619 422.298 644.686C422.514 645.752 420.804 646.011 420.606 645.067L420.012 642.019C419.814 641.089 421.506 640.693 421.686 641.638Z" fill="#EBEBEB"/>
<path d="M126.324 656.772C125.46 656.177 124.218 657.213 125.082 657.823C126.098 658.508 126.904 659.391 127.431 660.397C127.957 661.403 128.189 662.501 128.106 663.599C128.106 664.559 129.798 664.559 129.906 663.599C129.983 662.303 129.699 661.01 129.077 659.824C128.455 658.638 127.512 657.592 126.324 656.772Z" fill="#EBEBEB"/>
<path d="M632.142 648.252C633.006 647.658 634.248 648.694 633.366 649.304C632.356 649.996 631.557 650.883 631.034 651.891C630.511 652.898 630.28 653.997 630.36 655.095C630.36 656.04 628.668 656.04 628.56 655.095C628.48 653.796 628.763 652.5 629.385 651.311C630.008 650.122 630.952 649.074 632.142 648.252Z" fill="#EBEBEB"/>
<path d="M567.486 654.272C566.307 655.285 565.438 656.527 564.955 657.89C564.472 659.253 564.389 660.694 564.714 662.09C564.912 663.02 566.514 662.624 566.388 661.694C566.139 660.552 566.22 659.377 566.625 658.267C567.029 657.158 567.745 656.148 568.71 655.324C569.556 654.653 568.26 653.586 567.486 654.272Z" fill="#EBEBEB"/>
<path d="M561.114 655.079V660.048C561.114 660.25 561.209 660.444 561.378 660.586C561.546 660.729 561.775 660.81 562.014 660.81C562.253 660.81 562.482 660.729 562.65 660.586C562.819 660.444 562.914 660.25 562.914 660.048V655.079C562.914 654.877 562.819 654.683 562.65 654.541C562.482 654.398 562.253 654.317 562.014 654.317C561.775 654.317 561.546 654.398 561.378 654.541C561.209 654.683 561.114 654.877 561.114 655.079Z" fill="#EBEBEB"/>
<path d="M570.456 656.65C569.67 657.08 569.03 657.675 568.597 658.378C568.165 659.08 567.956 659.866 567.99 660.658C567.99 661.618 569.79 661.618 569.79 660.658C569.748 660.122 569.874 659.585 570.155 659.104C570.436 658.622 570.863 658.212 571.392 657.915C572.274 657.396 571.356 656.177 570.456 656.65Z" fill="#EBEBEB"/>
<path d="M386.064 653.663C384.891 654.68 384.027 655.922 383.544 657.283C383.061 658.645 382.975 660.085 383.292 661.481C383.49 662.41 385.092 662.014 384.984 661.084C384.735 659.943 384.816 658.767 385.221 657.658C385.625 656.548 386.341 655.538 387.306 654.714C388.08 654.028 386.856 652.977 386.064 653.663Z" fill="#EBEBEB"/>
<path d="M379.71 654.47V659.438C379.71 659.64 379.805 659.834 379.974 659.977C380.142 660.12 380.371 660.2 380.61 660.2C380.849 660.2 381.078 660.12 381.246 659.977C381.415 659.834 381.51 659.64 381.51 659.438V654.47C381.51 654.268 381.415 654.074 381.246 653.931C381.078 653.788 380.849 653.708 380.61 653.708C380.371 653.708 380.142 653.788 379.974 653.931C379.805 654.074 379.71 654.268 379.71 654.47Z" fill="#EBEBEB"/>
<path d="M389.052 656.04C388.266 656.47 387.626 657.065 387.193 657.768C386.761 658.47 386.552 659.256 386.586 660.048C386.586 660.25 386.681 660.444 386.85 660.587C387.018 660.729 387.247 660.81 387.486 660.81C387.725 660.81 387.954 660.729 388.122 660.587C388.291 660.444 388.386 660.25 388.386 660.048C388.344 659.512 388.47 658.975 388.751 658.494C389.032 658.012 389.459 657.602 389.988 657.305C390.87 656.786 389.988 655.506 389.052 656.04Z" fill="#EBEBEB"/>
<path d="M567.108 273.455L568.71 276.198L572.274 276.64L569.7 278.759L570.312 281.776L567.108 280.359L563.922 281.776L564.534 278.759L561.942 276.64L565.524 276.198L567.108 273.455Z" fill="#DBDBDB"/>
<path d="M765.702 389.386L767.304 392.129L770.868 392.556L768.294 394.689L768.906 397.707L765.702 396.274L762.516 397.707L763.128 394.689L760.554 392.556L764.118 392.129L765.702 389.386Z" fill="#DBDBDB"/>
<path d="M217.098 42.9805L218.7 45.7084L222.264 46.1504L219.69 48.284L220.302 51.2863L217.098 49.869L213.912 51.2863L214.524 48.284L211.932 46.1504L215.514 45.7084L217.098 42.9805Z" fill="#DBDBDB"/>
<path d="M527.328 5.87109L528.93 8.61429L532.494 9.04101L529.92 11.1746L530.514 14.1921L527.328 12.7596L524.142 14.1921L524.754 11.1746L522.162 9.04101L525.726 8.61429L527.328 5.87109Z" fill="#DBDBDB"/>
<path d="M723.996 201.903L725.598 204.647L729.162 205.073L726.588 207.207L727.182 210.224L723.996 208.792L720.81 210.224L721.422 207.207L718.83 205.073L722.412 204.647L723.996 201.903Z" fill="#DBDBDB"/>
<path d="M717.174 534.79L718.758 537.533L722.34 537.975L719.748 540.094L720.36 543.111L717.174 541.694L713.97 543.111L714.582 540.094L712.008 537.975L715.572 537.533L717.174 534.79Z" fill="#DBDBDB"/>
<path d="M270.468 376.63L272.052 379.373L275.634 379.8L273.042 381.933L273.654 384.951L270.468 383.534L267.264 384.951L267.876 381.933L265.302 379.8L268.866 379.373L270.468 376.63Z" fill="#DBDBDB"/>
<path d="M136.224 257.804L137.826 260.547L141.39 260.989L138.816 263.107L139.428 266.125L136.224 264.707L133.038 266.125L133.65 263.107L131.058 260.989L134.64 260.547L136.224 257.804Z" fill="#DBDBDB"/>
<path d="M82.8541 432.408L84.4561 435.136L88.0201 435.578L85.4461 437.712L86.04 440.729L82.8541 439.297L79.668 440.729L80.262 437.712L77.688 435.578L81.2521 435.136L82.8541 432.408Z" fill="#DBDBDB"/>
<path d="M19.44 170.249L20.43 171.941L22.644 172.2L21.042 173.526L21.42 175.385L19.44 174.501L17.478 175.385L17.856 173.526L16.254 172.2L18.468 171.941L19.44 170.249Z" fill="#DBDBDB"/>
<path d="M184.428 165.632L185.418 167.323L187.614 167.598L186.03 168.908L186.39 170.768L184.428 169.899L182.448 170.768L182.826 168.908L181.242 167.598L183.438 167.323L184.428 165.632Z" fill="#DBDBDB"/>
<path d="M153.558 272.479L154.548 274.171L156.744 274.445L155.16 275.756L155.538 277.615L153.558 276.731L151.578 277.615L151.956 275.756L150.372 274.445L152.568 274.171L153.558 272.479Z" fill="#DBDBDB"/>
<path d="M547.974 318.443L548.964 320.135L551.16 320.409L549.576 321.72L549.954 323.579L547.974 322.711L545.994 323.579L546.372 321.72L544.788 320.409L546.984 320.135L547.974 318.443Z" fill="#DBDBDB"/>
<path d="M478.908 203.488L479.898 205.18L482.094 205.454L480.492 206.765L480.87 208.624L478.908 207.755L476.928 208.624L477.306 206.765L475.704 205.454L477.918 205.18L478.908 203.488Z" fill="#DBDBDB"/>
<path d="M784.872 437.696L785.844 439.388L788.058 439.662L786.456 440.988L786.834 442.847L784.872 441.963L782.892 442.847L783.27 440.988L781.668 439.662L783.882 439.388L784.872 437.696Z" fill="#DBDBDB"/>
<path d="M213.912 480.855L214.902 482.547L217.098 482.821L215.514 484.147L215.874 485.991L213.912 485.123L211.932 485.991L212.31 484.147L210.726 482.821L212.922 482.547L213.912 480.855Z" fill="#DBDBDB"/>
<path d="M621.486 506.154L622.458 507.846L624.672 508.105L623.07 509.431L623.448 511.29L621.486 510.406L619.506 511.29L619.884 509.431L618.282 508.105L620.496 507.846L621.486 506.154Z" fill="#DBDBDB"/>
<path d="M561.78 29.2334L562.752 30.925L564.966 31.1994L563.364 32.51L563.742 34.3693L561.78 33.4854L559.8 34.3693L560.178 32.51L558.576 31.1994L560.79 30.925L561.78 29.2334Z" fill="#DBDBDB"/>
<path d="M260.496 199.327L261.486 201.019L263.682 201.293L262.098 202.604L262.458 204.463L260.496 203.594L258.516 204.463L258.894 202.604L257.31 201.293L259.506 201.019L260.496 199.327Z" fill="#DBDBDB"/>
<path d="M153.558 429.832L154.548 431.524L156.744 431.798L155.16 433.109L155.538 434.968L153.558 434.099L151.578 434.968L151.956 433.109L150.372 431.798L152.568 431.524L153.558 429.832Z" fill="#DBDBDB"/>
<path d="M663.03 336.289L664.02 337.981L666.216 338.255L664.614 339.566L664.992 341.425L663.03 340.541L661.05 341.425L661.428 339.566L659.826 338.255L662.04 337.981L663.03 336.289Z" fill="#DBDBDB"/>
<path d="M668.232 483.279C713.752 483.279 750.654 452.036 750.654 413.495C750.654 374.954 713.752 343.711 668.232 343.711C622.712 343.711 585.81 374.954 585.81 413.495C585.81 452.036 622.712 483.279 668.232 483.279Z" fill="#7474E2"/>
<path opacity="0.7" d="M668.232 483.279C713.752 483.279 750.654 452.036 750.654 413.495C750.654 374.954 713.752 343.711 668.232 343.711C622.712 343.711 585.81 374.954 585.81 413.495C585.81 452.036 622.712 483.279 668.232 483.279Z" fill="white"/>
<path opacity="0.5" d="M665.622 475.918C708.508 475.918 743.274 446.483 743.274 410.173C743.274 373.863 708.508 344.428 665.622 344.428C622.736 344.428 587.97 373.863 587.97 410.173C587.97 446.483 622.736 475.918 665.622 475.918Z" fill="white"/>
<path d="M627.768 446.231C627.374 447.082 626.785 447.858 626.034 448.515C625.283 449.172 624.386 449.695 623.394 450.056C622.378 450.421 621.277 450.583 620.175 450.53C619.073 450.478 618.001 450.211 617.04 449.751C615.292 448.967 613.923 447.689 613.17 446.139C614.74 446.729 616.374 447.188 618.048 447.511C619.361 447.781 620.742 447.69 621.99 447.252C623.314 446.797 624.475 446.056 625.356 445.103C626.375 443.968 627.16 442.695 627.678 441.339C628.095 442.102 628.326 442.929 628.357 443.769C628.388 444.61 628.218 445.447 627.858 446.231" fill="#7474E2"/>
<path d="M615.096 444.341C614.7 443.829 614.447 443.247 614.356 442.639C614.266 442.032 614.34 441.415 614.574 440.836C614.831 440.195 615.244 439.608 615.787 439.111C616.329 438.615 616.99 438.221 617.724 437.955C618.482 437.683 619.305 437.569 620.126 437.622C620.946 437.675 621.74 437.894 622.44 438.26C623.668 438.881 624.555 439.89 624.906 441.064C623.764 440.81 622.604 440.622 621.432 440.5C620.65 440.414 619.856 440.503 619.128 440.759C618.362 441.043 617.666 441.446 617.076 441.948C616.287 442.663 615.62 443.469 615.096 444.341Z" fill="#7474E2"/>
<path d="M726.426 379.007C726.518 379.849 726.405 380.699 726.096 381.503C725.786 382.308 725.286 383.05 724.626 383.686C723.925 384.378 723.067 384.944 722.102 385.35C721.137 385.756 720.085 385.993 719.01 386.048C717.907 386.108 716.802 385.952 715.781 385.593C714.761 385.234 713.851 384.68 713.124 383.975C711.804 382.733 711.023 381.147 710.91 379.479C712.159 380.473 713.515 381.366 714.96 382.146C716.098 382.77 717.44 383.074 718.794 383.015C720.19 382.935 721.54 382.557 722.718 381.918C724.143 381.135 725.397 380.151 726.426 379.007Z" fill="#7474E2"/>
<path d="M713.556 378.336C713.382 377.74 713.372 377.117 713.528 376.517C713.684 375.917 714.002 375.356 714.456 374.877C714.946 374.345 715.563 373.907 716.267 373.591C716.972 373.276 717.747 373.091 718.542 373.048C719.365 373.003 720.189 373.127 720.944 373.408C721.699 373.689 722.363 374.12 722.88 374.663C723.335 375.126 723.677 375.661 723.887 376.236C724.097 376.812 724.171 377.417 724.104 378.016C723.13 377.445 722.107 376.936 721.044 376.492C720.344 376.189 719.56 376.052 718.776 376.096C717.938 376.135 717.118 376.316 716.364 376.629C715.338 377.083 714.392 377.658 713.556 378.336Z" fill="#7474E2"/>
<path d="M656.73 432.865C657.281 433.29 657.725 433.804 658.034 434.378C658.343 434.952 658.512 435.572 658.53 436.203C658.561 436.891 658.429 437.577 658.141 438.221C657.854 438.865 657.417 439.453 656.856 439.952C656.282 440.46 655.578 440.85 654.798 441.091C654.017 441.331 653.182 441.416 652.356 441.339C650.873 441.234 649.479 440.695 648.414 439.815C649.706 439.828 650.997 439.731 652.266 439.525C653.268 439.382 654.189 438.971 654.894 438.352C655.628 437.704 656.149 436.906 656.406 436.035C656.722 435.001 656.831 433.93 656.73 432.865Z" fill="#7474E2"/>
<path d="M649.17 438.092C648.716 437.838 648.337 437.501 648.059 437.105C647.782 436.709 647.614 436.265 647.568 435.806C647.516 435.3 647.594 434.79 647.796 434.311C647.998 433.833 648.319 433.396 648.738 433.032C649.161 432.647 649.688 432.355 650.275 432.182C650.862 432.009 651.49 431.961 652.104 432.042C652.632 432.097 653.142 432.241 653.603 432.466C654.063 432.691 654.466 432.993 654.786 433.353C653.91 433.464 653.044 433.627 652.194 433.84C651.622 433.972 651.105 434.236 650.7 434.602C650.261 434.987 649.918 435.443 649.692 435.943C649.403 436.636 649.227 437.359 649.17 438.092Z" fill="#7474E2"/>
<path d="M705.528 409.381C707.9 410.278 709.988 411.638 711.621 413.349C713.254 415.06 714.386 417.074 714.924 419.226C715.421 416.675 715.15 414.06 714.138 411.621C713.126 409.182 711.405 406.998 709.133 405.27C706.862 403.543 704.113 402.328 701.14 401.737C698.168 401.147 695.068 401.199 692.125 401.89C689.183 402.582 686.494 403.889 684.306 405.692C682.118 407.495 680.502 409.736 679.606 412.207C678.71 414.678 678.564 417.301 679.181 419.833C679.798 422.365 681.158 424.724 683.136 426.693C682.114 424.115 681.999 421.341 682.805 418.708C683.611 416.076 685.302 413.698 687.674 411.864C690.046 410.03 692.996 408.819 696.166 408.378C699.335 407.937 702.588 408.286 705.528 409.381Z" fill="#7474E2"/>
<path d="M722.178 419.256C722.275 423.357 720.866 427.383 718.146 430.777C715.407 434.266 711.616 437.07 707.166 438.9C702.622 440.838 697.378 441.241 692.496 440.028C687.832 438.815 683.791 436.301 681.03 432.896C684.573 435.282 688.729 436.932 693.162 437.711C694.223 437.861 695.292 437.957 696.366 438.001C697.428 438.014 698.488 437.943 699.534 437.788C701.644 437.517 703.691 436.966 705.6 436.157C706.554 435.746 707.544 435.304 708.48 434.831C709.416 434.359 710.28 433.825 711.162 433.231C712.907 432.101 714.495 430.808 715.896 429.375C718.786 426.402 720.925 422.958 722.178 419.256Z" fill="#7474E2"/>
<path d="M628.398 375.624C629.342 375.812 630.22 376.187 630.961 376.716C631.702 377.246 632.286 377.916 632.664 378.672C632.648 377.703 632.343 376.753 631.778 375.911C631.212 375.069 630.404 374.362 629.429 373.855C628.454 373.348 627.343 373.058 626.2 373.012C625.057 372.966 623.919 373.166 622.892 373.592C621.864 374.019 620.981 374.658 620.324 375.451C619.666 376.244 619.257 377.165 619.133 378.128C619.009 379.091 619.174 380.065 619.614 380.96C620.054 381.854 620.753 382.64 621.648 383.244C621.085 382.362 620.831 381.362 620.919 380.362C621.006 379.363 621.43 378.405 622.14 377.603C622.851 376.801 623.818 376.188 624.927 375.837C626.036 375.487 627.241 375.412 628.398 375.624Z" fill="#7474E2"/>
<path d="M635.31 378.229C635.798 379.743 635.678 381.352 634.968 382.801C634.278 384.279 633.12 385.566 631.62 386.52C630.086 387.527 628.15 387.991 626.22 387.815C624.383 387.63 622.685 386.895 621.432 385.743C622.955 386.337 624.615 386.639 626.292 386.627C627.844 386.579 629.338 386.115 630.558 385.301C631.875 384.456 632.975 383.394 633.792 382.179C634.609 380.963 635.125 379.619 635.31 378.229Z" fill="#7474E2"/>
<path d="M654.876 456.533C656.252 456.596 657.591 456.934 658.783 457.52C659.975 458.105 660.986 458.921 661.734 459.901C661.402 458.563 660.678 457.317 659.628 456.278C658.579 455.239 657.238 454.44 655.728 453.955C654.218 453.47 652.589 453.313 650.989 453.501C649.39 453.688 647.872 454.213 646.575 455.027C645.278 455.842 644.243 456.919 643.566 458.16C642.89 459.402 642.592 460.767 642.702 462.131C642.812 463.495 643.325 464.814 644.194 465.966C645.063 467.118 646.26 468.067 647.676 468.725C646.258 467.292 645.543 465.454 645.678 463.589C645.733 462.614 646.015 461.658 646.508 460.775C647 459.892 647.694 459.101 648.548 458.445C649.402 457.79 650.401 457.283 651.487 456.955C652.573 456.627 653.725 456.483 654.876 456.533Z" fill="#7474E2"/>
<path d="M665.334 458.712C666.271 460.73 666.459 462.941 665.874 465.052C665.303 467.21 664.06 469.199 662.274 470.812C660.473 472.496 657.982 473.537 655.308 473.723C652.759 473.861 650.228 473.283 648.108 472.077C650.395 472.707 652.825 472.869 655.2 472.55C657.449 472.189 659.497 471.215 661.032 469.776C662.644 468.338 663.872 466.623 664.632 464.747C665.364 462.799 665.604 460.743 665.334 458.712Z" fill="#7474E2"/>
<path d="M17.91 629.4H117.918L106.2 585.676C94.879 585.217 83.8856 582.311 74.268 577.233L105.246 582.11L90.954 528.679C86.3775 526.871 82.0993 524.566 78.228 521.821L89.946 524.96L88.146 517.843C81.6318 515.446 75.6621 512.104 70.506 507.967L86.94 513.393L67.932 442.664L57.222 482.639L66.834 480.612C63.5751 482.478 60.137 484.109 56.556 485.488L41.202 542.745L52.254 540.352C48.4717 542.489 44.4648 544.326 40.284 545.839L29.664 585.463L51.39 580.891C44.368 584.808 36.6589 587.76 28.548 589.639L26.748 596.542L60.156 589.532C49.8514 595.303 38.0971 598.956 25.83 600.2L23.184 610.091L34.29 607.744C30.5128 609.878 26.512 611.715 22.338 613.23L17.91 629.4Z" fill="#455A64"/>
<path d="M36.306 572.83C41.85 574.613 62.334 581.684 66.762 583.741V581.364C61.83 578.91 56.862 576.472 51.912 574.034C46.4198 571.592 41.0843 568.906 35.928 565.987C35.676 565.834 35.82 565.408 36.144 565.53C41.5485 567.664 46.7746 570.108 51.786 572.845C56.826 575.344 61.812 577.92 66.78 580.465C66.78 574.369 66.78 568.38 66.78 562.344C58.6831 559.518 50.8593 556.16 43.38 552.301C43.11 552.179 43.38 551.768 43.578 551.875C51.568 554.602 59.3056 557.831 66.726 561.537C66.726 558.397 66.618 534.227 67.536 503.625C62.676 501.552 57.672 499.723 52.812 497.635C52.506 497.498 52.812 497.026 53.064 497.148C57.996 498.763 62.73 500.699 67.572 502.497C67.842 494.161 68.202 485.824 68.814 477.503C68.814 477.447 68.8406 477.393 68.8878 477.353C68.9351 477.313 68.9992 477.29 69.066 477.29C69.1328 477.29 69.1969 477.313 69.2442 477.353C69.2915 477.393 69.318 477.447 69.318 477.503C70.002 492.972 69.948 522.934 69.714 538.463C74.736 535.065 80.118 532.047 85.23 528.756C85.428 528.618 85.626 528.908 85.428 529.03C80.028 532.489 75.06 536.299 69.696 539.698C69.696 540.582 69.696 541.45 69.696 542.319C75.096 540.216 80.676 538.25 86.202 536.223C86.634 536.055 87.012 536.589 86.58 536.772C80.964 539.043 75.366 541.344 69.678 543.523C69.534 551.143 68.706 578.895 68.382 592.291C78.678 587.892 89.052 583.604 99.504 579.429C99.5828 579.39 99.6763 579.38 99.7641 579.4C99.8519 579.42 99.9267 579.468 99.972 579.535C100.017 579.602 100.03 579.681 100.006 579.755C99.9823 579.83 99.9248 579.893 99.846 579.931C89.6391 584.875 79.1238 589.347 68.346 593.327C68.076 604.453 67.806 617.711 67.626 628.791C67.601 628.915 67.5249 629.028 67.4112 629.109C67.2976 629.19 67.1537 629.234 67.005 629.234C66.8563 629.234 66.7124 629.19 66.5988 629.109C66.4851 629.028 66.4091 628.915 66.384 628.791C66.582 614.587 66.6 598.311 66.654 584.122C61.254 582.995 40.698 575.542 35.82 573.454C35.424 573.393 35.784 572.662 36.306 572.83Z" fill="#37474F"/>
<path d="M624.582 629.4H724.572L712.872 585.676C701.545 585.218 690.546 582.311 680.922 577.233L711.918 582.11L697.626 528.679C693.047 526.875 688.769 524.569 684.9 521.821L696.618 524.96L694.71 517.843C688.204 515.441 682.241 512.1 677.088 507.967L693.522 513.393L674.586 442.664L663.894 482.639L673.506 480.612C670.221 482.476 666.759 484.108 663.156 485.488L647.802 542.745L658.944 540.398C655.162 542.535 651.155 544.371 646.974 545.885L636.336 585.509L658.062 580.937C651.043 584.857 643.333 587.81 635.22 589.684L633.42 596.588L666.756 589.532C656.451 595.303 644.697 598.956 632.43 600.2L629.784 610.091L640.89 607.744C637.116 609.883 633.114 611.719 628.938 613.23L624.582 629.4Z" fill="#455A64"/>
<path d="M642.978 572.829C648.504 574.612 668.988 581.684 673.416 583.741C673.416 582.949 673.416 582.217 673.416 581.364L658.566 574.033C653.07 571.589 647.729 568.903 642.564 565.987C642.33 565.834 642.456 565.407 642.798 565.529C648.201 567.667 653.426 570.111 658.44 572.845C663.48 575.344 668.448 577.919 673.416 580.465C673.416 574.369 673.446 568.328 673.506 562.344C665.413 559.511 657.589 556.153 650.106 552.301C649.854 552.179 650.016 551.768 650.322 551.874C658.312 554.601 666.05 557.831 673.47 561.536C673.47 558.397 673.344 534.226 674.262 503.624C669.42 501.552 664.416 499.723 659.556 497.635C659.232 497.498 659.466 497.026 659.808 497.147C664.722 498.763 669.474 500.698 674.316 502.497C674.568 494.16 674.946 485.824 675.54 477.503C675.555 477.454 675.589 477.411 675.636 477.38C675.684 477.35 675.741 477.333 675.801 477.333C675.861 477.333 675.919 477.35 675.966 477.38C676.013 477.411 676.047 477.454 676.062 477.503C676.728 492.972 676.674 522.934 676.458 538.463C681.48 535.065 686.844 532.047 691.974 528.755C692.172 528.618 692.352 528.908 692.172 529.03C686.772 532.489 681.804 536.299 676.422 539.698C676.422 540.581 676.422 541.45 676.422 542.319C681.822 540.216 687.42 538.25 692.928 536.223C693.36 536.055 693.756 536.589 693.306 536.771C687.69 539.042 682.092 541.343 676.404 543.523C676.278 551.143 675.45 578.895 675.108 592.291C685.404 587.891 695.784 583.604 706.248 579.428C706.327 579.39 706.42 579.379 706.508 579.399C706.596 579.419 706.671 579.468 706.716 579.535C706.761 579.602 706.774 579.681 706.75 579.755C706.726 579.829 706.669 579.893 706.59 579.931C696.383 584.874 685.868 589.346 675.09 593.327C674.802 604.452 674.532 617.711 674.37 628.791C674.345 628.915 674.269 629.027 674.155 629.108C674.042 629.19 673.898 629.234 673.749 629.234C673.6 629.234 673.456 629.19 673.343 629.108C673.229 629.027 673.153 628.915 673.128 628.791C673.308 614.587 673.344 598.311 673.38 584.122C667.98 582.994 647.424 575.542 642.564 573.454C642.096 573.393 642.456 572.662 642.978 572.829Z" fill="#37474F"/>
<path d="M265.356 629.4H365.346L353.556 585.676C342.229 585.22 331.229 582.313 321.606 577.233L352.602 582.11L338.202 528.679C333.625 526.871 329.347 524.566 325.476 521.821L337.356 524.96L335.556 517.843C329.047 515.438 323.078 512.097 317.916 507.967L334.368 513.393L315.306 442.664L304.614 482.639L314.208 480.612C310.92 482.476 307.451 484.102 303.84 485.473L288.504 542.73L299.556 540.352C295.782 542.491 291.78 544.328 287.604 545.839L276.966 585.463L298.692 580.891C291.672 584.811 283.963 587.764 275.85 589.639L274.05 596.542L307.422 589.486C297.117 595.257 285.363 598.91 273.096 600.154L270.45 610.045L281.556 607.698C277.779 609.833 273.778 611.669 269.604 613.184L265.356 629.4Z" fill="#455A64"/>
<path d="M283.698 572.83C289.224 574.613 309.708 581.684 314.136 583.741C314.136 582.949 314.136 582.217 314.136 581.364L299.268 574.034C293.778 571.589 288.443 568.903 283.284 565.987C283.032 565.834 283.176 565.408 283.518 565.53C288.919 567.67 294.144 570.114 299.16 572.845C304.182 575.344 309.168 577.92 314.136 580.465C314.136 574.369 314.136 568.38 314.136 562.344C306.041 559.515 298.217 556.157 290.736 552.301C290.484 552.179 290.646 551.768 290.952 551.875C298.935 554.605 306.666 557.834 314.082 561.537C314.082 558.397 313.974 534.227 314.892 503.625C310.032 501.552 305.028 499.723 300.186 497.635C299.862 497.498 300.078 497.026 300.42 497.148C305.352 498.763 310.104 500.699 314.928 502.497C315.198 494.161 315.576 485.824 316.17 477.503C316.17 477.447 316.197 477.393 316.244 477.353C316.291 477.313 316.355 477.29 316.422 477.29C316.489 477.29 316.553 477.313 316.6 477.353C316.647 477.393 316.674 477.447 316.674 477.503C317.358 492.972 317.304 522.934 317.07 538.463C322.11 535.065 327.474 532.047 332.586 528.756C332.784 528.618 332.982 528.908 332.784 529.03C327.384 532.489 322.434 536.299 317.052 539.698C317.052 540.582 317.052 541.45 317.052 542.319C322.452 540.216 328.05 538.25 333.558 536.223C333.99 536.055 334.368 536.589 333.936 536.772C328.32 539.043 322.722 541.344 317.034 543.523C316.908 551.143 316.08 578.895 315.738 592.291C326.034 587.892 336.408 583.604 346.86 579.429C347.256 579.261 347.616 579.733 347.22 579.931C337.011 584.872 326.496 589.343 315.72 593.327C315.432 604.453 315.162 617.711 315 628.791C314.975 628.915 314.899 629.028 314.785 629.109C314.672 629.19 314.528 629.234 314.379 629.234C314.23 629.234 314.086 629.19 313.973 629.109C313.859 629.028 313.783 628.915 313.758 628.791C313.938 614.587 313.956 598.311 314.01 584.122C308.61 582.995 288.054 575.542 283.176 573.454C282.816 573.393 283.158 572.662 283.698 572.83Z" fill="#37474F"/>
<path d="M622.458 629.401H514.764L520.02 605.413C542.592 604.178 560.178 591.224 560.178 591.224L520.956 601.313L535.356 535.187C541.207 532.875 546.697 529.957 551.7 526.5L536.382 530.447L538.758 519.673C547.167 517.096 555.005 513.341 561.942 508.563L539.946 514.232L553.68 451.611C556.587 450.119 559.36 448.448 561.978 446.612L554.346 448.578L568.584 383.595L588.978 476.711L571.356 469.579C576.676 474.874 583.116 479.283 590.346 482.578L609.552 570.269L579.762 560.531C588.238 567.852 598.951 573.033 610.704 575.497L612.684 584.458L596.646 581.41C601.789 584.873 607.573 587.592 613.764 589.457L622.458 629.401Z" fill="#37474F"/>
<path d="M604.458 549.497C598.014 551.585 575.118 559.434 569.952 561.826V559.068C575.694 556.203 581.472 553.368 587.25 550.518C593.442 547.47 597.564 546.373 603.342 542.776C603.612 542.609 603.468 542.121 603.072 542.258C597.636 544.194 592.393 546.497 587.394 549.147C581.526 552.058 575.73 555.06 569.934 558.077C569.934 551.047 569.934 544.016 569.934 536.985C579.336 533.682 588.423 529.769 597.114 525.281C597.42 525.144 597.222 524.671 596.88 524.793C587.561 527.967 578.536 531.726 569.88 536.04C569.88 532.383 569.88 528.74 569.88 525.083C569.646 506.246 569.592 487.409 569.034 468.573C574.686 466.165 580.518 464.001 586.17 461.608C586.548 461.44 586.278 460.892 585.882 461.029C580.14 462.919 574.614 465.174 568.98 467.262C568.674 457.554 568.242 447.846 567.54 438.154C567.524 438.098 567.485 438.048 567.432 438.012C567.378 437.976 567.311 437.957 567.243 437.957C567.175 437.957 567.108 437.976 567.054 438.012C567.001 438.048 566.962 438.098 566.946 438.154C566.154 456.183 566.226 474.227 566.496 492.271C560.628 488.324 554.382 484.819 548.496 480.978C548.262 480.826 548.028 481.161 548.262 481.298C554.49 485.322 560.34 489.772 566.586 493.78V496.828C560.214 494.374 553.77 492.088 547.362 489.756C546.858 489.574 546.408 490.183 546.912 490.396C553.464 493.048 559.98 495.761 566.604 498.26C566.748 507.206 566.928 516.137 567.072 525.083C567.306 540.688 567.72 556.294 568.116 571.9C556.116 566.759 544.032 561.76 531.864 556.904C531.396 556.721 530.982 557.285 531.45 557.498C543.335 563.26 555.581 568.469 568.134 573.104C568.458 586.073 568.782 615.776 568.98 628.821C568.98 628.983 569.056 629.138 569.191 629.252C569.326 629.367 569.509 629.431 569.7 629.431C569.891 629.431 570.074 629.367 570.209 629.252C570.344 629.138 570.42 628.983 570.42 628.821C570.204 612.271 570.168 578.926 570.132 562.39C576.45 561.064 599.382 552.774 605.07 550.412C605.556 550.153 605.07 549.284 604.458 549.497Z" fill="#455A64"/>
<path d="M786.402 629.4H707.814L717.012 595.034C725.907 594.672 734.545 592.39 742.104 588.404L717.75 592.169L728.982 550.182C732.583 548.764 735.948 546.95 738.99 544.787L729.756 547.317L731.232 541.709C736.355 539.834 741.047 537.208 745.092 533.952L732.186 538.219L747.054 482.639L755.46 514.048L747.918 512.448C750.493 513.922 753.215 515.202 756.054 516.273L768.114 561.292L759.366 559.433C762.339 561.115 765.491 562.559 768.78 563.746L777.132 594.912L760.05 591.315C765.585 594.395 771.66 596.715 778.05 598.188L779.49 603.599L753.264 598.066C761.377 602.581 770.622 605.43 780.264 606.387L782.334 614.16L773.604 612.316C776.569 614 779.715 615.444 783 616.629L786.402 629.4Z" fill="#37474F"/>
<path d="M771.93 584.929C767.592 586.347 751.482 591.894 748.008 593.51V591.65C751.878 589.715 755.784 587.795 759.672 585.874C764.005 583.963 768.212 581.851 772.272 579.55C772.452 579.443 772.272 579.108 772.092 579.199C767.845 580.876 763.738 582.796 759.798 584.945C755.838 586.911 751.914 588.938 748.008 591.041C748.008 586.301 748.008 581.546 748.008 576.807C754.359 574.58 760.498 571.941 766.368 568.912C766.566 568.805 766.368 568.501 766.206 568.577C759.925 570.731 753.842 573.278 748.008 576.197C748.008 573.728 748.098 554.739 747.378 530.675C751.194 529.044 755.118 527.627 758.934 525.966C759.186 525.859 758.934 525.493 758.754 525.57C754.884 526.85 751.14 528.374 747.342 529.791C747.144 523.238 746.838 516.685 746.37 510.132C746.37 510.087 746.349 510.044 746.312 510.013C746.275 509.982 746.225 509.964 746.172 509.964C746.12 509.964 746.069 509.982 746.032 510.013C745.995 510.044 745.974 510.087 745.974 510.132C745.434 522.324 745.488 545.854 745.668 558.031C741.708 555.349 737.496 552.986 733.464 550.411C733.302 550.319 733.158 550.533 733.32 550.639C737.514 553.352 741.456 556.354 745.686 559.052C745.686 559.738 745.686 560.424 745.686 561.109C741.402 559.463 737.046 557.909 732.726 556.339C732.384 556.217 732.078 556.629 732.42 556.766C736.83 558.564 741.24 560.393 745.704 562.085C745.812 568.181 746.46 589.882 746.73 600.413C738.63 596.939 730.476 593.565 722.268 590.294C721.944 590.172 721.674 590.538 721.98 590.69C730.004 594.578 738.272 598.094 746.748 601.221C746.964 609.969 747.18 620.347 747.306 629.095C747.306 629.204 747.357 629.309 747.448 629.386C747.54 629.463 747.663 629.506 747.792 629.506C747.921 629.506 748.045 629.463 748.136 629.386C748.227 629.309 748.278 629.204 748.278 629.095C748.134 617.939 748.116 605.153 748.08 594.043C756.326 591.626 764.413 588.838 772.308 585.691C772.632 585.371 772.362 584.792 771.93 584.929Z" fill="#455A64"/>
<path d="M171.756 629.401H64.134L69.39 605.413C91.962 604.178 109.548 591.224 109.548 591.224L70.29 601.313L84.78 535.187C90.6313 532.875 96.1212 529.957 101.124 526.5L85.806 530.447L88.164 519.673C96.5801 517.099 104.424 513.343 111.366 508.563L89.37 514.232L103.086 451.611C105.996 450.116 108.776 448.445 111.402 446.612L103.752 448.578L117.99 383.595L138.384 476.711L120.672 469.533C125.988 474.832 132.429 479.242 139.662 482.533L158.868 570.224L129.078 560.485C137.554 567.806 148.267 572.988 160.02 575.451L162 584.412L145.962 581.364C151.101 584.824 156.879 587.542 163.062 589.411L171.756 629.401Z" fill="#37474F"/>
<path d="M153.756 549.497C147.312 551.585 124.398 559.434 119.25 561.826C119.25 560.912 119.25 559.998 119.25 559.068C125.01 556.203 130.788 553.368 136.566 550.518C142.758 547.47 146.88 546.373 152.64 542.776C152.928 542.609 152.766 542.121 152.388 542.258C146.95 544.191 141.707 546.494 136.71 549.147C130.842 552.058 125.028 555.06 119.25 558.077C119.25 551.047 119.214 544.016 119.142 536.985C128.552 533.685 137.645 529.772 146.34 525.281C146.628 525.144 146.34 524.671 146.088 524.793C136.767 527.963 127.742 531.723 119.088 536.04C119.088 532.383 119.088 528.74 119.088 525.083C118.854 506.246 118.8 487.409 118.242 468.573C123.894 466.165 129.726 464.001 135.378 461.608C135.738 461.44 135.486 460.892 135.09 461.029C129.348 462.919 123.822 465.174 118.188 467.262C117.882 457.554 117.45 447.846 116.748 438.154C116.732 438.098 116.693 438.048 116.64 438.012C116.586 437.976 116.519 437.957 116.451 437.957C116.383 437.957 116.316 437.976 116.263 438.012C116.209 438.048 116.171 438.098 116.154 438.154C115.362 456.183 115.434 474.227 115.704 492.271C109.836 488.324 103.59 484.819 97.6141 480.978C97.3981 480.826 97.1641 481.161 97.3981 481.298C103.626 485.322 109.458 489.772 115.722 493.78C115.722 494.801 115.722 495.807 115.722 496.828C109.368 494.374 102.924 492.088 96.4981 489.756C95.9941 489.574 95.5441 490.183 96.0661 490.396C102.6 493.048 109.134 495.761 115.758 498.26C115.902 507.206 116.082 516.137 116.226 525.083C116.46 540.688 116.856 556.294 117.252 571.9C105.252 566.759 93.1681 561.76 81.0001 556.904C80.5501 556.721 80.1361 557.285 80.6041 557.498C92.4887 563.26 104.735 568.469 117.288 573.104C117.612 586.073 117.936 615.776 118.134 628.821C118.134 628.983 118.21 629.138 118.345 629.252C118.48 629.367 118.663 629.431 118.854 629.431C119.045 629.431 119.228 629.367 119.363 629.252C119.498 629.138 119.574 628.983 119.574 628.821C119.358 612.271 119.322 578.926 119.268 562.39C125.604 561.064 148.536 552.774 154.224 550.412C154.854 550.153 154.44 549.284 153.756 549.497Z" fill="#455A64"/>
<path d="M238.698 629.4H160.092L169.29 595.034C178.222 594.688 186.899 592.405 194.49 588.405L170.046 592.169L181.278 550.183C184.879 548.764 188.244 546.95 191.286 544.788L182.07 547.257L183.564 541.648C188.687 539.774 193.38 537.148 197.424 533.891L184.5 538.158L199.386 482.578L207.756 514.049L200.196 512.449C202.779 513.92 205.507 515.2 208.35 516.274L220.41 561.293L211.662 559.433C214.632 561.12 217.784 562.564 221.076 563.746L229.428 594.912L212.346 591.316C217.881 594.395 223.956 596.715 230.346 598.189L231.786 603.599L205.56 598.067C213.672 602.582 222.918 605.431 232.56 606.388L234.648 614.16L225.918 612.316C228.883 614.001 232.029 615.445 235.314 616.629L238.698 629.4Z" fill="#455A64"/>
<path d="M224.226 584.93C219.888 586.347 203.778 591.895 200.304 593.51C200.304 592.885 200.304 592.276 200.304 591.651L211.986 585.875C216.32 583.963 220.526 581.852 224.586 579.55C224.784 579.443 224.676 579.108 224.406 579.2C220.163 580.883 216.056 582.803 212.112 584.945C208.17 586.911 204.246 588.938 200.34 591.041C200.34 586.301 200.34 581.547 200.34 576.807C206.644 574.555 212.734 571.896 218.556 568.852C218.754 568.745 218.556 568.44 218.394 568.516C212.111 570.667 206.028 573.214 200.196 576.136C200.196 573.668 200.286 554.678 199.566 530.614C203.382 528.984 207.306 527.566 211.122 525.905C211.374 525.799 211.122 525.433 210.942 525.509C207.054 526.789 203.328 528.313 199.53 529.731C199.332 523.177 199.026 516.624 198.558 510.071C198.558 510.027 198.537 509.984 198.5 509.952C198.463 509.921 198.413 509.903 198.36 509.903C198.308 509.903 198.257 509.921 198.22 509.952C198.183 509.984 198.162 510.027 198.162 510.071C197.622 522.263 197.676 545.794 197.856 557.97C193.896 555.288 189.684 552.926 185.652 550.35C185.49 550.259 185.346 550.472 185.49 550.579C189.702 553.292 193.644 556.294 197.856 558.991C197.856 559.677 197.856 560.363 197.856 561.049C193.572 559.403 189.216 557.848 184.878 556.279C184.536 556.157 184.248 556.568 184.59 556.705C189 558.504 193.41 560.333 197.874 562.024C197.982 568.12 198.63 589.822 198.882 600.353C190.806 596.878 182.652 593.505 174.42 590.233C174.114 590.111 173.844 590.477 174.15 590.63C182.174 594.518 190.442 598.033 198.918 601.16C199.134 609.908 199.35 620.287 199.476 629.034C199.476 629.144 199.527 629.248 199.618 629.325C199.71 629.403 199.833 629.446 199.962 629.446C200.091 629.446 200.215 629.403 200.306 629.325C200.397 629.248 200.448 629.144 200.448 629.034C200.304 617.879 200.286 605.092 200.25 593.982C208.496 591.565 216.583 588.777 224.478 585.631C224.928 585.372 224.64 584.793 224.226 584.93Z" fill="#37474F"/>
<path d="M541.98 629.4H463.356L472.554 595.034C481.454 594.67 490.097 592.389 497.664 588.405L473.346 592.169L484.578 550.183C488.177 548.761 491.541 546.947 494.586 544.788L485.37 547.257L486.864 541.648C491.985 539.77 496.677 537.145 500.724 533.891L487.8 538.158L502.668 482.578L511.092 513.988L503.532 512.388C506.115 513.859 508.843 515.139 511.686 516.213L523.746 561.232L514.998 559.373C517.963 561.057 521.109 562.501 524.394 563.685L532.746 594.851L515.682 591.255C521.166 594.376 527.198 596.742 533.556 598.265L534.996 603.675L508.77 598.143C516.885 602.655 526.129 605.504 535.77 606.464L537.858 614.237L529.128 612.392C532.088 614.075 535.228 615.519 538.506 616.705L541.98 629.4Z" fill="#37474F"/>
<path d="M527.526 584.93C523.17 586.347 507.078 591.894 503.604 593.51C503.604 592.885 503.604 592.275 503.604 591.65L515.286 585.874C519.617 583.96 523.823 581.848 527.886 579.55C528.084 579.443 527.976 579.108 527.706 579.199C523.461 580.88 519.354 582.799 515.412 584.945C511.452 586.911 507.546 588.938 503.64 591.041C503.64 586.301 503.64 581.546 503.64 576.807C509.987 574.583 516.12 571.944 521.982 568.912C522.18 568.806 521.982 568.501 521.82 568.577C515.543 570.728 509.466 573.275 503.64 576.197C503.64 573.728 503.73 554.739 502.992 530.675C506.808 529.044 510.75 527.627 514.566 525.966C514.628 525.944 514.677 525.902 514.702 525.849C514.728 525.796 514.727 525.737 514.701 525.684C514.675 525.631 514.625 525.59 514.562 525.568C514.5 525.547 514.43 525.547 514.368 525.57C510.498 526.85 506.772 528.374 502.974 529.791C502.758 523.238 502.47 516.685 502.002 510.132C501.989 510.094 501.961 510.061 501.924 510.037C501.887 510.014 501.842 510.001 501.795 510.001C501.748 510.001 501.703 510.014 501.666 510.037C501.629 510.061 501.601 510.094 501.588 510.132C501.066 522.324 501.102 545.854 501.282 558.031C497.322 555.349 493.11 552.986 489.096 550.411C488.934 550.319 488.772 550.533 488.934 550.64C493.146 553.352 497.088 556.355 501.3 559.052C501.3 559.738 501.3 560.424 501.3 561.109C496.998 559.463 492.66 557.909 488.322 556.339C487.98 556.217 487.674 556.629 488.016 556.766C492.444 558.564 496.836 560.393 501.318 562.085C501.318 568.181 502.056 589.883 502.326 600.413C494.226 596.939 486.072 593.566 477.864 590.294C477.558 590.172 477.27 590.538 477.594 590.69C485.61 594.582 493.872 598.097 502.344 601.221C502.56 609.969 502.776 620.347 502.92 629.095C502.92 629.204 502.971 629.309 503.062 629.386C503.153 629.463 503.277 629.507 503.406 629.507C503.535 629.507 503.659 629.463 503.75 629.386C503.841 629.309 503.892 629.204 503.892 629.095C503.748 617.939 503.73 605.153 503.694 594.043C511.94 591.626 520.027 588.838 527.922 585.692C528.156 585.371 527.94 584.792 527.526 584.93Z" fill="#455A64"/>
<path d="M527.148 77.2546C527.148 118.403 467.856 151.763 402.192 151.809C336.528 151.854 277.146 118.555 277.11 77.4223C277.074 36.2895 336.384 0.323107 402.048 0.277387C467.712 0.231667 527.094 36.1219 527.148 77.2546Z" fill="#7474E2"/>
<path opacity="0.8" d="M527.148 77.2546C527.148 118.403 467.856 151.763 402.192 151.809C336.528 151.854 277.146 118.555 277.11 77.4223C277.074 36.2895 336.384 0.323107 402.048 0.277387C467.712 0.231667 527.094 36.1219 527.148 77.2546Z" fill="white"/>
<path d="M527.148 77.2547C526.927 89.2694 522.164 100.908 513.558 110.463C505.014 119.993 494.319 127.991 482.094 133.993C457.558 146.024 429.662 152.265 401.31 152.068C373.176 151.946 344.808 145.972 320.58 133.582C308.352 127.488 297.714 119.352 289.314 109.67C281.16 99.9166 275.958 88.0447 276.498 75.9289C276.734 69.9002 278.151 63.9467 280.692 58.3114C283.288 52.7162 286.75 47.4376 290.988 42.6142C299.544 33.0425 310.181 24.9422 322.326 18.7484C346.616 6.32684 374.493 -0.161041 402.869 0.00303671C431.245 0.167115 459.015 6.97675 483.102 19.678C495.068 26.0084 505.476 34.2364 513.756 43.9096C522.165 53.5939 526.841 65.238 527.148 77.2547ZM527.148 77.2547C526.824 65.264 522.148 53.6485 513.756 43.9858C505.422 34.3622 494.978 26.187 482.994 19.9066C458.958 7.34923 431.289 0.66336 403.046 0.588053C374.803 0.512746 347.085 7.05093 322.956 19.4799C310.963 25.6558 300.468 33.7088 292.032 43.2086C287.84 47.9866 284.425 53.2201 281.88 58.7686C279.423 64.2972 278.061 70.1313 277.848 76.0355C277.254 87.877 282.276 99.5356 290.268 109.167C298.566 118.749 309.074 126.806 321.156 132.85C345.132 145.256 373.356 151.275 401.382 151.504C429.635 151.79 457.463 145.659 481.968 133.749C494.195 127.809 504.904 119.867 513.468 110.387C522.096 100.866 526.891 89.2532 527.148 77.2547Z" fill="#263238"/>
<path d="M466.841 27.0502C468.744 19.5194 458.412 11.2625 443.762 8.60803C429.113 5.95353 415.694 9.90659 413.79 17.4374C411.886 24.9683 422.219 33.2251 436.868 35.8796C451.518 38.5341 464.937 34.5811 466.841 27.0502Z" fill="white"/>
<path d="M490.356 44.0314C487.89 46.927 482.202 47.0794 477.648 44.2905C473.094 41.5015 471.402 36.9448 473.868 34.0492C476.334 31.1536 482.022 31.0012 486.576 33.7901C491.13 36.579 492.804 41.1358 490.356 44.0314Z" fill="white"/>
<path d="M402.156 166.699C587.081 166.699 736.992 141.938 736.992 111.393C736.992 80.8482 587.081 56.0869 402.156 56.0869C217.231 56.0869 67.32 80.8482 67.32 111.393C67.32 141.938 217.231 166.699 402.156 166.699Z" fill="#7474E2"/>
<path opacity="0.3" d="M402.156 166.699C587.081 166.699 736.992 141.938 736.992 111.393C736.992 80.8482 587.081 56.0869 402.156 56.0869C217.231 56.0869 67.32 80.8482 67.32 111.393C67.32 141.938 217.231 166.699 402.156 166.699Z" fill="black"/>
<path d="M402.156 170.067C587.081 170.067 736.992 145.306 736.992 114.761C736.992 84.2164 587.081 59.4551 402.156 59.4551C217.231 59.4551 67.32 84.2164 67.32 114.761C67.32 145.306 217.231 170.067 402.156 170.067Z" fill="#7474E2"/>
<path d="M244.71 79.2666C255.744 80.9125 264.6 82.7261 272.934 84.5854C280.128 86.0954 287.18 88.0566 294.03 90.4528C282.996 88.8068 274.14 86.9933 265.806 85.134C258.614 83.6168 251.563 81.6557 244.71 79.2666Z" fill="white"/>
<path d="M130.356 94.5371C146.232 95.2381 160.83 96.2287 175.122 97.2803C189.414 98.3319 203.184 99.5053 215.784 100.953C199.908 100.252 185.31 99.2767 171.018 98.2099C156.726 97.1431 142.956 95.9697 130.356 94.5371Z" fill="white"/>
<path d="M89.262 115.233C105.696 114.791 122.13 114.684 138.582 114.654C155.034 114.623 171.45 114.745 187.884 115.157C171.45 115.599 155.016 115.705 138.582 115.736C122.148 115.766 105.696 115.644 89.262 115.233Z" fill="white"/>
<path d="M132.282 135.792C144.882 134.268 158.76 133.171 172.926 132.058C187.092 130.946 201.726 129.97 217.692 129.254C205.092 130.778 191.214 131.89 177.048 132.988C162.882 134.085 148.14 135.076 132.282 135.792Z" fill="white"/>
<path d="M247.95 150.727C254.775 148.335 261.796 146.364 268.956 144.829C277.29 142.969 286.128 141.141 297.18 139.479C290.354 141.878 283.326 143.845 276.156 145.362C267.822 147.237 258.984 149.065 247.95 150.727Z" fill="white"/>
<path d="M401.616 162.553C399.492 154.268 399.492 145.693 401.616 137.407C403.74 145.693 403.74 154.268 401.616 162.553Z" fill="white"/>
<path d="M401.544 92.5562C400.425 88.4335 399.887 84.213 399.942 79.9832C399.872 75.7535 400.404 71.5321 401.526 67.4102C402.663 71.5302 403.201 75.7525 403.128 79.9832C403.198 84.2128 402.666 88.4342 401.544 92.5562Z" fill="white"/>
<path d="M562.086 150.209C551.052 148.547 542.196 146.734 533.862 144.89C526.67 143.373 519.62 141.412 512.766 139.022C523.818 140.668 532.656 142.482 540.99 144.341C548.183 145.856 555.234 147.817 562.086 150.209Z" fill="white"/>
<path d="M676.386 134.969C660.528 134.268 645.93 133.277 631.62 132.226C617.31 131.174 603.576 129.985 590.976 128.553C606.834 129.239 621.432 130.229 635.742 131.281C650.052 132.332 663.768 133.551 676.386 134.969Z" fill="white"/>
<path d="M717.534 114.303C701.1 114.745 684.666 114.852 668.232 114.882C651.798 114.913 635.346 114.791 618.912 114.379C635.346 113.937 651.78 113.831 668.232 113.8C684.684 113.77 701.1 113.892 717.534 114.303Z" fill="white"/>
<path d="M674.514 93.8213C661.914 95.3453 648.036 96.4426 633.87 97.5551C619.704 98.6676 604.98 99.6277 589.104 100.359C601.704 98.8353 615.582 97.7227 629.748 96.6254C643.914 95.5282 658.656 94.4614 674.514 93.8213Z" fill="white"/>
<path d="M558.846 78.8096C551.997 81.1955 544.953 83.1564 537.768 84.677C529.452 86.5362 520.596 88.3651 509.544 90.0262C516.397 87.6278 523.448 85.6566 530.64 84.1283C538.956 82.2995 547.83 80.4707 558.846 78.8096Z" fill="white"/>
<path d="M731.088 107.78C730.553 107.696 730.058 107.485 729.66 107.171C729.262 106.857 728.977 106.454 728.84 106.008C728.703 105.562 728.719 105.093 728.886 104.654C729.053 104.216 729.364 103.827 729.782 103.533C730.201 103.239 730.71 103.052 731.25 102.994C731.789 102.936 732.337 103.009 732.829 103.206C733.322 103.402 733.737 103.713 734.028 104.102C734.319 104.491 734.473 104.942 734.472 105.403C734.39 106.096 733.989 106.734 733.356 107.179C732.722 107.624 731.908 107.84 731.088 107.78Z" fill="#7474E2"/>
<path d="M73.206 108.253C72.6735 108.166 72.181 107.953 71.7858 107.639C71.3907 107.324 71.1092 106.921 70.9742 106.477C70.8392 106.032 70.8561 105.564 71.0231 105.127C71.19 104.69 71.5001 104.303 71.9173 104.009C72.3344 103.716 72.8414 103.529 73.3792 103.47C73.917 103.411 74.4635 103.483 74.955 103.677C75.4465 103.871 75.8629 104.179 76.1555 104.566C76.4482 104.952 76.6051 105.401 76.608 105.86C76.5304 106.559 76.1287 107.203 75.491 107.652C74.8533 108.1 74.0316 108.317 73.206 108.253Z" fill="#7474E2"/>
<path d="M126.072 85.0887C125.657 85.1579 125.229 85.1484 124.82 85.061C124.41 84.9736 124.028 84.8103 123.701 84.583C123.375 84.3557 123.111 84.0699 122.931 83.7463C122.75 83.4227 122.657 83.0692 122.657 82.7112C122.657 82.3533 122.75 81.9998 122.931 81.6762C123.111 81.3526 123.375 81.0668 123.701 80.8395C124.028 80.6122 124.41 80.4489 124.82 80.3615C125.229 80.2741 125.657 80.2646 126.072 80.3338C126.487 80.2646 126.915 80.2741 127.324 80.3615C127.734 80.4489 128.116 80.6122 128.443 80.8395C128.769 81.0668 129.033 81.3526 129.213 81.6762C129.394 81.9998 129.487 82.3533 129.487 82.7112C129.487 83.0692 129.394 83.4227 129.213 83.7463C129.033 84.0699 128.769 84.3557 128.443 84.583C128.116 84.8103 127.734 84.9736 127.324 85.061C126.915 85.1484 126.487 85.1579 126.072 85.0887Z" fill="#7474E2"/>
<path d="M241.218 67.501C240.684 67.4171 240.189 67.2063 239.791 66.8931C239.393 66.5799 239.109 66.1774 238.971 65.7325C238.834 65.2876 238.849 64.8187 239.014 64.3806C239.179 63.9425 239.489 63.5534 239.906 63.2586C240.322 62.9638 240.83 62.7755 241.369 62.7158C241.907 62.6561 242.455 62.7274 242.947 62.9214C243.44 63.1154 243.857 63.424 244.15 63.8113C244.443 64.1985 244.6 64.6484 244.602 65.1083C244.52 65.8027 244.119 66.4421 243.487 66.8894C242.854 67.3368 242.04 67.5563 241.218 67.501Z" fill="#7474E2"/>
<path d="M399.294 60.8565C398.76 60.7726 398.265 60.5617 397.867 60.2486C397.469 59.9354 397.185 59.5328 397.047 59.0879C396.91 58.643 396.924 58.1742 397.09 57.7361C397.255 57.298 397.565 56.9088 397.981 56.614C398.398 56.3192 398.906 56.131 399.444 56.0713C399.983 56.0116 400.531 56.0829 401.023 56.2769C401.516 56.4709 401.933 56.7795 402.226 57.1668C402.519 57.554 402.676 58.0039 402.678 58.4638C402.596 59.1582 402.195 59.7976 401.563 60.2449C400.93 60.6922 400.116 60.9118 399.294 60.8565Z" fill="#7474E2"/>
<path d="M558.576 66.9376C558.043 66.8509 557.551 66.638 557.156 66.3235C556.761 66.009 556.479 65.606 556.344 65.1613C556.209 64.7167 556.226 64.2487 556.393 63.8119C556.56 63.375 556.87 62.9874 557.287 62.694C557.704 62.4006 558.211 62.2136 558.749 62.1548C559.287 62.0959 559.833 62.1676 560.325 62.3616C560.817 62.5555 561.233 62.8637 561.525 63.2502C561.818 63.6368 561.975 64.0858 561.978 64.5449C561.9 65.2437 561.499 65.888 560.861 66.3365C560.223 66.785 559.402 67.0011 558.576 66.9376Z" fill="#7474E2"/>
<path d="M674.982 84.1133C674.447 84.0293 673.952 83.818 673.554 83.5041C673.155 83.1902 672.871 82.7868 672.734 82.3411C672.597 81.8954 672.613 81.4259 672.78 80.9875C672.947 80.5491 673.258 80.1601 673.676 79.866C674.095 79.5719 674.604 79.3849 675.144 79.3269C675.683 79.2689 676.231 79.3423 676.723 79.5385C677.215 79.7348 677.631 80.0457 677.922 80.4348C678.213 80.824 678.367 81.2753 678.366 81.7359C678.279 82.4275 677.877 83.0631 677.245 83.5072C676.613 83.9514 675.801 84.1688 674.982 84.1133Z" fill="#7474E2"/>
<path opacity="0.2" d="M420.606 59.5313L402.156 128.538L383.778 59.5465C389.85 59.4856 395.958 59.4551 402.102 59.4551C408.312 59.4551 414.486 59.4703 420.606 59.5313Z" fill="white"/>
<path opacity="0.2" d="M402.156 128.538L253.404 65.3069C273.672 63.6153 295.11 62.2589 317.448 61.2988L402.156 128.538Z" fill="white"/>
<path opacity="0.2" d="M402.156 128.537L149.49 151.214C98.316 141.537 67.356 128.873 67.356 114.989C67.356 109.64 71.964 104.458 80.568 99.5508L402.156 128.537Z" fill="white"/>
<path opacity="0.2" d="M402.156 128.538L350.568 169.442C336.492 169.092 322.704 168.604 309.276 167.918L402.156 128.538Z" fill="white"/>
<path opacity="0.2" d="M413.208 170.021C409.608 170.021 405.9 170.021 402.21 170.021C398.52 170.021 394.776 170.021 391.068 170.021L402.156 128.538L413.208 170.021Z" fill="white"/>
<path opacity="0.2" d="M494.658 167.857C481.302 168.497 467.622 169.005 453.618 169.381L402.156 128.538L494.658 167.857Z" fill="white"/>
<path opacity="0.2" d="M736.956 114.517C736.956 128.553 705.366 141.385 653.256 151.093L402.156 128.538L724.608 99.582C732.672 104.337 736.956 109.336 736.956 114.517Z" fill="white"/>
<path opacity="0.2" d="M551.448 65.1548L402.156 128.538L487.08 61.1924C509.544 62.1525 531.09 63.4784 551.448 65.1548Z" fill="white"/>
<path d="M605.232 143.138C605.2 144.74 604.625 146.3 603.576 147.633L602.532 148.914L588.438 166.104L215.982 166.363L201.708 149.036L200.79 147.938C199.76 146.604 199.192 145.052 199.152 143.458C199.152 123.905 290.016 108.025 402.156 107.949C514.296 107.872 605.196 123.6 605.232 143.138Z" fill="#7474E2"/>
<path opacity="0.1" d="M605.232 143.138C605.2 144.74 604.625 146.3 603.576 147.633L602.532 148.914L588.438 166.104L215.982 166.363L201.708 149.036L200.79 147.938C199.76 146.604 199.192 145.052 199.152 143.458C199.152 123.905 290.016 108.025 402.156 107.949C514.296 107.872 605.196 123.6 605.232 143.138Z" fill="black"/>
<path d="M402.21 194.74C505.916 194.74 589.986 180.098 589.986 162.035C589.986 143.973 505.916 129.33 402.21 129.33C298.504 129.33 214.434 143.973 214.434 162.035C214.434 180.098 298.504 194.74 402.21 194.74Z" fill="#7474E2"/>
<path d="M401.004 141.294C391.068 141.294 389.79 139.343 389.79 137.636C389.79 135.929 391.068 133.979 401.004 133.979C410.94 133.979 412.218 135.929 412.218 137.621C412.218 139.313 410.958 141.294 401.004 141.294Z" fill="black"/>
<path d="M319.824 144.707C317.123 144.753 314.426 144.512 311.796 143.991C308.664 143.168 308.52 141.476 308.61 140.775C308.952 138.124 313.308 137.727 315.396 137.56C316.746 137.453 318.276 137.392 319.806 137.392C322.501 137.338 325.193 137.579 327.816 138.108C330.966 138.931 331.092 140.623 331.002 141.309C330.66 143.961 326.322 144.357 324.216 144.524C322.757 144.65 321.291 144.711 319.824 144.707Z" fill="black"/>
<path d="M260.694 153.745C259.164 153.745 257.634 153.745 256.284 153.577C254.196 153.394 249.84 153.013 249.498 150.362C249.408 149.676 249.498 147.984 252.684 147.161C255.305 146.624 257.997 146.373 260.694 146.415C262.167 146.411 263.639 146.472 265.104 146.597C267.192 146.78 271.548 147.146 271.89 149.798C271.98 150.499 271.89 152.19 268.704 153.013C266.08 153.538 263.39 153.784 260.694 153.745Z" fill="black"/>
<path d="M239.49 165.982C229.554 165.982 228.276 164.031 228.276 162.324C228.276 160.617 229.554 158.667 239.49 158.651C249.426 158.636 250.704 160.602 250.704 162.309C250.704 164.016 249.444 165.967 239.49 165.982Z" fill="black"/>
<path d="M261.9 178.144C259.204 178.183 256.514 177.937 253.89 177.412C250.74 176.605 250.596 174.898 250.686 174.212C251.028 171.56 255.384 171.164 257.472 170.996C258.937 170.871 260.409 170.81 261.882 170.813C264.578 170.766 267.27 171.012 269.892 171.545C273.042 172.353 273.186 174.044 273.096 174.745C272.754 177.397 268.398 177.793 266.31 177.961C264.845 178.086 263.373 178.147 261.9 178.144Z" fill="black"/>
<path d="M321.876 186.967C320.433 186.969 318.991 186.908 317.556 186.784C315.468 186.602 311.112 186.236 310.752 183.584C310.662 182.883 310.752 181.191 313.938 180.368C316.568 179.843 319.265 179.598 321.966 179.637C323.496 179.637 325.008 179.637 326.358 179.805C328.446 179.987 332.802 180.368 333.162 183.02C333.252 183.706 333.162 185.398 329.976 186.221C327.323 186.755 324.602 187.005 321.876 186.967Z" fill="black"/>
<path d="M403.398 190.092C393.462 190.092 392.184 188.141 392.184 186.435C392.184 184.728 393.462 182.762 403.398 182.762C413.334 182.762 414.612 184.712 414.612 186.419C414.612 188.126 413.352 190.077 403.398 190.092Z" fill="black"/>
<path d="M484.614 186.678C481.912 186.718 479.215 186.473 476.586 185.946C473.436 185.123 473.31 183.432 473.4 182.746C473.742 180.094 478.098 179.698 480.186 179.53C481.651 179.405 483.123 179.344 484.596 179.347C487.292 179.301 489.984 179.546 492.606 180.079C495.756 180.887 495.882 182.578 495.792 183.279C495.45 185.931 491.094 186.327 489.006 186.495C487.656 186.602 486.144 186.663 484.614 186.678Z" fill="black"/>
<path d="M543.708 177.641C542.241 177.645 540.775 177.584 539.316 177.458C537.228 177.275 532.872 176.91 532.512 174.258C532.422 173.572 532.512 171.865 535.698 171.042C538.328 170.517 541.025 170.271 543.726 170.311C545.193 170.307 546.659 170.368 548.118 170.494C550.206 170.661 554.562 171.042 554.922 173.694C555.012 174.38 554.922 176.087 551.736 176.894C549.108 177.431 546.411 177.682 543.708 177.641Z" fill="black"/>
<path d="M564.912 165.449C554.976 165.449 553.698 163.498 553.698 161.791C553.698 160.084 554.976 158.133 564.912 158.118C574.848 158.103 576.126 160.069 576.126 161.776C576.126 163.483 574.956 165.449 564.912 165.449Z" fill="black"/>
<path d="M542.556 153.257C539.854 153.305 537.156 153.059 534.528 152.526C531.378 151.718 531.252 150.026 531.342 149.325C531.684 146.674 536.04 146.277 538.128 146.11C539.478 146.003 540.99 145.942 542.538 145.927C545.234 145.888 547.924 146.133 550.548 146.658C553.698 147.481 553.824 149.173 553.734 149.859C553.392 152.511 549.036 152.907 546.948 153.074C545.489 153.2 544.023 153.261 542.556 153.257Z" fill="black"/>
<path d="M482.526 144.418C480.978 144.418 479.466 144.418 478.116 144.25C476.028 144.067 471.672 143.686 471.33 141.034C471.24 140.349 471.33 138.657 474.516 137.834C477.138 137.301 479.83 137.055 482.526 137.102C483.999 137.086 485.471 137.142 486.936 137.27C489.024 137.453 493.38 137.819 493.722 140.47C493.812 141.172 493.722 142.863 490.536 143.686C487.912 144.211 485.222 144.457 482.526 144.418Z" fill="black"/>
<path d="M409.158 137.636C409.158 138.307 405.558 138.855 401.004 138.855C396.45 138.855 392.85 138.322 392.85 137.636C392.85 136.95 396.45 136.417 401.004 136.417C405.558 136.417 409.158 136.95 409.158 137.636Z" fill="#7474E2"/>
<path d="M326.88 140.425C329.13 141.019 327.798 141.766 323.892 142.101C320.174 142.457 316.412 142.308 312.75 141.659C310.5 141.08 311.832 140.333 315.738 139.998C319.455 139.639 323.216 139.783 326.88 140.425Z" fill="#7474E2"/>
<path d="M264.762 149.02C268.668 149.356 270 150.102 267.75 150.682C264.089 151.336 260.327 151.491 256.608 151.139C252.72 150.804 251.388 150.057 253.638 149.478C257.293 148.823 261.049 148.669 264.762 149.02Z" fill="#7474E2"/>
<path d="M239.49 161.09C243.99 161.09 247.644 161.638 247.644 162.309C247.644 162.98 244.044 163.543 239.49 163.543C234.936 163.543 231.336 162.995 231.336 162.324C231.336 161.654 234.99 161.105 239.49 161.09Z" fill="#7474E2"/>
<path d="M257.814 173.419C261.532 173.071 265.292 173.22 268.956 173.861C271.206 174.44 269.874 175.187 265.968 175.538C262.25 175.886 258.49 175.737 254.826 175.096C252.576 174.593 253.908 173.755 257.814 173.419Z" fill="#7474E2"/>
<path d="M314.82 182.686C318.484 182.045 322.244 181.895 325.962 182.244C329.868 182.579 331.2 183.326 328.95 183.905C325.289 184.56 321.527 184.714 317.808 184.362C313.956 184.027 312.57 183.28 314.82 182.686Z" fill="#7474E2"/>
<path d="M395.244 186.435C395.244 185.749 398.844 185.2 403.398 185.2C407.952 185.2 411.552 185.749 411.552 186.419C411.552 187.09 407.952 187.639 403.398 187.639C398.844 187.639 395.244 187.105 395.244 186.435Z" fill="#7474E2"/>
<path d="M477.54 183.63C475.29 183.036 476.622 182.289 480.51 181.954C484.228 181.605 487.988 181.755 491.652 182.396C493.902 182.975 492.57 183.721 488.682 184.072C484.964 184.42 481.204 184.271 477.54 183.63Z" fill="#7474E2"/>
<path d="M539.64 175.035C535.734 174.699 534.402 173.952 536.652 173.373C540.313 172.719 544.075 172.564 547.794 172.916C551.7 173.251 553.032 173.998 550.782 174.577C547.121 175.232 543.359 175.387 539.64 175.035Z" fill="#7474E2"/>
<path d="M564.912 162.965C560.412 162.965 556.758 162.416 556.758 161.746C556.758 161.075 560.358 160.526 564.912 160.511C569.466 160.496 573.066 161.06 573.066 161.73C573.066 162.401 569.412 162.965 564.912 162.965Z" fill="#7474E2"/>
<path d="M546.588 150.635C542.876 150.983 539.122 150.834 535.464 150.193C533.196 149.614 534.546 148.868 538.434 148.517C542.152 148.169 545.912 148.318 549.576 148.959C551.826 149.553 550.494 150.3 546.588 150.635Z" fill="#7474E2"/>
<path d="M489.582 141.37C485.918 142.009 482.16 142.164 478.44 141.827C474.552 141.492 473.202 140.745 475.452 140.151C479.115 139.505 482.875 139.35 486.594 139.693C490.5 140.029 491.832 140.775 489.582 141.37Z" fill="#7474E2"/>
<path d="M409.158 137.636C409.158 138.307 405.558 138.855 401.004 138.855C396.45 138.855 392.85 138.322 392.85 137.636C392.85 136.95 396.45 136.417 401.004 136.417C405.558 136.417 409.158 136.95 409.158 137.636Z" fill="white"/>
<path d="M326.88 140.425C329.13 141.019 327.798 141.766 323.892 142.101C320.174 142.457 316.412 142.308 312.75 141.659C310.5 141.08 311.832 140.333 315.738 139.998C319.455 139.639 323.216 139.783 326.88 140.425Z" fill="white"/>
<path d="M264.762 149.02C268.668 149.356 270 150.102 267.75 150.682C264.089 151.336 260.327 151.491 256.608 151.139C252.72 150.804 251.388 150.057 253.638 149.478C257.293 148.823 261.049 148.669 264.762 149.02Z" fill="white"/>
<path d="M239.49 161.09C243.99 161.09 247.644 161.638 247.644 162.309C247.644 162.98 244.044 163.543 239.49 163.543C234.936 163.543 231.336 162.995 231.336 162.324C231.336 161.654 234.99 161.105 239.49 161.09Z" fill="white"/>
<path d="M257.814 173.419C261.532 173.071 265.292 173.22 268.956 173.861C271.206 174.44 269.874 175.187 265.968 175.538C262.25 175.886 258.49 175.737 254.826 175.096C252.576 174.593 253.908 173.755 257.814 173.419Z" fill="white"/>
<path d="M314.82 182.686C318.484 182.045 322.244 181.895 325.962 182.244C329.868 182.579 331.2 183.326 328.95 183.905C325.289 184.56 321.527 184.714 317.808 184.362C313.956 184.027 312.57 183.28 314.82 182.686Z" fill="white"/>
<path d="M395.244 186.435C395.244 185.749 398.844 185.2 403.398 185.2C407.952 185.2 411.552 185.749 411.552 186.419C411.552 187.09 407.952 187.639 403.398 187.639C398.844 187.639 395.244 187.105 395.244 186.435Z" fill="white"/>
<path d="M477.54 183.63C475.29 183.036 476.622 182.289 480.51 181.954C484.228 181.605 487.988 181.755 491.652 182.396C493.902 182.975 492.57 183.721 488.682 184.072C484.964 184.42 481.204 184.271 477.54 183.63Z" fill="white"/>
<path d="M539.64 175.035C535.734 174.699 534.402 173.952 536.652 173.373C540.313 172.719 544.075 172.564 547.794 172.916C551.7 173.251 553.032 173.998 550.782 174.577C547.121 175.232 543.359 175.387 539.64 175.035Z" fill="white"/>
<path d="M564.912 162.965C560.412 162.965 556.758 162.416 556.758 161.746C556.758 161.075 560.358 160.526 564.912 160.511C569.466 160.496 573.066 161.06 573.066 161.73C573.066 162.401 569.412 162.965 564.912 162.965Z" fill="white"/>
<path d="M546.588 150.635C542.876 150.983 539.122 150.834 535.464 150.193C533.196 149.614 534.546 148.868 538.434 148.517C542.152 148.169 545.912 148.318 549.576 148.959C551.826 149.553 550.494 150.3 546.588 150.635Z" fill="white"/>
<path d="M489.582 141.37C485.918 142.009 482.16 142.164 478.44 141.827C474.552 141.492 473.202 140.745 475.452 140.151C479.115 139.505 482.875 139.35 486.594 139.693C490.5 140.029 491.832 140.775 489.582 141.37Z" fill="white"/>
<path d="M545.526 173.236C545.499 174.276 545.09 175.283 544.356 176.117L543.636 176.94L533.682 188.065L270.756 188.309L260.676 177.092L260.028 176.391C259.307 175.541 258.905 174.526 258.876 173.48C258.876 160.831 323.01 150.62 402.156 150.498C481.302 150.376 545.508 160.587 545.526 173.236Z" fill="#7474E2"/>
<path opacity="0.1" d="M545.526 173.236C545.499 174.276 545.09 175.283 544.356 176.117L543.636 176.94L533.682 188.065L270.756 188.309L260.676 177.092L260.028 176.391C259.307 175.541 258.905 174.526 258.876 173.48C258.876 160.831 323.01 150.62 402.156 150.498C481.302 150.376 545.508 160.587 545.526 173.236Z" fill="black"/>
<path d="M534.762 185.367C534.762 197.057 475.452 206.582 402.246 206.703C329.04 206.825 269.712 197.316 269.694 185.642C269.676 173.968 329.094 164.428 402.21 164.382C475.326 164.336 534.744 173.694 534.762 185.367Z" fill="#7474E2"/>
<path d="M469.422 185.414C469.422 190.534 439.344 194.71 402.246 194.725C365.148 194.74 335.034 190.626 335.034 185.581C335.034 180.537 365.112 176.285 402.228 176.27C439.344 176.254 469.422 180.308 469.422 185.414Z" fill="#263238"/>
<path d="M401.49 167.201C401.99 167.55 402.395 167.987 402.674 168.482C402.954 168.977 403.103 169.518 403.11 170.066C403.111 170.615 402.968 171.156 402.691 171.652C402.414 172.148 402.01 172.585 401.508 172.931C401.005 172.585 400.599 172.148 400.318 171.653C400.038 171.157 399.891 170.616 399.888 170.066C399.895 169.519 400.042 168.98 400.319 168.485C400.595 167.991 400.995 167.553 401.49 167.201Z" fill="white"/>
<path d="M340.308 169.747C344.61 170.479 348.066 171.271 351.324 172.109C354.144 172.783 356.895 173.65 359.55 174.7C355.248 173.969 351.792 173.176 348.534 172.338C345.714 171.664 342.963 170.798 340.308 169.747Z" fill="white"/>
<path d="M295.704 176.498C301.896 176.818 307.584 177.245 313.164 177.717C318.744 178.19 324.108 178.708 329.04 179.348C322.848 179.043 317.142 178.601 311.562 178.129C305.982 177.656 300.618 177.138 295.704 176.498Z" fill="white"/>
<path d="M279.648 185.657C286.056 185.459 292.464 185.413 298.89 185.398C305.316 185.383 311.706 185.398 318.132 185.626C311.706 185.825 305.298 185.87 298.89 185.885C292.482 185.901 286.056 185.84 279.648 185.657Z" fill="white"/>
<path d="M296.424 194.771C301.356 194.115 306.756 193.597 312.282 193.109C317.808 192.622 323.568 192.195 329.76 191.875C324.846 192.515 319.428 193.033 313.902 193.521C308.376 194.009 302.616 194.405 296.424 194.771Z" fill="white"/>
<path d="M341.568 201.37C344.226 200.323 346.977 199.451 349.794 198.764C353.034 197.941 356.49 197.133 360.81 196.401C358.153 197.451 355.402 198.322 352.584 199.007C349.326 199.83 345.87 200.638 341.568 201.37Z" fill="white"/>
<path d="M402.966 203.732C402.462 203.386 402.056 202.95 401.777 202.454C401.498 201.958 401.353 201.416 401.353 200.867C401.353 200.318 401.498 199.776 401.777 199.28C402.056 198.784 402.462 198.348 402.966 198.002C403.469 198.349 403.875 198.785 404.155 199.281C404.436 199.776 404.583 200.318 404.586 200.867C404.576 201.415 404.427 201.955 404.147 202.45C403.867 202.945 403.464 203.382 402.966 203.732Z" fill="white"/>
<path d="M464.148 201.186C459.846 200.455 456.39 199.662 453.132 198.824C450.312 198.15 447.561 197.284 444.906 196.233C449.226 196.965 452.682 197.757 455.922 198.596C458.745 199.263 461.497 200.129 464.148 201.186Z" fill="white"/>
<path d="M508.752 194.405C502.56 194.085 496.872 193.658 491.292 193.185C485.712 192.713 480.348 192.195 475.416 191.555C481.608 191.859 487.314 192.301 492.894 192.774C498.474 193.246 503.838 193.795 508.752 194.405Z" fill="white"/>
<path d="M524.808 185.261C518.4 185.459 511.992 185.505 505.566 185.505C499.14 185.505 492.75 185.505 486.324 185.291C492.75 185.093 499.158 185.047 505.566 185.032C511.974 185.017 518.4 185.093 524.808 185.261Z" fill="white"/>
<path d="M508.032 176.117C503.1 176.773 497.7 177.291 492.174 177.778C486.648 178.266 480.888 178.693 474.696 179.013C479.61 178.373 485.028 177.855 490.554 177.367C496.08 176.879 501.84 176.483 508.032 176.117Z" fill="white"/>
<path d="M462.888 169.549C460.235 170.61 457.484 171.487 454.662 172.17C451.422 172.993 447.966 173.801 443.646 174.532C446.301 173.479 449.052 172.607 451.872 171.926C455.13 171.103 458.586 170.296 462.888 169.549Z" fill="white"/>
<path d="M609.642 629.4H194.67L348.552 183.31C348.552 180.81 362.358 177.595 380.034 177.473H421.434C440.118 177.732 454.968 181.237 454.932 183.843L609.642 629.4Z" fill="#7474E2"/>
<path d="M609.642 629.4H194.67L348.552 183.31C348.552 180.81 362.358 177.595 380.034 177.473H421.434C440.118 177.732 454.968 181.237 454.932 183.843L609.642 629.4Z" fill="white"/>
<path d="M563.814 629.4H241.848L358.47 183.371C358.47 180.933 367.866 177.717 380.07 177.458H421.47C434.646 177.717 445.068 181.177 445.032 183.752L563.814 629.4Z" fill="white"/>
<path d="M399.908 342.097L385.929 404.296L368.726 401.524L381.009 346.872L386.296 347.724L345.535 378.194L346.662 372.79L401.46 381.619L398.609 394.308L331.139 383.437L333.86 371.329L377.922 338.555L399.908 342.097Z" fill="#7474E2"/>
<path d="M396.065 512.377C388.951 513.795 382.391 513.72 376.383 512.152C370.359 510.529 365.235 507.603 361.009 503.375C356.838 499.136 353.858 493.795 352.066 487.353C350.275 480.91 350.128 475.005 351.626 469.635C353.18 464.255 356.232 459.728 360.783 456.055C365.318 452.328 371.143 449.755 378.256 448.337C385.314 446.93 391.827 447.043 397.795 448.677C403.803 450.245 408.92 453.144 413.146 457.372C417.372 461.6 420.38 466.935 422.172 473.378C423.963 479.82 424.082 485.731 422.528 491.112C420.974 496.492 417.93 501.046 413.394 504.774C408.899 508.435 403.123 510.97 396.065 512.377ZM392.239 498.619C397.852 497.5 401.774 495.047 404.006 491.26C406.222 487.419 406.526 482.604 404.916 476.817C403.292 470.976 400.483 466.782 396.491 464.236C392.498 461.69 387.695 460.976 382.082 462.095C376.469 463.214 372.519 465.672 370.232 469.47C367.945 473.268 367.614 478.088 369.238 483.93C370.848 489.717 373.684 493.905 377.747 496.495C381.796 499.03 386.626 499.738 392.239 498.619Z" fill="#7474E2"/>
<path d="M476.615 537.865L494.739 598.985L477.695 602.608L461.77 548.904L467.008 547.791L444.998 589.807L443.344 584.527L497.636 572.987L501.333 585.455L434.486 599.664L430.958 587.766L454.832 542.496L476.615 537.865Z" fill="#7474E2"/>
<path d="M535.644 629.4H273.492L358.47 183.371C358.47 180.933 367.866 177.717 380.07 177.458H421.47C434.646 177.717 445.068 181.177 445.032 183.752L535.644 629.4Z" fill="white"/>
<path d="M507.636 227.933C507.438 227.659 507.276 227.385 507.06 227.095L506.286 226.226C505.627 225.578 504.878 225 504.054 224.504C501.739 223.167 499.196 222.139 496.512 221.456C493.252 220.605 489.926 219.948 486.558 219.49C483.138 219.018 479.7 218.637 476.28 218.332L471.186 217.905L466.668 217.585L467.604 220.298C470.34 220.389 473.004 220.511 475.722 220.664C478.854 220.877 481.95 221.121 484.884 221.471C487.598 221.787 490.282 222.27 492.912 222.919C494.91 223.396 496.801 224.147 498.51 225.144C499.122 225.54 499.683 225.99 500.184 226.485L500.742 227.186C500.904 227.43 501.012 227.674 501.156 227.918C501.64 228.83 501.821 229.836 501.678 230.829C501.359 231.938 500.766 232.978 499.937 233.879C499.109 234.78 498.064 235.522 496.872 236.056C495.332 236.909 493.698 237.633 491.994 238.22C490.022 238.921 488.01 239.537 485.964 240.064C482.67 240.918 479.052 241.664 475.254 242.32L471.564 242.929C470.25 243.112 468.99 243.326 467.64 243.493L465.642 243.768L463.608 244.011C460.926 244.362 458.208 244.651 455.346 244.956L451.134 245.368L446.85 245.749L438.156 246.419L428.958 247.059L424.278 247.41L421.956 247.745L419.634 247.943C407.196 248.98 395.01 250.321 383.454 251.951C380.592 252.363 377.73 252.759 374.958 253.186L366.822 254.436C361.96 255.223 357.051 255.783 352.116 256.112C349.85 256.212 347.579 256.212 345.312 256.112C342.972 256.112 340.416 255.883 337.734 255.64C336.402 255.518 335.016 255.35 333.63 255.213L331.506 254.954L329.436 254.695C327.636 254.451 325.836 254.192 324.216 253.917C323.388 253.78 322.578 253.643 321.804 253.491L320.004 253.155L318.348 252.79L317.502 252.607L316.728 252.409L315.162 252.012L313.704 251.601L312.966 251.388L312.318 251.159L310.986 250.702L309.762 250.199C308.296 249.604 306.923 248.857 305.676 247.974L305.226 247.669L304.866 247.364L304.11 246.709C303.683 246.293 303.303 245.844 302.976 245.368C302.323 244.496 301.866 243.53 301.626 242.518C301.41 241.548 301.374 240.556 301.518 239.577C301.843 237.484 302.716 235.479 304.074 233.709C304.783 232.703 305.583 231.745 306.468 230.844C306.918 230.372 307.35 229.899 307.872 229.442L308.61 228.741L309.42 228.055C311.711 226.13 314.152 224.337 316.728 222.691C319.133 221.078 321.249 219.179 323.01 217.052C324.684 215.116 326.088 213.15 327.762 211.245C328.593 210.264 329.488 209.323 330.444 208.426C331.484 207.473 332.622 206.601 333.846 205.82C335.217 204.954 336.718 204.247 338.31 203.717C339.472 203.328 340.679 203.042 341.91 202.863L343.71 197.804L342.288 197.895C341.28 197.987 340.29 198.093 339.336 198.215C338.382 198.337 337.536 198.49 336.582 198.657C333.819 199.134 331.182 200.038 328.806 201.324C327.362 202.142 326.136 203.206 325.206 204.448C324.494 205.425 323.949 206.482 323.586 207.588C323.19 208.624 322.92 209.66 322.614 210.636C322.141 212.736 321.38 214.782 320.346 216.732C319.118 218.945 317.263 220.866 314.946 222.325L306.684 227.552L304.668 228.878C303.984 229.32 303.3 229.762 302.652 230.204C302.004 230.646 301.356 231.103 300.69 231.545C300.024 231.987 299.412 232.459 298.764 232.901C296.288 234.604 294.02 236.514 291.996 238.601C291.13 239.544 290.394 240.566 289.8 241.649C289.257 242.722 288.993 243.881 289.026 245.048C289.055 245.657 289.17 246.26 289.368 246.846C289.494 247.151 289.656 247.456 289.818 247.776C289.98 248.096 289.98 248.08 290.088 248.248L290.448 248.721C291.652 250.226 293.201 251.511 295.002 252.5C295.542 252.805 296.082 253.125 296.658 253.43L298.566 254.298C298.89 254.451 299.196 254.603 299.556 254.74L300.618 255.152C301.338 255.426 302.04 255.716 302.796 255.975L305.154 256.722C305.568 256.843 305.946 256.981 306.36 257.087L307.602 257.438L310.14 258.108L312.732 258.703C314.532 259.114 316.332 259.45 318.132 259.785L319.482 260.044L320.832 260.257L322.002 260.455L323.532 260.699L326.214 261.111L328.86 261.476C330.66 261.72 332.46 261.964 334.44 262.162C338.238 262.574 342.252 262.924 346.482 263.092C350.649 263.275 354.825 263.275 358.992 263.092C363.006 262.924 366.66 262.574 369.972 262.193C373.284 261.812 376.326 261.37 379.152 260.928C384.858 260.029 390.096 259.145 395.352 258.291C405.918 256.63 416.7 255.137 428.094 253.933L430.218 253.704L432.36 253.491L436.68 253.064L445.68 252.226C447.246 252.089 448.758 251.921 450.306 251.769L454.878 251.25L459.378 250.687L463.788 250.062C466.704 249.635 469.566 249.163 472.356 248.66L474.426 248.263L476.46 247.852L477.234 247.699L480.474 247.014C483.066 246.404 485.622 245.794 488.016 245.093C490.41 244.392 492.678 243.691 494.802 242.914C498.561 241.644 502.046 239.858 505.116 237.626C505.706 237.149 506.26 236.64 506.772 236.102L507.42 235.325C507.654 235.066 507.762 234.791 507.96 234.532C508.575 233.513 508.89 232.384 508.878 231.24C508.746 230.076 508.323 228.948 507.636 227.933Z" fill="#7474E2"/>
<path opacity="0.2" d="M610.848 326.429C610.503 322.253 608.978 318.207 606.402 314.633C603.697 310.842 600.287 307.446 596.304 304.575C595.296 303.828 594.234 303.051 593.172 302.38L590.238 300.521C588.258 299.302 586.224 298.098 584.118 296.94C579.942 294.593 575.478 292.368 570.96 290.371C561.96 286.257 552.51 282.858 544.122 279.703C536.317 276.826 528.714 273.569 521.352 269.95C514.689 266.606 508.346 262.825 502.38 258.642L497.718 255.319C495.792 253.948 493.812 252.622 491.76 251.357C487.579 248.758 483.228 246.362 478.728 244.179C477.594 243.63 476.442 243.082 475.29 242.563L490.536 286.47C492.138 287.247 493.758 287.994 495.396 288.741C504.625 292.719 514.121 296.235 523.836 299.272C533.142 302.32 541.71 304.895 549.378 307.867C553.23 309.391 556.884 310.915 560.43 312.546C562.23 313.369 563.922 314.237 565.632 315.121L568.17 316.462L570.24 317.605C572.719 319.042 574.98 320.731 576.972 322.634C578.65 324.246 579.941 326.12 580.77 328.151C581.528 330.089 581.614 332.169 581.017 334.147C580.421 336.124 579.167 337.915 577.404 339.307C575.12 341.225 572.442 342.774 569.502 343.879C565.859 345.275 562.043 346.323 558.126 347.003C549.033 348.494 539.735 348.878 530.514 348.146C523.934 347.708 517.411 346.785 511.02 345.388C508.23 344.809 505.494 344.123 502.794 343.361C494.128 340.896 485.747 337.764 477.756 334.003C469.854 330.331 462.402 326.231 454.752 322.04C446.626 317.393 438.066 313.315 429.156 309.848C423.761 307.859 418.131 306.362 412.362 305.383C410.814 305.124 409.23 304.895 407.628 304.697C406.026 304.499 404.352 304.392 402.786 304.285C399.654 304.087 396.648 304.026 393.786 303.996C382.749 304.058 371.724 304.612 360.756 305.657C355.5 306.114 350.298 306.602 345.15 307.181C340.002 307.76 334.926 308.294 329.886 308.888C321.228 309.909 312.696 310.991 304.254 312.058C293.04 313.46 282.006 314.801 271.17 315.898C261.72 316.843 252.396 317.575 243.594 317.697C239.388 317.784 235.179 317.641 230.994 317.27C229.096 317.113 227.209 316.869 225.342 316.538C224.424 316.386 223.542 316.203 222.696 316.02L221.436 315.715L219.96 315.289C211.986 312.896 204.858 309.696 199.98 305.505C197.643 303.542 195.875 301.148 194.814 298.51C194.332 297.252 194.054 295.944 193.986 294.623C193.95 293.269 194.119 291.917 194.49 290.6C195.93 285.19 200.97 279.932 207.756 275.756C215.257 271.292 223.568 267.895 232.362 265.698C237.113 264.66 241.972 264.012 246.87 263.762C251.946 263.397 257.112 263.122 262.296 262.848C272.664 262.284 283.158 261.659 293.688 260.608C303.606 259.663 313.488 258.306 323.37 256.569L328.572 241.481C326.628 242.289 324.972 243.005 323.298 243.752C321.624 244.499 319.266 245.413 317.196 246.191C308.577 249.472 299.67 252.182 290.556 254.298C285.858 255.38 281.07 256.386 276.156 257.224C271.242 258.063 266.292 258.748 261.27 259.388C256.248 260.029 251.136 260.516 246.006 261.095C243.45 261.385 240.876 261.659 238.284 262.04C235.667 262.401 233.081 262.91 230.544 263.564C221.309 265.994 212.45 269.35 204.156 273.562C196.236 277.722 189.36 282.889 185.508 289.167C184.55 290.708 183.813 292.34 183.312 294.029C182.784 295.699 182.523 297.421 182.538 299.15C182.589 302.751 183.676 306.287 185.706 309.452C187.936 312.93 190.845 316.062 194.31 318.718C198.039 321.606 202.11 324.16 206.46 326.338C207.018 326.627 207.54 326.902 208.26 327.191L210.258 328.09C211.626 328.654 213.012 329.233 214.452 329.706C217.314 330.692 220.241 331.537 223.218 332.236C226.188 332.952 229.194 333.501 232.218 333.958C235.242 334.415 238.176 334.781 241.128 335.086C252.488 336.085 263.926 336.305 275.328 335.741C282.528 335.421 289.728 334.887 296.658 334.217C310.95 332.845 324.72 330.834 338.166 328.669C343.17 327.862 348.12 327.008 353.016 326.155L367.614 323.595C372.438 322.772 377.208 321.918 381.924 321.187C386.64 320.455 391.284 319.754 395.73 319.282C397.944 319.053 400.122 318.855 402.138 318.763C403.146 318.763 404.082 318.672 405.036 318.657C405.99 318.642 406.962 318.657 407.934 318.657C412.094 318.81 416.225 319.321 420.264 320.181C428.981 322.256 437.425 325.08 445.464 328.609C462.078 335.512 478.08 343.849 497.322 349.731C502.122 351.204 507.084 352.525 512.208 353.694L514.224 354.12C518.724 355.08 523.35 355.903 528.066 356.528C539.302 358.127 550.723 358.582 562.086 357.885C568.119 357.473 574.084 356.534 579.888 355.08C585.697 353.654 591.214 351.486 596.25 348.649C600.909 346.051 604.791 342.571 607.59 338.484C609.996 334.806 611.125 330.627 610.848 326.429Z" fill="#7474E2"/>
<path opacity="0.2" d="M569.844 369.863C569.745 368.342 569.425 366.837 568.89 365.383C567.716 362.243 565.799 359.34 563.256 356.848C560.472 354.118 557.248 351.733 553.68 349.762C549.93 347.676 545.959 345.89 541.818 344.428C541.296 344.23 540.81 344.047 540.216 343.864L538.416 343.285C537.174 342.934 535.896 342.584 534.636 342.325C532.119 341.771 529.564 341.349 526.986 341.06C524.492 340.756 521.98 340.563 519.462 340.48C516.978 340.374 514.548 340.374 512.136 340.404C511.2 340.404 510.336 340.404 509.346 340.496L514.746 355.812L515.502 355.69C518.804 355.193 522.141 354.887 525.492 354.776C527.044 354.691 528.602 354.691 530.154 354.776C530.91 354.776 531.63 354.882 532.368 354.943L533.466 355.08C533.844 355.08 534.312 355.233 534.744 355.294C541.402 356.347 547.735 358.54 553.356 361.74C555.816 363.211 557.914 365.075 559.53 367.227C560.283 368.248 560.888 369.343 561.33 370.488C561.759 371.622 562.037 372.792 562.158 373.978C562.698 378.779 560.358 383.762 556.308 388.09C551.824 392.672 546.319 396.462 540.108 399.246C537.104 400.466 533.954 401.411 530.712 402.065L529.344 402.37C525.474 403.208 521.514 403.97 517.536 404.732C509.598 406.256 501.552 407.872 493.632 409.853C485.679 411.788 477.866 414.113 470.232 416.818C468.324 417.488 466.47 418.204 464.598 418.936C462.726 419.667 460.8 420.46 459.198 421.07C455.904 422.35 452.538 423.523 449.172 424.575C445.806 425.626 442.386 426.541 438.948 427.318C435.51 428.095 432.126 428.751 428.724 429.253C422.037 430.272 415.25 430.747 408.456 430.671C395.047 430.465 381.812 428.059 369.486 423.584C366.408 422.487 363.402 421.298 360.486 420.018C359.046 419.378 357.624 418.723 356.256 418.052L353.79 416.833C352.872 416.391 351.99 415.918 351.018 415.492C343.278 411.852 335.206 408.744 326.88 406.195C318.518 403.728 309.996 401.668 301.356 400.023C293.148 398.392 285.624 396.975 278.712 395.238L275.652 394.43C273.252 393.78 270.912 393.079 268.632 392.327C266.994 391.794 265.374 391.23 263.772 390.651L261.378 389.751C260.694 389.492 260.028 389.248 259.398 388.974C256.975 387.973 254.687 386.752 252.576 385.332C250.748 384.113 249.172 382.645 247.914 380.988C246.732 379.548 246.035 377.862 245.899 376.111C245.762 374.361 246.191 372.612 247.14 371.052C248.305 369.185 249.932 367.553 251.91 366.267C254.345 364.692 257.022 363.406 259.866 362.441C266.668 360.207 273.854 358.92 281.142 358.631C283.428 358.509 285.75 358.464 288.054 358.509L290.43 351.59C287.172 351.331 283.878 351.148 280.584 351.103C271.504 350.848 262.425 351.617 253.584 353.389C249.042 354.342 244.654 355.76 240.516 357.61C236.416 359.414 232.752 361.854 229.716 364.804C226.801 367.614 224.814 371.026 223.956 374.694C223.168 378.306 223.528 382.03 225 385.484C226.581 389.077 228.992 392.367 232.092 395.162C235.329 398.116 239.029 400.68 243.09 402.782C244.116 403.33 245.16 403.848 246.222 404.306L249.084 405.616C251.01 406.454 252.972 407.293 254.97 408.07C258.966 409.594 263.124 411.118 267.3 412.383L269.37 413.008C277.056 415.309 284.67 417.107 291.6 418.86C298.669 420.567 305.621 422.602 312.426 424.956C318.746 427.177 324.87 429.779 330.75 432.743L335.412 435.136C337.332 436.152 339.294 437.082 341.298 437.925C345.279 439.738 349.371 441.371 353.556 442.817C362.4 445.824 371.596 448.031 380.988 449.401C390.755 450.837 400.685 451.308 410.58 450.803C420.18 450.286 429.654 448.681 438.75 446.033C446.937 443.626 454.733 440.354 461.952 436.294C465.247 434.441 468.419 432.436 471.456 430.29C473.04 429.193 474.174 428.339 475.506 427.379C476.838 426.419 478.152 425.535 479.538 424.651C485.264 420.945 491.387 417.7 497.826 414.958C501.156 413.556 504.612 412.2 508.176 410.981C511.74 409.761 515.376 408.649 519.192 407.613C523.008 406.576 526.77 405.601 530.622 404.565L531.414 404.351C533.07 403.909 534.744 403.467 536.382 402.964C538.311 402.403 540.183 401.71 541.98 400.892C548.507 397.864 554.479 394.05 559.71 389.569C564.753 385.422 568.187 380.075 569.556 374.237C569.848 372.793 569.944 371.326 569.844 369.863Z" fill="#7474E2"/>
<path d="M0 629.401L100.53 629.02L201.078 628.898L402.156 628.639L603.234 628.898L703.782 629.02L804.312 629.401L703.782 629.766L603.234 629.904L402.156 630.163L201.078 629.904L100.53 629.766L0 629.401Z" fill="#263238"/>
<path d="M564.156 547.439L555.822 548.735L553.968 556.172L552.114 548.735L543.78 547.439L552.078 545.717L553.968 538.691L555.858 545.717L564.156 547.439Z" fill="#7474E2"/>
<path d="M339.462 328.822L331.128 330.133L329.274 337.57L327.42 330.133L319.086 328.822L327.384 327.1L329.274 320.074L331.164 327.1L339.462 328.822Z" fill="#7474E2"/>
<path d="M475.128 429.406L466.794 430.701L464.922 438.138L463.068 430.701L454.734 429.391L463.032 427.684L464.922 420.658L466.83 427.684L475.128 429.406Z" fill="#7474E2"/>
<path d="M411.39 194.603L403.056 195.914L401.202 203.351L399.33 195.914L390.996 194.603L399.294 192.881L401.202 185.855L403.092 192.881L411.39 194.603Z" fill="#7474E2"/>
<path d="M324.774 441.826L320.13 442.558L319.086 446.718L318.042 442.558L313.38 441.826L318.024 440.866L319.086 436.949L320.148 440.866L324.774 441.826Z" fill="#7474E2"/>
<path d="M552.384 574.079L547.722 574.81L546.678 578.955L545.634 574.81L540.99 574.079L545.616 573.118L546.678 569.187L547.74 573.118L552.384 574.079Z" fill="#7474E2"/>
<path d="M251.55 569.187L246.888 569.919L245.844 574.079L244.8 569.919L240.156 569.187L244.782 568.227L245.844 564.311L246.906 568.227L251.55 569.187Z" fill="#7474E2"/>
<path d="M438.57 504.021L433.908 504.737L432.864 508.898L431.82 504.737L427.158 504.006L431.802 503.061L432.864 499.129L433.926 503.061L438.57 504.021Z" fill="#7474E2"/>
<path d="M420.498 360.155L415.836 360.886L414.81 365.047L413.766 360.886L409.104 360.155L413.748 359.195L414.81 355.263L415.872 359.195L420.498 360.155Z" fill="#7474E2"/>
<path d="M361.314 574.079L356.67 574.81L355.626 578.955L354.582 574.81L349.938 574.079L354.564 573.118L355.626 569.187L356.688 573.118L361.314 574.079Z" fill="#7474E2"/>
<path d="M363.528 300.369L358.884 301.1L357.84 305.261L356.796 301.1L352.134 300.369L356.778 299.408L357.84 295.477L358.902 299.408L363.528 300.369Z" fill="#7474E2"/>
<path d="M435.096 252.531L430.434 253.262L429.39 257.423L428.364 253.262L423.702 252.531L428.328 251.571L429.39 247.639L430.452 251.571L435.096 252.531Z" fill="#7474E2"/>
<path d="M559.872 482.883C559.514 482.883 559.171 483.003 558.917 483.218C558.664 483.432 558.522 483.723 558.522 484.026C558.522 484.329 558.664 484.62 558.917 484.834C559.171 485.048 559.514 485.169 559.872 485.169C560.23 485.169 560.573 485.048 560.827 484.834C561.08 484.62 561.222 484.329 561.222 484.026C561.222 483.723 561.08 483.432 560.827 483.218C560.573 483.003 560.23 482.883 559.872 482.883Z" fill="#7474E2"/>
<path d="M404.568 345.738C404.21 345.738 403.867 345.859 403.613 346.073C403.36 346.287 403.218 346.578 403.218 346.881C403.218 347.184 403.36 347.475 403.613 347.69C403.867 347.904 404.21 348.024 404.568 348.024C404.926 348.024 405.269 347.904 405.523 347.69C405.776 347.475 405.918 347.184 405.918 346.881C405.918 346.578 405.776 346.287 405.523 346.073C405.269 345.859 404.926 345.738 404.568 345.738Z" fill="#7474E2"/>
<path d="M389.322 211.032C388.964 211.032 388.621 211.153 388.367 211.367C388.114 211.581 387.972 211.872 387.972 212.175C387.972 212.478 388.114 212.769 388.367 212.983C388.621 213.198 388.964 213.318 389.322 213.318C389.68 213.318 390.023 213.198 390.277 212.983C390.53 212.769 390.672 212.478 390.672 212.175C390.672 211.872 390.53 211.581 390.277 211.367C390.023 211.153 389.68 211.032 389.322 211.032Z" fill="#7474E2"/>
<path d="M298.926 466.195C298.568 466.195 298.225 466.316 297.971 466.53C297.718 466.744 297.576 467.035 297.576 467.338C297.576 467.641 297.718 467.932 297.971 468.147C298.225 468.361 298.568 468.481 298.926 468.481C299.284 468.481 299.627 468.361 299.881 468.147C300.134 467.932 300.276 467.641 300.276 467.338C300.276 467.035 300.134 466.744 299.881 466.53C299.627 466.316 299.284 466.195 298.926 466.195Z" fill="#7474E2"/>
<path d="M403.254 560.165C402.896 560.165 402.553 560.285 402.299 560.5C402.046 560.714 401.904 561.005 401.904 561.308C401.904 561.611 402.046 561.902 402.299 562.116C402.553 562.331 402.896 562.451 403.254 562.451C403.612 562.451 403.955 562.331 404.209 562.116C404.462 561.902 404.604 561.611 404.604 561.308C404.604 561.005 404.462 560.714 404.209 560.5C403.955 560.285 403.612 560.165 403.254 560.165Z" fill="#7474E2"/>
<path d="M545.976 446.094C545.723 446.094 545.48 446.179 545.301 446.33C545.123 446.482 545.022 446.687 545.022 446.901C545.022 447.116 545.123 447.321 545.301 447.473C545.48 447.624 545.723 447.709 545.976 447.709C546.229 447.709 546.472 447.624 546.651 447.473C546.829 447.321 546.93 447.116 546.93 446.901C546.93 446.687 546.829 446.482 546.651 446.33C546.472 446.179 546.229 446.094 545.976 446.094Z" fill="#7474E2"/>
<path d="M249.156 615.928C248.903 615.928 248.66 616.013 248.481 616.164C248.303 616.316 248.202 616.521 248.202 616.735C248.202 616.95 248.303 617.155 248.481 617.307C248.66 617.458 248.903 617.543 249.156 617.543C249.409 617.543 249.652 617.458 249.831 617.307C250.01 617.155 250.11 616.95 250.11 616.735C250.11 616.521 250.01 616.316 249.831 616.164C249.652 616.013 249.409 615.928 249.156 615.928Z" fill="#7474E2"/>
<path d="M464.922 395.848C464.669 395.848 464.426 395.933 464.247 396.084C464.069 396.236 463.968 396.441 463.968 396.655C463.968 396.87 464.069 397.075 464.247 397.227C464.426 397.378 464.669 397.463 464.922 397.463C465.175 397.463 465.418 397.378 465.597 397.227C465.776 397.075 465.876 396.87 465.876 396.655C465.876 396.441 465.776 396.236 465.597 396.084C465.418 395.933 465.175 395.848 464.922 395.848Z" fill="#7474E2"/>
<path d="M411.156 228.862C410.903 228.862 410.66 228.947 410.481 229.099C410.303 229.25 410.202 229.456 410.202 229.67C410.202 229.884 410.303 230.09 410.481 230.241C410.66 230.393 410.903 230.478 411.156 230.478C411.409 230.478 411.652 230.393 411.831 230.241C412.01 230.09 412.11 229.884 412.11 229.67C412.11 229.456 412.01 229.25 411.831 229.099C411.652 228.947 411.409 228.862 411.156 228.862Z" fill="#7474E2"/>
<path d="M343.8 246.221C343.567 246.248 343.354 246.345 343.199 246.495C343.045 246.645 342.96 246.837 342.96 247.036C342.96 247.235 343.045 247.427 343.199 247.577C343.354 247.727 343.567 247.824 343.8 247.851C344.033 247.824 344.246 247.727 344.401 247.577C344.555 247.427 344.64 247.235 344.64 247.036C344.64 246.837 344.555 246.645 344.401 246.495C344.246 246.345 344.033 246.248 343.8 246.221Z" fill="#7474E2"/>
<path d="M341.586 418.174C341.333 418.174 341.09 418.259 340.911 418.41C340.733 418.562 340.632 418.767 340.632 418.982C340.632 419.196 340.733 419.401 340.911 419.553C341.09 419.704 341.333 419.789 341.586 419.789C341.839 419.789 342.082 419.704 342.261 419.553C342.439 419.401 342.54 419.196 342.54 418.982C342.54 418.767 342.439 418.562 342.261 418.41C342.082 418.259 341.839 418.174 341.586 418.174Z" fill="#7474E2"/>
<path d="M483.264 348.71C482.577 348.71 481.917 348.941 481.431 349.353C480.945 349.764 480.672 350.322 480.672 350.905C480.672 351.487 480.945 352.045 481.431 352.456C481.917 352.868 482.577 353.099 483.264 353.099C483.951 353.099 484.611 352.868 485.097 352.456C485.583 352.045 485.856 351.487 485.856 350.905C485.856 350.322 485.583 349.764 485.097 349.353C484.611 348.941 483.951 348.71 483.264 348.71Z" fill="#7474E2"/>
<path d="M260.838 600.444C260.19 600.49 259.586 600.74 259.146 601.146C258.706 601.551 258.462 602.081 258.462 602.631C258.462 603.182 258.706 603.712 259.146 604.117C259.586 604.522 260.19 604.772 260.838 604.818C261.486 604.772 262.09 604.522 262.53 604.117C262.97 603.712 263.214 603.182 263.214 602.631C263.214 602.081 262.97 601.551 262.53 601.146C262.09 600.74 261.486 600.49 260.838 600.444Z" fill="#7474E2"/>
<path d="M353.808 410.812C353.16 410.858 352.556 411.109 352.116 411.514C351.676 411.919 351.432 412.449 351.432 412.999C351.432 413.55 351.676 414.08 352.116 414.485C352.556 414.89 353.16 415.141 353.808 415.186C354.456 415.141 355.06 414.89 355.5 414.485C355.94 414.08 356.184 413.55 356.184 412.999C356.184 412.449 355.94 411.919 355.5 411.514C355.06 411.109 354.456 410.858 353.808 410.812Z" fill="#7474E2"/>
<path d="M526.536 554.343C525.849 554.343 525.189 554.574 524.703 554.986C524.217 555.397 523.944 555.955 523.944 556.537C523.944 557.119 524.217 557.678 524.703 558.089C525.189 558.501 525.849 558.732 526.536 558.732C527.223 558.732 527.883 558.501 528.369 558.089C528.855 557.678 529.128 557.119 529.128 556.537C529.128 555.955 528.855 555.397 528.369 554.986C527.883 554.574 527.223 554.343 526.536 554.343Z" fill="#7474E2"/>
<path d="M416.88 278.469C416.232 278.515 415.628 278.765 415.188 279.17C414.748 279.575 414.504 280.105 414.504 280.656C414.504 281.206 414.748 281.736 415.188 282.141C415.628 282.547 416.232 282.797 416.88 282.843C417.528 282.797 418.132 282.547 418.572 282.141C419.012 281.736 419.256 281.206 419.256 280.656C419.256 280.105 419.012 279.575 418.572 279.17C418.132 278.765 417.528 278.515 416.88 278.469Z" fill="#7474E2"/>
<path d="M421.686 578.956C421.453 578.983 421.24 579.081 421.086 579.23C420.931 579.38 420.846 579.572 420.846 579.771C420.846 579.97 420.931 580.162 421.086 580.312C421.24 580.462 421.453 580.56 421.686 580.587C421.919 580.56 422.132 580.462 422.287 580.312C422.441 580.162 422.526 579.97 422.526 579.771C422.526 579.572 422.441 579.38 422.287 579.23C422.132 579.081 421.919 578.983 421.686 578.956Z" fill="#7474E2"/>
</svg>
