<svg width="806" height="665" viewBox="0 0 806 665" fill="none" xmlns="http://www.w3.org/2000/svg">
<path d="M427.21 239.18C435.796 239.18 650.284 237.916 710.854 237.916C715.102 237.916 709.738 231.713 707.398 231.271C699.946 229.899 692.188 229.823 684.628 229.153C677.162 228.56 669.844 227.019 662.92 224.581C656.962 222.447 651.004 220.009 644.542 219.14C632.068 217.479 621.142 223.209 609.406 225.739C605.852 226.605 602.124 226.833 598.46 226.408C594.796 225.983 591.277 224.914 588.13 223.27C582.73 220.527 577.798 217.174 572.146 214.796C561.307 210.275 549.482 207.697 537.411 207.225C525.341 206.753 513.285 208.397 502 212.053C496.63 213.801 491.495 216.029 486.682 218.698C480.958 221.868 476.026 225.937 470.302 229.061C457.594 236.026 441.88 233.77 428.038 237.748C427.318 237.976 426.4 239.18 427.21 239.18Z" fill="#EBEBEB"/>
<path d="M139.444 455.039C148.03 455.039 362.5 453.774 423.088 453.774C427.318 453.774 421.972 447.557 419.632 447.13C412.18 445.743 404.422 445.682 396.844 445.011C389.378 444.417 382.06 442.876 375.136 440.439C369.178 438.306 363.238 435.867 356.776 434.999C344.302 433.338 333.376 439.068 321.64 441.598C318.089 442.455 314.366 442.676 310.708 442.246C307.051 441.815 303.54 440.743 300.4 439.098C295 436.355 290.068 433.002 284.416 430.625C273.582 426.115 261.765 423.546 249.704 423.079C237.644 422.612 225.599 424.258 214.324 427.912C208.946 429.657 203.805 431.884 198.988 434.557C193.282 437.727 188.35 441.796 182.608 444.92C169.918 451.885 154.204 449.629 140.344 453.607C139.552 453.82 138.688 455.039 139.444 455.039Z" fill="#EBEBEB"/>
<path d="M43.486 395.558C54.844 395.558 246.058 396.625 258.082 396.305C258.946 396.305 259.414 395.207 258.55 394.781C250.972 391.611 242.35 392.251 234.502 389.995C229.876 388.685 227.032 386.109 223.81 383.168C221.145 380.611 217.711 378.715 213.874 377.681C210.366 376.785 206.642 376.685 203.074 377.392C199.186 378.169 195.874 380.043 192.13 381.232C182.932 384.173 174.004 381.385 167.452 375.624C162.052 370.884 156.652 366.404 149.362 363.859C146.36 362.707 143.11 362.093 139.814 362.053C136.519 362.014 133.249 362.551 130.21 363.63C123.208 366.312 118.384 371.738 111.796 374.984C103.984 378.855 94.642 377.94 86.02 379.099C77.398 380.257 70.774 386.414 63.214 389.965C60.7454 391.3 57.8977 392.047 54.97 392.129C53.278 392.129 51.622 391.702 49.948 391.519C47.338 391.245 44.872 391.306 43.108 393.15C42.658 393.668 42.748 395.558 43.486 395.558Z" fill="#EBEBEB"/>
<path d="M121.804 235.081C130.102 235.081 269.71 235.858 278.404 235.629C279.034 235.629 279.376 234.822 278.746 234.563C273.22 232.246 266.938 232.703 261.196 231.073C258.121 230.027 255.431 228.307 253.402 226.089C251.469 224.228 248.983 222.839 246.202 222.066C243.634 221.414 240.909 221.346 238.3 221.868C235.56 222.652 232.884 223.589 230.29 224.672C223.594 226.821 217.078 224.778 212.29 220.572C208.33 217.113 204.46 213.851 199.078 211.977C196.884 211.14 194.511 210.694 192.106 210.665C189.7 210.636 187.313 211.026 185.092 211.809C179.98 213.775 176.47 217.738 171.664 220.1C165.958 222.934 159.064 222.264 152.836 223.148C146.608 224.032 141.712 228.482 136.186 231.073C134.376 232.033 132.292 232.56 130.156 232.597C128.948 232.506 127.747 232.364 126.556 232.17C125.676 231.966 124.747 231.968 123.868 232.178C122.99 232.387 122.195 232.796 121.57 233.359C121.192 233.694 121.264 235.081 121.804 235.081Z" fill="#EBEBEB"/>
<path d="M628.486 298.479C636.784 298.479 776.392 299.256 785.086 299.028C785.716 299.028 786.058 298.22 785.428 297.961C779.902 295.644 773.62 296.117 767.878 294.471C764.8 293.431 762.108 291.71 760.084 289.487C758.151 287.626 755.665 286.237 752.884 285.464C750.316 284.812 747.591 284.744 744.982 285.266C742.242 286.051 739.566 286.987 736.972 288.07C730.276 290.219 723.76 288.177 718.972 283.971C715.012 280.511 711.142 277.25 705.76 275.375C703.567 274.537 701.192 274.09 698.786 274.064C696.379 274.038 693.992 274.432 691.774 275.223C686.662 277.174 683.152 281.136 678.346 283.513C672.64 286.333 665.746 285.662 659.518 286.561C653.29 287.461 648.394 291.895 642.868 294.486C641.057 295.446 638.974 295.973 636.838 296.01C635.614 296.01 634.39 295.69 633.238 295.568C632.358 295.364 631.429 295.367 630.55 295.576C629.672 295.786 628.877 296.194 628.252 296.757C627.874 297.092 628 298.479 628.486 298.479Z" fill="#EBEBEB"/>
<path d="M20.662 647.322C19.636 646.957 19.186 648.389 20.212 648.74C21.511 649.192 22.5662 650.036 23.1743 651.108C23.7825 652.18 23.9006 653.405 23.506 654.546C23.4439 654.734 23.4726 654.935 23.5857 655.105C23.6988 655.275 23.887 655.4 24.109 655.453C24.331 655.506 24.5685 655.481 24.7694 655.386C24.9702 655.29 25.1179 655.13 25.18 654.942C25.6935 653.424 25.514 651.798 24.677 650.386C23.8401 648.975 22.4069 647.881 20.662 647.322Z" fill="#EBEBEB"/>
<path d="M28.312 645.936C27.21 647.98 26.8588 650.258 27.304 652.474C27.466 653.403 29.104 653.007 28.978 652.078C28.6359 650.249 28.9234 648.376 29.806 646.683C30.256 645.829 28.762 645.067 28.312 645.936Z" fill="#EBEBEB"/>
<path d="M668.572 656.634C667.528 656.269 667.078 657.701 668.104 658.067C669.408 658.514 670.468 659.357 671.078 660.431C671.687 661.504 671.801 662.732 671.398 663.873C671.368 664.054 671.418 664.237 671.537 664.389C671.656 664.541 671.837 664.651 672.045 664.698C672.253 664.744 672.474 664.725 672.667 664.644C672.859 664.562 673.01 664.424 673.09 664.254C673.595 662.736 673.411 661.113 672.575 659.703C671.74 658.293 670.312 657.199 668.572 656.634Z" fill="#EBEBEB"/>
<path d="M676.204 655.232C675.118 657.281 674.767 659.554 675.196 661.77C675.376 662.7 676.996 662.304 676.888 661.374C676.537 659.546 676.824 657.67 677.716 655.979C678.166 655.141 676.6 654.394 676.204 655.232Z" fill="#EBEBEB"/>
<path d="M190.69 643.97C189.646 643.604 189.196 645.037 190.222 645.402C191.52 645.852 192.574 646.693 193.183 647.762C193.791 648.832 193.91 650.054 193.516 651.194C193.479 651.376 193.523 651.564 193.64 651.721C193.757 651.878 193.939 651.992 194.15 652.041C194.361 652.09 194.586 652.072 194.782 651.988C194.977 651.905 195.129 651.763 195.208 651.59C195.713 650.071 195.529 648.448 194.694 647.038C193.858 645.629 192.43 644.534 190.69 643.97Z" fill="#EBEBEB"/>
<path d="M198.322 642.598C197.229 644.639 196.878 646.91 197.314 649.121C197.494 650.066 199.114 649.669 198.988 648.74C198.643 646.91 198.937 645.035 199.834 643.345C200.284 642.476 198.772 641.729 198.322 642.598Z" fill="#EBEBEB"/>
<path d="M293.398 645.083C292.408 644.625 291.598 645.906 292.516 646.347C293.467 646.768 294.25 647.418 294.763 648.216C295.276 649.014 295.496 649.923 295.396 650.828C295.306 651.773 297.052 651.773 297.196 650.828C297.302 649.66 296.998 648.492 296.322 647.469C295.647 646.447 294.629 645.617 293.398 645.083Z" fill="#EBEBEB"/>
<path d="M298.6 642.766C298.078 641.928 296.566 642.675 297.106 643.513C298.334 645.451 298.902 647.641 298.744 649.837C298.744 650.782 300.436 650.782 300.544 649.837C300.693 647.372 300.02 644.922 298.6 642.766Z" fill="#EBEBEB"/>
<path d="M302.632 643.741C301.683 645.177 301.299 646.832 301.534 648.466C301.66 649.395 303.334 649.41 303.334 648.466C303.103 647.095 303.406 645.699 304.198 644.488C304.684 643.665 303.172 642.918 302.632 643.741Z" fill="#EBEBEB"/>
<path d="M775.6 639.489C774.61 639.047 773.8 640.328 774.718 640.77C775.667 641.189 776.447 641.837 776.959 642.632C777.472 643.427 777.694 644.333 777.598 645.235C777.508 646.195 779.254 646.18 779.398 645.235C779.499 644.067 779.193 642.901 778.518 641.879C777.843 640.858 776.828 640.027 775.6 639.489Z" fill="#EBEBEB"/>
<path d="M780.694 637.188C780.172 636.35 778.66 637.081 779.2 637.919C780.429 639.858 780.996 642.048 780.838 644.244C780.838 645.189 782.53 645.189 782.638 644.244C782.788 641.784 782.114 639.338 780.694 637.188Z" fill="#EBEBEB"/>
<path d="M784.744 638.163C783.788 639.592 783.403 641.244 783.646 642.873C783.772 643.817 785.446 643.817 785.446 642.873C785.212 641.507 785.516 640.115 786.31 638.91C786.427 638.734 786.457 638.526 786.393 638.332C786.328 638.138 786.176 637.973 785.968 637.874C785.865 637.825 785.752 637.793 785.635 637.781C785.518 637.769 785.399 637.777 785.285 637.804C785.056 637.858 784.861 637.988 784.744 638.163Z" fill="#EBEBEB"/>
<path d="M428.92 638.667C429.118 638.595 429.339 638.587 429.544 638.644C429.748 638.701 429.92 638.82 430.029 638.977C430.137 639.134 430.174 639.32 430.132 639.498C430.09 639.677 429.973 639.836 429.802 639.947C428.671 640.516 427.745 641.337 427.127 642.32C426.508 643.304 426.219 644.412 426.292 645.525C426.292 646.469 424.6 646.469 424.492 645.525C424.418 644.148 424.792 642.78 425.572 641.571C426.353 640.362 427.511 639.357 428.92 638.667Z" fill="#EBEBEB"/>
<path d="M422.53 642.217C422.728 643.208 422.926 644.198 423.142 645.265C423.358 646.332 421.648 646.591 421.45 645.646L420.856 642.598C420.658 641.668 422.35 641.272 422.53 642.217Z" fill="#EBEBEB"/>
<path d="M127.168 657.351C126.304 656.756 125.062 657.793 125.926 658.402C126.942 659.087 127.748 659.971 128.275 660.976C128.801 661.982 129.033 663.08 128.95 664.178C128.95 665.138 130.642 665.138 130.75 664.178C130.827 662.882 130.543 661.589 129.921 660.403C129.299 659.217 128.356 658.171 127.168 657.351Z" fill="#EBEBEB"/>
<path d="M632.986 648.832C633.85 648.237 635.092 649.274 634.21 649.883C633.2 650.576 632.4 651.463 631.878 652.47C631.355 653.477 631.124 654.576 631.204 655.674C631.204 656.619 629.512 656.619 629.404 655.674C629.324 654.376 629.607 653.079 630.229 651.89C630.851 650.702 631.796 649.654 632.986 648.832Z" fill="#EBEBEB"/>
<path d="M568.33 654.851C567.151 655.865 566.282 657.107 565.799 658.469C565.316 659.832 565.233 661.273 565.558 662.669C565.756 663.599 567.358 663.203 567.232 662.273C566.983 661.131 567.064 659.956 567.469 658.846C567.873 657.737 568.589 656.727 569.554 655.903C570.4 655.232 569.104 654.165 568.33 654.851Z" fill="#EBEBEB"/>
<path d="M561.958 655.659V660.627C561.958 660.829 562.053 661.023 562.222 661.166C562.39 661.309 562.619 661.389 562.858 661.389C563.097 661.389 563.326 661.309 563.494 661.166C563.663 661.023 563.758 660.829 563.758 660.627V655.659C563.758 655.457 563.663 655.263 563.494 655.12C563.326 654.977 563.097 654.897 562.858 654.897C562.619 654.897 562.39 654.977 562.222 655.12C562.053 655.263 561.958 655.457 561.958 655.659Z" fill="#EBEBEB"/>
<path d="M571.3 657.229C570.514 657.659 569.874 658.254 569.441 658.957C569.009 659.659 568.8 660.445 568.834 661.237C568.834 662.197 570.634 662.197 570.634 661.237C570.592 660.701 570.718 660.164 570.999 659.683C571.28 659.201 571.707 658.791 572.236 658.494C573.118 657.976 572.2 656.756 571.3 657.229Z" fill="#EBEBEB"/>
<path d="M386.908 654.242C385.735 655.259 384.87 656.501 384.388 657.862C383.905 659.224 383.819 660.664 384.136 662.06C384.334 662.989 385.936 662.593 385.828 661.664C385.579 660.522 385.66 659.346 386.065 658.237C386.469 657.128 387.184 656.118 388.15 655.293C388.924 654.607 387.7 653.556 386.908 654.242Z" fill="#EBEBEB"/>
<path d="M380.554 655.049V660.017C380.554 660.219 380.649 660.413 380.818 660.556C380.986 660.699 381.215 660.779 381.454 660.779C381.693 660.779 381.922 660.699 382.09 660.556C382.259 660.413 382.354 660.219 382.354 660.017V655.049C382.354 654.847 382.259 654.653 382.09 654.51C381.922 654.367 381.693 654.287 381.454 654.287C381.215 654.287 380.986 654.367 380.818 654.51C380.649 654.653 380.554 654.847 380.554 655.049Z" fill="#EBEBEB"/>
<path d="M389.896 656.619C389.11 657.049 388.469 657.645 388.037 658.347C387.605 659.05 387.396 659.836 387.43 660.627C387.43 660.829 387.525 661.023 387.694 661.166C387.862 661.309 388.091 661.389 388.33 661.389C388.569 661.389 388.798 661.309 388.966 661.166C389.135 661.023 389.23 660.829 389.23 660.627C389.188 660.091 389.314 659.555 389.595 659.073C389.876 658.591 390.303 658.181 390.832 657.884C391.714 657.366 390.832 656.086 389.896 656.619Z" fill="#EBEBEB"/>
<path d="M567.952 274.034L569.554 276.777L573.118 277.219L570.544 279.338L571.156 282.355L567.952 280.938L564.766 282.355L565.378 279.338L562.786 277.219L566.368 276.777L567.952 274.034Z" fill="#DBDBDB"/>
<path d="M766.546 389.965L768.148 392.708L771.712 393.135L769.138 395.268L769.75 398.286L766.546 396.853L763.36 398.286L763.972 395.268L761.398 393.135L764.962 392.708L766.546 389.965Z" fill="#DBDBDB"/>
<path d="M217.942 43.5596L219.544 46.2875L223.108 46.7295L220.534 48.8631L221.146 51.8654L217.942 50.4481L214.756 51.8654L215.368 48.8631L212.776 46.7295L216.358 46.2875L217.942 43.5596Z" fill="#DBDBDB"/>
<path d="M528.172 6.4502L529.774 9.19339L533.338 9.62011L530.764 11.7537L531.358 14.7712L528.172 13.3387L524.986 14.7712L525.598 11.7537L523.006 9.62011L526.57 9.19339L528.172 6.4502Z" fill="#DBDBDB"/>
<path d="M724.84 202.482L726.442 205.226L730.006 205.652L727.432 207.786L728.026 210.803L724.84 209.371L721.654 210.803L722.266 207.786L719.674 205.652L723.256 205.226L724.84 202.482Z" fill="#DBDBDB"/>
<path d="M718.018 535.37L719.602 538.113L723.184 538.555L720.592 540.673L721.204 543.691L718.018 542.273L714.814 543.691L715.426 540.673L712.852 538.555L716.416 538.113L718.018 535.37Z" fill="#DBDBDB"/>
<path d="M271.312 377.209L272.896 379.952L276.478 380.379L273.886 382.512L274.498 385.53L271.312 384.113L268.108 385.53L268.72 382.512L266.146 380.379L269.71 379.952L271.312 377.209Z" fill="#DBDBDB"/>
<path d="M137.068 258.383L138.67 261.126L142.234 261.568L139.66 263.686L140.272 266.704L137.068 265.287L133.882 266.704L134.494 263.686L131.902 261.568L135.484 261.126L137.068 258.383Z" fill="#DBDBDB"/>
<path d="M83.698 432.987L85.3 435.715L88.864 436.157L86.29 438.291L86.884 441.308L83.698 439.876L80.512 441.308L81.106 438.291L78.532 436.157L82.096 435.715L83.698 432.987Z" fill="#DBDBDB"/>
<path d="M20.284 170.829L21.274 172.52L23.488 172.779L21.886 174.105L22.264 175.965L20.284 175.081L18.322 175.965L18.7 174.105L17.098 172.779L19.312 172.52L20.284 170.829Z" fill="#DBDBDB"/>
<path d="M185.272 166.211L186.262 167.903L188.458 168.177L186.874 169.488L187.234 171.347L185.272 170.478L183.292 171.347L183.67 169.488L182.086 168.177L184.282 167.903L185.272 166.211Z" fill="#DBDBDB"/>
<path d="M154.402 273.059L155.392 274.75L157.588 275.025L156.004 276.335L156.382 278.194L154.402 277.311L152.422 278.194L152.8 276.335L151.216 275.025L153.412 274.75L154.402 273.059Z" fill="#DBDBDB"/>
<path d="M548.818 319.022L549.808 320.714L552.004 320.988L550.42 322.299L550.798 324.158L548.818 323.29L546.838 324.158L547.216 322.299L545.632 320.988L547.828 320.714L548.818 319.022Z" fill="#DBDBDB"/>
<path d="M479.752 204.067L480.742 205.759L482.938 206.033L481.336 207.344L481.714 209.203L479.752 208.335L477.772 209.203L478.15 207.344L476.548 206.033L478.762 205.759L479.752 204.067Z" fill="#DBDBDB"/>
<path d="M785.716 438.275L786.688 439.967L788.902 440.241L787.3 441.567L787.678 443.426L785.716 442.543L783.736 443.426L784.114 441.567L782.512 440.241L784.726 439.967L785.716 438.275Z" fill="#DBDBDB"/>
<path d="M214.756 481.435L215.746 483.127L217.942 483.401L216.358 484.727L216.718 486.571L214.756 485.702L212.776 486.571L213.154 484.727L211.57 483.401L213.766 483.127L214.756 481.435Z" fill="#DBDBDB"/>
<path d="M622.33 506.733L623.302 508.425L625.516 508.684L623.914 510.01L624.292 511.869L622.33 510.985L620.35 511.869L620.728 510.01L619.126 508.684L621.34 508.425L622.33 506.733Z" fill="#DBDBDB"/>
<path d="M562.624 29.813L563.596 31.5046L565.81 31.7789L564.208 33.0896L564.586 34.9489L562.624 34.0649L560.644 34.9489L561.022 33.0896L559.42 31.7789L561.634 31.5046L562.624 29.813Z" fill="#DBDBDB"/>
<path d="M261.34 199.907L262.33 201.598L264.526 201.873L262.942 203.183L263.302 205.043L261.34 204.174L259.36 205.043L259.738 203.183L258.154 201.873L260.35 201.598L261.34 199.907Z" fill="#DBDBDB"/>
<path d="M154.402 430.412L155.392 432.103L157.588 432.378L156.004 433.688L156.382 435.547L154.402 434.679L152.422 435.547L152.8 433.688L151.216 432.378L153.412 432.103L154.402 430.412Z" fill="#DBDBDB"/>
<path d="M663.874 336.869L664.864 338.56L667.06 338.835L665.458 340.145L665.836 342.005L663.874 341.121L661.894 342.005L662.272 340.145L660.67 338.835L662.884 338.56L663.874 336.869Z" fill="#DBDBDB"/>
<path d="M669.076 483.858C714.596 483.858 751.498 452.615 751.498 414.074C751.498 375.533 714.596 344.29 669.076 344.29C623.556 344.29 586.654 375.533 586.654 414.074C586.654 452.615 623.556 483.858 669.076 483.858Z" fill="#7474E2"/>
<path opacity="0.7" d="M669.076 483.858C714.596 483.858 751.498 452.615 751.498 414.074C751.498 375.533 714.596 344.29 669.076 344.29C623.556 344.29 586.654 375.533 586.654 414.074C586.654 452.615 623.556 483.858 669.076 483.858Z" fill="white"/>
<path opacity="0.5" d="M666.466 476.497C709.352 476.497 744.118 447.062 744.118 410.752C744.118 374.442 709.352 345.006 666.466 345.006C623.58 345.006 588.814 374.442 588.814 410.752C588.814 447.062 623.58 476.497 666.466 476.497Z" fill="white"/>
<g opacity="0.3">
<path d="M628.612 446.81C628.218 447.661 627.629 448.437 626.878 449.094C626.127 449.75 625.23 450.274 624.238 450.635C623.222 451 622.121 451.162 621.019 451.109C619.917 451.056 618.845 450.79 617.884 450.33C616.136 449.545 614.767 448.268 614.014 446.718C615.584 447.307 617.218 447.767 618.892 448.09C620.205 448.359 621.586 448.269 622.834 447.831C624.158 447.375 625.319 446.634 626.2 445.682C627.219 444.547 628.004 443.274 628.522 441.917C628.939 442.681 629.17 443.507 629.201 444.348C629.232 445.189 629.062 446.026 628.702 446.81" fill="#7474E2"/>
<path d="M615.94 444.92C615.544 444.408 615.291 443.826 615.2 443.218C615.11 442.611 615.184 441.994 615.418 441.415C615.675 440.774 616.088 440.187 616.631 439.691C617.173 439.194 617.834 438.8 618.568 438.534C619.326 438.262 620.149 438.148 620.97 438.201C621.79 438.254 622.584 438.473 623.284 438.839C624.512 439.46 625.399 440.469 625.75 441.643C624.608 441.389 623.448 441.201 622.276 441.08C621.494 440.993 620.7 441.082 619.972 441.339C619.206 441.622 618.51 442.025 617.92 442.527C617.131 443.242 616.464 444.048 615.94 444.92Z" fill="#7474E2"/>
<path d="M727.27 379.586C727.362 380.428 727.249 381.278 726.94 382.082C726.63 382.887 726.13 383.629 725.47 384.265C724.769 384.957 723.911 385.523 722.946 385.929C721.981 386.335 720.929 386.572 719.854 386.627C718.751 386.687 717.646 386.532 716.625 386.172C715.605 385.813 714.695 385.259 713.968 384.554C712.648 383.312 711.867 381.727 711.754 380.058C713.003 381.052 714.359 381.945 715.804 382.725C716.942 383.349 718.284 383.653 719.638 383.594C721.034 383.514 722.384 383.136 723.562 382.497C724.987 381.715 726.241 380.73 727.27 379.586Z" fill="#7474E2"/>
<path d="M714.4 378.915C714.226 378.318 714.216 377.696 714.372 377.096C714.528 376.496 714.846 375.935 715.3 375.455C715.79 374.923 716.407 374.485 717.111 374.17C717.816 373.855 718.591 373.669 719.386 373.627C720.209 373.582 721.033 373.705 721.788 373.987C722.543 374.268 723.207 374.698 723.724 375.242C724.179 375.705 724.521 376.24 724.731 376.815C724.941 377.39 725.015 377.995 724.948 378.595C723.974 378.024 722.951 377.514 721.888 377.071C721.188 376.768 720.404 376.631 719.62 376.675C718.782 376.713 717.962 376.895 717.208 377.208C716.182 377.662 715.236 378.236 714.4 378.915Z" fill="#7474E2"/>
<path d="M657.574 433.444C658.125 433.869 658.569 434.383 658.878 434.957C659.187 435.531 659.356 436.151 659.374 436.782C659.405 437.47 659.273 438.156 658.985 438.8C658.698 439.444 658.261 440.032 657.7 440.531C657.126 441.04 656.422 441.429 655.641 441.67C654.861 441.91 654.026 441.995 653.2 441.918C651.717 441.813 650.323 441.274 649.258 440.394C650.55 440.408 651.841 440.311 653.11 440.104C654.112 439.961 655.033 439.55 655.738 438.931C656.472 438.283 656.993 437.485 657.25 436.614C657.565 435.58 657.675 434.509 657.574 433.444Z" fill="#7474E2"/>
<path d="M650.014 438.671C649.56 438.417 649.181 438.08 648.903 437.684C648.626 437.288 648.458 436.844 648.412 436.385C648.36 435.879 648.438 435.369 648.64 434.89C648.842 434.412 649.163 433.976 649.582 433.612C650.005 433.226 650.532 432.934 651.119 432.761C651.706 432.589 652.334 432.54 652.948 432.621C653.476 432.676 653.986 432.82 654.447 433.045C654.907 433.27 655.31 433.572 655.63 433.932C654.754 434.043 653.888 434.206 653.038 434.419C652.466 434.551 651.949 434.815 651.544 435.181C651.105 435.566 650.762 436.022 650.536 436.522C650.247 437.215 650.071 437.938 650.014 438.671Z" fill="#7474E2"/>
<path d="M706.372 409.959C708.744 410.857 710.832 412.216 712.465 413.927C714.098 415.638 715.23 417.652 715.768 419.804C716.265 417.254 715.994 414.638 714.982 412.199C713.97 409.76 712.249 407.576 709.977 405.849C707.706 404.122 704.957 402.907 701.984 402.316C699.012 401.725 695.912 401.778 692.969 402.469C690.027 403.16 687.338 404.468 685.15 406.271C682.962 408.074 681.346 410.314 680.45 412.786C679.554 415.257 679.408 417.88 680.025 420.411C680.642 422.943 682.002 425.303 683.98 427.272C682.958 424.694 682.843 421.92 683.649 419.287C684.455 416.654 686.146 414.276 688.518 412.443C690.89 410.609 693.84 409.398 697.01 408.957C700.179 408.516 703.432 408.864 706.372 409.959Z" fill="#7474E2"/>
<path d="M723.022 419.835C723.119 423.936 721.71 427.962 718.99 431.356C716.251 434.845 712.46 437.649 708.01 439.479C703.466 441.417 698.222 441.821 693.34 440.607C688.676 439.394 684.635 436.88 681.874 433.475C685.417 435.861 689.573 437.511 694.006 438.291C695.067 438.44 696.136 438.536 697.21 438.58C698.272 438.593 699.332 438.522 700.378 438.367C702.488 438.096 704.535 437.545 706.444 436.736C707.398 436.325 708.388 435.883 709.324 435.41C710.26 434.938 711.124 434.404 712.006 433.81C713.751 432.681 715.339 431.387 716.74 429.954C719.63 426.981 721.769 423.537 723.022 419.835Z" fill="#7474E2"/>
<path d="M629.242 376.203C630.186 376.391 631.064 376.766 631.805 377.295C632.546 377.825 633.13 378.495 633.508 379.251C633.492 378.282 633.187 377.332 632.622 376.49C632.056 375.648 631.248 374.941 630.273 374.434C629.298 373.927 628.187 373.637 627.044 373.591C625.901 373.546 624.763 373.745 623.736 374.171C622.708 374.598 621.825 375.237 621.168 376.03C620.51 376.823 620.101 377.744 619.977 378.707C619.853 379.67 620.018 380.644 620.458 381.539C620.898 382.433 621.597 383.219 622.492 383.823C621.929 382.941 621.675 381.941 621.763 380.941C621.85 379.942 622.274 378.984 622.984 378.182C623.695 377.38 624.662 376.767 625.771 376.417C626.88 376.066 628.085 375.992 629.242 376.203Z" fill="#7474E2"/>
<path d="M636.154 378.809C636.642 380.323 636.522 381.931 635.812 383.381C635.122 384.858 633.964 386.145 632.464 387.099C630.93 388.106 628.994 388.57 627.064 388.395C625.227 388.209 623.529 387.474 622.276 386.322C623.799 386.916 625.459 387.218 627.136 387.206C628.688 387.158 630.182 386.694 631.402 385.88C632.719 385.036 633.819 383.973 634.636 382.758C635.453 381.542 635.969 380.198 636.154 378.809Z" fill="#7474E2"/>
<path d="M655.72 457.112C657.096 457.175 658.435 457.513 659.627 458.099C660.819 458.684 661.83 459.5 662.578 460.48C662.246 459.142 661.522 457.896 660.472 456.857C659.423 455.818 658.082 455.019 656.572 454.534C655.062 454.049 653.433 453.892 651.833 454.08C650.234 454.267 648.716 454.792 647.419 455.607C646.122 456.421 645.087 457.498 644.41 458.739C643.734 459.981 643.436 461.346 643.546 462.71C643.656 464.074 644.169 465.393 645.038 466.545C645.907 467.697 647.104 468.646 648.52 469.304C647.102 467.871 646.387 466.033 646.522 464.168C646.577 463.193 646.859 462.237 647.352 461.354C647.844 460.471 648.538 459.68 649.392 459.024C650.246 458.369 651.245 457.862 652.331 457.534C653.417 457.206 654.569 457.063 655.72 457.112Z" fill="#7474E2"/>
<path d="M666.178 459.291C667.115 461.309 667.303 463.52 666.718 465.631C666.147 467.789 664.904 469.778 663.118 471.392C661.317 473.076 658.826 474.116 656.152 474.302C653.603 474.44 651.072 473.862 648.952 472.657C651.239 473.286 653.669 473.448 656.044 473.129C658.293 472.768 660.341 471.794 661.876 470.355C663.488 468.917 664.716 467.202 665.476 465.326C666.208 463.379 666.448 461.322 666.178 459.291Z" fill="#7474E2"/>
</g>
<path d="M18.754 629.979H118.762L107.044 586.256C95.723 585.797 84.7296 582.89 75.112 577.813L106.09 582.69L91.798 529.258C87.2215 527.451 82.9433 525.146 79.072 522.4L90.79 525.54L88.99 518.423C82.4758 516.025 76.5061 512.683 71.35 508.547L87.784 513.973L68.776 443.244L58.066 483.218L67.678 481.191C64.4191 483.057 60.981 484.689 57.4 486.068L42.046 543.325L53.098 540.932C49.3157 543.069 45.3088 544.905 41.128 546.418L30.508 586.042L52.234 581.47C45.212 585.387 37.5029 588.34 29.392 590.218L27.592 597.122L61 590.112C50.6954 595.882 38.9411 599.535 26.674 600.78L24.028 610.67L35.134 608.323C31.3568 610.458 27.356 612.295 23.182 613.81L18.754 629.979Z" fill="#455A64"/>
<path d="M37.1501 573.408C42.6941 575.191 63.1781 582.263 67.6061 584.32V581.943C62.6741 579.489 57.7061 577.051 52.7561 574.612C47.2638 572.171 41.9283 569.485 36.7721 566.565C36.5201 566.413 36.6641 565.986 36.9881 566.108C42.3925 568.243 47.6187 570.687 52.6301 573.423C57.6701 575.923 62.6561 578.498 67.6241 581.043C67.6241 574.947 67.6241 568.958 67.6241 562.923C59.5272 560.096 51.7034 556.738 44.2241 552.88C43.9541 552.758 44.2241 552.347 44.4221 552.453C52.4121 555.18 60.1497 558.41 67.5701 562.115C67.5701 558.976 67.4621 534.805 68.3801 504.203C63.5201 502.131 58.5161 500.302 53.6561 498.214C53.3501 498.077 53.6561 497.604 53.9081 497.726C58.8401 499.342 63.5741 501.277 68.4161 503.076C68.6861 494.739 69.0461 486.403 69.6581 478.082C69.6581 478.025 69.6846 477.971 69.7319 477.931C69.7791 477.891 69.8432 477.869 69.9101 477.869C69.9769 477.869 70.041 477.891 70.0883 477.931C70.1355 477.971 70.1621 478.025 70.1621 478.082C70.8461 493.551 70.7921 523.512 70.5581 539.042C75.5801 535.644 80.9621 532.626 86.0741 529.334C86.2721 529.197 86.4701 529.487 86.2721 529.608C80.8721 533.068 75.9041 536.878 70.5401 540.276C70.5401 541.16 70.5401 542.029 70.5401 542.898C75.9401 540.795 81.5201 538.829 87.0461 536.802C87.4781 536.634 87.8561 537.167 87.4241 537.35C81.8081 539.621 76.2101 541.922 70.5221 544.102C70.3781 551.722 69.5501 579.474 69.2261 592.87C79.5221 588.47 89.8961 584.183 100.348 580.007C100.427 579.969 100.52 579.958 100.608 579.978C100.696 579.998 100.771 580.047 100.816 580.114C100.861 580.18 100.874 580.26 100.85 580.334C100.826 580.408 100.769 580.472 100.69 580.51C90.4832 585.453 79.9678 589.925 69.1901 593.906C68.9201 605.031 68.6501 618.29 68.4701 629.369C68.445 629.494 68.369 629.606 68.2553 629.687C68.1417 629.769 67.9978 629.813 67.8491 629.813C67.7004 629.813 67.5565 629.769 67.4428 629.687C67.3292 629.606 67.2531 629.494 67.2281 629.369C67.4261 615.166 67.4441 598.889 67.4981 584.701C62.0981 583.573 41.5421 576.121 36.6641 574.033C36.2681 573.972 36.6281 573.241 37.1501 573.408Z" fill="#37474F"/>
<path d="M625.426 629.979H725.416L713.716 586.256C702.389 585.797 691.39 582.891 681.766 577.813L712.762 582.69L698.47 529.258C693.891 527.454 689.613 525.149 685.744 522.4L697.462 525.54L695.554 518.423C689.048 516.021 683.085 512.679 677.932 508.547L694.366 513.973L675.43 443.244L664.738 483.218L674.35 481.191C671.065 483.056 667.603 484.687 664 486.068L648.646 543.325L659.788 540.978C656.006 543.114 651.999 544.951 647.818 546.464L637.18 586.088L658.906 581.516C651.886 585.437 644.177 588.389 636.064 590.264L634.264 597.168L667.6 590.112C657.295 595.882 645.541 599.535 633.274 600.78L630.628 610.67L641.734 608.323C637.96 610.462 633.958 612.299 629.782 613.81L625.426 629.979Z" fill="#455A64"/>
<path d="M643.822 573.408C649.348 575.191 669.832 582.263 674.26 584.32C674.26 583.528 674.26 582.796 674.26 581.943L659.41 574.612C653.914 572.168 648.573 569.482 643.408 566.566C643.174 566.413 643.3 565.986 643.642 566.108C649.045 568.246 654.27 570.69 659.284 573.424C664.324 575.923 669.292 578.499 674.26 581.044C674.26 574.948 674.29 568.907 674.35 562.923C666.257 560.09 658.433 556.732 650.95 552.88C650.698 552.758 650.86 552.347 651.166 552.453C659.156 555.18 666.894 558.41 674.314 562.116C674.314 558.976 674.188 534.805 675.106 504.204C670.264 502.131 665.26 500.302 660.4 498.214C660.076 498.077 660.31 497.605 660.652 497.727C665.566 499.342 670.318 501.277 675.16 503.076C675.412 494.74 675.79 486.403 676.384 478.082C676.399 478.033 676.433 477.99 676.48 477.96C676.528 477.929 676.585 477.912 676.645 477.912C676.705 477.912 676.763 477.929 676.81 477.96C676.857 477.99 676.891 478.033 676.906 478.082C677.572 493.551 677.518 523.513 677.302 539.042C682.324 535.644 687.688 532.626 692.818 529.334C693.016 529.197 693.196 529.487 693.016 529.609C687.616 533.068 682.648 536.878 677.266 540.277C677.266 541.161 677.266 542.029 677.266 542.898C682.666 540.795 688.264 538.829 693.772 536.802C694.204 536.634 694.6 537.168 694.15 537.351C688.534 539.621 682.936 541.923 677.248 544.102C677.122 551.722 676.294 579.474 675.952 592.87C686.248 588.471 696.628 584.183 707.092 580.007C707.171 579.969 707.264 579.959 707.352 579.979C707.44 579.999 707.515 580.047 707.56 580.114C707.605 580.181 707.618 580.26 707.594 580.334C707.57 580.408 707.513 580.472 707.434 580.51C697.227 585.453 686.712 589.925 675.934 593.906C675.646 605.031 675.376 618.29 675.214 629.37C675.189 629.494 675.113 629.606 674.999 629.687C674.886 629.769 674.742 629.813 674.593 629.813C674.444 629.813 674.3 629.769 674.187 629.687C674.073 629.606 673.997 629.494 673.972 629.37C674.152 615.166 674.188 598.89 674.224 584.701C668.824 583.573 648.268 576.121 643.408 574.033C642.94 573.972 643.3 573.241 643.822 573.408Z" fill="#37474F"/>
<path d="M266.2 629.979H366.19L354.4 586.256C343.073 585.799 332.073 582.893 322.45 577.813L353.446 582.69L339.046 529.258C334.47 527.451 330.191 525.146 326.32 522.4L338.2 525.54L336.4 518.423C329.891 516.018 323.922 512.677 318.76 508.547L335.212 513.973L316.15 443.244L305.458 483.218L315.052 481.191C311.764 483.056 308.295 484.682 304.684 486.053L289.348 543.31L300.4 540.932C296.626 543.071 292.625 544.908 288.448 546.418L277.81 586.042L299.536 581.47C292.517 585.391 284.807 588.344 276.694 590.218L274.894 597.122L308.266 590.066C297.961 595.837 286.207 599.49 273.94 600.734L271.294 610.625L282.4 608.278C278.623 610.412 274.622 612.249 270.448 613.764L266.2 629.979Z" fill="#455A64"/>
<path d="M284.542 573.408C290.068 575.191 310.552 582.263 314.98 584.32C314.98 583.528 314.98 582.796 314.98 581.943L300.112 574.612C294.622 572.168 289.287 569.482 284.128 566.565C283.876 566.413 284.02 565.986 284.362 566.108C289.763 568.249 294.988 570.693 300.004 573.423C305.026 575.923 310.012 578.498 314.98 581.043C314.98 574.947 314.98 568.958 314.98 562.923C306.885 560.093 299.061 556.735 291.58 552.88C291.328 552.758 291.49 552.347 291.796 552.453C299.779 555.183 307.51 558.413 314.926 562.115C314.926 558.976 314.818 534.805 315.736 504.203C310.876 502.131 305.872 500.302 301.03 498.214C300.706 498.077 300.922 497.604 301.264 497.726C306.196 499.342 310.948 501.277 315.772 503.076C316.042 494.739 316.42 486.403 317.014 478.082C317.014 478.025 317.041 477.971 317.088 477.931C317.135 477.891 317.199 477.869 317.266 477.869C317.333 477.869 317.397 477.891 317.444 477.931C317.491 477.971 317.518 478.025 317.518 478.082C318.202 493.551 318.148 523.512 317.914 539.042C322.954 535.644 328.318 532.626 333.43 529.334C333.628 529.197 333.826 529.487 333.628 529.608C328.228 533.068 323.278 536.878 317.896 540.276C317.896 541.16 317.896 542.029 317.896 542.898C323.296 540.795 328.894 538.829 334.402 536.802C334.834 536.634 335.212 537.167 334.78 537.35C329.164 539.621 323.566 541.922 317.878 544.102C317.752 551.722 316.924 579.474 316.582 592.87C326.878 588.47 337.252 584.183 347.704 580.007C348.1 579.84 348.46 580.312 348.064 580.51C337.855 585.45 327.34 589.922 316.564 593.906C316.276 605.031 316.006 618.29 315.844 629.369C315.819 629.494 315.743 629.606 315.629 629.687C315.516 629.769 315.372 629.813 315.223 629.813C315.074 629.813 314.93 629.769 314.817 629.687C314.703 629.606 314.627 629.494 314.602 629.369C314.782 615.166 314.8 598.889 314.854 584.701C309.454 583.573 288.898 576.121 284.02 574.033C283.66 573.972 284.002 573.241 284.542 573.408Z" fill="#37474F"/>
<path d="M623.302 629.979H515.608L520.864 605.992C543.436 604.757 561.022 591.803 561.022 591.803L521.8 601.892L536.2 535.766C542.051 533.453 547.541 530.535 552.544 527.079L537.226 531.026L539.602 520.251C548.011 517.675 555.849 513.919 562.786 509.141L540.79 514.811L554.524 452.189C557.431 450.697 560.204 449.027 562.822 447.191L555.19 449.157L569.428 384.173L589.822 477.29L572.2 470.157C577.52 475.453 583.96 479.862 591.19 483.157L610.396 570.848L580.606 561.11C589.082 568.43 599.795 573.612 611.548 576.075L613.528 585.037L597.49 581.989C602.633 585.452 608.417 588.171 614.608 590.035L623.302 629.979Z" fill="#37474F"/>
<path d="M605.302 550.076C598.858 552.164 575.962 560.012 570.796 562.405V559.647C576.538 556.781 582.316 553.947 588.094 551.097C594.286 548.049 598.408 546.952 604.186 543.355C604.456 543.187 604.312 542.7 603.916 542.837C598.48 544.772 593.237 547.076 588.238 549.725C582.37 552.636 576.574 555.638 570.778 558.656C570.778 551.625 570.778 544.595 570.778 537.564C580.18 534.261 589.267 530.347 597.958 525.859C598.264 525.722 598.066 525.25 597.724 525.372C588.405 528.545 579.38 532.305 570.724 536.619C570.724 532.961 570.724 529.319 570.724 525.661C570.49 506.825 570.436 487.988 569.878 469.151C575.53 466.743 581.362 464.579 587.014 462.187C587.392 462.019 587.122 461.47 586.726 461.608C580.984 463.497 575.458 465.753 569.824 467.841C569.518 458.133 569.086 448.425 568.384 438.732C568.368 438.676 568.329 438.626 568.276 438.591C568.222 438.555 568.155 438.536 568.087 438.536C568.019 438.536 567.952 438.555 567.898 438.591C567.845 438.626 567.806 438.676 567.79 438.732C566.998 456.761 567.07 474.805 567.34 492.85C561.472 488.902 555.226 485.397 549.34 481.557C549.106 481.404 548.872 481.74 549.106 481.877C555.334 485.9 561.184 490.35 567.43 494.358V497.406C561.058 494.953 554.614 492.667 548.206 490.335C547.702 490.152 547.252 490.762 547.756 490.975C554.308 493.627 560.824 496.34 567.448 498.839C567.592 507.785 567.772 516.715 567.916 525.661C568.15 541.267 568.564 556.873 568.96 572.479C556.96 567.338 544.876 562.339 532.708 557.482C532.24 557.3 531.826 557.863 532.294 558.077C544.179 563.838 556.425 569.048 568.978 573.683C569.302 586.652 569.626 616.355 569.824 629.4C569.824 629.562 569.9 629.717 570.035 629.831C570.17 629.945 570.353 630.01 570.544 630.01C570.735 630.01 570.918 629.945 571.053 629.831C571.188 629.717 571.264 629.562 571.264 629.4C571.048 612.849 571.012 579.504 570.976 562.969C577.294 561.643 600.226 553.352 605.914 550.99C606.4 550.731 605.914 549.862 605.302 550.076Z" fill="#455A64"/>
<path d="M787.246 629.979H708.658L717.856 595.613C726.751 595.252 735.389 592.97 742.948 588.984L718.594 592.748L729.826 550.762C733.427 549.343 736.792 547.529 739.834 545.367L730.6 547.897L732.076 542.289C737.199 540.414 741.892 537.788 745.936 534.531L733.03 538.799L747.898 483.218L756.304 514.628L748.762 513.028C751.337 514.501 754.059 515.781 756.898 516.853L768.958 561.872L760.21 560.013C763.183 561.695 766.335 563.138 769.624 564.326L777.976 595.491L760.894 591.895C766.429 594.975 772.504 597.294 778.894 598.768L780.334 604.178L754.108 598.646C762.221 603.161 771.466 606.01 781.108 606.967L783.178 614.739L774.448 612.895C777.413 614.58 780.559 616.024 783.844 617.208L787.246 629.979Z" fill="#37474F"/>
<path d="M772.774 585.509C768.436 586.926 752.326 592.474 748.852 594.089V592.23C752.722 590.294 756.628 588.374 760.516 586.454C764.849 584.542 769.056 582.431 773.116 580.129C773.296 580.023 773.116 579.687 772.936 579.779C768.689 581.456 764.582 583.375 760.642 585.524C756.682 587.49 752.758 589.517 748.852 591.62C748.852 586.881 748.852 582.126 748.852 577.386C755.203 575.16 761.342 572.52 767.212 569.492C767.41 569.385 767.212 569.08 767.05 569.156C760.769 571.31 754.686 573.857 748.852 576.776C748.852 574.308 748.942 555.319 748.222 531.255C752.038 529.624 755.962 528.207 759.778 526.545C760.03 526.439 759.778 526.073 759.598 526.149C755.728 527.429 751.984 528.953 748.186 530.371C747.988 523.818 747.682 517.264 747.214 510.711C747.214 510.667 747.193 510.624 747.156 510.593C747.119 510.561 747.069 510.543 747.016 510.543C746.964 510.543 746.913 510.561 746.876 510.593C746.839 510.624 746.818 510.667 746.818 510.711C746.278 522.903 746.332 546.434 746.512 558.61C742.552 555.928 738.34 553.566 734.308 550.99C734.146 550.899 734.002 551.112 734.164 551.219C738.358 553.932 742.3 556.934 746.53 559.631C746.53 560.317 746.53 561.003 746.53 561.689C742.246 560.043 737.89 558.488 733.57 556.919C733.228 556.797 732.922 557.208 733.264 557.345C737.674 559.144 742.084 560.973 746.548 562.664C746.656 568.76 747.304 590.462 747.574 600.993C739.474 597.518 731.32 594.145 723.112 590.873C722.788 590.752 722.518 591.117 722.824 591.27C730.848 595.158 739.116 598.674 747.592 601.801C747.808 610.548 748.024 620.927 748.15 629.675C748.15 629.784 748.201 629.888 748.292 629.966C748.383 630.043 748.507 630.086 748.636 630.086C748.765 630.086 748.889 630.043 748.98 629.966C749.071 629.888 749.122 629.784 749.122 629.675C748.978 618.519 748.96 605.733 748.924 594.623C757.17 592.205 765.257 589.417 773.152 586.271C773.476 585.951 773.206 585.372 772.774 585.509Z" fill="#455A64"/>
<path d="M172.6 629.979H64.978L70.234 605.992C92.806 604.757 110.392 591.803 110.392 591.803L71.134 601.892L85.624 535.766C91.4753 533.453 96.9652 530.535 101.968 527.079L86.65 531.026L89.008 520.251C97.4241 517.677 105.268 513.922 112.21 509.141L90.214 514.811L103.93 452.189C106.84 450.695 109.62 449.024 112.246 447.191L104.596 449.157L118.834 384.173L139.228 477.29L121.516 470.112C126.832 475.411 133.273 479.82 140.506 483.111L159.712 570.802L129.922 561.064C138.398 568.385 149.111 573.566 160.864 576.03L162.844 584.991L146.806 581.943C151.945 585.402 157.723 588.121 163.906 589.99L172.6 629.979Z" fill="#37474F"/>
<path d="M154.6 550.076C148.156 552.164 125.242 560.012 120.094 562.405C120.094 561.491 120.094 560.576 120.094 559.647C125.854 556.781 131.632 553.947 137.41 551.097C143.602 548.049 147.724 546.952 153.484 543.355C153.772 543.187 153.61 542.7 153.232 542.837C147.794 544.769 142.551 547.073 137.554 549.725C131.686 552.636 125.872 555.638 120.094 558.656C120.094 551.625 120.058 544.595 119.986 537.564C129.396 534.264 138.489 530.351 147.184 525.859C147.472 525.722 147.184 525.25 146.932 525.372C137.611 528.542 128.586 532.301 119.932 536.619C119.932 532.961 119.932 529.319 119.932 525.661C119.698 506.825 119.644 487.988 119.086 469.151C124.738 466.743 130.57 464.579 136.222 462.187C136.582 462.019 136.33 461.47 135.934 461.608C130.192 463.497 124.666 465.753 119.032 467.841C118.726 458.133 118.294 448.425 117.592 438.732C117.576 438.676 117.537 438.626 117.484 438.591C117.43 438.555 117.363 438.536 117.295 438.536C117.227 438.536 117.16 438.555 117.106 438.591C117.053 438.626 117.014 438.676 116.998 438.732C116.206 456.761 116.278 474.805 116.548 492.85C110.68 488.902 104.434 485.397 98.458 481.557C98.242 481.404 98.008 481.74 98.242 481.877C104.47 485.9 110.302 490.35 116.566 494.358C116.566 495.379 116.566 496.385 116.566 497.406C110.212 494.953 103.768 492.667 97.342 490.335C96.838 490.152 96.388 490.762 96.91 490.975C103.444 493.627 109.978 496.34 116.602 498.839C116.746 507.785 116.926 516.715 117.07 525.661C117.304 541.267 117.7 556.873 118.096 572.479C106.096 567.338 94.012 562.339 81.844 557.482C81.394 557.3 80.98 557.863 81.448 558.077C93.3326 563.838 105.579 569.048 118.132 573.683C118.456 586.652 118.78 616.355 118.978 629.4C118.978 629.562 119.054 629.717 119.189 629.831C119.324 629.945 119.507 630.01 119.698 630.01C119.889 630.01 120.072 629.945 120.207 629.831C120.342 629.717 120.418 629.562 120.418 629.4C120.202 612.849 120.166 579.504 120.112 562.969C126.448 561.643 149.38 553.352 155.068 550.99C155.698 550.731 155.284 549.862 154.6 550.076Z" fill="#455A64"/>
<path d="M239.542 629.979H160.936L170.134 595.613C179.066 595.267 187.743 592.984 195.334 588.984L170.89 592.748L182.122 550.762C185.723 549.343 189.088 547.529 192.13 545.367L182.914 547.836L184.408 542.227C189.531 540.353 194.224 537.727 198.268 534.47L185.344 538.738L200.23 483.157L208.6 514.628L201.04 513.028C203.623 514.499 206.351 515.779 209.194 516.853L221.254 561.872L212.506 560.013C215.476 561.699 218.628 563.143 221.92 564.325L230.272 595.491L213.19 591.895C218.725 594.975 224.8 597.294 231.19 598.768L232.63 604.178L206.404 598.646C214.516 603.161 223.762 606.01 233.404 606.967L235.492 614.739L226.762 612.895C229.727 614.58 232.873 616.024 236.158 617.208L239.542 629.979Z" fill="#455A64"/>
<path d="M225.07 585.509C220.732 586.926 204.622 592.474 201.148 594.089C201.148 593.464 201.148 592.855 201.148 592.23L212.83 586.454C217.164 584.542 221.37 582.431 225.43 580.129C225.628 580.023 225.52 579.687 225.25 579.779C221.007 581.462 216.9 583.382 212.956 585.524C209.014 587.49 205.09 589.517 201.184 591.62C201.184 586.881 201.184 582.126 201.184 577.386C207.488 575.134 213.578 572.475 219.4 569.431C219.598 569.324 219.4 569.019 219.238 569.095C212.955 571.246 206.872 573.794 201.04 576.715C201.04 574.247 201.13 555.258 200.41 531.194C204.226 529.563 208.15 528.146 211.966 526.484C212.218 526.378 211.966 526.012 211.786 526.088C207.898 527.368 204.172 528.892 200.374 530.31C200.176 523.756 199.87 517.203 199.402 510.65C199.402 510.606 199.381 510.563 199.344 510.532C199.307 510.5 199.256 510.482 199.204 510.482C199.151 510.482 199.101 510.5 199.064 510.532C199.027 510.563 199.006 510.606 199.006 510.65C198.466 522.842 198.52 546.373 198.7 558.549C194.74 555.867 190.528 553.505 186.496 550.929C186.334 550.838 186.19 551.051 186.334 551.158C190.546 553.871 194.488 556.873 198.7 559.57C198.7 560.256 198.7 560.942 198.7 561.628C194.416 559.982 190.06 558.427 185.722 556.858C185.38 556.736 185.092 557.147 185.434 557.284C189.844 559.083 194.254 560.912 198.718 562.603C198.826 568.699 199.474 590.401 199.726 600.932C191.65 597.457 183.496 594.084 175.264 590.812C174.958 590.691 174.688 591.056 174.994 591.209C183.018 595.097 191.286 598.613 199.762 601.74C199.978 610.487 200.194 620.866 200.32 629.614C200.32 629.723 200.371 629.827 200.462 629.904C200.553 629.982 200.677 630.025 200.806 630.025C200.935 630.025 201.058 629.982 201.15 629.904C201.241 629.827 201.292 629.723 201.292 629.614C201.148 618.458 201.13 605.671 201.094 594.562C209.34 592.144 217.427 589.356 225.322 586.21C225.772 585.951 225.484 585.372 225.07 585.509Z" fill="#37474F"/>
<path d="M542.824 629.979H464.2L473.398 595.613C482.298 595.25 490.941 592.968 498.508 588.984L474.19 592.748L485.422 550.762C489.021 549.34 492.385 547.526 495.43 545.367L486.214 547.836L487.708 542.227C492.829 540.349 497.521 537.724 501.568 534.47L488.644 538.738L503.512 483.157L511.936 514.567L504.376 512.967C506.959 514.438 509.687 515.718 512.53 516.792L524.59 561.811L515.842 559.952C518.807 561.636 521.953 563.08 525.238 564.265L533.59 595.43L516.526 591.834C522.01 594.955 528.042 597.321 534.4 598.844L535.84 604.254L509.614 598.722C517.729 603.234 526.973 606.083 536.614 607.043L538.702 614.816L529.972 612.972C532.932 614.654 536.072 616.098 539.35 617.284L542.824 629.979Z" fill="#37474F"/>
<path d="M528.37 585.509C524.014 586.926 507.922 592.474 504.448 594.089C504.448 593.464 504.448 592.855 504.448 592.23L516.13 586.454C520.461 584.539 524.667 582.428 528.73 580.129C528.928 580.023 528.82 579.687 528.55 579.779C524.305 581.459 520.198 583.379 516.256 585.524C512.296 587.49 508.39 589.517 504.484 591.62C504.484 586.881 504.484 582.126 504.484 577.386C510.831 575.163 516.964 572.523 522.826 569.492C523.024 569.385 522.826 569.08 522.664 569.157C516.387 571.308 510.31 573.855 504.484 576.777C504.484 574.308 504.574 555.319 503.836 531.255C507.652 529.624 511.594 528.207 515.41 526.546C515.472 526.523 515.521 526.481 515.546 526.428C515.572 526.375 515.571 526.316 515.545 526.264C515.519 526.211 515.469 526.17 515.406 526.148C515.344 526.127 515.274 526.127 515.212 526.149C511.342 527.429 507.616 528.953 503.818 530.371C503.602 523.818 503.314 517.264 502.846 510.711C502.833 510.673 502.805 510.64 502.768 510.617C502.731 510.593 502.686 510.581 502.639 510.581C502.592 510.581 502.547 510.593 502.51 510.617C502.473 510.64 502.445 510.673 502.432 510.711C501.91 522.903 501.946 546.434 502.126 558.611C498.166 555.928 493.954 553.566 489.94 550.991C489.778 550.899 489.616 551.112 489.778 551.219C493.99 553.932 497.932 556.934 502.144 559.632C502.144 560.317 502.144 561.003 502.144 561.689C497.842 560.043 493.504 558.489 489.166 556.919C488.824 556.797 488.518 557.208 488.86 557.346C493.288 559.144 497.68 560.973 502.162 562.664C502.162 568.76 502.9 590.462 503.17 600.993C495.07 597.518 486.916 594.145 478.708 590.874C478.402 590.752 478.114 591.117 478.438 591.27C486.454 595.161 494.716 598.677 503.188 601.801C503.404 610.548 503.62 620.927 503.764 629.675C503.764 629.784 503.815 629.888 503.906 629.966C503.997 630.043 504.121 630.086 504.25 630.086C504.379 630.086 504.502 630.043 504.594 629.966C504.685 629.888 504.736 629.784 504.736 629.675C504.592 618.519 504.574 605.733 504.538 594.623C512.784 592.205 520.871 589.418 528.766 586.271C529 585.951 528.784 585.372 528.37 585.509Z" fill="#455A64"/>
<path d="M527.992 77.8342C527.992 118.982 468.7 152.343 403.036 152.388C337.372 152.434 277.99 119.135 277.954 78.0019C277.918 36.8691 337.228 0.902697 402.892 0.856977C468.556 0.811257 527.938 36.7015 527.992 77.8342Z" fill="#7474E2"/>
<path opacity="0.8" d="M527.992 77.8342C527.992 118.982 468.7 152.343 403.036 152.388C337.372 152.434 277.99 119.135 277.954 78.0019C277.918 36.8691 337.228 0.902697 402.892 0.856977C468.556 0.811257 527.938 36.7015 527.992 77.8342Z" fill="white"/>
<path d="M527.992 77.8343C527.771 89.849 523.008 101.488 514.402 111.042C505.858 120.572 495.163 128.57 482.938 134.573C458.402 146.603 430.506 152.845 402.154 152.647C374.02 152.526 345.652 146.551 321.424 134.161C309.196 128.067 298.558 119.932 290.158 110.25C282.004 100.496 276.802 88.6242 277.342 76.5084C277.578 70.4798 278.995 64.5263 281.536 58.891C284.132 53.2957 287.594 48.0172 291.832 43.1938C300.389 33.6221 311.025 25.5218 323.17 19.328C347.46 6.90643 375.337 0.418549 403.713 0.582627C432.089 0.746704 459.859 7.55634 483.946 20.2576C495.912 26.588 506.321 34.816 514.6 44.4892C523.009 54.1735 527.685 65.8176 527.992 77.8343ZM527.992 77.8343C527.668 65.8436 522.992 54.2281 514.6 44.5654C506.266 34.9418 495.822 26.7666 483.838 20.4862C459.802 7.92882 432.133 1.24295 403.89 1.16764C375.647 1.09234 347.929 7.63052 323.8 20.0595C311.807 26.2354 301.312 34.2884 292.876 43.7882C288.684 48.5662 285.269 53.7997 282.724 59.3482C280.267 64.8768 278.905 70.7109 278.692 76.6151C278.098 88.4566 283.12 100.115 291.112 109.747C299.41 119.329 309.918 127.385 322 133.43C345.976 145.835 374.2 151.855 402.226 152.084C430.479 152.37 458.307 146.239 482.812 134.329C495.039 128.389 505.748 120.447 514.312 110.966C522.94 101.445 527.735 89.8328 527.992 77.8343Z" fill="#263238"/>
<path d="M467.685 27.6289C469.588 20.098 459.256 11.8412 444.606 9.18665C429.957 6.53214 416.538 10.4852 414.634 18.016C412.73 25.5469 423.063 33.8038 437.713 36.4583C452.362 39.1128 465.781 35.1597 467.685 27.6289Z" fill="white"/>
<path d="M491.2 44.611C488.734 47.5066 483.046 47.659 478.492 44.8701C473.938 42.0811 472.246 37.5244 474.712 34.6288C477.178 31.7332 482.866 31.5808 487.42 34.3697C491.974 37.1586 493.648 41.7154 491.2 44.611Z" fill="white"/>
<path d="M403 167.278C587.925 167.278 737.836 142.517 737.836 111.972C737.836 81.4273 587.925 56.666 403 56.666C218.075 56.666 68.1641 81.4273 68.1641 111.972C68.1641 142.517 218.075 167.278 403 167.278Z" fill="#7474E2"/>
<path opacity="0.3" d="M403 167.278C587.925 167.278 737.836 142.517 737.836 111.972C737.836 81.4273 587.925 56.666 403 56.666C218.075 56.666 68.1641 81.4273 68.1641 111.972C68.1641 142.517 218.075 167.278 403 167.278Z" fill="black"/>
<path d="M403 170.646C587.925 170.646 737.836 145.885 737.836 115.34C737.836 84.7955 587.925 60.0342 403 60.0342C218.075 60.0342 68.1641 84.7955 68.1641 115.34C68.1641 145.885 218.075 170.646 403 170.646Z" fill="#7474E2"/>
<g opacity="0.4">
<path d="M245.554 79.8462C256.588 81.4921 265.444 83.3057 273.778 85.165C280.972 86.675 288.024 88.6362 294.874 91.0324C283.84 89.3864 274.984 87.5729 266.65 85.7136C259.458 84.1964 252.408 82.2353 245.554 79.8462Z" fill="white"/>
<path d="M131.2 95.1167C147.076 95.8177 161.674 96.8083 175.966 97.8599C190.258 98.9115 204.028 100.085 216.628 101.533C200.752 100.832 186.154 99.8563 171.862 98.7895C157.57 97.7227 143.8 96.5493 131.2 95.1167Z" fill="white"/>
<path d="M90.1061 115.813C106.54 115.371 122.974 115.264 139.426 115.233C155.878 115.203 172.294 115.325 188.728 115.736C172.294 116.178 155.86 116.285 139.426 116.315C122.992 116.346 106.54 116.224 90.1061 115.813Z" fill="white"/>
<path d="M133.126 136.371C145.726 134.847 159.604 133.75 173.77 132.637C187.936 131.525 202.57 130.549 218.536 129.833C205.936 131.357 192.058 132.47 177.892 133.567C163.726 134.664 148.984 135.655 133.126 136.371Z" fill="white"/>
<path d="M248.794 151.306C255.619 148.915 262.64 146.944 269.8 145.408C278.134 143.549 286.972 141.72 298.024 140.059C291.198 142.458 284.17 144.424 277 145.942C268.666 147.816 259.828 149.645 248.794 151.306Z" fill="white"/>
<path d="M402.46 163.133C400.336 154.847 400.336 146.272 402.46 137.987C404.584 146.272 404.584 154.847 402.46 163.133Z" fill="white"/>
<path d="M402.388 93.1353C401.269 89.0126 400.731 84.7921 400.786 80.5623C400.716 76.3326 401.248 72.1112 402.37 67.9893C403.507 72.1093 404.045 76.3316 403.972 80.5623C404.042 84.7919 403.51 89.0133 402.388 93.1353Z" fill="white"/>
<path d="M562.93 150.788C551.896 149.127 543.04 147.313 534.706 145.469C527.514 143.952 520.464 141.991 513.61 139.602C524.662 141.248 533.5 143.062 541.834 144.921C549.027 146.436 556.078 148.397 562.93 150.788Z" fill="white"/>
<path d="M677.23 135.548C661.372 134.847 646.774 133.857 632.464 132.805C618.154 131.754 604.42 130.565 591.82 129.132C607.678 129.818 622.276 130.809 636.586 131.86C650.896 132.912 664.612 134.131 677.23 135.548Z" fill="white"/>
<path d="M718.378 114.883C701.944 115.325 685.51 115.431 669.076 115.462C652.642 115.492 636.19 115.371 619.756 114.959C636.19 114.517 652.624 114.41 669.076 114.38C685.528 114.349 701.944 114.471 718.378 114.883Z" fill="white"/>
<path d="M675.358 94.4004C662.758 95.9244 648.88 97.0217 634.714 98.1342C620.548 99.2467 605.824 100.207 589.948 100.938C602.548 99.4144 616.426 98.3018 630.592 97.2045C644.758 96.1073 659.5 95.0405 675.358 94.4004Z" fill="white"/>
<path d="M559.69 79.3887C552.841 81.7746 545.797 83.7355 538.612 85.2561C530.296 87.1153 521.44 88.9442 510.388 90.6053C517.241 88.2069 524.292 86.2357 531.484 84.7074C539.8 82.8786 548.674 81.0498 559.69 79.3887Z" fill="white"/>
</g>
<path d="M731.932 108.36C731.397 108.276 730.902 108.065 730.504 107.751C730.106 107.437 729.821 107.033 729.684 106.588C729.547 106.142 729.563 105.672 729.73 105.234C729.897 104.796 730.208 104.407 730.626 104.113C731.045 103.818 731.554 103.631 732.094 103.573C732.633 103.515 733.181 103.589 733.673 103.785C734.166 103.981 734.581 104.292 734.872 104.681C735.163 105.071 735.317 105.522 735.316 105.982C735.234 106.676 734.833 107.314 734.2 107.759C733.566 108.203 732.752 108.419 731.932 108.36Z" fill="#7474E2"/>
<path d="M74.0501 108.833C73.5176 108.746 73.0251 108.533 72.63 108.219C72.2348 107.904 71.9533 107.501 71.8183 107.056C71.6833 106.612 71.7002 106.144 71.8672 105.707C72.0341 105.27 72.3443 104.882 72.7614 104.589C73.1785 104.296 73.6855 104.109 74.2233 104.05C74.7611 103.991 75.3076 104.063 75.7991 104.257C76.2907 104.451 76.707 104.759 76.9996 105.145C77.2923 105.532 77.4492 105.981 77.4521 106.44C77.3745 107.139 76.9729 107.783 76.3352 108.232C75.6975 108.68 74.8757 108.896 74.0501 108.833Z" fill="#7474E2"/>
<path d="M126.916 85.6678C126.501 85.737 126.074 85.7275 125.664 85.6401C125.254 85.5527 124.872 85.3894 124.545 85.1621C124.219 84.9348 123.956 84.649 123.775 84.3254C123.594 84.0018 123.501 83.6483 123.501 83.2903C123.501 82.9324 123.594 82.5789 123.775 82.2553C123.956 81.9317 124.219 81.6459 124.545 81.4186C124.872 81.1913 125.254 81.028 125.664 80.9406C126.074 80.8532 126.501 80.8437 126.916 80.9129C127.331 80.8437 127.759 80.8532 128.169 80.9406C128.578 81.028 128.96 81.1913 129.287 81.4186C129.614 81.6459 129.877 81.9317 130.057 82.2553C130.238 82.5789 130.331 82.9324 130.331 83.2903C130.331 83.6483 130.238 84.0018 130.057 84.3254C129.877 84.649 129.614 84.9348 129.287 85.1621C128.96 85.3894 128.578 85.5527 128.169 85.6401C127.759 85.7275 127.331 85.737 126.916 85.6678Z" fill="#7474E2"/>
<path d="M242.062 68.0806C241.528 67.9967 241.033 67.7858 240.635 67.4727C240.237 67.1595 239.953 66.757 239.815 66.3121C239.678 65.8672 239.693 65.3983 239.858 64.9602C240.023 64.5221 240.333 64.133 240.75 63.8382C241.166 63.5434 241.674 63.3551 242.212 63.2954C242.751 63.2357 243.299 63.307 243.791 63.501C244.284 63.695 244.701 64.0036 244.994 64.3909C245.287 64.7781 245.444 65.228 245.446 65.6879C245.364 66.3823 244.963 67.0217 244.331 67.469C243.698 67.9163 242.884 68.1359 242.062 68.0806Z" fill="#7474E2"/>
<path d="M400.138 61.4361C399.604 61.3522 399.109 61.1413 398.711 60.8281C398.313 60.515 398.029 60.1124 397.891 59.6675C397.754 59.2226 397.769 58.7537 397.934 58.3157C398.099 57.8776 398.409 57.4884 398.826 57.1936C399.243 56.8988 399.75 56.7106 400.289 56.6509C400.827 56.5912 401.375 56.6625 401.867 56.8565C402.36 57.0504 402.777 57.3591 403.07 57.7463C403.363 58.1336 403.52 58.5835 403.522 59.0434C403.44 59.7377 403.04 60.3772 402.407 60.8245C401.774 61.2718 400.96 61.4914 400.138 61.4361Z" fill="#7474E2"/>
<path d="M559.42 67.5167C558.887 67.43 558.395 67.2171 558 66.9026C557.605 66.5882 557.323 66.1851 557.188 65.7405C557.053 65.2958 557.07 64.8278 557.237 64.391C557.404 63.9541 557.714 63.5665 558.131 63.2731C558.548 62.9797 559.055 62.7927 559.593 62.7339C560.131 62.675 560.678 62.7467 561.169 62.9407C561.661 63.1346 562.077 63.4428 562.37 63.8293C562.662 64.2159 562.819 64.6649 562.822 65.124C562.744 65.8228 562.343 66.4671 561.705 66.9156C561.067 67.3641 560.246 67.5802 559.42 67.5167Z" fill="#7474E2"/>
<path d="M675.826 84.6924C675.291 84.6084 674.796 84.3971 674.398 84.0832C674 83.7693 673.715 83.3659 673.578 82.9202C673.441 82.4745 673.457 82.005 673.624 81.5666C673.791 81.1282 674.102 80.7392 674.52 80.4451C674.939 80.151 675.448 79.964 675.988 79.906C676.527 79.848 677.075 79.9214 677.567 80.1176C678.06 80.3139 678.475 80.6248 678.766 81.0139C679.057 81.4031 679.211 81.8544 679.21 82.315C679.123 83.0066 678.721 83.6422 678.089 84.0863C677.457 84.5305 676.645 84.7479 675.826 84.6924Z" fill="#7474E2"/>
<path opacity="0.2" d="M421.45 60.1104L403 129.117L384.622 60.1256C390.694 60.0647 396.802 60.0342 402.946 60.0342C409.156 60.0342 415.33 60.0494 421.45 60.1104Z" fill="white"/>
<path opacity="0.2" d="M403 129.117L254.248 65.886C274.516 64.1944 295.954 62.838 318.292 61.8779L403 129.117Z" fill="white"/>
<path opacity="0.2" d="M403 129.117L150.334 151.794C99.1601 142.117 68.2001 129.452 68.2001 115.568C68.2001 110.219 72.8081 105.038 81.4121 100.13L403 129.117Z" fill="white"/>
<path opacity="0.2" d="M403 129.117L351.412 170.021C337.336 169.67 323.548 169.183 310.12 168.497L403 129.117Z" fill="white"/>
<path opacity="0.2" d="M414.052 170.6C410.452 170.6 406.744 170.6 403.054 170.6C399.364 170.6 395.62 170.6 391.912 170.6L403 129.117L414.052 170.6Z" fill="white"/>
<path opacity="0.2" d="M495.502 168.436C482.146 169.076 468.466 169.584 454.462 169.96L403 129.117L495.502 168.436Z" fill="white"/>
<path opacity="0.2" d="M737.8 115.096C737.8 129.132 706.21 141.964 654.1 151.672L403 129.117L725.452 100.161C733.516 104.916 737.8 109.915 737.8 115.096Z" fill="white"/>
<path opacity="0.2" d="M552.292 65.7339L403 129.117L487.924 61.7715C510.388 62.7316 531.934 64.0575 552.292 65.7339Z" fill="white"/>
<path d="M606.076 143.717C606.044 145.319 605.469 146.879 604.42 148.213L603.376 149.493L589.282 166.683L216.826 166.943L202.552 149.615L201.634 148.517C200.604 147.183 200.036 145.631 199.996 144.037C199.996 124.484 290.86 108.604 403 108.528C515.14 108.451 606.04 124.179 606.076 143.717Z" fill="#7474E2"/>
<path opacity="0.1" d="M606.076 143.717C606.044 145.319 605.469 146.879 604.42 148.213L603.376 149.493L589.282 166.683L216.826 166.943L202.552 149.615L201.634 148.517C200.604 147.183 200.036 145.631 199.996 144.037C199.996 124.484 290.86 108.604 403 108.528C515.14 108.451 606.04 124.179 606.076 143.717Z" fill="black"/>
<path d="M403.054 195.319C506.76 195.319 590.83 180.677 590.83 162.614C590.83 144.552 506.76 129.909 403.054 129.909C299.348 129.909 215.278 144.552 215.278 162.614C215.278 180.677 299.348 195.319 403.054 195.319Z" fill="#7474E2"/>
<g opacity="0.1">
<path d="M401.848 141.873C391.912 141.873 390.634 139.922 390.634 138.215C390.634 136.508 391.912 134.558 401.848 134.558C411.784 134.558 413.062 136.508 413.062 138.2C413.062 139.892 411.802 141.873 401.848 141.873Z" fill="black"/>
<path d="M320.668 145.286C317.967 145.332 315.27 145.091 312.64 144.57C309.508 143.747 309.364 142.056 309.454 141.354C309.796 138.703 314.152 138.306 316.24 138.139C317.59 138.032 319.12 137.971 320.65 137.971C323.345 137.918 326.038 138.158 328.66 138.687C331.81 139.51 331.936 141.202 331.846 141.888C331.504 144.54 327.166 144.936 325.06 145.104C323.601 145.229 322.135 145.29 320.668 145.286Z" fill="black"/>
<path d="M261.538 154.324C260.008 154.324 258.478 154.324 257.128 154.156C255.04 153.974 250.684 153.593 250.342 150.941C250.252 150.255 250.342 148.563 253.528 147.74C256.15 147.203 258.841 146.952 261.538 146.994C263.011 146.99 264.483 147.051 265.948 147.177C268.036 147.359 272.392 147.725 272.734 150.377C272.824 151.078 272.734 152.77 269.548 153.593C266.924 154.118 264.234 154.363 261.538 154.324Z" fill="black"/>
<path d="M240.334 166.562C230.398 166.562 229.12 164.611 229.12 162.904C229.12 161.197 230.398 159.246 240.334 159.231C250.27 159.216 251.548 161.182 251.548 162.889C251.548 164.596 250.288 166.546 240.334 166.562Z" fill="black"/>
<path d="M262.744 178.723C260.049 178.762 257.358 178.516 254.734 177.991C251.584 177.184 251.44 175.477 251.53 174.791C251.872 172.139 256.228 171.743 258.316 171.575C259.781 171.45 261.253 171.389 262.726 171.392C265.422 171.345 268.114 171.591 270.736 172.124C273.886 172.932 274.03 174.623 273.94 175.324C273.598 177.976 269.242 178.372 267.154 178.54C265.689 178.666 264.217 178.727 262.744 178.723Z" fill="black"/>
<path d="M322.72 187.547C321.277 187.548 319.836 187.487 318.4 187.364C316.312 187.181 311.956 186.815 311.596 184.164C311.506 183.463 311.596 181.771 314.782 180.948C317.412 180.423 320.109 180.177 322.81 180.216C324.34 180.216 325.852 180.216 327.202 180.384C329.29 180.567 333.646 180.948 334.006 183.6C334.096 184.286 334.006 185.977 330.82 186.8C328.167 187.334 325.446 187.585 322.72 187.547Z" fill="black"/>
<path d="M404.242 190.671C394.306 190.671 393.028 188.721 393.028 187.014C393.028 185.307 394.306 183.341 404.242 183.341C414.178 183.341 415.456 185.292 415.456 186.998C415.456 188.705 414.196 190.656 404.242 190.671Z" fill="black"/>
<path d="M485.458 187.257C482.757 187.298 480.06 187.052 477.43 186.526C474.28 185.703 474.154 184.011 474.244 183.326C474.586 180.674 478.942 180.278 481.03 180.11C482.495 179.984 483.967 179.923 485.44 179.927C488.136 179.88 490.828 180.126 493.45 180.659C496.6 181.466 496.726 183.158 496.636 183.859C496.294 186.511 491.938 186.907 489.85 187.075C488.5 187.181 486.988 187.242 485.458 187.257Z" fill="black"/>
<path d="M544.552 178.22C543.085 178.224 541.619 178.163 540.16 178.037C538.072 177.854 533.716 177.489 533.356 174.837C533.266 174.151 533.356 172.444 536.542 171.621C539.172 171.096 541.869 170.851 544.57 170.89C546.037 170.886 547.503 170.947 548.962 171.073C551.05 171.24 555.406 171.621 555.766 174.273C555.856 174.959 555.766 176.666 552.58 177.473C549.952 178.01 547.255 178.261 544.552 178.22Z" fill="black"/>
<path d="M565.756 166.028C555.82 166.028 554.542 164.078 554.542 162.371C554.542 160.664 555.82 158.713 565.756 158.698C575.692 158.683 576.97 160.649 576.97 162.355C576.97 164.062 575.8 166.028 565.756 166.028Z" fill="black"/>
<path d="M543.4 153.836C540.698 153.884 538 153.638 535.372 153.105C532.222 152.297 532.096 150.606 532.186 149.905C532.528 147.253 536.884 146.857 538.972 146.689C540.322 146.582 541.834 146.521 543.382 146.506C546.078 146.467 548.768 146.712 551.392 147.238C554.542 148.06 554.668 149.752 554.578 150.438C554.236 153.09 549.88 153.486 547.792 153.654C546.333 153.779 544.867 153.84 543.4 153.836Z" fill="black"/>
<path d="M483.37 144.997C481.822 144.997 480.31 144.997 478.96 144.83C476.872 144.647 472.516 144.266 472.174 141.614C472.084 140.928 472.174 139.237 475.36 138.414C477.982 137.88 480.674 137.635 483.37 137.682C484.843 137.666 486.315 137.722 487.78 137.85C489.868 138.033 494.224 138.398 494.566 141.05C494.656 141.751 494.566 143.443 491.38 144.266C488.757 144.791 486.066 145.036 483.37 144.997Z" fill="black"/>
</g>
<path d="M410.002 138.215C410.002 138.886 406.402 139.435 401.848 139.435C397.294 139.435 393.694 138.901 393.694 138.215C393.694 137.529 397.294 136.996 401.848 136.996C406.402 136.996 410.002 137.529 410.002 138.215Z" fill="#7474E2"/>
<path d="M327.724 141.004C329.974 141.598 328.642 142.345 324.736 142.68C321.018 143.036 317.257 142.887 313.594 142.238C311.344 141.659 312.676 140.913 316.582 140.577C320.299 140.218 324.06 140.362 327.724 141.004Z" fill="#7474E2"/>
<path d="M265.606 149.6C269.512 149.935 270.844 150.682 268.594 151.261C264.933 151.916 261.171 152.07 257.452 151.718C253.564 151.383 252.232 150.636 254.482 150.057C258.137 149.402 261.893 149.248 265.606 149.6Z" fill="#7474E2"/>
<path d="M240.334 161.669C244.834 161.669 248.488 162.218 248.488 162.889C248.488 163.559 244.888 164.123 240.334 164.123C235.78 164.123 232.18 163.574 232.18 162.904C232.18 162.233 235.834 161.685 240.334 161.669Z" fill="#7474E2"/>
<path d="M258.658 173.999C262.376 173.65 266.136 173.799 269.8 174.44C272.05 175.02 270.718 175.766 266.812 176.117C263.094 176.465 259.334 176.316 255.67 175.675C253.42 175.172 254.752 174.334 258.658 173.999Z" fill="#7474E2"/>
<path d="M315.664 183.265C319.328 182.624 323.088 182.475 326.806 182.823C330.712 183.158 332.044 183.905 329.794 184.484C326.133 185.139 322.371 185.293 318.652 184.941C314.8 184.606 313.414 183.859 315.664 183.265Z" fill="#7474E2"/>
<path d="M396.088 187.014C396.088 186.328 399.688 185.779 404.242 185.779C408.796 185.779 412.396 186.328 412.396 186.998C412.396 187.669 408.796 188.218 404.242 188.218C399.688 188.218 396.088 187.684 396.088 187.014Z" fill="#7474E2"/>
<path d="M478.384 184.21C476.134 183.615 477.466 182.868 481.354 182.533C485.072 182.185 488.832 182.334 492.496 182.975C494.746 183.554 493.414 184.301 489.526 184.652C485.808 185 482.048 184.851 478.384 184.21Z" fill="#7474E2"/>
<path d="M540.484 175.614C536.578 175.279 535.246 174.532 537.496 173.953C541.157 173.298 544.919 173.144 548.638 173.496C552.544 173.831 553.876 174.578 551.626 175.157C547.965 175.812 544.203 175.966 540.484 175.614Z" fill="#7474E2"/>
<path d="M565.756 163.544C561.256 163.544 557.602 162.996 557.602 162.325C557.602 161.655 561.202 161.106 565.756 161.091C570.31 161.075 573.91 161.639 573.91 162.31C573.91 162.98 570.256 163.544 565.756 163.544Z" fill="#7474E2"/>
<path d="M547.432 151.215C543.72 151.563 539.966 151.414 536.308 150.773C534.04 150.194 535.39 149.447 539.278 149.097C542.996 148.748 546.756 148.898 550.42 149.539C552.67 150.133 551.338 150.88 547.432 151.215Z" fill="#7474E2"/>
<path d="M490.426 141.949C486.762 142.589 483.004 142.743 479.284 142.406C475.396 142.071 474.046 141.324 476.296 140.73C479.959 140.084 483.719 139.929 487.438 140.273C491.344 140.608 492.676 141.355 490.426 141.949Z" fill="#7474E2"/>
<g opacity="0.5">
<path d="M410.002 138.215C410.002 138.886 406.402 139.435 401.848 139.435C397.294 139.435 393.694 138.901 393.694 138.215C393.694 137.529 397.294 136.996 401.848 136.996C406.402 136.996 410.002 137.529 410.002 138.215Z" fill="white"/>
<path d="M327.724 141.004C329.974 141.599 328.642 142.346 324.736 142.681C321.018 143.037 317.257 142.888 313.594 142.239C311.344 141.66 312.676 140.913 316.582 140.578C320.299 140.219 324.06 140.363 327.724 141.004Z" fill="white"/>
<path d="M265.606 149.6C269.512 149.935 270.844 150.682 268.594 151.261C264.933 151.916 261.171 152.07 257.452 151.718C253.564 151.383 252.232 150.636 254.482 150.057C258.137 149.402 261.893 149.248 265.606 149.6Z" fill="white"/>
<path d="M240.334 161.669C244.834 161.669 248.488 162.218 248.488 162.889C248.488 163.559 244.888 164.123 240.334 164.123C235.78 164.123 232.18 163.574 232.18 162.904C232.18 162.233 235.834 161.685 240.334 161.669Z" fill="white"/>
<path d="M258.658 173.999C262.376 173.651 266.136 173.8 269.8 174.441C272.05 175.02 270.718 175.767 266.812 176.117C263.094 176.466 259.334 176.316 255.67 175.675C253.42 175.172 254.752 174.334 258.658 173.999Z" fill="white"/>
<path d="M315.664 183.265C319.328 182.624 323.088 182.475 326.806 182.823C330.712 183.158 332.044 183.905 329.794 184.484C326.133 185.139 322.371 185.293 318.652 184.941C314.8 184.606 313.414 183.859 315.664 183.265Z" fill="white"/>
<path d="M396.088 187.014C396.088 186.328 399.688 185.779 404.242 185.779C408.796 185.779 412.396 186.328 412.396 186.998C412.396 187.669 408.796 188.218 404.242 188.218C399.688 188.218 396.088 187.684 396.088 187.014Z" fill="white"/>
<path d="M478.384 184.21C476.134 183.615 477.466 182.868 481.354 182.533C485.072 182.185 488.832 182.334 492.496 182.975C494.746 183.554 493.414 184.301 489.526 184.652C485.808 185 482.048 184.851 478.384 184.21Z" fill="white"/>
<path d="M540.484 175.614C536.578 175.279 535.246 174.532 537.496 173.953C541.157 173.298 544.919 173.144 548.638 173.496C552.544 173.831 553.876 174.578 551.626 175.157C547.965 175.812 544.203 175.966 540.484 175.614Z" fill="white"/>
<path d="M565.756 163.544C561.256 163.544 557.602 162.996 557.602 162.325C557.602 161.655 561.202 161.106 565.756 161.091C570.31 161.075 573.91 161.639 573.91 162.31C573.91 162.98 570.256 163.544 565.756 163.544Z" fill="white"/>
<path d="M547.432 151.215C543.72 151.563 539.966 151.414 536.308 150.773C534.04 150.194 535.39 149.447 539.278 149.097C542.996 148.748 546.756 148.898 550.42 149.539C552.67 150.133 551.338 150.88 547.432 151.215Z" fill="white"/>
<path d="M490.426 141.949C486.762 142.589 483.004 142.743 479.284 142.406C475.396 142.071 474.046 141.324 476.296 140.73C479.959 140.084 483.719 139.929 487.438 140.273C491.344 140.608 492.676 141.355 490.426 141.949Z" fill="white"/>
</g>
<path d="M546.37 173.816C546.343 174.856 545.935 175.862 545.2 176.696L544.48 177.519L534.526 188.644L271.6 188.888L261.52 177.672L260.872 176.97C260.151 176.121 259.749 175.106 259.72 174.06C259.72 161.41 323.854 151.2 403 151.078C482.146 150.956 546.352 161.167 546.37 173.816Z" fill="#7474E2"/>
<path opacity="0.1" d="M546.37 173.816C546.343 174.856 545.935 175.862 545.2 176.696L544.48 177.519L534.526 188.644L271.6 188.888L261.52 177.672L260.872 176.97C260.151 176.121 259.749 175.106 259.72 174.06C259.72 161.41 323.854 151.2 403 151.078C482.146 150.956 546.352 161.167 546.37 173.816Z" fill="black"/>
<path d="M535.606 185.947C535.606 197.636 476.296 207.161 403.09 207.283C329.884 207.405 270.556 197.895 270.538 186.221C270.52 174.548 329.938 165.007 403.054 164.962C476.17 164.916 535.588 174.273 535.606 185.947Z" fill="#7474E2"/>
<path d="M470.266 185.993C470.266 191.113 440.188 195.289 403.09 195.304C365.992 195.32 335.878 191.205 335.878 186.16C335.878 181.116 365.956 176.864 403.072 176.849C440.188 176.833 470.266 180.887 470.266 185.993Z" fill="#263238"/>
<g opacity="0.4">
<path d="M402.334 167.781C402.834 168.13 403.239 168.567 403.518 169.062C403.798 169.556 403.947 170.097 403.954 170.646C403.955 171.194 403.812 171.736 403.535 172.232C403.258 172.727 402.854 173.164 402.352 173.511C401.849 173.164 401.443 172.728 401.163 172.232C400.882 171.737 400.735 171.195 400.732 170.646C400.739 170.099 400.886 169.559 401.163 169.065C401.439 168.57 401.839 168.132 402.334 167.781Z" fill="white"/>
<path d="M341.152 170.326C345.454 171.057 348.91 171.85 352.168 172.688C354.988 173.362 357.739 174.228 360.394 175.279C356.092 174.547 352.636 173.755 349.378 172.916C346.558 172.243 343.807 171.376 341.152 170.326Z" fill="white"/>
<path d="M296.548 177.077C302.74 177.397 308.428 177.824 314.008 178.296C319.588 178.769 324.952 179.287 329.884 179.927C323.692 179.622 317.986 179.18 312.406 178.708C306.826 178.235 301.462 177.717 296.548 177.077Z" fill="white"/>
<path d="M280.492 186.236C286.9 186.038 293.308 185.993 299.734 185.977C306.16 185.962 312.55 185.977 318.976 186.206C312.55 186.404 306.142 186.45 299.734 186.465C293.326 186.48 286.9 186.419 280.492 186.236Z" fill="white"/>
<path d="M297.268 195.35C302.2 194.694 307.6 194.176 313.126 193.689C318.652 193.201 324.412 192.774 330.604 192.454C325.69 193.094 320.272 193.612 314.746 194.1C309.22 194.588 303.46 194.984 297.268 195.35Z" fill="white"/>
<path d="M342.412 201.949C345.071 200.902 347.821 200.03 350.638 199.343C353.878 198.52 357.334 197.712 361.654 196.98C358.997 198.03 356.246 198.901 353.428 199.587C350.17 200.409 346.714 201.217 342.412 201.949Z" fill="white"/>
<path d="M403.81 204.311C403.306 203.966 402.9 203.529 402.621 203.033C402.342 202.537 402.197 201.995 402.197 201.446C402.197 200.897 402.342 200.355 402.621 199.859C402.9 199.363 403.306 198.927 403.81 198.581C404.313 198.928 404.719 199.364 405 199.86C405.28 200.355 405.427 200.897 405.43 201.446C405.421 201.994 405.271 202.535 404.991 203.029C404.711 203.524 404.309 203.961 403.81 204.311Z" fill="white"/>
<path d="M464.992 201.766C460.69 201.034 457.234 200.242 453.976 199.404C451.156 198.73 448.405 197.864 445.75 196.813C450.07 197.545 453.526 198.337 456.766 199.175C459.589 199.842 462.341 200.709 464.992 201.766Z" fill="white"/>
<path d="M509.596 194.984C503.404 194.664 497.716 194.237 492.136 193.765C486.556 193.293 481.192 192.774 476.26 192.134C482.452 192.439 488.158 192.881 493.738 193.353C499.318 193.826 504.682 194.375 509.596 194.984Z" fill="white"/>
<path d="M525.652 185.84C519.244 186.038 512.836 186.084 506.41 186.084C499.984 186.084 493.594 186.084 487.168 185.871C493.594 185.673 500.002 185.627 506.41 185.612C512.818 185.597 519.244 185.673 525.652 185.84Z" fill="white"/>
<path d="M508.876 176.696C503.944 177.352 498.544 177.87 493.018 178.357C487.492 178.845 481.732 179.272 475.54 179.592C480.454 178.952 485.872 178.434 491.398 177.946C496.924 177.458 502.684 177.062 508.876 176.696Z" fill="white"/>
<path d="M463.732 170.128C461.079 171.189 458.328 172.066 455.506 172.749C452.266 173.572 448.81 174.38 444.49 175.111C447.145 174.058 449.896 173.186 452.716 172.505C455.974 171.682 459.43 170.875 463.732 170.128Z" fill="white"/>
</g>
<g opacity="0.9">
<path d="M610.486 629.979H195.514L349.396 183.889C349.396 181.39 363.202 178.174 380.878 178.052H422.278C440.962 178.311 455.812 181.817 455.776 184.423L610.486 629.979Z" fill="#7474E2"/>
<g opacity="0.7">
<path d="M610.486 629.979H195.514L349.396 183.889C349.396 181.39 363.202 178.174 380.878 178.052H422.278C440.962 178.311 455.812 181.817 455.776 184.423L610.486 629.979Z" fill="white"/>
</g>
<g opacity="0.4">
<path d="M564.658 629.979H242.692L359.314 183.95C359.314 181.512 368.71 178.296 380.914 178.037H422.314C435.49 178.296 445.912 181.756 445.876 184.331L564.658 629.979Z" fill="white"/>
</g>
<path d="M400.752 342.676L386.773 404.875L369.57 402.103L381.853 347.451L387.14 348.303L346.379 378.774L347.506 373.369L402.305 382.198L399.453 394.887L331.983 384.016L334.704 371.908L378.766 339.134L400.752 342.676Z" fill="#7474E2"/>
<path d="M396.909 512.956C389.796 514.374 383.235 514.299 377.227 512.731C371.203 511.108 366.079 508.182 361.853 503.954C357.683 499.715 354.702 494.374 352.91 487.932C351.119 481.49 350.972 475.584 352.47 470.214C354.024 464.834 357.076 460.307 361.627 456.634C366.163 452.907 371.987 450.334 379.1 448.916C386.158 447.509 392.671 447.622 398.639 449.256C404.647 450.824 409.764 453.723 413.99 457.951C418.216 462.179 421.224 467.514 423.016 473.957C424.807 480.399 424.926 486.31 423.372 491.691C421.819 497.071 418.774 501.625 414.238 505.353C409.743 509.015 403.967 511.549 396.909 512.956ZM393.083 499.198C398.696 498.079 402.618 495.626 404.85 491.839C407.066 487.998 407.37 483.184 405.76 477.396C404.136 471.555 401.327 467.361 397.335 464.815C393.342 462.269 388.539 461.555 382.926 462.674C377.313 463.793 373.363 466.251 371.076 470.049C368.789 473.847 368.458 478.667 370.082 484.509C371.692 490.296 374.528 494.484 378.591 497.074C382.64 499.609 387.47 500.317 393.083 499.198Z" fill="#7474E2"/>
<path d="M477.459 538.444L495.583 599.563L478.539 603.186L462.614 549.483L467.852 548.369L445.842 590.385L444.188 585.106L498.48 573.565L502.177 586.034L435.33 600.243L431.802 588.345L455.676 543.074L477.459 538.444Z" fill="#7474E2"/>
<g opacity="0.4">
<path d="M536.488 629.979H274.336L359.314 183.95C359.314 181.512 368.71 178.296 380.914 178.037H422.314C435.49 178.296 445.912 181.756 445.876 184.331L536.488 629.979Z" fill="white"/>
</g>
</g>
<g opacity="0.2">
<path d="M508.48 228.512C508.282 228.238 508.12 227.964 507.904 227.674L507.13 226.805C506.471 226.157 505.722 225.579 504.898 225.083C502.583 223.746 500.04 222.718 497.356 222.035C494.096 221.184 490.77 220.527 487.402 220.069C483.982 219.597 480.544 219.216 477.124 218.911L472.03 218.484L467.512 218.164L468.448 220.877C471.184 220.969 473.848 221.09 476.566 221.243C479.698 221.456 482.794 221.7 485.728 222.051C488.442 222.366 491.126 222.85 493.756 223.498C495.754 223.975 497.645 224.727 499.354 225.723C499.966 226.119 500.527 226.569 501.028 227.065L501.586 227.766C501.748 228.009 501.856 228.253 502 228.497C502.484 229.409 502.665 230.415 502.522 231.408C502.203 232.517 501.61 233.557 500.781 234.458C499.953 235.359 498.908 236.101 497.716 236.635C496.176 237.488 494.542 238.212 492.838 238.799C490.866 239.5 488.854 240.116 486.808 240.643C483.514 241.497 479.896 242.244 476.098 242.899L472.408 243.508C471.094 243.691 469.834 243.905 468.484 244.072L466.486 244.347L464.452 244.591C461.77 244.941 459.052 245.231 456.19 245.535L451.978 245.947L447.694 246.328L439 246.998L429.802 247.639L425.122 247.989L422.8 248.324L420.478 248.522C408.04 249.559 395.854 250.9 384.298 252.531C381.436 252.942 378.574 253.338 375.802 253.765L367.666 255.015C362.804 255.802 357.895 256.362 352.96 256.691C350.694 256.791 348.423 256.791 346.156 256.691C343.816 256.691 341.26 256.462 338.578 256.219C337.246 256.097 335.86 255.929 334.474 255.792L332.35 255.533L330.28 255.274C328.48 255.03 326.68 254.771 325.06 254.497C324.232 254.359 323.422 254.222 322.648 254.07L320.848 253.735L319.192 253.369L318.346 253.186L317.572 252.988L316.006 252.592L314.548 252.18L313.81 251.967L313.162 251.738L311.83 251.281L310.606 250.778C309.14 250.184 307.767 249.436 306.52 248.553L306.07 248.248L305.71 247.943L304.954 247.288C304.527 246.872 304.147 246.423 303.82 245.947C303.167 245.075 302.71 244.109 302.47 243.097C302.254 242.127 302.218 241.135 302.362 240.156C302.687 238.063 303.56 236.058 304.918 234.288C305.627 233.282 306.427 232.324 307.312 231.423C307.762 230.951 308.194 230.478 308.716 230.021L309.454 229.32L310.264 228.634C312.555 226.709 314.996 224.917 317.572 223.27C319.977 221.657 322.093 219.758 323.854 217.631C325.528 215.695 326.932 213.73 328.606 211.825C329.437 210.843 330.332 209.902 331.288 209.005C332.328 208.052 333.466 207.18 334.69 206.399C336.061 205.533 337.562 204.826 339.154 204.296C340.316 203.908 341.523 203.622 342.754 203.443L344.554 198.383L343.132 198.474C342.124 198.566 341.134 198.672 340.18 198.794C339.226 198.916 338.38 199.069 337.426 199.236C334.663 199.713 332.026 200.617 329.65 201.903C328.206 202.721 326.98 203.785 326.05 205.027C325.338 206.004 324.793 207.061 324.43 208.167C324.034 209.203 323.764 210.24 323.458 211.215C322.985 213.315 322.224 215.361 321.19 217.311C319.962 219.524 318.107 221.445 315.79 222.904L307.528 228.131L305.512 229.457C304.828 229.899 304.144 230.341 303.496 230.783C302.848 231.225 302.2 231.682 301.534 232.124C300.868 232.566 300.256 233.039 299.608 233.481C297.132 235.183 294.864 237.093 292.84 239.18C291.974 240.123 291.238 241.145 290.644 242.228C290.101 243.301 289.837 244.46 289.87 245.627C289.899 246.236 290.014 246.839 290.212 247.425C290.338 247.73 290.5 248.035 290.662 248.355C290.824 248.675 290.824 248.66 290.932 248.827L291.292 249.3C292.496 250.805 294.045 252.09 295.846 253.079C296.386 253.384 296.926 253.704 297.502 254.009L299.41 254.878C299.734 255.03 300.04 255.182 300.4 255.319L301.462 255.731C302.182 256.005 302.884 256.295 303.64 256.554L305.998 257.301C306.412 257.423 306.79 257.56 307.204 257.666L308.446 258.017L310.984 258.688L313.576 259.282C315.376 259.693 317.176 260.029 318.976 260.364L320.326 260.623L321.676 260.836L322.846 261.034L324.376 261.278L327.058 261.69L329.704 262.056C331.504 262.299 333.304 262.543 335.284 262.741C339.082 263.153 343.096 263.503 347.326 263.671C351.493 263.854 355.669 263.854 359.836 263.671C363.85 263.503 367.504 263.153 370.816 262.772C374.128 262.391 377.17 261.949 379.996 261.507C385.702 260.608 390.94 259.724 396.196 258.87C406.762 257.209 417.544 255.716 428.938 254.512L431.062 254.283L433.204 254.07L437.524 253.643L446.524 252.805C448.09 252.668 449.602 252.5 451.15 252.348L455.722 251.83L460.222 251.266L464.632 250.641C467.548 250.214 470.41 249.742 473.2 249.239L475.27 248.842L477.304 248.431L478.078 248.279L481.318 247.593C483.91 246.983 486.466 246.374 488.86 245.673C491.254 244.971 493.522 244.27 495.646 243.493C499.405 242.223 502.89 240.437 505.96 238.205C506.55 237.728 507.104 237.219 507.616 236.681L508.264 235.904C508.498 235.645 508.606 235.37 508.804 235.111C509.419 234.093 509.734 232.963 509.722 231.819C509.59 230.655 509.167 229.527 508.48 228.512Z" fill="#7474E2"/>
</g>
<path opacity="0.2" d="M611.692 327.008C611.347 322.832 609.823 318.786 607.246 315.213C604.541 311.421 601.131 308.025 597.148 305.154C596.14 304.407 595.078 303.63 594.016 302.96L591.082 301.1C589.102 299.881 587.068 298.677 584.962 297.519C580.786 295.172 576.322 292.947 571.804 290.95C562.804 286.836 553.354 283.437 544.966 280.282C537.161 277.405 529.558 274.148 522.196 270.529C515.533 267.185 509.19 263.404 503.224 259.221L498.562 255.898C496.636 254.527 494.656 253.201 492.604 251.936C488.423 249.337 484.072 246.941 479.572 244.758C478.438 244.209 477.286 243.661 476.134 243.143L491.38 287.049C492.982 287.826 494.602 288.573 496.24 289.32C505.469 293.298 514.965 296.814 524.68 299.851C533.986 302.899 542.554 305.474 550.222 308.446C554.074 309.97 557.728 311.494 561.274 313.125C563.074 313.948 564.766 314.816 566.476 315.7L569.014 317.041L571.084 318.184C573.563 319.621 575.824 321.31 577.816 323.214C579.494 324.825 580.785 326.7 581.614 328.73C582.372 330.668 582.458 332.748 581.861 334.726C581.265 336.703 580.011 338.494 578.248 339.886C575.964 341.804 573.286 343.353 570.346 344.458C566.703 345.855 562.887 346.902 558.97 347.582C549.877 349.073 540.579 349.458 531.358 348.725C524.778 348.287 518.255 347.364 511.864 345.967C509.074 345.388 506.338 344.702 503.638 343.94C494.972 341.475 486.591 338.343 478.6 334.583C470.698 330.91 463.246 326.81 455.596 322.619C447.471 317.972 438.91 313.894 430 310.427C424.605 308.438 418.976 306.941 413.206 305.962C411.658 305.703 410.074 305.474 408.472 305.276C406.87 305.078 405.196 304.971 403.63 304.865C400.498 304.666 397.492 304.606 394.63 304.575C383.593 304.637 372.568 305.191 361.6 306.236C356.344 306.693 351.142 307.181 345.994 307.76C340.846 308.339 335.77 308.873 330.73 309.467C322.072 310.488 313.54 311.57 305.098 312.637C293.884 314.039 282.85 315.38 272.014 316.477C262.564 317.422 253.24 318.154 244.438 318.276C240.232 318.363 236.023 318.22 231.838 317.849C229.94 317.692 228.053 317.448 226.186 317.118C225.268 316.965 224.386 316.782 223.54 316.599L222.28 316.295L220.804 315.868C212.83 313.475 205.702 310.275 200.824 306.084C198.487 304.121 196.719 301.727 195.658 299.089C195.177 297.831 194.898 296.523 194.83 295.202C194.794 293.849 194.963 292.496 195.334 291.179C196.774 285.769 201.814 280.511 208.6 276.335C216.101 271.871 224.412 268.474 233.206 266.277C237.957 265.239 242.816 264.591 247.714 264.341C252.79 263.976 257.956 263.701 263.14 263.427C273.508 262.863 284.002 262.238 294.532 261.187C304.45 260.242 314.332 258.885 324.214 257.148L329.416 242.061C327.472 242.868 325.816 243.585 324.142 244.331C322.468 245.078 320.11 245.992 318.04 246.77C309.421 250.051 300.514 252.761 291.4 254.877C286.702 255.959 281.914 256.965 277 257.803C272.086 258.642 267.136 259.327 262.114 259.968C257.092 260.608 251.98 261.095 246.85 261.674C244.294 261.964 241.72 262.238 239.128 262.619C236.511 262.98 233.925 263.489 231.388 264.143C222.153 266.573 213.294 269.929 205 274.141C197.08 278.301 190.204 283.468 186.352 289.746C185.395 291.287 184.657 292.919 184.156 294.608C183.628 296.278 183.368 298 183.382 299.729C183.433 303.33 184.52 306.866 186.55 310.031C188.78 313.509 191.689 316.642 195.154 319.297C198.883 322.185 202.954 324.739 207.304 326.917C207.862 327.206 208.384 327.481 209.104 327.77L211.102 328.669C212.47 329.233 213.856 329.812 215.296 330.285C218.158 331.271 221.085 332.116 224.062 332.815C227.032 333.531 230.038 334.08 233.062 334.537C236.086 334.994 239.02 335.36 241.972 335.665C253.332 336.664 264.77 336.884 276.172 336.32C283.372 336 290.572 335.466 297.502 334.796C311.794 333.424 325.564 331.413 339.01 329.249C344.014 328.441 348.964 327.587 353.86 326.734L368.458 324.174C373.282 323.351 378.052 322.497 382.768 321.766C387.484 321.034 392.128 320.333 396.574 319.861C398.788 319.632 400.966 319.434 402.982 319.343C403.99 319.343 404.926 319.251 405.88 319.236C406.834 319.221 407.806 319.236 408.778 319.236C412.938 319.39 417.069 319.9 421.108 320.76C429.825 322.835 438.269 325.659 446.308 329.188C462.922 336.091 478.924 344.428 498.166 350.31C502.966 351.783 507.928 353.104 513.052 354.273L515.068 354.699C519.568 355.659 524.194 356.482 528.91 357.107C540.146 358.706 551.567 359.162 562.93 358.464C568.963 358.052 574.928 357.113 580.732 355.66C586.541 354.234 592.059 352.065 597.094 349.228C601.753 346.63 605.635 343.15 608.434 339.063C610.84 335.385 611.969 331.206 611.692 327.008Z" fill="#7474E2"/>
<path opacity="0.2" d="M570.688 370.442C570.589 368.921 570.269 367.416 569.734 365.962C568.56 362.823 566.643 359.919 564.1 357.427C561.316 354.697 558.092 352.312 554.524 350.341C550.774 348.255 546.803 346.469 542.662 345.007C542.14 344.809 541.654 344.626 541.06 344.443L539.26 343.864C538.018 343.513 536.74 343.163 535.48 342.904C532.963 342.35 530.408 341.928 527.83 341.639C525.336 341.335 522.824 341.142 520.306 341.06C517.822 340.953 515.392 340.953 512.98 340.983C512.044 340.983 511.18 340.983 510.19 341.075L515.59 356.391L516.346 356.269C519.648 355.772 522.985 355.466 526.336 355.355C527.888 355.27 529.446 355.27 530.998 355.355C531.754 355.355 532.474 355.461 533.212 355.522L534.31 355.659C534.688 355.659 535.156 355.812 535.588 355.873C542.246 356.926 548.579 359.12 554.2 362.319C556.66 363.79 558.758 365.654 560.374 367.806C561.127 368.827 561.732 369.923 562.174 371.067C562.603 372.201 562.881 373.371 563.002 374.557C563.542 379.358 561.202 384.341 557.152 388.669C552.668 393.251 547.163 397.041 540.952 399.825C537.948 401.045 534.798 401.991 531.556 402.644L530.188 402.949C526.318 403.787 522.358 404.549 518.38 405.311C510.442 406.835 502.396 408.451 494.476 410.432C486.523 412.367 478.71 414.692 471.076 417.397C469.168 418.067 467.314 418.784 465.442 419.515C463.57 420.247 461.644 421.039 460.042 421.649C456.748 422.929 453.382 424.102 450.016 425.154C446.65 426.205 443.23 427.12 439.792 427.897C436.354 428.674 432.97 429.33 429.568 429.833C422.881 430.851 416.094 431.326 409.3 431.25C395.891 431.044 382.656 428.638 370.33 424.163C367.252 423.066 364.246 421.877 361.33 420.597C359.89 419.957 358.468 419.302 357.1 418.631L354.634 417.412C353.716 416.97 352.834 416.498 351.862 416.071C344.122 412.432 336.05 409.323 327.724 406.774C319.362 404.307 310.84 402.247 302.2 400.602C293.992 398.972 286.468 397.554 279.556 395.817L276.496 395.009C274.096 394.359 271.756 393.658 269.476 392.906C267.838 392.373 266.218 391.809 264.616 391.23L262.222 390.33C261.538 390.071 260.872 389.828 260.242 389.553C257.819 388.553 255.531 387.331 253.42 385.911C251.592 384.692 250.016 383.224 248.758 381.567C247.576 380.127 246.879 378.441 246.743 376.69C246.606 374.94 247.035 373.191 247.984 371.631C249.149 369.764 250.776 368.132 252.754 366.846C255.189 365.271 257.866 363.985 260.71 363.02C267.512 360.786 274.698 359.499 281.986 359.21C284.272 359.089 286.594 359.043 288.898 359.088L291.274 352.17C288.016 351.91 284.722 351.728 281.428 351.682C272.348 351.427 263.269 352.196 254.428 353.968C249.886 354.922 245.498 356.339 241.36 358.189C237.26 359.993 233.596 362.433 230.56 365.383C227.645 368.193 225.658 371.605 224.8 375.273C224.012 378.885 224.372 382.609 225.844 386.063C227.425 389.656 229.836 392.946 232.936 395.741C236.173 398.695 239.873 401.259 243.934 403.361C244.96 403.909 246.004 404.428 247.066 404.885L249.928 406.195C251.854 407.034 253.816 407.872 255.814 408.649C259.81 410.173 263.968 411.697 268.144 412.962L270.214 413.587C277.9 415.888 285.514 417.686 292.444 419.439C299.513 421.146 306.465 423.181 313.27 425.535C319.59 427.756 325.714 430.358 331.594 433.323L336.256 435.715C338.176 436.731 340.138 437.661 342.142 438.504C346.123 440.318 350.215 441.951 354.4 443.396C363.244 446.403 372.44 448.61 381.832 449.98C391.599 451.416 401.529 451.887 411.424 451.382C421.024 450.865 430.498 449.26 439.594 446.612C447.781 444.205 455.577 440.933 462.796 436.873C466.091 435.02 469.263 433.015 472.3 430.869C473.884 429.772 475.018 428.918 476.35 427.958C477.682 426.998 478.996 426.114 480.382 425.23C486.108 421.524 492.231 418.279 498.67 415.537C502 414.135 505.456 412.779 509.02 411.56C512.584 410.341 516.22 409.228 520.036 408.192C523.852 407.155 527.614 406.18 531.466 405.144L532.258 404.93C533.914 404.488 535.588 404.046 537.226 403.544C539.155 402.982 541.027 402.289 542.824 401.471C549.351 398.443 555.323 394.629 560.554 390.148C565.597 386.001 569.031 380.654 570.4 374.816C570.692 373.372 570.788 371.905 570.688 370.442Z" fill="#7474E2"/>
<path d="M0.843994 629.979L101.374 629.598L201.922 629.476L403 629.217L604.078 629.476L704.626 629.598L805.156 629.979L704.626 630.345L604.078 630.482L403 630.741L201.922 630.482L101.374 630.345L0.843994 629.979Z" fill="#263238"/>
<path d="M565 548.019L556.666 549.314L554.812 556.751L552.958 549.314L544.624 548.019L552.922 546.297L554.812 539.271L556.702 546.297L565 548.019Z" fill="#7474E2"/>
<path d="M340.306 329.401L331.972 330.712L330.118 338.149L328.264 330.712L319.93 329.401L328.228 327.679L330.118 320.653L332.008 327.679L340.306 329.401Z" fill="#7474E2"/>
<path d="M475.972 429.985L467.638 431.28L465.766 438.718L463.912 431.28L455.578 429.97L463.876 428.263L465.766 421.237L467.674 428.263L475.972 429.985Z" fill="#7474E2"/>
<path d="M412.234 195.182L403.9 196.493L402.046 203.93L400.174 196.493L391.84 195.182L400.138 193.46L402.046 186.435L403.936 193.46L412.234 195.182Z" fill="#7474E2"/>
<path d="M325.618 442.406L320.974 443.137L319.93 447.298L318.886 443.137L314.224 442.406L318.868 441.445L319.93 437.529L320.992 441.445L325.618 442.406Z" fill="#7474E2"/>
<path d="M553.228 574.658L548.566 575.39L547.522 579.535L546.478 575.39L541.834 574.658L546.46 573.698L547.522 569.766L548.584 573.698L553.228 574.658Z" fill="#7474E2"/>
<path d="M252.394 569.766L247.732 570.498L246.688 574.658L245.644 570.498L241 569.766L245.626 568.806L246.688 564.89L247.75 568.806L252.394 569.766Z" fill="#7474E2"/>
<path d="M439.414 504.6L434.752 505.316L433.708 509.477L432.664 505.316L428.002 504.585L432.646 503.64L433.708 499.708L434.77 503.64L439.414 504.6Z" fill="#7474E2"/>
<path d="M421.342 360.734L416.68 361.466L415.654 365.626L414.61 361.466L409.948 360.734L414.592 359.774L415.654 355.842L416.716 359.774L421.342 360.734Z" fill="#7474E2"/>
<path d="M362.158 574.658L357.514 575.39L356.47 579.535L355.426 575.39L350.782 574.658L355.408 573.698L356.47 569.766L357.532 573.698L362.158 574.658Z" fill="#7474E2"/>
<path d="M364.372 300.948L359.728 301.679L358.684 305.84L357.64 301.679L352.978 300.948L357.622 299.988L358.684 296.056L359.746 299.988L364.372 300.948Z" fill="#7474E2"/>
<path d="M435.94 253.109L431.278 253.841L430.234 258.001L429.208 253.841L424.546 253.109L429.172 252.149L430.234 248.217L431.296 252.149L435.94 253.109Z" fill="#7474E2"/>
<path d="M560.716 483.462C560.358 483.462 560.015 483.583 559.761 483.797C559.508 484.012 559.366 484.302 559.366 484.605C559.366 484.909 559.508 485.199 559.761 485.414C560.015 485.628 560.358 485.748 560.716 485.748C561.074 485.748 561.417 485.628 561.671 485.414C561.924 485.199 562.066 484.909 562.066 484.605C562.066 484.302 561.924 484.012 561.671 483.797C561.417 483.583 561.074 483.462 560.716 483.462Z" fill="#7474E2"/>
<path d="M405.412 346.317C405.054 346.317 404.711 346.438 404.457 346.652C404.204 346.867 404.062 347.157 404.062 347.46C404.062 347.764 404.204 348.054 404.457 348.269C404.711 348.483 405.054 348.603 405.412 348.603C405.77 348.603 406.113 348.483 406.367 348.269C406.62 348.054 406.762 347.764 406.762 347.46C406.762 347.157 406.62 346.867 406.367 346.652C406.113 346.438 405.77 346.317 405.412 346.317Z" fill="#7474E2"/>
<path d="M390.166 211.611C389.808 211.611 389.465 211.731 389.211 211.946C388.958 212.16 388.816 212.451 388.816 212.754C388.816 213.057 388.958 213.348 389.211 213.562C389.465 213.776 389.808 213.897 390.166 213.897C390.524 213.897 390.867 213.776 391.121 213.562C391.374 213.348 391.516 213.057 391.516 212.754C391.516 212.451 391.374 212.16 391.121 211.946C390.867 211.731 390.524 211.611 390.166 211.611Z" fill="#7474E2"/>
<path d="M299.77 466.774C299.412 466.774 299.069 466.895 298.815 467.109C298.562 467.324 298.42 467.614 298.42 467.917C298.42 468.221 298.562 468.511 298.815 468.726C299.069 468.94 299.412 469.06 299.77 469.06C300.128 469.06 300.471 468.94 300.725 468.726C300.978 468.511 301.12 468.221 301.12 467.917C301.12 467.614 300.978 467.324 300.725 467.109C300.471 466.895 300.128 466.774 299.77 466.774Z" fill="#7474E2"/>
<path d="M404.098 560.744C403.74 560.744 403.397 560.865 403.143 561.079C402.89 561.293 402.748 561.584 402.748 561.887C402.748 562.19 402.89 562.481 403.143 562.695C403.397 562.91 403.74 563.03 404.098 563.03C404.456 563.03 404.799 562.91 405.053 562.695C405.306 562.481 405.448 562.19 405.448 561.887C405.448 561.584 405.306 561.293 405.053 561.079C404.799 560.865 404.456 560.744 404.098 560.744Z" fill="#7474E2"/>
<path d="M546.82 446.673C546.567 446.673 546.324 446.758 546.145 446.909C545.966 447.061 545.866 447.266 545.866 447.481C545.866 447.695 545.966 447.9 546.145 448.052C546.324 448.203 546.567 448.288 546.82 448.288C547.073 448.288 547.316 448.203 547.495 448.052C547.673 447.9 547.774 447.695 547.774 447.481C547.774 447.266 547.673 447.061 547.495 446.909C547.316 446.758 547.073 446.673 546.82 446.673Z" fill="#7474E2"/>
<path d="M250 616.507C249.747 616.507 249.504 616.592 249.325 616.744C249.147 616.895 249.046 617.101 249.046 617.315C249.046 617.529 249.147 617.735 249.325 617.886C249.504 618.038 249.747 618.123 250 618.123C250.253 618.123 250.496 618.038 250.675 617.886C250.854 617.735 250.954 617.529 250.954 617.315C250.954 617.101 250.854 616.895 250.675 616.744C250.496 616.592 250.253 616.507 250 616.507Z" fill="#7474E2"/>
<path d="M465.766 396.427C465.513 396.427 465.27 396.512 465.091 396.663C464.913 396.815 464.812 397.02 464.812 397.234C464.812 397.449 464.913 397.654 465.091 397.806C465.27 397.957 465.513 398.042 465.766 398.042C466.019 398.042 466.262 397.957 466.441 397.806C466.62 397.654 466.72 397.449 466.72 397.234C466.72 397.02 466.62 396.815 466.441 396.663C466.262 396.512 466.019 396.427 465.766 396.427Z" fill="#7474E2"/>
<path d="M412 229.442C411.747 229.442 411.504 229.527 411.325 229.678C411.147 229.83 411.046 230.035 411.046 230.25C411.046 230.464 411.147 230.669 411.325 230.821C411.504 230.972 411.747 231.057 412 231.057C412.253 231.057 412.496 230.972 412.675 230.821C412.854 230.669 412.954 230.464 412.954 230.25C412.954 230.035 412.854 229.83 412.675 229.678C412.496 229.527 412.253 229.442 412 229.442Z" fill="#7474E2"/>
<path d="M344.644 246.8C344.411 246.827 344.198 246.925 344.043 247.075C343.889 247.225 343.804 247.417 343.804 247.616C343.804 247.815 343.889 248.007 344.043 248.157C344.198 248.306 344.411 248.404 344.644 248.431C344.877 248.404 345.09 248.306 345.245 248.157C345.399 248.007 345.484 247.815 345.484 247.616C345.484 247.417 345.399 247.225 345.245 247.075C345.09 246.925 344.877 246.827 344.644 246.8Z" fill="#7474E2"/>
<path d="M342.43 418.753C342.177 418.753 341.934 418.838 341.755 418.99C341.577 419.141 341.476 419.346 341.476 419.561C341.476 419.775 341.577 419.98 341.755 420.132C341.934 420.283 342.177 420.368 342.43 420.368C342.683 420.368 342.926 420.283 343.105 420.132C343.284 419.98 343.384 419.775 343.384 419.561C343.384 419.346 343.284 419.141 343.105 418.99C342.926 418.838 342.683 418.753 342.43 418.753Z" fill="#7474E2"/>
<path d="M484.108 349.289C483.421 349.289 482.761 349.52 482.275 349.932C481.789 350.343 481.516 350.902 481.516 351.484C481.516 352.066 481.789 352.624 482.275 353.035C482.761 353.447 483.421 353.678 484.108 353.678C484.795 353.678 485.455 353.447 485.941 353.035C486.427 352.624 486.7 352.066 486.7 351.484C486.7 350.902 486.427 350.343 485.941 349.932C485.455 349.52 484.795 349.289 484.108 349.289Z" fill="#7474E2"/>
<path d="M261.682 601.023C261.034 601.069 260.43 601.32 259.99 601.725C259.55 602.13 259.306 602.66 259.306 603.21C259.306 603.761 259.55 604.291 259.99 604.696C260.43 605.101 261.034 605.351 261.682 605.397C262.33 605.351 262.934 605.101 263.374 604.696C263.814 604.291 264.058 603.761 264.058 603.21C264.058 602.66 263.814 602.13 263.374 601.725C262.934 601.32 262.33 601.069 261.682 601.023Z" fill="#7474E2"/>
<path d="M354.652 411.392C354.004 411.438 353.4 411.688 352.96 412.093C352.52 412.498 352.276 413.029 352.276 413.579C352.276 414.129 352.52 414.66 352.96 415.065C353.4 415.47 354.004 415.72 354.652 415.766C355.3 415.72 355.904 415.47 356.344 415.065C356.784 414.66 357.028 414.129 357.028 413.579C357.028 413.029 356.784 412.498 356.344 412.093C355.904 411.688 355.3 411.438 354.652 411.392Z" fill="#7474E2"/>
<path d="M527.38 554.922C526.693 554.922 526.033 555.154 525.547 555.565C525.061 555.977 524.788 556.535 524.788 557.117C524.788 557.699 525.061 558.257 525.547 558.669C526.033 559.08 526.693 559.311 527.38 559.311C528.067 559.311 528.727 559.08 529.213 558.669C529.699 558.257 529.972 557.699 529.972 557.117C529.972 556.535 529.699 555.977 529.213 555.565C528.727 555.154 528.067 554.922 527.38 554.922Z" fill="#7474E2"/>
<path d="M417.724 279.048C417.076 279.094 416.472 279.344 416.032 279.749C415.592 280.154 415.348 280.684 415.348 281.235C415.348 281.785 415.592 282.315 416.032 282.721C416.472 283.126 417.076 283.376 417.724 283.422C418.372 283.376 418.976 283.126 419.416 282.721C419.856 282.315 420.1 281.785 420.1 281.235C420.1 280.684 419.856 280.154 419.416 279.749C418.976 279.344 418.372 279.094 417.724 279.048Z" fill="#7474E2"/>
<path d="M422.53 579.535C422.297 579.562 422.084 579.66 421.929 579.81C421.775 579.959 421.69 580.152 421.69 580.351C421.69 580.549 421.775 580.742 421.929 580.891C422.084 581.041 422.297 581.139 422.53 581.166C422.763 581.139 422.976 581.041 423.131 580.891C423.285 580.742 423.37 580.549 423.37 580.351C423.37 580.152 423.285 579.959 423.131 579.81C422.976 579.66 422.763 579.562 422.53 579.535Z" fill="#7474E2"/>
</svg>
