<svg width="35" height="35" viewBox="0 0 35 35" fill="none" xmlns="http://www.w3.org/2000/svg">
<path d="M35 17.5C35 7.83502 27.165 0 17.5 0C7.83502 0 0 7.83502 0 17.5C0 27.165 7.83502 35 17.5 35C27.165 35 35 27.165 35 17.5Z" fill="#7474E2"/>
<path d="M18.9469 23.0811C13.207 23.0811 9.93431 19.1539 9.80005 12.6084H12.6868C12.7791 17.4084 14.8938 19.4392 16.5721 19.8588V12.6084H19.2826V16.7455C20.9357 16.5692 22.6812 14.6811 23.2686 12.6H25.9707C25.7504 13.6773 25.3102 14.6976 24.6778 15.5971C24.0454 16.4966 23.2343 17.2561 22.2952 17.828C23.3432 18.3496 24.2688 19.0875 25.0108 19.993C25.7528 20.8985 26.2945 21.951 26.6 23.0811H23.621C22.9833 21.0923 21.3889 19.5483 19.2826 19.3385V23.0811H18.9553H18.9469Z" fill="#F4F3FF"/>
</svg>
